<svg xmlns="http://www.w3.org/2000/svg" id="Ebene_1" viewBox="0 0 48 48"><defs><style>.st0{stroke:#26282a;stroke-linecap:round;stroke-linejoin:round;stroke-width:.05px}.st0,.st1{fill:#26282a}.st3{fill:#e3e3dd}</style></defs><path d="M45.72 33.25c-.25.02-.06-.41-.12-.58-.49-.22-.74-.74-1.05-1.14-.17-.22-.32-.34-.47-.46-.04-.03.03-.19 0-.23s-.19-.08-.23-.11.03-.19 0-.23-.19-.08-.23-.11.03-.19 0-.23c-.14-.18-.41-.39-.58-.57-.22-.23-.51-.32-.58-.69-.32-.01-.47-.26-.7-.45q-.3-.27-.58-.57l-.58-.57c-.15-.16-.28-.37-.35-.46-.02-.02.02-.09 0-.12-.03-.04-.2.04-.23 0-.31-.32-.56-.68-.82-.92-.33-.31-.65-.51-.93-.8-.18-.19-.43-.41-.47-.69-.4-.19-.74-.5-1.05-.8-.3-.3-.62-.64-.82-1.03-.47-.14-.69-.54-.93-.91-.4-.21-.8-.43-.93-.91.02-.27.28-.35.34-.46.15-.27.09-.51.22-.69.22-.31 1.36-1.09 1.37-1.4.01-.26.35-.32.46-.47.04-.05-.03-.17 0-.23.04-.09.22-.09.23-.23 0-.16.14-.04.23-.12.04-.03-.03-.19 0-.23.18-.25.38-.45.57-.7.25-.32.48-.64.68-.81.02-.02.09.02.12 0 .04-.03-.04-.19 0-.23.17-.19.36-.34.46-.47.02-.02-.02-.09 0-.12.03-.04.2.04.23 0 .14-.15.02-.49.34-.35v-.46c.61-.5 1.07-1.2 1.6-1.63.22-.18.44-.46.57-.58.09-.09.23-.04.35-.12.17-.12.28-.41.57-.35-.31-.37.25-.21.34-.35.05-.07.03-.38.11-.58h.12c.03-.03-.02-.19 0-.23h.12c.1-.08 0-1.12-.01-1.27-.02-.11-.11-.14-.12-.23 0-.11-.11-.08-.12-.11-.12-.42-.02-.65-.12-.81-.23-.35-.28-.73-.47-.92l-.23-.23c.08-.43-.2-.49-.12-.92-.29-.02-.39-.31-.58-.46-.08-.06-.15-.18-.23-.23-.06-.03-.17.03-.23 0-.03-.01-.08-.2-.12-.23-.29-.24-.58-.54-.81-.68q-.19-.1-.35-.23l-.23-.23c-.09-.07-.21-.09-.23-.23q.28-.01.34-.23c-.34.03-.36-.26-.69-.22-.01-.18-.04-.22-.23-.23-.17 0-.36-.27-.46-.34-.15-.1-.24-.06-.46-.11-.27-.06-.54-.51-.93-.34-.12-.15-.12-.42-.24-.57-.52-.17-1.15-.23-1.51-.56-.25.29-.7.03-1.04.13-.11.03-.2.43-.46.24-.23.15-.15.61-.45.7-.36.06-.26-.35-.69-.22-.09.48-.54.71-.8 1.05-.14.19-.2.38-.34.58-.12.17-.41.3-.34.58-.43.09-.75.61-.92.82-.03.04-.2-.04-.23 0-.05.06-.08.29-.11.35-.16.31-.56.52-.57.81-.01.23-.44.52-.57.7-.16.22-.3.49-.45.7-.13.17-.36.27-.46.35-.04.03.03.19 0 .23-.05.07-.17.16-.23.23l-.46.58c-.16.2-.5.46-.57.58-.08.15.05.4-.11.46-.31.07-.28.48-.69.47-.2.75-.73 1.19-1.25 1.63-.21.29-.2.79-.68.81-.35-.18-.5-.58-.7-.92a3 3 0 0 1-.7-.45 3 3 0 0 1-.58-.69c0-.13-.07-.05-.12-.11-.17-.26-.39-.42-.47-.69-.26-.12-.58-.19-.81-.34-.02-.19-.33-.32-.35-.34-.17-.14.02-.45-.24-.46-.14 0-.17-.26-.23-.34a3 3 0 0 0-.58-.57c-.04-.03.03-.19 0-.23-.22-.31-.68-.44-.7-.8 0-.12-.59-.69-.58-.69-.16-.11-.44-.09-.58-.23l-.12-.23c-.02-.25-.36-.24-.35-.46-.42.03-.56-.21-.93-.22-.41-.51-1.03-.63-1.62-.79v-.12c-.03-.04-.19.03-.23 0-.2-.13-.39-.46-.58-.69-.18-.21-.38-.52-.58-.69-.31-.25-.7-.12-.81-.57-.33-.09-.3.17-.58.12-.22-.05-.21-.33-.58-.23-.02.21-.39.07-.46.24-.11.15-.11.43-.34.46-.28-.38-.57-.03-1.15-.1-.31.07-.28.48-.69.47h-.58c-.1.32-.31.32-.57.36-.37.05-.2.21-.57.24-.23.01-.37.44-.69.24q-.15.3-.46.47c-.25.14-.64.13-.8.35-.03.42-.28.86-.22 1.27.02.13.19.32.35.57.05.07.19.15.23.23.07.13.05.24.12.35.05.07.18.15.23.23.06.1.04.24.12.35.12.16.37.27.46.34.04.03-.03.19 0 .23.14.18.33.28.47.46.15.18.21.41.35.57s.35.33.47.46c.19.2.32.43.58.46 0 .25.21.39.35.57.32.39.56.67.82 1.03.12.16.34.32.35.46 0 .13.07.05.12.11.13.18.23.4.35.57.05.07.18.15.23.23.03.04.12.19.12.23 0 .13.07.05.12.11.26.38.6.78.7 1.26.37.19.58.62.7.8.08.13.12.14.23.23.03.03-.02.19 0 .23h.12c.04.03-.03.19 0 .23.11.15.33.31.47.46.08.09.16.13.23.23l.47.57c.27.36.57.52.82.8.07.08.06.27.12.34.08.1.27.13.35.23.16.18.16.31.24.46.01.03.2.08.23.11.17.18.29.39.47.57.16.17.51.26.47.57.31.11.56.28.58.69-.19.51-.73.91-1.03 1.16-.04.03.04.19 0 .23-.17.2-.39.39-.57.58-.1.11-.24.13-.34.23-.14.14-.02.5-.34.35.03.34-.26.36-.22.69-.53.2-.56.9-1.14 1.05.07.56-.49.51-.45 1.04-.32-.08-.23.23-.46.24-.22.62-.73 1.03-1.14 1.51-.12.14-.34.39-.34.46-.01.3-.33.13-.34.35 0 .21-.49.6-.57.7-.21.26-.35.54-.57.81-.2.24-.49.46-.69.7-.09.11-.13.34-.23.46-.17.22-.56.34-.57.58 0 .13-.07.05-.11.12-.09.14-.12.34-.23.46q-.34.36-.8.58c.13.5-.67.75-.68 1.05-.01.23-.33.27-.34.46 0 .13-.08.06-.11.12-.32.59-.72.84-1.14 1.28l-.91 1.05c0 .25.17.41.24.57.07.19.03.33.12.46.06.09.27.14.35.23.01-.28.38-.03.35.11-.02.68.37.94.7 1.26.1.37-.18.36-.23.58.38.35.9.56.94 1.26.23.11.49.19.58.46v.58c.26.17.4.46.59.69.14.17.34.31.35.46s.27.13.35.23q-.04.39.12.58c.42.27.73.65 1.28.8l.47.69c.66.07.83.63 1.51.68.16.15.06.56.35.57.08-.42.84-.17 1.27-.24.03-.22.23-.32.34-.46s.35-.57.46-.58c.13 0 .05-.05.11-.12.18-.18.27-.41.34-.58.05-.13.11-.18.11-.35.43-.07.57-.54.8-.82.05-.06.18-.06.23-.12.08-.09.03-.25.11-.35.14-.18.36-.25.46-.47.2-.26.36-.55.57-.81l.34-.35c.02-.02.09.02.12 0 .04-.03-.04-.19 0-.23.03-.04.19.04.23 0s-.04-.19 0-.23c.17-.21.68-.66.68-.81 0-.21.25-.27.34-.35.03-.03-.03-.19 0-.23.03-.06.18-.17.23-.23.15-.18.28-.29.46-.47l.23-.23c.09-.09.27-.14.34-.23.05-.07-.04-.27 0-.35.04-.09.27-.05.34-.12.03-.03-.02-.19 0-.23H19c.04-.03-.03-.19 0-.23.15-.2.48-.34.57-.47.08-.1.04-.26.11-.35.29-.36.65-.71.91-.93.04-.03-.03-.19 0-.23s.19-.06.23-.12c.08-.11.03-.25.11-.35.32-.38.71-.61 1.03-.93-.1-.33.16-.3.11-.58.37.04.28-.2.34-.35.01-.03.2-.08.23-.12.17-.21.28-.5.46-.7.36-.41.8-.73 1.26-1.05.05-.22.33-.21.23-.58.41.02.38-.39.69-.47.09-.49.42-.73.92-.82.37.23.65.59.93.91.14.16.33.29.47.46.07.09.05.26.12.35.26.33.66.42.93.68.09.07.04.26.12.35s.28.04.35.11.06.27.12.35c.04.06.18.18.23.23.36.34.76.5 1.05.91.15.22.32.48.35.8q.3.2.46.34c.04.03-.03.19 0 .23.04.04.19.08.23.11s-.03.19 0 .23c.08.1.28.13.35.23.07.09.07.26.12.35l.12.11q.1.19.23.34c.1.1.14.23.23.34.02.02-.02.09 0 .12.03.04.2-.04.23 0 .08.1.04.23.12.34.07.1.27.13.35.23.04.05-.02.18 0 .23.01.03.2.08.23.11.09.11.14.24.23.34.18.21.39.35.58.57.04.04-.02.18 0 .23.05.12.42.19.46.23.04.03-.04.2 0 .23.08.06.27.07.35.11.13.07.21.19.35.23.28.09.52.14.81 0 .32.05-.29-.43.11-.46.31.15.64.28 1.16.22.41-.06.4-.52.92-.47.11-.22-.35-.38 0-.46.4-.32.87.07 1.38-.01.19-.23.35-.5.69-.58.52-.26 1.17-.38 1.73-.59.04-.12.15-.15.23-.23s.09-.22.23-.23c.22-.13.54-.15.81-.24 0-.23.31-.15.23-.46.07-.16.44-.02.46-.24.23-.27.41-.58.8-.7-.1-.52.54-.31.34-.93.33.09.3-.17.58-.12.11-.7-.04-.95.22-1.5-.17-.03-.2-.19-.35-.23Z" style="fill:#e5b969;fill-rule:evenodd"/><path d="M46.32 8.38c-.07-.29-.28-.38-.6-.36-.11 0-.99.16-1 .09-.05-.38.26-.52.51-.73.23-.18.28-.41.28-.69 0-.31.11-.6.08-.9h.02c-.04-.19-.03-.42-.14-.61-.16-.27-.32-.68-.62-.83a1 1 0 0 0-.37-.09h-.52q-.21.01-.41.07c-.24.07-.44.31-.63.47-.26.2-.66.17-.96.25l-.79.21-.36.05c-.33.14-.74.27-1.1.15-.7-.25-1.45-.18-1.99.39.02-.02-.32-.14-.35-.15l-.38-.04q-.45 0-.83.24-.15.08-.26.2-.11.14-.08.31l.08.03.05.02q.03.02.02.05l.02.11q.01.12.05.23l.04.09.06.24-.01.14v.09l.02.04c.02.04-.04.02-.06.01-.76-.29-.76-.62-1.82-.53-.19.02-.46.15-.63.23s-.28.22-.33.37c-.07.24-.02.36.11.55.06.09.18.2.25.29l.15.06q.13.03.25.1c.16.12.34.16.51.24q.61.3 1.29.33.05 0 .1.03.04.03.02.08-.03.04-.09.04-.14.2-.33.33c-.09.08-.14.2-.27.24h-.04c-.21.25-.5.4-.76.6s-.46.32-.77.47c-.46.23-.9.49-1.42.53l-.15.03-.16.03-.11.04-.75.11c0 .07-.09.03-.12.04-.31.07-.68.2-.99.36a5 5 0 0 1-1.6.48l-1.01.18-1.31.3c-.69.16-.9-.03-1 .02-.03.02-.04.09-.05.13-.9.29-1.8.56-2.79.63l-2.28.17c-.86.07-2.67.3-3.13.16q-.6-.2-1.13-.03h-.02l-.77.09-.32.03-.14.02q-.13-.01-.28.04-.57.1-1.09.36l-.13.08-.69.41q-.32.19-.63.4c-.44.33-.7.68-.85 1.21l-.02.1q-.04.16-.1.31c.04.11.05.27.01.37-.15.38-.12.73-.11 1.12 0 .16-.02.24.02.4.09.37.02.8.06 1.18l.05.66q.12 1.19.04 2.38l-.01.41c-.02.47-.06.91-.03 1.36v.17l.05.49c.03.33.19 1.34.2 1.73 0 .39-.09.3-.11.72a5 5 0 0 1-.46 1.55c-.23.47.01.81.04 1.28l.07.09q-.02-.04-.06-.07l-.02.03v.13l.02.04q.02-.06.06-.1l-.01.19q.12.34-.04.67 0 .02-.04.02v.12l.08-.08c.03.2-.04.41-.06.6-.04.34.06.64.13.96.05.24.03.45.03.7a8 8 0 0 1-.51 2.88c-.1.25-.18.5-.12.77l.1.06q.09-.1.21-.07-.1.45-.18.91c-.02.14-.06.3.1.39.28.15 2 .6 2.12.32.22-.52-.25-.96-.36-1.45-.11-.52-.04-1.07-.06-1.59-.02-.3-.1-.37-.1-.72s.06-.97.07-1.37c.03-.06.07-.07.1-.13.02-.03-.07-.08-.06-.12l.1-.53.13-.18.08-.27q.23-.48.3-1c.05-.31.34-.45.3-.79s.11-.49.23-.84c.08-.25.16-.48.25-.82.09-.35.21-1.04.3-1.42.17-.71.43-1.27.78-1.89.11.21.25.3.36.52.18.39.07.83.36 1.22-.22.58-.47 1.33-.76 1.84-.55.96-.18 1.12.04 1.85.21.69.34 1.41.47 1.88s.15.48.24.78l.25.9c.05.2 0 0 .02.13.11.12.12.29.15.45.11.51.26 1.01.3 1.53q.04.4-.09.77c-.07.23-.22.42-.28.65.21-.02.35-.19.56-.19.04.28-.01.55 0 .82l.02.08q.05.06.12.07.6.14 1.23.13l.76-.04q.08.01.14-.04.05-.05.06-.14.04-.35-.1-.67c-.14-.31-.41-.55-.54-.86-.17-.41-.03-.82-.1-1.25-.06-.43-.31-.79-.4-1.21-.1-.45-.16-.9-.27-1.35-.12-.51-.05-1 .02-1.51q.05-.48.15-.97l.12-.53c.08-.32.21-.45.36-.78.12-.27.3-.51.44-.88s.34-1.16.47-1.55.18-.62.29-.98q.7.32 1.42.52c.24.07.34.2.51.38.15.16.4.35.63.28.44-.12.75-.41 1.21-.45.6-.06 1.11-.03 1.75-.15l1.51-.29c.44-.08.69-.15 1.15-.22l1.6-.21c.17.67.37 1.57.5 2.19.18.84.33 1.43.45 2.22.03.22.07.25.1.53.03.27.15.66.25.99.15.5.1 1.07.04 1.59a17 17 0 0 1-.7 3.31l-.12.46c-.06.19-.2.34-.22.55q.17-.06.33-.14c-.05.15-.16.28-.21.43-.02.05-.06.09-.03.15.29.46 1.54.38 2.06.38.11-.27.05-.56-.06-.82-.21-.52-.4-.76-.25-1.35.12-.46.39-.93.34-1.46q-.07-.85.12-1.71c.27-1.23.97-1.76.91-3.16-.02-.33-.11-1.02-.14-1.38-.07-.81-.08-1.5 0-2.29q.5.13.99.22c.02.28.1.62.15.87.04.22.05.32.1.53l.15.63.02.07q0 .03-.03.05l.11.82q.04.02.04.06l-.02.05q0 .08.02.15.07.04.06.1c0 .12 0 .2.03.33l.23 1.21c.05.33.09.58.08.88q-.05 1.26-.26 2.48c-.09.49-.14.97-.24 1.43-.09.43-.32.76-.38 1.19l.02.06q.04.02.07.01c.5 0 .28.5.23.84q-.01.06.01.11t.11.07c.7.23 1.54.5 2.17.02q.05-.04.06-.1 0-.1-.06-.18a3.5 3.5 0 0 1-.53-1.38c-.06-.51.15-.95.11-1.49q-.06-.98.04-2.01c.02-.22.06-.61.06-.85q.27-.91.49-1.82c0-.26-.05-.49-.04-.77 0-.28.06-.8.06-1.04l-.02-.57v-.23q-.02-.66.14-1.3.42-.43.68-.97c.14-.24.21-.43.34-.69l.4-.8c.12-.25.17-.31.3-.62s.23-.77.38-1.16c.31-.78.71-.91.78-1.93.03-.37.01-1.11.03-1.55.04-.73.09-1.25.34-1.99l.23-.63c.17-.43.7-1.62.94-2.22.28-.69.53-1.41 1.11-1.85.67-.52.98-1.43 1.62-1.74.62-.3.9-.56 1.29-1.07q.34-.42.82-.7c.18-.11.47 0 .61-.15.38-.36.92-.95.57-1.46Zm-34.19 7.05h.02zm28.62-9.95.06-.04q-.03 0-.06.04" class="st1"/><path d="m15.95 39.71.03-.03.03.03-.03.03zM54.32 3.48c.15-.18.32-.1.48-.15.17-.05-.29-.31-.48.15" class="st1"/><path d="M14.36 13.67v-.03l.01-.03v.01-.03l.01-.02v.1l.04-.01.04-.01h.13v.02h.02l.01.01h-.02l-.03.02h.01v.01l-.02.01-.01.01-.02.01h-.02l-.02.01h-.22v-.06.01-.04l.01-.02.02-.01v-.02l.01-.02.01-.02v.02l.01-.01v-.01h.01v-.01l-.01.02Zm-.13.08.01-.02Zm.12-.19v.02l-.01.03-.02.04-.01.02v-.02l.01-.02v-.03.02l-.01.02v-.01Zm-.06.16v.02Zm.03-.08-.01.02-.01.02v-.01Zm-.02-.03v-.03zl-.01.02v.01Zm.03-.12v.02l-.01.03Zm.13.03-.02.02v-.03.01-.09.01h-.03v.01-.02l.01-.02.01-.03v.02l-.01.02.02-.03.02-.02.02-.03v-.04l.01-.03.02-.03v-.01l.01-.02v-.05h-.14l-.05.01h-.05v-.01h.01l.04-.03.03-.02.02-.02h.02l.01-.01.02-.01h.01l.02-.01h.03l.03-.01h.11v.14l-.01.04v.07l-.01.02v.01l-.02.03v.01l-.04.05v.03l-.02.02-.01.01-.01.01-.01.01-.01.01v.05h-.01v-.01l-.02.02Zm-.11-.06v.04l.01-.02zm.06.09v-.02Zm.02.05v.01zm.05-.18v.01zl.02-.02zm-.05.01v.01Zm.38-.79.02-.01zm.19 1v-.05.02-.15.01-.06.04-.08l.01-.02.01-.05v-.22l.03-.06V13l.01-.01v-.04l.01-.01h.01l.01-.01v-.01l.03-.03.02-.02.03-.04h.02l.01-.01h.13l.03.01.01.01.01.01.01.01v.16l-.01.04v.24l-.01.03v.06l-.02.06v.06l-.02.02-.01.01h-.18v-.09.02-.03.01-.01Zm-.04-.02v.02zm.02-.09v.03Zm.04.02v.03Zm-.02-.09v.03zv.03Zm.09.1v-.1zh.02Zm.05-.02.01.02Zm-.03-.13v.02zm.04-.01v.03zv.03h.03v-.09Zm.03-.01v-.05Zm.17.05v-.18l.01-.05v-.02.04-.02l.01-.02v-.02h.01v.04-.05.02-.04.02-.02h-.01v.02-.01l-.01.02v.01h-.01q0 .03-.02.03v-.03l-.01.01h-.01v.02-.04l-.02.03v-.07.01l.02-.04v-.14.01h-.02v.06l-.01.03v.02l-.01.03v.46l.02.01h.02v-.01l.01-.01.02-.04h.01v-.03Zm-.3-.58-.02.03v-.01Zm.04-.05.02-.02Zm.36.42v.02zm.08-.23.02-.05Zm.23-.31v.03Zm.11.8v-.03l.02-.03v.01-.01l.01-.02.02-.01v.03l-.01.05v.02h.26v.02h.02v.03h-.03l-.03.01.01.01h-.01v.01h-.4v-.04l.01-.02v.02l.01-.01v-.01l.01-.02.02-.02.02-.01v-.02l.02-.02.02-.02v.02h.02v-.01h.01l-.01.02h.01Zm-.17.13.02-.02Zm.02-.06.02-.02Zm.16-.18-.02.02-.03.04-.02.02v-.02l.01-.02.01-.01v-.03.02l-.01.01v-.01Zm-.09.16v.02Zm.05-.08-.01.01v-.01Zm-.02-.04.01-.02.01-.01zl-.02.02v.01Zm.06-.12-.01.02-.02.03Zm.12.05h-.01l-.02.02v-.03l-.01.01.01-.02.01-.02h-.01l.01-.02.01-.02v-.02h-.01l-.01.01h-.03l-.01.01v-.02l.02-.02.02-.03v.01l-.01.01-.02.02.02-.03.02-.02.03-.03h.01l.01-.01.01-.01.02-.02h.01l.03-.03.02-.02.01-.01V13h-.25v-.01h.03l.05-.02.03-.01.03-.02h.17l.04.02.02.01v.04l-.01.04v.04l-.02.03v.05l-.01.01v.02l-.02.03v.01l-.04.04v.02l-.01.01-.02.01-.02.01-.01.01h-.01l-.02.01-.01.01v.02l-.01.01v.02h-.01v-.01l-.02.01Zm-.09-.08v.02h-.01l-.01.02.02-.02zm.04.11v-.02Zm.01.05v.01zm.09-.18-.01.01zh.02v-.01l.02-.02zm-.06 0v.01Zm1.18-.15h.04l.02.01h.02-.01v.01h.02v.01l.01.01v.07l-.02.03v.07l-.02.01-.02.01-.02.01h-.37l-.01-.02h.01l-.02-.02v-.28.01l.04-.07.03-.03v-.04l.02-.02.02-.03v-.02h.01l.03-.02h.01l.02-.01h.01l.06-.03h.05l.03-.01h.14q0 .02-.03.04h-.05l-.02.01-.03.01-.03.01h-.04l-.03.01h-.03l-.02.01h-.01l-.02.01-.02.01-.03.01h-.01l-.02.02-.03.03-.01.01-.01.02v.01h.22-.01.08Zm-.73.46v-.02Zm.76-.44h-.15l-.05.01v.01h.07l-.02.01h-.13v.01l-.01.01-.01.01-.02.01v.04l-.01.06v.04l.02.02h.15l.02-.01.04-.02h.01v-.03l.01-.01h.02v-.03l.01-.02v-.02.01h.02v-.02h-.07.05Zm-.05.12.01.02v.02Zm2.71 14.71h.02zh-.03zv.02h.02v.01h-.03v.01h-.09l-.11-.02v.02l-.02-.01v.48l-.03.23v.33l-.02.1-.01.09v.08q-.02.04-.08.07h-.23v-.02h-.01v-.02h-.02v-.02h.02v-.02h.03l.01-.04v-.08l.01-.04v-.06l.02-.01v-.14h.02v-.01l.01-.02-.01-.01v-.05l.01-.03h-.02v-.01l.01-.04h-.01v-.05.01-.09.04h.01v-.04h.01l.01-.03v-.02l.01-.02v.02h-.01l.01-.01v-.07l.01-.05v-.07l.01-.05v-.03l-.01.01v.02l-.01.02s-.02 0-.02.03v-.11.02-.29h.02-.11.01-.08l.02.02h.06l.07.03h-.02l-.1-.02-.06-.01-.05-.01-.09-.03h.02l-.02-.01-.01-.01H19h.06-.08.03H19h.11q.06 0 .07.02h.05-.02.01-.03l-.05-.01h-.05.23-.03l.02.01h.16-.06.05-.04l-.03-.01h-.04l-.04-.01-.05-.01.02.01h-.19.05l.18.04h.01l.04.01h.11l.11.03.1.02.09.03.11.03.07.01.05.01h.08v.01Zm-1.04-.11h-.01zh-.01Zm.18-.06-.06-.01h-.01l.05.01.04.01Zm-.08-.03.04.01h-.06Zm.09.15h.03H19Zm0-.03H19Zm.2.03.01.01v-.03h-.09l.02.02h-.02.01-.02.03l.03.01h-.01.05-.04l.06.02.02.01v-.01h-.03.04v-.04l-.02-.01h-.01.03Zm-.14.01h-.02.03Zm.02.07-.05-.01h.09zm-.03-.11h.03-.01Zm0-.02h.03zm.04-.09h.03-.05l-.03-.01h.02Zm-.02.01h.03zm-.01.2h-.01Zm-.08 1.65-.01.01zm.09-.99v-.02zm0 .86v.01h-.02v-.02zm-.03-.04v-.02h.02zm.06-1.06v.01Zm.04-.25v.02zv-.02zm.01-.23h.02Zm.01.26v.03l.01-.05h-.01Zm.01-.01v.01zm-.04.69h.02Zm.08-.98h-.02zh.02Zm-.03.05h-.02Zm-.01.19v-.03Zm0 .37.01-.03v-.05.04zm.03-.13v.02-.01Zm-.02.11v.04Zm.04-.17v.01Zm-.01.15v.02Zm.04-.54h-.01Zm.01.29-.01-.01v-.01Zm.3.07.01.02Zm.02-.03h-.01zm.23-.3h-.04zm-.01.17h-.01Zm.03-.14h-.01zm.04.08" class="st3"/><path d="M20.22 28.84v.19l-.01.1q0 .11-.02.14v.01l-.01.09v.2l-.01.01h-.05v-.01.02-.09.05-.03.05-1.2h.01v-.03.02l.01.02v.01-.02.03h-.01v.09h.01v.01h.01v.06l.01.07v.14Zm.05-.66v.03l.02.05v.02l-.03.06h-.04l-.03-.01-.07-.04-.03-.02-.01-.01-.02-.02-.02-.02-.04-.05-.01-.02-.01-.02-.01-.05v-.1l.01.01h.04l.02.02.02.02.02.03q0 .03.02.03Zm-.25.18v.01zm-.03 1.24v-.01zm0-.08v-.02Zm.07-1.14v.01-.03Zm-.05 1.09v-.01zv.01zv-.09.05-.01zm.02-.04v.02zm.05-.99v-.01Zm-.04 1.01v.02Zm0 .17v.02Zm.01-.21v.01Zm.05-.97v.02zv-.03zm-.04.97v.01zm0 .14v.02zm.07-1.15v.01zm-.05.98v-.04.01-.01Zm0 .06v-.02Zm.08-.99s0 .01 0 0v-.02zm-.06.93v.04-.08.02Zm0 .1v.01Zm.08-1.05v.03-.01Zm.02.03v-.03zv-.03Zm.54.9h.17l.06.01H21l.02.01.03.02.01.02.01.01v.01h-.01v.01l.01.01v.03l-.03.01h-.62l-.01-.02v-.04l.01-.02v-.25l.02-.11v-.62h.1l.03.01h.39l.02.01H21v.04h-.02.04l.01.02q0 .02-.02.03h-.39v.17l.1.01h.18l.03.01h.02l.03.02h-.02l.02.01v.02l-.02.02h-.04.02v.03l.01.02h-.23l-.12-.03h-.01v.25h.14Zm-.24-.47v-.14.01-.05.27-.06Zm-.02.11h.01Zm.05-.52v.09-.04l-.01-.02Zm-.02.25v-.03zm.03.19v-.25.03-.02.05h-.01v.14-.05l.01-.08v.13-.13.16-.05Zm-.04.05V29v-.02Zm.67.38v-.8h.09l.14-.06.22-.08h.15l.02.02.02.01v.37l-.01.03v.03l-.02.03q0 .03-.02.03l-.01.02-.01.02-.02.01-.02.01-.02.02-.03.03-.04.01.03.02.03.01.07.07.01.02v.18l.01.07v.01l.02.11.01.04v.04h-.04l-.02-.01-.03-.03-.02-.02-.01-.02-.04-.07v-.02l-.02-.09-.02-.08-.02-.07-.02-.07-.03-.04-.02-.01h-.02l-.01-.01h-.07v.48-.04.07-.02.03-.03.07-.31Zm.03.16v-.06Zm.07.09v.02Zm.14-.01v.01Zm-.02-.99v.03-.05Zm.05.19v.19l.02-.02.04-.03.02-.02.02-.03.02-.03.04-.06.02-.03.03-.08v-.12l-.01-.04h-.1l-.05.01h-.12v.01-.02.03-.03l.01.12Zm.12.34h.01Zm.08-.02h.02Zm.08.05.02.01Zm.02.49v-.02Zm.01.02-.01-.02zm1.01-.92v.34l-.01.16v.37l-.01.01h-.05v-.01.03-.1.06-.03.05-1.3.03-.02.04-.01.13l.01.07v.16Zm.03-.76V28l.01.04v.02l-.02.08-.02.02-.02.01h-.03l-.06.01h-.04l-.03-.02V28h.05l.02.01.01.02Zm-.19.35v.02zm-.03 1.23v-.02Zm.06-1.24v.01-.03Zm-.05 1.19v-.02zv-.12.05-.01zm.01-.06v.02zm.01.03v.02Zm0 .18v.02Zm.01-.22v.01Zm.04-1.07v.02zv-.03.04Zm-.03 1.06v.01zm0 .15v.02zm.06-1.27v.01zm-.04 1.09v-.05.01-.01Zm0 .06v-.02Zm.06-1.12v.01zm-.04 1.04v.05-.09.02Zm.06-1.08v.03zm.01.03v-.05zv-.03Zm.03.96v.01zm1.32-1.38v.1V28v.05-.01h.01v.02l.01.06v-.01.17-.02.11-.02.95h-.08v-.02h-.01v.02l-.01.02v.02-1.01.05l-.02.08-.02.07-.02.07-.01.04-.02.07v.07l-.05.18v.03l-.01.03-.01.04-.01.04v.03l-.01.05v.03l-.01.04-.02.04-.02.04h-.02l-.01-.01-.01-.02v.01-.02.02-.16l-.01-.04-.01-.04v-.03L23.7 29v-.15l-.01-.04v-.03.79l-.02.02v.02l-.01.01h-.01v-.01h-.05v.02h-.01v-.09l.02-.08v-1.29l.01-.04.03-.02h.08l.05-.01h.07v.02l.01.02v.07l.01.02v.14l.02.05v.31l.02-.06.02-.07v-.09l.02-.09.01-.05v-.02q0-.03.02-.03l.01-.03.01-.06.01-.04v-.06l.01-.04.01-.04V28l.02-.06v-.02l.01-.03.03-.06v-.03h.06l.01-.01h.07l.01.01v.02Zm-.62 1.5v.01Zm.06.12.01.01Zm.41-.24v.04zm.02.1v-.09.04-.01.04Zm0-.2v.03-.01Zm0-.18v-.03Zm.11-.97v.03-.02Zm.04-.06-.01-.05v-.01.02-.02zm.01.05v.03Zm.05.25v.01Zm.71 1.14v.03zv-.02Zm-.16-1.82h.02v.01h.14-.01.03v.11l-.01.02h-.26v.08l.02.23v-.01h.02l.02.03.05.01.05.01h.06l.01.02h.03l-.03.02v.01l.02-.03.02.02h.01v.04l-.03.03v.01h.03v.01h.01v.11-.01l-.01.02h-.15l-.02.02-.03.02v.25l.01.08v.42-.02h-.01v.01-.36l-.01-.06v-.18.09-.01.03l-.02-.12-.01-.11v-.19l-.01-.09-.01-.09v-.02l-.03-.25v-.41.03-.06h.02Zm.1 1.38v-.02zm.04.2v.01zm.02-.13v-.08.37-.24Zm-.05-.16v.01zm.09.44v.02-.04Zm.04.03v.01zv.01-.13h.01v-.05.02-.01.04-.09.03-.01.07-.03.02Zm-.01-.01v.02Zm-.04-.31V29v.01Zm.08.25v.02zv.01Zm.01-.03v.01Zm.05.07v-.03.04-.03Zm.1-1.02q-.02 0-.01.01Zm.01.04v.01Zm.13.22v.01Zm.02.01v.06-.1.02-.07.13zm-.04-.14v-.02zm-.01-.13v.05zm.02.09v.07-.13.08Zm.01.1v-.02Zm.29-.96h.03l.01.01h.01l.01.01.03.03v.02l.02.03.05.12.01.04v.08l.02.06.02.07v.2l.01.06.01.06v.05l.01.05v.08a1 1 0 0 1 0 .29v.15l-.02.09v.05l-.01.01h-.01l-.05.04-.02.02-.02.01-.04.03h-.02l-.02.01h-.13l-.01-.02-.02-.01v-.01l-.01-.01-.01-.02-.01-.02-.01-.03-.01-.02-.01-.02-.01-.02-.03-.08-.02-.07-.03-.09v-.04l-.02-.11-.01-.09v-.8l.01-.05.06-.09v-.01l.01-.02.01-.01.01-.01.02-.02h.03Zm-.33.66v.03zm.04.26v-.09.12Zm-.03-.23v.03-.02Zm.04.2v.02-.04Zm-.01-.09v.02zm0-.08v.01Zm-.01-.07v.04zm.02.04v.02zm0-.05v.04zm-.01-.05v.04-.1zm.03.06v.04zm.09-.03v.12l.02.12.02.11v.06l.02.08v.08l.02.05.03.07.02.06.02.04.01.02V29l.01.02.01.02q0 .02.07 0l.03-.02v-.21l-.02-.19v-.01.13-.14.08l.01.03v-.12.08-.13.05-.09l-.01-.07v-.06l-.01-.05v-.07.18-.16.01l-.01-.04-.03-.12-.01-.04-.01-.03-.01-.03v.02l-.02.02-.02.02-.02.01v-.03l.02-.03.02-.03-.01.01v.03h-.02V28l-.02.02-.02.03v.31Zm.38.5v.01Zm-.02-.12v.01zm-.01-.22-.01-.02Zm0-.04v.03zm.06.16v.02Zm-.04-.2v.01Zm.05.21v.01zm.64-1.22v.12-.03l-.03.05v.04l.01-.03v-.05.13-.05.17l-.01.03v.01l-.02.04q0 .03-.02.04v.07l-.01.05v.05l.01.02.01.01v.01l.01.02v.16l.02.03.02.03.01.03v.01l.03.07v.06l.02.05v.07q0 .03.02.03v.02l.03.08v.12l-.02.01-.03.01h-.02v-.15l-.01-.03v-.02l-.02-.05v-.01l-.01-.02v-.02l-.01-.03-.02-.03-.02-.04-.02-.03-.01-.03-.01-.02v-.01l-.02-.04-.02-.03-.02-.05-.02-.05v.04l.04.19.02.07.01.06.01.05v.04l.01.05v.06l.01.09.01.08v.1-.03.01l-.01-.02v.01-.06l-.02-.08-.03-.11v.01-.14l-.01-.05v-.02l-.03-.1v-.06l-.01-.1v-.05l-.02-.09-.01-.06v-.04l-.02-.06-.02-.06v-.06l-.02-.09v-.17l.01-.03.02-.01h.01v-.01.01l.01.02v.02l.01.02v.06l.02.12v.11-.18l.01-.02.01-.02q0-.03.02-.04l.01-.03.01-.03q.03-.1.05-.1v-.02l.01-.02.01-.02.02-.02v-.01.03-.01l.01-.02.01-.02v-.02l.01-.01Zm-.26 1.74v-.02Zm-.01-.21.01.07v.18-.04l-.01-.05v.02-.25.03-.06l-.01-.04Zm.01.05v.02zm.01-.02v.02zm.07.19v-.02zv-.02Zm-.02-.11v.02zm.01.05v.01Zm.04.04v.01l-.01-.04Zm.12-1.53.01-.03v-.01l.02-.04v.01l-.01.03v.01Zm.03-.1v.05zm.29-.03v.14l.01.12.02.25v.17l.02.13v.45l.01.01.01.01v-1.32q0-.02 0 0v.19-.17l.01.02v.14l.01.08v.02l.02.11v.87l-.01.01-.02.02h-.06l-.02-.01v-1.38h.01v.04Zm.26-.06v.21-.17.08-.2zm.06.29v-.02.1-.06Zm-.05-.4v.02zM28 28.5v-.15l-.03-.11q-.01-.06-.04-.08t-.05-.04h-.01l-.08.03v.01h-.01l-.03.01-.06.01-.1-.02-.03-.02h-.06v-.06l-.01-.02V28v.1l-.03-.09-.01-.05-.01-.05v-.01.05-.09.06-.55q0-.05.03-.08l.02-.03.02-.03h.03l.02-.01h.03l.17-.02h.22l.01.01v.01l.01.01v.01l.03.04.02.05.02.03.02.06.02.06.01.03.02.04v.08q0 .02-.03.03t-.05-.02l-.01-.02h-.03L28 27.6l-.01-.02s0-.02-.02-.03l-.02-.02q0-.02-.02-.02l-.03-.04v-.02l-.01-.01-.01-.01h-.02l-.05-.02q-.06.02-.08.06v.06l-.01.08v.23q.02.1.05.15t.09.04l.02-.01.02-.01q.02 0 .03-.02v-.01l.04-.02.04-.02.07-.03.04-.02h.05l.04.02.02.01h.02l.02.01.03.04.02.03.02.03.01.03.02.03.02.04.02.07.02.06v.04l.02.09v.16l.02.14v.17l-.02.03v.01l-.01.02v.01h-.03l-.02.01h-.01l-.02.01-.01.01h-.01l-.02.01-.02.01h.02-.28.07H28h.01-.15l-.02-.01h-.02v-.12l-.02-.07-.02-.08v-.05l-.01-.04v-.12.01-.02h.04v.05-.02.05l.01.03.01.01v.02-.06.1-.01.03-.12h.01v.07-.02.03l.01.01v-.02h.01v.03l.02.02v.03l.01.02.02.01h.08l.01-.02.02-.02.02-.02.04-.07v-.17Zm-.56.37-.01-.03zm.02-.3v-.08l-.01-.03v.03-.01.02-.02zm.01.34v.01zm0-.32v.02zm.04-.12-.01-.03zm.03-.05.01.02Zm.03.04v-.03zl.01-.01Zm.06.08h-.03v-.01h.01zv.08-.01l-.02-.07Zm.11.16h.01Zm.18.28h-.02zm.33-.16-.02.02-.02.01h-.01l.02-.01Zm-.02.03-.01.02Zm.06-.15" class="st3"/><path d="M10.66 15.14c.65-.31 1.6-.47 1.83.45l.86-.59a2.4 2.4 0 0 0-1.76-1.05c-.79-.08-1.5.36-2.09.84a11 11 0 0 0-2.79 3.45c-.5.98-.85 2.01-1.35 3-.26.52-.71.84-1.12 1.2l-.58.5.09.09q-.49.28-.68.7l.24-.13c-.58.53-.54 1.01-.93 1.45l.41-.15-.57.71.35-.12v.18c.34-.08.57-.23.83-.52l-.12.3q.31-.2.53-.55l.08-.13s.07.02.11.05l.3-.67.04.24c.25-.43.4-.8.56-1.28l.06.26c.24-.52.22-1.05.52-1.57 1.07-1.87 2.01-3.76 3.52-5.32a6 6 0 0 1 1.68-1.34Z" class="st0"/><path d="M10.66 15.14c.65-.31 1.6-.47 1.83.45l.86-.59a2.4 2.4 0 0 0-1.76-1.05c-.79-.08-1.5.36-2.09.84a11 11 0 0 0-2.79 3.45c-.5.98-.85 2.01-1.35 3-.26.52-.71.84-1.12 1.2l-.58.5.09.09q-.49.28-.68.7l.24-.13c-.58.53-.54 1.01-.93 1.45l.41-.15-.57.71.35-.12v.18c.34-.08.57-.23.83-.52l-.12.3q.31-.2.53-.55l.08-.13s.07.02.11.05l.3-.67.04.24c.25-.43.4-.8.56-1.28l.06.26c.24-.52.22-1.05.52-1.57 1.07-1.87 2.01-3.76 3.52-5.32a6 6 0 0 1 1.68-1.34Z" class="st0"/><path d="m11.29 16.93.02-.01zm.05.2-.04.02v-.02l.04-.02h.05zm-.05-.06.02-.01h.01-.02Zm3.32-1.39.06-.03.03.03q0 .02-.02.02h-.07l-.03.01h.03l-.02.04h.08q0 .02-.02.03h-.03l-.06.03h-.03q0 .02.03.01h.01l.02.01.04.01h.02l-.03.03-.02.01-.01.01.02.01h.07-.02v.01l-.01.02-.01.02v.03l-.01.02-.01.02h.06l-.03.02h-.03v.03q-.03 0-.04.02h-.05q-.04 0-.03.02h.09q.05 0 .05-.02h.02l.04.07v.01h-.02l-.02.02-.02.02h-.02v.03l.08-.06v.02h.05l-.01.04q-.02.02-.01.03l-.04.05q-.05 0-.09.02l-.03.02-.03.02q0-.02-.02-.02l-.02.05q-.09.04-.35.11-.27.08-.38.13l.01.05h-.04l.01.01.01.01-.06-.01.01.01.03.02v.02h.04v.03l.01.02.01.02v-.01h-.02l.02-.01v-.01h-.02v.01h-.02l-.02.01v.08l.01.04.01.03-.02.02.01.02.01.02v.03l.01.02v-.02q.02 0 .02.02v.03l.01.01v.07q0 .02.02.03l.01.02.02.04v.01l.02.01.03.01-.01.02-.01.02h.02l-.02.01h.02l.02.02v.12q0 .05.05.06l.03.12.02.08.02.07.01.07v.06l.01.01.01.02v.03l.02.07.02.06.06.56v.32q0 .08.07.21l.07.21.01.1.02.3.02.29v.14l-.02.06-.02.06q-.02.15-.2.26l-.15.02v.01l-.09.01h-.14l-.04.02-.08.01-.06.01h-.05l-.03-.02-.02-.02h-.1l-.02.01-.01.01.01.01h-.02q-.03-.02-.04-.08l-.02.01-.03.01h-.02v-.04q0-.02-.04-.02l.01-.06q0-.02-.03-.02v-.02l-.03-.03q-.03 0-.03-.03v-.01h-.03l-.05-.02-.04-.02.02-.04.02-.04.07-.01v-.02l-.01-.01h-.01l.01-.06.08-.03q.03-.03 0-.12l-.02-.07-.02-.07q0-.03-.04-.05l.02-.02h-.02l.01-.01.01-.01v-.04l.01-.09-.01-.01v-.02l-.01-.01v-.05l-.01-.01v-.01l-.02-.01-.02-.01v-.02l-.01-.01H13l.01-.04q0-.03-.04-.04l-.02-.05q.02 0 .01-.02.05-.01.05-.04h-.02l-.03.01h-.02v-.01l-.01-.01-.01-.02v-.03l-.01-.03-.01-.04v-.08l-.01-.02-.01-.02h-.05l-.01-.01-.01-.02q-.02 0-.01.02v.03h-.02v-.04l-.01-.01v-.09l.05-.03v-.02l-.01-.01.01.01h.03q.03 0 .02-.05.02 0 .02-.02l.01-.02q-.02-.03-.05-.02v-.02l-.01-.05-.01-.04.01-.08q-.05 0-.05.03l-.03.02v-.02l.02-.08-.04-.01h-.01l.01-.01.01-.01.01-.02h-.03v-.05l-.01-.03q-.02 0-.01.02v.02-.04l-.02.03h-.05l-.01-.01h-.03l-.02-.02v-.07q.02 0 .02-.02v-.07h.01v.02l.02.02.02.03v.02l.03-.01.01-.02.01-.02h-.02l.02-.02h-.02l.01-.02.01-.02-.01-.02-.01-.01-.02.02-.01.02v-.08h.02l.03-.03.01.01-.01-.02q.03-.04.02-.07l.02-.02h.02l-.02-.03q0-.04.03-.05v.05l.01.01h-.02l.01.02q-.04 0-.03.02h.01l.03-.01h.01v.01h.02v.05q.03 0 .03-.03v-.11q0-.03-.02-.02v-.25q-.01-.1.01-.11l-.04-.05v-.02h-.01l.01-.02v.01l-.02.02h-.03l-.01-.02-.03.04v.06l-.02.05h-.01q-.04 0-.03.08-.03 0-.04-.06h-.02l-.02.01v-.03q-.02-.11-.05-.1l-.02.01v.06l-.02.02v.02-.15l.02-.04v-.13l-.01-.13v-.1h-.01v-.13q0-.02-.01-.01v-.05h-.06v-.02l-.02.01.02-.01.04-.02.02-.01v-.02l-.02.01h-.04l-.11.03-.09.03-.11.03h.03l-.05.02-.04.02-.09.03-.05.01h.01-.04l-.02.01h.02-.02q0 .03.08.01l.07-.02.08-.03.03-.01h.03l.2-.03-.03.01h-.03l-.29.08-.19.05-.17.03q-.28.05-.32.02h.08l.04-.01h-.06l.01-.02h.01l-.04-.01h.02-.13v-.01l.16-.05h.04-.01l.05-.03h-.11.05-.18l.04-.02h.01l.08-.03v-.01l.01-.01h.01-.03l.03-.02h.04-.04v-.01h-.05.02v-.01h-.01.01v-.01l.01-.02v-.01h-.02l.02-.01-.02-.01.07-.04h-.07l.03-.01h.05-.09l.05-.03q0-.02-.02-.01l.03-.02.2-.06.2-.05h.07l.11-.04h.02l-.04.02-.02.01-.03.01h.03l-.08.04-.17.05-.1.03-.08.03h-.01l-.01.01h.01l.01.01h-.05.04l.07-.02.05-.01.13-.03.14-.04.07-.01.03-.01.03-.01h.03q.03 0 .05-.03l.07-.01.07-.02q0 .03-.09.04 0 .03.07 0l-.02.02h-.02.05l.05-.01h.07v.02l.01-.01.01-.02h.02l.07-.02q.02 0 .03-.02l.02-.01h.04q.04-.03.04-.05l.05-.02v-.03l-.02-.01.07-.05h-.05l.03-.03h-.06q.02 0 .02-.02h.04-.06l-.06.02h-.02v-.02l-.05.02-.04.02.1-.08.04-.01q.02 0 .02-.03v-.01h-.02l-.04.01v-.02l-.03.02-.03.02-.09.03-.02.02-.02.02-.06.02-.04.02q-.03 0-.03.02l-.13.04-.15.05q0 .02.05 0l-.01.02-.11.05h-.01l-.02.02h-.02l-.11.03-.11.04-.08.02-.09.01-.09.01v-.02h.01v-.01h.03l.01-.01v-.01l.16-.05v-.01h.02q-.01.02.53-.18l.04-.01.1-.03.04-.01.09-.03.03-.01h-.02.05q.04 0 .05-.03h.04l.05-.05.31-.14.3-.15.27-.11.36-.14.25-.09h.06l.22-.04q.02-.02.08-.03l.06.01.03-.01h.07v.04l-.02-.02h-.03q0 .03.03.02l-.02.01h-.02.13l-.02.03q0 .03.05.02Zm-3.27 1.19h-.04v-.03h.03v-.01h.02v.01l-.01.02zm.03.21-.05.02h.01q.06 0 .07-.02zm-.04.23v.01h.01l.02-.01q0 .02-.02.02Zm.07-.21h.03zm.06.16h.03l.03-.01h-.05Zm.11-.07h-.02zm.33-.41h-.02l-.2.06h-.04.01l.02-.02.15-.04.11-.02h-.03Zm-.25.03.14-.03h.01l-.08.03-.08.02Zm.25-.07q.02 0 .02-.02Zm.05.33h-.02Zm.06-.01h.04q.05 0 .05-.03l-.07.02q-.05 0-.05.02zm-.03-.06h.04v-.02q-.04 0-.04.02m.19-.48.05-.01.03-.01.02-.02-.07.03-.05.03h.02q0 .02-.03.03h-.08l.02-.02.03-.02h.04Zm.38.25h.02l.02-.04.04.01v-.03h.01v.02q0 .02.01.01l.01-.02-.03-.06v.01h-.03l-.02.01h-.02l-.07.01h-.02l-.05.02-.04.02-.05.01q-.03 0-.03.02h.02q.05 0 .07.02l-.04.02-.03.03v.02h.02l.04-.01h.03l-.02.01h.02l-.02.02-.02.02h-.02l-.07.02-.02.01h-.06l-.01.01h-.02.03l.04-.01.03-.01.1-.02h-.02q-.03 0-.03.02l.06-.02h.09l.05-.02h.01l-.05.03-.05.02q.07 0 .18-.04h.05l.01-.03-.01-.02h-.02l-.07.02h-.03l.06-.02q.05 0 .07-.03l-.01-.05-.02-.04h-.1l.07-.03Zm-.41.15h-.02q-.02 0-.02.02h.02l.02.01.09-.02v-.04h-.02l-.03.02-.02.01zm.05.08h-.04q-.05 0-.05.03zm-.07-.4.04-.02.04-.01-.03.02zh-.03l.02-.02Zm-.01.27.08-.03.02-.01-.05.01-.05.02Zm.16.27-.14.04.09-.04.1-.04.06-.02h.04zm-.06-.01h-.02zh.02zm.12-.46.02-.02h-.05.03Zm-.01.05s.01-.02.04-.02h-.02Zm.12.14.03-.01h.03l-.02.01h-.02zm.08.54-.01.04-.02-.02v-.06h.04zm-.01.12v.03zv-.02Zm.05-.86h-.09l.05-.03.05-.02-.01.03Zm-.02 1.35v-.04l.02.01zm-.03-1.16.01-.02.01-.01h.03zm.05 1.09v-.01q.03 0 .03.02-.02 0-.01.02h-.01Zm.04.48.01-.03h.01v.03l-.02-.01Zm0-.97v.09l.01.02.01-.12zm.03-.05h-.02l-.01.03h.02zm-.02-.12-.01-.02zv.02l.01.02zm-.01-.65-.02-.01zm.19 4.07-.01-.01h-.02.03Zm-.1-4v.02q0-.03-.02-.03Zm0-.03h.02l.02-.01h-.03Zm.1 1.71s.02 0 .01-.02h-.01zv.02Zm.07 2.2s0 .04-.03.04l.01-.05h.02Zm-.05-2.05v.02l.01.01.01-.03zm.01-.77v-.01h-.03l-.01.03q0 .02.03.01zm-.03.29.01-.08v-.12h.02v.01l.01.03.01.04h-.01l-.02.03h.02v.01h-.02v.1q-.02 0-.02-.03Zm.05.58v-.01h-.01.01Zm.06.15h-.03v.03l.04-.02Zm-.06-.78.03-.02V18l.01.04.01.05h-.04l-.01-.02-.01-.02h.02l-.01-.01Zm.04.37v-.02h.02Zm-.02-.76v-.01h-.01l-.01.03h.02zm.1 2.49s0-.03.02-.04l.06.01-.03.03h-.02v.01l-.02.01h-.01zm-.06-2.74-.04-.01v.05h.02zm.16 2.82v.03q0 .02-.05.02v.03l-.04-.04.01-.03H13l.03-.01zm-.16-2.25v-.04.07h-.01Zm.14 2.81v.02l-.04-.05q.04 0 .04.03m-.09-2.39-.01-.02zm.14 2.45h.03l-.03.02h-.03zm.77-3.78-.03.05-.01-.02v-.03l.01.01v.02zm-.04.1v-.04q.03 0 .04.03v.01-.01h-.01v.01Zm.02.02h.03v.01l.01.01v.01q0 .02-.02.03v-.07Zm.58-1.5.01-.02v-.01h-.09q-.03 0-.03.02l-.05.02q-.04 0-.05.03.1 0 .19-.03zh-.02Zm.14.67-.05.02zl.01.01v.02l.04-.02-.02-.02zv-.01h-.04Zm-.02-.57-.05.02zm.23.24s0 .02-.03.02l-.02-.01zm1.05-.39s0 .03.03.06l.03.04a.4.4 0 0 1 .07.17l.02.09q.01.12-.02.3l-.03.07q-.02.04-.05.04h-.04l-.08.01-.18.02-.09-.02-.03-.02-.06-.01-.06-.02-.13-.09-.05-.05-.04-.04q-.04-.04-.07-.15l-.02-.06q-.02-.05-.01-.07l-.01-.07-.02-.06h.01l-.01-.01h.01v-.02l-.02-.09h-.01v-.03q.02 0 .02-.02v-.05l.02-.05h.03v-.04q.03.03.04.02v-.01h.03l.01-.05h.06v-.01q.05 0 .05-.02h.08l.01-.05v.02h.02v-.04h.01v.02l.02.03h.06l.02.02.02.02.06.02q.05 0 .06.03.04.09.07.08l.06.11Zm.32 2.34v.05l.02.15v.11q.02.13.01.14v.15l.03.28.03.42v.04l.02.29v.29l.01.1v.29l.01.18-.03.06-.02.03v.01h-.08q0-.02-.02-.01v-.01l-.01-.05v-.03.11-.13.02-.02l-.01-.02v-.05.05l.01-.02-.02-.02v.07-.01.07l-.03-.08q0-.02-.02-.02v-.06.02-.02l-.01-.02v-.09.01h.01v.01-.1l-.01-.06v.06-.01.04-.02l-.01-.02v.05h.01q0 .02 0 0v.06l.02.02v.02l-.02-.02v.06l.01.03.01.03v.1l-.01-.02v-.15h-.01v.02l.01.01v.08-.08l-.01-.03v.06l.01.11q-.02 0-.03-.13v.08-.08.07H16v.01h-.02l-.02-.03v.03l-.02-.02-.01-.01v.04-.06l-.01.01v.08q-.02 0-.02-.08v.02-.01q0-.02-.02-.01 0-.04-.02-.05v.04-.02l-.02-.01-.01-.01a.3.3 0 0 1-.04-.15v-.09l-.01-.09v-.11l-.02-.22-.03-.21v-.4l-.02-.15-.01-.08v-.11l-.03-.24v-.11l-.04-.17-.02-.13v-.02l-.03-.11-.03-.14v-.45l-.02-.11v-.47q.03 0 .03-.03h.01v-.05h.01v-.06l.01.01h.01l.02-.03h.05v-.01l.02.01.01.01v-.05l.03.03v-.04l.01.01.01.01v.03l.02-.02q0-.02.03.01v-.02q.02 0 .03.03v-.03.02-.02q.03 0 .04.06l.01-.02.01.02h.02v.06h.01v-.08.02h.02v.02-.02.01l.01.03v.03l.02.05v.02l-.01.01v.03-.05h-.01q-.03 0-.03-.02v-.01.06l.01.03v.02-.14.09l.01.06v.09l.01.03.01.03h.01v.02h.02v.02q.02 0 .03.02l.01.01h.01v.02l.02.01h.04v-.01l.01.03v.06l.01.03v.01q0 .03.02.03v.03l.01.04.07.2.03.16v.24Zm-.92-1.3.02.02zm.18.17v.03l.01.03zm.11-.01v.06q0 .03.02.03zm.08.15h.03q0-.03-.02-.03zv.02Zm.03-.02.02.05h.01v-.1q0-.09-.03-.09v.1h-.01zm.24 3.56v-.02zm-.19-3.72.01.03zm.06.08v.02-.03Zm.04.01v.03zv-.04zm.2 3.32-.01-.06v.05Zm-.21-3.51.01.03zm.24 3.33v-.05.04l.01.03q0 .03 0 0v-.03h.02v.07h.01v-.01.02-.1.02l.01.01v-.09q-.03 0-.03-.06l-.01-.01-.01.01v-.06l-.01-.05-.01-.1q0-.05-.01-.04v-.01.01l-.01.02v.01-.04.06h-.01v-.03h-.01v.04h.01v.01l-.02-.01v-.02.05-.06.17h-.01v.01-.01.05l.01.01-.01.02.01.01h-.01v.04l.01.01v.09-.01Zm0 .49v-.04zm.01-.66v-.02zv.09H16v.04l-.02-.02.01-.04.01-.03Zm0 .2v-.01zm-.2-3.28v-.06l.02.09-.02-.04Zm.21 2.95h.02l-.01-.01Zm.01.04-.01.02zm-.02-.07H16Zm.02-.16v-.02h-.01zl.01.02zm.02.26v-.01l.02-.01zm0 .14v.06l-.01-.01zm0-.02v-.01Zm.03-.13v.04l-.01.03v.1-.01h-.01v-.03l-.01-.02v-.1h.01v.03Zm-.21-2.92v-.08.01-.05.01q.04.07.02.11l.01.02v.05-.03h-.01v.01-.01.02h.01-.01v-.03.04l-.01-.01-.01-.01-.01-.09Zm.21 3.27v-.01Zm-.16-3.05v-.02zm.17 3.13v-.01zm.02.02-.01-.01v.03zm.02.33v-.04h-.01v-.03l.03.08Zm-.19-3.49v-.01zm.21 3.17v-.05.03l.01.06q0 .06.02.06v-.04.01l.01.01q0-.07-.02-.08Zm-.04-.33v-.02zm0-.12v-.04h-.01v.06Zm.02-.12v-.03.05-.03.06h.01-.01v.03h.02l-.01.03v.01-.04q0-.07-.02-.09v.04zm.01.19v.04h.01v-.06Zm.01.12v-.02zm0-.21v-.01.03zm.01-.14v.16h.01v.01-.25h-.01v-.04.09Zm.04.34v.02-.07zm.01 0v-.03zm.16-.62-.02.03zm1.61-.12.07-.01h.05l.38-.09q.12-.02.2 0l.1.02q.03.02.08.02l.08.04.05.05.05.05.01.03.01.03q0 .03-.02.04l-.03.03-.02.01v.01l.01.01h.02l.03.03.04.05v.02l.02.04.02.02.03.07v.11q-.05.05-.09.06l-.15.04q-.06.01-.08.04l-.08.04-.08.04-.13.03h-.06l-.14.04-.2.05h-.1l-.13-.01h-.52l-.05.01h-.04l-.06.01-.03.01h-.24l-.02.01-.03-.02-.04-.02-.01.01-.02.02v-.03h-.06l-.03-.02-.02-.03-.02-.02h-.06v.03q-.04 0-.04-.06V20l-.01-.03v-.01l-.02-.03v-.2l.02-.07v-.08l-.01-.13v-.04l-.03-.15v-.08l-.05-.27v-.11l-.02-.34v-.11l-.05-.15-.05-.15v-.2l-.03-.3v-.07l-.01-.15v-.21l-.01-.04v-.06l-.03-.12-.03-.11v-.31l.01-.04v-.05l-.01-.03-.01-.08v-.23l-.01-.08-.01-.06v-.14q.02 0 .02-.05 0-.04.02-.05l.02-.02.06-.01q.04-.02.06-.01h.06l.05-.01h.04l.09.03h.11q.03 0 .05.02h.82l.12-.02.13-.02.1-.02q.07 0 .09-.02.04 0 .07-.02.1-.03.13-.01h.16l.09.03.07.03v.01h-.01v.01h.02l.02.01h-.01.01q.04 0 .04.05l.01.03v.1l-.03.03-.01.02v.03l-.05.05-.05.04h.15v.05l-.01.02v.08q.05 0 .05.06 0 .07-.07.16v.01l-.03.02-.03.01-.27.08-.24.07-.24.05h-.08l-.08.01h-.22l-.29-.02h-.18v.22l.03.16v-.05l.01.03v.05-.02.02l.03.05v.04l.02.03v.08q.02 0 .02-.02l.01.03v.05l.36.04h.48l.13-.02.11-.02h.12l.07.01.03-.02.03-.02.11.03h.01v.01h-.01v.06l-.04.02-.04.02.02.02.02.02.06.02h.02l.01.04.01.04-.08.07q-.1.02-.12.06v.01h.01q0 .02-.02.02 0 .02.03.02h.09v.01l-.03.02v.1h.01v.01q-.03 0-.03.02h.01-.01q0 .05.05.04h.01l-.03.02-.02.01h-.01q0 .02-.04.04l-.1.03-.06.01-.25.04h-.04l-.15.02h-.12l-.43-.05h-.05v.07l.05.23v.25l.05.3v.09h.31l.1.02h.09l.03-.02h.08Zm-1.33-2.85v-.04l-.02-.04.05.3v.04l.02.07v-.2l-.05-.07v-.04Zm.2 1.45-.07-.44-.01-.02v.05-.29l-.01-.01v.1l.01.08.01.08v.06l.03.18zv.09l.01.01v.08l.01.03-.01-.13v-.04l.02-.04Zm-.06-.52v.02l.01.01v-.11q0-.07-.04-.09v.04l.01.05.01.05zm.23.6v-.05l-.01-.07-.01-.07-.02-.16-.03-.19-.01-.07v-.05l-.02-.11-.02-.11h-.02v.13l-.02-.08q-.03 0-.02.04v.06l.01.02.03.16-.04-.02-.01.03.04.22.05.22q0-.08-.02-.15l-.02-.27.01.11.02.13.02.13v.1l.01.01v-.07l-.06-.32v-.08q.03.02.07.32l.01.1.01.11.03.01-.01.01V18l.01.03v-.04h.01v-.16Zm-.15.29v-.09q0-.02-.02-.02v.1h-.01l.01.01q-.02 0-.02.03v.02l.03-.02v-.01Zm.05-.11-.02-.04v.09l.02.03zm.11.01v.02l-.01-.03Zm2.91-2.88.05.02.02.03.02.03v-.04l.03.01.03.01.11-.04.06-.02.06-.02q.05 0 .05-.02l.11-.01.23-.07.22-.06h.04l.17-.03q.17-.03.23-.02l.11-.01.08-.02h.11l.13.02.02.01.02.02.08.02.05.02.05.02q.14.1.17.15l.05.06.06.16v.04l.02.05.01.04.02.12.01.16q0 .21-.02.24v.05q0 .02-.02.03l-.01.1a1 1 0 0 1-.09.29l-.02.02-.02.04-.02.04-.03.04q0 .02-.02.03l-.04.08-.06.1-.03.04-.04.03-.03.04-.04.1-.04.08-.03.06-.02.06h-.02l-.03.05q-.03 0-.06.07-.03.06-.06.07l-.07.07-.05.04-.05.03-.04.03q.01.05.05.1l.04.07.04.05.04.06.06.1.06.09.01.03.02.04.02.02v.01l.06.08.05.08v.03l.05.06.05.1.03.07.05.08.09.13.17.31q0 .05.03.06l.01.02.03.04.01.02q.04 0 .05.1l.02.01q0 .03.02.02l.03.04.01.01.01.01.04.02q0 .03.02.04l-.04-.06-.02-.03q0 .02.02.02l.03.01v.05l.03.09.03.08.01.15-.03.02q-.03 0-.03.02l-.05.03h-.06l-.03.01-.04.01h-.08l-.02.03-.03.09-.13.01h-.02q-.34.05-.4-.03l-.05-.01-.04-.03q-.05 0-.14-.12l-.07-.12-.03-.05v-.02l-.06-.09q-.04-.02-.07-.14l-.03-.06-.03-.06-.04-.06-.03-.05v-.01l-.05-.09-.05-.09-.03-.04q-.04-.01-.1-.1l-.09-.18-.05-.11-.03-.05-.03-.05-.09-.13-.1-.18-.03-.05-.04-.06-.03.02-.02.02v.43q-.02.02-.01.1v.35l.01.07.01.06v.82l.01.08.01.09q0 .07-.02.09 0 .03-.02.03l-.01-.01v-.04.03l-.01-.02v-.01q-.02.01-.01.11v.04-.11l.01-.02v-.02h-.01v-.02.01h-.02l.02.02v.03-.02l-.01-.01v.01-.1h-.01q-.02 0-.02.02l-.01-.03q0-.03-.02-.03l-.02.04h-.02v.03-.1q-.03 0-.02.02h-.01l-.01-.02-.01.04q0 .02-.02.03-.02-.02-.02-.05v-.03q-.02 0-.01.11v-.03h-.02l-.01-.01v-.02.06-.05.06q0-.03-.03-.03v-.03q-.02 0-.02.03v.1-.04.04-.03h-.02v.08-.05q-.02 0-.02.04l-.02-.02-.01-.02h-.03v.03l-.01-.02q0-.02-.02-.02l-.01.02v.05l-.02-.04q-.03-.06-.04-.03h-.02v.04q-.03 0-.04-.05l-.02.04v-.06l-.02-.08-.03-.09v-.27l-.02-.24-.02-.28-.02-.28-.02-.28-.01-.27v-.13l-.01-.17v-.22q-.01-.23-.07-.44l-.01-.1V15.9q0-.08-.02-.11l-.03-.09-.02-.08v-.06l.01-.02v-.01q.03 0 .03-.02v-.02l-.01-.03h.06v-.05l.01-.02.02.01h.02v-.06h.02l.01-.01h.02l.02-.02q.03 0 .03-.02h.02l.04-.05.05.01q.02 0 .03.02l.03-.03h.07v-.02q.03 0 .03.02H20v-.07h.02l.02.02h.03v-.04l-.01-.03q.03 0 .03.02v-.01l.05.02.03.02Zm-.03 5.16-.01-.04v-.01q.02 0 .03.02zm.03-1.19h.03v-.02l-.01-.02-.01-.02zm.03.21s0-.03-.02-.05v.02zm.04.39v-.18l-.01-.02v-.01h-.02v.13l.01.08v.1h.02v-.03l.01-.04Zm.02-.61v-.03zm.03.15v-.01zm.01.23h-.02zm.03 0v.02q.03 0 0-.05h-.01zm0 .51V20h-.02v.04zm1.23-4.11s-.03-.06-.05-.07h-.1a.2.2 0 0 0-.13-.05q-.06 0-.06-.02l-.03-.02h-.04v-.02h-.1q-.05 0-.05.04v-.01h-.05l-.02.01c-.04.03-.16.03-.2.06l-.08.06-.05.04-.02.02-.03.03q-.04.02-.04.1v.04l.01.13v.1q0 .13.02.19l.01.08v.76q.03 0 .06-.04l.07-.08.04-.05.2-.17.03-.02v-.02h.01l.1-.1.01-.02.02-.03a3 3 0 0 0 .39-.56l.02-.09v-.11l-.01-.16Zm-1.17 3.57q0 .03-.02.03v.05l.01.02v.06h.01v-.04l.01-.03v-.02q.03-.02-.02-.05Zm.04.04v.03h.01v-.06.03Zm-.01.75-.01.03v-.05l.02.03Zm.15-.3v.02zv-.17l-.01-.02v-.09q-.03 0-.03.02v.12-.16.05h.01-.01v.23l-.01-.01h.02q0-.08-.02-.08v.05-.08h-.01v-.1.13h-.01l.01.08V20h.01v.03V20q.02-.02.03 0v.06-.03l.01-.01v.03l.01.03v-.05Zm-.08-.01v.03zm.01.18-.01-.01v-.02zm.04.14v.02zv-.04zm.01-.07v.02h-.02v-.01zm.02.09-.01-.02v-.02zm.01-.38v.03zm.11.38-.02-.04h.01zm2.14-5.27v-.12l.03-.23v-.04l.01-.09q0-.07.06-.15l.04-.05.03-.02.03-.02a.3.3 0 0 1 .14-.07l.03-.01h.02l.1-.02q0-.02.05-.02h.07q0 .02.04.02l.05-.02q.03 0 .05-.03l.03-.02h.01l.04-.02h.04q.07 0 .24-.06.21-.08.37-.1h.25l.06.01h.05l.14.01q.12 0 .13.03l.09.04.08.02.11.05.07.04.06.04q.04 0 .04.03l.05.02.04.01.11.08.02.01v.02l.04.04q.04.03.04.05l.04.05.04.05v-.02l.03.03.02.04q0 .03.04.06t.04.06h.02l.02.03.03.05.02.04.07.26v.02l-.02.04v.06l-.02.08v.08l-.01.05v.05q0 .08-.06.24l-.1.19-.03.05q0 .03-.02.05l-.05.06-.04.05-.05.08-.03.02-.02.01-.01.02-.21.2-.11.12-.03.03-.04.03-.05.04-.03.03-.01.01-.02.01v-.02q-.04.02-.1.09l-.05.05-.03.03-.09.1-.03.04.04-.02-.03.02-.02.04-.03.03.02.02.03.01.04.02.04.02.02.01.02.02.06.03h.04l.04.02.03.02.09.07h.01l.01.01.03.03.04.04.09.12.05.06.03.08.02.06.04.08.04.1.04.1.04.19v.18q0 .04.03.07v.14q0 .06.02.05v.27l.02.07.02.05v.13l-.04.04v.03a.1.1 0 0 0-.05.09l-.02.03h-.03v.02h-.03l-.03.02h-.04l-.03.02q-.02 0-.02-.03l-.04-.02v-.05.02h-.01v.01q0-.09-.02-.1h-.01v.05q0 .02-.03.02t-.02-.04h-.02v.05l-.02-.02-.04-.04-.02-.03h-.01l-.01.02h-.01l-.01-.01-.02-.01v.02h-.02l-.01-.02-.01-.02-.02-.02v-.01l-.01.02v.02l-.01.02-.04-.05-.02-.03-.01-.04-.03-.01v.06l-.01-.02v.04-.02h-.01.01v-.03.06q-.03 0-.05-.08l-.02-.12-.01-.06-.01-.08v-.17l-.03-.13v-.24a1 1 0 0 0-.08-.3l-.08-.15-.01-.03-.02-.03q0-.03-.03-.07l-.07-.07q-.04-.04-.06-.03l-.1-.03h-.07l.03-.02h.04q0-.02-.06-.01h-.08v-.03h-.08l-.04-.01-.04-.01-.02.02v.3l.01.24v.08c0 .09 0 .14.02.24l.02.28v.33l.01.16v.01l.02.1v.1h-.01v.01h-.02v.01h-.02q-.02 0-.02.02v.02h-.03l-.02-.01-.02.03h-.01l-.01.02v.02l-.02-.06-.02.02v.06l-.02-.04h-.04l-.01.02v.01h-.05v.02l-.01-.01v.09l-.03-.09-.03.04-.01-.02-.01-.01q-.02 0-.02.03v.05q-.02 0-.04-.07h-.05l-.02-.01-.01-.01q-.03 0-.02.02v.02l-.02-.04q-.01-.04-.04-.04l-.03-.04h-.03l-.03-.03h-.02l-.02-.04q0-.03-.03-.05l-.01.03v-.04h-.01v.08q-.02 0-.02.03v.03q-.02 0-.05-.09l-.03-.14-.02-.35v-.1q-.02 0-.02-.07v-.34l-.04-.64-.02-.51v-.59l-.02-.41v-1.12l-.01-.04v-.13Zm.37 4.57-.02-.02v-.02zm1.69-4.04.01-.03q.07 0 .12-.25.05-.24.04-.32h-.01v-.02l-.03-.04-.02-.04-.02-.02-.02-.02-.02-.02-.09-.07-.02-.01-.1-.02-.13-.02-.06.03q-.04.04-.14.06-.14 0-.19-.03l-.2.03h-.03q-.07 0-.13.09l-.07.09-.03.08.01.13v.26l.03.32v.09l.01.09.01.07.01.07v.19l.03.09.01.2v.28q.03 0 .11-.11l.1-.12.13-.14q.04-.02.07-.08l.07-.08.03-.04v-.02l.04-.03.04-.04.02-.02.09-.11.04-.05.04-.05.06-.09.06-.09.04-.1.01-.02Zm-.85 2.1v.02l-.03-.01h.04Zm-.05 1.98v.02zm.96-2.66s0 .03-.02.03zm.15-.16-.06.07-.08.06q0-.04.05-.04v-.01l.02-.02.02-.02zm-.1 2.49.01.01zl.01.02h-.01zm.3-4.91.02.03h.04l.03.03.03.03-.1-.12h-.02l.02.03Zm.43.41v-.05q0-.04-.02-.04l-.03-.02q-.03-.01-.02-.03l-.03-.03-.03-.05-.02-.03-.02-.01-.02-.03-.05-.04-.05-.05-.05-.04h-.01l.02.03v.01l.05.06.05.04.06.09.03.03.04.09.05.09.02.04.03.02zm-.52 2.73s.01.04.03.05q0-.05-.03-.05m.26-3.01-.02-.01-.01-.01zl.03.02v-.01Zm.05.08-.02-.03q0-.03-.02-.03l.03.04.03.05.01.01zm.25.08.02.03q0 .07.02.08v-.04l-.08-.17q0-.02-.04-.04l-.04-.03.04.07.04.06v.01zm.1.35.01-.08q0-.08-.02-.08v.02q0-.02-.02-.02v.05-.02.17zm.05.08v.03h-.01l-.01.03v.03h.02l.02-.04v.02q.02 0 .02-.05v-.01Zm.01-.08v-.03Zm2.08 2.77.07-.03.05-.02q.2-.1.38-.16a.4.4 0 0 1 .19-.03h.1q.03.03.08.01l.08.04.05.04.05.05.01.03.01.03-.02.05-.03.03-.02.01v.01h.03l.03.03.04.04v.02l.02.04.02.02.03.07v.11q-.05.06-.09.08l-.15.06-.08.05-.08.06-.09.06-.14.06h-.06l-.14.07-.21.09-.1.03-.13.02-.16.04-.15.04-.09.03-.09.02h-.07l-.06.02-.05.02q-.04 0-.08.03l-.03.02h-.03q-.04 0-.07.02h-.17q-.03 0-.03.02l-.04-.01q-.03-.02-.04-.01l-.02.02-.03.03v-.03h-.09l-.04-.02-.02-.03-.02-.02h-.1l-.01.04q-.05 0-.05-.06v-.01l-.01-.03v-.01l-.02-.03.01-.04.02-.09v-.08l.03-.08.02-.09v-.19l-.02-.17v-.08l-.03-.3v-.13q.02-.2.01-.38v-.12l-.05-.16-.05-.16v-.92l.02-.08v-.13l-.02-.13-.02-.12v-.06l.01-.1.01-.1v-.07l.02-.05v-.61l.01-.07v-.06l.04-.06q0-.04.04-.06l.03-.03.07-.03.07-.03.07-.03.06-.03h.14q.04 0 .07-.02l.05-.02h.05l.03-.01h.09q.05 0 .05-.02l.06-.02.12-.03.08-.01.2-.04h.03l.11-.02.1-.03.11-.03.08-.02.07-.01.05-.01h.16l.06.01.07.04.06.03v.03h.01l.01.02h-.01.01q.03 0 .03.06v.14l-.02.02v.05l-.04.05-.04.04.06.01h.06v.15q.04.01.04.06 0 .07-.06.16v.02l-.03.02-.03.01-.22.08-.2.07-.21.07-.07.01-.08.02h-.02l-.09.01-.08.02q-.13 0-.29.04l-.13.03-.03.01-.03.01-.02.09v.15q0 .15.02.17v-.06l.01.03-.01.06v-.02.02l.03.05v.04l.01.03v.09q.02 0 .02-.03l.01.03v.05l.37-.03.15-.02.06-.01h.22l.11-.03.1-.03h.11l.06.01.02-.02.03-.02q.07.02.09.04h.01v.01h-.01v.06l-.03.02-.04.02.02.02.01.02.06.02h.02v.08l-.07.08q-.1.03-.11.07v.01h.01q0 .02-.02.03 0 .02.03.02h.08v.01l-.02.02v.11h.01v.01q-.03 0-.03.03h.01-.01q0 .06.05.04h.01l-.03.02-.02.01-.01.01-.03.04-.09.04-.06.02-.23.07h-.04l-.14.04-.06.02-.06.02q-.38 0-.43.02l-.06.02v.08l.03.26v.29l.03.34v.1h.03l.05-.02.04-.01h.03l.03-.01.15-.02h.2l.03-.03h.08Zm-1.15-3.01v-.04l-.02-.04.02.32v.04q0 .05.02.07l.01-.11.01-.1v-.02l-.05-.07zm.07 1.6-.02-.49-.01-.02v.05-.09l.01-.1v-.11l-.01-.01h-.01v-.02l-.01-.01-.01.12v.24l.02.21v.34l.01.01v.08l.01.03v-.18q.03-.03.02-.05m0-.59v.02l.01.01v-.14q0-.07-.04-.09v.19Zm.18.65v-.4l-.01-.21v-.25l-.01-.12h-.02v.14l-.01-.08q-.03 0-.03.05v.06l.01.02.02.18-.04-.01-.02.04.02.24.03.24v-.17l.01-.31v.27l.01.14v.11l.01.01v-.02l.01-.02v-.04l-.03-.35v-.09q.03.01.05.36v.23h.03l-.02.02v.12l.01.03v-.05h.01v-.19Zm-.2.37v-.12q0-.02-.02-.02v.1h-.01l.01.01q-.03 0-.02.04v.02zh.01v-.01Zm.08-.14s0-.03-.02-.04v.1l.02.03.02-.1Zm.12-.02v.03zm4.63-2.86.02.03v.28l.01-.03v.04l-.01.04q0 .1.03.08l-.03.04v.03l-.02.03-.02.03v.02l-.03.08.01-.01v.01l-.03.01-.01.02h-.02l-.01.01-.01.01v.03l-.03.04h-.07l-.02.01h-.03q0 .02-.02.03h-.06v-.04h-.01l-.01.01h-.02l-.01.01-.01.02v.02l-.03-.04h-.05l-.01.01-.01.01h-.02q0 .03-.02 0v-.07l-.02.01-.01.02-.05.02h-.05l-.01-.05q0-.05-.02-.05v-.08l-.02-.05v-.07l-.02-.03-.03-.08v-.04l-.02-.03v-.04l-.01-.04-.05-.09-.01-.02-.02-.02v-.01l-.03-.05-.08-.1-.03-.02-.03-.01-.04-.02h-.07l-.09.05-.07.04q-.03 0-.06.07l-.04.06-.02.04-.02.03-.04.04-.03.06-.02.05-.02.03-.01.05-.02.02-.02.09h-.01l-.01.07-.01.06v.44q.03 0 .02.1v.56l.03.13.03.12v.31l.02.16.02.1v.07l.02.12.06.26q.04.07.09.24l.09.25v.03l.14.09h.06l-.01.01v.02h.01l.06.02.07.01h.08q.03.01.06-.04l.01-.01.01-.01v-.04q0-.02.02-.03v-.03l.01-.04.01-.03.03-.1.02-.05.01-.05.02-.09v-.58l-.03-.16v-.18q0-.04.03-.09l.03-.07.05-.07.02-.01v-.02l.05-.03.04-.02.04-.02h.08l.04.02.03.03h.01l.02-.01.01-.01.01.04.01-.02v-.02q0-.05.03-.05v-.02l.01-.02q.02 0 .02.02l.01-.01h.02v-.02h.06l.02-.01q.03-.05.13.01l.01.01.02.01.02.01.03.01v.02h.01l.01.03.02.02.04.1v.08l.02.1.02.1q.02.13.01.19v.42q0 .04-.02.07v.01l-.02.07v.01l-.03.08-.03.08-.02.03-.02.02q.02.03-.04.08l-.08.11-.01.01-.02.02h-.03q-.03.04-.04.01l-.01.01-.01.01h-.02v.02l-.05.05-.01.01v.01l-.02.01v.01l-.02.02-.02.01-.03.02-.01.01-.02.01-.01.02h-.02q-.03 0-.02.02h-.01l-.05.04q-.03 0-.04.03l.01-.01.01-.01v-.04.03h-.01q-.03 0-.02.02l-.04.01H31l-.01-.01v.02l-.02-.02v-.02.04l-.01.01h-.01v-.03h.01l.01-.01h-.02v.02h-.01l-.01.01v.01l-.02-.01-.03.03-.02.01q-.02 0-.06.05l-.07.05.05-.05q-.02-.03-.05.03-.05.02-.05.04l-.05.04-.05.04v.01l-.04.03h-.04l-.15.05h-.12q0-.02-.02-.03h-.22l-.16-.02q-.1 0-.11-.04l-.03-.02h-.03q-.06 0-.13-.08l-.02-.02-.02-.04-.02-.02h-.01l-.07-.1q-.02 0-.11-.2-.06-.1-.18-.54l-.07-.36-.02-.23-.02-.22-.01-.35v-.45l.02-.22V15l.04-.21.02-.06.02-.07q0-.12.04-.12l.01-.04.03-.03.01-.06v.03q.02 0 .05-.13l.02-.07.04-.09.01-.06.02-.07.03-.06q0 .03-.02.03v.08l.01-.03.02-.06v-.04l.03-.04-.03.02.07-.15h.01l.02-.03v-.02l.03-.05.03-.05.15-.19.04-.05.04-.05.05-.04.04-.03h.01-.04q.02-.03.11-.06t.09-.07l-.05.01.11-.04.12-.06.05-.02q.03 0 .04-.03l-.01-.02.09-.03.09-.03.2-.05h.18l.06.02q.05-.03.14.02h.04q.04.03.06.02h.03l.03.02q.03 0 .03.03t.06.04h.03l.03.01.02.06q0 .04.02.06h.01q0 .02.05.08l.05.12.06.12v.04l.02.03Zm-2.2 4v-.03l-.04-.09v-.01l.03.05.17.2.03.04.03.05.03.02.02.01.04.03.06.04.04.01.09.04h.01l.01-.01.05.03h.06l-.03-.02q-.03 0-.03-.02v-.02h-.01v-.01q-.07-.05-.06-.09l-.02-.02-.02-.02h.01q.03 0 .03-.03l-.02-.02v-.03q-.02 0-.03-.02t-.02-.04l-.03-.04-.03-.03v-.03l-.03-.02-.02-.04-.02-.04-.03-.03-.03-.03h-.02l-.04-.08-.04-.06v-.01l-.01-.01-.01-.04-.01-.03-.02-.05-.02-.06v-.06q-.02-.08-.05-.08v.03q-.03-.02-.05-.08l-.04-.16-.03-.11v-.04l-.01-.05-.01-.02v.11l-.02-.02-.02-.02v-.16h.01v-.04l-.01-.04-.01-.01v-.17l-.01-.01h.01l-.01-.21v-.1l-.01-.05q0-.05-.02-.05v.06l.01-.16v-.27l-.01.01v.02l-.01.02v-.23l.01-.06v-.1l.01-.02.01-.02v-.09l-.05.22-.02.02v.05h-.02v.26l-.01.12v.84-.02.31q0 .08.05.21.04.13.04.21l.04.19v.15l.02.01.02.01.02.04q0-.03-.02-.04l-.02-.08q-.03-.07-.02-.08.05.1.07.23 0 .05.05.14l.04.07.03.04q.04 0 .04-.03l-.02-.02Zm.21.27s-.01-.04-.04-.06l-.04-.04-.02-.01-.02-.02h-.02v.05l.03.04.02.04h-.03l.03.05q.03.03.05.02v-.04h.05Zm.02-3.51-.02.01zm.12.22v-.02zm.01-.41-.02.03zm.09.17-.01-.02zm.54 3.63v.02l-.02.01-.03.02-.04.02-.04.02-.01.01.05-.01.06-.01.18-.09-.02-.01-.11.01q0 .02-.02.02Zm.15-.05s.03 0 .07-.03l-.05.02Zm.52-.19v-.02q0 .02.02.02v-.02h-.01zm.04-.03v-.02h-.02v.01Zm.07-.01v-.02zm.03-.12.03-.05.03-.03h-.04v.06Zm.04-.45.02-.02zm.03.4q0-.02.02-.03Zm-.02-.83v-.02h-.01zm.03.8.01-.01zh-.04l.01.01Zm-.02-.75-.01-.04zm0 .15h.01zm.04-.33v.1h.01v.07q.02.02.02-.03v-.02h.02v-.03h-.02l.01-.02.01-.01-.02-.01v-.05l.01-.02.03.01h.01v-.02l.02-.02v-.01l.01-.01h.01v.03h.02v-.04l.01-.01v-.04h-.01v-.03q.03 0 0-.02h-.02l.01-.01h.02l-.01.01h.01l.01-.01v-.02h-.03v-.02h-.04v.01h.02l-.02.01h.01v.05h.01l-.03.01.02-.01h-.01v-.08h-.01l-.02.01-.02-.04v-.03h-.04l-.02.03v.05l-.02.01-.01.01v.01q-.03 0-.02.11v.03-.02.03l-.01.07Zm-.01.68v.02h.02v-.03h-.01zm0-.29h.01v-.01zm.04.24v-.02zh.01Zm.01.16.01-.02zm0-1.32-.02-.02v-.01.08h.01-.01l-.01-.02v.03l.02-.02zl-.01-.03Zm-.01.11.01.02zm.05 1.04v.04-.02h.04l.01-.01-.03.04-.01.01h-.02q0 .03.02 0 0 .02.02.02v-.01l.01-.01v-.02q.02 0 .02-.02v-.06h.01v-.02.03l.02-.02v-.03l.03-.06h-.02l-.02.03v-.01h.02-.02l-.01.01-.02-.02v-.01l-.02.02h.02v.06h-.03.02l-.05.03v-.02h-.06v.04l.04-.01Zm-.01.12h-.02v.02zm0 .16v-.01Zm-.01-1.34v-.02l-.01.05h.02l.01-.02zm.01.65v-.01zm.01.36s.01.03.03.02q0-.03-.03-.02m0-.53.01-.01.01-.01h-.02Zm.03.86v.02Zm-.02-.71v-.01Zm0-.17.03-.02h-.04zm.05.85h-.02v.02zl.01-.01v-.01Zm-.03-.36s.02-.01.01-.03q-.02 0-.01.03m.02.32v-.01zm-.03-1.71v-.02h-.02q0 .03.02.01Zm.08.93h-.06v.02l.02-.01v.02h.04zm-.05.74h.02zm-.01-.81-.02.02h.03l.02-.02h.01q-.05.01 0 .04v-.03q.03 0 .03-.02l-.01-.03h-.01l-.05.03Zm.05.83h-.04v.01l.02-.03Zm-.03-.66q0 .02.02.01Zm.01-.02h.02l.01-.02v-.03h-.06v.03l.02-.02h.02l-.01.01-.02.02zm.03.53v-.01Zm.01.15-.02.02zm-.04-1.16.03-.04v.01q-.03 0-.02.04v-.01l.03-.01.01-.02-.03.01zv.02Zm0-.05h.01v-.04.04Zm.01.01h.01zm.01-.08v-.01zh.04v-.01zm.05.72v-.01l-.03.01q0 .02.02.02zm-.02-.76h-.02v.02zm.09.46-.01-.01-.01-.01v-.01h.01l.01-.01h.03-.02l-.01.01h.03v-.06h-.01v-.02l-.02.02q0-.02-.03-.01h-.03.02v-.01h-.01v-.02l-.01-.01h-.02v.02l-.02.02v.01h-.02l-.01.01v.01h.01l.02-.01-.01.02h-.01v.03h.02v.02h.01v.03h-.01.02l.02-.01v-.02Zm-.1-.58s.03-.05 0-.05zm.02.75h.02Zm0-.57v-.02zm.02.54.02-.01zm.01-.05q-.01 0 0 0v-.04h-.03v.01Zm-.01-.55h.01l.01-.01-.04-.01v.02zm.02.87h.01zm.02.21v-.01zm.01-.48v-.01q-.02 0-.02.03h.01zm-.04-.46h.02l-.02-.01-.02.01Zm.03-.09-.02.02zm-.02.16h.01l.01-.02h-.02Zm.09.45h-.03v.02q0-.03-.02-.01v.03h.02l.04-.02Zm-.02.29-.01.02zm-.01.04v-.01h-.01q0 .03.02 0Zm0-.75v.02h.02l.04-.02h-.04v.02Zm.01.64h-.02zm-.03-.91.02-.02Zm0-.02h.02zm.05.61.02-.01zv.02h.01zm0-.28s0 .02-.02.03v.03h.02v-.07Zm0 .19h-.02zm0-.23v.02zm0-.22h.02l.02-.01h-.01v-.03h-.02v.02Zm.02.51v.02zm.06-.48v-.01zl.02.03.02-.01v-.01h.01v-.02Zm-.02-.12h-.02Zm-.05-1.99.01.04v-.02Zm.06 2.02h.01v-.01h.01-.02zm.04.14.02-.01Zm.01.49v.02zm.05-.15v-.01h-.02zm-.02-.02.02-.01h-.02Zm0-.08.02-.01zm2.02-2.61.05-.04v-.08q.02 0 .02.03t.02.02.01-.01v-.12l-.03-.25-.02.02v.06l-.01-.03v-.03q-.03-.1-.02-.15v-.04q.02 0 .05.14h.01l.01-.04v-.11l-.01-.1-.04-.03-.02.08v-.28l-.01-.07v-.04q.03-.04.07-.04v.16q.03-.02.01-.14v-.78l.02-.08q.02 0 0 .09v.1h.01l.02.37.02.17h.02v.07l.01.07.02-.02.01-.02-.01-.1v-.04l-.01-.12v-.06l-.01-.11v-.05l-.02-.21v-.31.05h.01v.09l.02-.09v-.15l.01.01v.08h.01l.02-.05v.28h.01v.03l-.02.03v.08q0 .06.02.07v.04q-.03 0-.02-.09l-.01-.11v.26l-.01-.07v.02l-.01-.02v-.02.08l-.01.02v.32q.03.04.03.13l.01-.02.01-.03v-.03l-.02-.01q-.02 0-.01-.02l.06-.03v.06l-.02.02v.04l.01.02v.09h.03v-.19l.01.04v.05-.08l-.01-.05.01-.02.01-.03.03.05.02-.02v.13-.06l.02-.03v-.07l.02.1.01-.02.02-.02v-.02l-.01-.13v-.04l.03.11q0 .02.02.02.02-.01 0-.04h-.01v-.09l.02-.01.02-.02v-.13l-.01-.06q-.02-.07-.01-.09v-.16q-.02 0-.03.02v.02l-.01.03q0 .03-.01.01h-.02v-.05h-.01l-.02.03h-.01v-.08q.03 0 .03-.03 0-.04-.02-.03l-.01-.04q-.02.03-.01.06V12q-.03.03-.02.1-.02 0-.03-.02v-.19l-.01-.08v-.09h-.03v-.09l-.01-.11-.02.1v-.05l-.01-.06.02-.02.02-.02.02-.03q0-.02.02-.02v.19-.03h.02v.01q.02-.02.01-.05h.04v-.14l-.01-.04v-.06q.02 0 .03.08l.02-.01.01-.02v.04l.01.01.01.01v.14l.01.12.01-.01v-.08l-.01-.03.02-.09v-.07l.02-.03.03.02.01.07v.07l.02.13.05.3v.36q.02.17.08.33l.04.11v.04l.01.16.02.13.04.2v.2l.02.24.02.23.02.22v.18l.01.16v.16l.02.13.01.15V15l.01.04v.06l.02.19.01.19.01.17-.03-.39-.01-.13v.2l.01.12v.01l.02.19.03.37.03.38v.12l.01.15.02.15.02.13v.16l.03.17v.2l.02.04v.38q0 .03-.02.03v-.01l-.02-.01v.04l-.01.03-.02-.04v.05q.03 0 .03.03l-.07-.03q0-.02 0 0V18l-.03-.02v.03h-.02v-.02h-.01l-.05-.15h-.03q-.02-.06-.04-.05v.13l.02.06q-.02-.02-.03 0v.04l-.04-.01q-.03-.02 0-.05 0-.02-.02-.02h-.02v-.06h.02l.02-.01-.01-.03h-.05v-.07h-.04v-.03l-.02.02-.02.02v.04l.01.06.02.03q0 .03.02.04l-.02.02-.03.02h-.02l-.01-.07h.02v-.03l-.01-.01q-.05-.02-.03-.06l-.03-.1-.01-.03v-.1l-.03-.02q0-.03-.02-.04v-.02h-.02v.09l.02.02q.02 0 .01.03h-.04l-.01-.01v.05l.01.07.01.07-.02-.02v-.06l-.02-.03-.01-.03v-.04l-.05-.08v.03l.02.02v.03l.01.05h-.02l-.02-.01q0 .04.02.04 0 .02-.03.02v.02h-.02v.04l-.02-.03-.01-.05-.01-.04-.02.02v.02l-.01-.04q-.01 0 0 .07v.03l-.1-.21h.03v-.14q0 .1.06.15l.01-.04v-.03q.02 0 0 .04H34l.02.04.02.05v-.05h.01q0-.14-.02-.14l-.01-.02-.02-.01-.02-.14-.02-.04-.02-.17v-.04q0-.08-.02-.08v-.09h.01v-.07l.02-.08q0-.07-.03-.08l-.01-.14h-.02v.04q-.02 0-.02-.06v-.06h.03q0-.04-.02-.07l-.01-.06q-.02 0-.02.02v-.06h-.01v-.09l.01-.02-.01-.07-.01.02v.02l-.01-.07q-.03 0-.02.05v.06l-.02-.03v-.1h-.01v-.04q0-.03-.02-.04l-.01-.05v-.06l.02-.01q-.02 0-.01-.01v-.06l.01-.02v-.02l-.01-.06v-.2q0-.04 0 0v.05l.02.17v-.11l-.02-.03-.01-.03-.01-.11-.03-.28h-.04l-.25.07h-.03l-.04.02-.07.02-.23.08-.01.01-.01.01-.01.02-.01.02-.01.02h-.01l-.05.06.02.08.02.08.01.11.03.44v.46l.01.11.03.24v.54l-.01.11-.04.05v.01h-.01l-.02.02q-.08.05-.15.03h-.27l-.06-.01q-.03 0-.05-.03h-.13l-.03-.01-.01.02-.01.02-.03-.04q-.03-.03-.03-.05-.05 0-.06-.03h-.03l-.02-.04-.01-.02h-.06v-.34l-.02-.06.01-.02h.01l.01-.06v-.19q-.03 0-.02.09v.03q-.02 0-.01-.02v-.11l.01-.18v-.01H32l-.01.02v-.41H32v-.03l.02-.02h.02l-.03.03-.04.03v-.14l.02.01v.04q.02 0 .01-.01v-.03l-.01-.17v-.03h-.03v-.05l-.01-.13-.01-.13h.02v-.01l-.02-.05-.02-.05v-.03l.01-.01v-.07l-.01-.01-.01-.01v-.16l-.01-.09v-.37l-.01-.08-.01-.09v-.76l-.01-.1-.01-.09-.02-.27v-.26l.02-.02v-.02h.01l.01-.03q0-.03.02-.03h.02l.02-.01.02-.03.02-.03H32l.09-.04.02-.02.02-.03h.04l.06-.05h.02l.05-.03.05-.03.07.01.06.04v.01h.02l.02.03.02.04.02.03h.02v.04l.03.07.04.13.02.08.02.07v.28q0 .02.02.03l.03.05v.01l-.01.02v.01l.02.01-.01.01.02.02v.01l.01.05v.05l.02.17.01.09.03.26.01.04.02.06q0 .03.01.02l.13-.05.02-.01h.03l.03-.02.03-.03.01-.02h.02v-.02l.04-.03q.06 0 .12-.04h.06l.03-.04.1-.08.04-.04a.2.2 0 0 0 .1-.12Zm-.05-1.56q-.02-.1 0-.14.03 0 .02.09v.11zm0-.31s.02.03.02.07q0 .07-.02.09zm.02-.15v-.07l.02-.06v.06q-.01.05 0 .07l-.02.03zm.06 2.18v.02h.02v-.03l-.01-.02zm.16 1.82h.02l-.01-.01v.03Zm.02.34v.1zv-.04zm-.03-3.03-.02.02q0-.03-.02-.02l.01.13.02-.03v-.03q.03-.03.02-.07Zm.08 3.73.01.08.01.1q0 .04-.02.04-.05-.12-.03-.21zm-.03-.45.02.04v.17-.06l-.01-.06v-.09Zm-.06-3.54s0-.04-.02-.04q-.01.09.02.09zm.16 3.78-.02.01v.33l.02.08v-.08l-.01-.05q-.02-.05-.01-.07v-.17l-.01-.07v-.08h.02l.01.04.01.05q0 .03.01 0l.01.05v.1l-.02-.11Zm-.08-3.72v-.05l-.01-.05q0-.02-.01-.01l-.02.03v.04l.02.09.02-.02v.08-.08Zm.03.23-.01-.14-.01.03v.03-.04q0-.03-.01-.02v.14q0 .1.03.15h.01l.02.01v-.15Zm.04 3.3v-.05l.02.07v-.01Zm-.06-3.95v.06-.01l-.02.01.01-.03v-.05zm-.02-.55v.04zq0-.04-.02-.04v.03Zm.01-.06q.01-.04-.01-.04zm.12 5v.09l-.02-.11Zm.01.2v-.09.16zm-.07-4.56-.01-.06v-.06q.02-.02.02.03l.01-.01.01-.01v.08h-.02v.05Zm-.01.09-.02.03Zm.02.59v-.06q0-.03-.02-.04v.15-.05Zm.14 3.66s0-.02-.02-.03l-.02-.04v.09h.01q0-.02.02-.02Zm-.12-3.73.01.04zm.02-.15-.01.02h.03l-.01-.02Zm0-1.15V12zm.1 4.67h-.02v.07l.02.06zm-.08-4.79v-.04l-.02-.02.01.04q-.03.04 0 .05zm-.02-.19v.04q0 .03.01.02zm.2 5.29s0-.04-.02-.04l-.01.03-.02-.02v.05q0 .06.03.08v-.08q0 .03.02.03zm-.07-5.09s0-.03-.02-.03l-.01.02q0-.03-.02 0 0-.03-.02-.02v.13h.01v-.03l.01-.03h.01v-.05Zm-.03.67.02-.02-.01-.04.02.01.01.07h-.03l-.01.01q-.02 0 0-.03m.01-.3v.05q.02 0 .02-.03l.02-.03v.06h-.02q-.02 0-.02.03v.02q-.04 0-.01-.1zm.12 5.64-.03-.05q.03.02.03.05m-.12-6.04-.01-.05zm.01-.14v-.03h-.01l.01.1.01-.01v-.04Zm.19 6.07v-.02h-.02.02Zm.02-.3h-.02v.1h.04v-.09Zm-.06-5.25v.05q0 .04.02.03 0-.1-.02-.08m.02.26h.02q0-.02-.02-.01m.04-.33v-.11zv.12q.03 0 .03.02v.04q0 .03.02.02v-.04l-.01-.04-.01-.14Zm.06.54v-.18q0-.05-.02-.06l.01.05v.07l-.01.03.01.04v.08l.02.02v-.07Zm.03.19-.01-.02v-.02q-.02.1.03.13v-.09Zm0 .12v.02h.02v-.04h-.02zm.47 5.03V18h-.01q0-.04-.02-.04v.05l-.01-.03v-.01h-.01v.14h.01v-.02l.02.02h.01v-.03h.02v-.03Zm2.49-7.88v.19q0 .2-.02.28l-.01.03-.01.04v.04l-.01.04v.01l-.02.03v.06l-.01.01h-.01v.03l-.03.04-.03.03-.01.01-.01.01-.03.03v.01h-.01v.01l-.03.02-.04.02h-.02l-.01.01-.04.01h-.03l-.08.06-.14.1-.04.05-.01.02-.01.02q0 .03-.03.05l-.02.01-.01.02-.03.02-.1.06-.02.07v.06q0 .03.03.07a.1.1 0 0 1 .04.08l-.02.23v.07l.01.04v.02h.01l-.02.14-.02.14.01.06.02.23v.15l-.01.08v.71l.01.12.02.17v.13l-.01.11-.01.1v.87l-.01.14v.45l.01.43v.94l-.02.05h-.01l-.02.03-.01.02-.01.02-.04.02-.04.02-.02.03-.01.02-.07.02-.02.03-.02.03v-.01l-.06-.08-.02-.04-.02.01v-.05l-.01.02q0 .02-.02.02l-.02-.03-.02-.04-.01.02-.01.03-.01-.03v-.02l-.01-.02-.02.05-.03.06h-.04l-.04.01v-.76l.02-.06q0-.06.02-.1v-.13l.02-.07.02-.06v-.22.14-.11l-.01-.06v-.07.04-.31q.03 0 .02.09v-.05.02l.02.04v-.22.14-.53l-.01-.01v-.03l-.01-.21v-.69l.01-.02v-1.56l-.03-.09-.03-.1v-.28H36l-.03.01h-.03v-.01l-.01-.01-.02-.01-.04.02-.03.04-.03.01v.01l-.03.02h-.02l-.07.02q-.03 0-.05.02l-.09.02h-.05l-.12.01-.01.01h-.02l-.01.01h-.03l-.01.01h-.09l-.07-.02h-.06v-.01l-.03-.02q-.03-.01-.03-.06l.02-.14v-.07l.01-.01v-.04l.01-.01v-.04l.01-.02.02-.04q.03 0 .05-.03v-.04l.01-.05v-.07h.04l.02-.02q.06-.06.1-.02l-.07.05.02.01-.01.02-.01.02-.01.01.01.02h.05l-.02.02-.01.02h.06l.02.02h.03l-.04.03q-.03 0-.03.03l.02.02.01-.01.01.04h.03v.02h.05l.09-.02h.04v-.03l.01-.01v-.01q.04-.01.05.04h.02v.01l-.04.01-.01.01-.01.01q-.04 0-.03.02.03.02.06.01h.02v-.02h.01l.02-.02h.01l-.01.01h.03v.03q.02 0 .01-.03l.02-.03v-.01q0-.02-.02 0v.03q-.02 0-.03-.03v-.03h-.01l.02-.02q0-.05-.03-.07.03 0 .02-.02l-.01-.1h-.05.04v-.03l-.01-.03a.2.2 0 0 0 .07-.13l.02-.01.02-.02v-.02h-.03l.02-.04.03-.03v-.02h.01l.02-.04h.01v-.02l.02-.01.02-.01h-.02l.02-.03v-.02l.01-.02.02-.02v-.04l.12-.06.01-.01.03-.03q.03 0 0 .01l-.02.02-.03.03-.02.02h-.01l-.05.03-.02.02h.06v.02h.04l.01-.01v-.01h.03l.1-.12v-.01q0-.03.03-.04h.02l.04-.05.02-.02.03-.02h.02l.04-.03.04-.03.02-.01.01-.01h.01l.09-.06.04-.02q.03 0 .05-.03l.04-.05.06-.03.08-.05h.01l.07-.05.16-.09.02-.02h.01l.01-.01q.02 0 .03-.02h.02l.01-.01h.02l.03-.01.07-.04.08-.04.05-.02h.23v.05Zm-2.51 1.43h.02v-.04l.05-.03h.04-.01l-.02.02h-.02l.02.03-.03.01h-.03Zm.14-.15-.09.05q0-.06.09-.05m.07.33.02-.03h.04zm.1-.02.01.02q0 .03-.03 0h-.01.02q0-.04.02-.03Zm-.01-.04s.04 0 .07-.02h.03l.04-.01-.01.01-.03.03q-.04-.03-.1 0zm.03-.05s0-.02.03-.03l.05-.02-.02.01q0 .03.03.02l-.04.02-.04.02zm.06-.33h-.04l.03-.02h.03zm-.02.45s.03-.03.05-.02zm.1.08h.02zm.16.25h.03l.01-.02h-.04zh-.02v.01zm.28 4.4v.02zm.02-.39-.01-.1q.02 0 0 .06zm.04-.72v-.21zm1.98-1.56.05.01.05.02.17.12.02.05q.02.05.03.04l.02.02.01.03q.03 0 .06.07l.07.17.04.12.04.08.03.09v.04l.07.11.2-.1.07-.04q.23-.13.33-.25t.2-.44l.11-.18q0-.05.04-.09l.06-.11.05-.1.04-.07v-.04h.02v-.03h.02v-.04l.04-.11v-.14l-.01-.01-.01-.02V13l-.03-.05-.02-.06.02-.04-.01-.02-.03-.04-.01-.04-.05.01v-.03l-.03-.04-.02-.03-.03.01q-.03-.07-.14-.04h-.02a1 1 0 0 0-.31.25l-.08.1-.12.14-.02-.05h-.01l-.02.02-.01.02-.01.05-.06.03-.06.03-.02.04-.06-.02q-.03-.02-.07-.02l-.08.03q-.24.08-.34.03l-.08-.02q-.07-.02-.11-.05l-.07-.08v-.03l-.02-.01-.02-.01-.09-.24-.05-.15v-.07l-.02-.12-.03-.15-.02-.29v-.08l-.02-.12-.02-.09v-.13q0-.06.04-.23l.1-.47.02-.1v-.09q.05-.24.14-.3v-.09l.02-.02.03-.03.02-.03v-.05l.09-.07.09-.06.02.02v.05l.12-.08h.02l.04-.04.07-.05v-.02q.18-.18.34-.24.27-.1.57-.16.4-.08.71-.05l.16.03.2.03.04.03.06.03.06.03.03.08.03.09h.04v.03l.01.01.05.14.04.13a1 1 0 0 1-.04.28q-.05.16-.13.21l-.22.09h-.03l-.07.02-.08.03-.08-.03q-.07-.04-.08-.03 0-.22-.04-.22l-.1-.12-.1-.08-.13.02-.13.01q-.05 0-.08.03l-.03.02-.04.03-.04.02-.05.02q-.03-.02-.07-.01-.07.02-.16.11l-.11.16-.01.01-.02.03q-.18.18-.24.28l-.03.03-.03.03v.03q-.04.04-.05.14v.46q0 .06.05.08l.06.03h.09q.08 0 .17-.03l.04-.01q.37-.12.58-.11l.04-.01.38.06q.17.04.36.12l.16.1q.03.02.08.11.05.1.08.11l.02.07.03.07q0 .1.07.2v.03l.01.19q.02.12.01.17v.13q0 .29-.2.94l-.02.1-.03.08q0 .08-.03.09-.01.2-.17.26v.07l-.01.09-.01.04h-.01v.02l-.19.17v.13q-.06.1-.09.12h-.08l-.1.08-.1.08-.05.03-.04.05q-.03.04-.05.04l-.01.01-.02.04v.03l-.09.05a.4.4 0 0 0-.22.27h-.06v-.03l.01-.03v-.02q-.03-.02-.06 0-.02 0-.07.08l-.06.07-.06.05-.09.05-.01.06-.02.07-.03.02h-.09l-.1.01v.02q0 .03.01.02h.01v.03l-.05.04-.03.01q-.02 0-.04-.1-.04.03-.08 0l-.08-.06-.05-.05h-.05q-.03 0-.05-.02l-.04-.05-.04-.06-.01-.03v-.03q-.1-.07-.1-.16v-.03l-.02-.04q-.02-.06-.03-.04l.01-.14-.02-.01q-.02 0-.02-.02v-.02l-.03-.01-.02-.02v.03l.04.04.02.04h-.06l-.02-.02-.02-.02v.06a.1.1 0 0 1-.04-.09h.04l-.02-.05-.02-.06q0-.02-.03-.01l-.01.01h-.03q0-.04-.07-.14l-.07-.19-.02-.02-.01-.02v-.01.03l-.04-.1.02-.05.02-.01.04.07.03.08q.02 0 .02.05l.03-.04.02-.07.03.01q0 .02.03.01v-.03l-.05-.23-.05-.22v-.02l.02.04.01.06.01-.01q.04 0 .07-.03l.01-.09-.01-.11v-.11l.04.05q.02.05.05.05l.01-.02v-.11l-.01-.05-.01-.04v-.04q0 .03.05.07l.05.07.03.06v-.03l-.01-.03-.01-.03.02-.02-.02-.05-.01-.03-.02-.04q.05-.01.05.05v-.01l-.02-.03v-.02q0-.05.07-.06Zm.28-3.88s0 .02-.02.03l-.02.03h-.02zm-.33 5.83q.02 0 .03.04l-.01.03q-.04.01-.05-.05l.02-.03Zm1.75-2.32s0-.05.02-.09v-.04h.02v-.12q.02 0 .02.03l-.04.16-.04.12v-.04Zm-25.49 8.08.02.02v.01h.08l-.01.03-.01.02h.05l.03.03h.01q0 .05-.02.05h.02v.01h.05l-.01.03v.04q0 .02.02.02l.01-.01v-.01h.04l.02.03v.05h.02l-.03.05-.03.07-.04.03v.02h-.02v.01-.03q0-.03-.02-.03l-.02.02-.01.01V22l.02-.03.02-.01v-.05h-.01v-.01q-.1 0-.16.13l-.02.02-.01.01v.01l-.02.05q0 .04-.02.05.03 0 .06-.07v.02l-.01.02.03-.04v.01l.03-.04.04-.04q0 .02-.03.04v.01h.01l-.02.06-.03.05-.02.07v-.01l-.02.04-.01.03-.01.03.02-.03.05-.06.05-.05-.04.07-.04.06v.01l-.02.02-.02.03v.01l-.01.01-.02.03.01-.02.02-.02-.01.01h-.01q-.03.03-.02.05l-.04.04-.03.05-.04.06v.02l-.01.02-.02.03-.06.08h-.02l-.02.02-.01.02v.01h-.01v.01h-.01l-.11.1-.1.1-.02.02-.02.02-.04.07-.03.03-.03.04v.02l-.03.03-.09.11-.03.03-.04.06.01.02.02.01-.01.02.03.02.05.03h.01l.06.02.03.02.06.04h.05v.01l.02.02.03.02v.03l.02.01.04.03q0-.02-.02-.01h.02l.02.03.01.03.04.02.04.04.03.03.05.03h.01l.03.03.04.04.08.06.08.06v.02l.07.05q.03.01.02.02v.01q.04.06.15.12l.04.02.05.04.02.04h.03v.04h.02v.02l.1.1v.01q.02 0 .02.03v.02l.01.02.03.02.01.02h.01v.04l.03.02v.01h.02v.01h.01l.02.04.02.02.02.02.08.08.03.04.03.04v.02l.02.02q.12.14.13.22v.09l-.01.12q-.05.05-.04.11l-.01.01-.02.01q0 .03-.05.06l-.05.03-.13.05q-.1.05-.16.06h-.24v-.02l-.04-.01q-.03 0-.03-.02l-.04-.01-.04-.01v-.01l-.05-.05v-.01h-.02v-.04l-.03-.02-.03-.02-.02-.01-.04-.07-.04-.05-.05-.07h-.02l-.04-.05v-.01l-.05-.05-.05-.04-.06-.08v-.01l-.02-.01-.03-.03-.02-.02h-.04q-.11-.03-.13-.1v-.03l-.03-.02-.02-.01-.02-.01-.02-.01-.02-.01v-.01l-.03-.02-.07-.05q-.02 0-.03-.02v-.01l-.05-.05v-.01l-.06-.07-.08-.07v-.01l-.01-.01q0-.02-.08-.08v-.01q-.03 0-.07-.06l-.06-.06-.05-.04-.04-.03v-.01l-.08-.07-.1-.07q-.03 0-.08-.12t-.1-.11l.01.1.08.47.05.16.04.16.03.12.02.1.04.13v.21l.02.26a2 2 0 0 0 .07.45q.02.11-.03.17l-.03-.02v-.01q0-.03-.02-.03v.01l-.01.01v-.01l-.01.09q-.03 0-.04-.04 0-.04-.03-.04v.13q-.02 0-.02-.06l-.02.02-.01.02h.02v.01l-.01.03-.01.01h-.03q-.03.03-.02.06l-.01-.02q0-.02-.02-.01l-.02.01v.03l-.08-.07-.02.05v.04h-.04v.01l.02.01-.01.04q-.02 0-.02-.03t-.02-.03v.02h-.04v.01-.02h-.01v-.02.05q-.02 0-.02.02h-.02q0-.02.02-.02v.01h-.03l-.02.02v.05l-.01.02h-.01l.01-.01-.02-.02v-.01q0-.03-.02-.02l-.01.02v.01q-.02 0-.02-.03v-.01.04l.01.03-.02-.02-.02.03-.02.02.02-.02v-.06.02l-.01.01-.01-.02-.01-.02-.01.02v.04l-.01.02-.02-.03v-.33l-.05-.29-.08-.35.03.03-.03-.12-.02-.1-.02-.1v-.05l-.04-.14v-.11l-.02-.03-.01-.03h.01l-.08-.26v-.07l-.01-.04-.01-.05v-.06l-.02-.02v-.02l.02-.02v-.01h-.02q.02-.13.02-.27v-.03l-.03-.06-.03-.06v-.04l-.02-.02h.01l-.03-.23-.02-.17v-.11l-.05-.15-.05-.16.02-.07.02-.07-.01-.05h-.03v-.09a1 1 0 0 1-.05-.28v-.32q0-.04.02-.07l.03-.07-.03-.04-.02-.05.03-.09.02-.02.02-.02h-.02.01q0-.1.1-.11l.02-.03q0-.03.02-.03h.06l.06-.01.1-.05v.02l.01.02.04-.02v-.02h.1q.05 0 .05.03 0 .05.07.05h.01l.02-.02.03-.02.01-.02.04-.04.02-.02.03.06v.03l.04.07.03.08.04.1v.19l.01.11v.04l.02.36v.05l.01.1v.14q0 .08.02.08l.06-.07.06-.08.07-.08.03-.03q0-.04.04-.08l.04-.05.03-.05.03-.03.03-.03.07-.06.08-.06.1-.12v-.03l.08-.08.08-.08v-.04h.02v-.01l.24-.27v-.02l.01-.02.03-.02.04-.05.05-.06.02.01.02.01.06-.05.07-.05.03-.03.03-.02-.03.03-.03.05.04-.02.03-.03.06-.05.05-.06v-.03l.02-.01.02-.01.03-.04.03-.05.04-.02h-.01l-.01.02q.06 0 .06-.03.02 0 .02.02v.02h.02l.02.01.02.02Zm-2.27 5.35v-.01.03zm-.01-.64v.03h.02l-.04-.06Zm.06-.05v.02l.02-.02-.02-.02zm.02-.6.01.22v.07l.02.06v.06l.01.07v.08l-.01.02v.04h-.01l-.01.01v.03l.03.08v.02l.02.03.02.02v.04l.02.05v.04l.01.04v.09q0 .06.04.13l.01.03.02.04.02.03v-.03l-.03-.09h.02v-.01l-.01-.03-.02-.07q0-.03.02-.04 0-.07-.04-.19l.05.01v.01l.02.01h.01v.02h-.01l.02.02.03.03-.02.02v.01h.01l-.02.04v.02h.02v.06q0 .03.03.03v-.03l-.04-.11-.01-.02v-.17l-.01-.07v-.03l-.02-.11h-.02v-.01h-.02l-.02.02v.01l-.02-.11-.03-.13q0-.1-.03-.11v.09l-.03-.05v-.1l.02.02.01-.02v-.02h-.01v-.04q-.03-.13-.04-.12Zm.01.14v.06zm.09-.07.01.03.02.03v-.07q0-.03-.01-.02zm.22.18v.06-.04l-.02-.03Zm.09.32-.01-.02q0-.06-.03-.06l.01-.01h-.02v.09l.01.03.01.03q.03 0 .02-.06Zm-.05-.1.01-.01v-.01h-.02zm.02-.06V26h-.02v.03zv-.02Zm.17.08-.02.01v.01l-.01.02v.01l.02.04.04.02q0-.06-.04-.12Zm1.49-3.94.08-.09.03-.03.08-.09v-.03q0 .03-.02.03h-.01l-.06.08v.04h-.01l-.03.03v.02Zm.03-.38-.02.03v.01zv-.02Zm.11.12-.04.04v.06l-.04.07.01-.01h.02l.03-.03.03-.04.03-.05.02-.05-.04.04Zm-.07.01H14v.02l-.01.02q.03 0 .04-.03Zm0-.08-.02.03v.01zm.3.34v-.04l.02.02-.02.04z" class="st3"/><path d="m14.78 23.63.01-.05zm.02.3v.02zv-.02Zm0-.59v.11-.16.04Zm.05.6V24q-.02.02-.02.09v-.23.07zv-.02l.02-.03v-.12.27zm-.01-.41v.04l-.01.12-.02-.04v-.27h.01l.01.04v.08l-.01.04Zm-.02-.45v.08-.1h.01zm.03.67v.04zm.02-.07v-.02l.01-.17v-.05.26zm-.01-.52v.06zm1.9-1.93h.06v.04l.02.01h.02l.02.02.03.03h.21l.04.05q.06.05.06.08l.03.02.04.03.02.01.07.04.06.07q.04.08.13.14l.03.05.03.05q.06.06.07.11v.01q.13.24.19.42v.02l.04.12.03.1.02.08.02.08.06.18q.05.12.07.23l.01.05.01.06v.05l.03.07v.05l.02.13v.09l.01.08.02.18.02.17.01.08.01.07.02.16v.05l.01.09v.08q.04.5-.14.85l-.05.19-.02.1-.03.1-.01.02-.02.09q-.04.13-.13.27l-.03.04-.03.04-.03.02-.03.02q0 .03-.03.04l-.06.02h-.05l-.24.03h-.11l-.1-.01h-.22l-.11-.03-.11-.03-.04-.01-.05-.02h-.03l-.09-.02-.26-.11-.08-.03-.08-.03-.21-.12-.05-.04-.06-.04-.04-.04-.03-.04-.06-.08-.1-.08-.03-.03-.03-.05-.06-.05-.05-.06v-.01l-.06-.08-.06-.1-.05-.08-.04-.07-.04-.07-.1-.22-.05-.19q-.03 0-.08-.22v-.13l-.03-.25-.01-.2v-.23l-.01-.07v-.52l.02-.09.01-.07.01-.07v-.05l-.01.02q.03-.02.02-.13h-.01l.03-.12.03-.08.03-.11.02-.11.05-.21.01-.02.02-.03v-.03l.01-.04.01-.02.01-.05a.3.3 0 0 1 .1-.17h.01q.14-.16.34-.31l.05-.04.06-.06.05-.02.08-.04.06-.04h.04l.12-.07.04-.01.04-.02.06-.02q.06 0 .06-.02h.07l.01.01v.01l.03.03h.01l.02.02.03.03.03.02.03.01.04-.02-.01-.01.01-.01.07-.02v-.03.01l.01.01h.03q.02 0 .03-.02Zm-1.84 2.38v.08q0 .02.02.02v-.04q0-.06-.02-.07zm.01-.2v-.02zl.01.04zm.02-.2v-.02zv.02zm.01-.17v.11zm.08.11-.02.06q.02 0 .02-.06m-.01-.26.01.04v.03l.03.04v-.02l.03-.09v-.11l-.06.13Zm.02.14v-.01.1q.02 0 0-.09m.12.02s0-.02-.02-.02v.09-.09Zm.49-.04v.03l-.02.08v.46l.01.27.02.07h-.01v.05q0 .03.02.04l.04.19.02.06.02.07.02.07v.03c.03.03.03.11.05.14q.03.03.1.2.05.16.08.19l.07.13.04.06.04.06.02.02.02.02.06.08.06.09.03.02v.03l.02.01v.01q.01.07.34.19l.15.02h.13v-.01l.03-.09.03-.09.02-.1v-.01l.02-.01v-.3q.02 0 .02-.03t.02-.03l.02-.5v.02l.01-.01v-.05l-.02-.03.02.02-.02-.02v-.01h.01v.02l.01.04v.06h-.02l.02.01v.12l-.01.04.02.02v.04l-.01.06.03.06-.02.01.02.02h.01v.07q.03 0 .02-.05h.01v-.28l-.01-.02v-.06h.01l-.01-.03-.01-.03.01-.01v-.02l.02-.06v.03a.1.1 0 0 0 0 .11v.05q0 .09.03.1v-.27h.01v-.13.02h.01q.03 0 .04.02v.08l-.02.07q0 .04.04.04l.02-.02q-.02 0-.02-.02h.01l-.02-.02.02-.01-.02-.02.03.04h.01v.16h.02v-.07l.03-.02-.01-.04v-.08h.02v-.03q.03 0 0-.13v-.07q-.02 0-.02.03v.11h-.02v.1-.02l.01-.01v-.18l.01-.01v-.11l-.01-.19-.02-.03v-.1l-.02-.03h.01l-.01-.05-.01-.05-.03-.14h-.02v-.07l-.01-.06v-.06l-.01-.04v-.07h-.04v.02l.02.06.02.26q0 .03-.02.03v.15-.02l-.02-.02v-.04h-.03v.06l.01.02.01.05v.02-.07l-.02-.08v-.27l-.01-.07-.01-.06v-.07.02l-.03-.13-.1-.38q0-.08-.04-.13l-.05-.1-.05-.1h-.02l-.02.02h-.04v.05-.03h-.01l-.09.03-.1.03h-.04q-.07 0-.1.02l-.02.02-.03-.01.02-.02.04-.02v-.01h.01l-.02-.02.02-.03v.02h-.01l.03-.03.03-.03v-.01h.02v-.02l.1-.06q.09-.04.09-.07v-.01h-.01v-.01h.01l.04.02-.01-.03-.01-.02v.01l-.02-.02v-.02l-.02-.03-.05.03v.01h-.01l-.02.01-.01-.01-.02-.02h.01-.01l-.01-.01h-.01v.01l.02.01v.02h-.01l-.02.01v-.03h-.02v-.02l-.02.02v.01l.02.02v.03h-.01l-.02.01.01-.01.01-.02h-.01v-.01q0-.03.02-.03v-.05.01q0 .02-.02.03h-.02l-.02.01v-.04.03h-.01.01v.06l-.02-.01-.02-.02v.02l-.08-.02-.02.01v-.05l.03-.02h-.01v.01h-.02v-.01.01h-.01v-.01l-.01.01q0 .03-.02.03v-.06l.01.03v-.04h.03l.01-.01v.01-.02h.01v.02-.02h.01V22l.01-.01h-.01l-.02.01h-.03a.1.1 0 0 0-.09.05v.02h-.04l-.02.03h.07l-.04.02h-.01l-.04.02h-.1v-.02q-.03 0-.09.07-.02.02-.01.05-.03.03-.03.11-.03 0-.03.04v.01q-.03 0-.03.06v.16q-.08.19-.07.26v.01l-.03.17Zm.56-.95v.02-.01Zm.04 0h-.01zh.02v-.03h.01v.03-.01.02h-.02v.01l-.04-.02v.01Zm.23-.88.04-.03h.09v.05l.01.02.01.02h-.05v-.01l.02-.01h-.09zl.04-.02Zm.46 1.48.02.02v.01zm.02.08v-.02l.02.02zv.01Zm.01.06q0-.02.02-.02v.03h-.01Zm.01-.05v.01zm.25 1.97v-.02l.01.04v-.02Zm-.01-.32s0 .03-.02.03v-.04.02Zm0-.05-.01.01v-.01Zm-.09-1.14v-.02zm.04.06-.02-.02zm.1.56v.04l-.04-.07.02-.01v.02zm.03-.1.01.02h-.01l.01.08-.01.01v-.18.04l.01.02Zm.09 1.08s.02 0 .02-.03zm.08-.46v.02l-.02.01zm.01-.14v.04l-.02-.02v-.02.02Zm-.06-.55q0-.02-.02-.02zm.12.6v-.03l.01.02v.08h-.01zm0-2.03s0 .02.01.01q0-.03-.02-.04zm4.1 4.43-.01.21v.02l-.03.13-.02.09-.01.05-.02.15v.22h-.01v.05l-.01.01v-.02l-.01.04-.02.03h-.01l-.01.02v.02h-.03v.04h-.01l-.01.02v-.06h-.02l-.01-.02v.04h-.03l-.01.03v.02l-.01-.02-.01-.03v-.04q0-.04-.02-.06l-.02.02v.1l-.01-.02h-.01q0-.04-.04-.05l-.02.02v-.01.03l-.03-.03h-.02v-.28l-.02.11-.02.11q0-.23-.02-.24l-.03.2-.02-.02v-.01l-.02-.03v-.01h-.01v.04l-.01-.01-.02-.02-.02-.05-.03-.07-.02-.05-.02-.04q0-.04-.02-.07l-.02-.06-.03-.11-.03-.1-.02-.08-.05-.17-.02-.07-.03-.07-.01-.05v-.05l-.03-.13-.05-.22-.06-.18-.06-.22-.06-.18-.03-.14v-.02l-.01-.03-.01-.04-.03-.1v-.05l-.01-.04-.02-.09q0-.06-.03-.09-.03-.04-.07-.22 0-.05-.02-.08l-.06-.23-.11-.37-.03-.11-.03-.11-.03-.09-.03-.08-.05-.12-.07-.16-.03-.09-.02-.05-.02-.04-.02-.05-.02-.03.01.12.01.13.02.17v.24l.01.12v.09l.02.22v.09l.01.13.02.19v.12l.01.14v.01l.02.12.03.2.04.32v.19l.02.15.02.13v.17l.02.11v.15l.02.12.02.12v.14l.02.14.01.1v.12h-.03v.05-.02l-.01-.02v.01h-.01v.03-.04h-.02v.06h-.01l-.02-.02v.02l-.01-.01h-.03l-.03-.03-.01-.05-.02-.11-.02-.07v-.02l-.03.1-.03.09v-.01h-.05l-.07-.03q-.1-.05-.14-.11l-.05-.05-.04-.05-.03-.05-.03-.04v-.02l-.03-.04-.02-.04-.01-.03v-.03q-.03-.03-.04-.16v-.06l-.01-.1v-.04l-.01-.05v-.06l-.01-.09v-.01l-.01-.11-.01-.07v-.04q0-.1-.04-.23l-.04-.24v-.05l-.01-.11-.01-.06-.01-.06v-.04l-.02-.13v-.13l-.1-.6-.02-.16v-.06l-.02-.17-.01-.11v-.08l-.01-.09-.01-.07v-.14l-.02-.14-.08-.6-.02-.22-.02-.21v-.21l-.02-.14-.01-.08-.01-.05v-.04l-.01-.07v-.28q.05-.03.05-.06 0-.04.05-.05l.03.01.01-.01v-.01h.01l.05-.07h.02v.01-.01h.01l.01-.02v-.02h.01v-.01l.04-.03.02.02h.03v-.02h.02l.06-.01.04.03.02.01h.11V21h.04q.09 0 .14.05h.02l.02.01h.02l.06.04q.03 0 .04.03l.02.02.03.04.04.04.04.08q.09.1.21.31l.16.28.08.15.02.03v.02l.02.02q.1.14.11.25v.02l.02.04.02.05.04.07.11.22v.04l.02.04v.02l.04.1.05.13.02.07.02.07.02.05.12.37.1.36v-.18l-.01-.23v-.11l-.01-.79v-.3l-.01-.47-.02-.46v-.24l-.01-.14v-.2l.02-.02.02.01v.1l-.01.05-.02.03v.55l.01.1v.06l.01.06-.01.04v.25l.01.1.01.07v.42l.01-.02h.01v-.27h.01l.01.02.02.04.01-.03.01-.03v-.22l.01-.02v-.34l.02-.03h.01l.02-.01v.14l.02.01v-.01q0-.03.02-.05v-.05l.01-.06v-.04l.01.02v-.21l.03-.03-.02-.04h.01v-.07h-.02l.01-.02q0-.03.03-.04v-.07l.01-.03v-.03l.01-.03v-.02.02q0 .03.02.05h-.01v.02l.02-.03.03-.01v-.08l-.01-.02v-.05l.01-.01-.02-.04h-.01l-.02.03h-.02v-.05l-.05.01v-.12.01l.02-.02v-.04l.02-.03h.02l.02-.01.02-.02h.04q.03 0 .04-.02t.07-.04l.1.03q.08.04.13.13l.04.05.02.1.03.12v5.01l.01.15.01.14.01.33Zm-1.69-4.42.03.03zl-.02-.04.02.06Zm.66-1.14v.02zm.05 1.85h-.01q0 .05.02.05zm-.01.11.01.03zm0-1.12v-.02h-.01Zm0 .01v.04zm.03.82v-.02h-.01l.02.04zm-.01.15v.03zm.03-1.53h.02Zm.04-.23v.04h-.02l-.02-.03v-.04l.03-.03h.02v.04Zm-.02.41v.02zm.07-.09v-.09l-.02-.04q-.02 0-.02.02v-.08q0-.02-.02-.02h.01l.01-.03q0-.02.02-.03v-.09l.01-.03.01.02-.01.04.02.06-.01.02v.02q-.03 0-.03.03h.01v.11l.01.02.01.05v.05l-.01.02Zm-.01.1h-.01l.02-.02Zm0 .04-.01-.02zm0-.3v-.02zm.04.19h-.01v.06q0-.02-.02-.03v-.05h.02Zm0 .09v.08l-.01.03-.01-.06v-.05Zm.04-.23-.01.02h-.01zm-.02-.54v.02zm.01.5v.02zm.03-.08v.02l-.02.01.01-.05Zm.05.52v-.02h.01Zm1.23-.12-.09.17.02-.08.02-.08q-.03 0-.03.04v.02l-.02.02-.02.02-.02.06v.09-.02l.03-.12.03-.11.03-.05.03-.06.02-.03.02-.03v-.02l.04-.04.05-.05.07-.07.07-.04.08-.05h.01v-.03l.03-.03.03-.03.07-.08.07-.08.02-.01.09-.08h.03q.04 0 .04-.02h.01v-.02l.05-.01.04-.02.03-.01.05-.01.04-.01.07-.03h.06l.12.02.04.01.04.01.05.03.02.02.02.02h.01l.07.04.01.01h.01l.02.02.04.05.02.01.02.01v.06l.02.05.03.08v.02l.04.06.03.07.01.03.02.05.02.02.02.05.02.06h.01l.01.04.01.03.04.07v.03l.04.18v.14l.02.13v.18l.01.14-.01.18-.06.13-.06.12h-.01v.04l-.02.01-.02.01-.03.04-.02.02h-.02l-.12.06h-.06l-.1-.07-.03-.12-.03-.17q0-.1-.02-.11l-.01-.05v-.24l-.03-.08-.01-.05-.01-.05-.01-.02v-.02l-.02-.08-.02-.09-.02-.01-.01-.02-.01-.03v-.02l-.02-.05-.03-.04-.03-.06q-.03-.15-.16-.18l-.02-.01-.03-.01h-.04q-.03-.03-.11 0l-.06.02-.05.02-.04.02-.03.02-.02.03v.08l-.01.06-.02.16-.02.17-.01.07-.01.08-.01.08q-.03.14-.03.59v.5l.03.18.03.29.02.2.02.2.02.15v.03l.02.19.03.18.03.2q.09.65.28 1.16v.08h.01a.3.3 0 0 0 .12.17v.01h.01l.03.02h.01l.18-.1.13-.11.01-.02h.02v-.03h.01l.04-.08.04-.09.02-.03.01-.03v-.02l.02-.01v-.04l.01-.02.02-.02v-.09l.02-.02v-.82l-.01-.07-.01-.06v-.14l-.01-.07-.28.1a.4.4 0 0 1-.33-.04v-.02l-.08-.03v-.23l.02-.04.01-.03.02-.03v-.02q0-.06.07-.13.04-.03.07-.1l.03-.04.02-.02.07-.05.06-.04.13-.08.05-.01.09-.02q.06 0 .08-.03l.04-.02.05-.02h.12q.08 0 .26.14l.03.06.03.07h.03q.03 0 .03.02v.09l.01.02v.05l-.02.34v.12l.01.04v.04l-.02.14-.01.14-.01.55v.42l-.02.12-.01.02v.03l-.02.04-.03.07-.03.05-.01.02v.02l-.01.01v.02l-.02.01v.03l-.01.01v.04l-.02.02v.02q0 .02-.02.03v.02l-.02.01v.02l-.01.01-.01.03-.01.03-.05.05-.03.04v.02h-.01l-.02.03-.01.01-.01.01-.06.09-.05.09h-.01l-.01.02h-.02q0 .03-.14.15l-.1.07-.12.08-.03.02-.05.04-.03.03h-.06l-.04.03-.05.03h-.02q-.11.02-.14.01h-.14v-.01l-.07.01h-.1l-.02.01-.01.01h-.06v-.02h-.05l-.06-.04h-.02l-.09-.08-.07-.07-.02-.01-.02-.01-.01-.03-.01-.03-.04-.05-.03-.05v-.07h-.01v-.06q-.02-.02-.05-.17l.03.09q0 .07.03.09l-.06-.25-.06-.26-.01-.06v-.1l-.02-.16-.02-.17-.02-.11-.02-.11-.01-.1-.05-.3-.01-.19v-.62q0-.14-.02-.17v-.39l-.01-.24v-.19.09h.01v.07l.01.03q.02 0 .02-.03v-.03l-.01-.02v-.06l.02-.24v-.31l.01.03v.49l.02.24v-.28l.02.06v.2l.02.34v.56l.02.08.03-.09.01-.04v-.92l-.01-.15q0-.12.02-.13v.09l.02.38.01.24v.25l.01-.06.01-.07V24l-.01-.07v-.01q0-.05-.01-.04v-.02h.01v-.16.14-.72l.01-.05v-.05l.02-.23q.02-.22.07-.46v-.04l-.01-.02.02-.04.01-.08v-.1l.01-.01.05-.27q-.04 0-.09.17v.07l-.06.3h-.01l.01-.01.02-.12v-.06l.01-.08q.02-.03.01-.07v-.02q.05-.04.06-.15Zm-.34 2.73v.11zm.06-1.67.04-.34v.03l-.03.35v.09q0 .21-.02.24zm.06.36v-.08l.01-.06v.17zm.09-.81v-.06zv.03Zm-.02 1.26v-.02zv.07zm.09-.63v.23-.38l-.01-.02v.16Zm0 .4v.04zm.06-.7v-.12.16zm1.51.1h.02l.02.01v.03h-.02l.01.03q0 .03.01.02l.02-.05h-.01v-.02h.02l.02-.01h.01l-.02.02h.02l.01-.02v-.02h.01v-.07l-.01-.03.01-.02-.01.01v-.09l-.01-.01.01-.01-.01.01v-.06h-.01l-.02.02h-.02v.03h-.01v.01l-.01.01v.04l.04.04v.05h-.03.03v.02h-.03Zm.1-.02.02.01-.01.01Zm1.32-2.26s.03.03.05.03l.02.03.02.03v-.04l.02.02.02.02.1-.03.05-.01.06-.02.04-.01h.1q.07 0 .22-.06l.22-.06h.04l.18-.02q.17-.03.23 0h.12l.09-.01h.12l.14.03.02.01.03.02.09.03.05.03.05.03.19.17.05.07a.4.4 0 0 1 .07.17l.01.04.02.06.02.04.02.13.02.17v.3l-.02.02v.1q-.02.19-.08.31l-.02.02-.02.04-.02.04-.03.04-.02.03-.04.09-.06.1-.03.04-.04.03-.03.05-.04.11-.04.09-.03.07-.02.07-.01.01h-.01l-.03.07q-.03.02-.05.08t-.06.08l-.07.09-.05.05-.05.04-.04.04.05.12.04.08.04.06.04.06.07.11.1.18.03.02v.01l.07.09.05.09v.04l.06.06.06.11.03.08.05.09.09.14.1.18.07.16.03.06.02.02.03.04.01.02q.04 0 .05.11l.02.02q0 .03.02.03l.04.05.01.02.01.01.04.03q0 .03.02.04l-.04-.06-.02-.03q0 .03.02.02l.03.01v.06l.03.1.03.09q0 .09.02.17 0 .02-.03.02t-.03.02l-.05.03h-.1l-.04.01h-.07l-.02.03-.02.1-.13.03h-.02q-.33.09-.39.04h-.05l-.04-.03q-.05 0-.14-.1l-.08-.11-.03-.05v-.02l-.06-.09q-.04-.01-.08-.14l-.03-.07-.03-.06-.04-.06-.03-.05v-.01l-.05-.09-.05-.1-.03-.04q-.04 0-.1-.1l-.1-.2-.06-.12-.04-.05-.04-.05-.09-.13-.11-.19-.03-.06q-.02-.05-.05-.06l-.03.03-.02.03q.02.04 0 .07c0 .08 0 .11.02.19v.29q-.02.02 0 .14l.01.15v.28l.02.08.01.07.01.23.01.23.02.21.02.21v.11l.02.09.02.1-.01.11q0 .03-.02.04h-.01v-.04.04l-.01-.02v-.02.18-.14l.01-.03v-.02h-.01v-.03.02l.02.01v.04-.02h-.01v.03-.1h-.01l-.02.03-.02-.03q0-.03-.02-.03-.02.02-.01.05h-.02v.03-.1q-.03 0-.02.03h-.01l-.01-.02v.05l-.01.05q-.02-.02-.02-.05v-.03q-.02 0 0 .13v-.03h-.01v.02l-.01.01-.01-.01v-.02.07l-.01-.05v.06q0-.03-.03-.03v-.04q-.02-.01-.02.04v.01l.01.04v.09-.04.05-.03l-.01.01h-.01l.01.04V27v-.05q-.02 0-.01.05l-.02-.02-.01-.02h-.03V27l-.01-.03q0-.03-.02-.02l-.01.03v.05l-.02-.04q-.03-.07-.04-.03h-.02v.05q-.03 0-.04-.06l-.02.05v-.02l-.01-.04-.02-.1q0-.09-.03-.11v-.34l-.03-.31-.03-.36-.03-.38-.03-.38-.03-.37v-.18l-.02-.23v-.32l-.09-.63-.02-.15v-.67l-.02-.66v-.63l-.02-.14-.03-.12-.02-.1v-.07l.01-.02v-.01l.03-.01v-.06h.05v-.06l.01-.02.01.02q0 .02.02 0v-.06l.02.01h.02q.02 0 .02-.02l.02-.01.02.01.03-.04.04.02.03.03.02-.03h.01l.05.02v-.02q.02 0 .03.03l.01.01v-.08l.02.01.02.02.02.02v-.04l-.01-.04q.03 0 .03.03v-.01l.05.03.03.03Zm.22 6.57h-.01l-.02-.04v-.01l.03.01zm-.01-1.5h.03v-.02l-.01-.02-.01-.02zm.03.28s0-.05-.02-.06v.03q0 .03.02.04Zm.06.48V26l-.01-.02v-.02h-.02l.01.14v.03l.01.09v.13q.02 0 .02-.02zm-.01-.78v-.03zm.04.19v-.02zm.02.29-.01.01zm.05.62v-.05l-.01.01v.05zm-.02-.63v.03q.03 0 0-.07h-.01v.03Zm.06-.05v-.02q0 .04-.02.05v.06l.01.02v.06h.01V26l.01-.04v-.02q.02-.03-.02-.06Zm.06.95v.04zv-.02l.02.03Zm-.02-.92v.04l.01-.01v-.07zm.16.5v.02-.13l-.01-.12-.01-.02v-.1q-.03 0-.03.04v.14-.06l-.01-.13v.07h.01-.01v.28l-.01-.01v-.01h.02q0-.09-.02-.09v.06-.1h-.01v-.14.16h-.01l.01.09v.04h.01v.03-.04q.02-.03.03-.02v.07-.04l.01-.02v.04l.02.03v-.06Zm.74-5.09s-.04-.07-.06-.08h-.1q-.07-.06-.14-.06-.06 0-.06-.02l-.03-.02h-.04v-.02h-.1q-.04 0-.05.05v-.01h-.05l-.01.02q-.14 0-.19.07l-.07.07-.04.04-.02.02-.02.03q-.03.02-.03.12v.05l.02.16v.13q0 .16.03.24l.01.1.01.13.01.12v.23l.01.11.01.12.02.23q.03 0 .05-.06l.06-.11.04-.07.19-.24.03-.03v-.03h.01l.09-.14v-.03l.02-.04q.16-.24.32-.57l.05-.1v-.23l-.02-.18Zm-.81 5.33-.01-.01v-.03zm-.01-.22s0-.01 0 0v.03-.02Zm.06.37v.03zv-.05zm.01-.09v.02l-.02.01v-.02zm.02.09-.01-.02v-.03zm-.01-.45v.04l-.01-.04v-.02.02Zm.12.41-.02-.04h.01v.05Zm3.88-2.61h.12q.2-.07.39-.09l.19.02.09.04a.1.1 0 0 0 .08.04q.04.05.08.07l.05.07.05.07.01.04.01.04q0 .04-.02.06l-.03.03q-.02 0-.02.02v.02l.01.02h.02l.03.05.04.07v.04l.02.05.02.03.02.1v.14l-.09.08q-.09.04-.15.04t-.08.04q-.03 0-.08.05-.05.04-.09.05l-.13.03h-.06l-.14.03-.2.04h-.1l-.13-.03h-.38l-.08-.01h-.18l-.07.01q-.03 0-.03.02h-.26l-.02.01-.04-.02-.04-.02-.02.02-.02.03v-.04h-.09l-.04-.02-.02-.03-.02-.02h-.04l-.02-.01-.03-.01h-.01v.04q-.05 0-.05-.07v-.02l-.02-.04v-.02l-.02-.03v-.04l.01-.1v-.09l.03-.09q.02-.07.01-.1l-.01-.16v-.04l-.03-.19v-.09l-.05-.33v-.15l-.01-.42v-.14q0-.06-.06-.18l-.06-.18v-.25l-.02-.37v-.4l.01-.09-.01-.03-.01-.04v-.07l-.03-.13-.03-.12v-.36l.01-.05v-.05l-.01-.04v-.35l-.01-.08v-.22l.03-.06q0-.05.03-.06l.02-.03.07-.04.07-.04.07-.04.06-.04h.01l.03-.01.1-.01h.01l.07-.03.05-.02h.06l.03-.01.02-.01h.04l.04-.01q.06 0 .06-.03l.07-.03.15-.05.1-.03.25-.07.04-.01.15-.04.14-.04.14-.04.11-.03.1-.02.07-.02.14-.02h.16l.09.04.07.03v.02h-.01v.02h.02l.02.02h-.01.01q.04 0 .04.06l.01.03v.12l-.03.03-.01.02v.03l-.05.05-.05.05.08.01h.07v.06l-.01.03v.11q.04.02.05.08 0 .09-.07.19v.03l-.03.02-.03.01-.28.09-.25.09-.27.08-.09.01-.09.02h-.03l-.12.02-.1.03-.35.06-.15.04-.04.02-.04.02q-.02.03-.01.1v.17q0 .16.04.19v-.06l.02.04v.06-.03.03q0 .03.04.05v.05l.02.04v.09q.02 0 .02-.03l.02.03v.06l.43-.04.18-.02.07-.01h.17l.09.01h.03l.13-.03.12-.02.13.02.07.02.03-.03.03-.03q.09.03.11.06h.01v.02h-.01v.09l-.04.02-.04.02.02.04.01.03.06.03.02.01v.1l-.08.09q-.1.02-.13.08v.02h.01q0 .03-.02.03 0 .03.03.03l.06.01h.03v.02l-.03.02v.02l-.01.09v.04h.01v.02q-.03 0-.03.03h.01-.01q0 .07.05.07h.01l-.03.02-.02.01v.03l-.01.01q0 .02-.04.05l-.1.03q-.06 0-.06.02l-.26.04h-.04l-.16.02-.07.01-.07.01-.48-.04q-.04 0-.06.02v.1l.05.31v.34l.04.41v.13h.18l.15.01.11.03h.09l.03-.03q.01.02.08.01Zm-1.41-3.56v-.04q0-.03-.03-.04 0 .13.04.33v.04q0 .05.03.07v-.23l-.06-.06v-.04Zm.18 1.72-.06-.54q0-.03-.02-.02v.07-.33l-.01-.01h-.01v-.04l-.01-.01v.13l.01.09.01.09v.08l.03.23.03.27v.11l.02.01v.1q0 .03.02.04l-.01-.16v-.05l.02-.06Zm-.04-.65v.03l.02.01v-.15q0-.09-.05-.09v.06l.01.06zv.04Zm.06 1.13v-.14q0-.02-.02-.02v.12h-.01l.01.01q-.03 0-.02.05v.02l.04-.03h.01zm.19-.41v-.26l-.02-.2-.03-.24-.01-.09v-.06l-.02-.13q0-.09-.03-.13h-.02v.16l-.02-.09q-.03 0-.03.06v.08l.02.02.04.19h-.04l-.02.04.09.53-.01-.19a1 1 0 0 1-.01-.35l.01.14.02.16.02.16v.14l.02.01v-.02l.01-.02v-.05l-.06-.4v-.11q.03.01.08.4v.27l.04.01-.02.02v.12q0 .03.02.04v-.06h.01v-.21Zm-.12.26s0-.03-.02-.05v.12l.02.04q.02-.05.01-.11Zm.13-.03v.03l-.02-.04Zm4.68.95v-.2l.02-.24v-.06l-.05-.34q-.03-.17-.07-.26a.2.2 0 0 0-.17-.11h-.07q-.09.02-.31.12l-.02.01-.04.03-.04.02h.02q0 .03-.04.04-.03 0-.05.02h-.02l-.12.05-.22.07a1 1 0 0 1-.39-.03l-.1-.05h-.16l-.06-.02-.03-.03-.04-.04q0-.03-.03-.05v-.03q0-.03-.02-.02v-.02l-.03-.02q-.03 0-.04-.03h-.05l-.02-.06-.04-.05-.02-.07-.03-.06v.05l.02.07.02.06-.01.01.01.04.02.04q-.07-.07-.07-.24l-.02-.14-.02-.14v-.04.12q-.02 0-.02-.06v-.01l-.01-.09v-.09l-.01.04v.13l-.01-.11v-.22l.01-.2v-.32l.01-.09v-.01h.01v-.25l.02-.13v-.04l.02-.12h.02l.02-.07q0-.1.05-.16l-.01-.03a.5.5 0 0 1 .19-.28l.11-.12.09-.11.05-.04.06-.04.03-.03h-.01l.04-.04.05-.03q.06 0 .1-.07l.05-.02.04-.03.05-.03.05-.03a3 3 0 0 1 1.04-.24h.2l.07.01.14.01.06.01.05.02h.02q.07 0 .07.03.03 0 .05.02l.05.05.03.03.04.03.05.03.03.04q.07.1.11.12.02.08.08.15l.07.11q.03.05.05.21l.03.19.02.09.03.13q0 .07-.02.1l-.05.08-.05.08q-.07.08-.17.1a.3.3 0 0 1-.22-.05l-.02-.02h-.02l-.04-.04-.07-.02-.05-.01q-.02 0-.06-.07l-.04-.06q0-.03-.06-.08l-.07-.06-.05-.07q-.06-.09-.12-.1 0-.02-.02-.03l-.02-.03-.03-.02q0-.02-.02-.03l-.02-.03-.05-.03-.05-.03-.04-.02-.03-.01H33l-.07-.01-.03-.02q-.12-.06-.19-.04h-.06a.7.7 0 0 0-.37.27h-.02q-.06.08-.06.11l-.01.03-.03.06-.04.05h.02l-.08.25-.03.17-.01.09v.5q0 .32.1.42t.32.06l.02-.01.02-.01.1-.05.07-.05v-.01q.08 0 .13-.09l.04-.04.15-.07.19-.09.3-.12.16-.07h.18q.1 0 .16.03l.07.03.08.02q.06 0 .08.03.02.04.09.1l.09.08.02.02q.03 0 .06.09l.03.09.05.09v.02q.04.04.07.13l.05.42v.11q0 .17-.02.29l-.03.13v.09l-.01.08q0 .1-.03.11v.05l-.02.07-.01.04q-.06.22-.07.5l-.01.06-.01.08q-.09.1-.09.19l-.01.09-.01.03-.03.07h-.01v-.03l-.02.04h.01v.02l-.02.03v.06l-.04.08-.03.07h-.01v-.02l-.01.01v-.02l.01-.03v-.03l-.09.1-.04.05-.05.07-.03.06h-.07q0 .03-.03.03h.05v.03l-.04.04-.02.03q-.04 0-.04.03v-.01.03l-.02.02-.04.01-.06.06q-.02 0-.01.01h-.05q-.03 0-.07.05l-.06.06v.02h-.01.07-.03l-.03.02v.02l-.04.02h-.03q.04 0 .04-.03h.03-.06l-.07.05-.07.05h-.02.03l.05-.01.05-.01h.03q0 .03-.1.05l-.05.02-.15.02-.02.02q-.03 0-.04.02h-.03q0 .02.02.01v.02l-.05.02h-.13l-.09.03-.09.02h-.14l-.12.01.02.01h.26v.02h.04-.15l-.08.01h-.07l.01-.02-.03-.01-.04-.01h-.05l-.06.02.05.02-.01.02h-.13l-.08-.05h-.05l-.02-.01-.01-.01q-.03.02-.17-.02h-.07q0-.02-.04-.02v-.02l-.04-.03-.04-.01q-.05 0-.07-.06h-.01l-.01.01q0-.02-.02-.03 0-.02-.03-.01h-.01l-.02-.02h-.04v-.03l-.05-.04-.05-.04v-.03l-.04-.06-.01-.06-.01-.03v-.08q0-.03-.03-.03v-.03l-.01-.05v-.04l-.02-.01h-.02l-.01-.05v-.06q0-.08-.03-.11 0-.1-.06-.25l-.06-.26v-.17q0-.1-.03-.14h.01l.02-.04.02-.03v-.05l.02-.03.03-.03v-.01l.02-.03.01-.05v.02l.02-.01.01-.01.01-.04h.01l.02-.04.02-.03v.04h.02l.01-.01h.05l.03-.02.03-.03v.02q.03-.05.05-.04t.01.03l.02-.01v-.01h.05c.02-.04.02 0 .04.01l.07-.02.06-.04.01.03h.05v.02l.02.02.02.06-.04.02-.04.02v-.03h-.02l-.01.01h-.01v.03l.02.05.02.03v.04l-.01-.03-.03.01-.03-.01-.02-.03-.01-.02v-.04l-.01.02h-.01l-.01.01v.02l.02.05.01.02-.01.03q0 .07-.05.07v.02q0 .09.03.09 0 .03.04.04v.02h.03q0 .03.02.05v.03l.01.02q.03 0 .02-.06h-.02q0-.06.02-.06v-.07.15h.02l-.01.03-.01.02v.05l.01.05.01.02v.07h.04v-.02.03l-.01.02q0 .02.02.02l.01.03q.02 0 .02-.03l.01-.02h-.01v-.09l.01.02.01.04.01.04.01.03v.03l.02.01.03.01h.03v-.1l-.01-.03-.02-.02-.02-.02-.02-.07q-.02-.04-.01-.07v-.18l.02-.01h.02q0 .02.04.01v.03q0 .03.02.03v.04q0 .02.02.03l.02.03.02.01v.01q.02 0 .02-.03l.02.04v.17q.02 0 .02-.06-.05.06-.02.1v.02l.03.05v-.04h.04l-.02-.05.05.02v.1l.05.07.02.04.03.03v.08l.03.07h.02v.02h.05l.01.04v.02l.05.06h.03v.06h.04q.03 0 .04.02h.02l.18-.02h.04l.05-.08.02-.02.08-.09.07-.09q.14-.18.17-.28l.02-.08.03-.15.02-.09.05-.3Zm-2.01.36h.02l.01.02.04-.01-.03-.03h.01l.04.01q0-.02.03-.02l.01.02-.02-.08q-.02-.04-.04-.04v.05h-.01v-.06h.01l-.02-.05v-.04l-.02-.02-.01-.05v-.03h-.01v-.02l-.01-.02-.04-.09h-.01v.06h.01l.01-.01v.04l-.03-.02h-.03v-.03l-.01-.02v-.03l-.02.01-.02.01q0 .05-.02.05v-.05h-.02q0 .05-.05.05v-.02l-.02.01h-.02v.05l-.02.01.01.02v.08l.02.07.02.07.01.03v.03h.02v.02h.01v.09-.07l.01.03v.04h.03V24h.02v-.07.07l.02.03v-.05h.02Zm-.29 1.1-.05-.12q.02 0 .05.12m.03-.2s-.02 0 0-.02q.02 0 0 .02m.07.37s.02.03.01.05q-.03 0-.03-.02v-.07zm.18-5.3-.02.01.03-.04zm.04 4.09v.07zm.03-.27-.01-.03zm.11 1.75s.02 0 .02.02h.01l-.01.01q-.04.01-.04-.04h-.02zl.02.02Zm.03-1.67v.03h-.01zm.06-.19v.02q-.02 0-.02-.1h.01zm.11-.24h-.02v.02zm0 .7-.01.01v-.02zm.04-.62h.02q0 .03.03.05l-.02.01q-.02 0-.02.02v.01l.01.01q-.02.03-.02 0v-.03q0-.03-.02-.02v-.06zm-.03.49v.03zm.01.1v.02q-.02 0 0-.02m.03 1.58h-.07.01v-.02q.03 0 .03.03h.01Zm.09-2.06v-.04l.04-.05h.03l-.04.07q-.02 0-.03.02v.03l-.03.04-.04.03q0-.03.02-.03v-.04zm.04.04v.01zm.14.19h-.03l.01-.02.01-.02h.04v-.02q-.04 0-.07.02l-.05-.01v.01l-.02-.05.02-.02.03-.02v-.02q.02 0 .01-.02h.02v.03h.05l-.02.01-.01.01.07.04v.13l.01.03q0 .02.03.01l-.04.06.01.04v.06h-.03V24q-.05-.02-.03-.23 0-.02-.03-.01Zm.28.55h-.03v.01q.04 0 .04-.02Zm.06.14v-.02h.04l-.04.03Zm.45 1.11h.02l-.08.01h.05Zm.64-.47v-.02h-.02l-.04.05q0 .02.02.03v-.03h.03v-.02Zm.17-.03s-.02 0-.02.02q.03 0 .02-.02m.03-.24v.01zm.15.1-.02.02h-.01l.01-.02Zm.04-.13q-.02 0-.01.02l.04-.02v-.01Zm.19-.05-.08.11q-.06.06-.07.05l.01-.02.01-.03q-.02-.02-.05.03v-.04l.02-.01.02-.02h.02v.03l.02-.03.08-.06Zm-.07.01.03-.02v.04l-.01.02h-.02l.02-.03Zm-.02.14.03-.03.02-.02-.05.08zm.05-.16v-.02zm.03-.05s0-.03.03-.06h.03l-.01.03-.02.03zm.12-.11-.01.02zm.12-.29-.01-.02v.05q.02 0 .02-.03Zm.01-.04q0 .02 0 0m2.47-2.08.01-.1.01-.09.03-.22v-.05l-.01-.29-.04-.21q-.03-.08-.12-.05l-.02.01-.03.02-.25.21-.01.02-.03.04-.03.04.02-.01q0 .03-.03.05l-.04.03h-.02l-.1.09-.18.14a1 1 0 0 1-.32.09l-.09-.02h-.03l-.06.02q-.04 0-.04.02h-.06l-.03-.02q-.03 0-.03-.03l-.02-.04v-.03q0-.02-.02-.02v-.02l-.02-.01q-.03 0-.03-.02h-.05l-.02-.06-.03-.05-.02-.07-.03-.06v.05l.02.07.02.06-.01.01.01.04.02.04q-.07-.06-.07-.24l-.02-.14-.02-.14v-.04.12q-.02 0-.02-.06v-.01l-.01-.09v-.09l-.01.04v.13l-.01-.12v-.22l.01-.2v-.32l.01-.09v-.01H35v-.25l.02-.13v-.04l.02-.12h.02l.02-.07q0-.1.05-.16l-.01-.03a.6.6 0 0 1 .18-.29l.1-.13.08-.11.04-.04.05-.05.03-.03h-.01l.04-.04.05-.03q.06-.02.09-.09l.04-.03.04-.03.05-.04.05-.04a3 3 0 0 1 .89-.43l.08-.02.1-.03h.06l.12-.02h.11l.06.01h.05q.03 0 .05.03l.03.03.03.02.04.02.03.03q.06.09.1.09.01.06.07.13l.06.09q.02.04.03.18t.02.17l.02.07.02.11q0 .06-.02.09l-.05.07-.06.08a.4.4 0 0 1-.16.11.3.3 0 0 1-.19 0l-.02-.01h-.02q0-.03-.03-.03h-.1q-.02 0-.04-.05l-.03-.05q0-.03-.05-.06l-.06-.04-.04-.05q-.06-.07-.09-.06l-.01-.02-.02-.02-.02-.01-.02-.02-.02-.02-.04-.02-.04-.02-.03-.01h-.12q-.1-.03-.16 0l-.03.02-.03.01q-.21.15-.32.34h-.01q-.05.07-.05.12l-.01.03-.03.06-.03.06h.01q-.06.16-.07.26l-.03.17-.01.09v.48q0 .3.08.38t.26-.03l.02-.02.02-.02q.03-.01.08-.08l.06-.07v-.01a.3.3 0 0 0 .11-.12l.03-.05.13-.11.16-.14.25-.19q.06-.07.14-.11l.15-.04h.27l.07.01.08.08.07.06.02.01q.03 0 .05.07l.02.07.04.08v.02q.05.03.05.11v.46a1 1 0 0 1-.09.36l-.01.08-.02.07q0 .09-.04.1l-.01.05-.03.06-.02.04q-.08.2-.12.44l-.02.06q-.03.04-.02.07a.4.4 0 0 0-.1.18l-.02.08q0 .02-.02.03l-.03.07h-.01v-.03l-.02.04h.01v.02l-.02.03v.06l-.04.08-.03.07h-.01v-.02l-.01.01v-.02l.01-.03v-.03l-.09.11-.04.06-.05.08-.03.06-.05.03q0 .03-.03.04l.02-.01h.01v.03l-.03.05-.02.03q-.03.01-.03.04v.02l-.02.03-.03.03-.05.08-.01.02-.03.02-.06.08-.05.08v.03h.05l-.02.02-.02.03v.02l-.03.04q-.02.03-.02 0l.03-.04.02-.02h-.05l-.05.08-.05.08-.02.01h.02l.03-.03.03-.03.02-.02q0 .05-.08.09l-.04.04v.01l-.11.09-.01.03-.03.04-.02.02h.01v.02l-.04.04-.01.01h-.01l-.03.02-.03.02v.01l-.07.08-.07.07-.02.01-.09.07-.09.07h.02l.13-.1.03-.02.01-.01v.02l.03-.02h-.01l-.01.01-.01.01-.07.06-.06.05-.05.03v.01l.01-.03h-.05l-.04.02-.04.05h.03l-.01.02-.04.02-.02.01-.04.03-.06-.01-.03.03h-.03q-.03.05-.12.05l-.06.02q0-.02-.03 0v-.01q0-.02-.03-.01h-.03q-.04.02-.05-.04h-.01l-.01.02-.01-.03h-.02v.01l-.02-.02h-.03v-.04q-.02 0-.04-.03l-.04-.03v-.03l-.03-.06-.01-.06-.01-.03v-.08q0-.03-.03-.03v-.03l-.01-.05v-.04l-.02-.01h-.01l-.01-.05v-.07q0-.08-.02-.11v-.01l-.05-.25-.05-.27v-.12l.01-.05q0-.12-.02-.15h.01l.02-.04.02-.04v-.05l.02-.04.03-.03v-.01l.02-.03.01-.05v.02l.02-.01.01-.01.01-.04h.01l.02-.04.02-.04v.04h.02l.01-.01h.05l.03-.03.03-.04v.02q.03-.06.04-.04l.01.02.02-.02v-.01l.03-.01.02-.01c.02-.04.02 0 .03 0q.02.01.06-.04t.06-.05l.01.02.04-.01v.02l.02.02.01.06-.03.03-.03.03v-.03h-.01l-.01.01h-.01v.03l.02.04.02.02v.04l-.01-.02-.02.02h-.02l-.02-.03-.01-.01v-.04l-.01.02h-.01l-.01.01v.02l.02.05q0 .02.01.01l-.01.03q0 .08-.04.08v.02q0 .1.02.08 0 .03.03.03v.02l.02-.01q0 .03.02.04v.03l.01.01q.03-.02.02-.06h-.02q0-.06.02-.06v-.08.15h.02v.1l.01.05.01.02v.07h.03v-.02.03l-.01.02h.02l.01.03.02-.03v-.03h-.01v-.07l.01.02v.07l.01.02v.03h.04l.02-.01v-.11l-.01-.02-.01-.02-.01-.06v-.08l.01-.18.02-.02.02-.01h.03v.03q0 .02.02.03V23l.01.03.01.02h.01l.01-.03.01.03v.16q.02 0 .02-.07-.04.08-.02.1v.04l.02.04v-.03h.02l-.01-.04h.03v.09l.03.04.01.03.02.02v.07q0 .05.02.05H36v.01h.03v.04l.03.03.02-.01v.03l.03-.02h.02l.02-.01.13-.1q.02-.02.03-.01l.04-.1.01-.03.07-.13.06-.12q.12-.22.14-.33l.02-.08.03-.15.02-.09v-.01l.06-.29Zm-1.59 1.09h.02v.01l.03-.02-.02-.03h.01v-.01h.03l.03-.03.01.01-.01-.07q-.02-.04-.03-.03v.05h-.01v-.07h.01l-.01-.04V23h-.02v-.08h-.01v-.02l-.01-.02-.03-.08h-.01v.06h.01l.01-.01v.04l-.02-.02-.03.01v-.03l-.01-.02v-.03l-.02.02-.02.02q0 .05-.02.05v-.06h-.02q0 .04-.05.06v-.02l-.02.02h-.02v.05l-.02.01.01.02v.08l.01.07q.02.04.01.07l.01.02v.03h.02v.02h.01v.09-.07.05h.03v.01h.02v-.07.06q0 .03.02.02v-.05h.02Zm-.28 1.17s-.04-.06-.04-.11q.02 0 .04.11m.02-.21v-.02zm.06.38v.05q-.03.01-.03-.01v-.07l.01.04Zm.24-5.35-.02.01.03-.04zm-.02 4.06v.07zm.03-.28-.01-.02zm.04 1.74.01.01h.01l-.01.02q-.03.01-.03-.02.02 0 .03-.02l.02.02Zm.09-1.7v.03h-.01zm.05-.2v.02q-.02 0-.02-.09h.01v.07Zm.1-.27h-.02v.02zm-.02.69-.01.02zm.05-.63h.02q0 .03.02.04l-.02.02q-.02 0-.02.03v.01q-.02.03-.02.01v-.03q0-.03-.02-.02v-.05l.02-.01Zm-.04.49v.03zm.01.11v.01zm-.04 1.56-.02.02h-.04l.01-.01v-.02q.03 0 .02.02h.01Zm.15-2.08v-.04l.03-.06h.02l-.03.08zv.03l-.03.05q-.01.04-.04.04l.01-.04v-.06l.04-.05Zm.13.16-.02.02v-.04l.03-.02v-.01q-.03 0-.06.05h-.04v.01l-.01-.04.02-.02.02-.03v-.02l.01-.03.02-.01v.03l.04-.03-.01.02-.01.02.05.02V23h.03l-.03.07v.1h-.02v-.05q-.04 0 0-.21zm.19.42h-.02v.01l.03-.03Zm.04.11v-.02h.01l.02-.01zm.25.85q.02 0 .02-.02l-.06.05.03-.02Zm.5-.75v-.02h-.01l-.03.06v.02-.02l.02-.02v-.02Zm.12-.1-.02.03zm.05-.22v.01zm.1.03-.01.02h-.01zm.04-.13-.01.02-.01.02.03-.03zm.16-.1-.07.12-.06.07.01-.02.01-.03q0-.02-.04.04v-.04l.01-.01.02-.03.01-.01v.02l.02-.03.07-.07Zm-.06.03.03-.03v.04l-.01.02h-.02l.02-.03Zm-.02.13.03-.04.02-.03zv-.02Zm.06-.16V23zm.02-.06s0-.03.03-.06l.02-.01-.01.03-.02.03zm.11-.12-.01.02zm.13-.29-.01-.01-.01.04q.02 0 .02-.03m.01-.03q0 .02 0 0" class="st3"/></svg>