<svg id="Ebene_1" data-name="Ebene 1" xmlns="http://www.w3.org/2000/svg" viewBox="0 0 1501.25 1462.15"><defs><style>.cls-1{fill:#5b593e;}.cls-2{fill:#95c11f;}.cls-3{fill:none;}.cls-4{fill:#fff;}.cls-5{fill:#93b237;}</style></defs><title>HofNarr-Logo BG transparent</title><path class="cls-1" d="M319.31,1209.26c-.3-6.52-.66-14.43-.66-20.18h-.12c-1.44,5.41-3,11.3-5.08,17.76l-7.12,22.68h-3.94l-6.58-22.27c-1.91-6.66-3.47-12.62-4.61-18.17h-.11c-.12,5.82-.42,13.59-.78,20.67l-1.08,20h-5l2.81-46.76h6.64l6.87,22.62c1.68,5.75,3,10.89,4.07,15.74h.12c1.07-4.71,2.51-9.85,4.3-15.74l7.18-22.62h6.64l2.51,46.76h-5.15Z"/><path class="cls-1" d="M342.21,1183v46.76H337V1183Z"/><path class="cls-1" d="M362.54,1188.17H350.28V1183h29.84v5.13H367.8v41.63h-5.26Z"/><path class="cls-1" d="M409.66,1183v19.56h19.49V1183h5.27v46.76h-5.27v-21.92H409.66v21.92H404.4V1183Z"/><path class="cls-1" d="M453.55,1215.09l-4.19,14.71H444L457.74,1183H464l13.76,46.76h-5.56l-4.31-14.71Zm13.28-4.72-4-13.46c-.9-3.05-1.5-5.82-2.09-8.53h-.12c-.6,2.71-1.2,5.62-2,8.46l-3.94,13.53Z"/><path class="cls-1" d="M487.22,1229.8V1183H493l12.85,23.66a139.72,139.72,0,0,1,7.18,15.19l.18-.07c-.48-6.24-.6-11.93-.6-19.22V1183h4.9v46.76h-5.26l-12.8-23.73a142.35,142.35,0,0,1-7.47-15.61l-.18.07c.3,5.9.36,11.52.36,19.29v20Z"/><path class="cls-1" d="M530.15,1183.73a58.17,58.17,0,0,1,11.06-1c7.48,0,12.8,2.08,16.33,5.83s5.74,9.23,5.74,16.79-2.1,13.87-5.8,18.17-10.05,6.74-17.88,6.74a71.18,71.18,0,0,1-9.45-.56Zm5.2,41.35a37.06,37.06,0,0,0,5.26.28c11.19,0,17.16-7.22,17.16-19.84.06-11-5.32-18-16.32-18a26.07,26.07,0,0,0-6.1.62Z"/><path class="cls-1" d="M567.94,1238.4a115.57,115.57,0,0,0,3.59-16.65l5.86-.69a98.43,98.43,0,0,1-5.74,16.86Z"/><path class="cls-1" d="M609,1183v19.56h19.49V1183h5.27v46.76h-5.27v-21.92H609v21.92H603.7V1183Z"/><path class="cls-1" d="M667.14,1207.88H651.53v16.85H669v5.07H646.27V1183H668.1v5.06H651.53v14.78h15.61Z"/><path class="cls-1" d="M679.34,1183.66a52.82,52.82,0,0,1,10-1c5.57,0,9.21,1.25,11.66,3.82a12.92,12.92,0,0,1,3.17,9c0,6.1-3.34,10.2-7.53,11.86v.21c3,1.25,4.9,4.58,5.86,9.43,1.31,6.52,2.27,11,3.11,12.84h-5.38c-.66-1.39-1.56-5.34-2.63-11.17-1.2-6.45-3.41-8.88-8.14-9.09h-4.9v20.26h-5.2Zm5.2,21.3h5.32c5.56,0,9.09-3.54,9.09-8.88,0-6-3.77-8.67-9.27-8.67a19.6,19.6,0,0,0-5.14.49Z"/><path class="cls-1" d="M712.35,1226.26l22.3-38v-.21H714.26V1183h27.21v3.68l-22.25,37.81v.2h22.55v5.07H712.35Z"/><path class="cls-1" d="M773.22,1183v27.75c0,10.41,4,14.85,9.39,14.85,5.91,0,9.8-4.58,9.8-14.85V1183h5.26v27.33c0,14.36-6.52,20.19-15.24,20.19-8.26,0-14.47-5.41-14.47-20V1183Z"/><path class="cls-1" d="M810.29,1229.8V1183H816l12.86,23.66a137.68,137.68,0,0,1,7.17,15.19l.18-.07c-.48-6.24-.6-11.93-.6-19.22V1183h4.91v46.76h-5.26l-12.8-23.73a142.35,142.35,0,0,1-7.47-15.61l-.18.07c.3,5.9.35,11.52.35,19.29v20Z"/><path class="cls-1" d="M853.23,1183.73a58,58,0,0,1,11.06-1c7.47,0,12.79,2.08,16.32,5.83s5.74,9.23,5.74,16.79-2.09,13.87-5.8,18.17-10,6.74-17.88,6.74a71.13,71.13,0,0,1-9.44-.56Zm5.2,41.35a36.88,36.88,0,0,0,5.26.28c11.18,0,17.16-7.22,17.16-19.84.06-11-5.32-18-16.32-18a25.94,25.94,0,0,0-6.1.62Z"/><path class="cls-1" d="M919.6,1229.8,906.38,1183h5.68l6.28,23c1.68,6.32,3.17,12,4.31,17.48h.12c1.13-5.41,2.75-11.3,4.6-17.41l6.82-23.1h5.56l-14.41,46.76Z"/><path class="cls-1" d="M968.51,1207.88H952.9v16.85h17.46v5.07H947.64V1183h21.83v5.06H952.9v14.78h15.61Z"/><path class="cls-1" d="M980.71,1183.66a52.84,52.84,0,0,1,10-1c5.56,0,9.2,1.25,11.66,3.82a13,13,0,0,1,3.17,9c0,6.1-3.35,10.2-7.54,11.86v.21c3,1.25,4.9,4.58,5.86,9.43,1.32,6.52,2.27,11,3.11,12.84h-5.38c-.66-1.39-1.56-5.34-2.63-11.17-1.2-6.45-3.41-8.88-8.13-9.09h-4.91v20.26h-5.2Zm5.2,21.3h5.32c5.56,0,9.09-3.54,9.09-8.88,0-6-3.76-8.67-9.27-8.67a19.6,19.6,0,0,0-5.14.49Z"/><path class="cls-1" d="M1015.81,1222.44a15.86,15.86,0,0,0,9.27,3.06c5.32,0,8.43-3.26,8.43-8,0-4.3-2.15-6.87-7.6-9.23-6.57-2.77-10.64-6.8-10.64-13.32,0-7.28,5.2-12.69,13-12.69a16.09,16.09,0,0,1,8.85,2.29l-1.44,4.92a13.36,13.36,0,0,0-7.59-2.22c-5.5,0-7.6,3.82-7.6,7,0,4.37,2.46,6.52,8,9,6.81,3,10.22,6.86,10.22,13.73,0,7.22-4.54,13.53-14,13.53-3.89,0-8.13-1.39-10.29-3Z"/><path class="cls-1" d="M1057.19,1188.17h-12.26V1183h29.84v5.13h-12.32v41.63h-5.26Z"/><path class="cls-1" d="M1084.87,1215.09l-4.18,14.71h-5.38l13.75-46.76h6.22L1109,1229.8h-5.56l-4.31-14.71Zm13.28-4.72-4-13.46c-.9-3.05-1.49-5.82-2.09-8.53h-.12c-.6,2.71-1.2,5.62-2,8.46l-4,13.53Z"/><path class="cls-1" d="M1118.54,1229.8V1183h5.74l12.86,23.66a139.53,139.53,0,0,1,7.17,15.19l.18-.07c-.48-6.24-.6-11.93-.6-19.22V1183h4.91v46.76h-5.27l-12.79-23.73a144.33,144.33,0,0,1-7.48-15.61l-.18.07c.3,5.9.36,11.52.36,19.29v20Z"/><path class="cls-1" d="M1161.47,1183.73a58.17,58.17,0,0,1,11.06-1c7.48,0,12.8,2.08,16.33,5.83s5.74,9.23,5.74,16.79-2.09,13.87-5.8,18.17-10,6.74-17.88,6.74a71.18,71.18,0,0,1-9.45-.56Zm5.2,41.35a37.12,37.12,0,0,0,5.27.28c11.18,0,17.16-7.22,17.16-19.84.06-11-5.32-18-16.33-18a26.07,26.07,0,0,0-6.1.62Z"/><path class="cls-1" d="M432.26,1266.3H454v5.07H437.52v15.54h15.19v5H437.52v21.16h-5.26Z"/><path class="cls-1" d="M470.23,1266.3v27.75c0,10.41,4,14.85,9.39,14.85,5.92,0,9.81-4.58,9.81-14.85V1266.3h5.26v27.34c0,14.36-6.52,20.18-15.25,20.18-8.25,0-14.47-5.41-14.47-20V1266.3Zm1.26-6.8a3.21,3.21,0,0,1,2.93-3.46c1.67,0,2.87,1.52,2.87,3.46s-1.14,3.54-2.93,3.54S471.49,1261.45,471.49,1259.5Zm11.12,0a3.22,3.22,0,0,1,3-3.46c1.67,0,2.87,1.52,2.87,3.46s-1.14,3.54-3,3.54C483.81,1263,482.61,1261.45,482.61,1259.5Z"/><path class="cls-1" d="M507.31,1266.93a51.92,51.92,0,0,1,10-1c5.56,0,9.21,1.25,11.66,3.81a12.93,12.93,0,0,1,3.17,9c0,6.11-3.35,10.2-7.53,11.86v.21c3,1.25,4.9,4.58,5.86,9.44,1.31,6.52,2.27,11,3.11,12.83h-5.39c-.65-1.39-1.55-5.34-2.63-11.17-1.19-6.45-3.4-8.88-8.13-9.08h-4.9v20.25h-5.2Zm5.2,21.3h5.32c5.56,0,9.09-3.54,9.09-8.88,0-6-3.77-8.68-9.27-8.68a19.6,19.6,0,0,0-5.14.49Z"/><path class="cls-1" d="M564.53,1266.3v27.75c0,10.41,4,14.85,9.39,14.85,5.92,0,9.8-4.58,9.8-14.85V1266.3H589v27.34c0,14.36-6.52,20.18-15.25,20.18-8.25,0-14.47-5.41-14.47-20V1266.3Z"/><path class="cls-1" d="M601.6,1313.06V1266.3h5.74L620.2,1290a138.54,138.54,0,0,1,7.17,15.19l.18-.07c-.47-6.24-.59-11.93-.59-19.21V1266.3h4.9v46.76H626.6l-12.8-23.72a144.12,144.12,0,0,1-7.47-15.61l-.18.07c.3,5.89.36,11.51.36,19.28v20Z"/><path class="cls-1" d="M643.88,1305.71a15.93,15.93,0,0,0,9.27,3c5.32,0,8.43-3.26,8.43-8,0-4.3-2.15-6.87-7.59-9.22-6.58-2.78-10.65-6.8-10.65-13.32,0-7.29,5.2-12.7,13-12.7a16.09,16.09,0,0,1,8.85,2.29l-1.44,4.93a13.3,13.3,0,0,0-7.59-2.22c-5.5,0-7.6,3.81-7.6,7,0,4.37,2.46,6.52,8,9,6.81,3,10.22,6.87,10.22,13.74,0,7.21-4.54,13.52-14.05,13.52-3.89,0-8.13-1.38-10.29-3Z"/><path class="cls-1" d="M698.41,1291.14h-15.6V1308h17.46v5.06H677.55V1266.3h21.82v5.07H682.81v14.77h15.6Z"/><path class="cls-1" d="M710.61,1266.93a52,52,0,0,1,10-1c5.56,0,9.21,1.25,11.66,3.81a13,13,0,0,1,3.17,9c0,6.11-3.35,10.2-7.54,11.86v.21c3.05,1.25,4.9,4.58,5.86,9.44,1.32,6.52,2.27,11,3.11,12.83h-5.38c-.66-1.39-1.55-5.34-2.63-11.17-1.2-6.45-3.41-8.88-8.13-9.08h-4.91v20.25h-5.2Zm5.2,21.3h5.33c5.56,0,9.08-3.54,9.08-8.88,0-6-3.76-8.68-9.26-8.68a19.64,19.64,0,0,0-5.15.49Z"/><path class="cls-1" d="M767.18,1291.14H751.57V1308H769v5.06H746.31V1266.3h21.83v5.07H751.57v14.77h15.61Z"/><path class="cls-1" d="M792.89,1309.52l22.3-37.94v-.21H794.8v-5.07H822V1270l-22.24,37.81v.21h22.54v5.06H792.89Z"/><path class="cls-1" d="M837.5,1266.3v27.75c0,10.41,4,14.85,9.38,14.85,5.92,0,9.81-4.58,9.81-14.85V1266.3H862v27.34c0,14.36-6.52,20.18-15.25,20.18-8.25,0-14.47-5.41-14.47-20V1266.3Z"/><path class="cls-1" d="M874.57,1266.3h5.2v22.55H880c1.08-1.8,2.15-3.47,3.17-5l12.32-17.56h6.46l-14.59,19.84L903,1313.06h-6.16l-13.21-23-3.89,5.13v17.83h-5.2Z"/><path class="cls-1" d="M915.77,1266.3v27.75c0,10.41,4,14.85,9.39,14.85,5.92,0,9.8-4.58,9.8-14.85V1266.3h5.27v27.34c0,14.36-6.52,20.18-15.25,20.18-8.25,0-14.47-5.41-14.47-20V1266.3Z"/><path class="cls-1" d="M952.84,1313.06V1266.3h5.74L971.44,1290a140.61,140.61,0,0,1,7.18,15.19l.17-.07c-.47-6.24-.59-11.93-.59-19.21V1266.3h4.9v46.76h-5.26L965,1289.34a144.12,144.12,0,0,1-7.47-15.61l-.18.07c.3,5.89.36,11.51.36,19.28v20Z"/><path class="cls-1" d="M995.72,1266.3h21.7v5.07H1001v15.54h15.19v5H1001v21.16h-5.26Z"/><path class="cls-1" d="M1036.14,1271.44h-12.26v-5.14h29.84v5.14H1041.4v41.62h-5.26Z"/><path class="cls-1" d="M1056.77,1309.45c0-2.49,1.49-4.37,3.59-4.37s3.53,1.81,3.53,4.37-1.44,4.37-3.65,4.37C1058.21,1313.82,1056.77,1312,1056.77,1309.45Z"/><path class="cls-2" d="M565.48,1352.9l3,11.55c.61,2.54,1.22,4.88,1.64,7.23h.15c.51-2.3,1.26-4.74,2-7.18l3.71-11.6h3.48l3.52,11.36c.85,2.73,1.5,5.12,2,7.42h.14a70,70,0,0,1,1.74-7.37l3.24-11.41h4.09l-7.33,22.73h-3.76l-3.47-10.85a74.46,74.46,0,0,1-2-7.47h-.1a67,67,0,0,1-2.06,7.52l-3.67,10.8h-3.75l-6.86-22.73Z"/><path class="cls-2" d="M603.43,1352.9l3.05,11.55c.61,2.54,1.22,4.88,1.65,7.23h.14c.51-2.3,1.27-4.74,2-7.18l3.71-11.6h3.47l3.53,11.36c.84,2.73,1.5,5.12,2,7.42h.14a67.39,67.39,0,0,1,1.73-7.37l3.24-11.41h4.09l-7.33,22.73h-3.75l-3.48-10.85a74.46,74.46,0,0,1-2-7.47h-.09a69.14,69.14,0,0,1-2.07,7.52l-3.66,10.8h-3.76l-6.86-22.73Z"/><path class="cls-2" d="M641.38,1352.9l3.06,11.55c.61,2.54,1.22,4.88,1.64,7.23h.14c.52-2.3,1.27-4.74,2-7.18l3.71-11.6h3.48l3.52,11.36c.84,2.73,1.5,5.12,2,7.42h.14a65.33,65.33,0,0,1,1.74-7.37l3.24-11.41h4.08l-7.32,22.73h-3.76l-3.48-10.85c-.79-2.54-1.45-4.79-2-7.47h-.09a67,67,0,0,1-2.07,7.52l-3.66,10.8H644l-6.85-22.73Z"/><path class="cls-2" d="M674.31,1373.18a2.8,2.8,0,0,1,2.82-3,2.74,2.74,0,0,1,2.77,3,2.8,2.8,0,1,1-5.59,0Z"/><path class="cls-2" d="M687.84,1342.28H692v14.23h.1a7.83,7.83,0,0,1,2.95-3,8.55,8.55,0,0,1,4.23-1.12c3,0,7.94,1.88,7.94,9.67v13.53h-4.14v-13.06c0-3.66-1.36-6.72-5.26-6.72a6,6,0,0,0-5.53,4.09,5.17,5.17,0,0,0-.29,2v13.72h-4.13Z"/><path class="cls-2" d="M737.3,1364.07c0,8.41-5.87,12.07-11.32,12.07-6.11,0-10.9-4.51-10.9-11.69,0-7.56,5-12,11.28-12C732.88,1352.43,737.3,1357.17,737.3,1364.07Zm-18,.24c0,5,2.82,8.73,6.86,8.73s6.9-3.71,6.9-8.82c0-3.86-1.92-8.69-6.81-8.69S719.31,1360,719.31,1364.31Z"/><path class="cls-2" d="M745.76,1375.63V1356h-3.15v-3.14h3.15v-1.08c0-3.2.75-6.11,2.63-7.94a7.92,7.92,0,0,1,5.54-2.12,9.36,9.36,0,0,1,3.52.66l-.56,3.2a5.89,5.89,0,0,0-2.63-.52c-3.52,0-4.42,3.05-4.42,6.58v1.22h5.5V1356h-5.5v19.59Z"/><path class="cls-2" d="M771.45,1361.44v3h-11.6v-3Z"/><path class="cls-2" d="M779.11,1359.05c0-2.4-.05-4.28-.19-6.15h3.66l.24,3.75h.09a8.43,8.43,0,0,1,7.52-4.22c3.15,0,8,1.88,8,9.67v13.53h-4.13v-13.11c0-3.66-1.37-6.71-5.26-6.71a6,6,0,0,0-5.55,4.22,6.23,6.23,0,0,0-.28,1.93v13.67h-4.13Z"/><path class="cls-2" d="M824,1370.18a38.9,38.9,0,0,0,.33,5.45h-3.71l-.33-2.87h-.13a8.49,8.49,0,0,1-7,3.38c-4.6,0-6.95-3.24-6.95-6.52,0-5.5,4.89-8.51,13.67-8.46v-.47c0-1.83-.52-5.26-5.17-5.21a11,11,0,0,0-6,1.69l-.94-2.77a14.66,14.66,0,0,1,7.51-2c6.95,0,8.64,4.74,8.64,9.25Zm-4-6.15c-4.51-.1-9.62.7-9.62,5.12a3.62,3.62,0,0,0,3.85,3.94,5.73,5.73,0,0,0,5.58-3.8A4.38,4.38,0,0,0,820,1368Z"/><path class="cls-2" d="M833.46,1360c0-2.68-.05-5-.19-7.09h3.61l.19,4.5h.14a6.88,6.88,0,0,1,6.34-5,8,8,0,0,1,1.13.09v3.9a6.72,6.72,0,0,0-1.41-.09c-2.91,0-5,2.15-5.54,5.26a11.55,11.55,0,0,0-.14,1.92v12.12h-4.13Z"/><path class="cls-2" d="M851.82,1360c0-2.68,0-5-.18-7.09h3.61l.19,4.5h.14a6.88,6.88,0,0,1,6.34-5,8.08,8.08,0,0,1,1.13.09v3.9a6.72,6.72,0,0,0-1.41-.09c-2.91,0-5,2.15-5.54,5.26a11.55,11.55,0,0,0-.14,1.92v12.12h-4.14Z"/><path class="cls-2" d="M866.53,1373.18a2.79,2.79,0,0,1,2.82-3,2.74,2.74,0,0,1,2.77,3,2.79,2.79,0,0,1-2.87,3A2.75,2.75,0,0,1,866.53,1373.18Z"/><path class="cls-2" d="M896.26,1374.83a16.13,16.13,0,0,1-6.53,1.31c-6.86,0-11.32-4.65-11.32-11.6s4.79-12.11,12.21-12.11a13,13,0,0,1,5.73,1.22l-.94,3.14a10.16,10.16,0,0,0-4.79-1.08c-5.21,0-8,3.9-8,8.6,0,5.26,3.38,8.5,7.89,8.5a11.75,11.75,0,0,0,5.07-1.08Z"/><path class="cls-2" d="M903.92,1342.28h4.13v14.23h.09a7.93,7.93,0,0,1,3-3,8.52,8.52,0,0,1,4.23-1.12c3,0,7.93,1.88,7.93,9.67v13.53h-4.13v-13.06c0-3.66-1.36-6.72-5.26-6.72a6,6,0,0,0-5.54,4.09,5.37,5.37,0,0,0-.28,2v13.72h-4.13Z"/><path class="cls-3" d="M1293.51,899.31a19,19,0,0,1,1.67-2.85l-3.59-1.78C1292.17,896.26,1292.79,897.82,1293.51,899.31Z"/><path class="cls-4" d="M302.07,450c-1.83,8.71,2.89,13.58,11.75,13.85,1.82.05,4.07-8.15,3.91-9.58-.82-7.51-11.41-11.51-15.66-4.27"/><path class="cls-4" d="M624.67,411.12c-5.56.85-5.4,7.12-2.65,10.62,2.34,3,7.19,4.25,10.82,3.49,6.13-1.29,6-6.77,4.19-11.47C633.18,411.75,629.38,410.41,624.67,411.12Z"/><path class="cls-1" d="M239.43,947.35c4.7,0,15.68,3.92,15.68,17.77,0,13.59.78,31.63,3.4,44.17,15.16-2.08,34.24-6,47.31-11.5-.52-12.8-7.32-40.25-7.32-55.93,0-8.89,8.89-14.9,16.73-14.9,5.49,0,13.33,2.88,13.33,11.76,0,12.55,3.66,44.7,4.18,52.8l1.83-.26c2.62,0,7.06,3.66,7.32,10.72.26,4.18-3.14,15.42-6.8,15.42l.79,14.9c1,19.08,8.89,59.6,8.89,65.61,0,5.75-3.66,12-13.07,12s-15.43-7.32-15.43-18.3-6.27-57.76-7.58-70.05c-12.54,2.09-37.11,7.58-49.4,10.72.52,5.22,5,38.16,7.84,52,2.62.53,3.92.79,3.92,6.54,0,5.23-11.24,14.64-17.25,14.64-9.41,0-15.68-7.32-16.73-23-.78-15.68-3.66-42.34-3.92-49.4-3.39,0-7.58-7.84-7.58-11.24,0-3.66,1.57-9.41,6.28-10.19-.53-8.1-6.8-35.29-6.8-50.19C225.05,950.75,235.24,947.35,239.43,947.35Z"/><path class="cls-1" d="M407.23,937.15C414,937.15,420,945,420,949.7c0,14.9-5,20.39-7.06,20.39s-3.92-1.05-4.44-2.1a3.79,3.79,0,0,0-3.14-2.35c-2.35,0-8.89,16-8.89,56.73,0,53.06,14.9,61.94,22.48,61.94,25.1,0,47.84-26.66,47.84-57.76,0-32.68-25.88-54.11-40.26-60.12-5.22-2.09-6.27-10.46-6.27-15.16s2.61-9.15,8.89-9.15c32.93,0,63.51,44.44,63.51,85.21,0,30.32-32.41,79.2-76.85,79.2s-47.57-53.06-47.57-90.18C368.28,967.21,391.81,937.15,407.23,937.15Z"/><path class="cls-1" d="M530.59,950.22a13.21,13.21,0,0,1,12.81,13.33c0,8.11,2.61,40.26,2.61,61.43,0,26.4,11.5,66.92,11.5,70.84,0,8.62-6.53,15.16-15.94,15.16-5.75,0-13.07-3.93-13.07-11.77,0-7.58-5.75-45.22-7.06-63.51s-3.92-57.25-3.92-74.5C517.52,954.41,525.36,950.22,530.59,950.22ZM583.91,933c16.47-2.88,24.05-4.18,36.86-4.18,7.06,0,12,1.57,12,7.58,0,14.38-27.18,15.68-36.33,16.73C580,954.67,556,962,550.2,962c-7.58,0-10.2-4.71-10.2-10.2C540,942.64,566.93,935.85,583.91,933Zm-30.32,77.9a280.21,280.21,0,0,0,35.82-5.49c13.85-3.4,20.65-7.59,24.83-7.59,4.44,0,8.1,3.66,8.1,6.54,0,5.75-1.57,9.93-7.06,12.55-15.68,7.58-51.23,13.85-58.81,13.85-8.36,0-10.46-3.66-10.46-8.1C546,1017.66,546.8,1011.13,553.59,1010.87Z"/><path class="cls-1" d="M707.27,992.31c0-17.51,5-26.67,15.42-26.67,4.19,0,9.94,2.1,13.6,4.71,7.32,5.49,44.17,40,56.19,51.75,12.29,11.77,27.71,26.67,40.26,37.91,0-6-1.3-17-1.3-31.11s-4.19-52.28-4.19-67.18c0-8.1,6.28-15.16,12.81-15.16,7.84,0,16.21,5.49,16.21,12.81,0,17.78-.52,58.55-.52,83.64.25,25.36,4.18,37.38,4.18,47.58s-2.88,11.5-8.11,11.5c-8.36,0-15.68-8.1-20.38-12.55-4.45-4.44-29.54-29.27-35.55-34.76-6-5.75-51.24-44.7-62.48-61.69a42.57,42.57,0,0,0-.78,6.53c0,16.47,2.35,30.85,3.66,42.61s4.18,33.72,4.18,42.61-9.41,13.07-13.07,13.07c-8.1,0-16.73-3.4-16.73-14.9,0-9.41-1-35-1.3-47.57C709.1,1025,707.27,1014.78,707.27,992.31Z"/><path class="cls-1" d="M907.75,1082.75c0,6.79.78,12.54.78,19.34,0,7.32-8.63,10.45-14.64,10.45s-13.07-4.44-13.07-16.46c0-18,13.85-67.7,17.51-76.59,2.62-6,7.84-29.28,7.84-36.07,0-3.66-.52-9.15-.52-11.76,0-4.71,4.45-11.51,14.38-11.51,10.19,0,13.85,9.42,13.85,13.33,0,22-12.28,50.19-15.42,62l38.69-18.56c-2.36-7.59-22.74-59.86-32.42-59.86-3.13,0-8.1-5.23-8.1-11,0-8.36,9.93-11,18.3-11,12.54,0,38.69,57,43.39,70.05,5,0,13.07,1,12.81,11.77,0,3.13-1.31,6.53-4.18,7.84,2.61,4.18,23.52,35.55,29.27,41.3,5.49,5.75,10.46,11,10.46,15.94,0,4.71-1.31,13.59-13.07,13.59-10.2,0-14.9-6.79-18.3-11.5-8.1-11-24.31-43.13-28.75-49.14l-54.9,26.67C909.83,1067.58,907.75,1075.17,907.75,1082.75Z"/><path class="cls-1" d="M1034.77,943.17c6,0,12.81,1,20.39,1.57,7.06.25,23,.25,34,.25,11.24,0,27.18.27,35.55,1.83,6.53,1.31,18.3,7.85,18.3,15.95,0,18.82-20.92,40-59.34,73.19,5.49,4.44,19.87,9.67,36.07,11.76,16.47,2.09,34,8.37,44.7,8.89,11.24.52,15.68,11.5,15.68,15.16s-3.92,11.5-11,11.5c-6.79,0-24.83-10.19-58-15.16-29.28-4.19-51.24-20.39-52-28-.52-5,2.61-9.41,6-12.81,16.47-11.5,50.19-50.45,50.19-55.15,0-4.44-2.35-10.46-34.76-10.46-8.89,0-19.87-.26-25.62.79-.53,4.44,3.4,65.87,4.7,86.78,1.83,26.4,10.2,59.59,10.2,65.61,0,6.27-6.54,12-13.6,12s-18.29-4.44-18.29-18.56c0-14.37-6-71.88-6.54-83.9-.52-12.29-4.7-45.75-5.23-49.14-.78-6.54-5-14.64-5-20.65C1024.84,945,1028.76,943.17,1034.77,943.17Z"/><path class="cls-1" d="M1186.36,943.17c6,0,12.81,1,20.39,1.57,7.06.25,23,.25,34,.25,11.24,0,27.19.27,35.55,1.83,6.53,1.31,18.3,7.85,18.3,15.95,0,18.82-20.91,40-59.34,73.19,5.49,4.44,19.87,9.67,36.07,11.76,16.47,2.09,34,8.37,44.7,8.89,11.24.52,15.69,11.5,15.69,15.16s-3.93,11.5-11,11.5c-6.79,0-24.83-10.19-58-15.16-29.28-4.19-51.23-20.39-52-28-.52-5,2.62-9.41,6-12.81,16.47-11.5,50.19-50.45,50.19-55.15,0-4.44-2.35-10.46-34.76-10.46-8.89,0-19.87-.26-25.62.79-.52,4.44,3.4,65.87,4.7,86.78,1.83,26.4,10.2,59.59,10.2,65.61,0,6.27-6.54,12-13.6,12s-18.29-4.44-18.29-18.56c0-14.37-6-71.88-6.54-83.9-.52-12.29-4.7-45.75-5.23-49.14-.78-6.54-5-14.64-5-20.65C1176.43,945,1180.35,943.17,1186.36,943.17Z"/><path class="cls-1" d="M1029.44,845.89c-.23.8-1.07,1.22-3.22,2.52-3.26,2-3.87,4.57-6.68,7.54s-3.95,3.74-.36,6.15c1.8,1.21,3.65,1.31,5.38,3.06,1.51,1.53,2.53,3.58,3.87,5.27,2.52,3.16,1.71,4.61,2.31,8.5.54,3.49.36,7.66-2.33,10.25-2,1.9-8.2,2.09-8,4.69a4.11,4.11,0,0,0,1,0l.12-.64a7.07,7.07,0,0,1,1,0c.42,1,1.23,1.6,1.69,2.59,3.71-.34,4-6,8.45-5,2,.46,6.32,4.6,7.43,6.49,2.94,5-3.38,3.82-5.79,7.16-3.22,4.46,3.49,11.7-3.59,13-2.75.52-5,1.32-5.77,4.61a6.8,6.8,0,0,1,3.39-1.46c.19.15,0,.81.11,1.05.36,0,1.22-.25,1.44-.19,0,.56.07,1.18.13,1.76-.52-5.24,11.43-2.85,13.29-2,5.34,2.58,10.38-.7,16-.07,12.42,1.38,15.7,7.13,27.7,10.18,12.74,3.23,31.92,1.93,45.5,2.27a89,89,0,0,0,36.78-6.29c-27.1,4.84-45,4.19-67.76,1-18.71-2.65-20.14-6.22-26.67-24.19-1.11-3-1-5.28-1.26-8.26-.3-3.58-1.77-6.77-2.41-10.29a128.54,128.54,0,0,0-6.68-14.9c-1.55-2.49-4.1-3.66-6.09-5.71-3.48-3.59-5.15-7-9.19-10.27-5.53-4.49-4.6-11.08-7.43-17.28-3.67-8-13.56-2.82-12.75,4.72C1029.42,844.24,1029.65,845.21,1029.44,845.89Z"/><path class="cls-1" d="M1041.85,845.22c-.68-2.71-2.81-9.12.39-10.83,3-1.58,4.42,1.71,4.45,4.24C1046.73,842.09,1044.67,843.55,1041.85,845.22Z"/><path class="cls-5" d="M750.21,88.62c-349.66,0-633.11,283.45-633.11,633.1a631.91,631.91,0,0,0,39.31,220c38.57-26.23,83.36-49.88,133.19-70.39-.77-5.88-1.52-11.67-3.58-15.68-18.89-36.74-55.18-35.06-85.29-57-7.2-5.24-11.9-11.8-18-17.5-.38-.36,25.42-7.25,25.44-21.49-.1-2.23-1.19-3.44-1-.65.12,13-28.45,18.74-28.6,18.62a43.23,43.23,0,0,0-5.39-3.53c-4.58-2.53-10.42-8.65-15.86-8.93-7.54-.38-7.25,5.56-10.42-2.25-2.78-6.83,2.27-22.15,5.52-28.25,4.24-8,4.14-6.81,13.34-6.3a49.46,49.46,0,0,0,13.82-1c10.17-2.26,17.78-7.68,29.07-13.22,7.12-3.5,23.23-11.71,27.14-18.79,4-7.28-2.56-21-1.81-29.36,10.22-.19,14.3,15.86,23.84,11.14,10.47-5.17,11.2-23.67,25.43-26.81.68,13.3,1.44,62.18,24.36,42.13,10.73-9.39,8.69-37.57,10.69-50.58,3.38-22.07,11.86-43,16.24-64.91,3.53-17.62,11.07-36.32,23.19-50.21,5.4-6.19,13.14-12.82,20.77-16,8.15-3.45,17-3.29,25.19-7.47,17.27-8.85,15.48-21.45,10.52-36.42-1.9-5.76-1.28-12.36-3.62-17.91-2.07-4.91-6.18-8-9-12.41-6.17-9.76,7.81-16.32-1.89-27.78-10.06-11.89-27.23-17-41.67-21-19.17-5.3-52.24,4.06-62.05,22.73-7.63,14.54-6.56,34.09,1.24,48.05-17.14-9.71-22.05-38.9-20.49-56.78,4.56-52.21,59.46-86.94,108.23-75.63,28.2,6.54,47,23.38,69.5,39.72,11.75-19,14.08-37.87,34.14-51.76,33.88-23.46,77.57-14,107.66,10.4,21.39,17.34,54,54.55,40.55,84.93,2-4.44-25.44-30.56-28.5-33.58-11.36-11.2-24.83-19.68-41.3-20.71s-33.51,9.76-37.17,26.36c-1.47,6.68-.88,17,1.66,22.94,1.32,3.07,4.86,3.41,5.41,7.65.77,5.83-3.06,5.44-4.89,9.28-2.36,4.95-2.94,2.32-1.46,9.11,1,4.64,3.19,7.77,3.76,12.38C536.28,457.93,521,475.94,537,486c5.69,3.58,13.06,5.77,19.78,8.19,15.18,5.46,16.27,12.94,22.12,27,3,7.26,5.4,15.21,9.91,21.3,4.18,5.65,10.46,8.13,16.4,12.27,14.09,9.81,25.41,21.27,43.48,19.06,14.06-1.72,28.06-1.77,42.38-1.77,8.07-12.61,17.3-25,22.5-39.15,2-5.48,4-12.5,4.43-18.32a34.06,34.06,0,0,0-6.21-22.14c-5.38-7.42-10.18-7.56-18.13-9.69-14.32-3.85-28.83-15.5-28-31.54.35-6.7-.76-14.43,1.89-20.79,3.41-8.2,8.6-4.52,15.2-4.06,8.89.62,20.49-3.6,29.3-5,7.23-1.16,15.34-5.09,20.43-10.47s6.5-13.2,14.68-15.62c16.65-4.91,33.65-4.28,50.53-1.12,5.64,1.06,17.85,1.79,20.5,7.23,5.44,1.88,8.45,10.4,11.72,14.61,2.7,3.48,5.87,6.38,8.08,10,5.61,9.28,9.69,18.9,16.34,27.71,13.82,18.31,22.79,35.3,26.61,58,4.12,24.45,8.87,48.41,18,71.59,3.88,9.88,8.94,23.67,19.67,28,4.94,2,9,1.09,13.93-.36,3.68-1.11,7.6-1.09,11.32-2.23a66.41,66.41,0,0,0,11-4.69c6.43-3.36,10.56-10.89,14.87-16.67,3.85-5.15,6.76-9.18,8.92-15,1-2.6,2.32-5.19,3.46-7.76.88-2,1.53-6.06,2.75-7.49a62.58,62.58,0,0,1-3-15.93c-.35-4.45-1.58-11.13-.2-15.33,5.75,2.11,11.49,7,16.72,10.28,2.81,1.76,5.9,3.34,8.55,5.34,2.11,1.6,3.14,3.05,5.85,3.64,4.1.88,8.47.61,12.63.61,7,0,13.33,1.05,20.2,2.18,3.4.56,7.51,1.92,10.83,2,2.45.11,3.45-1.1,5.58-2.58,4.26-3,9.49-4.91,14.1-7.24,5.05-2.56,9.76-5.77,15.08-7.82,5-1.92-5.5,23.4-5.56,23.71-.57,2.88-2.47,6.91-2.1,9.79.21,1.66,1.38,3.63,1.54,5.41a67.86,67.86,0,0,1-1.26,18.34c-1.27,7-4.71,13.34-8.84,19-5,6.8-12.49,12.55-11.38,21.92.54,4.52,1.34,9,1.33,13.65,0,7.43-.11,14.8-.48,22.2-.23,4.67-.32,9.3-.32,14,0,6.3.07,11.56,1.77,17.7a99.83,99.83,0,0,0,6.35,17.24c6.52,13.42,23.41,30.79,35.14,39.83a157,157,0,0,0,14.37,9.7,57.56,57.56,0,0,1-3.66-6.24c-6.92-13.27-15.65-29.51-15.29-44.89.34-14.51,11.8-24.73,16.3-37.83,1.1-3.18,0-6.75.72-10,.78-3.62,3.62-6,3.53-9.86a25.72,25.72,0,0,0-6.2-.09c-1.84.18-3.71,1.53-5.53,1.37.71-2.34,2-3.55,3.62-5.36,1.87-2,5.48-3.65,6.51-6.37.68-1.84-.39-3.64-.46-5.57a7.58,7.58,0,0,1,1-3.55c.55-1,1.73-1.69,2.13-2.72.71-.3,1.33-1.09,2.21-1v.27c.49.3.44.08.68.6,2.8,1.16,2.25-7.49,2.93-9,1.7-3.65,3,1.83,4,2.94,1.06-3.29-1-8.59,2.19-11,.94,2.33.83,6.68,3.61,7.93.49-2.35,3.09-8.22,4.62-9.94,4.73-5.28,3.8.51,4,4.34,1.61-1.1,3.09-3.8,4.93-5.35a13.3,13.3,0,0,1-.36,5.17c.34-1.23,4-4,5.1-4.62s3.13-1,4,.5-.79,3.4-1,5c.2-1.24,4.59-1.76,5.48-1.92.65-.12,2.17-.54,2.64.19s-.54,1.34-.62,2c-.19,1.48.31,1,1.28,2,3.14,3-2.28,7.36-4.35,9.19-1.53,1.37-2.49,3.17-4.33,4.21s-4.18,1.23-6.34,1.4c3.63-.28,17.44,13.56,20.08,16.12,10.69,10.39,13.23,23.09,21,34.71,2.64,3.93,6.05,8.13,10.71,9.76,12.24,4.26,23.91-2.63,35-4.83,4.84-1,2.93.26,5-4.1a31.39,31.39,0,0,0,2.41-7.9c1.34-7.14,3.6-13.7,5.83-20.58,3.49-10.8,11-17.09,19.21-24.66,4.4-4.05,6.63-6.89,12.64-8.32a48.84,48.84,0,0,1,16.24-1.07c21.81,2.1,34,13.8,47,30.05,4.79,6,6.5,13.51,7.07,21s.81,15.31-1.26,22.51c0-2.65-.24-7.19-2.28-8.68a32.8,32.8,0,0,0-1.75,9.09,4.58,4.58,0,0,1-1.46-3c-.73.47-1.94,5.76-2.41,7-.94,2.5-1.72,5.26-3.25,7.46-.69-7.4.55-14.88-.08-22.37a51.67,51.67,0,0,0-1.08-8.9c-.76-2.88-2.83-5.39-4.36-7.9-2.1-3.43-4.92-6.48-8.88-7.87-2-.7-3.43-.61-4.3-.05-2.87,1.82,3.58,6.22,4.8,8.11a21.54,21.54,0,0,1,3.54,12c-1.64-1.62-5.48-2.51-7.7-2.41.41,1.07,2,1.56,2.25,2.9-1.77.34-3.64-.49-5.48-.39.07,2.75,1.24,5.13,2.24,7.57,3.74,9.13,2.24,21.3,0,30.58-1.24,5-3,10.27-6.25,14.43-1.73,2.26-3.89,3.27-6,5.07-2.84,2.41-5,5.49-7.66,8.12-6.38,6.43-11.81,13-19.24,18.18-7.62,5.34-15.63,10.1-23.57,14.94-15.67,9.54-31.91,19.53-43.27,34.29a12.42,12.42,0,0,0-2.9,7.79c-.4,5.07-.72,10.24,3.29,13.58,3.42,2.86,8.63,3.14,11.84,6.31-3.23.22-6.76-.31-9.73.67-.44-.33-1,2.1-1.59,5.23,12.86,13.51,42.39,42.48,51.53,34.61,2.45-2.12,4.82-7.59,9.72-20.28,4.84,8.18,6.08,19.57,9.7,29.5l3.59,1.78c1.87-2.73,4.31-5.4,5.53-7.85,1.18,5.09,5,9.74,7.68,14.59,2.11,1.11,4.17,2.25,6.26,3.37,2.71-1.14,5.8-2.25,7.25-3.37a21.48,21.48,0,0,0,4.64,9.89c7.81,4.38,15.47,8.84,22.9,13.4a632.36,632.36,0,0,0,33.87-204.77C1383.31,372.07,1099.86,88.62,750.21,88.62Zm296.49,321a97.36,97.36,0,1,1,97.36-97.36A97.36,97.36,0,0,1,1046.7,409.57Z"/><path class="cls-1" d="M1171.82,249.3c-.39.49-.77,1-1.09,1.45-2,3-5.91,11.1-7.69,12.61s-10.27,3.64-13.31,1c-1.87-1.63-1.26-2.7-1-3-.09.07-.24.17-.5.33-2,1.13-9.17,3.12-11.5,4.43a19.88,19.88,0,0,0-4.7,4.45,8.53,8.53,0,0,0,2.42,1.81c1.09.4,2.77-.84,5.59,3.28s-1,43.12-3,48.83-3.77,3.55-5.18-1.88-.91-19.46,1.19-25.17.58-17.66.81-19.12-4.67-6.64-4.67-6.64-9.32,8.63-10.6,8.77-4.39,2.72-4.39,2.72-.27,3.29-.5,4.75-2.06,15-2.14,17.71-4.1,28.1-4.7,33.13-10.71,22.59-11.61,25-9.8,22.63-11.85,24-7.58-1.22,5.86-22.83S1107,324.9,1108,320.34s.48-23.25,1.3-26.34,2.33-8.09,2.33-8.09l-3.81,2-3.32,4-3.09-.82-7.58,5.55s2.07,7.85,2.29,9.78,1.66,19.1,3.35,27.11-3,15.87-7.07,16.85-8.13-7.28-9-14.09,4.71-14.62,7.84-24.88,1.9-12,.5-14-7,2.1-8.54,4a9.65,9.65,0,0,0-2,3.88l-3.3,3.12s-1.4-2.06-1-3.15-2.06-2-2.06-2l-3.17,1.93s-2.16,5.07-2.95,7.24-14.88,14.6-17.41,16.46-8.11-4.81-5.09-11.42,5.23-6.72,4-7.48-9.79-.19-9.79-.19l-6.2,1.75s-7.18,4.46-8.69,6.07-43.3,21.5-55.18,27-10.2,4.29-8.88-.16,9.09-10.56,19.87-15.57,50.19-19.28,50.19-19.28,5.15-.59,4.46-2.07-4.38-2.79-7-.38-5.46,4.79-6.27,4.49a11.73,11.73,0,0,0-5.87,0c-2.39.66-26.57,3.56-30.4,3.08a55,55,0,0,1-19.89-6.33c-8.48-4.64-5-11.69-5-11.69s3.52-1.18,12-.85,9.55,2.56,15.31,2.82,17,2.49,22.25,4.11,8.2,4.53,10.31,4.69,4.89-1.61,7.67-2.44,7.22.47,4.16-1.26c-.79-.45-3.62-2.75-7.43-6a147.43,147.43,0,0,1-13.67-6.36c-7.63-4.09-8.06-7.87-6.13-10.7-6.33-5.52-11.47-10.07-12.23-10.8-2.05-2-17.27-17.71-22.4-27.29s1.89-8.57,6.42-6.6S989.1,249.19,997.7,256c3.31,2.63,10.4,10.88,17.87,20,3.64,1.27,14.13,8.13,17.35,11,3.49,3.12,15.94,16.3,15.94,16.3l5.32,3.17s2,.43,2.36-2.22-3.86-9.73-6.27-18.32,0-7.69,2.48-6.8,9.72,25.75,9.72,25.75l10.12-4.94-3.65-3.49s-4.89-8.57-8-13.69c-.72-1.2-2.3-4.73-4.28-9.45-6.94-3.54-13.11-7.38-16.14-10.64-3.93-4.25-.3-5.49,5.1-5.49-6.51-7.51-11.77-13.91-12.74-15.81-2.69-5.29-5.25-15.17.48-10.61,1.63,1.3,6.34,6.78,12.24,14-3.19-9-5.4-16.44-4.71-17.69,1.84-3.33,2.85-3.58,3,2.66.07,2.31,3.83,12.09,8.53,23.47,1.33,1.65,2.68,3.32,4,5,3,.46,5.42,1,6.21,1.17,3.09.82,18,9,18,9a55.39,55.39,0,0,1-4.17-4.61c-.8-1.21-5.1-4.63-7.15-6.61s-.66-2.4-.09-3.12,5,1.52,9.87,4.22,10.92,8.92,13.51,11.1,4.93,7.65,7.07,9.36,8.54,2.81,8.54,2.81,6.31-2.94,7.72-4.27,4.85-3.17,7.4-5.93a62.16,62.16,0,0,1,6-5.51s-1.85-2.54-2.47-3.37-10-5.5-14.34-8-15.3-9.59-17.79-12-1.83-3.45,1-3.64,8.51,3.72,12.22,5.38,21.85,17.85,21.85,17.85,2.76,2.55,4.25,1.85,3.24-1.27,3.81-2,7.85-5.46,7.85-5.46l.66-6.85s-.39-5.07-3.61-5.32c-1.55-.12-9.15-4.44-16.63-8.91l-.53.17c-2.13.78-13.17,2.29-14.08,2.26s-7.13-.74-11.23-1.31-3.86-3-3.86-3,2.83-2.66,4.93-2.51c1,.07,7.56-.7,15.09-1.51-3.71-2.29-6.33-3.93-6.33-3.93s-14.21-9.2-16.13-19.14a4.8,4.8,0,0,1,0-1.87,18.73,18.73,0,0,1-2.07-.76c-2.63-1.26-11.6-4.53-17.15-6.25s-17-5.62-17-5.62a33.86,33.86,0,0,1,9.07-.38c5.4.43,16.85,3.68,23.87,4.71,4.25.61,14,4.95,26.89,9.95,1.35,1.06,4.43,3.18,7.16,5.1,1.39.3,1.8,1.41,2.51,1.8.86.47,2,2.07,3.27,2.44C1130.56,215.56,1165.69,243.63,1171.82,249.3Z"/><path class="cls-5" d="M562,772h11.17v47.88h14.66v9.45H562Z"/><path class="cls-5" d="M622.75,804.15H609.69v15.54h14.74v9.67H598.52V772h24.94v9.67H609.69v13.18h13.06Z"/><path class="cls-5" d="M636.33,772.88A61.55,61.55,0,0,1,649,771.77c5.31,0,10.56.69,14.5,4.05,3.07,2.6,4.34,6.43,4.34,10.45a13.35,13.35,0,0,1-8.29,12.51v.3c6.63,1.9,10.15,7.38,10.15,13.69a15.75,15.75,0,0,1-4.2,11.26c-3.42,3.72-9.24,5.78-18.83,5.78a71.82,71.82,0,0,1-10.36-.64Zm11.11,22.71h2.39c4,0,7.09-3.38,7.09-8,0-4.21-2-7.46-6.53-7.46a9.09,9.09,0,0,0-2.95.36Zm0,25.44a10.82,10.82,0,0,0,2.48.21c4.55,0,8.26-2.8,8.26-8.61s-3.92-8.75-8.33-8.76h-2.41Z"/><path class="cls-5" d="M705.89,804.15H692.83v15.54h14.74v9.67H681.66V772H706.6v9.67H692.83v13.18h13.06Z"/><path class="cls-5" d="M719.47,829.36V772H729.7l8.82,22.49c1.74,4.41,4.53,11.75,6.14,16.71h.17c-.4-6-1.13-16-1.13-26.53V772h9.79v57.33H743.26l-8.7-21.81a160.66,160.66,0,0,1-5.85-17.22h-.17c.32,5.77.73,14.61.73,26.14v12.89Z"/><path class="cls-5" d="M766.33,817.93a21.24,21.24,0,0,0,9.44,2.25c5.25,0,7.88-2.73,7.88-6.51,0-4.09-2.6-6.19-7.46-9.29-7.83-4.81-10.8-10.82-10.8-16,0-9.21,6.11-16.83,18.12-16.83a19.45,19.45,0,0,1,9,2.06l-1.78,9.59a13.67,13.67,0,0,0-7.29-2c-4.78,0-7.07,2.89-7.07,5.92,0,3.44,1.73,5.25,7.89,9,7.6,4.56,10.36,10.37,10.36,16.38,0,10.53-7.73,17.39-18.91,17.39-4.63,0-9.08-1.16-11-2.3Z"/><path class="cls-5" d="M816.61,772v23h11.62V772H839.4v57.33H828.23v-24H816.61v24H805.44V772Z"/><path class="cls-5" d="M868.82,830c-13,0-18.1-13.75-18.1-29.48s6.23-29.21,18.92-29.21c13.82,0,17.73,15.2,17.73,28.34,0,21.61-7.68,30.35-18.47,30.35Zm.36-9.69c4.72,0,6.49-8.53,6.49-20.12,0-10.13-1.54-19.19-6.58-19.19s-6.91,9-6.85,19.39c-.13,11.39,2,19.92,6.85,19.92Z"/><path class="cls-5" d="M898.69,772h24.93v9.67H909.86v14.74h12.93v9.27H909.86v23.65H898.69Z"/></svg>