<?xml version="1.0" encoding="UTF-8"?>
<svg id="Ebene_1" xmlns="http://www.w3.org/2000/svg" xmlns:serif="http://www.serif.com/" version="1.1" viewBox="0 0 2400 558.23">
  <!-- Generator: Adobe Illustrator 30.4.0, SVG Export Plug-In . SVG Version: 2.1.4 Build 226)  -->
  <defs>
    <style>
      .st0 {
        fill: #008c44;
      }
    </style>
  </defs>
  <path class="st0" d="M1171.03,165.71c0,9.09-7.38,16.47-16.5,16.47s-16.48-7.38-16.48-16.47,7.38-16.5,16.48-16.5,16.5,7.38,16.5,16.5Z"/>
  <path class="st0" d="M503.38,3.28s-.73.29-2.09.88c.4-.13.8-.23,1.2-.34.54-.32.89-.53.89-.53Z"/>
  <path class="st0" d="M647.53,464.15c-17.67,0-34.6-2.95-50.8-8.83-16.19-5.9-30.33-14.73-42.39-26.51l9.13-12.44c1.05-1.41,3.05-1.7,4.44-.62,0,0,22.64,17.47,35.88,22.78,13.26,5.31,27.83,7.94,43.73,7.94,20.02,0,36.13-4.2,48.35-12.59,12.22-8.39,18.33-20.1,18.33-35.11,0-7.06-1.55-13.03-4.63-17.89-3.11-4.87-7.74-8.97-13.92-12.37-6.19-3.38-13.85-6.4-22.97-9.05-9.13-2.65-19.73-5.46-31.8-8.4-12.96-2.94-24.21-5.89-33.78-8.83-9.58-2.93-17.45-6.48-23.65-10.6-6.17-4.13-10.81-9.14-13.9-15.02-3.09-5.88-4.63-13.41-4.63-22.53,0-11.49,2.2-21.49,6.62-30.05,4.42-8.54,10.53-15.61,18.34-21.19,7.79-5.6,16.78-9.8,26.94-12.6,10.17-2.79,20.98-4.19,32.48-4.19,17.94,0,33.84,3.02,47.69,9.06,13.84,6.04,24.58,13.77,32.24,23.19l-10.06,9.69c-1.27,1.24-3.38,1.28-4.7.11,0,0-15.19-13.35-27.41-17.75-12.22-4.43-25.26-6.64-39.09-6.64-8.54,0-16.55.89-24.06,2.66-7.52,1.77-14.07,4.56-19.67,8.39-5.59,3.84-10,8.76-13.26,14.8-3.24,6.04-4.84,13.17-4.84,21.43,0,6.78,1.1,12.21,3.3,16.34,2.22,4.13,5.75,7.65,10.6,10.6,4.86,2.95,11.12,5.53,18.77,7.72,7.65,2.2,16.78,4.65,27.38,7.3,14.42,3.54,27.24,6.92,38.43,10.17,11.19,3.23,20.53,7.21,28.05,11.91,7.5,4.72,13.24,10.32,17.23,16.81,3.97,6.47,5.96,14.73,5.96,24.73,0,20.61-8.03,37.04-24.07,49.26-16.07,12.22-37.48,18.33-64.26,18.33Z"/>
  <path class="st0" d="M997.42,459.73c-1.77,0-3.66-1.37-4.21-3.05l-63.35-190.94c-.55-1.67-1.45-1.67-2.01,0l-63.35,190.94c-.56,1.68-2.45,3.05-4.2,3.05h-16.57c-1.77,0-3.68-1.37-4.27-3.02l-79.13-223.68c-.59-1.65.37-3.01,2.13-3.01h17.01c1.76,0,3.67,1.35,4.26,3.02l68.11,195.39c.58,1.67,1.5,1.66,2.03-.02l62.96-195.34c.55-1.68,2.43-3.05,4.19-3.05h15.69c1.76,0,3.64,1.37,4.17,3.05l62.96,195.34c.55,1.68,1.46,1.68,2.04.02l68.11-195.39c.59-1.67,2.5-3.02,4.26-3.02h16.57c1.76,0,2.72,1.35,2.13,3.01l-79.13,223.68c-.59,1.65-2.52,3.02-4.27,3.02h-16.12Z"/>
  <path class="st0" d="M1146.69,459.73c-1.76,0-3.2-1.44-3.2-3.21v-223.31c0-1.76,1.44-3.2,3.2-3.2h15.69c1.75,0,3.19,1.44,3.19,3.2v223.31c0,1.76-1.44,3.21-3.19,3.21h-15.69Z"/>
  <path class="st0" d="M1306.9,464.15c-17.67,0-34.6-2.95-50.8-8.83-16.2-5.9-30.33-14.73-42.39-26.51l9.14-12.44c1.04-1.41,3.04-1.7,4.42-.62,0,0,22.65,17.47,35.89,22.78,13.26,5.31,27.83,7.94,43.73,7.94,20.01,0,36.14-4.2,48.35-12.59,12.23-8.39,18.34-20.1,18.34-35.11,0-7.06-1.55-13.03-4.64-17.89-3.09-4.87-7.72-8.97-13.91-12.37-6.18-3.38-13.85-6.4-22.97-9.05-9.13-2.65-19.73-5.46-31.8-8.4-12.97-2.94-24.22-5.89-33.8-8.83-9.56-2.93-17.43-6.48-23.62-10.6-6.2-4.13-10.83-9.14-13.92-15.02-3.08-5.88-4.63-13.41-4.63-22.53,0-11.49,2.2-21.49,6.63-30.05,4.4-8.54,10.51-15.61,18.32-21.19,7.8-5.6,16.79-9.8,26.94-12.6,10.17-2.79,20.99-4.19,32.46-4.19,17.96,0,33.87,3.02,47.7,9.06,13.84,6.04,24.58,13.77,32.25,23.19l-10.07,9.69c-1.26,1.24-3.39,1.28-4.7.11,0,0-15.19-13.35-27.41-17.75-12.23-4.43-25.26-6.64-39.09-6.64-8.55,0-16.57.89-24.07,2.66-7.51,1.77-14.05,4.56-19.65,8.39-5.6,3.84-10.02,8.76-13.24,14.8-3.25,6.04-4.87,13.17-4.87,21.43,0,6.78,1.11,12.21,3.31,16.34,2.2,4.13,5.75,7.65,10.6,10.6,4.86,2.95,11.12,5.53,18.77,7.72,7.65,2.2,16.78,4.65,27.38,7.3,14.43,3.54,27.24,6.92,38.43,10.17,11.17,3.23,20.55,7.21,28.05,11.91,7.5,4.72,13.24,10.32,17.23,16.81,3.97,6.47,5.97,14.73,5.97,24.73,0,20.61-8.04,37.04-24.09,49.26-16.04,12.22-37.46,18.33-64.25,18.33Z"/>
  <path class="st0" d="M1519.34,464.15c-17.67,0-34.6-2.95-50.8-8.83-16.19-5.9-30.33-14.73-42.39-26.51l9.14-12.44c1.05-1.41,3.04-1.7,4.43-.62,0,0,22.64,17.47,35.88,22.78,13.26,5.31,27.83,7.94,43.74,7.94,20.02,0,36.14-4.2,48.35-12.59,12.23-8.39,18.34-20.1,18.34-35.11,0-7.06-1.56-13.03-4.64-17.89-3.09-4.87-7.74-8.97-13.91-12.37-6.18-3.38-13.85-6.4-22.97-9.05-9.14-2.65-19.74-5.46-31.8-8.4-12.96-2.94-24.22-5.89-33.78-8.83-9.58-2.93-17.45-6.48-23.63-10.6-6.18-4.13-10.83-9.14-13.91-15.02-3.11-5.88-4.64-13.41-4.64-22.53,0-11.49,2.2-21.49,6.62-30.05,4.42-8.54,10.54-15.61,18.34-21.19,7.79-5.6,16.78-9.8,26.94-12.6,10.17-2.79,20.98-4.19,32.47-4.19,17.96,0,33.86,3.02,47.69,9.06,13.83,6.04,24.58,13.77,32.23,23.19l-10.05,9.69c-1.27,1.24-3.38,1.28-4.71.11,0,0-15.2-13.35-27.41-17.75-12.22-4.43-25.25-6.64-39.09-6.64-8.54,0-16.56.89-24.07,2.66-7.5,1.77-14.06,4.56-19.66,8.39-5.59,3.84-10.01,8.76-13.24,14.8-3.25,6.04-4.86,13.17-4.86,21.43,0,6.78,1.1,12.21,3.31,16.34,2.21,4.13,5.74,7.65,10.6,10.6,4.86,2.95,11.12,5.53,18.78,7.72,7.65,2.2,16.77,4.65,27.37,7.3,14.43,3.54,27.24,6.92,38.43,10.17,11.19,3.23,20.53,7.21,28.04,11.91,7.51,4.72,13.26,10.32,17.23,16.81,3.97,6.47,5.97,14.73,5.97,24.73,0,20.61-8.03,37.04-24.08,49.26-16.05,12.22-37.46,18.33-64.26,18.33Z"/>
  <path class="st0" d="M1755.73,459.73c-1.77,0-3.71-1.35-4.35-2.99l-86.04-225.05c-.62-1.64.29-2.99,2.05-2.99h43.95c1.76,0,3.67,1.35,4.24,3.02l63.71,183.91c.58,1.65,1.53,1.66,2.12,0l64.58-183.93c.57-1.65,2.5-3,4.26-3h39.54c1.75,0,2.67,1.35,2.04,2.99l-86.05,225.05c-.62,1.64-2.57,2.99-4.32,2.99h-45.72Z"/>
  <path class="st0" d="M2089.84,326.76c1.77,0,2.95-1.41,2.65-3.15,0,0-2.74-15.55-6.73-23.79-3.97-8.24-9.05-15.24-15.25-20.99-6.17-5.74-13.39-10.23-21.63-13.48-8.26-3.24-16.94-4.86-26.06-4.86s-17.73,1.62-25.84,4.86c-8.09,3.25-15.23,7.74-21.42,13.48-6.18,5.75-11.18,12.74-15.01,20.99-3.84,8.24-6.18,17.23-7.07,26.94h136.37ZM2022.82,464.15c-17.96,0-34.3-3.16-49.03-9.49-14.72-6.33-27.31-14.95-37.76-25.85-10.44-10.89-18.54-23.55-24.29-37.99-5.74-14.43-8.6-29.73-8.6-45.94s2.86-31.59,8.6-46.16c5.76-14.57,13.85-27.39,24.29-38.44,10.45-11.05,23.04-19.72,37.76-26.06,14.73-6.31,31.21-9.49,49.48-9.49s34.23,3.25,48.79,9.73c14.59,6.47,27.01,15.09,37.34,25.83,10.28,10.76,18.16,23.27,23.61,37.56,5.45,14.29,8.17,29.23,8.17,44.83,0,3.55-.14,6.86-.43,9.95-.3,3.1-.6,5.67-.89,7.73h-181.86c-1.77,0-2.95,1.42-2.66,3.15,0,0,2.78,16.44,6.76,24.68,3.96,8.26,9.11,15.39,15.44,21.42,6.33,6.04,13.53,10.67,21.65,13.92,8.1,3.23,16.55,4.85,25.4,4.85,6.47,0,12.87-.81,19.21-2.42,6.33-1.62,12.14-3.98,17.43-7.07,5.31-3.09,10.01-6.85,14.14-11.26,4.13-4.42,7.35-9.28,9.72-14.58l38.44,11.04c1.69.49,2.27,2.09,1.29,3.54,0,0-19.36,28.92-37.74,39.97-18.41,11.06-39.82,16.57-64.27,16.57Z"/>
  <path class="st0" d="M2287.82,422.62c7.35,0,14.41-1.24,21.2-3.75,6.76-2.5,13.02-5.89,18.77-10.15,5.74-4.27,10.66-9.14,14.81-14.58,4.11-5.45,7.06-11.28,8.83-17.45v-57.32c0-1.77-.7-4.46-1.57-6,0,0-13.45-23.94-25.82-33.22-12.37-9.28-25.63-13.91-39.75-13.91-10.6,0-20.08,2.29-28.49,6.85-8.38,4.58-15.53,10.6-21.41,18.11-5.89,7.51-10.46,15.98-13.69,25.4-3.25,9.42-4.86,19.15-4.86,29.16,0,10.61,1.84,20.54,5.51,29.82,3.69,9.26,8.77,17.37,15.24,24.29,6.49,6.92,14.07,12.44,22.75,16.56,8.69,4.13,18.18,6.18,28.49,6.18ZM2271.91,461.94c-15.62,0-29.81-3.15-42.63-9.49-12.8-6.33-23.85-14.95-33.11-25.84-9.29-10.9-16.5-23.42-21.66-37.55-5.15-14.16-7.72-29.01-7.72-44.62,0-16.5,2.57-32.04,7.72-46.61,5.16-14.58,12.44-27.24,21.87-37.99,9.42-10.76,20.68-19.29,33.78-25.64,13.1-6.31,27.6-9.49,43.51-9.49,18.84,0,35.18,4.42,49.03,13.26,13.84,8.82,25.31,20.31,34.44,34.45v-40.54c0-1.76,1.44-3.19,3.2-3.19h36.44c1.77,0,3.2,1.43,3.2,3.19v218.02c0,1.75-.14,4.63-.31,6.39,0,0-2.78,28.46-8.96,41.43-6.19,12.96-14.8,23.92-25.83,32.91-11.04,8.98-24.09,15.81-39.1,20.53-15.03,4.71-31.22,7.07-48.57,7.07-25.63,0-46.83-4.34-63.6-13.03-16.79-8.68-31.08-20.82-42.86-36.45l25.05-23.43c1.28-1.19,3.31-1.12,4.52.17,0,0,18.07,19.44,32.05,25.92,13.97,6.48,28.93,9.71,44.84,9.71,9.99,0,19.5-1.32,28.47-3.97,8.97-2.65,16.86-6.78,23.63-12.37,6.77-5.6,12.15-12.66,16.12-21.19,3.99-8.56,5.97-18.71,5.97-30.49v-32.14c0-1.77-.89-2.05-1.97-.69,0,0-17.62,22.53-32.04,30.18-14.42,7.66-29.58,11.48-45.49,11.48Z"/>
  <path class="st0" d="M518.38,1.04c-.47-.81-1.41-1.22-2.3-.97-4.59,1.25-9.11,2.49-13.6,3.74-.4.11-.8.22-1.2.33-26.44,7.33-51.14,14.65-73.58,21.76-54.72,17.39-119.38,43.41-133.82,90.87-6.6,21.72-1.83,46.25,14.09,73.16,2.63-4.08,5.23-8.16,7.83-12.2,5.18-8.29,10.86-16.1,16.18-23.85,2.73-3.84,5.62-7.52,8.37-11.21,2.76-3.7,5.48-7.33,8.41-10.76,2.86-3.47,5.67-6.89,8.45-10.27,2.88-3.28,5.78-6.46,8.6-9.61,1.43-1.57,2.8-3.13,4.22-4.66,1.46-1.48,2.9-2.96,4.34-4.41,2.88-2.91,5.59-5.82,8.45-8.53,11.29-10.9,22.35-20.15,32.52-27.8.49-.37.97-.7,1.46-1.06,9.62-7.12,18.54-12.73,26.09-16.99.52-.27,1.01-.55,1.5-.82-7.03,5.74-14.33,12.09-21.75,19.06-1.53,1.42-3.07,2.86-4.63,4.32-1.5,1.5-3.02,3.02-4.56,4.54-3.05,3.08-6.24,6.16-9.35,9.41-6.14,6.57-12.58,13.3-18.71,20.64-6.34,7.16-12.43,14.89-18.73,22.73-3.18,3.88-6.07,8.07-9.16,12.16-2.99,4.14-6.24,8.21-9.13,12.56-5.9,8.6-12.07,17.25-17.73,26.37-2.86,4.54-5.84,9.06-8.69,13.69-1.68,2.81-3.35,5.64-5.03,8.48-.22.36-.42.72-.64,1.08,0,.01.02.03.03.04-5.81,10.63-11.39,21.47-16.81,32.4-4.39,8.82-8.34,17.82-12.51,26.71-4.02,8.94-7.72,17.98-11.51,26.9-7.15,18.01-13.9,35.86-19.75,53.35-3.12,8.69-5.77,17.36-8.4,25.84-2.6,8.48-5.35,16.74-7.52,24.91-2.27,8.14-4.47,16.06-6.62,23.72-2.1,7.67-3.74,15.16-5.52,22.33-.41,1.79-.85,3.47-1.27,5.2-2.98-13.52-6.34-28.12-9.94-43.57-1.83-7.74-3.51-15.72-5.61-23.81-2.26-8.06-4.56-16.28-6.89-24.65-2.34-8.38-4.73-16.88-7.13-25.48-1.21-4.3-2.43-8.64-3.64-12.97-1.44-4.3-2.88-8.63-4.33-12.97-2.95-8.64-5.91-17.36-8.9-26.11-3.06-8.72-5.78-17.56-9.47-26.13-3.46-8.6-6.95-17.23-10.41-25.82-1.72-4.29-3.45-8.56-5.16-12.82-1.65-4.28-3.84-8.37-5.72-12.54-7.93-16.52-15.03-33.05-23.86-48.17-4.23-7.65-8.23-15.23-12.43-22.49-4.59-7.06-9.07-13.98-13.45-20.7-2.23-3.33-4.21-6.74-6.55-9.87-2.39-3.09-4.72-6.15-7.03-9.15-2.29-2.99-4.56-5.93-6.77-8.82-2.2-2.89-4.36-5.74-6.77-8.32-4.72-5.16-9.23-10.14-13.53-14.85-4.39-4.62-9.02-8.62-13.14-12.5-4.05-3.97-8.33-7.21-12.22-10.22-1.94-1.5-3.81-2.92-5.6-4.3-1.82-1.31-3.68-2.43-5.38-3.55-6.73-4.59-12.4-7.58-16.34-9.42-2-.84-3.54-1.5-4.56-1.93-1.05-.37-1.6-.56-1.6-.56,0,0,.49.3,1.45.88.92.64,2.26,1.57,4.03,2.81,3.37,2.65,8.43,6.33,14.14,11.9,1.45,1.37,3.02,2.72,4.56,4.27,1.5,1.61,3.05,3.3,4.67,5.06,3.24,3.52,6.93,7.07,10.3,11.48,3.43,4.33,7.29,8.69,11.02,13.59,3.59,5,7.36,10.29,11.3,15.78,2.07,2.66,3.87,5.61,5.74,8.61,1.87,2.97,3.77,6.01,5.71,9.1,1.94,3.08,3.91,6.2,5.91,9.38,2.02,3.16,3.71,6.62,5.62,9.98,3.74,6.78,7.58,13.74,11.51,20.86,3.68,7.27,7.19,14.83,10.89,22.43,7.76,14.98,13.83,31.51,20.67,47.88,1.61,4.16,3.52,8.19,4.92,12.46,1.45,4.25,2.9,8.5,4.38,12.77,2.92,8.52,5.86,17.07,8.8,25.62,3.15,8.48,5.34,17.31,7.88,25.95,2.49,8.68,4.96,17.31,7.42,25.89,1.25,4.26,2.5,8.52,3.74,12.75,1.05,4.3,2.09,8.58,3.12,12.83,2.06,8.5,4.09,16.92,6.07,25.17,2.01,8.26,3.97,16.38,5.89,24.32,1.79,7.98,3.15,15.9,4.67,23.55,2.96,15.32,5.77,29.79,8.51,43.12,1.44,6.65,2.46,13.09,3.4,19.23.98,6.14,1.9,11.95,2.78,17.43,1.74,10.93,3.25,20.47,4.5,28.32,2.6,15.68,4.1,24.64,4.1,24.64l.11.69v.08c.3,1.69.88,3.23,1.6,4.7.03.06.06.13.1.2.44.89.93,1.74,1.51,2.53.18.24.39.49.59.73.46.58.93,1.13,1.45,1.61.43.43.91.82,1.38,1.21.34.26.68.54,1.02.77.72.5,1.5.92,2.3,1.32.15.07.31.14.47.23.98.43,2,.77,3.06,1.03h.02c.53.13,1.02.32,1.55.4,9.74,1.45,18.8-5.27,20.26-14.98l.07-.46s1.42-9.51,3.91-26.09c.62-4.14,1.31-8.75,2.06-13.75.89-4.98,1.86-10.36,2.89-16.12,1.02-5.75,2.12-11.87,3.26-18.32,1.15-6.45,2.69-13.16,4.13-20.21,1.48-7.03,2.93-14.39,4.64-21.94,1.77-7.54,3.59-15.35,5.46-23.36,1.75-8.06,4.09-16.19,6.25-24.56,2.22-8.36,4.43-16.9,7.1-25.48,4.97-17.26,10.76-34.88,16.96-52.69,3.29-8.82,6.38-17.82,9.84-26.71,3.59-8.82,6.99-17.8,10.78-26.57,4.1-9.49,8.33-18.94,12.72-28.24,7.1,1.28,18.97,2.93,33.12,2.93,31.58,0,74.25-8.32,98.23-47.89,20.88-34.44,25.76-69.22,30.06-99.92,4.01-28.55,7.46-53.21,23.4-68.18.67-.63.83-1.66.39-2.47Z"/>
</svg>