<?xml version="1.0" encoding="UTF-8"?>
<svg id="Ebene_1" xmlns="http://www.w3.org/2000/svg" version="1.1" viewBox="0 0 800 800">
  <!-- Generator: Adobe Illustrator 30.4.0, SVG Export Plug-In . SVG Version: 2.1.4 Build 226)  -->
  <defs>
    <style>
      .st0 {
        fill-rule: evenodd;
      }

      .st0, .st1 {
        fill: #e5b969;
      }
    </style>
  </defs>
  <path class="st0" d="M-353.33,1207.83c3.76-2.11,7.61-.02,9.81-.3,5.28-.7,7.69-3.44,11.63-3.6,6.55-.27,28.93,5.37,33.14,2.85,3.55-2.13,8.02,1.02,11.05.95,1.02-.03,2.04-1.82,3.05-2.04,1.54-.34,3.49,1.69,5.52.47,2.27-1.36,2.01,1.16,4,1.5.82.14,2.18-2.01,3.05-2.04,5.29-.19,10.03.25,15.33.17,6.92-.11,13.62-.41,18.1.41.5.09.74,1.17,1.24,1.26.84.14,2.18-2.08,3.05-2.04,4.41.21,8.22.97,11.05.95.51,0,1.02-1.02,1.53-1.02.85,0,1.62,2.46,2.47,2.51,3.5.19,6.79-4.04,8.28.71,2.03-1.36,4.07-2.72,6.1-4.08,13.16,2.46,27.42,1.35,38.67,3.33,4.78.84,10.75.83,13.81,1.19,2.15.25,3.01,2.22,5.24,2.75,3.3.8,8.44-.52,10.76,3.23,1.64-6.59,5.42.86,8.28.71,1.4-.08,5.4-3.01,8.86-3.84.24-.05.97,1.21,1.24,1.26.72.12,2.29-1.88,3.05-2.04.26-.05.95,1.2,1.24,1.26,2.14.36,15.05-9.68,16.78-11.21,1.26-1.12.69-2.46,1.81-3.29,1.37-1.02-.05-1.89.29-2.28,4.3-5.04,8.43-5.91,9.44-8.39,2.23-5.5,6.78-9.41,7.25-13.18.19-1.52.61-3.02.57-4.55,6.53-2.89,4.43-6.52,10.97-9.41-2.79-3.29-.1-7-.09-10.36,0-1.35.83-3.16.58-4.55-.17-.93-2.18-1.6-2.47-2.51-.15-.46,1.79-2.69,1.81-3.29.18-5.32.99-11.08.49-14.91-.28-2.15-.65-3.81-.66-5.81,0-1.46.63-2.91.58-4.55-.06-1.65-1.01-3.07.58-4.55,2.04,2.21,4.34,2.43,6.76,1.73-4.02-3.41-.35-6.16-4.37-9.58,2.27-1.72,2.51-2.36.58-4.55-1.71-1.93-.18-6.38-.37-8.08-.29-2.56-1.7-3.11-3.42-6.05-2.02-3.45,1.04-10.33-5.32-13.11.75-2.62,4.41-4.99,5.15-7.61-3.31-7.19-9.14-14.59-8.45-21.43-6.48-.27-7.79-7.39-12.65-10.29-1.53-.91-7.83,1.58-8-2.99-4.5-1.22-9.77,3.67-14.1,1.09-4.64-3.47,1.88-5.97-4.37-9.58-7.31,3.23-15.21.27-22.38.37-4,.05-7.09,1.11-11.34,1.32-3.46.17-8.34-1.87-11.33,1.33-5.75-3.93-16.06-2.9-20.57-2.92-.84,0-1.63-2.48-2.47-2.51-1.36-.05-4.73,1.63-5.81,1.8-5.86.91-12.82-1.58-16.86.85-3.17,1.89-11.58-.27-15.34-.17-4.65.12-9.68.99-14.1,1.09-3.57.08-7.42-1.61-9.52-1.97-.82-.14-2.18,2-3.05,2.04-1.54.06-3.88-.51-5.52-.47-5.05.11-9.07.08-12.57.07-4.44-.01-11.34-1.49-13.81-1.19-2.84.34-4.81,4.04-7.34,2.82-4.3-2.77-9.45,1.13-13.52-3.46-12.19,4.35-23.56,2.29-34.95.44-6.09.28-12.7,4.7-18.1-.4-2.68.04-6.05-1.16-8.76-1.15-4.85.01-9.44.21-14.26.58-1.86.14-3.91.17-5.8.07-1.17-.06-1.97-.52-3.08-.68-2.72-.39-6.25.04-8.98.02-2.21-.02-5.27-.16-7.3.65-.65.26-1.08.7-1.76.97-2.14.87-5.03.25-6.94-.69-4.39-2.14-8.15-5.43-13.48-5.36-2.64.04-5.29,0-7.93,0-1.56,0-3-.08-4.4.31-.63.18-1.33.59-2.01.79-4.15,1.18-8.3,2.34-12.69,2.65-2.03.14-4.25-.29-6.23.02-.49.08-.88.45-1.32.53-.94.17-1.74.15-2.71.14-2.95-.02-5.84.19-8.72-.41s-5.43-2.05-8.29-2.66c-.66-.14-1.37-.03-2.04-.21-.78-.21-1.39-.81-2.14-1.04-1.54-.47-3.68-.76-5.34-.74-2.83.03-4.95.14-7.73.81-3.09.73-4.55-.12-7.59-.2-2.26-.05-4.79.38-7,.08-2.08-.29-1.07-.88-2.06-2.02-1.83-2.11-8.09.67-10.59.73-8.57.22-17.15-2.83-25.32-.7-8.79,2.29-19.88-.01-26.38-1.12-.84-.14-2.17,2.07-3.05,2.04-4.45-.18-9.26-.91-13.81-1.19-2.43-.15-4.36-1.5-6.76-1.73-3.28-.32-6.97,4.14-8.29-.71-4.14,3.31-7.48.29-11.63,3.6-8.33-4.02-17.91,1.77-26.09-3.39-6.76,5.61-11.99-.85-18.67,4.14-2.26-4.17-5.52-.5-7.99-2.99-10.53,2.97-21.37.95-32.19.68-3.16-.08-8.82-.29-9.81.3-4.07,2.45-5.21-2.55-8.28-.71-2.96,1.77-13.11-.15-15.33-.17-5.72-.05-10.93.93-16.86.85-5.26-.07-11.31-1.33-16.57-1.42-2.43-.04-6,1.55-8.57,1.56-4.8.02-10.47-3.19-13.81-1.19-1.84,1.1-1.45-.34-2.76-.24-2.74.21-5.85,1.7-8.57,1.56-5.46-.28-11.01-1.7-16.28-3.7-5.26,5.79-17.14-.77-21.15,1.63-3.14,1.88-7.13-1.3-9.81.31-1.81,1.08-1.6-.41-2.77-.24-11.18,1.62-18.72-.55-29.14-1.36-7.9-.61-15.68-.48-23.62-.88-3.26,2.26-3.62,5.5-5.15,7.61-1.79,2.46-4.07,3.23-4.86,5.33-.57,1.53,1.07,4.18.66,5.81,3.87-2.36,4.41,3.94,2.18,4.79-9.26,5.72-8.57,12.3-9.35,18.75-3.81,4.33-6.67,1.17-10.1,2.58-.66,7.23,2.06,14.75-6.88,21.26.92,3.53,2.65,7.13.08,10.36-2.54,1.7-5.08,3.4-7.63,5.1.46,4.23-1.92,8.3-2.97,12.4-.76,2.96-.48,6.43-2.39,7.85-2.07,1.54,1.16,4.09.66,5.81-3.93,1.96-5.65,4.12-6.39,6.35.88,6.98-.89,13.73,2.93,20.96-1.68,3.69-2.52,7.45-4.2,11.14,6.01,7.8.29,14.59,6.93,22.45-.22,3.05-6.93,5.54-3.91,8.87,6.4-2.81,11.11,7.75,16.65,11.79,3.25-1.54,6.64-.28,9.81-.31,3.16-.02,11.37-1.16,12.57-.06,1.52,1.39,1.27.09,2.76.23,4.21.41,8.38-.63,11.34-1.32,2.26-.53,3.51-.34,5.81-1.8,5.43,4.09,13.22,1.53,19.33,1.66,1.25.02,2.72,1.42,4,1.49,2.07.11,3.65-1.79,5.81-1.8,3.8-.02,7.17,1.73,11.05.95,5.65-.1,11.13-.91,16.86-.85,2.62.02,5.37.52,8.28.71.46.03.77,1.18,1.24,1.26.84.14,2.17-2.06,3.05-2.04.87.02,1.59,2.44,2.47,2.51.94.08,2.09-2.04,3.05-2.04,4.62,0,16.04,1.64,18.1.4,2.92-1.75,6.24.36,8.29.71.76.13,2.24-1.92,3.05-2.04,1.13-.16,4.21.45,5.53.48,3.91.08,6.86.6,11.05.95,1.83.15,3.68.31,5.52.47,2.07.18,4.75,1.72,6.76,1.73,1.45,0,3.13-2.77,4.57-3.06,1.69-.34,3.5,2.45,5.23,2.75.72.12,2.28-1.88,3.05-2.04.26-.05.95,1.21,1.24,1.26.83.14,2.18-2.02,3.05-2.04,4.32-.09,9.7,2.29,12.28,2.21,2.2-.07,3.81-1.81,5.81-1.8,7.91.04,16.27.91,22.09,1.9.81.14,2.2-1.98,3.05-2.04,1.07-.08,2.83,1.53,4,1.5,2.23-.07,3.76-1.85,5.81-1.8,8.37.18,15.56,2.45,23.33,3.16,3.29-3.92,5.69-.87,8.86-3.84,3.38,4.42,5.67,1.28,8.28.71.57-.13,3.24,1.49,4,1.49,4.68.04,9.53-1.31,14.1-1.09,9.26.46,18.21,2.4,27.33,4.65,3.43-1.41,6.29,1.75,10.1-2.58,4.07,4.59,9.22.69,13.52,3.47,7.4-3.27,14.18-1.77,20.57,2.92,7.96,0,14.63,1.92,22.59,1.92,1.42,0,3.46.22,4.93.01,1.61-.23,2.14-.81,3.47-1.79s2.08-1.62,3.71-1.08c.7.23,1,.72,1.8.91.68.16,1.41.04,2.1.04,1.61,0,3.27.09,4.87-.06,1.86-.17,3.27-.97,5.01-1.26,3.47-.58,7.08.59,10.49.69,4.38.13,8.47,1.03,12.77,1.3,2.52.15,5.14-.03,7.67-.03,1.45,0,3.05-.18,4.46.05,1.54.24,2.94.99,4.57,1.18,5.13.6,10.12.7,15.33.7,1.77,0,3.76.2,5.53.01,1.25-.13,1.6-.44,2.69-.92,1.28-.56,2.18-.15,3.44-.34.61-.09.97-.42,1.53-.55,2.06-.47,4.33-.08,6.4.16,5.51.63,10.37,3.01,15.77,4.15,4.25.9,8.32,1.59,12.73,1.36,2.6-.14,5.14-.87,7.7-1.19,2.27-.28,4.52-.07,6.74-.45,3.55-.6,7.38-.28,11.05-.32,2.14-.03,3.15.33,5.25.9,1.37.38,1.89.52,3.24.01s2.36-1.73,3.83-2.1c1.07-.27,2.41-.11,3.55-.1,3.15.01,5.92.16,8.95.77,1.1.22,2.07.83,3.16,1.05,1.01.21,2.1-.04,3.07.17,1.04.22.35.26,1.69.24Z"/>
  <path class="st0" d="M1754.4,319.74c-1.93-1.45-3.48-3.26-4.78-4.96-1.29-1.71-2.33-3.31-3.27-4.32-4.51-4.85-7.5-6.28-10.72-10.02-1.34-1.55-3.35-4.17-5.64-7.29-2.26-3.14-4.86-6.76-7.4-10.3-5.1-7.06-10.07-13.74-12.18-15.42-3.61-2.81-5.88-8.17-8.28-11.1-.81-.98-2.31-1.43-3.18-2.35-1.33-1.4-2.07-3.93-4.13-5.55-2.28-1.82-1.1-2.34-2.5-4.41-.58-.85-2.47-1.53-3.16-2.38-4.16-5.16-7.65-9.97-11.77-15.17-5.31-6.84-10.54-13.42-13.62-18.12-.34-.52-.1-1.09-.44-1.61-.58-.88-2.48-1.53-3.14-2.42-3.23-4.48-5.79-8.54-7.92-11.36-.38-.51-1.17-.71-1.55-1.22-.64-.85-.23-2.36-.85-3.23-2.55-3.57-6.72-5.6-5.93-8.51l-6.15-4.95c-1.09-1.75-2.22-3.51-3.38-5.26l-1.75-2.62c-.38-.55-.37-.57-.5-.79l-.32-.53c-.87-1.41-1.78-2.79-2.69-4.14-1.82-2.7-3.57-5.3-4.76-7.84-1.03-2.16-2.74-4.54-3.47-5.86-.51-.93.04-1.85-.38-2.89-.62-1.55-2.62-3.22-1.76-5.23-3.15,1.26-1.2-2.41-2.08-3.51-.43-.54-2.77-1.28-4.1-2.42-.09-.08.22-.74.16-.86-.16-.32-1.41-.37-1.69-.63-.1-.09.23-.73.16-.86-.45-.96-8.19-3.26-9.31-3.52-.81-.19-1.2.43-1.86.22-.8-.26-.76.56-1.01.54-3.28-.29-4.8-1.71-6.1-1.4-2.88.68-5.78-.04-7.46.84-.68.36-1.41.62-2.03,1.07-3.04-1.82-3.93.07-6.98-1.76-.56,2.07-2.85,2.04-4.23,2.99-.56.38-1.53.56-2.03,1.06-.33.33-.04,1.34-.33,1.72-.15.19-1.62.04-1.87.2-2.24,1.44-4.83,2.76-6.26,4.05-.8.73-1.38,1.35-2.2,1.93-.6.42-1.38.57-2.04,1.06-.66.49-.97,1.29-2.03,1.06.32-1.47-.25-2.47-1.23-3.26-.25,2.62-2.43,1.9-2.68,4.52-1.36-.44-1.69-.36-2.04,1.06-.3,1.25-2.57,1.89-3.21,2.46-.97.85-.79,1.59-1.5,3.13-.83,1.82-4.54,2.51-3.85,5.93-1.29.44-3.32-.4-4.61.04-1.99,3.42-3.34,7.95-6.35,9.62,1.77,2.76-.77,5.35-.54,8.2.07.9,2.93,2.8,1.11,4.18.81,2.22,4.34,3.01,4.55,5.55-.06,2.93-2.99.94-2.64,4.58,3.45,2.1,4.61,6.21,6.77,9.15,1.21,1.64,2.55,2.61,3.89,4.3,1.1,1.38,1.71,3.99,3.89,4.3.11,3.52,3.56,7.5,4.93,9.34.25.35-.52,1.4-.27,1.75.39.57,2.08,1.46,2.47,1.85.53.53,1,1.16,1.43,1.81l.63.99.31.49.15.24.14.2.21.3c2.2,3.17,4.3,6.06,6.34,7.81,1.6,1.37,3.77,4.43,5.96,7.6,2.19,3.17,4.35,6.48,5.83,8.41,3.67,4.79,7.91,9.74,11.4,14.29,2.85,3.65,5.21,8.12,6.72,10.4.59.89,2.52,1.64,3.21,2.52,1.24,1.57,2.86,4.15,4.17,5.83,4.03,5.16,7.23,9.26,10.03,12.84,3.54,4.53,8.48,12.03,10.57,14.46,2.42,2.77,5.48,3.62,7.04,6.55,2.4,5.22,8.09,9.2,9.6,14.76,5.8,5.47,10.89,11.17,15.55,17.05,2.34,2.93,4.57,5.92,6.79,8.89l6.61,8.93c5.19,5.96,12.32,11.14,14.95,18.08,2.27,2.63,4.66,6.34,6.94,9.01,4.09,4.78,8.02,9.26,12.29,13.82,1.64,1.77,3.4,3.77,4.97,5.65.97,1.16,1.49,2.1,2.37,3.24,2.17,2.79,5.34,6.1,7.67,8.77,1.9,2.14,4.49,5.15,6.54,6.85.66.55,1.19.82,1.88,1.38,2.17,1.78,4.43,4.78,5.74,6.95,1.49,2.48,2.75,4.91,4.21,7.36,1.48,2.43,3.17,4.88,5.52,7.43,2.31,2.53,4.62,5.07,6.93,7.61,1.36,1.49,2.6,2.91,3.96,4.11.61.54,1.38,1.08,2.04,1.66,4.07,3.57,8.19,7.1,12.18,11.17,1.85,1.88,3.66,4.14,5.52,5.91.46.44.94.68,1.36,1.07.89.83,1.59,1.6,2.44,2.52.51.54,1.02,1.08,1.52,1.62.15.18.28.38.31.63.07.51-.34,1.13-.4,1.51-.01.09.1.13.07.23-.04.11-.3.27-.36.37-.06.1-.1.21-.1.3,0,.08-.01.13.04.17.16.14.31.22.88.33.65.14.18.27.28.43.04.06.17.13.28.2.04.03.13.07.11.1-.04.03-.1.05-.19.08-.33.08-.69-.01-1.55-.07-.78-.06-.71,0-.51.11.21.11.55.3.51.35-.15.19-.76.21-1.13.21-.4.01-.57,0-.35.5.06.14.08.26.07.36,0,.05-.01.1-.03.14.12-.08-.32.28-.58.5l-.88.72c-2.35,1.91-4.8,3.77-7.21,5.54-4.82,3.53-9.49,6.66-12.92,9.01-.88.61-1.54,2.53-2.42,3.21-4.52,3.44-9.55,6.95-14.2,10.43-2.48,1.86-4.83,2.85-7.3,4.65-3.39,2.46-5.7,7.12-8.52,6.26-3.13,4.57-7.41,6.02-10.53,10.59-9.59,4.99-17.38,14.82-27.18,19.25-5.03,7.54-12.27,9.13-17.42,16.36-3.56.15-5.68,4.16-8.93,5.13-9.63,9.48-21.11,17.23-32.03,25.67-3.19,2.46-8.92,6.84-9.73,7.86-3.32,4.17-6.01,3.11-8.52,6.25-2.41,3.03-13.18,10.28-15.41,12.03-5.74,4.49-10.66,8.98-16.62,13.63-5.28,4.12-11.74,8.4-17.03,12.51-2.45,1.9-5.53,5.34-8.1,7.38-4.8,3.79-11.47,7.01-14.2,10.43-1.51,1.89-1.55,1.01-2.84,2.09-2.68,2.24-5.33,5.28-8.1,7.38-5.56,4.2-11.56,8.02-17.45,11.39-3.48,6.42-17.41,13.22-20.67,17.32-2.57,3.22-7.54,5.12-9.73,7.86-.37.46-.66.76-.91.97-.15.12-.19.14-.23.16-.05.02-.1.03-.14.03-.19.01-.39-.04-.59.17-3.89,4.1-7.52,5.57-11.87,8.48-3.29,2.2-6.31,4.66-9.55,6.96-.58,1.9.28,3.28.33,4.58.06,1.52-.6,2.53-.26,3.6.25.78,1.71,1.31,2.06,2.08.79-2.12,2.95.18,2.34,1.21-1.87,5.11.44,7.48,2.13,10.26-.16,2.88-2.26,2.52-3.17,4.14,1.98,3.04,5.37,5.15,3.88,10.48,1.45,1.1,3.25,1.98,3.24,4.04l-1.42,4.36c1.49,1.52,1.82,3.85,2.67,5.79.62,1.4,1.8,2.68,1.49,3.82-.34,1.24,1.72,1.25,2.05,2.08-.94,1.99-.95,3.37-.54,4.47,2.5,2.47,3.9,5.67,7.63,7.33.48,1.97,1.31,3.71,1.8,5.68,4.77,1.2,4.63,5.64,9.67,6.67.86,1.27-1.01,4.32,1.21,4.69,1.65-3.08,6.76-.39,10.19-.52.8-1.61,2.52-2.17,3.76-3.16,1.23-.99,4.11-3.98,4.92-3.92,1.03.07.53-.36,1.16-.76,1.78-1.14,3.1-2.84,4.04-4.03.72-.91,1.28-1.22,1.73-2.51,3.4-.07,5.67-3.49,8.11-5.33.5-.38,1.51-.28,2.03-.65.85-.6.88-1.83,1.73-2.51,1.48-1.18,3.35-1.54,4.63-3.04.69-.61,7.83-6.75,13.21-10.94,2.63-2.06,5.54-4.03,8.52-6.26.47-.35,1.14-.15,1.63-.48.88-.61,1.53-2.52,2.42-3.21.88-.68,2.34-.3,3.25-.96.97-.71,1.46-2.45,2.42-3.21,4.63-3.64,16.57-12.01,18.25-14.12,2.38-2.99,6.36-4.78,8.52-6.26.8-.55,1.65-2.52,2.42-3.21,1.08-.96,4.36-3.15,5.68-4.17,3.94-3.06,7.05-5.18,11.36-8.34,1.89-1.38,3.79-2.78,5.68-4.17,2.12-1.56,5.29-3.07,7.31-4.65,1.46-1.14,2.28-3.56,3.64-4.81,1.58-1.46,4.27-1.8,6.09-3.05.76-.52,1.7-2.54,2.42-3.21.25-.23,1.32-.27,1.63-.48.87-.6,1.55-2.51,2.42-3.21,4.3-3.44,10.42-6.76,12.98-8.82,2.18-1.76,3.26-3.72,5.26-5.29,7.94-6.23,16.57-12.48,22.71-16.68.85-.58,1.59-2.51,2.42-3.21,1.05-.87,3.31-1.63,4.47-2.57,2.21-1.79,3.2-3.69,5.26-5.29,8.43-6.53,16.34-11.31,24.34-17.17,2.08-4.13,5.43-4.83,7.69-8.5,4.75-.93,6.07-3.97,8.52-6.25.54-.5,3.71-1.97,4.46-2.57,4.7-3.67,9.14-8.03,13.79-11.55,9.41-7.12,18.98-13.42,28.81-19.73,3-3.26,6.84-4.28,9.31-8.98,5.5-1.41,9.45-7,14.61-9.3,6.39-7.12,13.66-11.88,21.5-15.08,1.99-1.57,3.94-3.03,5.87-4.43.97-.7,1.92-1.39,2.88-2.07l1.43-1.02.81-.58,1.32-.98c7.04-5.24,14.16-10.54,21.7-16.48,2.68-2.11,6.66-5.1,9.35-7.36,2.94-2.47,3.66-3.39,5.67-5.61,1.99-2.19,3.05-3.43,6.39-5.72,1.44-.98,2.26-1.32,3.86-2.46,1.36-.97,2.66-2.07,3.96-3.09,3.02-2.38,6.18-4.82,9.09-7.2,3.39-2.78,5.51-4.96,8.54-7.53,3.03-2.58,6.42-5.15,9.87-7.72l2.6-1.93,1.3-.96c.1-.08.22-.16.32-.24l.14-.12s-.06-.09-.09-.14l-.51-.56c-1.36-1.49-2.73-2.96-4.13-4.42-7.18-7.48-13.4-14.53-20.45-21.97-4.11-4.35-8.66-8.87-12.85-13.21-2.38-2.47-5.1-5.18-7.3-7.63-2.4-2.68-4.35-5.24-6.96-8.09-4.1-4.48-8.21-8.89-12.38-13.3-2.09-2.2-4.19-4.4-6.3-6.62-.95-1-1.91-2-2.87-3.01-.55-.59-1.1-1.19-1.66-1.78-1.51-1.63-3.14-3.52-4.72-5.08-1.12-1.1-1.53-1.32-2.64-2.16-1.3-.98-1.92-1.95-3.06-3.04-.55-.53-.98-.75-1.51-1.22-1.94-1.73-3.73-3.95-5.41-5.92-4.44-5.3-7.65-10.62-11.78-15.99-3.25-4.23-6.44-8.22-10.18-12.28-2.22-2.39-4.61-4.51-6.86-6.8-1.99-2.03-3.79-4.2-5.79-6.15-3.2-3.1-6.22-6.85-9.26-10.29-1.77-2.01-2.47-3.08-3.98-5.25-.99-1.42-1.36-1.95-2.66-3.06-1.3-1.11-2.59-1.66-3.95-2.93-.98-.92-2.03-2.23-2.96-3.32-2.56-3-4.76-5.69-6.99-8.77-.81-1.12-1.37-2.24-2.17-3.35-.74-1.03-1.73-1.99-2.44-2.98-.76-1.06-.19-.42-1.29-1.69Z"/>
  <path class="st0" d="M1507.22,329.42c-3.13-2.94-4.54-7.11-5.97-9.08-1.72-2.37-3.23-3.94-4.61-5.37-1.37-1.44-2.59-2.75-3.77-4.59-1.96-3.06-5.59-10.24-9.16-17.07-3.46-6.89-6.87-13.43-8.6-15.11-1.46-1.42-2.48-3.4-3.36-5.38-.86-1.98-1.54-3.99-2.39-5.43-.57-.97-1.91-1.51-2.55-2.43-.99-1.4-1.18-3.78-2.82-5.44-1.83-1.85-.6-2.22-1.54-4.22-.39-.82-2.07-1.61-2.56-2.44-2.96-5.06-5.24-9.8-8.11-14.93-1.86-3.35-3.74-6.62-5.35-9.66-1.59-3.05-2.97-5.82-3.95-8.11-.22-.51.14-1-.08-1.5-.37-.86-2.04-1.65-2.47-2.52-2.16-4.38-3.85-8.27-5.23-11.07-.26-.5-.96-.77-1.21-1.28-.42-.84.29-2.16-.11-3.02-1.66-3.5-5.19-5.81-3.81-8.35l-4.87-5.13c-.69-1.7-1.38-3.41-2.08-5.13l-1.08-2.57c-.23-.53-.24-.58-.32-.81l-.22-.57c-.59-1.53-1.23-3.03-1.86-4.5-1.27-2.94-2.51-5.77-3.25-8.43-.64-2.26-1.85-4.88-2.31-6.3-.32-1,.39-1.79.18-2.88-.31-1.62-1.94-3.59-.72-5.4-3.32.66-.71-2.56-1.35-3.78-.32-.6-2.46-1.74-3.54-3.09-.07-.09.36-.68.32-.8-.09-.34-1.32-.61-1.55-.92-.08-.1.36-.66.32-.8-.3-.99-7.37-4.66-8.42-5.11-.76-.33-1.26.19-1.86-.13-.73-.4-.85.4-1.1.34-3.15-.89-4.36-2.55-5.69-2.5-2.95.12-5.64-1.13-7.46-.58-.73.22-1.5.33-2.2.66-2.62-2.35-3.86-.68-6.49-3.04-.95,1.91-3.19,1.44-4.73,2.1-.62.27-1.61.25-2.2.65-.39.26-.3,1.31-.66,1.62-.18.16-1.59-.28-1.87-.16-2.48.98-5.28,1.76-6.94,2.75-.93.56-1.62,1.06-2.53,1.46-.67.3-1.46.29-2.2.64-.74.35-1.2,1.07-2.2.64.6-1.38.24-2.47-.57-3.44-.75,2.51-2.76,1.38-3.51,3.9-1.25-.7-1.59-.69-2.21.64-.54,1.17-2.89,1.35-3.63,1.78-1.12.64-1.08,1.4-2.08,2.78-1.17,1.62-4.95,1.57-4.92,5.08-1.35.18-3.19-1.05-4.54-.87-2.62,2.97-4.81,7.18-8.08,8.23,1.21,3.09-1.77,5.14-2.09,8.01-.1.9,2.35,3.36.29,4.36.38,2.37,3.7,3.84,3.42,6.4-.58,2.88-3.13.35-3.42,4.02,3.05,2.75,3.41,7.06,5.01,10.39.89,1.86,2.03,3.08,3.05,5.02.83,1.58.95,4.3,3.05,5.02-.51,3.51,2.28,8.08,3.28,10.17.19.39-.76,1.29-.58,1.69.28.64,1.79,1.84,2.11,2.31.43.63.78,1.34,1.1,2.07l.45,1.1.22.55.11.27.09.21.13.3c1.45,3.2,2.82,6.15,4.45,7.99,2.53,2.91,6.02,12.26,8.06,16.19,2.49,4.89,5.66,9.92,8.12,14.51,1.99,3.71,3.35,8.12,4.35,10.4.39.89,2.08,1.81,2.57,2.7.88,1.59,1.97,4.14,2.9,5.83,2.9,5.2,5.16,9.36,7.14,12.99,2.46,4.61,5.89,12.02,7.45,14.49,1.8,2.82,4.56,3.93,5.5,6.82.66,2.54,2.14,4.91,3.55,7.26,1.42,2.35,2.73,4.73,2.96,7.38,2.3,2.82,4.39,5.68,6.34,8.58,1.94,2.9,3.72,5.85,5.48,8.77,3.49,5.87,6.58,11.84,9.71,17.81,3.92,6.02,10.01,11.37,11.28,18.12,1.72,2.65,3.33,6.35,5.12,8.99,3.16,4.77,6.24,9.23,9.53,13.87,1.28,1.79,2.61,3.81,3.82,5.68.75,1.15,1.1,2.06,1.78,3.19,1.65,2.76,4.19,6.07,6.01,8.73,1.47,2.15,3.45,5.17,5.14,6.91.54.56,1.01.85,1.58,1.43,1.81,1.82,3.54,4.76,4.46,6.87,2.12,4.83,3.37,9.42,7.05,14.52,1.81,2.54,3.68,5.05,5.52,7.57,1.09,1.48,2.07,2.88,3.21,4.09.51.54,1.17,1.09,1.72,1.67l2.53,2.7,1.26,1.37.61.67.06-.05s.08-.1.16-.09c.08.02.15.03.22.06.14.05.27.11.38.19.2.15.15.43.43.54.07.03.28,0,.35.03.15.06.2.14.26.23.19.27.53.54.38.84-.15.31-.86.55-1.1.73-.06.04.05.09-.03.13-.1.05-.46.07-.58.1-.24.07-.36.15-.28.23.09.14.42.27.63.45.32.23-.37.16-.58.25-.16.07-.05.26-.36.28-.28,0-.56-.16-1.24-.41-.62-.23-.58-.16-.43,0,.15.16.39.43.34.48-.16.17-.65.06-.96-.02-.16-.04-.28-.07-.34-.01l-.02.02h0s-.36.26-.36.26l-1.46,1.01c-.97.69-1.91,1.4-2.82,2.14-7.87,6.36-19.19,12.2-25.77,15.74-.85.46-1.54,2.21-2.4,2.73-4.35,2.66-9.18,5.31-13.65,7.98-2.38,1.43-4.61,2.04-6.99,3.42-3.25,1.88-5.62,6.03-8.19,4.79-3.11,3.94-7.15,4.72-10.26,8.66-9.12,3.42-16.81,11.75-26.1,14.6-5.02,6.52-11.8,7.01-16.91,13.22-3.3-.37-5.46,3.18-8.52,3.65-9.37,7.72-20.38,13.53-30.89,20.07-3.07,1.91-8.59,5.29-9.39,6.16-3.28,3.53-5.71,2.12-8.19,4.79-2.38,2.56-12.7,7.99-14.85,9.35-5.53,3.49-10.3,7.1-16.05,10.72-5.09,3.2-11.28,6.39-16.38,9.58-2.36,1.47-5.37,4.34-7.86,5.93-4.63,2.96-10.96,5.09-13.65,7.98-1.48,1.6-1.49.75-2.73,1.6-2.59,1.77-5.19,4.31-7.86,5.93-5.35,3.24-11.09,6.05-16.71,8.44-3.52,5.67-16.75,10.21-19.98,13.68-2.53,2.72-7.23,3.83-9.38,6.15-.36.39-.65.64-.89.8-.14.1-.19.11-.23.12-.05.01-.1.02-.15.01-.19,0-.38-.08-.61.11-4.28,3.69-8.05,4.79-12.66,7.25-3.5,1.86-6.74,4.01-10.2,5.97-.77,1.83-.05,3.29-.13,4.59-.1,1.52-.85,2.45-.62,3.55.17.8,1.57,1.47,1.84,2.27,1-2.03,2.92.48,2.21,1.43-2.37,4.9-.31,7.49,1.09,10.42-.44,2.85-2.5,2.28-3.57,3.8,1.66,3.23,4.83,5.67,2.81,10.82,1.34,1.24,3.03,2.3,2.82,4.35l-1.85,4.2c1.33,1.66,1.42,4.02,2.08,6.03.47,1.45,1.52,2.84,1.1,3.95-.46,1.2,1.59,1.41,1.84,2.27-1.13,1.88-1.28,3.25-.99,4.39,2.24,2.71,3.31,6.03,6.86,8.05.28,2.01.94,3.82,1.22,5.83,4.63,1.68,4.04,6.08,8.95,7.61.73,1.35-1.44,4.2.73,4.79,1.95-2.9,6.77.29,10.19.5.96-1.52,2.73-1.9,4.06-2.76,1.32-.86,4.48-3.54,5.29-3.4,1.02.18.56-.3,1.23-.64,1.89-.96,3.36-2.52,4.43-3.6.81-.83,1.39-1.09,1.97-2.32,3.39.27,5.99-2.9,8.6-4.49.53-.32,1.53-.13,2.09-.44.9-.51,1.06-1.73,1.97-2.32,1.59-1.03,3.49-1.2,4.91-2.56,1.02-.71,7.79-5.5,13-8.78,2.54-1.6,5.32-3.08,8.19-4.79.45-.27,1.06.02,1.53-.23.85-.45,1.54-2.2,2.4-2.73.85-.53,2.19.05,3.06-.46.93-.54,1.47-2.14,2.4-2.73,4.46-2.83,15.92-9.16,17.58-10.95,2.35-2.53,6.12-3.68,8.19-4.79.77-.41,1.65-2.19,2.4-2.73,1.05-.76,4.19-2.4,5.46-3.19,3.8-2.37,6.78-3.96,10.92-6.39,1.81-1.06,3.64-2.13,5.46-3.19,2.04-1.19,5.04-2.19,6.99-3.42,1.41-.89,2.28-3.09,3.6-4.1,1.54-1.18,4.04-1.12,5.79-2.06.73-.39,1.7-2.2,2.4-2.73.24-.18,1.24-.07,1.53-.23.83-.45,1.56-2.19,2.4-2.73,4.15-2.69,9.98-5,12.45-6.61,2.1-1.38,3.19-3.1,5.13-4.33,7.65-4.85,15.95-9.61,21.84-12.77.81-.44,1.59-2.18,2.4-2.73,1.01-.69,3.15-1.09,4.26-1.83,2.13-1.4,3.13-3.09,5.13-4.33,8.12-5.07,15.68-8.52,23.37-13,2.12-3.67,5.26-3.86,7.53-7.06,4.45-.21,5.82-2.94,8.19-4.79.52-.41,3.53-1.36,4.26-1.83,4.53-2.86,8.85-6.41,13.32-9.12,9.06-5.49,18.23-10.18,27.63-14.83,2.94-2.7,6.54-3.13,9.05-7.29,5.16-.56,9.08-5.37,13.98-6.84,6.26-5.92,13.22-9.46,20.64-11.41,3.84-2.44,7.5-4.49,11.16-6.53,1.83-1.03,3.65-2.07,5.51-3.12.92-.54,1.85-1.09,2.8-1.65.51-.32,1.03-.63,1.55-.95.89-.56,1.79-1.13,2.7-1.71,2.59-1.65,6.39-3.94,9.01-5.73,2.87-1.96,3.63-2.79,5.69-4.68,2.04-1.88,3.14-2.96,6.29-4.64,1.36-.72,2.08-.9,3.61-1.76,1.29-.73,2.56-1.61,3.81-2.4,2.91-1.85,5.95-3.74,8.77-5.62,3.28-2.19,5.43-4.03,8.39-6.09,5.91-4.1,13.03-7.95,19.26-11.85,3.99-2.5,7.97-4.88,11.97-7.26,2-1.19,4-2.39,6-3.58,1-.6,2-1.2,3-1.81l1.5-.91c.26-.15.5-.31.71-.46.04-.04.15-.07.12-.13l-.13-.17-.26-.34c-3.27-4.25-6.93-8.73-10.33-13.02-1.94-2.46-4.21-5.18-5.96-7.57-1.72-2.35-3.05-4.53-4.83-7-.18-.25-.38-.52-.58-.78-6.58-8.75-13.23-17.41-20.24-26.39-2.38-3.06-4.97-6.53-7.44-9.54-1.75-2.13-2.36-2.67-4.05-4.44-1.97-2.06-2.99-3.71-4.76-5.82-.84-1.02-1.45-1.56-2.24-2.48-1.44-1.65-2.87-3.67-4.32-5.64l-.2-.27-.13-.19-.25-.37-.5-.75c-.33-.5-.65-.99-.97-1.47-3.37-5.11-5.64-10.13-8.68-15.3-2.36-4.1-4.7-7.97-7.62-11.88-1.73-2.31-3.65-4.38-5.43-6.6-1.55-1.98-2.86-4.1-4.41-6.02-2.47-3.07-4.74-6.67-7.06-10-1.35-1.95-1.85-2.97-2.91-5.05-.68-1.37-.94-1.89-1.97-2.99-1.04-1.11-2.16-1.7-3.21-2.96-.77-.91-1.52-2.2-2.22-3.25-1.92-2.91-3.56-5.51-5.16-8.48-.57-1.08-.93-2.13-1.48-3.21-.51-1-1.27-1.95-1.76-2.91-.52-1.03-.1-.4-.91-1.64Z"/>
  <g>
    <g>
      <path class="st1" d="M661.36,606.38l49.57-32.85c11.16-7.39,25.24-5.76,33.13,4.98s5.04,25.83-6.48,33.51l-70.35,46.83c-10.59,6.56-24.41,4.29-31.72-6.64l-134.12-200.76-151.32.08c-13.97-.42-24.05-10.99-23.53-25.08l-.03-212.88c-47.1-12.29-75.58-56.9-69.43-103.19,6.19-46.6,46.46-81.47,93.6-81.23,46.42.23,86.03,35.11,92.2,81.17,6.28,46.89-23.06,91.25-69.45,103.4l.02,50.16,142.09.12c13.27.01,22.41,12.65,22.02,24-.46,13.19-11.06,23.31-24.93,22.82l-139.19-.02v93.81s140.62-.02,140.62-.02c8.61.25,15.23,4.07,19.98,11.19l127.33,190.61ZM396.86,123.18c0-25.89-20.98-46.87-46.87-46.87s-46.87,20.98-46.87,46.87,20.98,46.87,46.87,46.87,46.87-20.98,46.87-46.87Z"/>
      <g>
        <path class="st0" d="M348.93,175.18c.9.02,1.8-.04,2.61-.07.81-.03,1.53-.04,2.06-.08.54-.04,1.09-.09,1.66-.13.44-.08.89-.17,1.33-.26.82-.17,1.56-.32,2.49-.47.38-.06.87-.14,1.47-.23.56-.13,1.22-.29,1.95-.47,1.43-.35,3.09-.69,4.63-1.29,3.18-.97,6-2.45,6.88-2.92.75-.39,1.56-.91,2.37-1.36.8-.46,1.59-.89,2.21-1.27.42-.24.76-.61,1.14-.91.58-.45,1.39-.92,2.12-1.55.81-.72.83-.5,1.55-1.11.3-.26.7-.78,1.01-1.06.92-.86,1.84-1.62,2.66-2.49.81-.88,1.61-1.76,2.46-2.7,2.1-2.53,3.94-5.15,5.02-6.99.13-.2.24-.27.36-.47.21-.34.44-.94.66-1.3.95-1.87,1.77-3.5,2.34-4.72.08-.23.12-.48.2-.7.14-.38.39-.67.53-1.06.57-1.58.95-3.1,1.32-3.73l.52-2.87c.22-.75.43-1.52.53-2.31.07-.4.13-.79.2-1.18.04-.28.03-.19.04-.24l.02-.07c.04-.2.08-.39.12-.58.07-.39.14-.76.24-1.08.09-.28.14-.63.18-.8.03-.13.15-.16.18-.29.05-.19,0-.5.21-.62-.35-.13.06-.32.06-.49,0-.08-.14-.33-.18-.54,0-.01.07-.05.07-.07,0-.04-.09-.14-.1-.19,0-.02.07-.05.07-.07.03-.13-.47-.92-.55-1.02-.06-.08-.13-.05-.17-.11-.05-.08-.1,0-.12-.02-.26-.26-.29-.5-.42-.57-.29-.14-.48-.4-.68-.44-.08-.01-.16-.04-.24-.04-.14-.37-.34-.26-.47-.63-.18.16-.37,0-.55,0-.07,0-.17-.05-.24-.03-.05,0-.09.12-.14.14-.02,0-.14-.1-.17-.1-.28-.01-.59-.06-.8-.03-.12.01-.21.03-.31.03-.08,0-.15-.04-.24-.03-.09,0-.17.05-.24-.03.12-.11.14-.23.11-.36-.19.21-.33.02-.52.23-.09-.12-.12-.13-.24-.03-.11.09-.34,0-.43.02-.14.01-.17.09-.33.18-.19.1-.55-.06-.72.26-.14-.04-.25-.23-.39-.27-.39.16-.8.45-1.17.41-.03.32-.42.37-.58.6-.05.07.06.38-.18.38-.08.21.17.48.02.69-.2.21-.31-.11-.52.18.15.36-.02.73-.03,1.07,0,.19.04.35.05.55,0,.17-.16.38-.01.55-.25.25-.27.74-.31.96,0,.04-.14.06-.15.1-.01.06.05.24.05.29,0,.07,0,.14-.02.22l-.02.11v.05s-.02,0-.05.19c-.09.57-.16,1.1-.24,1.61-.1.49-.22.94-.28,1.32-.1.6-.39,1.68-.68,2.78-.41,1.06-.83,2.19-1.08,2.84-.16.42-.28.86-.48,1.28-.19.41-.39.83-.59,1.25-.4.83-.75,1.67-1.15,2.42-.72,1.18-1.56,2.4-1.99,3.08-.17.26-.41.74-.6,1.01-.35.46-.92,1.21-1.29,1.69-.54.81-1.19,1.41-1.71,2.01-.54.59-1.02,1.13-1.48,1.63-1.28,1.13-3.24,2.94-4.05,3.44-.86.66-1.36,1.29-2.17,1.82-.75.37-1.52.85-2.29,1.32-.38.24-.77.47-1.14.68-.39.19-.79.33-1.17.44-1.04.53-2.03,1.15-3.09,1.56-1.13.42-2.13.8-3.17,1.18-2.16.55-4.28,1.14-6.47,1.32-.58.09-1.17.2-1.76.32-.59.08-1.2.11-1.79.16-.59.04-1.18.08-1.75.09-.23,0-.49,0-.84,0-.27-.02-.54-.07-.8-.12-1.03-.05-2.32-.18-3.36-.23-.92-.1-1.82-.27-2.71-.39-.9-.13-1.8-.23-2.68-.49-.71-.18-1.45-.37-2.16-.55-.43-.12-.73-.19-1.13-.36-.97-.38-2.25-.83-3.23-1.18-.78-.31-1.82-.88-2.55-1.16-.19-.07-.44-.17-.63-.25-.79-.27-1.69-.93-2.3-1.34-.68-.5-1.33-.93-1.98-1.44-.63-.55-1.29-1.1-2.11-1.71-.84-.56-1.56-1.28-2.31-1.96-.44-.4-.85-.77-1.26-1.11-.19-.15-.4-.32-.57-.51-.57-.59-1.14-1.17-1.67-1.71-.29-.3-.58-.6-.85-.88-.26-.34-.51-.67-.76-.99-.47-.62-.96-1.32-1.44-1.91-.11-.15-.23-.25-.32-.39-.21-.34-.35-.58-.54-.89-.56-.98-1.22-1.89-1.68-2.89-.37-.87-.88-2.06-1.25-2.92-.11-.23-.23-.47-.29-.72-.06-.21-.17-.58-.23-.79-.18-.56-.44-1.33-.66-1.93-.42-1-.53-1.81-.85-2.82-.3-1.14-.5-1.67-.63-2.82-.13-.84-.27-1.74-.41-2.64-.1-.79-.04-.41,0-.79.08-.71-.18-3.08-.24-4.03.03-.82.09-1.63.14-2.45.03-.4.05-.81.08-1.22.01-.41.05-.81.14-1.2.13-.82.26-1.6.39-2.37.05-.39.11-.77.16-1.17.08-.35.17-.72.27-1.14.22-.95.41-1.75.6-2.56.25-.87.62-1.72.92-2.55.55-1.7,1.44-3.14,1.97-4.25.15-.28.24-.81.42-1.09.44-.7.91-1.45,1.39-2.22.24-.37.46-.76.71-1.12.27-.35.54-.7.8-1.04.46-.57,1.14-1.43,1.61-2,.86-.9,1.62-2.11,2.15-2.3.44-.67.99-1.12,1.51-1.61.53-.48,1.05-.96,1.57-1.56.62-.49,1.33-.92,1.99-1.43.34-.25.67-.5,1.01-.76l.5-.39.54-.33c1.45-.87,2.85-1.85,4.35-2.33,1.1-.67,2.1-1.24,3.2-1.56.54-.19,1.07-.37,1.62-.58.55-.2,1.09-.48,1.7-.67.9,0,2.04-.49,2.98-.6.96-.29,1.97-.38,2.97-.57.51-.08,1.01-.16,1.51-.25.51-.04,1.02-.05,1.53-.08,1.02-.03,2.05-.12,3.08-.11,1.04.06,2.07.12,3.09.18.3.02.66.02,1.04.07.37.06.76.12,1.12.18.73.11,1.35.2,1.54.21,1.57.06,1.91.51,3.07.69.28.05.72.15,1.24.28.52.12,1.12.27,1.67.51,1.11.42,2.25.86,2.62,1,1.02.38,1.92.89,2.88,1.31.47.23.97.42,1.43.69.46.28.93.56,1.41.86,1.76.96,3.52,2.47,5.1,3.68.68.63,1.74,1.48,2.47,2.13.69.6,1.27,1.43,1.89,2.11.6.7,1.19,1.33,1.58,1.83.46.53.31.45.62.85.62.83,1.45,1.7,1.94,2.62.52.9,1.08,1.79,1.55,2.71.36.85.77,1.79,1.21,2.82.14.21.31.45.44.74.13.29.25.61.38.95.26.68.52,1.43.78,2.17.3.73.38,1.5.56,2.14.16.65.3,1.2.43,1.56.1.28.2.59.26.91.04.29.08.63.13.98.08.65.15,1.28.27,1.77.04.17.07.29.08.38.02.11,0,.05,0,.08,0,.02-.02.03-.02.06.18.51.11.88.08,1.37-.02.38,0,.74,0,1.12.13.15.3.15.42.22.14.08.18.18.3.22.08.02.22-.06.31-.05-.14-.18.2-.22.25-.12.33.43.68.39,1.02.41.24.18.08.33.16.5.39.02.78-.13,1.15.32.19-.05.37-.15.55-.02l.29.39c.22-.03.45.09.67.15.16.04.35.02.43.12.09.11.22-.06.31-.04.12.21.24.3.36.34.37-.05.74.05,1.11-.16.2.09.41.14.61.23.4-.34.78-.02,1.18-.4.16.01.31.4.48.22-.17-.37.38-.65.58-.98-.09-.19-.03-.39-.04-.57-.01-.18-.1-.66-.04-.73.07-.09,0-.07,0-.16,0-.25-.06-.49-.1-.66-.04-.13-.03-.2-.11-.33.2-.33.04-.78.03-1.13,0-.07.07-.17.07-.24,0-.12-.1-.2-.12-.33-.03-.22.03-.43-.04-.64-.05-.29.01.18-.27-1.62-.23-1.29-.35-2.61-.74-3.91-.29-1.16-.61-2.47-.94-3.79-.07-.2-.06-.36-.13-.57-.13-.37-.45-.93-.59-1.32-.14-.39-.13-.75-.27-1.14-.15-.42-.44-.88-.6-1.31-.4-1.01-1.24-2.7-1.98-4.28-.78-1.55-1.67-2.87-1.93-3.28-.41-.56-.75-1.21-1.14-1.77-.36-.51-.8-1.15-1.02-1.48-.21-.29-.71-.78-.95-1.08-.17-.23-.44-.6-.75-1.02-.32-.39-.67-.77-.87-1.01-.6-.67-1.14-1.27-1.7-1.9-.28-.3-.54-.62-.85-.94-.32-.3-.66-.61-1.01-.95-.63-.59-1.27-1.18-1.91-1.77-.68-.7-1.69-1.46-2.44-2.05-.55-.41-1.27-.76-1.82-1.15-.64-.46-1.32-.99-2-1.44-.29-.18-.97-.47-1.29-.65-.11-.06-.35-.29-.47-.36-.33-.21-.92-.44-1.3-.6-1.84-.86-4.03-2.17-5.21-2.5-.98-.36-1.72-.53-2.61-.85-.86-.35-1.79-.56-2.69-.8-.9-.24-1.79-.47-2.67-.71-1.75-.38-3.41-.6-4.76-.85-.37-.07-1.04-.04-1.44-.04-.5-.02-1.32-.15-1.87-.18-1.05-.05-1.77.01-2.73-.04-1.96.1-3.79.11-5.58.24-1.78.25-3.54.4-5.34.78-1.46.59-2.59.71-3.99,1.24-1.58.26-2.54.83-3.68,1.27-.25.11-1.47.42-1.78.61-1.98.97-4.06,1.93-5.86,3.11-3.81,2.13-7.1,4.82-10.31,7.68-1.04,1.25-2.08,2.14-3.1,3.62-.68.68-1.34,1.55-1.99,2.44-.33.44-.65.88-.98,1.32-.31.44-.59.9-.89,1.31-.81,1.55-1.75,2.94-2.42,4.42-.37.72-.73,1.42-1.11,2.11-.17.31-.36.65-.56,1.02-.15.32-.31.67-.48,1.04-.32.87-.64,1.71-.96,2.57-.15.42-.32.82-.45,1.24l-.35,1.26c-.43,1.68-1.01,3.34-1.22,5.23-.1.66-.24,1.57-.35,2.32-.09.76-.14,1.01-.1,1.65.02.63.03.99-.04,1.76-.03.26-.06.6-.09.85-.02.39-.03.67-.05.99-.02.38-.04.77-.06,1.15.02.38.04.76.06,1.15.06.72.13,1.64.19,2.37.05,1.64.3,3.34.53,4.94.23,2.07.77,3.94,1.25,5.93.24,1.18.76,2.32,1.15,3.46.23.64.48,1.3.73,1.99.24.69.54,1.29.85,2,.53,1.1,1,2.21,1.59,3.27.63,1.04,1.25,2.07,1.89,3.13.41.74.99,1.49,1.5,2.16.36.47.48.6.81,1,.39.47.63.82,1,1.3.17.23.3.35.48.54.67.71,1.38,1.52,2.04,2.26.44.48.83.99,1.28,1.42.42.41.87.85,1.33,1.29.44.43.89.87,1.32,1.29.23.22.46.44.68.65.26.2.5.4.74.6,1.6,1.24,3.08,2.52,4.93,3.54,1.08.62,2.09,1.28,3.21,1.8,1.02.48,1.85.88,2.91,1.38.39.17.77.37,1.18.53.42.15.83.3,1.24.46.83.31,1.67.61,2.5.91.95.37,1.42.48,2.38.77.63.18.87.25,1.5.39.63.13,1.11.19,1.8.34.5.11,1.13.19,1.67.28,1.48.21,2.78.48,4.21.63.43.04,1.07.1,1.5.14.55.03.93.05,1.46.08.49.04.17.02.81.05Z"/>
        <path class="st0" d="M447.58,305.62c-13.35.11-27.02,0-34.81.01-9.31.04-16.15.08-22.42.1-3.12.02-6.09.04-9.14.06-2.26,0-4.56.01-6.92.02-1.52,0-3.06,0-4.63,0-.39,0-.79,0-1.19,0-.04.36-.01.79-.02,1.18,0,.8,0,1.62,0,2.44-.02,12.21-.07,39.22-.12,65.15-.01,6.16-.03,12.24-.04,18.03,0,3.54,0,6.98-.01,10.3,0,1.3,0,2.59,0,3.87,0,.64,0,1.27,0,1.91v.95s0,.12,0,.12h.12s.23,0,.23,0h.47c2.5,0,4.94,0,7.31,0,10.46-.02,18.59-.03,22.63-.03,12.6-.12,28.44.05,39.16.04,3.47-.04,7.35-.08,10.81-.11,5.44-.02,12.35.09,19.58.02,8.04-.07,7.13.06,14.17.08,2.81-.03,7.84-.08,10.82-.11,4.69,0,9.26,0,13.76,0,2.25,0,4.48,0,6.7,0l1.31.08c.45.06.91.09,1.35.16.89.14,1.76.32,2.59.57,3.36.97,6.25,2.89,8.66,5.68.61.69,1.17,1.44,1.71,2.23.62.93,1.25,1.87,1.88,2.8,1.28,1.91,2.56,3.84,3.87,5.79,13.62,20.4,26.8,40.14,35.63,53.38.89,1.38,1.49,2.31,2.38,3.68,1.62,2.37,4.41,6.47,6.1,8.93,8.66,13,16.17,24.28,21.72,32.6.98,1.44,2.07,3.03,3.05,4.47,1.67,2.51,3.07,4.84,4.76,7.37,6.89,10.33,13.56,19.9,16.29,24.45l12.2,17.87c5.12,7.71,10.34,15.56,15.57,23.42.09.16.18.31.27.46.18.3.36.59.49.87.1.24.28.5.36.65.05.1,0,.2.03.31.06.17.27.36.18.57.34-.12.12.27.21.39.05.06.29.15.43.28,0,0-.03.08-.02.09.02.04.15.05.18.08.01,0-.03.08-.02.09.05.11.88.38,1,.41.09.02.13-.04.2-.02.09.03.08-.06.11-.05.35.04.51.2.65.17.31-.06.62.02.8-.07.07-.04.15-.06.22-.11.32.2.42,0,.74.21.06-.22.31-.21.46-.31.06-.04.16-.06.22-.11.04-.04,0-.14.04-.18.02-.02.17,0,.2-.02.24-.15.52-.29.68-.42.09-.08.15-.14.24-.2.06-.04.15-.06.22-.11.07-.05.11-.14.22-.11-.04.16.02.27.12.35.03-.28.26-.2.3-.48.14.05.18.04.22-.11.04-.13.28-.2.35-.26.11-.09.09-.17.17-.33.09-.19.49-.26.42-.63.14-.04.35.05.49,0,.22-.36.38-.84.7-1.01-.18-.3.1-.57.08-.87,0-.09-.3-.3-.1-.44-.08-.24-.45-.33-.47-.59.02-.31.32-.09.3-.48-.36-.23-.46-.67-.68-.98-.12-.18-.26-.28-.4-.46-.11-.15-.16-.43-.4-.46,0-.37-.35-.8-.48-1-.02-.04.06-.15.04-.18-.04-.06-.21-.16-.25-.2-.05-.06-.1-.13-.14-.2l-.06-.11-.03-.05v-.03c-.29-.41-.56-.81-.83-1.22-5.86-8.79-11.27-16.9-15.31-22.82-6.32-9.28-22.81-34.17-30.2-45.23-9.18-13.71-19.1-28.52-27.82-41.54-6.98-10.52-14.55-21.93-18.67-28.14-1.58-2.31-4.43-6.48-6.1-8.93-3.03-4.56-7.64-11.46-10.86-16.3-4.98-7.45-9.45-14.13-13.53-20.25-2.35-3.51-5.31-6.59-8.75-8.83-3.44-2.23-7.25-3.57-10.88-4.13-1.16-.19-2.32-.31-3.6-.37-.68-.05-1.18-.04-1.72-.04-.54,0-1.08,0-1.63,0-2.19,0-4.48,0-6.8,0-4.65,0-9.46-.02-14.05-.02-9.19,0-17.5-.02-21.89-.02-10.06.02-17.08.22-26.03.15-15.26-.15-33.52.07-47.97-.18-5.32.02-10.57.05-15.78.07-.3-.02-.83.16-.69-.33,0-1.79-.01-3.58-.02-5.36,0-10.5-.01-20.85-.02-31.11.01-10.26.03-20.44.04-30.59.01-5.07.02-10.13.03-15.18v-1.11c.03-.13-.06-.38.17-.3h.46s3.28.02,3.28.02c21.57-.01,45-.25,64.13.03,9.48.02,21.47.04,31.05.06,8.59,0,16.96,0,25.31,0h6.27s3.14,0,3.14,0l1.75-.02c.61-.02,1.2,0,1.82-.05,1.24-.16,2.5-.2,3.74-.51l1.86-.4,1.82-.57.91-.29.89-.37,1.77-.77c1.12-.63,2.3-1.18,3.34-1.96,3.33-2.23,6.34-5.33,8.51-8.97,2.18-3.64,3.43-7.79,3.84-11.78.05-.62.1-1.21.15-1.79.03-.58,0-1.17,0-1.73.02-1.14-.14-2.18-.26-3.23-.13-1.05-.39-2.05-.61-3.11-.33-1.02-.59-2.1-1.05-3.19-2.03-5.4-6.17-10.99-12.09-14.52-2.94-1.75-6.28-2.97-9.62-3.38-1.61-.18-3.47-.26-4.61-.24-1.29,0-2.54,0-3.75,0-7.81,0-18.61,0-25.89.01-2.3.02-3.86.03-6.25.05-7.6.04-17.84,0-24.62-.06-15.55-.13-28.92-.31-47.81-.33-8.99,0-18.01-.02-27-.02h-.24s-.01-.15-.02-.22c0-1.95-.01-3.84-.02-5.71-.01-2.21-.03-4.74-.04-7.11-.03-7.37-.06-14.73-.1-22.19,0-1.82-.01-3.64-.02-5.47v-.26s-.04-.1.02-.12l.23-.07.46-.14c.95-.32,1.91-.65,2.87-.97,1.93-.61,3.8-1.43,5.72-2.16,7-2.92,14.31-6.98,20.27-11.37,1.45-1.12,2.64-1.97,3.88-3.02,1.34-1.13,2.62-2.13,3.81-3.25,1.22-1.09,2.45-2.21,3.72-3.5,7.83-7.78,14.19-16.64,19-26.29,2.42-4.88,4.3-9.61,5.84-14.42,1.52-4.81,2.73-9.71,3.51-15,.34-2.46.66-5.08.81-7.58.14-1.46.18-2.76.22-4.05.05-1.29.1-2.56.06-3.96-.02-1.44-.02-3.03-.15-4.68-.05-.83-.1-1.68-.16-2.53-.07-.86-.18-1.72-.27-2.59-.1-.87-.18-1.74-.3-2.61-.13-.86-.27-1.73-.4-2.57-.23-1.7-.61-3.33-.92-4.86-2.34-10.36-5.22-17.88-10.21-26.99-2.83-5.04-5.27-8.55-7.83-11.92-2.56-3.37-5.27-6.61-9.32-10.61-5.99-5.97-13.65-11.68-20.86-15.73-6.84-3.69-3.5-1.96-6.82-3.63-1.54-.77-4.06-1.89-7.16-3.06-1.56-.57-3.24-1.2-5.05-1.72-1.78-.59-3.68-1.07-5.59-1.57-7.67-1.96-15.91-2.67-20.58-2.79-16.05-.58-32.21,2.96-46.51,9.84-14.29,6.94-26.73,17.21-35.91,29.49-2.46,3.3-4.86,6.82-6.98,10.61-1.12,1.86-2.07,3.84-3.08,5.8-.92,2-1.88,4.01-2.69,6.08-.88,2.05-1.57,4.18-2.32,6.29-.65,2.14-1.34,4.28-1.85,6.46-.6,2.16-.99,4.36-1.45,6.53-.34,2.19-.76,4.37-.95,6.55-1.05,8.71-.79,17.28.23,25.05,1.08,7.77,2.98,14.73,5.06,20.46.49,1.5,1.35,3.35,2.13,5.25.9,1.85,1.73,3.75,2.51,5.19,3.73,7.47,8.61,14.73,14.4,21.26,2.88,3.28,6.05,6.31,9.31,9.18,3.29,2.85,6.79,5.41,10.33,7.79,3.84,2.45,7.39,4.49,11.05,6.27,3.67,1.76,7.4,3.38,11.68,4.8.73.24,1.46.49,2.2.74l.28.08.26.07s.02.03.03.05c0,.04,0-.01.01.1,0,.72,0,1.44.01,2.15,0,1.42.02,2.8.02,4.12.03,5.31.02,9.74-.11,12.07.18,14.69.02,26.52.2,41.21-.21,29.52.1,63.47-.17,92.48.15,11.98.14,22.61.13,33.2,0,5.3,0,10.58,0,16.03.01,2.77.03,5.57.04,8.47.01,3.24.52,6.83,1.78,10.2.82,2.3,1.92,4.85,3.66,7.19,1.7,2.35,3.84,4.6,6.36,6.38,2.51,1.78,5.32,3.15,8.14,4.09,2.85.88,5.63,1.35,8.35,1.51,37.6-.02,75.93-.04,114.32-.06,11.14-.01,30.99-.03,34.6-.03.04,0,.07-.01.11-.02.03.01.05.05.07.07.69,1.03,1.32,1.97,1.9,2.84,1.4,2.13,2.61,3.97,3.78,5.73,2.29,3.49,4.33,6.62,7.39,11.13,5.9,8.67,25.82,38.67,30.2,45.23,11.27,16.85,21.55,32.21,33.25,49.69,10.33,15.5,22.24,33.39,32.58,48.9,4.79,7.13,11.88,17.68,16.96,25.24,1.18,1.77,2.38,3.58,3.61,5.41.61.92,1.22,1.84,1.84,2.76l.92,1.39,1.2,1.64c.39.56.83,1.08,1.3,1.58.47.5.9,1.03,1.4,1.5,1.01.94,2.02,1.87,3.15,2.66,1.08.86,2.3,1.5,3.47,2.19,1.23.59,2.45,1.19,3.73,1.6,1.25.49,2.56.75,3.83,1.07,1.29.19,2.57.44,3.84.46,2.54.19,5.01-.08,7.31-.51,1.14-.27,2.27-.5,3.32-.89.53-.18,1.05-.36,1.56-.54.49-.22.98-.43,1.46-.64.96-.39,1.87-.93,2.75-1.43.97-.53,1.47-.92,2.11-1.35,5.42-3.68,4.28-2.83,8.17-5.42,8.06-5.4,17.27-11.56,25.29-16.93,8.07-5.35,16.21-10.74,24.31-16.1,2.02-1.33,4.04-2.66,6.05-3.99l3.01-1.99,1.5-.99.75-.49.87-.63,1.75-1.3,1.62-1.47c.55-.47,1.03-1.02,1.52-1.56.47-.55,1-1.06,1.41-1.66,1.81-2.28,3.19-4.85,4.28-7.51,1-2.69,1.74-5.97,1.84-9.62.1-3.64-.49-7.68-2.08-11.6-.78-1.96-1.85-3.86-3.1-5.67-.63-.9-1.34-1.7-2.03-2.56-.76-.8-1.53-1.6-2.35-2.35-3.34-2.98-7.52-5.22-11.93-6.34-4.41-1.1-8.98-1.05-13.13-.19-4.16.86-7.9,2.53-11.01,4.55-2.63,1.73-5.05,3.33-7.19,4.74-2.1,1.41-3.93,2.63-5.43,3.63-9.24,6.24-21.12,13.91-28.99,19.22-1.35.9-2.3,1.54-3.03,2.03-.16.1-.3.2-.44.29h0s-.02,0-.02,0c-.02,0-.04,0-.06.01-.45.4-.85.53-1.34.8-.37.21-.71.44-1.08.66-.08.2,0,.35,0,.49,0,.16-.09.26-.06.38.02.09.17.15.2.24.1-.22.31.05.24.15-.24.53-.02.8.14,1.11-.04.31-.26.25-.37.41.18.34.53.6.32,1.15.15.13.33.24.31.46l-.19.45c.15.17.16.43.23.64.05.15.17.3.13.42-.05.13.17.15.2.24-.12.2-.13.35-.1.47.25.29.37.64.75.85.03.21.11.41.14.62.5.17.44.64.97.8.08.14-.15.45.09.51.2-.31.72.02,1.09.03.1-.16.29-.21.43-.3.14-.09.47-.39.56-.37.11.02.06-.03.13-.07.2-.11.35-.28.47-.39.09-.09.15-.12.21-.25.36.02.63-.32.91-.5.06-.04.16-.02.22-.05.1-.06.11-.19.21-.25.17-.11.37-.13.52-.28-6.92,4.58,18.36-12.22,33.48-22.24,1.94-1.28,3.9-2.58,5.89-3.89.99-.66,1.99-1.32,3-1.98.5-.33,1.01-.67,1.51-1,.49-.31,1.06-.72,1.47-.95,3.49-2.2,7.61-3.61,11.83-3.54.67-.03,1.22.06,1.77.12.28.04.55.05.84.1.3.06.59.12.91.19,1.18.18,2.65.67,4.09,1.24,1.4.67,2.78,1.45,3.74,2.27.99.77,1.77,1.62,2.51,2.5.34.47.72.91,1.06,1.39.3.5.62,1,.97,1.52,1.35,2.28,2.38,5.45,2.48,8.22.24,3.28-.64,8.04-3.6,12.19-.37.51-.73,1.05-1.19,1.51-.44.48-.84.99-1.36,1.41-.5.44-.95.93-1.52,1.29l-.81.6c-.14.1-.25.2-.42.31l-.51.34c-2.75,1.82-5.53,3.67-8.25,5.48-10.87,7.24-20.74,13.82-23.84,15.89-8.56,5.81-18.41,12.23-24.46,16.24-2.16,1.47-6.65,4.52-8.94,6.08-.83.56-2.03,1.35-3.41,2.27-.74.53-1.32.8-1.96,1.16-.62.38-1.39.63-2.08.97-2.93,1.14-6.14,1.41-8.01,1.27-5.63-.3-10.19-2.97-13.33-6.91-.38-.52-.77-1.05-1.15-1.58-.43-.65-.87-1.3-1.31-1.96-.88-1.32-1.77-2.65-2.67-4.02-1.82-2.73-3.73-5.6-5.78-8.68-3.61-5.41-7.24-10.87-10.86-16.3-4.03-6.08-9.32-14.06-13.24-19.99-2.8-4.11-6.36-9.31-9.15-13.4-3.34-4.96-6.8-10.41-10.19-15.52-1.4-2.05-4.62-6.76-6.1-8.93-.47-.73-1.86-2.88-2.38-3.69-1.59-2.33-4.41-6.47-6.1-8.93-8.45-12.73-19.05-28.69-24.1-36.28-4.33-6.41-7.59-11.25-11.53-17.09-7.78-11.67-15.78-23.67-23.28-34.9-1.87-2.81-3.71-5.57-5.5-8.26-.78-1.17-1.56-2.34-2.33-3.5l-.6-.9-.15-.22c-.06-.06-.17-.02-.25-.03h-.54c-.72,0-1.43,0-2.14,0-1.95,0-3.88,0-5.77,0-6.12-.01-11.84-.02-17.01-.03-2.76.03-7.89.08-10.81.11-3.74-.02-10.09-.05-14.17-.07-7.84.04-13.39.07-20.6.11-29.59-.05-55.13-.1-82.64-.15-2.34-.02-4.63-.52-6.62-1.23-2.01-.72-3.81-1.72-5.35-3.01-1.55-1.27-2.91-2.76-4.02-4.5-1.08-1.76-1.93-3.75-2.47-6-.27-1.21-.34-2.4-.42-3.56,0-1.31.01-2.53.02-3.71,0-2.62,0-5.02,0-7.37-.03-4.65-.05-9.08-.08-13.67.01-2.02.06-11.53.08-14.18-.02-16.59-.04-33.82-.07-50.03.08-32.76.16-64.55.23-96.96,0-6.16,0-11.68-.01-17.42,0-3.22-.01-6.48-.02-9.92,0-1.38-.01-2.78-.02-4.21,0-.35,0-.71,0-1.06-.28-.13-.65-.2-.97-.3-.66-.18-1.33-.37-2-.56-1.33-.37-2.68-.74-4.07-1.13l-.52-.14-.32-.1-.56-.18c-.37-.12-.75-.24-1.14-.36-3.26-1.1-6.62-2.56-10.05-4.15-3.4-1.67-6.83-3.54-10.13-5.67-6.6-4.27-12.69-9.5-17.47-14.94-8.46-9.15-14.45-19.8-18.18-30.68-3.73-10.91-5.11-22.12-4.52-32.84.66-13.37,3.98-25.49,9.62-36.4,2.81-5.46,6.17-10.64,10.13-15.51,3.98-4.85,8.55-9.4,13.76-13.59.95-.72,2-1.52,3.11-2.36,1.15-.79,2.35-1.62,3.55-2.45,1.25-.77,2.47-1.58,3.7-2.29,1.24-.68,2.39-1.4,3.49-1.95,1.2-.62,2.2-1.13,3.09-1.58.9-.42,1.68-.78,2.45-1.14.75-.37,1.5-.68,2.32-1.01.82-.33,1.68-.72,2.73-1.12,1.05-.38,1.98-.72,2.87-1.05.89-.33,1.77-.57,2.66-.85.9-.28,1.82-.57,2.88-.82,1.05-.25,2.19-.6,3.54-.85,1.14-.22,1.97-.39,2.84-.56.87-.15,1.78-.27,3.11-.48,1.12-.2,2.3-.3,3.48-.44.59-.07,1.18-.13,1.77-.2.59-.04,1.18-.08,1.76-.11,5.4-.37,10.99-.24,16.32.38,6.2.75,10.87,1.76,16.44,3.48,5.56,1.76,11.06,4.1,16.22,7.02,5.17,2.91,10.02,6.32,14.39,10.03,11.19,9.58,19.46,21.1,24.87,34.47,3.22,7.83,5.27,16.48,6.07,24.96.46,4.85.51,10.26.12,14.98-.42,5.16-1.19,9.83-2.52,15.13-4.3,16.67-13.13,31.72-26.03,43.55-4.37,4.04-9.76,8.03-14.88,11.06-3.66,2.08-4.69,2.63-8,4.22-.99.44-1.89.85-2.76,1.24-.88.37-1.74.69-2.59,1.02-1.69.7-3.44,1.21-5.44,1.92-1.84.54-3.32.96-4.77,1.38-.73.21-1.44.42-2.19.64-.19.05-.38.11-.57.16l-.29.08v.32c0,.43,0,.88,0,1.34,0,8.29,0,17.35,0,25.63-.01,4.87-.02,9.61-.04,14.29,0,2.4-.02,4.79-.03,7.16,0,2.18,0,4.36-.01,6.54v3.27c.01.12-.05.31.03.37h.41s.81,0,.81,0h1.63c10.37.05,20.68.1,31.47.15,15.09.04,29.54.07,45.14.11,9.21-.01,18.22-.03,27.32-.04,8.05,0,16.01,0,23.91,0,3.15,0,6.36,0,9.61,0,1.62,0,3.26,0,4.9,0h1.23s.62,0,.62,0l.47.03.92.06.46.02.45.09c4.86.69,9.31,4.06,11.94,8.55,1.51,2.63,2.14,4.82,2.47,6.93.04.53.14,1.06.16,1.6-.01.54.04,1.06,0,1.65-.07.59-.09,1.21-.18,1.86-.15.63-.21,1.32-.42,2.02-.13.46-.26.88-.37,1.27-.12.39-.29.73-.42,1.07-.24.69-.56,1.25-.86,1.83-.6,1.14-1.32,2.21-2.53,3.61-2.54,2.69-4.97,4.28-8.95,5.44-.37.08-.75.16-1.14.24-.39.09-.79.17-1.21.2-.42.05-.84.09-1.27.14-.43.04-.9.01-1.36.03-1.03,0-2.06,0-3.08.01-1.08,0-2.13,0-3.15,0-11.17-.02-20.97-.03-31.75-.04-3.87-.02-7.35-.04-11.21-.06-3.59,0-7.46,0-10.9-.01-3.68,0-1.26,0-6-.01Z"/>
      </g>
    </g>
    <g>
      <path class="st1" d="M305.43,685.72c81.44.16,153.76-47.9,188.26-119.73,5.65-11.76,18.84-15.12,29.47-11.01,11.05,4.27,18.68,18.24,13.15,29.97-52.53,111.44-176.22,169.79-295.43,140.17-116.47-28.93-198.34-135.12-195.58-256.34,2.71-119.12,88.13-223.41,207.64-246.81,12.11-2.37,24.06,7.01,26.49,18.02,2.93,13.24-4.78,25.91-17.98,28.87-105.56,23.7-175.76,122.43-164.15,229.07,11.38,104.54,99.81,187.57,208.12,187.78Z"/>
      <path class="st0" d="M152.4,324.06c-8.3,8.63-16.05,18.15-20.11,23.84-1.29,1.66-2.32,3.33-3.37,4.84-1.03,1.52-1.99,2.95-2.91,4.32-1.7,2.78-3.23,5.28-4.69,7.67-2.74,4.86-5.22,9.25-7.95,14.89-.56,1.17-1.29,2.48-1.96,4.01-.68,1.52-1.43,3.2-2.24,5.01-.41.9-.83,1.84-1.26,2.81-.39.98-.8,2-1.21,3.04-.82,2.09-1.72,4.27-2.58,6.57-3.38,9.21-6.54,20.06-8.78,30.87-.27,1.35-.54,2.7-.8,4.05-.27,1.34-.54,2.68-.72,4.02-.4,2.68-.8,5.31-1.19,7.88-.53,5.16-1.16,10.06-1.31,14.5-.11,2.22-.27,4.32-.32,6.27-.02,1.95-.03,3.76-.04,5.4,0,1.63-.03,3.1-.01,4.36.06,1.25.1,2.3.14,3.16.38,11.29,1.83,25.48,3.84,34.91.26,1.6.66,3.17,1.05,4.75.39,1.62.78,3.22,1.14,4.7.5,2.39,1.32,5.05,2.07,7.92.41,1.43.76,2.93,1.25,4.42.49,1.48.99,2.97,1.51,4.55.58,1.75.99,2.96,1.31,3.93.34.94.6,1.66.87,2.4.5,1.4.96,2.7,2.07,5.66.92,2.45,2.82,6.34,3.9,8.89.81,1.94,1.8,3.77,2.68,5.63.92,1.84,1.74,3.7,2.73,5.47,1.96,3.54,3.75,7.11,5.88,10.48,1.03,1.71,2.06,3.42,3.09,5.13,1.11,1.67,2.22,3.34,3.34,5.03,2.17,3.42,4.7,6.66,7.16,10.07,6.67,8.75,13.92,16.82,20.93,23.75,1.78,1.7,3.52,3.36,5.21,4.97,1.71,1.58,3.44,3.03,5.07,4.48.82.72,1.62,1.42,2.4,2.1.79.68,1.6,1.3,2.37,1.92,1.55,1.24,3.03,2.43,4.42,3.54,1.23,1.01,1.83,1.47,3.1,2.41,2.18,1.55,5.62,4.05,7.98,5.52,11.62,7.85,22.4,13.53,30.56,17.27,1.46.72,2.99,1.24,4.47,1.89,1.24.53,2.41,1.06,3.59,1.6.6.27,1.2.55,1.77.8.65.25,1.26.49,1.87.72,10.36,4.17,20.59,6.56,25.11,8.04,1.56.44,3.16.7,4.74,1.05l4.75.99c1.58.36,3.18.57,4.78.84l4.79.76,1.94.33,1.95.24c1.3.16,2.61.33,3.92.49,1.31.16,2.62.33,3.94.49,1.32.12,2.64.21,3.97.31l3.98.3c1.33.1,2.66.22,3.99.23l1.31.04h.03s.07.01.07.01c.18.01.37.03.55.04.36.02.71.04,1.02.11.26.05.59.06.75.08.12.02.16.12.28.15.18.05.46-.02.59.19.1-.35.3.05.45.05.08,0,.3-.15.49-.19.01,0,.05.07.07.07.04,0,.13-.1.17-.1.01,0,.05.07.07.07.12.02.83-.5.93-.58.07-.06.04-.13.1-.17.08-.05,0-.1.02-.12.24-.26.46-.3.52-.44.12-.29.37-.49.4-.69.01-.08.03-.16.03-.24.36-.15.24-.34.6-.49-.15-.18,0-.37,0-.55,0-.07.05-.17.03-.24,0-.05-.12-.09-.13-.14,0-.02.1-.14.1-.17.01-.28.06-.59.03-.8-.01-.12-.03-.2-.03-.31,0-.08.03-.15.03-.24,0-.09-.05-.17.03-.24.11.12.23.14.36.1-.21-.19-.02-.33-.23-.52.12-.09.13-.12.03-.24-.09-.11,0-.34-.02-.43-.02-.14-.09-.17-.18-.33-.11-.19.06-.55-.28-.71.04-.14.23-.26.27-.4-.17-.39-.48-.79-.44-1.16-.34-.02-.41-.41-.66-.57-.08-.05-.41.07-.42-.17-.23-.07-.51.18-.74.04-.24-.19.1-.32-.22-.52-.38.16-.79,0-1.17-.01-.21,0-.37.05-.59.06-.18,0-.43-.11-.59.06-.29-.22-.83-.18-1.07-.18-.04,0-.08-.13-.12-.14-.07,0-.25.08-.31.09-.08.01-.16,0-.24,0h-.12s-.06-.02-.06-.02h-.03c-.42-.01-.84-.03-1.25-.04-1.13,0-2.24-.09-3.35-.18-1.1-.08-2.19-.16-3.26-.24-2.14-.18-4.22-.25-6.19-.53-1.97-.23-3.85-.46-5.63-.67-.89-.11-1.75-.19-2.57-.31-.82-.13-1.6-.26-2.37-.38-1.21-.2-2.63-.43-4.23-.69-.81-.14-1.67-.28-2.56-.43-.89-.19-1.81-.39-2.77-.6-1.92-.42-3.96-.87-6.07-1.33-2.1-.52-4.25-1.14-6.43-1.72l-3.26-.89c-1.07-.35-2.14-.69-3.19-1.03-2.11-.69-4.19-1.33-6.15-2-1.94-.73-3.78-1.42-5.48-2.05-1.69-.62-3.24-1.2-4.53-1.78-13.07-5.32-26.54-12.6-37.62-20.17-1.15-.73-2.25-1.53-3.35-2.35-1.1-.81-2.21-1.62-3.31-2.42-2.23-1.56-4.27-3.29-6.25-4.87-.99-.79-1.95-1.57-2.87-2.31-.91-.76-1.75-1.53-2.56-2.24-1.62-1.43-3.07-2.7-4.26-3.76-1.74-1.62-4.94-4.59-6.78-6.29-1.65-1.67-3.66-3.82-5.73-5.97-2.05-2.17-3.97-4.5-5.63-6.35-1.29-1.42-2.43-2.9-3.58-4.32-1.14-1.42-2.25-2.81-3.34-4.16-2.06-2.79-4.01-5.44-5.85-8-1.74-2.62-3.4-5.12-4.99-7.52-1.49-2.46-2.91-4.82-4.28-7.1-.86-1.45-1.68-3.05-2.58-4.69-.87-1.66-1.87-3.34-2.72-5.14-1.71-3.59-3.6-7.25-5.08-10.89-.77-1.81-1.55-3.56-2.24-5.25-.65-1.71-1.26-3.34-1.83-4.85-.56-1.51-1.12-2.89-1.54-4.14-.41-1.25-.77-2.34-1.06-3.23-.66-2.05-1.34-3.92-1.89-5.73-.52-1.8-1.03-3.54-1.52-5.24-1.06-3.37-1.75-6.73-2.6-10.46-.38-1.59-.65-3.24-.94-4.91-.3-1.68-.6-3.38-.9-5.1-.35-1.71-.5-3.47-.75-5.22-.23-1.75-.47-3.51-.7-5.27-.33-3.53-.62-7.03-.87-10.43-.1-3.41-.22-6.7-.24-9.79.04-4.62-.07-9.21.26-13.75.06-1.14.12-2.27.17-3.4l.09-1.7.17-1.69c.22-2.25.44-4.49.66-6.72.24-2.23.63-4.44.93-6.65.16-1.1.32-2.21.49-3.31.18-1.1.42-2.18.62-3.27.43-2.18.86-4.35,1.28-6.51.52-2.14,1.05-4.28,1.57-6.42.48-2.14,1.12-4.24,1.74-6.34l.92-3.15c.3-1.05.61-2.1.98-3.12.71-2.06,1.42-4.12,2.13-6.18.34-1.03.73-2.05,1.14-3.05l1.2-3.03c1.51-4.07,3.4-7.97,5.15-11.92.94-1.95,1.94-3.86,2.9-5.8l1.46-2.89,1.59-2.83c4.37-8.14,9.6-16.25,15.17-23.79.7-.94,1.4-1.88,2.09-2.81.69-.94,1.39-1.86,2.13-2.74,1.46-1.77,2.9-3.53,4.33-5.26,1.44-1.71,2.97-3.3,4.41-4.9l2.16-2.35c.73-.76,1.48-1.48,2.21-2.2,5.54-5.96,13.3-12.67,19.66-17.84,11.52-9.14,23.31-16.68,36.35-23.28.63-.32,1.26-.65,1.9-.99.66-.3,1.32-.61,1.98-.91,1.33-.61,2.68-1.23,4.04-1.86,2.68-1.3,5.49-2.34,8.14-3.43,3.26-1.37,5.59-2.12,8.78-3.22,3.86-1.45,8.45-2.68,12.98-4.08,2.3-.58,4.6-1.16,6.83-1.72,1.14-.29,2.27-.57,3.36-.85,1.31-.36,2.58-.68,3.76-1.19,3.85-1.46,8.2-4.18,11.34-7.97,1.65-1.82,2.89-3.93,3.95-5.95.45-1.05.93-2.05,1.27-3.06.3-1.02.68-1.97.85-2.9.26-1.2.48-2.19.56-3.21.05-.51.11-1.02.17-1.56.04-.54.03-1.12.04-1.75,0-.5.03-1.01,0-1.52-.04-.52-.08-1.04-.12-1.57-.05-1.07-.27-2.14-.46-3.23l-.15-.82-.23-.85c-.16-.57-.32-1.13-.48-1.7-.44-1.08-.79-2.23-1.35-3.24-2.02-4.19-4.99-7.6-7.73-9.86-3.12-2.6-6.66-4.54-10.51-5.69-3.82-1.14-8.09-1.45-12.16-.63-3.37.71-6.81,1.44-10.41,2.2-3.61.87-7.38,1.91-11.47,2.98-4,1.23-8.01,2.46-11.99,3.76l-5.91,2.14c-1.96.73-3.96,1.38-5.88,2.21-4.56,1.89-8.84,3.55-12.81,5.5-1.78.84-3.83,1.81-5.75,2.71-11.78,5.87-23.13,12.57-34.54,20.53-1.32.92-2.69,1.83-4.03,2.81-1.33,1-2.67,2.01-4.01,3.02-1.34,1.01-2.67,2.01-3.98,3-1.29,1.01-2.52,2.06-3.73,3.05-1.18.98-2.16,1.8-3.2,2.67-2.32,1.85-4.14,3.62-6.45,5.65-3.54,3.06-6.79,6.35-10.09,9.54-1.68,1.57-3.19,3.29-4.78,4.93-1.56,1.67-3.17,3.29-4.7,4.99-1.52,1.73-2.99,3.4-4.44,5.05-.72.82-1.44,1.63-2.15,2.44-.68.84-1.35,1.67-2.03,2.5-1.35,1.66-2.69,3.32-4.05,5-1.38,1.67-2.62,3.48-3.99,5.28-1.24,1.7-2.6,3.48-3.8,5.21-1.38,2.01-2.51,3.67-3.83,5.59-.68,1.02-1.46,2.11-2.21,3.3-.74,1.2-1.51,2.45-2.29,3.7-1.54,2.53-3.18,5.06-4.42,7.39-2.18,3.93-4.16,7.32-5.86,10.83-.88,1.74-1.75,3.48-2.65,5.27-.91,1.79-1.7,3.71-2.62,5.7-.99,2.24-1.91,4.15-2.66,5.96-.74,1.82-1.41,3.48-2.09,5.14-.66,1.66-1.38,3.3-2.05,5.12-.66,1.83-1.37,3.8-2.18,6.07-1.27,3.35-2.32,6.99-3.45,10.6-1.18,3.59-2.05,7.25-2.98,10.63-.86,3.18-1.08,4-1.17,4.41-.11.41-.13.39-.5,1.92-.34,1.41-.85,3.69-1.46,6.43-.33,1.36-.58,2.86-.85,4.43-.27,1.56-.55,3.19-.84,4.84-.63,3.28-.99,6.67-1.39,9.71-.19,1.52-.38,2.96-.54,4.26-.16,1.3-.23,2.48-.33,3.47-2.78,27.04-1.11,54.5,4.28,79.85,2.87,13.63,7.34,28.79,12.81,42.59,5.43,13.83,11.74,26.31,16.9,35.24,1.3,2.32,3.67,5.84,5.1,8.22,7.49,11.97,16.61,24.23,26.21,35.01,5.14,5.73,9.32,10.2,14.81,15.48,1.83,1.85,3.86,3.61,5.82,5.35.98.87,1.95,1.73,2.9,2.57.47.42.94.83,1.4,1.24.48.39.95.77,1.4,1.15,1.84,1.52,3.49,2.88,4.94,4.07,1.16.98,2.14,1.81,3.37,2.84,2.72,2.03,5.19,3.86,7.59,5.65,2.52,1.74,4.95,3.42,7.39,5.1.61.42,1.21.85,1.84,1.26.63.4,1.26.79,1.89,1.19,1.26.79,2.53,1.59,3.82,2.41,1.3.8,2.59,1.65,3.95,2.44,1.35.76,2.74,1.54,4.2,2.36,11.38,6.7,24.22,12.86,37.44,17.88,13.21,5.03,26.77,8.98,39.46,11.72,2.61.6,5.2.94,7.7,1.4,2.51.4,4.95.92,7.38,1.22,2.43.33,4.82.64,7.19.96,1.19.15,2.36.35,3.54.45,1.18.11,2.36.22,3.54.33,2.36.22,4.72.43,7.09.65,2.38.11,4.78.22,7.21.34,1.21.05,2.44.11,3.68.16,1.24.05,2.49.01,3.75.02,2.48-.02,5.05-.03,7.75-.05,3.58,0,7.96-.16,12.42-.39,2.22-.18,4.46-.37,6.64-.55,2.18-.17,4.29-.32,6.24-.57,33.15-3.96,66.63-14.11,96.69-30.71,1.1-.61,2.3-1.27,3.58-1.98,1.28-.7,2.63-1.43,3.95-2.27,2.68-1.64,5.48-3.35,8.1-4.95,5.08-3.43,9.51-6.3,10.73-7.31,2.66-1.96,4.74-3.5,6.58-4.86,1.85-1.38,3.36-2.63,4.84-3.77,1.48-1.16,2.89-2.27,4.36-3.43,1.47-1.22,3-2.59,4.83-4.21.9-.79,2.04-1.8,3.37-2.97,1.33-1.2,2.79-2.64,4.41-4.17,1.59-1.55,3.38-3.15,5.1-4.92,1.72-1.77,3.49-3.6,5.24-5.42,1.79-1.78,3.41-3.7,5.01-5.48,1.59-1.8,3.12-3.49,4.48-5.06,2.63-3.23,4.73-5.81,5.84-7.18l1.07-1.32,1.01-1.35c.67-.9,1.33-1.8,1.99-2.69,1.32-1.79,2.63-3.57,3.93-5.33,1.23-1.82,2.45-3.63,3.67-5.45,1.2-1.82,2.49-3.59,3.59-5.48,1.14-1.87,2.29-3.74,3.44-5.62.57-.94,1.15-1.89,1.72-2.84.54-.97,1.08-1.95,1.62-2.92,1.08-1.96,2.18-3.94,3.29-5.94,1.12-2,2.08-4.1,3.15-6.2.46-.93.93-1.87,1.41-2.82.24-.47.47-.95.71-1.43l.36-.72c.12-.24.24-.46.37-.8.5-1.25,1.06-2.49,1.35-3.84.16-.66.39-1.32.46-2,.09-.68.19-1.36.28-2.04.5-5.49-.8-11.03-3.38-15.71l-.47-.89-.54-.84c-.37-.56-.72-1.13-1.11-1.67-.82-1.05-1.62-2.12-2.57-3.06-.88-1-1.92-1.85-2.92-2.72-.53-.41-1.08-.8-1.62-1.19-.53-.4-1.1-.76-1.69-1.09-.59-.33-1.15-.7-1.76-.98-.62-.28-1.23-.56-1.84-.83-.62-.29-1.23-.45-1.84-.67-.61-.22-1.23-.41-1.85-.55-2.48-.69-5.02-.95-7.51-.99-2.3-.05-4.89.28-7.55.95-2.67.66-5.37,1.85-7.86,3.43-2.48,1.58-4.76,3.57-6.51,5.81-.48.53-.87,1.11-1.25,1.69-.38.58-.8,1.12-1.11,1.71-.63,1.15-1.3,2.38-1.67,3.16-3.15,6.55-7.09,13.44-11.01,19.67-3.89,6.27-7.98,11.73-10.95,15.82-3.42,4.41-2.71,3.44-5.23,6.53-5.25,6.41-11.69,13.31-17.73,18.92-12.1,11.27-25.77,21.25-39.74,28.89-3.42,2.03-8.04,4.49-13.27,6.98-1.29.66-2.67,1.21-4.05,1.83-1.39.6-2.77,1.25-4.21,1.82-2.88,1.13-5.79,2.35-8.75,3.35-5.86,2.16-11.76,3.83-16.88,5.23-2.57.67-4.97,1.2-7.08,1.73-2.12.48-3.97.83-5.45,1.15-4.65.98-9.98,1.78-15.16,2.38-2.59.33-5.15.47-7.55.71-2.41.21-4.68.27-6.7.42-1.36.1-2.35.14-3.11.14-.16,0-.31,0-.45,0h0s-.01,0-.01,0c-.02-.01-.03-.03-.06-.02-.58.1-.98-.01-1.52-.05-.41-.03-.82-.01-1.23-.03-.17.12-.18.3-.26.41-.09.13-.21.18-.25.29-.03.08.06.22.04.31.2-.13.23.21.12.25-.48.31-.44.67-.48,1.01-.2.23-.35.07-.53.15-.03.39.11.79-.36,1.14.05.19.14.38,0,.55l-.4.28c.02.23-.1.45-.16.67-.04.16-.03.34-.13.42-.11.08.06.22.04.31-.21.11-.3.23-.34.35.05.37-.05.73.16,1.12-.09.2-.14.4-.23.6.32.41.01.78.37,1.19-.01.16-.38.3-.21.48.35-.16.61.4.91.62.18-.09.36-.02.54-.03.17,0,.62-.07.69-.01.08.07.07,0,.15.01.23.02.46-.04.62-.08.12-.03.19-.02.32-.1.3.21.72.07,1.06.07.07,0,.15.07.22.08.11,0,.2-.1.32-.1.21,0,.39.09.6.04h.23c.29-.03-.91,0,2.28-.07l6.63-.36c8.84-.64,17.68-1.81,26.6-3.59,8.15-1.63,16.63-3.74,25.41-6.7,1.39-.45,2.34-.76,3.73-1.24,1.25-.45,2.87-1.03,4.48-1.68,1.66-.68,3.29-1.36,4.52-1.86.62-.24,1.22-.47,1.87-.72.57-.23,1.16-.48,1.76-.73,1.17-.48,2.34-.96,3.63-1.52,1.38-.58,2.85-1.35,4.34-2.09,1.54-.78,3.05-1.53,4.34-2.18,1.62-.85,3.54-1.86,5.67-2.98,2.09-1.19,4.39-2.5,6.8-3.87,2.35-1.48,4.87-2.96,7.33-4.58,2.45-1.65,4.97-3.25,7.33-5,9.57-6.76,17.56-13.88,19.95-16.1,3.39-3.16,6.95-6.59,10.15-9.9,1.64-1.61,3.1-3.28,4.5-4.77.69-.75,1.36-1.47,1.99-2.15.61-.7,1.18-1.37,1.71-1.98.74-.89,1.88-2.25,3.07-3.67,1.13-1.45,2.25-2.9,3-3.86,1.14-1.38,3.13-4.06,5.17-6.8,2.03-2.74,3.95-5.65,5.15-7.35,1.67-2.62,3.28-5.04,4.74-7.46.72-1.22,1.43-2.41,2.14-3.61.72-1.19,1.41-2.38,2.06-3.6,1.32-2.44,2.72-4.86,4-7.51.66-1.31,1.34-2.65,2.03-4.04.3-.55.61-1.12.92-1.69.32-.55.72-1.05,1.07-1.6,2.72-3.65,6.89-6.09,11.49-6.78,2.57-.44,5.66-.24,8.54.56.71.22,1.44.46,2.1.73.64.32,1.3.54,1.89.94.3.18.6.35.9.52.29.18.56.4.83.59.27.2.55.38.81.59.25.22.49.43.73.64,2.8,2.37,5.27,6.11,6.22,9.6.55,2.03.72,4.21.42,6.3-.11,1.05-.42,2.06-.75,3.05-.21.48-.41.96-.59,1.45-.3.6-.6,1.19-.9,1.78-.92,1.9-3.08,6.36-4.06,8.38-.36.63-1.49,2.57-1.89,3.27-.61,1.1-1.4,2.56-2.19,4.05-.4.75-.8,1.5-1.17,2.19-.38.7-.79,1.34-1.14,1.91-1.74,2.8-3.52,5.82-5.45,8.76-1.99,2.9-3.96,5.84-5.89,8.6-2.02,2.7-3.94,5.27-5.65,7.55-1.73,2.27-3.37,4.16-4.59,5.7-1.05,1.3-2.03,2.52-2.98,3.7-.98,1.12-1.93,2.21-2.86,3.28-.93,1.07-1.85,2.13-2.79,3.19-.47.54-.95,1.08-1.43,1.63-.51.53-1.02,1.07-1.55,1.62-16.46,17.72-36.96,33.25-52.25,42.3-1,.63-2.41,1.51-3.9,2.44-1.42.93-2.94,1.72-4.07,2.37-1.41.77-3.31,1.8-5.26,2.87-1.93,1.05-3.98,1.97-5.56,2.78-1.51.76-2.91,1.47-4.25,2.15-1.33.68-2.64,1.23-3.91,1.82-1.28.59-2.54,1.16-3.83,1.75-1.3.58-2.62,1.22-4.09,1.78-11.78,4.96-23.14,8.53-34.42,11.41-11.29,2.83-22.53,5.01-34.32,6.25-2.48.41-4.81.57-7.05.78-2.24.19-4.39.41-6.54.55-2.15.09-4.27.18-6.49.27-1.09.05-2.21.1-3.37.16-1.15.05-2.32.03-3.53.06-2.58-.07-4.95-.11-7.18-.13-2.23-.06-4.32-.2-6.33-.27-2.01-.1-3.96-.14-5.89-.26-1.94-.16-3.88-.32-5.84-.49-.87-.1-3.34-.26-5.86-.62-2.53-.36-5.12-.73-6.25-.88-14.13-2.01-28.63-5.29-41.91-9.59-26.88-8.68-51.45-21.53-73.67-38.23-2.09-1.57-4.11-3.06-6.06-4.59-1.9-1.58-3.78-3.13-5.68-4.7-1.93-1.54-3.77-3.24-5.73-4.97-1.94-1.75-4.05-3.48-6.13-5.5-1.14-1.15-2.26-2.27-3.38-3.4-1.16-1.16-2.37-2.33-3.52-3.6-1.18-1.25-2.36-2.52-3.56-3.8-1.2-1.28-2.44-2.55-3.58-3.92l-3.51-4.03c-1.17-1.34-2.34-2.67-3.41-4.06-1.09-1.37-2.17-2.73-3.23-4.08-1.06-1.34-2.12-2.65-3.05-4-13.71-17.92-23.72-36.27-31.09-54.26-1.13-2.81-2.24-5.57-3.33-8.28-.98-2.75-1.94-5.47-2.9-8.15-.24-.67-.47-1.34-.71-2.01l-.63-2.03c-.41-1.35-.82-2.69-1.23-4.03-.41-1.34-.82-2.68-1.23-4.01-.37-1.34-.71-2.7-1.06-4.04l-1.05-4.05c-.35-1.35-.72-2.7-.99-4.07-.59-2.74-1.18-5.49-1.78-8.27-.99-5.61-2.08-11.32-2.75-17.35-.66-4.27-1.07-10.49-1.49-14.95-.26-4.77-.35-6.41-.57-10.56-.15-4.03-.11-6.34-.1-11.32.03-2.14.15-3.04.25-5.47.09-2.08.19-4.28.29-6.38.22-2.44.44-4.92.65-7.4.11-1.24.2-2.48.34-3.7.16-1.22.32-2.44.48-3.65.38-2.81.64-5.29,1.02-7.71.41-2.42.82-4.79,1.26-7.38.4-2.61,1.06-5.2,1.61-7.83.58-2.62,1.13-5.25,1.87-7.83.7-2.59,1.37-5.19,2.09-7.74.79-2.54,1.58-5.05,2.35-7.53,4.15-12.69,8.97-24.23,14.86-35.92.87-1.71,1.75-3.44,2.63-5.18.95-1.7,1.91-3.41,2.87-5.12.98-1.7,1.87-3.45,2.91-5.11,1.02-1.67,2.04-3.32,3.05-4.97.58-.94,1.17-1.9,1.77-2.88.64-.95,1.29-1.91,1.93-2.87,1.29-1.92,2.57-3.82,3.78-5.6,1.39-1.88,2.73-3.69,4.08-5.52.68-.92,1.36-1.84,2.06-2.78.71-.94,1.48-1.85,2.25-2.82,9.71-12.25,20.19-23.33,32.09-33.82,1.98-1.84,4.23-3.61,6.44-5.44,1.11-.91,2.21-1.82,3.3-2.72,1.09-.89,2.23-1.7,3.29-2.52,3.06-2.29,3.85-3,6.55-4.94,3.2-2.22,5.44-3.82,8.64-5.94,1.55-.99,2.5-1.6,3.92-2.51,1.33-.84,2.69-1.7,4.06-2.57,1.41-.81,2.84-1.63,4.28-2.45,1.43-.82,2.87-1.63,4.29-2.44,1.41-.82,2.88-1.5,4.27-2.24,14.9-7.7,28.75-13.18,44.47-17.88.77-.24,1.54-.47,2.31-.71l2.33-.61c1.55-.41,3.1-.81,4.64-1.21,1.55-.38,3.07-.85,4.64-1.17,1.56-.34,3.12-.67,4.68-1.01,1.56-.34,3.13-.68,4.7-1.02.19-.04.42-.1.57-.12l.45-.05.9-.12c.6-.07,1.22-.03,1.83-.07,2.46.07,4.98.79,7.36,2.03,2.83,1.44,5.25,3.69,7.08,6.22.84,1.31,1.66,2.64,2.14,4.07.16.35.25.71.34,1.06.09.37.23.69.29,1.09l.2,1.18.11.59.04.59c.54,5.59-1.34,11.25-5.17,15.05-1.5,1.53-3.29,2.85-5.33,3.77-1.03.44-2.08.87-3.19,1.13l-.85.24-1.07.27-2.15.54c-1.44.36-2.87.72-4.31,1.07l-2.16.54c-.72.19-1.42.42-2.13.63-2.83.86-5.67,1.67-8.44,2.56-3.22,1.12-5.58,1.95-7.94,2.77-2.35.82-4.62,1.81-7.72,3.02-1.01.41-1.87.75-2.65,1.06-.76.35-1.45.66-2.12.96-1.35.62-2.69,1.24-4.65,2.15-.97.46-1.89.87-2.76,1.32-.86.46-1.7.9-2.55,1.35-1.73.91-3.49,1.84-5.52,2.91-1.49.82-3.13,1.8-4.82,2.76-1.68.99-3.42,1.92-4.95,2.9-2.11,1.35-4.16,2.65-6.17,3.94-1.02.62-1.98,1.3-2.94,1.98-.96.68-1.92,1.35-2.87,2.02-3.87,2.6-7.43,5.54-11.27,8.45-2.66,2.25-5.05,4.21-7.68,6.47-2.36,2.2-4.89,4.56-7.15,6.66-2.32,2.35-.8.81-3.78,3.83Z"/>
    </g>
  </g>
</svg>