<?xml version="1.0" encoding="UTF-8"?><svg preserveAspectRatio="none" id="Ebene_1" xmlns="http://www.w3.org/2000/svg" viewBox="0 0 900 209.52"><defs><style>.cls-1{fill:#e5b969;fill-rule:evenodd;}</style></defs><path class="cls-1" d="M605.78,201.65c3.76-2.11,7.61-.02,9.81-.3,5.28-.7,7.69-3.44,11.63-3.6,6.55-.27,28.93,5.37,33.14,2.85,3.55-2.13,8.02,1.02,11.05.95,1.02-.03,2.04-1.82,3.05-2.04,1.54-.34,3.49,1.69,5.52.47,2.27-1.36,2.01,1.16,4,1.5.82.14,2.18-2.01,3.05-2.04,5.29-.19,10.03.25,15.33.17,6.92-.11,13.62-.41,18.1.41.5.09.74,1.17,1.24,1.26.84.14,2.18-2.08,3.05-2.04,4.41.21,8.22.97,11.05.95.51,0,1.02-1.02,1.53-1.02.85,0,1.62,2.46,2.47,2.51,3.5.19,6.79-4.04,8.28.71,2.03-1.36,4.07-2.72,6.1-4.08,13.16,2.46,27.42,1.35,38.67,3.33,4.78.84,10.75.83,13.81,1.19,2.15.25,3.01,2.22,5.24,2.75,3.3.8,8.44-.52,10.76,3.23,1.64-6.59,5.42.86,8.28.71,1.4-.08,5.4-3.01,8.86-3.84.24-.05.97,1.21,1.24,1.26.72.12,2.29-1.88,3.05-2.04.26-.05.95,1.2,1.24,1.26,2.14.36,15.05-9.68,16.78-11.21,1.26-1.12.69-2.46,1.81-3.29,1.37-1.02-.05-1.89.29-2.28,4.3-5.04,8.43-5.91,9.44-8.39,2.23-5.5,6.78-9.41,7.25-13.18.19-1.52.61-3.02.57-4.55,6.53-2.89,4.43-6.52,10.97-9.41-2.79-3.29-.1-7-.09-10.36,0-1.35.83-3.16.58-4.55-.17-.93-2.18-1.6-2.47-2.51-.15-.46,1.79-2.69,1.81-3.29.18-5.32.99-11.08.49-14.91-.28-2.15-.65-3.81-.66-5.81,0-1.46.63-2.91.58-4.55-.06-1.65-1.01-3.07.58-4.55,2.04,2.21,4.34,2.43,6.76,1.73-4.02-3.41-.35-6.16-4.37-9.58,2.27-1.72,2.51-2.36.58-4.55-1.71-1.93-.18-6.38-.37-8.08-.29-2.56-1.7-3.11-3.42-6.05-2.02-3.45,1.04-10.33-5.32-13.11.75-2.62,4.41-4.99,5.15-7.61-3.31-7.19-9.14-14.59-8.45-21.43-6.48-.27-7.79-7.39-12.65-10.29-1.53-.91-7.83,1.58-8-2.99-4.5-1.22-9.77,3.67-14.1,1.09-4.64-3.47,1.88-5.97-4.37-9.58-7.31,3.23-15.21.27-22.38.37-4,.05-7.09,1.11-11.34,1.32-3.46.17-8.34-1.87-11.33,1.33-5.75-3.93-16.06-2.9-20.57-2.92-.84,0-1.63-2.48-2.47-2.51-1.36-.05-4.73,1.63-5.81,1.8-5.86.91-12.82-1.58-16.86.85-3.17,1.89-11.58-.27-15.34-.17-4.65.12-9.68.99-14.1,1.09-3.57.08-7.42-1.61-9.52-1.97-.82-.14-2.18,2-3.05,2.04-1.54.06-3.88-.51-5.52-.47-5.05.11-9.07.08-12.57.07-4.44-.01-11.34-1.49-13.81-1.19-2.84.34-4.81,4.04-7.34,2.82-4.3-2.77-9.45,1.13-13.52-3.46-12.19,4.35-23.56,2.29-34.95.44-6.09.28-12.7,4.7-18.1-.4-2.68.04-6.05-1.16-8.76-1.15-4.85.01-9.44.21-14.26.58-1.86.14-3.91.17-5.8.07-1.17-.06-1.97-.52-3.08-.68-2.72-.39-6.25.04-8.98.02-2.21-.02-5.27-.16-7.3.65-.65.26-1.08.7-1.76.97-2.14.87-5.03.25-6.94-.69-4.39-2.14-8.15-5.43-13.48-5.36-2.64.04-5.29,0-7.93,0-1.56,0-3-.08-4.4.31-.63.18-1.33.59-2.01.79-4.15,1.18-8.3,2.34-12.69,2.65-2.03.14-4.25-.29-6.23.02-.49.08-.88.45-1.32.53-.94.17-1.74.15-2.71.14-2.95-.02-5.84.19-8.72-.41s-5.43-2.05-8.29-2.66c-.66-.14-1.37-.03-2.04-.21-.78-.21-1.39-.81-2.14-1.04-1.54-.47-3.68-.76-5.34-.74-2.83.03-4.95.14-7.73.81-3.09.73-4.55-.12-7.59-.2-2.26-.05-4.79.38-7,.08-2.08-.29-1.07-.88-2.06-2.02-1.83-2.11-8.09.67-10.59.73-8.57.22-17.15-2.83-25.32-.7-8.79,2.29-19.88-.01-26.38-1.12-.84-.14-2.17,2.07-3.05,2.04-4.45-.18-9.26-.91-13.81-1.19-2.43-.15-4.36-1.5-6.76-1.73-3.28-.32-6.97,4.14-8.29-.71-4.14,3.31-7.48.29-11.63,3.6-8.33-4.02-17.91,1.77-26.09-3.39-6.76,5.61-11.99-.85-18.67,4.14-2.26-4.17-5.52-.5-7.99-2.99-10.53,2.97-21.37.95-32.19.68-3.16-.08-8.82-.29-9.81.3-4.07,2.45-5.21-2.55-8.28-.71-2.96,1.77-13.11-.15-15.33-.17-5.72-.05-10.93.93-16.86.85-5.26-.07-11.31-1.33-16.57-1.42-2.43-.04-6,1.55-8.57,1.56-4.8.02-10.47-3.19-13.81-1.19-1.84,1.1-1.45-.34-2.76-.24-2.74.21-5.85,1.7-8.57,1.56-5.46-.28-11.01-1.7-16.28-3.7-5.26,5.79-17.14-.77-21.15,1.63-3.14,1.88-7.13-1.3-9.81.31-1.81,1.08-1.6-.41-2.77-.24-11.18,1.62-18.72-.55-29.14-1.36-7.9-.61-15.68-.48-23.62-.88-3.26,2.26-3.62,5.5-5.15,7.61-1.79,2.46-4.07,3.23-4.86,5.33-.57,1.53,1.07,4.18.66,5.81,3.87-2.36,4.41,3.94,2.18,4.79-9.26,5.72-8.57,12.3-9.35,18.75-3.81,4.33-6.67,1.17-10.1,2.58-.66,7.23,2.06,14.75-6.88,21.26.92,3.53,2.65,7.13.08,10.36l-7.63,5.1c.46,4.23-1.92,8.3-2.97,12.4-.76,2.96-.48,6.43-2.39,7.85-2.07,1.54,1.16,4.09.66,5.81-3.93,1.96-5.65,4.12-6.39,6.35.88,6.98-.89,13.73,2.93,20.96-1.68,3.69-2.52,7.45-4.2,11.14,6.01,7.8.29,14.59,6.93,22.45-.22,3.05-6.93,5.54-3.91,8.87,6.4-2.81,11.11,7.75,16.65,11.79,3.25-1.54,6.64-.28,9.81-.31,3.16-.02,11.37-1.16,12.57-.06,1.52,1.39,1.27.09,2.76.23,4.21.41,8.38-.63,11.34-1.32,2.26-.53,3.51-.34,5.81-1.8,5.43,4.09,13.22,1.53,19.33,1.66,1.25.02,2.72,1.42,4,1.49,2.07.11,3.65-1.79,5.81-1.8,3.8-.02,7.17,1.73,11.05.95,5.65-.1,11.13-.91,16.86-.85,2.62.02,5.37.52,8.28.71.46.03.77,1.18,1.24,1.26.84.14,2.17-2.06,3.05-2.04.87.02,1.59,2.44,2.47,2.51.94.08,2.09-2.04,3.05-2.04,4.62,0,16.04,1.64,18.1.4,2.92-1.75,6.24.36,8.29.71.76.13,2.24-1.92,3.05-2.04,1.13-.16,4.21.45,5.53.48,3.91.08,6.86.6,11.05.95,1.83.15,3.68.31,5.52.47,2.07.18,4.75,1.72,6.76,1.73,1.45,0,3.13-2.77,4.57-3.06,1.69-.34,3.5,2.45,5.23,2.75.72.12,2.28-1.88,3.05-2.04.26-.05.95,1.21,1.24,1.26.83.14,2.18-2.02,3.05-2.04,4.32-.09,9.7,2.29,12.28,2.21,2.2-.07,3.81-1.81,5.81-1.8,7.91.04,16.27.91,22.09,1.9.81.14,2.2-1.98,3.05-2.04,1.07-.08,2.83,1.53,4,1.5,2.23-.07,3.76-1.85,5.81-1.8,8.37.18,15.56,2.45,23.33,3.16,3.29-3.92,5.69-.87,8.86-3.84,3.38,4.42,5.67,1.28,8.28.71.57-.13,3.24,1.49,4,1.49,4.68.04,9.53-1.31,14.1-1.09,9.26.46,18.21,2.4,27.33,4.65,3.43-1.41,6.29,1.75,10.1-2.58,4.07,4.59,9.22.69,13.52,3.47,7.4-3.27,14.18-1.77,20.57,2.92,7.96,0,14.63,1.92,22.59,1.92,1.42,0,3.46.22,4.93.01,1.61-.23,2.14-.81,3.47-1.79s2.08-1.62,3.71-1.08c.7.23,1,.72,1.8.91.68.16,1.41.04,2.1.04,1.61,0,3.27.09,4.87-.06,1.86-.17,3.27-.97,5.01-1.26,3.47-.58,7.08.59,10.49.69,4.38.13,8.47,1.03,12.77,1.3,2.52.15,5.14-.03,7.67-.03,1.45,0,3.05-.18,4.46.05,1.54.24,2.94.99,4.57,1.18,5.13.6,10.12.7,15.33.7,1.77,0,3.76.2,5.53.01,1.25-.13,1.6-.44,2.69-.92,1.28-.56,2.18-.15,3.44-.34.61-.09.97-.42,1.53-.55,2.06-.47,4.33-.08,6.4.16,5.51.63,10.37,3.01,15.77,4.15,4.25.9,8.32,1.59,12.73,1.36,2.6-.14,5.14-.87,7.7-1.19,2.27-.28,4.52-.07,6.74-.45,3.55-.6,7.38-.28,11.05-.32,2.14-.03,3.15.33,5.25.9,1.37.38,1.89.52,3.24.01s2.36-1.73,3.83-2.1c1.07-.27,2.41-.11,3.55-.1,3.15.01,5.92.16,8.95.77,1.1.22,2.07.83,3.16,1.05,1.01.21,2.1-.04,3.07.17,1.04.22.35.26,1.69.24Z"/></svg>