<?xml version="1.0" encoding="UTF-8"?>
<svg id="Ebene_1" xmlns="http://www.w3.org/2000/svg" version="1.1" viewBox="0 0 800 800">
  <!-- Generator: Adobe Illustrator 30.4.0, SVG Export Plug-In . SVG Version: 2.1.4 Build 226)  -->
  <defs>
    <style>
      .st0 {
        fill-rule: evenodd;
      }

      .st0, .st1 {
        fill: #e5b969;
      }
    </style>
  </defs>
  <path class="st0" d="M-353.33,1207.83c3.76-2.11,7.61-.02,9.81-.3,5.28-.7,7.69-3.44,11.63-3.6,6.55-.27,28.93,5.37,33.14,2.85,3.55-2.13,8.02,1.02,11.05.95,1.02-.03,2.04-1.82,3.05-2.04,1.54-.34,3.49,1.69,5.52.47,2.27-1.36,2.01,1.16,4,1.5.82.14,2.18-2.01,3.05-2.04,5.29-.19,10.03.25,15.33.17,6.92-.11,13.62-.41,18.1.41.5.09.74,1.17,1.24,1.26.84.14,2.18-2.08,3.05-2.04,4.41.21,8.22.97,11.05.95.51,0,1.02-1.02,1.53-1.02.85,0,1.62,2.46,2.47,2.51,3.5.19,6.79-4.04,8.28.71,2.03-1.36,4.07-2.72,6.1-4.08,13.16,2.46,27.42,1.35,38.67,3.33,4.78.84,10.75.83,13.81,1.19,2.15.25,3.01,2.22,5.24,2.75,3.3.8,8.44-.52,10.76,3.23,1.64-6.59,5.42.86,8.28.71,1.4-.08,5.4-3.01,8.86-3.84.24-.05.97,1.21,1.24,1.26.72.12,2.29-1.88,3.05-2.04.26-.05.95,1.2,1.24,1.26,2.14.36,15.05-9.68,16.78-11.21,1.26-1.12.69-2.46,1.81-3.29,1.37-1.02-.05-1.89.29-2.28,4.3-5.04,8.43-5.91,9.44-8.39,2.23-5.5,6.78-9.41,7.25-13.18.19-1.52.61-3.02.57-4.55,6.53-2.89,4.43-6.52,10.97-9.41-2.79-3.29-.1-7-.09-10.36,0-1.35.83-3.16.58-4.55-.17-.93-2.18-1.6-2.47-2.51-.15-.46,1.79-2.69,1.81-3.29.18-5.32.99-11.08.49-14.91-.28-2.15-.65-3.81-.66-5.81,0-1.46.63-2.91.58-4.55-.06-1.65-1.01-3.07.58-4.55,2.04,2.21,4.34,2.43,6.76,1.73-4.02-3.41-.35-6.16-4.37-9.58,2.27-1.72,2.51-2.36.58-4.55-1.71-1.93-.18-6.38-.37-8.08-.29-2.56-1.7-3.11-3.42-6.05-2.02-3.45,1.04-10.33-5.32-13.11.75-2.62,4.41-4.99,5.15-7.61-3.31-7.19-9.14-14.59-8.45-21.43-6.48-.27-7.79-7.39-12.65-10.29-1.53-.91-7.83,1.58-8-2.99-4.5-1.22-9.77,3.67-14.1,1.09-4.64-3.47,1.88-5.97-4.37-9.58-7.31,3.23-15.21.27-22.38.37-4,.05-7.09,1.11-11.34,1.32-3.46.17-8.34-1.87-11.33,1.33-5.75-3.93-16.06-2.9-20.57-2.92-.84,0-1.63-2.48-2.47-2.51-1.36-.05-4.73,1.63-5.81,1.8-5.86.91-12.82-1.58-16.86.85-3.17,1.89-11.58-.27-15.34-.17-4.65.12-9.68.99-14.1,1.09-3.57.08-7.42-1.61-9.52-1.97-.82-.14-2.18,2-3.05,2.04-1.54.06-3.88-.51-5.52-.47-5.05.11-9.07.08-12.57.07-4.44-.01-11.34-1.49-13.81-1.19-2.84.34-4.81,4.04-7.34,2.82-4.3-2.77-9.45,1.13-13.52-3.46-12.19,4.35-23.56,2.29-34.95.44-6.09.28-12.7,4.7-18.1-.4-2.68.04-6.05-1.16-8.76-1.15-4.85.01-9.44.21-14.26.58-1.86.14-3.91.17-5.8.07-1.17-.06-1.97-.52-3.08-.68-2.72-.39-6.25.04-8.98.02-2.21-.02-5.27-.16-7.3.65-.65.26-1.08.7-1.76.97-2.14.87-5.03.25-6.94-.69-4.39-2.14-8.15-5.43-13.48-5.36-2.64.04-5.29,0-7.93,0-1.56,0-3-.08-4.4.31-.63.18-1.33.59-2.01.79-4.15,1.18-8.3,2.34-12.69,2.65-2.03.14-4.25-.29-6.23.02-.49.08-.88.45-1.32.53-.94.17-1.74.15-2.71.14-2.95-.02-5.84.19-8.72-.41s-5.43-2.05-8.29-2.66c-.66-.14-1.37-.03-2.04-.21-.78-.21-1.39-.81-2.14-1.04-1.54-.47-3.68-.76-5.34-.74-2.83.03-4.95.14-7.73.81-3.09.73-4.55-.12-7.59-.2-2.26-.05-4.79.38-7,.08-2.08-.29-1.07-.88-2.06-2.02-1.83-2.11-8.09.67-10.59.73-8.57.22-17.15-2.83-25.32-.7-8.79,2.29-19.88-.01-26.38-1.12-.84-.14-2.17,2.07-3.05,2.04-4.45-.18-9.26-.91-13.81-1.19-2.43-.15-4.36-1.5-6.76-1.73-3.28-.32-6.97,4.14-8.29-.71-4.14,3.31-7.48.29-11.63,3.6-8.33-4.02-17.91,1.77-26.09-3.39-6.76,5.61-11.99-.85-18.67,4.14-2.26-4.17-5.52-.5-7.99-2.99-10.53,2.97-21.37.95-32.19.68-3.16-.08-8.82-.29-9.81.3-4.07,2.45-5.21-2.55-8.28-.71-2.96,1.77-13.11-.15-15.33-.17-5.72-.05-10.93.93-16.86.85-5.26-.07-11.31-1.33-16.57-1.42-2.43-.04-6,1.55-8.57,1.56-4.8.02-10.47-3.19-13.81-1.19-1.84,1.1-1.45-.34-2.76-.24-2.74.21-5.85,1.7-8.57,1.56-5.46-.28-11.01-1.7-16.28-3.7-5.26,5.79-17.14-.77-21.15,1.63-3.14,1.88-7.13-1.3-9.81.31-1.81,1.08-1.6-.41-2.77-.24-11.18,1.62-18.72-.55-29.14-1.36-7.9-.61-15.68-.48-23.62-.88-3.26,2.26-3.62,5.5-5.15,7.61-1.79,2.46-4.07,3.23-4.86,5.33-.57,1.53,1.07,4.18.66,5.81,3.87-2.36,4.41,3.94,2.18,4.79-9.26,5.72-8.57,12.3-9.35,18.75-3.81,4.33-6.67,1.17-10.1,2.58-.66,7.23,2.06,14.75-6.88,21.26.92,3.53,2.65,7.13.08,10.36-2.54,1.7-5.08,3.4-7.63,5.1.46,4.23-1.92,8.3-2.97,12.4-.76,2.96-.48,6.43-2.39,7.85-2.07,1.54,1.16,4.09.66,5.81-3.93,1.96-5.65,4.12-6.39,6.35.88,6.98-.89,13.73,2.93,20.96-1.68,3.69-2.52,7.45-4.2,11.14,6.01,7.8.29,14.59,6.93,22.45-.22,3.05-6.93,5.54-3.91,8.87,6.4-2.81,11.11,7.75,16.65,11.79,3.25-1.54,6.64-.28,9.81-.31,3.16-.02,11.37-1.16,12.57-.06,1.52,1.39,1.27.09,2.76.23,4.21.41,8.38-.63,11.34-1.32,2.26-.53,3.51-.34,5.81-1.8,5.43,4.09,13.22,1.53,19.33,1.66,1.25.02,2.72,1.42,4,1.49,2.07.11,3.65-1.79,5.81-1.8,3.8-.02,7.17,1.73,11.05.95,5.65-.1,11.13-.91,16.86-.85,2.62.02,5.37.52,8.28.71.46.03.77,1.18,1.24,1.26.84.14,2.17-2.06,3.05-2.04.87.02,1.59,2.44,2.47,2.51.94.08,2.09-2.04,3.05-2.04,4.62,0,16.04,1.64,18.1.4,2.92-1.75,6.24.36,8.29.71.76.13,2.24-1.92,3.05-2.04,1.13-.16,4.21.45,5.53.48,3.91.08,6.86.6,11.05.95,1.83.15,3.68.31,5.52.47,2.07.18,4.75,1.72,6.76,1.73,1.45,0,3.13-2.77,4.57-3.06,1.69-.34,3.5,2.45,5.23,2.75.72.12,2.28-1.88,3.05-2.04.26-.05.95,1.21,1.24,1.26.83.14,2.18-2.02,3.05-2.04,4.32-.09,9.7,2.29,12.28,2.21,2.2-.07,3.81-1.81,5.81-1.8,7.91.04,16.27.91,22.09,1.9.81.14,2.2-1.98,3.05-2.04,1.07-.08,2.83,1.53,4,1.5,2.23-.07,3.76-1.85,5.81-1.8,8.37.18,15.56,2.45,23.33,3.16,3.29-3.92,5.69-.87,8.86-3.84,3.38,4.42,5.67,1.28,8.28.71.57-.13,3.24,1.49,4,1.49,4.68.04,9.53-1.31,14.1-1.09,9.26.46,18.21,2.4,27.33,4.65,3.43-1.41,6.29,1.75,10.1-2.58,4.07,4.59,9.22.69,13.52,3.47,7.4-3.27,14.18-1.77,20.57,2.92,7.96,0,14.63,1.92,22.59,1.92,1.42,0,3.46.22,4.93.01,1.61-.23,2.14-.81,3.47-1.79s2.08-1.62,3.71-1.08c.7.23,1,.72,1.8.91.68.16,1.41.04,2.1.04,1.61,0,3.27.09,4.87-.06,1.86-.17,3.27-.97,5.01-1.26,3.47-.58,7.08.59,10.49.69,4.38.13,8.47,1.03,12.77,1.3,2.52.15,5.14-.03,7.67-.03,1.45,0,3.05-.18,4.46.05,1.54.24,2.94.99,4.57,1.18,5.13.6,10.12.7,15.33.7,1.77,0,3.76.2,5.53.01,1.25-.13,1.6-.44,2.69-.92,1.28-.56,2.18-.15,3.44-.34.61-.09.97-.42,1.53-.55,2.06-.47,4.33-.08,6.4.16,5.51.63,10.37,3.01,15.77,4.15,4.25.9,8.32,1.59,12.73,1.36,2.6-.14,5.14-.87,7.7-1.19,2.27-.28,4.52-.07,6.74-.45,3.55-.6,7.38-.28,11.05-.32,2.14-.03,3.15.33,5.25.9,1.37.38,1.89.52,3.24.01s2.36-1.73,3.83-2.1c1.07-.27,2.41-.11,3.55-.1,3.15.01,5.92.16,8.95.77,1.1.22,2.07.83,3.16,1.05,1.01.21,2.1-.04,3.07.17,1.04.22.35.26,1.69.24Z"/>
  <path class="st0" d="M1754.4,319.74c-1.93-1.45-3.48-3.26-4.78-4.96-1.29-1.71-2.33-3.31-3.27-4.32-4.51-4.85-7.5-6.28-10.72-10.02-1.34-1.55-3.35-4.17-5.64-7.29-2.26-3.14-4.86-6.76-7.4-10.3-5.1-7.06-10.07-13.74-12.18-15.42-3.61-2.81-5.88-8.17-8.28-11.1-.81-.98-2.31-1.43-3.18-2.35-1.33-1.4-2.07-3.93-4.13-5.55-2.28-1.82-1.1-2.34-2.5-4.41-.58-.85-2.47-1.53-3.16-2.38-4.16-5.16-7.65-9.97-11.77-15.17-5.31-6.84-10.54-13.42-13.62-18.12-.34-.52-.1-1.09-.44-1.61-.58-.88-2.48-1.53-3.14-2.42-3.23-4.48-5.79-8.54-7.92-11.36-.38-.51-1.17-.71-1.55-1.22-.64-.85-.23-2.36-.85-3.23-2.55-3.57-6.72-5.6-5.93-8.51l-6.15-4.95c-1.09-1.75-2.22-3.51-3.38-5.26l-1.75-2.62c-.38-.55-.37-.57-.5-.79l-.32-.53c-.87-1.41-1.78-2.79-2.69-4.14-1.82-2.7-3.57-5.3-4.76-7.84-1.03-2.16-2.74-4.54-3.47-5.86-.51-.93.04-1.85-.38-2.89-.62-1.55-2.62-3.22-1.76-5.23-3.15,1.26-1.2-2.41-2.08-3.51-.43-.54-2.77-1.28-4.1-2.42-.09-.08.22-.74.16-.86-.16-.32-1.41-.37-1.69-.63-.1-.09.23-.73.16-.86-.45-.96-8.19-3.26-9.31-3.52-.81-.19-1.2.43-1.86.22-.8-.26-.76.56-1.01.54-3.28-.29-4.8-1.71-6.1-1.4-2.88.68-5.78-.04-7.46.84-.68.36-1.41.62-2.03,1.07-3.04-1.82-3.93.07-6.98-1.76-.56,2.07-2.85,2.04-4.23,2.99-.56.38-1.53.56-2.03,1.06-.33.33-.04,1.34-.33,1.72-.15.19-1.62.04-1.87.2-2.24,1.44-4.83,2.76-6.26,4.05-.8.73-1.38,1.35-2.2,1.93-.6.42-1.38.57-2.04,1.06-.66.49-.97,1.29-2.03,1.06.32-1.47-.25-2.47-1.23-3.26-.25,2.62-2.43,1.9-2.68,4.52-1.36-.44-1.69-.36-2.04,1.06-.3,1.25-2.57,1.89-3.21,2.46-.97.85-.79,1.59-1.5,3.13-.83,1.82-4.54,2.51-3.85,5.93-1.29.44-3.32-.4-4.61.04-1.99,3.42-3.34,7.95-6.35,9.62,1.77,2.76-.77,5.35-.54,8.2.07.9,2.93,2.8,1.11,4.18.81,2.22,4.34,3.01,4.55,5.55-.06,2.93-2.99.94-2.64,4.58,3.45,2.1,4.61,6.21,6.77,9.15,1.21,1.64,2.55,2.61,3.89,4.3,1.1,1.38,1.71,3.99,3.89,4.3.11,3.52,3.56,7.5,4.93,9.34.25.35-.52,1.4-.27,1.75.39.57,2.08,1.46,2.47,1.85.53.53,1,1.16,1.43,1.81l.63.99.31.49.15.24.14.2.21.3c2.2,3.17,4.3,6.06,6.34,7.81,1.6,1.37,3.77,4.43,5.96,7.6,2.19,3.17,4.35,6.48,5.83,8.41,3.67,4.79,7.91,9.74,11.4,14.29,2.85,3.65,5.21,8.12,6.72,10.4.59.89,2.52,1.64,3.21,2.52,1.24,1.57,2.86,4.15,4.17,5.83,4.03,5.16,7.23,9.26,10.03,12.84,3.54,4.53,8.48,12.03,10.57,14.46,2.42,2.77,5.48,3.62,7.04,6.55,2.4,5.22,8.09,9.2,9.6,14.76,5.8,5.47,10.89,11.17,15.55,17.05,2.34,2.93,4.57,5.92,6.79,8.89l6.61,8.93c5.19,5.96,12.32,11.14,14.95,18.08,2.27,2.63,4.66,6.34,6.94,9.01,4.09,4.78,8.02,9.26,12.29,13.82,1.64,1.77,3.4,3.77,4.97,5.65.97,1.16,1.49,2.1,2.37,3.24,2.17,2.79,5.34,6.1,7.67,8.77,1.9,2.14,4.49,5.15,6.54,6.85.66.55,1.19.82,1.88,1.38,2.17,1.78,4.43,4.78,5.74,6.95,1.49,2.48,2.75,4.91,4.21,7.36,1.48,2.43,3.17,4.88,5.52,7.43,2.31,2.53,4.62,5.07,6.93,7.61,1.36,1.49,2.6,2.91,3.96,4.11.61.54,1.38,1.08,2.04,1.66,4.07,3.57,8.19,7.1,12.18,11.17,1.85,1.88,3.66,4.14,5.52,5.91.46.44.94.68,1.36,1.07.89.83,1.59,1.6,2.44,2.52.51.54,1.02,1.08,1.52,1.62.15.18.28.38.31.63.07.51-.34,1.13-.4,1.51-.01.09.1.13.07.23-.04.11-.3.27-.36.37-.06.1-.1.21-.1.3,0,.08-.01.13.04.17.16.14.31.22.88.33.65.14.18.27.28.43.04.06.17.13.28.2.04.03.13.07.11.1-.04.03-.1.05-.19.08-.33.08-.69-.01-1.55-.07-.78-.06-.71,0-.51.11.21.11.55.3.51.35-.15.19-.76.21-1.13.21-.4.01-.57,0-.35.5.06.14.08.26.07.36,0,.05-.01.1-.03.14.12-.08-.32.28-.58.5l-.88.72c-2.35,1.91-4.8,3.77-7.21,5.54-4.82,3.53-9.49,6.66-12.92,9.01-.88.61-1.54,2.53-2.42,3.21-4.52,3.44-9.55,6.95-14.2,10.43-2.48,1.86-4.83,2.85-7.3,4.65-3.39,2.46-5.7,7.12-8.52,6.26-3.13,4.57-7.41,6.02-10.53,10.59-9.59,4.99-17.38,14.82-27.18,19.25-5.03,7.54-12.27,9.13-17.42,16.36-3.56.15-5.68,4.16-8.93,5.13-9.63,9.48-21.11,17.23-32.03,25.67-3.19,2.46-8.92,6.84-9.73,7.86-3.32,4.17-6.01,3.11-8.52,6.25-2.41,3.03-13.18,10.28-15.41,12.03-5.74,4.49-10.66,8.98-16.62,13.63-5.28,4.12-11.74,8.4-17.03,12.51-2.45,1.9-5.53,5.34-8.1,7.38-4.8,3.79-11.47,7.01-14.2,10.43-1.51,1.89-1.55,1.01-2.84,2.09-2.68,2.24-5.33,5.28-8.1,7.38-5.56,4.2-11.56,8.02-17.45,11.39-3.48,6.42-17.41,13.22-20.67,17.32-2.57,3.22-7.54,5.12-9.73,7.86-.37.46-.66.76-.91.97-.15.12-.19.14-.23.16-.05.02-.1.03-.14.03-.19.01-.39-.04-.59.17-3.89,4.1-7.52,5.57-11.87,8.48-3.29,2.2-6.31,4.66-9.55,6.96-.58,1.9.28,3.28.33,4.58.06,1.52-.6,2.53-.26,3.6.25.78,1.71,1.31,2.06,2.08.79-2.12,2.95.18,2.34,1.21-1.87,5.11.44,7.48,2.13,10.26-.16,2.88-2.26,2.52-3.17,4.14,1.98,3.04,5.37,5.15,3.88,10.48,1.45,1.1,3.25,1.98,3.24,4.04l-1.42,4.36c1.49,1.52,1.82,3.85,2.67,5.79.62,1.4,1.8,2.68,1.49,3.82-.34,1.24,1.72,1.25,2.05,2.08-.94,1.99-.95,3.37-.54,4.47,2.5,2.47,3.9,5.67,7.63,7.33.48,1.97,1.31,3.71,1.8,5.68,4.77,1.2,4.63,5.64,9.67,6.67.86,1.27-1.01,4.32,1.21,4.69,1.65-3.08,6.76-.39,10.19-.52.8-1.61,2.52-2.17,3.76-3.16,1.23-.99,4.11-3.98,4.92-3.92,1.03.07.53-.36,1.16-.76,1.78-1.14,3.1-2.84,4.04-4.03.72-.91,1.28-1.22,1.73-2.51,3.4-.07,5.67-3.49,8.11-5.33.5-.38,1.51-.28,2.03-.65.85-.6.88-1.83,1.73-2.51,1.48-1.18,3.35-1.54,4.63-3.04.69-.61,7.83-6.75,13.21-10.94,2.63-2.06,5.54-4.03,8.52-6.26.47-.35,1.14-.15,1.63-.48.88-.61,1.53-2.52,2.42-3.21.88-.68,2.34-.3,3.25-.96.97-.71,1.46-2.45,2.42-3.21,4.63-3.64,16.57-12.01,18.25-14.12,2.38-2.99,6.36-4.78,8.52-6.26.8-.55,1.65-2.52,2.42-3.21,1.08-.96,4.36-3.15,5.68-4.17,3.94-3.06,7.05-5.18,11.36-8.34,1.89-1.38,3.79-2.78,5.68-4.17,2.12-1.56,5.29-3.07,7.31-4.65,1.46-1.14,2.28-3.56,3.64-4.81,1.58-1.46,4.27-1.8,6.09-3.05.76-.52,1.7-2.54,2.42-3.21.25-.23,1.32-.27,1.63-.48.87-.6,1.55-2.51,2.42-3.21,4.3-3.44,10.42-6.76,12.98-8.82,2.18-1.76,3.26-3.72,5.26-5.29,7.94-6.23,16.57-12.48,22.71-16.68.85-.58,1.59-2.51,2.42-3.21,1.05-.87,3.31-1.63,4.47-2.57,2.21-1.79,3.2-3.69,5.26-5.29,8.43-6.53,16.34-11.31,24.34-17.17,2.08-4.13,5.43-4.83,7.69-8.5,4.75-.93,6.07-3.97,8.52-6.25.54-.5,3.71-1.97,4.46-2.57,4.7-3.67,9.14-8.03,13.79-11.55,9.41-7.12,18.98-13.42,28.81-19.73,3-3.26,6.84-4.28,9.31-8.98,5.5-1.41,9.45-7,14.61-9.3,6.39-7.12,13.66-11.88,21.5-15.08,1.99-1.57,3.94-3.03,5.87-4.43.97-.7,1.92-1.39,2.88-2.07l1.43-1.02.81-.58,1.32-.98c7.04-5.24,14.16-10.54,21.7-16.48,2.68-2.11,6.66-5.1,9.35-7.36,2.94-2.47,3.66-3.39,5.67-5.61,1.99-2.19,3.05-3.43,6.39-5.72,1.44-.98,2.26-1.32,3.86-2.46,1.36-.97,2.66-2.07,3.96-3.09,3.02-2.38,6.18-4.82,9.09-7.2,3.39-2.78,5.51-4.96,8.54-7.53,3.03-2.58,6.42-5.15,9.87-7.72l2.6-1.93,1.3-.96c.1-.08.22-.16.32-.24l.14-.12s-.06-.09-.09-.14l-.51-.56c-1.36-1.49-2.73-2.96-4.13-4.42-7.18-7.48-13.4-14.53-20.45-21.97-4.11-4.35-8.66-8.87-12.85-13.21-2.38-2.47-5.1-5.18-7.3-7.63-2.4-2.68-4.35-5.24-6.96-8.09-4.1-4.48-8.21-8.89-12.38-13.3-2.09-2.2-4.19-4.4-6.3-6.62-.95-1-1.91-2-2.87-3.01-.55-.59-1.1-1.19-1.66-1.78-1.51-1.63-3.14-3.52-4.72-5.08-1.12-1.1-1.53-1.32-2.64-2.16-1.3-.98-1.92-1.95-3.06-3.04-.55-.53-.98-.75-1.51-1.22-1.94-1.73-3.73-3.95-5.41-5.92-4.44-5.3-7.65-10.62-11.78-15.99-3.25-4.23-6.44-8.22-10.18-12.28-2.22-2.39-4.61-4.51-6.86-6.8-1.99-2.03-3.79-4.2-5.79-6.15-3.2-3.1-6.22-6.85-9.26-10.29-1.77-2.01-2.47-3.08-3.98-5.25-.99-1.42-1.36-1.95-2.66-3.06-1.3-1.11-2.59-1.66-3.95-2.93-.98-.92-2.03-2.23-2.96-3.32-2.56-3-4.76-5.69-6.99-8.77-.81-1.12-1.37-2.24-2.17-3.35-.74-1.03-1.73-1.99-2.44-2.98-.76-1.06-.19-.42-1.29-1.69Z"/>
  <path class="st0" d="M1507.22,329.42c-3.13-2.94-4.54-7.11-5.97-9.08-1.72-2.37-3.23-3.94-4.61-5.37-1.37-1.44-2.59-2.75-3.77-4.59-1.96-3.06-5.59-10.24-9.16-17.07-3.46-6.89-6.87-13.43-8.6-15.11-1.46-1.42-2.48-3.4-3.36-5.38-.86-1.98-1.54-3.99-2.39-5.43-.57-.97-1.91-1.51-2.55-2.43-.99-1.4-1.18-3.78-2.82-5.44-1.83-1.85-.6-2.22-1.54-4.22-.39-.82-2.07-1.61-2.56-2.44-2.96-5.06-5.24-9.8-8.11-14.93-1.86-3.35-3.74-6.62-5.35-9.66-1.59-3.05-2.97-5.82-3.95-8.11-.22-.51.14-1-.08-1.5-.37-.86-2.04-1.65-2.47-2.52-2.16-4.38-3.85-8.27-5.23-11.07-.26-.5-.96-.77-1.21-1.28-.42-.84.29-2.16-.11-3.02-1.66-3.5-5.19-5.81-3.81-8.35l-4.87-5.13c-.69-1.7-1.38-3.41-2.08-5.13l-1.08-2.57c-.23-.53-.24-.58-.32-.81l-.22-.57c-.59-1.53-1.23-3.03-1.86-4.5-1.27-2.94-2.51-5.77-3.25-8.43-.64-2.26-1.85-4.88-2.31-6.3-.32-1,.39-1.79.18-2.88-.31-1.62-1.94-3.59-.72-5.4-3.32.66-.71-2.56-1.35-3.78-.32-.6-2.46-1.74-3.54-3.09-.07-.09.36-.68.32-.8-.09-.34-1.32-.61-1.55-.92-.08-.1.36-.66.32-.8-.3-.99-7.37-4.66-8.42-5.11-.76-.33-1.26.19-1.86-.13-.73-.4-.85.4-1.1.34-3.15-.89-4.36-2.55-5.69-2.5-2.95.12-5.64-1.13-7.46-.58-.73.22-1.5.33-2.2.66-2.62-2.35-3.86-.68-6.49-3.04-.95,1.91-3.19,1.44-4.73,2.1-.62.27-1.61.25-2.2.65-.39.26-.3,1.31-.66,1.62-.18.16-1.59-.28-1.87-.16-2.48.98-5.28,1.76-6.94,2.75-.93.56-1.62,1.06-2.53,1.46-.67.3-1.46.29-2.2.64-.74.35-1.2,1.07-2.2.64.6-1.38.24-2.47-.57-3.44-.75,2.51-2.76,1.38-3.51,3.9-1.25-.7-1.59-.69-2.21.64-.54,1.17-2.89,1.35-3.63,1.78-1.12.64-1.08,1.4-2.08,2.78-1.17,1.62-4.95,1.57-4.92,5.08-1.35.18-3.19-1.05-4.54-.87-2.62,2.97-4.81,7.18-8.08,8.23,1.21,3.09-1.77,5.14-2.09,8.01-.1.9,2.35,3.36.29,4.36.38,2.37,3.7,3.84,3.42,6.4-.58,2.88-3.13.35-3.42,4.02,3.05,2.75,3.41,7.06,5.01,10.39.89,1.86,2.03,3.08,3.05,5.02.83,1.58.95,4.3,3.05,5.02-.51,3.51,2.28,8.08,3.28,10.17.19.39-.76,1.29-.58,1.69.28.64,1.79,1.84,2.11,2.31.43.63.78,1.34,1.1,2.07l.45,1.1.22.55.11.27.09.21.13.3c1.45,3.2,2.82,6.15,4.45,7.99,2.53,2.91,6.02,12.26,8.06,16.19,2.49,4.89,5.66,9.92,8.12,14.51,1.99,3.71,3.35,8.12,4.35,10.4.39.89,2.08,1.81,2.57,2.7.88,1.59,1.97,4.14,2.9,5.83,2.9,5.2,5.16,9.36,7.14,12.99,2.46,4.61,5.89,12.02,7.45,14.49,1.8,2.82,4.56,3.93,5.5,6.82.66,2.54,2.14,4.91,3.55,7.26,1.42,2.35,2.73,4.73,2.96,7.38,2.3,2.82,4.39,5.68,6.34,8.58,1.94,2.9,3.72,5.85,5.48,8.77,3.49,5.87,6.58,11.84,9.71,17.81,3.92,6.02,10.01,11.37,11.28,18.12,1.72,2.65,3.33,6.35,5.12,8.99,3.16,4.77,6.24,9.23,9.53,13.87,1.28,1.79,2.61,3.81,3.82,5.68.75,1.15,1.1,2.06,1.78,3.19,1.65,2.76,4.19,6.07,6.01,8.73,1.47,2.15,3.45,5.17,5.14,6.91.54.56,1.01.85,1.58,1.43,1.81,1.82,3.54,4.76,4.46,6.87,2.12,4.83,3.37,9.42,7.05,14.52,1.81,2.54,3.68,5.05,5.52,7.57,1.09,1.48,2.07,2.88,3.21,4.09.51.54,1.17,1.09,1.72,1.67l2.53,2.7,1.26,1.37.61.67.06-.05s.08-.1.16-.09c.08.02.15.03.22.06.14.05.27.11.38.19.2.15.15.43.43.54.07.03.28,0,.35.03.15.06.2.14.26.23.19.27.53.54.38.84-.15.31-.86.55-1.1.73-.06.04.05.09-.03.13-.1.05-.46.07-.58.1-.24.07-.36.15-.28.23.09.14.42.27.63.45.32.23-.37.16-.58.25-.16.07-.05.26-.36.28-.28,0-.56-.16-1.24-.41-.62-.23-.58-.16-.43,0,.15.16.39.43.34.48-.16.17-.65.06-.96-.02-.16-.04-.28-.07-.34-.01l-.02.02h0s-.36.26-.36.26l-1.46,1.01c-.97.69-1.91,1.4-2.82,2.14-7.87,6.36-19.19,12.2-25.77,15.74-.85.46-1.54,2.21-2.4,2.73-4.35,2.66-9.18,5.31-13.65,7.98-2.38,1.43-4.61,2.04-6.99,3.42-3.25,1.88-5.62,6.03-8.19,4.79-3.11,3.94-7.15,4.72-10.26,8.66-9.12,3.42-16.81,11.75-26.1,14.6-5.02,6.52-11.8,7.01-16.91,13.22-3.3-.37-5.46,3.18-8.52,3.65-9.37,7.72-20.38,13.53-30.89,20.07-3.07,1.91-8.59,5.29-9.39,6.16-3.28,3.53-5.71,2.12-8.19,4.79-2.38,2.56-12.7,7.99-14.85,9.35-5.53,3.49-10.3,7.1-16.05,10.72-5.09,3.2-11.28,6.39-16.38,9.58-2.36,1.47-5.37,4.34-7.86,5.93-4.63,2.96-10.96,5.09-13.65,7.98-1.48,1.6-1.49.75-2.73,1.6-2.59,1.77-5.19,4.31-7.86,5.93-5.35,3.24-11.09,6.05-16.71,8.44-3.52,5.67-16.75,10.21-19.98,13.68-2.53,2.72-7.23,3.83-9.38,6.15-.36.39-.65.64-.89.8-.14.1-.19.11-.23.12-.05.01-.1.02-.15.01-.19,0-.38-.08-.61.11-4.28,3.69-8.05,4.79-12.66,7.25-3.5,1.86-6.74,4.01-10.2,5.97-.77,1.83-.05,3.29-.13,4.59-.1,1.52-.85,2.45-.62,3.55.17.8,1.57,1.47,1.84,2.27,1-2.03,2.92.48,2.21,1.43-2.37,4.9-.31,7.49,1.09,10.42-.44,2.85-2.5,2.28-3.57,3.8,1.66,3.23,4.83,5.67,2.81,10.82,1.34,1.24,3.03,2.3,2.82,4.35l-1.85,4.2c1.33,1.66,1.42,4.02,2.08,6.03.47,1.45,1.52,2.84,1.1,3.95-.46,1.2,1.59,1.41,1.84,2.27-1.13,1.88-1.28,3.25-.99,4.39,2.24,2.71,3.31,6.03,6.86,8.05.28,2.01.94,3.82,1.22,5.83,4.63,1.68,4.04,6.08,8.95,7.61.73,1.35-1.44,4.2.73,4.79,1.95-2.9,6.77.29,10.19.5.96-1.52,2.73-1.9,4.06-2.76,1.32-.86,4.48-3.54,5.29-3.4,1.02.18.56-.3,1.23-.64,1.89-.96,3.36-2.52,4.43-3.6.81-.83,1.39-1.09,1.97-2.32,3.39.27,5.99-2.9,8.6-4.49.53-.32,1.53-.13,2.09-.44.9-.51,1.06-1.73,1.97-2.32,1.59-1.03,3.49-1.2,4.91-2.56,1.02-.71,7.79-5.5,13-8.78,2.54-1.6,5.32-3.08,8.19-4.79.45-.27,1.06.02,1.53-.23.85-.45,1.54-2.2,2.4-2.73.85-.53,2.19.05,3.06-.46.93-.54,1.47-2.14,2.4-2.73,4.46-2.83,15.92-9.16,17.58-10.95,2.35-2.53,6.12-3.68,8.19-4.79.77-.41,1.65-2.19,2.4-2.73,1.05-.76,4.19-2.4,5.46-3.19,3.8-2.37,6.78-3.96,10.92-6.39,1.81-1.06,3.64-2.13,5.46-3.19,2.04-1.19,5.04-2.19,6.99-3.42,1.41-.89,2.28-3.09,3.6-4.1,1.54-1.18,4.04-1.12,5.79-2.06.73-.39,1.7-2.2,2.4-2.73.24-.18,1.24-.07,1.53-.23.83-.45,1.56-2.19,2.4-2.73,4.15-2.69,9.98-5,12.45-6.61,2.1-1.38,3.19-3.1,5.13-4.33,7.65-4.85,15.95-9.61,21.84-12.77.81-.44,1.59-2.18,2.4-2.73,1.01-.69,3.15-1.09,4.26-1.83,2.13-1.4,3.13-3.09,5.13-4.33,8.12-5.07,15.68-8.52,23.37-13,2.12-3.67,5.26-3.86,7.53-7.06,4.45-.21,5.82-2.94,8.19-4.79.52-.41,3.53-1.36,4.26-1.83,4.53-2.86,8.85-6.41,13.32-9.12,9.06-5.49,18.23-10.18,27.63-14.83,2.94-2.7,6.54-3.13,9.05-7.29,5.16-.56,9.08-5.37,13.98-6.84,6.26-5.92,13.22-9.46,20.64-11.41,3.84-2.44,7.5-4.49,11.16-6.53,1.83-1.03,3.65-2.07,5.51-3.12.92-.54,1.85-1.09,2.8-1.65.51-.32,1.03-.63,1.55-.95.89-.56,1.79-1.13,2.7-1.71,2.59-1.65,6.39-3.94,9.01-5.73,2.87-1.96,3.63-2.79,5.69-4.68,2.04-1.88,3.14-2.96,6.29-4.64,1.36-.72,2.08-.9,3.61-1.76,1.29-.73,2.56-1.61,3.81-2.4,2.91-1.85,5.95-3.74,8.77-5.62,3.28-2.19,5.43-4.03,8.39-6.09,5.91-4.1,13.03-7.95,19.26-11.85,3.99-2.5,7.97-4.88,11.97-7.26,2-1.19,4-2.39,6-3.58,1-.6,2-1.2,3-1.81l1.5-.91c.26-.15.5-.31.71-.46.04-.04.15-.07.12-.13l-.13-.17-.26-.34c-3.27-4.25-6.93-8.73-10.33-13.02-1.94-2.46-4.21-5.18-5.96-7.57-1.72-2.35-3.05-4.53-4.83-7-.18-.25-.38-.52-.58-.78-6.58-8.75-13.23-17.41-20.24-26.39-2.38-3.06-4.97-6.53-7.44-9.54-1.75-2.13-2.36-2.67-4.05-4.44-1.97-2.06-2.99-3.71-4.76-5.82-.84-1.02-1.45-1.56-2.24-2.48-1.44-1.65-2.87-3.67-4.32-5.64l-.2-.27-.13-.19-.25-.37-.5-.75c-.33-.5-.65-.99-.97-1.47-3.37-5.11-5.64-10.13-8.68-15.3-2.36-4.1-4.7-7.97-7.62-11.88-1.73-2.31-3.65-4.38-5.43-6.6-1.55-1.98-2.86-4.1-4.41-6.02-2.47-3.07-4.74-6.67-7.06-10-1.35-1.95-1.85-2.97-2.91-5.05-.68-1.37-.94-1.89-1.97-2.99-1.04-1.11-2.16-1.7-3.21-2.96-.77-.91-1.52-2.2-2.22-3.25-1.92-2.91-3.56-5.51-5.16-8.48-.57-1.08-.93-2.13-1.48-3.21-.51-1-1.27-1.95-1.76-2.91-.52-1.03-.1-.4-.91-1.64Z"/>
  <g>
    <path class="st1" d="M769.82,365.05c-6.6-6.06-16.29-6.21-22.85,0-16.91,16-33.83,32.01-50.74,48.01-15.75-13.78-31.75-27.52-48.17-40.77,21.71-29.11,43.41-58.23,65.12-87.34,2.34-3.15,2.62-8.85,1.63-12.45-1.03-3.75-3.93-7.81-7.43-9.66-3.75-1.98-8.29-2.98-12.45-1.63-4.25,1.37-7,3.87-9.66,7.43-20.85,27.97-41.7,55.93-62.55,83.9-26.44-19.82-54.06-37.89-83.44-52.46,16.63-33.83,33.27-67.66,49.9-101.49,1.93-3.93,2.82-8.11,1.63-12.45-1.03-3.75-3.93-7.81-7.43-9.66-7.28-3.85-18.13-2.3-22.11,5.8-17.16,34.89-34.31,69.78-51.47,104.66-9.71-3.84-19.61-7.3-29.74-10.27-22.24-6.52-44.84-10.2-67.47-11.38-.42-41.75-.83-83.5-1.25-125.25-.08-8.45-7.37-16.55-16.16-16.16-8.68.39-16.25,7.1-16.16,16.16.42,41.73.83,83.47,1.25,125.2-36.62,1.86-72.91,9.96-107.45,23.07-17.36-35.3-34.71-70.59-52.07-105.88-3.74-7.6-15.14-10.29-22.11-5.8-7.79,5.02-9.8,13.98-5.8,22.11,16.77,34.09,33.53,68.19,50.3,102.28-15.1,7.19-29.77,15.31-43.86,24.28-10.64,6.78-20.98,14-31.04,21.58-19.44-26.08-38.89-52.16-58.33-78.24-2.61-3.5-5.29-6.22-9.66-7.43-3.87-1.06-9.02-.58-12.45,1.63-3.45,2.22-6.49,5.54-7.43,9.66-.9,3.96-.92,9.04,1.63,12.45,20.39,27.35,40.78,54.7,61.17,82.05-19.57,16.71-37.97,34.81-55.31,53.83-14.54-13.8-29.08-27.59-43.62-41.39-6.13-5.82-16.84-6.55-22.85,0-5.79,6.31-6.55,16.64,0,22.85,18.89,17.93,37.79,35.86,56.68,53.79,1.4,1.33,3.04,2.37,4.8,3.15,68.11,60.03,140.38,121.76,229.1,147.77,20.34,5.96,40.98,9.55,61.67,11.04,7.99.82,16.02,1.07,24.03.77,68.65-.43,136.76-23.29,195.08-60.43,45.36-28.89,85.31-65.53,120.68-105.87,2.63-3,3.79-6.29,3.9-9.5.79-2,1.13-4.14.87-6.28,17.2-16.27,34.39-32.54,51.59-48.82,6.17-5.82,6.32-17.06.01-22.85ZM109.16,442.23c2.64-2.89,5.3-5.75,7.99-8.59,30.93-8.69,84.1-22.44,141.38-32.03-1.61,4.82-3.08,9.69-4.37,14.6-8.99,34.29-14.41,75.36-5.19,110.11,2.62,9.88,6.91,19.15,12.4,27.7-15.03-7.74-29.61-16.42-43.75-25.76-38.59-25.48-73.79-55.55-108.47-86.04ZM517.43,563.75c37.49-40.15,57.6-96.95,50.81-151.63,42.03,7.26,79.49,14.85,104.13,20.08,3.52,3.07,7.05,6.15,10.56,9.24-46.68,51.16-101.7,95.77-165.5,122.31Z"/>
    <g>
      <path class="st0" d="M617.77,496.83c-2.05,1.81-4.27,3.53-5.53,4.49-3.01,2.38-4.3,3.57-6.56,5.33-1.84,1.51-6.16,4.51-10.24,7.47-2.03,1.5-4.09,2.85-5.76,4.01-1.67,1.15-2.97,2.06-3.58,2.52-1.03.78-2.23,1.6-3.41,2.37-1.19.75-2.36,1.46-3.28,2.06-.62.4-1.19.88-1.8,1.29-.93.62-2.17,1.31-3.37,2.17-1.35.95-1.25.76-2.48,1.51-.51.3-1.3.91-1.84,1.24-3.28,1.99-6.21,3.79-9.52,5.74-4.37,2.45-8.57,4.92-11.46,6.4-.32.16-.5.2-.82.36-.54.28-1.35.82-1.91,1.11-2.81,1.45-5.32,2.74-7.12,3.67-.33.18-.64.37-.97.53-.56.27-1.11.4-1.67.66-2.29,1.09-4.35,2.31-5.43,2.56l-3.9,2.09c-1.12.47-2.22.94-3.32,1.41l-1.67.72c-.4.17-.26.11-.31.13l-.06.02c-.16.06-.31.12-.47.17-.3.12-.6.23-.87.3-.23.06-.5.17-.65.22-.1.03-.18-.04-.29-.02-.16.03-.37.19-.55.06.06.34-.26.07-.39.13-.06.03-.18.25-.32.35,0,0-.07-.04-.08-.03-.03,0-.07.13-.1.15-.01,0-.07-.04-.08-.03-.1.03-.49.74-.54.85-.04.08.02.13-.02.19-.04.07.04.09.03.11-.1.32-.27.44-.26.57,0,.3-.13.57-.07.75.02.07.03.15.06.22-.24.26-.08.39-.32.65.19.1.14.32.2.48.03.06.02.16.06.22.03.04.13.03.16.07.02.02-.03.16-.02.19.09.25.17.53.26.7.05.09.1.16.14.25.03.07.03.15.06.22.03.07.11.12.06.22-.14-.06-.25-.03-.34.06.25.08.13.28.38.35-.07.12-.07.16.06.22.12.05.13.29.17.37.06.11.14.11.27.21.16.12.15.5.5.5.02.14-.11.32-.09.45.29.26.7.49.8.82.3-.12.5.18.78.22.09.01.33-.23.43-.02.23-.04.38-.37.63-.34.28.07.03.31.39.35.28-.3.7-.32,1.03-.47.18-.08.31-.19.5-.29.16-.08.42-.08.5-.29.34.06.8-.19,1.01-.28.04-.02.12.08.16.06.06-.03.19-.17.23-.2.06-.04.13-.07.21-.1l.11-.04.05-.02h.03s.29-.13.29-.13c2.03-.88,3.91-1.7,5.26-2.35,2.08-1.1,7.76-3.71,10.28-4.92,3.11-1.5,6.36-3.34,9.28-4.84,1.13-.57,2.34-1.19,3.52-1.79,1.1-.57,2.07-1.1,2.76-1.48.53-.29,1.36-.88,1.92-1.2.99-.55,2.53-1.41,3.58-2,3.28-1.81,5.81-3.39,8.04-4.74,2.81-1.72,7.25-4.28,8.75-5.34,1.75-1.16,2.88-2.12,4.48-3.08,1.37-.81,2.84-1.78,4.28-2.72,1.42-.99,2.83-1.95,4.14-2.72,3.65-2.66,7.24-5.15,10.67-7.72,3.46-2.54,6.91-4.97,10.24-7.56,3.56-2.78,7.29-5.94,10.51-8.32,1.5-1.21,3.54-2.85,5.05-4.07,2.77-2.29,5.3-4.56,8-6.89,1.05-.91,2.19-1.89,3.25-2.81.6-.53,1.12-.99,1.71-1.51,1.54-1.39,3.43-3.11,4.93-4.46,1.2-1.1,2.91-2.59,3.96-3.67.3-.3.6-.62.91-.93,1.12-1.12,2.69-2.57,3.75-3.51,1.15-1.01,2.4-2.12,3.55-3.13,1.19-1.06,2.4-2.23,3.8-3.62l4.17-4.13c.81-.81,1.59-1.55,2.29-2.31.29-.31.7-.76,1-1.09,2.09-2.25,4.19-4.49,6.43-6.84,1.05-1.07,2.17-2.27,3.16-3.35.2-.23.46-.53.64-.73.49-.53.88-.95,1.36-1.47,2.45-2.62,4.73-5.07,7.29-7.81l.52-.55.26-.27.06-.07s-.04-.04-.05-.06l-.14-.12c-.36-.32-.72-.64-1.08-.97-.7-.63-1.4-1.26-2.11-1.9-1.47-1.32-2.92-2.61-4.29-3.84-.38-.34-.72-.64-1.12-.99-.35-.33-.81-.75-1.15-1.07-.93-.83-2.05-1.83-2.93-2.61-.7-.61-1.35-1.18-1.99-1.73-.15-.19-.38-.22-.61-.26l-.66-.14-1.29-.27c-.9-.18-1.8-.36-2.89-.58-2.23-.43-3.27-.69-5.46-1.15-1.62-.34-3.4-.7-5.04-1.04-1.49-.32-.76-.2-1.47-.41-1.3-.38-5.84-1.17-7.64-1.53-6.18-1.25-12.33-2.63-18.25-3.69-6.36-1.14-14.34-2.79-19.03-3.74-.6-.12-1.59-.2-2.22-.32-3.18-.62-6.7-1.3-9.97-1.93-1.58-.32-3.29-.66-4.87-.98-2.37-.45-5.08-.72-5.99-1.13-3.03-.38-5.42-.96-8.45-1.33-.84-.17-1.59-.32-2.29-.46-.97-.18-1.9-.35-2.82-.52-2.91-.5-5.86-1.01-8.82-1.53-1.48-.25-2.95-.51-4.41-.76-.14-.07-.05.12-.06.2l.03.3.06.59.11,1.18c.07.78.14,1.56.21,2.35.13,1.47.25,2.97.39,4.6.1,1.28.2,2.67.33,4.29.17,1.19.34,2.32.42,3.42.04,1.14.07,2.16.11,3.23.05,2.13.12,4.25.31,6.63-.25,1.61-.13,3.94-.29,5.7,0,.98-.02,1.91-.03,2.83,0,.48-.02.95-.02,1.42-.04.48-.07.95-.11,1.42-.16,1.91-.31,3.8-.47,5.72-.08.95-.17,1.91-.25,2.87-.14.95-.28,1.91-.41,2.86-.27,1.92-.55,3.83-.82,5.73-.12,1.12-.47,2.66-.73,4.02-.27,1.36-.49,2.52-.54,2.87-.46,2.88-.78,3.64-1.26,5.78-.46,2.06-2.23,9.1-2.83,10.58-.6,1.94-1.17,3.81-1.75,5.7-.14.47-.29.95-.43,1.42-.17.47-.34.94-.52,1.41-.35.95-.7,1.91-1.07,2.91-.66,1.76-1.35,3.66-2.11,5.53-.82,1.87-1.63,3.73-2.38,5.43-.31.76-.73,1.75-1.16,2.79-.4,1.01-.92,1.98-1.31,2.81-.74,1.44-1.61,3.16-2.42,4.75-.41.81-.79,1.55-1.13,2.2-.38.67-.71,1.29-.98,1.82-.6,1.18-.52.89-.98,1.72-.96,1.71-1.96,3.7-2.95,5.38-1.03,1.58-2.08,3.22-3.19,4.93-1.08,1.63-2.1,3.27-3.27,4.75-.97,1.61-2.75,4.11-4.48,6.5-1.84,2.31-3.65,4.49-4.49,5.65-.67.9-1.44,1.92-2.27,2.83-.83.91-1.63,1.79-2.24,2.53-.25.29-.38.45-.47.56-.08.09-.08.08-.08.08,0,0,0,0-.01,0-.02,0-.04,0-.05.03-.3.46-.62.66-.99,1.02-.28.27-.52.56-.79.83-.02.19.09.32.12.44.03.15-.01.26.04.36.04.07.19.1.24.17.04-.22.29-.03.25.08-.09.53.18.73.39.98.04.29-.17.29-.23.46.24.27.61.42.56.98.16.09.35.14.38.35l-.06.46c.17.13.24.35.36.53.08.13.22.24.21.36-.01.13.19.1.23.17-.06.21-.04.35.02.46.28.2.47.5.86.6.08.19.19.35.27.54.49.04.54.49,1.05.5.1.11-.03.45.19.45.11-.34.66-.16,1-.24.05-.18.21-.26.32-.39.11-.12.34-.47.42-.48.1-.01.05-.05.1-.1.16-.15.26-.34.33-.48.06-.1.11-.15.13-.28.34-.07.5-.45.72-.68.04-.05.15-.06.19-.1.07-.08.06-.2.13-.28.13-.15.31-.22.41-.39.24-.27-.4.43,1.56-1.8.69-.79,1.39-1.57,2.07-2.38.66-.83,1.31-1.66,1.98-2.5,1.21-1.52,2.52-3.15,3.88-4.85.21-.27.41-.42.63-.69.37-.51.86-1.39,1.24-1.93.38-.53.79-.9,1.17-1.44.41-.57.82-1.34,1.24-1.92,2.14-2.73,6.64-10.02,7.45-11.33,1.09-1.9,2.33-4.05,3.12-5.37.29-.5.74-1.51,1.03-2.04.39-.75,1.6-2.72,2-3.62,1.3-2.59,2.31-4.6,3.71-7.4.65-1.22,1.15-2.51,1.72-3.76.58-1.28,1.53-3.38,2.09-4.62.41-1.01.84-2.19,1.17-3.22.42-1.19,1.03-2.42,1.49-3.63.19-.51.51-1.64.7-2.18.07-.19.3-.64.38-.85.22-.58.47-1.56.7-2.18.95-2.9,2.29-7.02,2.85-8.76.52-1.57.69-2.77,1.07-4.23.7-2.88,1.54-5.82,2.15-8.61.57-2.76,1.1-5.36,1.55-7.55.11-.6.25-1.63.31-2.27.11-.64.37-2.26.49-2.96.23-1.66.3-2.81.51-4.33.11-.77.22-1.54.33-2.29.1-.75.14-1.5.22-2.24.14-1.45.27-2.9.4-4.34.13-1.43.27-2.85.4-4.26.05-1.45.1-2.88.15-4.32-.15-2.47.09-4.28-.05-6.66.14-2.54-.08-4.26-.17-6.22,0-.38-.02-2.54-.03-3.01,0-.88-.13-1.76-.21-2.65-.04-.44-.09-.88-.13-1.33l-.05-.43-.02-.14c-.05-.38-.1-.76-.13-1.09v-.13c-.03-.06.1,0,.15,0l.4.08.79.16.77.16c.55.11,1.11.22,1.67.33,3.19.62,6.46,1.25,9.79,1.9,2.49.38,4.52.9,7.3,1.2,2.89.76,6.64,1.26,9.71,1.97,5.36.83,10.23,1.84,14.78,2.95,5.64,1.14,10.59,2.13,16.23,3.27,1.02.2,2.46.49,3.54.71,1.16.22,1.54.27,2.51.41.96.14,1.51.22,2.68.48.43.1.83.2,1.28.3.53.11,1.01.21,1.51.31,1.15.23,2.33.47,3.49.71,1.23.23,2.43.45,3.61.67,2.5.48,5.07,1.08,7.52,1.59,3.09.67,6.1,1.33,9.14,1.99l.44.1c.06,0,.09.06.14.1.66.57,1.32,1.15,1.96,1.71.79.7,1.65,1.45,2.46,2.16.2.18.41.37.62.56l.3.28.13.12v.02c.05.05.09.1.14.14l.21.21s.04.03.04.05l-.05.05-.1.11c-.61.66-1.23,1.32-1.86,1.99-.88.95-1.85,1.99-2.75,2.95-.52.58-.74.82-1.32,1.46-.63.69-1.1,1.15-1.73,1.81-.26.28-.51.55-.75.82-1.03,1.1-2.19,2.27-3.25,3.34-2.79,2.89-5.43,5.26-8.25,7.99-2.22,2.15-4.36,4.21-6.69,6.41-1.31,1.27-2.71,2.62-4.03,3.9-1.19,1.14-2.37,2.28-3.57,3.36-1.99,1.81-3.98,3.62-5.95,5.41-1.16,1.04-1.7,1.54-2.87,2.52-.77.64-1.06.88-1.78,1.54-.73.66-1.24,1.18-2.04,1.9-.64.55-1.33,1.15-1.95,1.69-1.74,1.49-3.24,2.83-4.98,4.19-.57.45-1.24.97-1.81,1.42-.6.49-1.15.94-1.73,1.41-.59.48-.24.19-.96.77Z"/>
      <path class="st0" d="M208.49,516.2c-2.37-1.49-4.64-3.26-5.98-4.2-3.23-2.24-4.76-3.2-7.12-4.93-1.98-1.42-6.26-4.71-10.36-7.87-4.08-3.19-7.98-6.25-9.24-7.19-2.15-1.55-4.68-3.73-6.44-5.15-.59-.47-1.25-.88-1.84-1.34-.9-.71-1.98-1.69-3.2-2.6-1.36-1.02-1.13-.99-2.27-1.95-.47-.39-1.33-.95-1.83-1.36-3.08-2.48-5.77-4.78-8.83-7.3-3.97-3.32-7.81-6.53-10.33-8.74-.28-.25-.38-.4-.66-.65-.47-.41-1.31-.97-1.8-1.4-2.47-2.14-4.67-4.05-6.24-5.42-.29-.25-.61-.46-.9-.71-.48-.42-.83-.89-1.32-1.31-1.98-1.72-3.97-3.18-4.66-4.09l-3.58-2.85c-.93-.83-1.86-1.66-2.78-2.48l-1.41-1.25c-.33-.3-.21-.19-.26-.23l-.04-.05-.36-.35c-.24-.23-.47-.45-.65-.67-.15-.19-.38-.39-.48-.5-.07-.08-.04-.18-.11-.28-.1-.14-.33-.26-.3-.48-.28.19-.17-.21-.29-.3-.06-.04-.3-.06-.46-.15-.01,0,0-.08,0-.09-.02-.03-.15,0-.18-.02-.01,0,0-.08,0-.09-.07-.08-.88-.13-1-.13-.08,0-.11.07-.18.06-.08,0-.06.07-.09.08-.33.05-.51-.06-.63,0-.27.13-.57.13-.71.26-.06.05-.12.09-.17.15-.34-.11-.38.1-.72,0,0,.22-.23.27-.34.39-.04.05-.14.09-.17.15-.02.04.03.13,0,.18,0,.02-.16.04-.18.06-.18.19-.4.38-.51.54-.06.09-.1.16-.17.24-.05.06-.12.09-.17.15-.05.06-.06.15-.17.15,0-.15-.08-.23-.2-.29.04.26-.19.24-.15.5-.14-.01-.17,0-.17.15,0,.13-.2.25-.25.32-.07.11-.04.17-.07.34-.04.2-.38.35-.23.67-.11.07-.33.04-.44.12-.11.38-.14.85-.39,1.08.23.22.05.53.14.8.03.08.35.2.2.38.13.19.49.18.57.42.06.28-.27.16-.15.5.38.12.58.49.85.72.15.13.3.19.47.32.14.11.25.35.47.32.09.34.51.64.68.79.03.03-.02.15.01.18.05.05.23.09.28.12.06.04.12.09.18.14l.08.08.04.04.02.02.24.21c1.67,1.48,3.23,2.84,4.42,3.79,1.85,1.5,6.56,5.73,8.7,7.57,2.64,2.25,5.57,4.74,8.08,6.87,2.05,1.74,4.2,3.68,5.4,4.72.46.41,1.32.99,1.82,1.4.88.74,2.24,1.9,3.17,2.69,2.93,2.43,5.25,4.37,7.28,6.05,2.54,2.1,6.57,5.44,8.02,6.64,1.67,1.33,2.96,2.11,4.4,3.35,2.43,2.15,5.61,4.39,7.89,6.46,7.39,5.48,14.14,10.77,21.07,15.89,1.85,1.36,3.85,2.69,5.76,4.03,1.91,1.34,3.75,2.66,5.37,3.92,1.67,1.15,3.72,2.66,5.42,3.81,3.05,2.03,5.92,3.99,8.99,5.97,1.19.77,2.48,1.61,3.69,2.38.69.45,1.28.84,1.95,1.29,1.73,1.12,4.01,2.52,5.76,3.61,1.42.88,3.4,2.09,4.74,2.85.38.21.77.43,1.17.65,1.41.8,3.28,1.93,4.51,2.7,1.34.83,2.78,1.74,4.11,2.57.58.34,1.14.67,1.69,1,.74.42,1.45.83,2.16,1.23,1.6.89,3.11,1.72,4.73,2.62l4.97,2.63,4.91,2.56c1.88.97,3.53,1.82,5.42,2.8.7.35,1.68.84,2.44,1.22l1.9.96.95.48c.33.17.52.25.79.38.5.23.99.46,1.49.69l.09.04s.09.05.03-.02l-.18-.29-.38-.6-.76-1.2c-2.12-3.35-4.19-6.62-6.26-9.88-.48-.77-.97-1.54-1.46-2.33-.5-.79-.99-1.59-1.43-2.33-.46-.76-.91-1.51-1.36-2.25-.46-.75-.79-1.4-1.18-2.08-.32-.56-.73-1.28-1.01-1.78-.61-1.22-1.16-2.28-1.76-3.53-.42-.92-.83-1.84-1.24-2.75-.21-.51-.43-1.02-.64-1.53-.39-.96-.76-1.92-1.1-2.89-.69-1.96-1.19-3.68-1.73-5.63-.13-.48-.25-.9-.38-1.39-.14-.53-.22-.96-.33-1.5-.23-1.09-.57-2.59-.85-3.76-.51-1.98-.74-3.5-1.14-5.47-.22-1.1-.37-1.91-.51-2.71-.11-.82-.21-1.64-.35-2.72-.2-1.63-.53-3.44-.64-5.04-.12-1.51-.03-.78-.03-1.51,0-.67-.15-2.13-.31-3.66-.14-1.53-.23-3.12-.28-4.03-.21-3.12-.16-6.26-.19-9.35-.01-1.55.07-3.09.1-4.62.04-1.53.03-3.04.11-4.54.11-6.45,1.11-14.56,1.72-19.31.09-.61.12-1.6.21-2.24.24-1.61.48-3.3.74-5.01.29-1.7.58-3.4.86-5.05.28-1.77.64-3.15.97-4.89.44-2.38.78-5.09,1.22-5.99.24-1.51.51-2.87.8-4.22.31-1.35.62-2.7.88-4.21.77-2.98,1.61-6.2,2.4-9.38.41-1.58.85-3.15,1.31-4.68.37-1.2.75-2.42,1.17-3.75.48-1.5.99-2.99,1.51-4.48.72-2.4,1.43-4.65,2.14-6.82.18-.56.36-1.09.53-1.62.03-.05-.01-.04-.05-.03l-.1.02-.19.03-.37.06-.74.13c-.97.17-1.94.33-2.92.5-3.87.65-7.8,1.31-12.14,2.19-.73.07-1.55.19-2.42.32-.53.08-1.02.17-1.55.27-1.04.19-2.1.4-3.03.51-8.59,1.66-15.93,3.09-23.81,4.61-2.34.45-6.51,1.32-7.24,1.5-2.98.75-3.87.68-6.11,1.24-2.16.56-9.66,2.08-11.29,2.45-4.17.96-8.04,1.86-12.37,2.86-3.81.88-8.35,1.92-12.16,2.8-1.78.42-4.37,1.14-6.25,1.6-3.51.85-7.69,1.74-10.1,2.45-1.33.39-1.06.25-2.02.5-2,.52-4.24,1.18-6.23,1.68-3.98,1.02-8.05,2.01-11.9,2.94-3.75,1.29-12.47,3.34-15.34,4.28-.16.05-.32.1-.46.14-.31.09-.59.17-.87.25-.62.18-1.21.34-1.8.51-.47.4-.89.92-1.33,1.36-.33.35-.68.72-1.02,1.08-.9.94-1.77,1.85-2.43,2.62-.27.3-.41.47-.52.58-.09.09-.08.09-.08.09,0,0,0,0-.01,0-.02,0-.04,0-.06.03-.32.47-.66.67-1.05,1.03-.29.27-.56.56-.84.84-.03.2.08.32.1.45.03.15-.02.26.03.36.04.07.19.1.24.17.05-.22.3-.03.25.08-.11.53.16.73.37.98.03.29-.18.28-.25.46.24.27.61.42.55.97.16.09.35.14.38.35l-.07.45c.17.13.24.35.36.53.08.13.22.23.21.35-.01.13.19.1.24.17-.06.21-.04.35.02.45.29.2.48.5.87.6.08.19.19.34.27.53.49.04.55.48,1.06.5.11.11-.03.44.19.44.11-.33.66-.14,1-.21.05-.17.21-.25.32-.37.11-.12.34-.45.42-.46.1,0,.05-.04.1-.09.16-.14.26-.33.33-.46.06-.1.11-.14.13-.27.33-.06.5-.43.72-.65.04-.04.14-.05.19-.09.07-.07.06-.19.13-.27.13-.14.31-.2.41-.37.24-.26-.41.42,1.59-1.74l1.93-2.1c.1-.09.14-.2.26-.21l.8-.22c1.87-.51,3.89-1.05,5.98-1.62.33-.09.57-.1.91-.18.61-.16,1.54-.53,2.17-.7.63-.17,1.18-.2,1.82-.37.68-.18,1.48-.5,2.18-.69,3.34-.91,11.62-3,13.1-3.44,2.09-.63,4.53-1.15,6.01-1.51.55-.14,1.6-.51,2.19-.66.84-.2,3.08-.75,4.02-.98,2.84-.72,4.99-1.21,8.04-1.94,1.33-.32,2.68-.64,4.02-.96,1.38-.3,3.61-.8,4.94-1.09,1.06-.25,2.25-.68,3.29-.94,1.23-.3,2.58-.47,3.85-.75.53-.12,1.64-.48,2.2-.61.19-.05.7-.1.92-.15.6-.13,1.56-.47,2.2-.61,3.15-.71,7.11-1.48,8.99-1.91,1.61-.36,2.77-.7,4.23-1.01,5.78-1.27,11.91-2.49,16.19-3.34.59-.11,1.59-.42,2.22-.55.65-.11,2.25-.39,2.95-.52,1.64-.33,2.74-.64,4.24-.94,6.14-1.18,11.45-2.1,17.17-3.09,1.19-.32,2.24-.52,3.27-.71.44-.08.85-.16,1.34-.26.2-.04.4-.1.63-.17.87.07,1.5-.19,2.28-.36.08-.02.29-.03.49-.05.1,0,.2-.02.29-.02.13-.04.02.07.04.08-.11.33-.2.65-.29.99-.05.19-.1.38-.15.57-.24.82-.47,1.62-.7,2.42-1.93,6.82-3.6,13.37-5.16,20.14-.48,2.57-1.08,4.66-1.38,7.55-.83,2.99-1.26,6.9-1.92,10.11-.33,2.8-.68,5.48-1.05,8.06-.31,2.59-.7,5.07-1.05,7.49-.23,3.03-.58,5.81-.71,8.61-.18,2.79-.37,5.59-.41,8.64-.02,1.08-.06,2.62-.08,3.78.03,1.24.06,1.64.12,2.67.06,1.02.1,1.6.09,2.85,0,.46-.02.89-.03,1.38,0,.52.05,1.08.07,1.61.06,1.24.13,2.5.19,3.74.04.67.09,1.3.13,1.96.07.64.14,1.26.2,1.88.28,2.66.42,5.44.82,8.05.24,1.68.4,3.31.67,4.92.29,1.62.57,3.23.85,4.85.09.48.18.97.27,1.45.11.48.23.97.35,1.46.23.97.46,1.95.69,2.91.27,1.1.53,2.3.84,3.38.31,1.18.59,2.25.97,3.48.59,1.94,1.26,3.82,1.98,5.68.36.93.73,1.86,1.13,2.79.11.25.21.49.32.74.06.13.11.26.18.38.05.09.09.13.17.23.1.13.1.17.17.28.04.06.08.11.12.16.13.2.23.36.26.45-.53-.31-1.04-.72-1.32-.95-.1-.08-.21-.16-.3-.23-1.16-.67-2.29-1.32-3.48-2.01-1.62-.93-3.33-1.91-4.96-2.85-1.47-.88-2.83-1.69-4.3-2.57-2.27-1.35-4.68-2.87-6.98-4.32-1.35-.85-1.97-1.27-3.26-2.14-.85-.57-1.17-.79-2.02-1.31-.86-.52-1.51-.89-2.44-1.47-.67-.42-1.5-.99-2.2-1.46-1.91-1.3-3.56-2.42-5.51-3.74-.6-.44-1.3-.94-1.9-1.38-.65-.45-1.25-.87-1.88-1.31-.64-.45-.26-.18-1.03-.73Z"/>
      <path class="st0" d="M165.04,533.91c1.77,1.32,3.54,2.63,5.29,3.93.88.66,1.76,1.31,2.63,1.96.89.63,1.77,1.26,2.65,1.89,3.52,2.51,6.95,4.97,10.2,7.29,3.26,2.3,6.41,4.37,9.23,6.29,2.83,1.9,5.33,3.66,7.51,5.02,5.23,3.28,9.76,6.11,13.86,8.68,4.17,2.41,7.9,4.58,11.46,6.64,3.52,2.12,7.05,3.85,10.6,5.77,3.59,1.86,7.2,3.95,11.39,5.89,1.73.84,3.72,1.8,5.93,2.88,1.11.54,2.27,1.1,3.49,1.69,1.22.58,2.47,1.23,3.83,1.79,2.69,1.17,5.57,2.42,8.61,3.74,3.04,1.31,6.22,2.76,9.64,3.98,3.39,1.29,6.91,2.62,10.52,3.99,1.79.72,3.66,1.3,5.53,1.91,1.88.61,3.77,1.22,5.68,1.84,3.82,1.22,7.67,2.54,11.63,3.61,3.95,1.1,7.94,2.12,11.92,3.06,15.92,3.75,31.9,5.96,44.94,6.94,1.63.11,3.11.28,4.71.42,1.57.13,3.08.24,4.54.32,2.93.17,5.64.26,8.09.28,2.45.03,4.64,0,6.53-.05,1.84-.06,3.39-.11,4.62-.15,2.1-.07,4.24-.13,6.42-.2,2.19-.07,4.43-.09,6.7-.28,2.27-.15,4.56-.3,6.86-.45l3.44-.22c1.14-.09,2.28-.23,3.42-.34,9.1-.83,17.84-2.07,24.86-3.24,2.3-.44,4.67-.89,7.06-1.34,1.18-.23,2.36-.46,3.52-.68,1.18-.27,2.34-.53,3.48-.78,1.76-.39,3.64-.8,5.62-1.24,1.98-.43,4.06-.86,6.18-1.43,2.13-.55,4.33-1.11,6.57-1.69,1.12-.29,2.25-.59,3.4-.89,1.14-.31,2.27-.68,3.42-1.02,5.1-1.55,7.37-2.21,9.48-2.82,2.13-.7,4.14-1.35,8.46-2.77,3.69-1.14,9.6-3.56,13.45-4.98,11.59-4.51,22.42-9.16,32.96-14.41,5.32-2.52,10.49-5.34,15.77-8.14,2.65-1.38,5.22-2.95,7.87-4.44,2.63-1.51,5.32-3.01,7.95-4.67,13.92-8.37,27.04-17.48,38.67-26.17,11.63-8.71,21.71-17.06,29.64-23.91,1.7-1.45,2.71-2.31,4.4-3.75,2.92-2.63,7.53-6.86,10.49-9.68,15.12-14.02,27.46-26.94,36.36-36.65,1.6-1.77,3.19-3.53,4.76-5.31,1.27-1.4,2.55-2.8,3.88-4.27.65-.71,1.3-1.42,1.94-2.12.8-.9,1.56-1.9,2.23-3.01,1.38-2.26,2.33-4.86,2.67-7.5.05-.34.07-.63.1-.93v-.17s.02-.03.02-.03l.05-.16c.1-.31.2-.63.29-.95.35-1.27.57-2.59.63-3.92,0-.17,0-.13,0-.19-.02-.04,0-.07.04-.1l.08-.08c.3-.28.59-.57.89-.85,1.31-1.25,2.58-2.46,3.79-3.62,4.86-4.63,8.9-8.44,11.5-10.74l20.42-19.61c2.78-2.62,5.57-5.25,8.37-7.89,1.4-1.32,2.8-2.65,4.21-3.97l.53-.5c.16-.15.43-.44.64-.66.44-.48.92-.93,1.28-1.46.81-1.01,1.48-2.11,2.07-3.23,2.29-4.54,2.81-9.65,1.74-14.53l-.71-2.49c-.06-.21-.12-.42-.19-.63-.16-.4-.33-.79-.44-1.15-.1-.3-.25-.67-.34-.85-.06-.13,0-.23-.06-.37-.08-.21-.31-.48-.23-.71-.34.08-.15-.34-.26-.5-.06-.08-.31-.24-.49-.4-.01-.01.01-.09,0-.1-.02-.04-.17-.07-.21-.11-.01-.01.01-.09,0-.1-.08-.13-1-.52-1.13-.56-.09-.03-.12.04-.2,0-.09-.04-.07.06-.1.06-.36-.07-.59-.22-.72-.19-.3.08-.64,0-.8.11-.06.04-.14.08-.19.13-.38-.19-.42.03-.79-.14,0,.24-.24.25-.36.38-.05.05-.14.08-.18.14-.03.04.03.15,0,.19-.01.02-.16.02-.19.05-.19.18-.42.36-.54.52-.06.09-.11.16-.18.23-.05.05-.12.08-.18.14-.06.06-.07.15-.18.14,0-.15-.07-.24-.17-.31.02.27-.2.24-.18.5-.14-.02-.16,0-.18.15-.01.13-.21.24-.27.31-.08.1-.05.17-.1.33-.06.19-.39.34-.3.63-.12.07-.3.04-.42.12-.16.36-.27.78-.53.99.16.18-.07.46-.06.67.01.06.24.16.06.31.04.16.35.16.34.36-.04.23-.28.13-.3.4.3.09.3.42.43.62.07.12.17.18.26.3.08.09.06.29.24.32-.1.27.1.57.17.72.01.03-.09.1-.08.13.02.04.14.12.16.15.03.05.04.1.06.15l.02.08v.04s.01.02.01.02l.14.41c.12.28.16.6.24.9.58,2.43.31,5.07-.52,7.25-.44,1.08-1.01,2.05-1.67,2.88-.54.62-1.88,1.87-2.95,2.88-4.39,4.18-8.38,7.98-11.82,11.25-5.41,5.13-15.1,14.31-25.09,23.78-2.5,2.36-5.03,4.74-7.5,7.08-1.37,1.29-2.73,2.57-4.06,3.83-.56.53-1.12,1.06-1.68,1.59-.27.27-.58.52-.81.79l.12,1.16c.06.76.19,1.59.16,2.26,0,.11,0,.14,0,.17v.09s-.02.19-.02.19l-.04.38c-.07.5-.19,1.01-.35,1.5l-.08.23-.18.49-.19.5c-.07.17-.04.35-.06.53-.05.88-.06.98-.1,1.29-.13,1.01-.42,1.95-.81,2.83-.4.87-.91,1.67-1.48,2.39-.15.18-.3.36-.45.54-.2.22-.4.45-.59.66-.39.43-.76.85-1.12,1.26-14.17,16.12-30.3,32.76-45.25,46.58-12.01,11.26-25.73,22.46-33.35,28.43-1.45,1.14-3.42,2.69-5.44,4.29-1.98,1.58-4.05,3.1-5.64,4.31-2.83,2.15-6.47,4.73-10.15,7.35-1.83,1.33-3.73,2.57-5.52,3.81-1.81,1.22-3.51,2.42-5.09,3.45-19.39,12.78-35.61,21.59-50.12,28.53-2.27,1.16-4.77,2.23-7.35,3.4-2.6,1.14-5.26,2.42-8.04,3.56-2.78,1.14-5.61,2.3-8.43,3.46l-2.11.86c-.71.26-1.42.53-2.13.79-1.42.53-2.82,1.05-4.22,1.57-5.54,2.15-10.94,3.84-15.56,5.41-2.3.81-4.47,1.39-6.37,1.97-1.91.57-3.57,1.06-4.92,1.47-3.1.98-6.02,1.69-8.78,2.43-2.77.71-5.37,1.49-7.97,2.08-2.62.6-5.18,1.18-7.77,1.77-1.31.28-2.62.61-3.98.86-1.35.24-2.73.49-4.16.75-2.45.44-4.92.88-7.43,1.33-2.55.37-5.12.74-7.73,1.11-5.21.84-10.56,1.29-15.87,1.88l-1.99.21-1.99.13c-1.33.09-2.65.17-3.96.26-2.63.15-5.23.39-7.81.46-5.08.1-10.01.2-14.85.29-3.44.08-6.87.04-10.28-.09-1.71-.07-3.41-.16-5.1-.28-1.7-.12-3.36-.27-5.15-.43-3.51-.26-6.88-.54-10.27-.9-3.38-.36-6.75-.77-10.1-1.24-13.39-1.88-26.46-4.7-39.16-8.37-25.45-7.44-49.51-17.92-72.51-30.37-6.22-3.19-12.32-6.92-18.54-10.5l-2.33-1.35-2.28-1.43-4.56-2.86c-3.02-1.93-6.1-3.76-9.05-5.75-2.95-1.99-5.88-3.96-8.78-5.91-1.44-.98-2.89-1.93-4.31-2.92-1.4-1-2.79-2-4.17-2.99-2.75-1.98-5.45-3.93-8.12-5.85-2.64-1.93-5.16-3.91-7.64-5.79-2.47-1.86-5.11-3.82-7.8-5.89-2.67-2.1-5.42-4.26-8.17-6.43-5.54-4.28-10.92-8.81-15.79-12.73-17.32-14.23-33.38-28.18-50.17-42.92-.81-.71-1.63-1.43-2.46-2.16-.5-.44-1-.88-1.51-1.32-.2-.17-.39-.36-.6-.51l-.71-.32c-.56-.25-.58-.27-.8-.38-.73-.38-1.41-.83-2.03-1.34-.49-.4-1.46-1.36-2.25-2.1-3.31-3.14-6.62-6.29-9.8-9.3-3.91-3.72-6.63-6.32-10.36-9.88-9.17-8.7-21.05-19.97-30.24-28.69-.93-.88-1.9-1.8-2.91-2.76-.5-.48-1.01-.96-1.53-1.45-.26-.25-.36-.38-.55-.58-.16-.19-.36-.34-.49-.56-.64-.77-1.11-1.66-1.52-2.59-.34-.97-.61-1.98-.69-3.05-.16-2.12.24-4.36,1.13-6.24.82-1.89,2.15-3.51,3.33-4.42,1.6-1.21,2.89-1.77,5.12-2.07,1.76-.23,3.82-.01,5.76.7.5.14.95.42,1.43.6.43.28.93.48,1.33.8l.63.44.58.5.3.26.39.37.78.74c4.11,3.93,8.13,7.77,11.36,10.85,7.32,7.03,14.18,13.62,21.38,20.54,1.81,1.73,3.64,3.49,5.51,5.28,1.78,1.69,3.57,3.4,5.39,5.13l1.4,1.33.7.67s.06.07.09.07l.08-.09.16-.18.33-.36c.88-.95,1.76-1.91,2.65-2.88,1.51-1.64,3.05-3.29,4.6-4.97.95-1.01,1.91-2.04,2.89-3.08,1.98-2.07,4.02-4.21,6.14-6.43,8.45-8.75,17.17-17.28,26.11-25.5,2.64-2.43,5.2-4.73,7.72-6.97,1.26-1.11,2.5-2.2,3.74-3.29,2.36-2.04,4.69-4.05,7.01-6.05l.2-.17.1-.09-.08-.11-.32-.43c-.21-.29-.43-.57-.65-.87-.43-.58-.87-1.17-1.32-1.76-.89-1.18-1.79-2.39-2.71-3.61-1.04-1.39-2.1-2.8-3.13-4.17-11.57-15.44-23.12-30.87-35.32-47.16-5.64-7.56-11.8-15.82-17.29-23.19-.68-.9-1.29-1.72-1.89-2.52-.3-.4-.59-.79-.89-1.18l-.44-.59-.21-.31c-1.18-1.82-1.37-5.21-.57-8.51.5-2.02,2.02-4.06,4.12-5.68.26-.21.53-.4.8-.59l.41-.28.31-.18c.43-.24.93-.46,1.48-.65,1.1-.36,2.35-.56,3.6-.59,1.25-.02,2.47.12,3.52.45,1.13.33,2.1.84,3.04,1.52.93.7,1.84,1.6,2.75,2.72.87,1.06,1.89,2.49,2.89,3.82,8.03,10.85,15.02,20.29,22.88,30.92,1.84,2.47,3.79,5.09,5.64,7.58,2.14,2.9,3.85,5.22,5.9,7.99,4.29,5.77,10.19,13.71,14.79,19.9,2.5,3.35,4.83,6.48,7.09,9.5.86,1.16,1.72,2.31,2.57,3.45l.32.43.08.11.04.05s.04-.02.05-.04l.21-.16.85-.64,1.69-1.27c2.02-1.51,4.03-3,6.03-4.5,4.56-3.35,9.13-6.62,14.39-10.23,5.85-3.99,10.25-6.83,14.65-9.57,4.41-2.73,8.83-5.39,14.89-8.82,4.5-2.55,9.34-5.16,14.19-7.67,1.22-.62,2.44-1.24,3.65-1.85,1.5-.74,2.99-1.48,4.47-2.21,2.36-1.14,4.71-2.27,7.02-3.39.13-.08.32-.13.4-.22l-.21-.43-.42-.86c-.28-.57-.56-1.14-.84-1.71-.56-1.13-1.11-2.26-1.66-3.38-1.38-2.82-2.24-4.59-2.82-5.76-.41-.85-.6-1.27-.76-1.59-.26-.56-.23-.55-1.22-2.63-3.66-7.68-16.61-33.7-21.73-44.11-4.38-8.92-8.77-17.85-13.14-26.75-2.18-4.45-4.36-8.9-6.54-13.34l-1.63-3.33-.81-1.66-.41-.83-.2-.41-.14-.32c-.78-1.7-1.23-3.48-1.31-5.21-.12-3.47,1.28-6.67,3.99-8.94,1.48-1.23,2.63-1.87,4.24-2.25,1.58-.34,3.36-.33,5.06.03,1.69.36,3.33,1.05,4.59,2.01.61.5,1.2,1,1.62,1.59l.33.43c.1.15.17.31.26.46l.13.22c.05.08.08.12.16.28l.4.81c2.12,4.3,4.24,8.57,6.34,12.83,5.91,11.99,12.31,24.96,18.73,37.97,6.57,13.39,13.15,26.81,19.22,39.17,1.51,3.09,2.99,6.11,4.43,9.05,1.14,2.33,2.27,4.63,3.38,6.9.34.7.68,1.4,1.02,2.09.18.33.33.72.52,1.01l1.08-.4c1.44-.53,2.86-1.05,4.27-1.57,1.98-.72,3.92-1.43,5.82-2.13,1.37-.48,2.72-.94,4.04-1.4,2.62-.94,5.16-1.71,7.54-2.5,1.79-.57,4.16-1.33,6.59-2.1,2.4-.75,4.83-1.45,6.75-2.02,19.64-5.5,41.33-9.59,62.05-11.37,1.38-.11,2.73-.22,4.05-.33.66-.05,1.31-.11,1.96-.14.9-.05,1.8-.11,2.69-.16,2.54-.15,5.05-.3,7.54-.45l.47-.03c.06-.02.2.03.19-.05v-.23s0-.93,0-.93l-.02-1.86c-.01-1.24-.02-2.48-.03-3.72-.04-5.53-.08-11.03-.13-17.11-.14-15.23-.53-32.35-.35-38.45-.26-19.63-.46-34.33-.72-53.96-.01-2.42-.03-4.86-.04-7.31,0-1.23-.02-2.46-.02-3.7v-1.86c-.01-.29-.02-.66-.01-.9l.03-.64c.14-3.37,2.11-6.53,5.2-8.44,1.54-.94,3.3-1.6,5.13-1.81.44-.02.95-.13,1.33-.08h.61c.2,0,.4.06.61.08.81.07,1.6.36,2.39.65,1.56.68,3.02,1.82,4.2,3.23,1.18,1.42,2.01,3.13,2.44,4.85.13.43.15.87.24,1.3l.04.65c.02.21.04.4.04.77l.04,3.87c.03,2.58.05,5.16.08,7.73.05,5.14.1,10.25.15,15.3.06,10.06.13,19.91.19,29.51.3,15.68.43,29.6.55,43.47.07,7.21.14,14.41.21,21.83.02,1.75.04,3.5.06,5.26v1.32s.02.66.02.66v.33s0,.17,0,.17c0,.05-.02.13.06.11.88.05,1.77.1,2.65.16,1.77.1,3.55.21,5.34.31,1.13.08,2.27.15,3.41.23,3.62.25,7.32.58,11.11.97,5.12.68,11.36,1.54,17.68,2.65,6.32,1.1,12.72,2.44,18.19,3.84,11.67,2.8,23.25,6.43,34.7,10.66l2.14.8,3.58,1.38,4.24,1.66,1.06.42.27.1.13.05s.1.05.11-.01l.25-.51,1-2.04c1.84-3.74,3.67-7.48,5.51-11.22,2.74-5.58,5.49-11.17,8.25-16.77,11.03-22.39,22.13-44.94,33.22-67.47.81-1.65,1.7-3.45,2.64-5.37.47-.96.95-1.94,1.45-2.94.25-.5.49-1.01.75-1.51l.38-.77c.13-.26.2-.33.29-.51.69-1.24,1.7-2.27,3-3.06,1.29-.79,2.88-1.28,4.49-1.45,1.61-.18,3.23-.06,4.64.28.71.16,1.37.4,1.97.63.29.14.58.27.85.4.22.12.41.23.62.37.81.55,1.55,1.29,2.07,1.94.53.65.9,1.22,1.11,1.57.89,1.49,1.32,2.8,1.48,4.12.15,1.3.06,2.54-.23,3.73-.28,1.19-.71,2.33-1.24,3.42-.65,1.3-1.26,2.54-1.86,3.74-2.44,4.89-4.63,9.25-7.74,15.68-5.98,12.36-26.86,54.61-31.41,63.87-3.53,7.18-6.98,14.21-10.4,21.17l-.52,1.06-.26.53-.07.13s-.03.05-.03.06l.06.03.24.12,1.95.98,3.89,1.96,3.84,1.94,2.1,1.1c2.81,1.45,5.58,2.96,8.36,4.46,11.09,6.11,22.07,12.7,33.47,20.2,5.06,3.31,10.24,6.85,15.47,10.53,2.62,1.83,5.24,3.72,7.87,5.62,1.31.96,2.62,1.92,3.93,2.88l6.32,4.69,3.58,2.67c.16.23.27-.08.39-.21l.36-.49.72-.97,1.45-1.94c1.54-2.06,3.07-4.12,4.61-6.17,1.96-2.62,3.9-5.22,5.83-7.81,3.86-5.17,7.65-10.24,11.3-15.13,6.71-9.04,16.61-22.37,23.73-31.95,3.33-4.46,6.81-9.11,10.32-13.8,1.75-2.34,3.51-4.68,5.25-7,.85-1.13,1.79-2.42,2.5-3.3.76-.94,1.52-1.74,2.3-2.4.78-.66,1.57-1.18,2.43-1.6.43-.21.88-.4,1.35-.56l.35-.12.29-.08c.19-.06.39-.09.58-.14,1.58-.3,3.39-.11,5.14.46.87.28,1.74.65,2.51,1.07.54.3,1.13.73,1.67,1.24,1.09,1.03,2,2.36,2.58,3.57.66,1.38.79,2.17.9,2.99.1.79.1,1.37.09,1.87-.02.51-.04.96-.13,1.54-.08.57-.2,1.33-.5,2.17-.15.44-.34.8-.49,1.02l-.05.09-.17.23-.36.49-.73.98c-.97,1.31-1.96,2.64-2.96,3.98-1.99,2.68-4.01,5.4-6.02,8.13-4.05,5.45-8.08,10.88-11.85,15.95-7.58,10.14-15.24,20.37-22.83,30.53-3.8,5.06-7.58,10.11-11.33,15.11-1.88,2.5-3.74,4.98-5.6,7.46-1.74,2.32-3.48,4.64-5.21,6.95l-.69.92-.34.46s-.07.08-.07.11l.11.09.22.18,1.77,1.45c1.18.96,2.36,1.93,3.54,2.89,1.54,1.23,3.16,2.54,4.87,3.91,1.36,1.11,2.79,2.27,4.28,3.48,2.99,2.45,6.23,5.14,9.62,8,6.78,5.71,14.16,12.06,21.36,18.35,2.72,2.38,5.42,4.74,8.09,7.08l1.31,1.15.16.14.08.07s.05-.04.08-.06l.32-.3.63-.6c.84-.79,1.68-1.59,2.52-2.38,1.4-1.32,2.78-2.63,4.15-3.92,3.32-3.14,6.52-6.15,9.49-8.95,5.92-5.61,10.91-10.35,14.33-13.59,5.27-5.05,11.29-10.72,17.11-16.21,1.46-1.37,2.9-2.73,4.32-4.07.35-.33.71-.67,1.06-1,.33-.31.54-.46.81-.7.24-.24.54-.4.8-.6.26-.21.54-.37.82-.52,1.11-.64,2.27-1.08,3.42-1.3,1.15-.21,2.28-.24,3.35-.14,1.44.14,2.44.52,3.19.83.16.07.3.14.44.2h0s0,.01,0,.01c0,.01,0,.03.03.04.4.07.57.34.87.54.23.15.47.29.68.48.16-.03.26-.15.37-.21.12-.06.22-.05.3-.12.06-.05.09-.19.15-.25-.19.01-.03-.26.07-.24.46-.03.64-.31.86-.55.26-.09.26.12.41.16.25-.26.38-.64.9-.64.08-.16.13-.35.33-.4l.44.03c.12-.17.34-.26.51-.38.13-.09.23-.23.35-.22.13,0,.09-.19.17-.24.22.05.36.03.46-.03.2-.29.5-.48.58-.88.19-.08.35-.19.55-.26,0-.51.48-.55.45-1.09.11-.11.5.06.47-.18-.38-.14-.25-.72-.39-1.1-.2-.07-.32-.25-.47-.37-.14-.13-.6-.37-.63-.46-.04-.11-.06-.05-.13-.11-.2-.17-.44-.27-.61-.34-.13-.06-.19-.11-.34-.13-.16-.37-.66-.48-.98-.68-.07-.04-.11-.15-.18-.19-.11-.07-.24-.03-.36-.1-.2-.11-.35-.3-.59-.36l-.24-.1-.06-.02-.92-.41c-.45-.22-.95-.35-1.42-.52-.47-.17-.96-.32-1.45-.43-1.96-.52-4.01-.72-6.04-.61-2.03.11-4.06.48-5.96,1.2-1.9.72-3.73,1.66-5.32,2.89-.42.28-.78.63-1.17.95-.37.32-.79.68-1.05.94l-1.77,1.68c-2.36,2.24-4.72,4.48-7.1,6.72-4.75,4.49-9.52,9.02-14.36,13.59-4.42,4.18-8.95,8.45-13.6,12.85-2.33,2.2-4.68,4.42-7.08,6.68-1.06,1-2.13,2.01-3.21,3.03l-.38.35-.19.18s-.03.04-.05.04l-.05-.04-.1-.09c-.16-.14-.3-.28-.43-.41.12.08-.85-.78-1.6-1.44-2.93-2.56-7.68-6.54-10.79-9.21-3.08-2.65-5.53-4.9-8.66-7.57-3.33-2.84-7.49-6.2-10.93-9.05-2.07-1.71-4.53-3.74-7.25-5.99-.72-.59-1.47-1.2-2.25-1.84l-.23-.19c-.07-.03-.01-.07.02-.11l.09-.12c.12-.16.25-.33.37-.49,4.74-6.35,9.96-13.33,14.95-20.02,10.22-13.72,19.53-26.21,22.42-30.1,8.03-10.92,17.32-23.2,23.01-30.81.53-.72,1.18-1.6,1.91-2.59,1.1-1.53,1.77-3.23,2.2-4.87.83-3.28.76-6.42.43-8.74-.1-.79-.3-1.84-.66-2.96-.35-1.12-.84-2.29-1.47-3.47-1.27-2.36-3.08-4.79-5.71-6.78-.65-.5-1.38-.95-2.13-1.36-.66-.34-1.32-.66-2-.95-1.36-.57-2.75-1.02-4.13-1.31-2.75-.62-5.45-.54-7.42-.17-.73.14-1.48.33-2.17.56-.64.21-1.28.45-1.91.72-1.25.54-2.46,1.21-3.56,1.98-2.22,1.53-3.98,3.4-5.41,5.22-2.51,3.34-4.94,6.59-7.4,9.87-4.86,6.5-9.81,13.13-15.63,20.92-5.09,6.82-10.23,13.7-15.34,20.53-5.73,7.65-13.23,17.64-18.83,25.11-.98,1.33-2,2.71-3.06,4.14-.09.14-.19.28-.29.42l-.15.22-.08.11s-.04.09-.12.02c-.48-.34-.96-.67-1.43-1-1.37-.99-2.69-1.94-3.95-2.85-6.38-4.62-13.25-9.61-19.96-14.13-2.79-1.91-8.97-5.8-11.99-7.72-.99-.63-3.77-2.42-4.87-3.13-1.64-1.02-3.83-2.32-6.04-3.64-2.26-1.31-4.52-2.62-6.25-3.63-4.37-2.54-9.05-5.18-13.8-7.74-1.18-.65-2.38-1.28-3.57-1.91-1.12-.59-2.24-1.18-3.35-1.76-.39-.2-.78-.4-1.17-.6-.17-.1-.43-.19-.53-.3l.18-.35c4.1-8.29,7.8-15.76,10.19-20.59,4.45-9.13,7.77-15.94,11.82-24.25,8.11-16.47,16.45-33.4,24.25-49.26.49-.99.97-1.98,1.46-2.96.51-1.02,1.07-2.26,1.48-3.46.86-2.43,1.38-5.12,1.28-7.84-.04-1.35-.23-2.7-.55-4-.32-1.31-.8-2.58-1.35-3.73-1.12-2.32-2.57-4.36-4.39-6.14-.91-.89-1.93-1.71-3.08-2.41-.29-.17-.59-.35-.88-.5l-.83-.4-.83-.39-.85-.31c-2.26-.83-4.57-1.25-6.85-1.36-4.54-.15-9.04.98-12.69,3.5-1,.69-2.12,1.64-3.17,2.82-.52.59-.99,1.27-1.48,1.94-.21.36-.41.72-.62,1.09-.19.35-.45.79-.56,1.05-1.13,2.35-2.27,4.71-3.11,6.45-2.19,4.41-5.87,11.81-8.26,16.62-4.52,9.26-7.67,15.73-11.82,24.25-8.58,17.4-16.57,33.6-24.41,49.49-.63,1.28-1.26,2.55-1.89,3.82l-.14.29c-.06.06-.19-.05-.28-.07l-.6-.24c-4.11-1.58-8.33-3.1-12.54-4.54-8.44-2.88-17.05-5.44-25.94-7.63-7.55-1.72-14.13-3.03-20.66-4.14-6.54-1.11-13.04-1.99-20.47-2.66-1.97-.24-3.87-.4-5.71-.59-1.44-.12-2.81-.23-4.13-.34-.29-.07-.8.09-.66-.36,0-.69-.02-1.37-.02-2.03-.09-6.11-.17-11.85-.25-17.89-.02-2.65-.09-15.07-.11-18.55-.23-21.71-.48-44.24-.71-65.44-.05-5.37-.1-10.72-.15-16.05v-1s-.08-1.25-.08-1.25c-.02-.85-.2-1.68-.33-2.51-.35-1.64-.86-3.23-1.57-4.72-1.41-2.98-3.44-5.64-6.06-7.69-1.27-1.06-2.75-1.9-4.28-2.62-1.56-.65-3.21-1.19-4.92-1.4-3.51-.46-6.71.02-9.8,1.13-3.07,1.11-5.91,2.89-8.19,5.31-1.17,1.17-2.13,2.56-2.99,4-.78,1.48-1.48,3.03-1.86,4.67-.45,1.63-.6,3.31-.64,4.97l.03,3.97.06,7.89c.04,5.26.08,10.51.12,15.77.08,10.52.16,21.05.24,31.63.23,15.94.2,29.2.6,46.86.01,4.68.03,9.44.04,14.36v.65c.02.08-.07.04-.12.06h-.17s-.34.03-.34.03l-.95.06c-.68.04-1.36.08-2.04.14-1.36.11-2.73.23-4.09.34-10.94.93-21.95,2.49-31.9,4.26-17.09,3.19-33.22,7.47-48.47,12.46-3.82,1.22-7.57,2.55-11.29,3.86l-1.09.39-.22.08-.11.04s-.07.03-.08-.02l-.19-.42-.09-.21-.6-1.23c-3.31-6.85-6.59-13.62-9.84-20.34-8.13-16.57-15.61-31.82-23.09-47.07-3.74-7.62-7.47-15.25-11.29-23.04-.96-1.95-1.92-3.9-2.88-5.88-.48-.99-.97-1.97-1.46-2.97l-.37-.74c-.13-.26-.21-.45-.43-.83-.39-.66-.73-1.37-1.2-1.96-1.77-2.5-4.14-4.43-6.71-5.77-2.58-1.35-5.38-2.16-8.28-2.43-2.07-.18-4.42-.12-6.88.47-.61.17-1.23.34-1.85.54-.61.24-1.23.5-1.85.76-.6.32-1.2.66-1.8,1-.54.35-1.03.72-1.55,1.08-2.01,1.52-3.83,3.43-5.19,5.55-1.37,2.12-2.28,4.42-2.76,6.57-.54,2.37-.57,4.39-.44,6.12.11,1.75.45,3.22.83,4.61.4,1.38.91,2.66,1.55,4,.55,1.1,1.14,2.28,1.84,3.68,2.75,5.49,4.33,8.63,7.65,15.44,1.41,2.91,2.04,4.2,3.64,7.5,1.39,2.84,2.88,5.86,4.29,8.74,3.3,6.7,6.69,13.6,9.97,20.26,3.82,7.72,6.75,13.63,10.32,20.83,3.45,7.03,6.97,14.18,10.48,21.32l.18.38c.02.06.08.13.07.18l-.19.09-.38.18-2.33,1.15c-3.66,1.82-7.27,3.69-10.79,5.58-18.12,9.72-34.34,20.09-50.63,31.89-1.17.86-2.35,1.72-3.54,2.6-.11-.1-.21-.28-.32-.41l-2.21-2.96c-3.57-4.79-7.15-9.59-10.66-14.3-4.01-5.38-8.47-11.36-12.38-16.61-4.25-5.73-8.15-10.99-12.64-17.06-1.76-2.37-3.51-4.72-5.24-7.04-3.1-4.17-6.19-8.32-9.28-12.46l-2.31-3.11c-.75-1.01-1.67-2.23-2.66-3.35-1.01-1.14-2.18-2.27-3.52-3.28-1.35-1-2.88-1.87-4.47-2.49-1.56-.61-3.28-1.04-4.93-1.23-1.65-.19-3.28-.19-4.91-.02-1.63.17-3.26.51-4.89,1.09-.81.28-1.63.65-2.43,1.07-.39.21-.82.47-1.18.7-.33.22-.66.43-.98.67-2.57,1.85-4.95,4.21-6.65,7.3-.43.76-.79,1.59-1.11,2.42-.14.43-.3.85-.42,1.3-.12.44-.24.9-.31,1.27-.33,1.56-.52,3.14-.56,4.78-.05,2.53.22,5.31,1.44,8.17.31.71.68,1.42,1.12,2.1l.35.51.18.25.13.17.49.65c.65.87,1.3,1.75,1.95,2.62,2.61,3.5,5.22,7,7.68,10.29,3.48,4.63,4.46,5.94,7.51,10,3.58,4.79,6.06,8.11,9.57,12.8,1.69,2.25,2.71,3.61,4.26,5.67,5.73,7.69,12.01,16.12,17.74,23.81,3.15,4.24,6.21,8.37,9.22,12.43l.07.1s-.06.06-.08.08l-.19.16-.1.08-.58.5-1.72,1.5c-2.29,2-4.55,4-6.79,6.02-8.96,8.08-17.64,16.38-26.48,25.37-3.48,3.54-6.88,7.09-10.24,10.66l-2.92,3.12-.09.09s-.06-.05-.09-.07l-.18-.18c-7.06-6.71-14.18-13.47-21.58-20.5-4.38-4.15-8.71-8.24-13.03-12.33l-3.24-3.06-1.62-1.53c-.23-.23-.61-.56-.98-.88-.37-.31-.73-.64-1.12-.92-1.54-1.16-3.22-2.08-4.97-2.81-1.77-.67-3.59-1.21-5.48-1.44-3.32-.48-6.79-.12-10.06,1.04-3.27,1.12-6.28,3.42-8.37,6.04-2.12,2.58-3.56,5.63-4.35,8.83-.8,3.2-.85,6.62-.08,9.92.61,2.63,1.8,5.21,3.5,7.42.21.28.42.56.64.82l.71.76.72.75.58.55c.77.73,1.54,1.46,2.31,2.19,3.09,2.93,6.21,5.89,9.34,8.86,6.26,5.94,12.58,11.94,18.75,17.79,7.19,6.85,10.59,10.08,17.64,16.8,2.31,2.2,3.9,3.71,5.47,5.22.79.75,1.58,1.49,2.45,2.32,1.07,1.03,2.5,2.16,4.22,3.12.43.24.9.48,1.29.67.11.05.09.04.13.06.48.42.95.82,1.41,1.22,1.08.93,2.13,1.84,3.19,2.76,2.14,1.86,4.32,3.75,6.88,5.98,3.76,3.27,8.45,7.35,12.46,10.84,5.57,4.76,10.8,9.24,15.98,13.67,2.61,2.19,5.21,4.37,7.84,6.57,1.31,1.1,2.63,2.2,3.96,3.32,1.34,1.1,2.7,2.2,4.07,3.32,3.98,3.22,7.42,6.14,11.43,9.29,3.71,2.91,7.72,6.06,11.28,8.85,3.86,2.92,1.32,1,6.3,4.76Z"/>
    </g>
  </g>
</svg>