<?xml version="1.0" encoding="UTF-8"?>
<svg id="Ebene_1" xmlns="http://www.w3.org/2000/svg" version="1.1" viewBox="0 0 800 800">
  <!-- Generator: Adobe Illustrator 30.4.0, SVG Export Plug-In . SVG Version: 2.1.4 Build 226)  -->
  <defs>
    <style>
      .st0 {
        fill-rule: evenodd;
      }

      .st0, .st1 {
        fill: #e5b969;
      }

      .st2 {
        fill: none;
        stroke: #e5b969;
        stroke-linecap: round;
        stroke-linejoin: round;
        stroke-width: 44px;
      }
    </style>
  </defs>
  <path class="st0" d="M-353.33,1207.83c3.76-2.11,7.61-.02,9.81-.3,5.28-.7,7.69-3.44,11.63-3.6,6.55-.27,28.93,5.37,33.14,2.85,3.55-2.13,8.02,1.02,11.05.95,1.02-.03,2.04-1.82,3.05-2.04,1.54-.34,3.49,1.69,5.52.47,2.27-1.36,2.01,1.16,4,1.5.82.14,2.18-2.01,3.05-2.04,5.29-.19,10.03.25,15.33.17,6.92-.11,13.62-.41,18.1.41.5.09.74,1.17,1.24,1.26.84.14,2.18-2.08,3.05-2.04,4.41.21,8.22.97,11.05.95.51,0,1.02-1.02,1.53-1.02.85,0,1.62,2.46,2.47,2.51,3.5.19,6.79-4.04,8.28.71,2.03-1.36,4.07-2.72,6.1-4.08,13.16,2.46,27.42,1.35,38.67,3.33,4.78.84,10.75.83,13.81,1.19,2.15.25,3.01,2.22,5.24,2.75,3.3.8,8.44-.52,10.76,3.23,1.64-6.59,5.42.86,8.28.71,1.4-.08,5.4-3.01,8.86-3.84.24-.05.97,1.21,1.24,1.26.72.12,2.29-1.88,3.05-2.04.26-.05.95,1.2,1.24,1.26,2.14.36,15.05-9.68,16.78-11.21,1.26-1.12.69-2.46,1.81-3.29,1.37-1.02-.05-1.89.29-2.28,4.3-5.04,8.43-5.91,9.44-8.39,2.23-5.5,6.78-9.41,7.25-13.18.19-1.52.61-3.02.57-4.55,6.53-2.89,4.43-6.52,10.97-9.41-2.79-3.29-.1-7-.09-10.36,0-1.35.83-3.16.58-4.55-.17-.93-2.18-1.6-2.47-2.51-.15-.46,1.79-2.69,1.81-3.29.18-5.32.99-11.08.49-14.91-.28-2.15-.65-3.81-.66-5.81,0-1.46.63-2.91.58-4.55-.06-1.65-1.01-3.07.58-4.55,2.04,2.21,4.34,2.43,6.76,1.73-4.02-3.41-.35-6.16-4.37-9.58,2.27-1.72,2.51-2.36.58-4.55-1.71-1.93-.18-6.38-.37-8.08-.29-2.56-1.7-3.11-3.42-6.05-2.02-3.45,1.04-10.33-5.32-13.11.75-2.62,4.41-4.99,5.15-7.61-3.31-7.19-9.14-14.59-8.45-21.43-6.48-.27-7.79-7.39-12.65-10.29-1.53-.91-7.83,1.58-8-2.99-4.5-1.22-9.77,3.67-14.1,1.09-4.64-3.47,1.88-5.97-4.37-9.58-7.31,3.23-15.21.27-22.38.37-4,.05-7.09,1.11-11.34,1.32-3.46.17-8.34-1.87-11.33,1.33-5.75-3.93-16.06-2.9-20.57-2.92-.84,0-1.63-2.48-2.47-2.51-1.36-.05-4.73,1.63-5.81,1.8-5.86.91-12.82-1.58-16.86.85-3.17,1.89-11.58-.27-15.34-.17-4.65.12-9.68.99-14.1,1.09-3.57.08-7.42-1.61-9.52-1.97-.82-.14-2.18,2-3.05,2.04-1.54.06-3.88-.51-5.52-.47-5.05.11-9.07.08-12.57.07-4.44-.01-11.34-1.49-13.81-1.19-2.84.34-4.81,4.04-7.34,2.82-4.3-2.77-9.45,1.13-13.52-3.46-12.19,4.35-23.56,2.29-34.95.44-6.09.28-12.7,4.7-18.1-.4-2.68.04-6.05-1.16-8.76-1.15-4.85.01-9.44.21-14.26.58-1.86.14-3.91.17-5.8.07-1.17-.06-1.97-.52-3.08-.68-2.72-.39-6.25.04-8.98.02-2.21-.02-5.27-.16-7.3.65-.65.26-1.08.7-1.76.97-2.14.87-5.03.25-6.94-.69-4.39-2.14-8.15-5.43-13.48-5.36-2.64.04-5.29,0-7.93,0-1.56,0-3-.08-4.4.31-.63.18-1.33.59-2.01.79-4.15,1.18-8.3,2.34-12.69,2.65-2.03.14-4.25-.29-6.23.02-.49.08-.88.45-1.32.53-.94.17-1.74.15-2.71.14-2.95-.02-5.84.19-8.72-.41s-5.43-2.05-8.29-2.66c-.66-.14-1.37-.03-2.04-.21-.78-.21-1.39-.81-2.14-1.04-1.54-.47-3.68-.76-5.34-.74-2.83.03-4.95.14-7.73.81-3.09.73-4.55-.12-7.59-.2-2.26-.05-4.79.38-7,.08-2.08-.29-1.07-.88-2.06-2.02-1.83-2.11-8.09.67-10.59.73-8.57.22-17.15-2.83-25.32-.7-8.79,2.29-19.88-.01-26.38-1.12-.84-.14-2.17,2.07-3.05,2.04-4.45-.18-9.26-.91-13.81-1.19-2.43-.15-4.36-1.5-6.76-1.73-3.28-.32-6.97,4.14-8.29-.71-4.14,3.31-7.48.29-11.63,3.6-8.33-4.02-17.91,1.77-26.09-3.39-6.76,5.61-11.99-.85-18.67,4.14-2.26-4.17-5.52-.5-7.99-2.99-10.53,2.97-21.37.95-32.19.68-3.16-.08-8.82-.29-9.81.3-4.07,2.45-5.21-2.55-8.28-.71-2.96,1.77-13.11-.15-15.33-.17-5.72-.05-10.93.93-16.86.85-5.26-.07-11.31-1.33-16.57-1.42-2.43-.04-6,1.55-8.57,1.56-4.8.02-10.47-3.19-13.81-1.19-1.84,1.1-1.45-.34-2.76-.24-2.74.21-5.85,1.7-8.57,1.56-5.46-.28-11.01-1.7-16.28-3.7-5.26,5.79-17.14-.77-21.15,1.63-3.14,1.88-7.13-1.3-9.81.31-1.81,1.08-1.6-.41-2.77-.24-11.18,1.62-18.72-.55-29.14-1.36-7.9-.61-15.68-.48-23.62-.88-3.26,2.26-3.62,5.5-5.15,7.61-1.79,2.46-4.07,3.23-4.86,5.33-.57,1.53,1.07,4.18.66,5.81,3.87-2.36,4.41,3.94,2.18,4.79-9.26,5.72-8.57,12.3-9.35,18.75-3.81,4.33-6.67,1.17-10.1,2.58-.66,7.23,2.06,14.75-6.88,21.26.92,3.53,2.65,7.13.08,10.36-2.54,1.7-5.08,3.4-7.63,5.1.46,4.23-1.92,8.3-2.97,12.4-.76,2.96-.48,6.43-2.39,7.85-2.07,1.54,1.16,4.09.66,5.81-3.93,1.96-5.65,4.12-6.39,6.35.88,6.98-.89,13.73,2.93,20.96-1.68,3.69-2.52,7.45-4.2,11.14,6.01,7.8.29,14.59,6.93,22.45-.22,3.05-6.93,5.54-3.91,8.87,6.4-2.81,11.11,7.75,16.65,11.79,3.25-1.54,6.64-.28,9.81-.31,3.16-.02,11.37-1.16,12.57-.06,1.52,1.39,1.27.09,2.76.23,4.21.41,8.38-.63,11.34-1.32,2.26-.53,3.51-.34,5.81-1.8,5.43,4.09,13.22,1.53,19.33,1.66,1.25.02,2.72,1.42,4,1.49,2.07.11,3.65-1.79,5.81-1.8,3.8-.02,7.17,1.73,11.05.95,5.65-.1,11.13-.91,16.86-.85,2.62.02,5.37.52,8.28.71.46.03.77,1.18,1.24,1.26.84.14,2.17-2.06,3.05-2.04.87.02,1.59,2.44,2.47,2.51.94.08,2.09-2.04,3.05-2.04,4.62,0,16.04,1.64,18.1.4,2.92-1.75,6.24.36,8.29.71.76.13,2.24-1.92,3.05-2.04,1.13-.16,4.21.45,5.53.48,3.91.08,6.86.6,11.05.95,1.83.15,3.68.31,5.52.47,2.07.18,4.75,1.72,6.76,1.73,1.45,0,3.13-2.77,4.57-3.06,1.69-.34,3.5,2.45,5.23,2.75.72.12,2.28-1.88,3.05-2.04.26-.05.95,1.21,1.24,1.26.83.14,2.18-2.02,3.05-2.04,4.32-.09,9.7,2.29,12.28,2.21,2.2-.07,3.81-1.81,5.81-1.8,7.91.04,16.27.91,22.09,1.9.81.14,2.2-1.98,3.05-2.04,1.07-.08,2.83,1.53,4,1.5,2.23-.07,3.76-1.85,5.81-1.8,8.37.18,15.56,2.45,23.33,3.16,3.29-3.92,5.69-.87,8.86-3.84,3.38,4.42,5.67,1.28,8.28.71.57-.13,3.24,1.49,4,1.49,4.68.04,9.53-1.31,14.1-1.09,9.26.46,18.21,2.4,27.33,4.65,3.43-1.41,6.29,1.75,10.1-2.58,4.07,4.59,9.22.69,13.52,3.47,7.4-3.27,14.18-1.77,20.57,2.92,7.96,0,14.63,1.92,22.59,1.92,1.42,0,3.46.22,4.93.01,1.61-.23,2.14-.81,3.47-1.79s2.08-1.62,3.71-1.08c.7.23,1,.72,1.8.91.68.16,1.41.04,2.1.04,1.61,0,3.27.09,4.87-.06,1.86-.17,3.27-.97,5.01-1.26,3.47-.58,7.08.59,10.49.69,4.38.13,8.47,1.03,12.77,1.3,2.52.15,5.14-.03,7.67-.03,1.45,0,3.05-.18,4.46.05,1.54.24,2.94.99,4.57,1.18,5.13.6,10.12.7,15.33.7,1.77,0,3.76.2,5.53.01,1.25-.13,1.6-.44,2.69-.92,1.28-.56,2.18-.15,3.44-.34.61-.09.97-.42,1.53-.55,2.06-.47,4.33-.08,6.4.16,5.51.63,10.37,3.01,15.77,4.15,4.25.9,8.32,1.59,12.73,1.36,2.6-.14,5.14-.87,7.7-1.19,2.27-.28,4.52-.07,6.74-.45,3.55-.6,7.38-.28,11.05-.32,2.14-.03,3.15.33,5.25.9,1.37.38,1.89.52,3.24.01s2.36-1.73,3.83-2.1c1.07-.27,2.41-.11,3.55-.1,3.15.01,5.92.16,8.95.77,1.1.22,2.07.83,3.16,1.05,1.01.21,2.1-.04,3.07.17,1.04.22.35.26,1.69.24Z"/>
  <path class="st0" d="M1754.4,319.74c-1.93-1.45-3.48-3.26-4.78-4.96-1.29-1.71-2.33-3.31-3.27-4.32-4.51-4.85-7.5-6.28-10.72-10.02-1.34-1.55-3.35-4.17-5.64-7.29-2.26-3.14-4.86-6.76-7.4-10.3-5.1-7.06-10.07-13.74-12.18-15.42-3.61-2.81-5.88-8.17-8.28-11.1-.81-.98-2.31-1.43-3.18-2.35-1.33-1.4-2.07-3.93-4.13-5.55-2.28-1.82-1.1-2.34-2.5-4.41-.58-.85-2.47-1.53-3.16-2.38-4.16-5.16-7.65-9.97-11.77-15.17-5.31-6.84-10.54-13.42-13.62-18.12-.34-.52-.1-1.09-.44-1.61-.58-.88-2.48-1.53-3.14-2.42-3.23-4.48-5.79-8.54-7.92-11.36-.38-.51-1.17-.71-1.55-1.22-.64-.85-.23-2.36-.85-3.23-2.55-3.57-6.72-5.6-5.93-8.51l-6.15-4.95c-1.09-1.75-2.22-3.51-3.38-5.26l-1.75-2.62c-.38-.55-.37-.57-.5-.79l-.32-.53c-.87-1.41-1.78-2.79-2.69-4.14-1.82-2.7-3.57-5.3-4.76-7.84-1.03-2.16-2.74-4.54-3.47-5.86-.51-.93.04-1.85-.38-2.89-.62-1.55-2.62-3.22-1.76-5.23-3.15,1.26-1.2-2.41-2.08-3.51-.43-.54-2.77-1.28-4.1-2.42-.09-.08.22-.74.16-.86-.16-.32-1.41-.37-1.69-.63-.1-.09.23-.73.16-.86-.45-.96-8.19-3.26-9.31-3.52-.81-.19-1.2.43-1.86.22-.8-.26-.76.56-1.01.54-3.28-.29-4.8-1.71-6.1-1.4-2.88.68-5.78-.04-7.46.84-.68.36-1.41.62-2.03,1.07-3.04-1.82-3.93.07-6.98-1.76-.56,2.07-2.85,2.04-4.23,2.99-.56.38-1.53.56-2.03,1.06-.33.33-.04,1.34-.33,1.72-.15.19-1.62.04-1.87.2-2.24,1.44-4.83,2.76-6.26,4.05-.8.73-1.38,1.35-2.2,1.93-.6.42-1.38.57-2.04,1.06-.66.49-.97,1.29-2.03,1.06.32-1.47-.25-2.47-1.23-3.26-.25,2.62-2.43,1.9-2.68,4.52-1.36-.44-1.69-.36-2.04,1.06-.3,1.25-2.57,1.89-3.21,2.46-.97.85-.79,1.59-1.5,3.13-.83,1.82-4.54,2.51-3.85,5.93-1.29.44-3.32-.4-4.61.04-1.99,3.42-3.34,7.95-6.35,9.62,1.77,2.76-.77,5.35-.54,8.2.07.9,2.93,2.8,1.11,4.18.81,2.22,4.34,3.01,4.55,5.55-.06,2.93-2.99.94-2.64,4.58,3.45,2.1,4.61,6.21,6.77,9.15,1.21,1.64,2.55,2.61,3.89,4.3,1.1,1.38,1.71,3.99,3.89,4.3.11,3.52,3.56,7.5,4.93,9.34.25.35-.52,1.4-.27,1.75.39.57,2.08,1.46,2.47,1.85.53.53,1,1.16,1.43,1.81l.63.99.31.49.15.24.14.2.21.3c2.2,3.17,4.3,6.06,6.34,7.81,1.6,1.37,3.77,4.43,5.96,7.6,2.19,3.17,4.35,6.48,5.83,8.41,3.67,4.79,7.91,9.74,11.4,14.29,2.85,3.65,5.21,8.12,6.72,10.4.59.89,2.52,1.64,3.21,2.52,1.24,1.57,2.86,4.15,4.17,5.83,4.03,5.16,7.23,9.26,10.03,12.84,3.54,4.53,8.48,12.03,10.57,14.46,2.42,2.77,5.48,3.62,7.04,6.55,2.4,5.22,8.09,9.2,9.6,14.76,5.8,5.47,10.89,11.17,15.55,17.05,2.34,2.93,4.57,5.92,6.79,8.89l6.61,8.93c5.19,5.96,12.32,11.14,14.95,18.08,2.27,2.63,4.66,6.34,6.94,9.01,4.09,4.78,8.02,9.26,12.29,13.82,1.64,1.77,3.4,3.77,4.97,5.65.97,1.16,1.49,2.1,2.37,3.24,2.17,2.79,5.34,6.1,7.67,8.77,1.9,2.14,4.49,5.15,6.54,6.85.66.55,1.19.82,1.88,1.38,2.17,1.78,4.43,4.78,5.74,6.95,1.49,2.48,2.75,4.91,4.21,7.36,1.48,2.43,3.17,4.88,5.52,7.43,2.31,2.53,4.62,5.07,6.93,7.61,1.36,1.49,2.6,2.91,3.96,4.11.61.54,1.38,1.08,2.04,1.66,4.07,3.57,8.19,7.1,12.18,11.17,1.85,1.88,3.66,4.14,5.52,5.91.46.44.94.68,1.36,1.07.89.83,1.59,1.6,2.44,2.52.51.54,1.02,1.08,1.52,1.62.15.18.28.38.31.63.07.51-.34,1.13-.4,1.51-.01.09.1.13.07.23-.04.11-.3.27-.36.37-.06.1-.1.21-.1.3,0,.08-.01.13.04.17.16.14.31.22.88.33.65.14.18.27.28.43.04.06.17.13.28.2.04.03.13.07.11.1-.04.03-.1.05-.19.08-.33.08-.69-.01-1.55-.07-.78-.06-.71,0-.51.11.21.11.55.3.51.35-.15.19-.76.21-1.13.21-.4.01-.57,0-.35.5.06.14.08.26.07.36,0,.05-.01.1-.03.14.12-.08-.32.28-.58.5l-.88.72c-2.35,1.91-4.8,3.77-7.21,5.54-4.82,3.53-9.49,6.66-12.92,9.01-.88.61-1.54,2.53-2.42,3.21-4.52,3.44-9.55,6.95-14.2,10.43-2.48,1.86-4.83,2.85-7.3,4.65-3.39,2.46-5.7,7.12-8.52,6.26-3.13,4.57-7.41,6.02-10.53,10.59-9.59,4.99-17.38,14.82-27.18,19.25-5.03,7.54-12.27,9.13-17.42,16.36-3.56.15-5.68,4.16-8.93,5.13-9.63,9.48-21.11,17.23-32.03,25.67-3.19,2.46-8.92,6.84-9.73,7.86-3.32,4.17-6.01,3.11-8.52,6.25-2.41,3.03-13.18,10.28-15.41,12.03-5.74,4.49-10.66,8.98-16.62,13.63-5.28,4.12-11.74,8.4-17.03,12.51-2.45,1.9-5.53,5.34-8.1,7.38-4.8,3.79-11.47,7.01-14.2,10.43-1.51,1.89-1.55,1.01-2.84,2.09-2.68,2.24-5.33,5.28-8.1,7.38-5.56,4.2-11.56,8.02-17.45,11.39-3.48,6.42-17.41,13.22-20.67,17.32-2.57,3.22-7.54,5.12-9.73,7.86-.37.46-.66.76-.91.97-.15.12-.19.14-.23.16-.05.02-.1.03-.14.03-.19.01-.39-.04-.59.17-3.89,4.1-7.52,5.57-11.87,8.48-3.29,2.2-6.31,4.66-9.55,6.96-.58,1.9.28,3.28.33,4.58.06,1.52-.6,2.53-.26,3.6.25.78,1.71,1.31,2.06,2.08.79-2.12,2.95.18,2.34,1.21-1.87,5.11.44,7.48,2.13,10.26-.16,2.88-2.26,2.52-3.17,4.14,1.98,3.04,5.37,5.15,3.88,10.48,1.45,1.1,3.25,1.98,3.24,4.04l-1.42,4.36c1.49,1.52,1.82,3.85,2.67,5.79.62,1.4,1.8,2.68,1.49,3.82-.34,1.24,1.72,1.25,2.05,2.08-.94,1.99-.95,3.37-.54,4.47,2.5,2.47,3.9,5.67,7.63,7.33.48,1.97,1.31,3.71,1.8,5.68,4.77,1.2,4.63,5.64,9.67,6.67.86,1.27-1.01,4.32,1.21,4.69,1.65-3.08,6.76-.39,10.19-.52.8-1.61,2.52-2.17,3.76-3.16,1.23-.99,4.11-3.98,4.92-3.92,1.03.07.53-.36,1.16-.76,1.78-1.14,3.1-2.84,4.04-4.03.72-.91,1.28-1.22,1.73-2.51,3.4-.07,5.67-3.49,8.11-5.33.5-.38,1.51-.28,2.03-.65.85-.6.88-1.83,1.73-2.51,1.48-1.18,3.35-1.54,4.63-3.04.69-.61,7.83-6.75,13.21-10.94,2.63-2.06,5.54-4.03,8.52-6.26.47-.35,1.14-.15,1.63-.48.88-.61,1.53-2.52,2.42-3.21.88-.68,2.34-.3,3.25-.96.97-.71,1.46-2.45,2.42-3.21,4.63-3.64,16.57-12.01,18.25-14.12,2.38-2.99,6.36-4.78,8.52-6.26.8-.55,1.65-2.52,2.42-3.21,1.08-.96,4.36-3.15,5.68-4.17,3.94-3.06,7.05-5.18,11.36-8.34,1.89-1.38,3.79-2.78,5.68-4.17,2.12-1.56,5.29-3.07,7.31-4.65,1.46-1.14,2.28-3.56,3.64-4.81,1.58-1.46,4.27-1.8,6.09-3.05.76-.52,1.7-2.54,2.42-3.21.25-.23,1.32-.27,1.63-.48.87-.6,1.55-2.51,2.42-3.21,4.3-3.44,10.42-6.76,12.98-8.82,2.18-1.76,3.26-3.72,5.26-5.29,7.94-6.23,16.57-12.48,22.71-16.68.85-.58,1.59-2.51,2.42-3.21,1.05-.87,3.31-1.63,4.47-2.57,2.21-1.79,3.2-3.69,5.26-5.29,8.43-6.53,16.34-11.31,24.34-17.17,2.08-4.13,5.43-4.83,7.69-8.5,4.75-.93,6.07-3.97,8.52-6.25.54-.5,3.71-1.97,4.46-2.57,4.7-3.67,9.14-8.03,13.79-11.55,9.41-7.12,18.98-13.42,28.81-19.73,3-3.26,6.84-4.28,9.31-8.98,5.5-1.41,9.45-7,14.61-9.3,6.39-7.12,13.66-11.88,21.5-15.08,1.99-1.57,3.94-3.03,5.87-4.43.97-.7,1.92-1.39,2.88-2.07l1.43-1.02.81-.58,1.32-.98c7.04-5.24,14.16-10.54,21.7-16.48,2.68-2.11,6.66-5.1,9.35-7.36,2.94-2.47,3.66-3.39,5.67-5.61,1.99-2.19,3.05-3.43,6.39-5.72,1.44-.98,2.26-1.32,3.86-2.46,1.36-.97,2.66-2.07,3.96-3.09,3.02-2.38,6.18-4.82,9.09-7.2,3.39-2.78,5.51-4.96,8.54-7.53,3.03-2.58,6.42-5.15,9.87-7.72l2.6-1.93,1.3-.96c.1-.08.22-.16.32-.24l.14-.12s-.06-.09-.09-.14l-.51-.56c-1.36-1.49-2.73-2.96-4.13-4.42-7.18-7.48-13.4-14.53-20.45-21.97-4.11-4.35-8.66-8.87-12.85-13.21-2.38-2.47-5.1-5.18-7.3-7.63-2.4-2.68-4.35-5.24-6.96-8.09-4.1-4.48-8.21-8.89-12.38-13.3-2.09-2.2-4.19-4.4-6.3-6.62-.95-1-1.91-2-2.87-3.01-.55-.59-1.1-1.19-1.66-1.78-1.51-1.63-3.14-3.52-4.72-5.08-1.12-1.1-1.53-1.32-2.64-2.16-1.3-.98-1.92-1.95-3.06-3.04-.55-.53-.98-.75-1.51-1.22-1.94-1.73-3.73-3.95-5.41-5.92-4.44-5.3-7.65-10.62-11.78-15.99-3.25-4.23-6.44-8.22-10.18-12.28-2.22-2.39-4.61-4.51-6.86-6.8-1.99-2.03-3.79-4.2-5.79-6.15-3.2-3.1-6.22-6.85-9.26-10.29-1.77-2.01-2.47-3.08-3.98-5.25-.99-1.42-1.36-1.95-2.66-3.06-1.3-1.11-2.59-1.66-3.95-2.93-.98-.92-2.03-2.23-2.96-3.32-2.56-3-4.76-5.69-6.99-8.77-.81-1.12-1.37-2.24-2.17-3.35-.74-1.03-1.73-1.99-2.44-2.98-.76-1.06-.19-.42-1.29-1.69Z"/>
  <path class="st0" d="M1507.22,329.42c-3.13-2.94-4.54-7.11-5.97-9.08-1.72-2.37-3.23-3.94-4.61-5.37-1.37-1.44-2.59-2.75-3.77-4.59-1.96-3.06-5.59-10.24-9.16-17.07-3.46-6.89-6.87-13.43-8.6-15.11-1.46-1.42-2.48-3.4-3.36-5.38-.86-1.98-1.54-3.99-2.39-5.43-.57-.97-1.91-1.51-2.55-2.43-.99-1.4-1.18-3.78-2.82-5.44-1.83-1.85-.6-2.22-1.54-4.22-.39-.82-2.07-1.61-2.56-2.44-2.96-5.06-5.24-9.8-8.11-14.93-1.86-3.35-3.74-6.62-5.35-9.66-1.59-3.05-2.97-5.82-3.95-8.11-.22-.51.14-1-.08-1.5-.37-.86-2.04-1.65-2.47-2.52-2.16-4.38-3.85-8.27-5.23-11.07-.26-.5-.96-.77-1.21-1.28-.42-.84.29-2.16-.11-3.02-1.66-3.5-5.19-5.81-3.81-8.35l-4.87-5.13c-.69-1.7-1.38-3.41-2.08-5.13l-1.08-2.57c-.23-.53-.24-.58-.32-.81l-.22-.57c-.59-1.53-1.23-3.03-1.86-4.5-1.27-2.94-2.51-5.77-3.25-8.43-.64-2.26-1.85-4.88-2.31-6.3-.32-1,.39-1.79.18-2.88-.31-1.62-1.94-3.59-.72-5.4-3.32.66-.71-2.56-1.35-3.78-.32-.6-2.46-1.74-3.54-3.09-.07-.09.36-.68.32-.8-.09-.34-1.32-.61-1.55-.92-.08-.1.36-.66.32-.8-.3-.99-7.37-4.66-8.42-5.11-.76-.33-1.26.19-1.86-.13-.73-.4-.85.4-1.1.34-3.15-.89-4.36-2.55-5.69-2.5-2.95.12-5.64-1.13-7.46-.58-.73.22-1.5.33-2.2.66-2.62-2.35-3.86-.68-6.49-3.04-.95,1.91-3.19,1.44-4.73,2.1-.62.27-1.61.25-2.2.65-.39.26-.3,1.31-.66,1.62-.18.16-1.59-.28-1.87-.16-2.48.98-5.28,1.76-6.94,2.75-.93.56-1.62,1.06-2.53,1.46-.67.3-1.46.29-2.2.64-.74.35-1.2,1.07-2.2.64.6-1.38.24-2.47-.57-3.44-.75,2.51-2.76,1.38-3.51,3.9-1.25-.7-1.59-.69-2.21.64-.54,1.17-2.89,1.35-3.63,1.78-1.12.64-1.08,1.4-2.08,2.78-1.17,1.62-4.95,1.57-4.92,5.08-1.35.18-3.19-1.05-4.54-.87-2.62,2.97-4.81,7.18-8.08,8.23,1.21,3.09-1.77,5.14-2.09,8.01-.1.9,2.35,3.36.29,4.36.38,2.37,3.7,3.84,3.42,6.4-.58,2.88-3.13.35-3.42,4.02,3.05,2.75,3.41,7.06,5.01,10.39.89,1.86,2.03,3.08,3.05,5.02.83,1.58.95,4.3,3.05,5.02-.51,3.51,2.28,8.08,3.28,10.17.19.39-.76,1.29-.58,1.69.28.64,1.79,1.84,2.11,2.31.43.63.78,1.34,1.1,2.07l.45,1.1.22.55.11.27.09.21.13.3c1.45,3.2,2.82,6.15,4.45,7.99,2.53,2.91,6.02,12.26,8.06,16.19,2.49,4.89,5.66,9.92,8.12,14.51,1.99,3.71,3.35,8.12,4.35,10.4.39.89,2.08,1.81,2.57,2.7.88,1.59,1.97,4.14,2.9,5.83,2.9,5.2,5.16,9.36,7.14,12.99,2.46,4.61,5.89,12.02,7.45,14.49,1.8,2.82,4.56,3.93,5.5,6.82.66,2.54,2.14,4.91,3.55,7.26,1.42,2.35,2.73,4.73,2.96,7.38,2.3,2.82,4.39,5.68,6.34,8.58,1.94,2.9,3.72,5.85,5.48,8.77,3.49,5.87,6.58,11.84,9.71,17.81,3.92,6.02,10.01,11.37,11.28,18.12,1.72,2.65,3.33,6.35,5.12,8.99,3.16,4.77,6.24,9.23,9.53,13.87,1.28,1.79,2.61,3.81,3.82,5.68.75,1.15,1.1,2.06,1.78,3.19,1.65,2.76,4.19,6.07,6.01,8.73,1.47,2.15,3.45,5.17,5.14,6.91.54.56,1.01.85,1.58,1.43,1.81,1.82,3.54,4.76,4.46,6.87,2.12,4.83,3.37,9.42,7.05,14.52,1.81,2.54,3.68,5.05,5.52,7.57,1.09,1.48,2.07,2.88,3.21,4.09.51.54,1.17,1.09,1.72,1.67l2.53,2.7,1.26,1.37.61.67.06-.05s.08-.1.16-.09c.08.02.15.03.22.06.14.05.27.11.38.19.2.15.15.43.43.54.07.03.28,0,.35.03.15.06.2.14.26.23.19.27.53.54.38.84-.15.31-.86.55-1.1.73-.06.04.05.09-.03.13-.1.05-.46.07-.58.1-.24.07-.36.15-.28.23.09.14.42.27.63.45.32.23-.37.16-.58.25-.16.07-.05.26-.36.28-.28,0-.56-.16-1.24-.41-.62-.23-.58-.16-.43,0,.15.16.39.43.34.48-.16.17-.65.06-.96-.02-.16-.04-.28-.07-.34-.01l-.02.02h0s-.36.26-.36.26l-1.46,1.01c-.97.69-1.91,1.4-2.82,2.14-7.87,6.36-19.19,12.2-25.77,15.74-.85.46-1.54,2.21-2.4,2.73-4.35,2.66-9.18,5.31-13.65,7.98-2.38,1.43-4.61,2.04-6.99,3.42-3.25,1.88-5.62,6.03-8.19,4.79-3.11,3.94-7.15,4.72-10.26,8.66-9.12,3.42-16.81,11.75-26.1,14.6-5.02,6.52-11.8,7.01-16.91,13.22-3.3-.37-5.46,3.18-8.52,3.65-9.37,7.72-20.38,13.53-30.89,20.07-3.07,1.91-8.59,5.29-9.39,6.16-3.28,3.53-5.71,2.12-8.19,4.79-2.38,2.56-12.7,7.99-14.85,9.35-5.53,3.49-10.3,7.1-16.05,10.72-5.09,3.2-11.28,6.39-16.38,9.58-2.36,1.47-5.37,4.34-7.86,5.93-4.63,2.96-10.96,5.09-13.65,7.98-1.48,1.6-1.49.75-2.73,1.6-2.59,1.77-5.19,4.31-7.86,5.93-5.35,3.24-11.09,6.05-16.71,8.44-3.52,5.67-16.75,10.21-19.98,13.68-2.53,2.72-7.23,3.83-9.38,6.15-.36.39-.65.64-.89.8-.14.1-.19.11-.23.12-.05.01-.1.02-.15.01-.19,0-.38-.08-.61.11-4.28,3.69-8.05,4.79-12.66,7.25-3.5,1.86-6.74,4.01-10.2,5.97-.77,1.83-.05,3.29-.13,4.59-.1,1.52-.85,2.45-.62,3.55.17.8,1.57,1.47,1.84,2.27,1-2.03,2.92.48,2.21,1.43-2.37,4.9-.31,7.49,1.09,10.42-.44,2.85-2.5,2.28-3.57,3.8,1.66,3.23,4.83,5.67,2.81,10.82,1.34,1.24,3.03,2.3,2.82,4.35l-1.85,4.2c1.33,1.66,1.42,4.02,2.08,6.03.47,1.45,1.52,2.84,1.1,3.95-.46,1.2,1.59,1.41,1.84,2.27-1.13,1.88-1.28,3.25-.99,4.39,2.24,2.71,3.31,6.03,6.86,8.05.28,2.01.94,3.82,1.22,5.83,4.63,1.68,4.04,6.08,8.95,7.61.73,1.35-1.44,4.2.73,4.79,1.95-2.9,6.77.29,10.19.5.96-1.52,2.73-1.9,4.06-2.76,1.32-.86,4.48-3.54,5.29-3.4,1.02.18.56-.3,1.23-.64,1.89-.96,3.36-2.52,4.43-3.6.81-.83,1.39-1.09,1.97-2.32,3.39.27,5.99-2.9,8.6-4.49.53-.32,1.53-.13,2.09-.44.9-.51,1.06-1.73,1.97-2.32,1.59-1.03,3.49-1.2,4.91-2.56,1.02-.71,7.79-5.5,13-8.78,2.54-1.6,5.32-3.08,8.19-4.79.45-.27,1.06.02,1.53-.23.85-.45,1.54-2.2,2.4-2.73.85-.53,2.19.05,3.06-.46.93-.54,1.47-2.14,2.4-2.73,4.46-2.83,15.92-9.16,17.58-10.95,2.35-2.53,6.12-3.68,8.19-4.79.77-.41,1.65-2.19,2.4-2.73,1.05-.76,4.19-2.4,5.46-3.19,3.8-2.37,6.78-3.96,10.92-6.39,1.81-1.06,3.64-2.13,5.46-3.19,2.04-1.19,5.04-2.19,6.99-3.42,1.41-.89,2.28-3.09,3.6-4.1,1.54-1.18,4.04-1.12,5.79-2.06.73-.39,1.7-2.2,2.4-2.73.24-.18,1.24-.07,1.53-.23.83-.45,1.56-2.19,2.4-2.73,4.15-2.69,9.98-5,12.45-6.61,2.1-1.38,3.19-3.1,5.13-4.33,7.65-4.85,15.95-9.61,21.84-12.77.81-.44,1.59-2.18,2.4-2.73,1.01-.69,3.15-1.09,4.26-1.83,2.13-1.4,3.13-3.09,5.13-4.33,8.12-5.07,15.68-8.52,23.37-13,2.12-3.67,5.26-3.86,7.53-7.06,4.45-.21,5.82-2.94,8.19-4.79.52-.41,3.53-1.36,4.26-1.83,4.53-2.86,8.85-6.41,13.32-9.12,9.06-5.49,18.23-10.18,27.63-14.83,2.94-2.7,6.54-3.13,9.05-7.29,5.16-.56,9.08-5.37,13.98-6.84,6.26-5.92,13.22-9.46,20.64-11.41,3.84-2.44,7.5-4.49,11.16-6.53,1.83-1.03,3.65-2.07,5.51-3.12.92-.54,1.85-1.09,2.8-1.65.51-.32,1.03-.63,1.55-.95.89-.56,1.79-1.13,2.7-1.71,2.59-1.65,6.39-3.94,9.01-5.73,2.87-1.96,3.63-2.79,5.69-4.68,2.04-1.88,3.14-2.96,6.29-4.64,1.36-.72,2.08-.9,3.61-1.76,1.29-.73,2.56-1.61,3.81-2.4,2.91-1.85,5.95-3.74,8.77-5.62,3.28-2.19,5.43-4.03,8.39-6.09,5.91-4.1,13.03-7.95,19.26-11.85,3.99-2.5,7.97-4.88,11.97-7.26,2-1.19,4-2.39,6-3.58,1-.6,2-1.2,3-1.81l1.5-.91c.26-.15.5-.31.71-.46.04-.04.15-.07.12-.13l-.13-.17-.26-.34c-3.27-4.25-6.93-8.73-10.33-13.02-1.94-2.46-4.21-5.18-5.96-7.57-1.72-2.35-3.05-4.53-4.83-7-.18-.25-.38-.52-.58-.78-6.58-8.75-13.23-17.41-20.24-26.39-2.38-3.06-4.97-6.53-7.44-9.54-1.75-2.13-2.36-2.67-4.05-4.44-1.97-2.06-2.99-3.71-4.76-5.82-.84-1.02-1.45-1.56-2.24-2.48-1.44-1.65-2.87-3.67-4.32-5.64l-.2-.27-.13-.19-.25-.37-.5-.75c-.33-.5-.65-.99-.97-1.47-3.37-5.11-5.64-10.13-8.68-15.3-2.36-4.1-4.7-7.97-7.62-11.88-1.73-2.31-3.65-4.38-5.43-6.6-1.55-1.98-2.86-4.1-4.41-6.02-2.47-3.07-4.74-6.67-7.06-10-1.35-1.95-1.85-2.97-2.91-5.05-.68-1.37-.94-1.89-1.97-2.99-1.04-1.11-2.16-1.7-3.21-2.96-.77-.91-1.52-2.2-2.22-3.25-1.92-2.91-3.56-5.51-5.16-8.48-.57-1.08-.93-2.13-1.48-3.21-.51-1-1.27-1.95-1.76-2.91-.52-1.03-.1-.4-.91-1.64Z"/>
  <g id="DTWmjx">
    <g>
      <path class="st1" d="M503.05,24.92c13.26,2.73,23.29,8.65,33.1,18.47l189.75,189.86c18.83,18.84,19.91,56.86,4.81,71.94l-377.39,377.06c-17.51,17.5-53.09,16.89-70.31-.33l-196.66-196.62c-22.42-22.42-17.5-56.59,3.39-77.51L363.02,133.99l91.45-91.83c8.61-8.65,17.51-14.37,28.62-17.45l19.97.2ZM707.46,259.43L505.62,57.35l-34.7,237.04,236.53-34.96ZM424.58,379.63l11.99-69.98,35.45-240.74L115.24,425.72l238.55-33.95,70.78-12.15ZM372.66,419.75l-33.03,230.3,356.78-356.72-230.82,33.43-11.67,66.53c-.88,7.3-5.69,12.64-12.91,14.25l-68.34,12.2ZM305.93,660.98l34.49-236.07-237.04,34.68,192.17,193.18c3.46,3.46,6.09,5.63,10.37,8.22Z"/>
      <g>
        <path class="st0" d="M170,533.42c3.12,2.99,6.17,6.2,7.96,7.98,4.3,4.28,6.35,6.14,9.55,9.34,5.31,5.32,23.25,23.75,26.75,27.09,2.95,2.82,6.46,6.57,8.92,9.03.82.83,1.72,1.6,2.54,2.41,1.26,1.24,2.76,2.9,4.46,4.52,1.89,1.8,1.59,1.68,3.19,3.31.66.67,1.84,1.7,2.54,2.41,4.29,4.32,8.12,8.17,12.41,12.49,5.59,5.63,10.95,11.03,14.65,14.75.4.41.56.64.96,1.05.68.69,1.84,1.7,2.54,2.41,3.54,3.59,6.65,6.74,8.92,9.03.33.31.95.9,1.27,1.21.69.69,1.22,1.4,1.92,2.1,2.83,2.86,5.64,5.39,6.69,6.77l5.09,4.82,2,2.04c.71.71,1.43,1.42,2.18,2.13.76.71,1.54,1.41,2.36,2.09.59.48.37.3.44.36l.05.05c.14.13.28.25.42.37.28.24.56.46.78.69.19.2.46.39.58.5.09.08.07.19.16.28.13.14.4.25.39.48.26-.22.22.21.36.29.07.04.33.04.51.11.01,0,.01.08.02.09.03.03.16,0,.2,0,.01,0,0,.08.02.09.09.08.95.04,1.07.03.09,0,.1-.08.17-.09.09,0,.05-.08.07-.09.33-.09.54,0,.65-.09.25-.17.55-.21.67-.35.05-.06.11-.11.15-.18.37.05.37-.16.73-.1-.04-.22.18-.3.27-.44.04-.06.12-.11.14-.18.02-.04-.05-.13-.04-.17,0-.02.15-.07.16-.09.15-.22.33-.45.41-.62.04-.1.07-.18.12-.27.04-.06.1-.11.14-.18.04-.07.04-.16.14-.18.03.15.12.22.24.25-.08-.25.14-.27.06-.52.14-.01.17-.04.14-.18-.02-.13.16-.28.19-.36.05-.12,0-.18.01-.35,0-.2.31-.41.12-.69.1-.09.31-.1.41-.19.05-.39,0-.85.22-1.12-.25-.17-.12-.51-.23-.75-.04-.08-.35-.13-.23-.33-.14-.16-.48-.09-.58-.31-.08-.26.24-.2.1-.51-.36-.05-.58-.37-.85-.56-.15-.1-.3-.14-.46-.24-.13-.08-.25-.3-.45-.25-.09-.31-.49-.55-.65-.67-.03-.02.02-.14,0-.17-.05-.04-.22-.07-.26-.09-.06-.03-.11-.07-.16-.12l-.08-.07-.04-.04-.02-.02-.33-.27c-1.18-.98-2.28-2.01-3.31-3.01-1-.98-1.91-1.87-2.85-2.78-2.63-2.51-9.37-9.44-12.42-12.49-3.77-3.76-7.88-7.87-11.46-11.44-2.9-2.91-5.95-6.1-7.64-7.82-.66-.67-1.84-1.71-2.54-2.41-1.24-1.26-3.14-3.18-4.46-4.51-4.1-4.11-7.35-7.38-10.19-10.24-3.56-3.6-9.15-9.26-11.15-11.29-2.31-2.3-4.04-3.78-6.04-5.87-3.39-3.6-7.69-7.65-10.83-11.13-10.03-9.77-19.17-19.1-28.33-28.45-4.94-4.95-10.45-10.17-14.65-14.75-2.13-2.17-4.9-4.99-7.06-7.17-3.93-3.94-7.65-7.67-11.57-11.59-1.51-1.52-3.17-3.18-4.7-4.72-.9-.93-1.6-1.64-2.47-2.54-2.23-2.24-5.07-5.09-7.28-7.31-1.79-1.8-4.26-4.3-5.94-5.92-.5-.48-.94-.9-1.46-1.4-1.77-1.71-4.08-4.09-5.6-5.68-3.48-3.65-6.41-6.83-10.73-11.17l-5.99-6.02c-.08-.08-.14-.14-.24-.22-.05-.04-.12-.08-.17-.12-.31-.18-.04-.18.12-.24l.3-.07.17-.04c.59-.09,1.19-.18,1.78-.27,2.31-.34,4.8-.7,7.08-1.04.51-.08,1.04-.17,1.49-.24,1.08-.16,1.98-.29,3.08-.46,3.34-.48,6.55-.94,9.92-1.43,3.2-.42,6.31-.83,9.44-1.25.77-.11,1.53-.22,2.32-.33.81-.1,1.66-.21,2.44-.3,1.83-.26,4.22-.59,6.08-.85,3.19-.48,5.54-.84,8.78-1.33,3.5-.55,5.17-.75,8.62-1.25,2.56-.38,5.41-.79,7.96-1.17,2.36-.33,1.22-.13,2.36-.24,2.1-.2,9.2-1.38,12.04-1.8,9.74-1.44,19.51-2.71,28.78-4.18,9.97-1.57,22.59-3.3,29.99-4.33.95-.13,2.46-.46,3.45-.61,5.04-.72,10.54-1.5,15.7-2.24,2.64-.36,5.07-.68,7.69-1.04,3.73-.53,7.89-1.36,9.42-1.34,4.69-.85,8.5-1.26,13.19-2.11,4.75-.59,9.83-1.36,14.9-2.12,2.54-.37,5.05-.74,7.54-1.1,1.21-.17,2.42-.33,3.68-.5.59-.08,1.18-.15,1.8-.23l.22-.03h.1s0,0,0,0h.01s.02.03.02.03c.05-.08.15-.13.23-.15,0,.05-.01.14-.03.2v.05s-.02.01-.02.01v.09s-.11.64-.11.64c-.12.85-.25,1.71-.38,2.59-.25,1.75-.48,3.55-.7,5.45-.58,2.54-.94,6.27-1.48,9.07-1.6,12-3.5,24.3-5.31,36.6-.53,3.59-1.48,10.02-1.61,11.16-.56,4.65-.99,5.9-1.41,9.41-.4,3.37-2.18,14.9-2.55,17.43-.93,6.49-1.79,12.44-2.76,19.17-.89,5.94-1.93,12.88-2.82,18.82-.37,2.69-.95,6.9-1.35,9.76-.8,5.45-1.9,11.88-2.35,15.69-.25,2.1-.26,1.64-.47,3.14-.42,3.05-.93,6.73-1.35,9.76-.92,6.21-1.91,12.51-2.89,18.48-.59,6.02-2.88,19.48-3.43,24.05-.43,3.59-1.25,8.1-1.61,11.15-.07.57-.12.91-.15,1.17,0,.06-.02.12-.02.17h0s0,.02,0,.02c-.01.01-.03.02-.03.05,0,.56-.16.92-.28,1.43-.09.39-.14.77-.21,1.16.09.18.25.22.34.31.11.11.13.22.23.28.07.04.21-.02.29,0-.09-.21.23-.19.25-.07.22.5.55.51.86.6.19.22,0,.34.05.52.35.09.74,0,1,.49.18-.02.37-.08.51.07l.2.41c.21,0,.4.15.59.24.14.06.31.07.37.17.06.11.21-.03.29,0,.07.21.16.31.27.36.35,0,.67.14,1.06,0,.17.11.35.18.52.29.43-.24.72.09,1.16-.18.15.03.22.38.41.26-.09-.34.46-.49.7-.74-.05-.17.03-.33.06-.49.02-.16.02-.57.09-.62.08-.07.01-.06.03-.13.05-.21.03-.42.02-.57,0-.12,0-.18-.05-.3.24-.24.17-.64.22-.94.01-.06.09-.12.1-.19.02-.1-.06-.19-.05-.3.03-.19.14-.34.13-.54-.36,2.4,1.01-7.24,1.87-13.07.44-2.96.92-6.1,1.41-9.41.08-.52.19-.87.27-1.4.15-.95.26-2.48.41-3.48.15-.99.38-1.79.53-2.79.16-1.07.25-2.39.41-3.48.77-5.25,2.74-18.22,3.02-20.56.4-3.33,1.05-7.09,1.41-9.41.13-.87.28-2.56.41-3.48.19-1.29.72-4.79.94-6.28.66-4.42,1.17-7.79,1.88-12.55.31-2.08.63-4.18.94-6.27.35-2.25.86-5.49,1.21-7.67.24-1.65.38-3.58.61-5.22.26-1.92.7-3.97,1.01-5.93.13-.82.29-2.61.41-3.48.04-.3.22-1.07.27-1.4.14-.94.26-2.49.41-3.48.74-4.78,1.71-11.09,2.15-13.94.31-2.33.6-4.5.88-6.62,1.34-8.93,2.76-18.39,3.76-25.1.14-.92.27-2.51.41-3.48.18-1.1.54-3.34.74-4.53.31-2.36.59-4.45.88-6.62,1.43-9.38,2.7-17.74,4.03-26.5.35-3.77.9-6.48,1.28-10.1.39-1.9.64-3.51.85-5.02.24-1.82.51-3.87.75-5.67.17-1.11,1.06-6.79,1.27-8.2l.13-.9.07-.45c.05-.11-.06-.07-.13-.06l-.23.03-1.81.27c-1.21.18-2.42.36-3.64.54-2.33.35-4.69.7-7.03,1.05-2.71.4-5.38.8-7.96,1.19-10.52,1.52-20.72,2.91-31.1,4.31-3.89.64-7.16.96-11.46,1.81-4.66.45-10.48,1.5-15.39,2.08-8.38,1.39-16.11,2.45-23.4,3.28-9,1.28-16.69,2.38-25.69,3.66-1.61.24-3.91.57-5.61.82-1.83.28-2.42.39-3.93.67-1.5.27-2.35.43-4.21.67-.74.09-1.24.15-2.05.25-.8.12-1.6.23-2.38.35-1.83.27-3.7.54-5.53.81-2.03.32-3.76.59-5.68.9-3.94.61-8.05,1.15-11.92,1.71-4.95.7-9.66,1.37-14.52,2.06-2.87.42-5.85.86-8.72,1.28-1.64.24-3.45.5-5.07.74-1.7.23-3.42.46-5.21.7-5.88.85-11.52,1.66-17.43,2.51-2.02.29-4.26.62-6.29.92-1.32.21-1.77.29-3.06.49-.79.12-1.37.21-1.96.3-.89.13-1.77.26-2.82.41-1.21.19-2.13.33-3.26.5-4.54.66-9.26,1.35-13.69,2l-.55.08.38.39.77.78,1.53,1.55c1,1.02,2.01,2.04,3.01,3.05,1.97,2.01,3.94,4.01,5.91,6.02,2.42,2.48,4.84,4.97,7.28,7.48,3.41,3.49,6.69,6.84,10.26,10.41,2.09,2.07,4.2,4.17,6.28,6.23,1.86,1.85,3.64,3.64,5.48,5.47,2.93,2.94,6,6.01,8.96,8.99,1.68,1.71,2.5,2.55,4.22,4.31,1.1,1.13,1.51,1.56,2.62,2.64,1.03.98,2.11,2.02,3.18,3.05.9.9,1.96,1.96,2.88,2.89,2.52,2.56,4.73,4.79,7.22,7.31.84.87,1.69,1.75,2.52,2.61.84.84,1.68,1.7,2.48,2.51.84.85.31.32,1.36,1.39Z"/>
        <path class="st0" d="M579.53,305.36c-6.33,1.02-12.85,1.86-16.55,2.41-8.66,1.33-13.17,2.03-19.59,3.02-11.05,1.61-48.87,6.81-55.94,7.96-5.98.97-13.55,1.91-18.65,2.65-1.41.22-3.04.47-4.8.74-.83.13-1.66.26-2.44.39-.07-.01-.06.06-.07.11l-.03.15-.05.31c-.03.21-.07.41-.1.61-.07.42-.14.82-.21,1.22-.35,1.94-.75,4.16-1.18,6.57-.29,1.57-.6,3.25-.87,4.97-.6,3.83-.65,3.37-1.25,6.72-.25,1.38-.54,3.68-.8,5.15-1.57,8.91-2.97,16.87-4.53,25.8-1.02,5.82-2.02,11.55-2.93,16.77-.11.64-.22,1.27-.33,1.9-.08.55-.16,1.08-.28,1.5-.21.9-.5,1.72-.87,2.46-.71,1.49-1.67,2.64-2.68,3.49-.44.4-.72.5-1.2.84-.81.56-2.3,1.34-3.36,1.63l-.46.12c-.15.04-.29.09-.54.12-.45.08-.9.16-1.35.24-.89.16-1.77.31-2.62.46-1.71.3-3.35.59-4.91.86-3.12.55-5.9,1.04-8.26,1.46-.74.15-1.81.36-2.55.51-1.43.25-2.73.36-4.17.62-5.87,1.04-11.34,2.23-13.89,2.44l-10.19,2.03c-4.41.77-8.88,1.54-13.35,2.32-.17.02-.33.04-.5.06-.33.04-.64.09-.93.09-.24,0-.54.05-.69.06-.11,0-.17-.08-.28-.09-.17-.01-.41.1-.56-.06-.02.34-.27,0-.41.04-.07.02-.24.2-.4.27-.01,0-.06-.05-.07-.05-.04,0-.1.11-.13.13-.01,0-.06-.05-.07-.05-.11,0-.65.61-.73.7-.05.07-.01.13-.06.18-.06.06.02.09,0,.11-.17.29-.36.36-.39.5-.06.29-.25.52-.24.71,0,.08,0,.15.01.23-.3.2-.16.36-.46.56.17.14.07.34.1.51.01.07-.01.16.01.23.02.04.12.06.14.1.01.02-.06.15-.06.18.04.26.05.55.11.74.03.1.07.18.08.28.01.07,0,.15.01.23.02.08.08.14.01.23-.12-.09-.24-.08-.35-.03.23.13.07.3.3.43-.1.1-.1.14.01.23.1.08.06.31.09.39.04.12.11.14.22.27.13.15.04.52.38.6-.01.14-.17.28-.19.42.23.32.58.64.61.98.32-.04.45.3.71.4.08.03.37-.15.42.08.23.02.45-.27.69-.18.26.13-.04.31.3.43.33-.22.75-.15,1.1-.22.2-.04.34-.12.55-.16.17-.04.43.02.55-.17.32.14.82,0,1.04-.04.04,0,.1.11.14.1.07,0,.22-.12.27-.14.07-.02.15-.04.22-.05h.11s.06-.02.06-.02h.03s.7-.13.7-.13c5.01-.88,9.63-1.71,13.02-2.38,5.31-1.04,19.47-3.46,25.78-4.6,3.9-.71,7.97-1.44,11.99-2.17,2.01-.36,4-.73,5.96-1.08.98-.18,1.95-.35,2.91-.53.5-.1.91-.15,1.47-.28.6-.16,1.22-.3,1.79-.48,3.63-1.09,7.21-3.36,9.63-6.16,2.48-2.79,3.73-5.9,4.34-8.06.12-.42.22-.92.33-1.46.11-.54.15-1.04.23-1.59.14-.99.27-1.88.4-2.62.46-2.58,1.16-6.51,1.65-9.25,1.48-8.47,2.66-15.2,3.69-21.08,1.32-7.41,3.38-18.99,4.12-23.14.41-2.38.71-4.4,1.01-6.36.11-.68.06-.48.08-.61,0-.08.01-.15.02-.22.02-.06,0-.18.06-.2.08-.01.16-.02.24-.02h.21s.05-.01.05-.01h.03s.1-.01.1-.01l.71-.1c.96-.13,1.92-.27,2.88-.4,1.95-.28,3.92-.57,5.89-.85,3.94-.57,7.83-1.13,11.28-1.51,20.53-3.19,39.74-5.87,58.98-8.56,10.27-1.5,21.39-3.34,30.54-4.4,4.5-.63,10.25-1.44,14.79-2.08,8.18-1.19,15.92-2.33,24.06-3.51,3.14-.46,6.6-.96,9.79-1.42,1.94-.27,3.35-.46,5.21-.72,4.62-.67,10.55-1.53,15.16-2.2,3.7-.55,8.74-1.29,12.31-1.82,1.06-.17,1.86-.3,2.97-.48,3.61-.57,8.49-1.24,11.72-1.66,1.73-.22,3.44-.44,5.15-.66l.43.03c.1,0,.2.02.31.02.05.02.31-.06.12.08l-.58.58c-1.82,1.83-3.49,3.51-5.17,5.19-.73.75-1.6,1.64-2.39,2.45-5.02,5.09-10.02,10.14-15.21,15.4-2.45,2.45-5.11,5.11-7.52,7.52-.56.57-1.07,1.1-1.57,1.61-1.14,1.14-2.09,2.1-3.26,3.27-3.56,3.55-7,6.98-10.53,10.5-3.48,3.42-6.67,6.55-10.09,9.9-.81.81-1.64,1.63-2.46,2.45-.91.88-1.74,1.69-2.62,2.54-1.91,1.89-4.47,4.43-6.47,6.42-3.39,3.41-5.91,5.95-9.29,9.35-3.7,3.75-5.49,5.48-9.15,9.14-2.72,2.72-5.76,5.76-8.44,8.44-2.51,2.49-1.32,1.26-2.56,2.42-2.29,2.14-9.74,9.78-12.75,12.8-10.33,10.34-20.77,20.57-30.55,30.5-10.51,10.67-23.97,23.96-31.85,31.77-1.02,1.01-2.55,2.7-3.61,3.75-5.37,5.35-11.2,11.14-16.69,16.61-2.89,2.84-5.35,5.27-8.21,8.09-3.97,3.95-8.26,8.55-10.02,9.96-4.88,5.11-9.01,9.03-13.89,14.14-10.19,9.9-21.53,21.65-31.58,31.34-7.95,8.35-14.49,14.43-22.37,22.66-2.88,2.58-6.67,6.64-9.75,9.53-12.6,12.81-25.74,25.8-38.79,38.84-1.91,1.91-4.57,4.56-6.9,6.89-.33.33-.65.65-.95.95-.02.02-.03.04-.05.05-.03.03-.05.06-.06.09-.11.2-.2.24-.2.19-.03,0,.05-.17,0-.15-.02,0-.03-.05-.02-.14.09-.64.2-1.37.31-2.1.79-5.37,1.55-10.6,1.83-12.47,1.37-9.64,2.62-18.46,4.04-28.46,1.29-8.84,2.79-19.11,4.08-27.96.56-4.05,1.41-10.18,2-14.48,1.16-8.1,2.69-17.65,3.4-23.3.39-3.12.37-2.44.68-4.66.63-4.58,1.37-9.93,2-14.48,1.34-9.22,2.75-18.58,4.12-27.45.99-8.92,4.19-28.93,5.04-35.71.67-5.32,1.79-12.03,2.36-16.56.11-.8.18-1.33.23-1.74.01-.09.02-.17.04-.25h0s0-.02,0-.02c.01-.01.03-.02.03-.05,0-.56.16-.92.27-1.43.09-.39.14-.77.21-1.16-.09-.18-.25-.22-.34-.31-.11-.11-.13-.22-.23-.28-.07-.04-.21.02-.29,0,.09.21-.23.19-.25.07-.22-.5-.55-.51-.86-.6-.19-.22-.01-.34-.06-.52-.35-.08-.74,0-1-.49-.18.02-.37.08-.51-.07l-.2-.41c-.21,0-.4-.15-.59-.23-.14-.06-.31-.07-.37-.17-.06-.11-.21.03-.29,0-.07-.21-.16-.31-.27-.36-.35,0-.67-.14-1.06,0-.17-.11-.35-.18-.52-.29-.43.24-.72-.09-1.16.18-.15-.03-.22-.38-.41-.26.09.34-.46.5-.7.74.05.17-.03.33-.05.49-.02.16-.02.57-.09.62-.08.07-.01.06-.03.13-.05.21-.03.42-.01.57.01.12,0,.18.05.3-.24.24-.17.64-.22.95-.01.06-.09.12-.1.19-.02.1.06.19.05.3-.03.19-.14.34-.13.54.54-3.76-1.48,10.62-2.72,19.27-.64,4.41-1.32,9.06-2.04,13.98-.11.78-.25,1.3-.36,2.08-.21,1.41-.42,3.68-.64,5.16-.21,1.48-.5,2.66-.72,4.16-.23,1.59-.4,3.54-.64,5.16-1.12,7.8-3.96,27.06-4.4,30.54-.62,4.94-1.53,10.53-2.04,13.98-.19,1.29-.45,3.8-.64,5.16-.28,1.91-1.04,7.11-1.36,9.32-.96,6.59-1.69,11.58-2.72,18.64l-1.36,9.32c-.52,3.41-1.22,8.08-1.72,11.4-.35,2.45-.62,5.31-.96,7.74-.39,2.85-.97,5.9-1.4,8.81-.18,1.22-.46,3.87-.64,5.16-.06.34-.3,1.7-.36,2.08-.21,1.39-.43,3.69-.64,5.16-1.07,7.2-2.44,16.42-3.08,20.71-.48,3.59-.88,6.56-1.32,9.82-.79,5.46-1.58,11-2.37,16.49-.44,3.01-.87,6.02-1.3,8.99-.22,1.49-.43,2.97-.64,4.44v.07s.04-.05.04-.05l.1-.1.2-.2.39-.39.78-.78c.52-.52,1.04-1.03,1.55-1.54,7.37-7.34,14.26-14.19,19.94-19.84.98-.97,2.58-2.72,3.61-3.75,1.24-1.21,3.52-3.44,4.87-4.77,2.57-2.62,4.58-4.66,6.94-7.07,10.07-9.99,18.87-18.72,28.24-28.02,3.83-4.1,6.83-6.89,10.55-10.82,4.23-3.92,6.88-6.79,10.01-9.96.68-.66,3.99-3.91,4.87-4.77,5.61-5.64,11.48-11.53,16.96-17.04,11.11-11,21.97-21.75,33.12-32.78,4.09-4.19,7.65-7.52,12.08-12.27,5.07-4.74,11.14-11.09,16.43-16.18,8.8-9.03,17.04-17.16,24.9-24.69,9.59-9.54,17.71-17.62,27.31-27.17,1.71-1.71,4.16-4.16,5.95-5.95,1.94-1.95,2.55-2.6,4.12-4.25,1.56-1.63,2.45-2.57,4.44-4.52.82-.8,1.28-1.24,2.2-2.13.83-.83,1.7-1.7,2.53-2.53,1.94-1.94,3.93-3.94,5.87-5.87,2.19-2.22,3.94-4,5.99-6.08,4.21-4.2,8.56-8.53,12.67-12.62,5.28-5.25,10.26-10.19,15.44-15.35,3.04-3.04,6.2-6.2,9.25-9.25,1.74-1.74,3.67-3.67,5.38-5.38,1.85-1.82,3.61-3.56,5.56-5.47,6.22-6.2,12.22-12.19,18.51-18.46,2.14-2.14,4.53-4.53,6.67-6.67,1.44-1.47,1.89-1.93,3.22-3.28,1.62-1.62,2.62-2.64,4.14-4.16.7-.72,1.17-1.2,1.82-1.86,2.52-2.52,5.22-5.22,7.72-7.71,9.29-9.19,17.9-17.71,27.09-26.79,10.17-7.54-3.12-3.3-8.63-2.99-6.17.89-12.35,1.78-18.79,2.71-4.36.65-8.68,1.3-12.99,1.94-3.84.56-7.59,1.11-11.37,1.67-6.04.88-12.47,1.82-18.65,2.72-3.58.5-5.29.74-8.86,1.24-2.32.32-3.2.44-5.46.79-2.17.35-4.14.67-6.45,1.04-1.84.27-4.07.59-5.99.87-5.3.75-9.94,1.41-15.1,2.15-1.81.24-3.53.48-5.34.72-1.72.25-3.53.51-5.19.74-1.75.25-.62.09-2.86.4Z"/>
        <path class="st0" d="M154.04,425.09c6.36-1.01,12.9-1.84,16.62-2.38,8.69-1.32,13.22-2,19.67-2.98,11.09-1.59,49.06-6.71,56.17-7.85,6.01-.96,13.6-1.88,18.73-2.62,1.72-.25,3.45-.58,5.15-.84,2.6-.39,5.92-.76,9.36-1.31,3.83-.61,3.42-.43,6.79-.89,1.39-.19,3.68-.62,5.16-.84,8.97-1.27,16.99-2.41,25.97-3.69,11.71-1.66,23.01-3.26,30.67-4.34.65-.07,1.45-.16,2.1-.24,1.42-.21,3.67-.6,5.15-.87,7.43-1.25,13.9-2.35,18.65-3.15.75-.14,1.82-.35,2.57-.49,1.44-.25,2.75-.35,4.2-.59,5.91-1,11.43-2.17,13.99-2.36l10.26-1.97c4.44-.74,8.94-1.49,13.45-2.24.17-.02.34-.04.5-.06.33-.04.65-.09.93-.08.24,0,.54-.05.69-.06.11,0,.17.08.28.09.17.01.41-.1.56.07.03-.34.27,0,.41-.04.07-.02.24-.19.4-.26.01,0,.06.05.07.05.04,0,.1-.11.13-.13.01,0,.06.05.07.05.11,0,.66-.6.73-.69.05-.07.01-.13.06-.18.06-.06-.02-.09,0-.11.17-.28.37-.36.39-.49.06-.29.25-.52.25-.71,0-.08,0-.15-.01-.23.3-.2.16-.36.46-.56-.17-.14-.06-.34-.09-.51-.01-.07.01-.16,0-.23-.02-.04-.12-.06-.14-.1-.01-.02.07-.15.06-.18-.04-.26-.04-.55-.1-.74-.03-.1-.06-.18-.08-.28-.01-.07,0-.15-.01-.23-.02-.08-.08-.14,0-.23.12.09.23.08.35.03-.23-.13-.07-.3-.3-.44.1-.1.1-.14-.01-.23-.1-.08-.06-.31-.09-.4-.04-.12-.11-.14-.22-.27-.13-.15-.04-.52-.37-.6.01-.14.18-.28.19-.42-.22-.33-.57-.64-.6-.98-.32.04-.45-.3-.71-.4-.08-.03-.37.14-.42-.08-.23-.02-.45.26-.68.17-.26-.13.04-.31-.3-.43-.33.22-.75.14-1.1.21-.2.04-.34.11-.55.16-.17.04-.43-.02-.55.16-.32-.15-.82,0-1.04.03-.04,0-.1-.11-.14-.1-.07,0-.22.12-.27.14-.07.02-.15.04-.22.05h-.11s-.06.02-.06.02h-.03s-.7.12-.7.12c-5.02.85-9.65,1.64-13.05,2.29-5.32,1.01-19.52,3.34-25.84,4.42-7.82,1.36-16.31,2.84-23.74,4.13-6.04.9-12.57,1.72-16.14,2.21-1.39.19-3.68.62-5.15.84-2.61.36-6.58.92-9.35,1.31-8.56,1.22-15.35,2.19-21.29,3.03-7.49,1.05-19.2,2.68-23.4,3.27-4.8.7-8.12,1.36-12.4,1.91-7.3.9-15.99,2.33-22.92,3.09-20.6,3.15-39.87,5.79-59.18,8.45-10.3,1.48-21.46,3.29-30.64,4.34-4.51.62-10.28,1.42-14.84,2.05-2.94.42-5.8.83-8.65,1.24l-.64.1-.33.05-.17.03h-.09s-.06.02-.02,0c.24-.24.51-.51.75-.76.16-.15.29-.25.43-.38,3.28-3.28,7.5-7.5,10.78-10.78,2.64-2.66,6.25-6.28,8.81-8.85.75-.77,1.32-1.36,2.1-2.17,2.56-2.62,6.08-6.09,8.42-8.38,5.38-5.23,10.06-9.67,16.5-16.12,3.19-3.19,6.4-6.4,9.59-9.59,1.87-1.88,3.59-3.61,5.31-5.33.73-.75,1.61-1.65,2.4-2.45,5.04-5.1,10.05-10.17,15.26-15.45,2.46-2.46,5.13-5.13,7.54-7.54.56-.57,1.07-1.1,1.57-1.61,1.14-1.14,2.1-2.11,3.27-3.28,3.57-3.56,7.03-7.01,10.56-10.54,3.5-3.43,6.69-6.57,10.12-9.93.81-.81,1.65-1.64,2.47-2.46.91-.89,1.75-1.7,2.63-2.55,1.91-1.9,4.48-4.45,6.49-6.44,3.4-3.42,5.93-5.97,9.32-9.38,3.71-3.76,5.5-5.5,9.18-9.17,2.73-2.73,5.78-5.78,8.46-8.47,2.52-2.5,1.33-1.26,2.57-2.42,2.29-2.14,9.77-9.82,12.79-12.84,10.36-10.38,20.84-20.64,30.65-30.61,10.55-10.71,24.04-24.05,31.95-31.88,1.02-1.01,2.56-2.7,3.62-3.76,5.39-5.37,11.24-11.18,16.75-16.66,2.9-2.86,5.36-5.29,8.24-8.12,3.98-3.96,8.28-8.58,10.05-10,4.9-5.13,9.04-9.06,13.94-14.19,10.22-9.94,21.6-21.73,31.68-31.45,3.99-4.19,7.62-7.81,11.25-11.41,1.81-1.81,3.61-3.6,5.47-5.47.91-.92,1.83-1.86,2.81-2.85.47-.48.94-.97,1.44-1.48.22-.23.45-.47.69-.71l.03-.06c.13.01.16,0,.23-.08.06-.06.16-.19.13-.07.09-.08.05.14.04.3v.07s-.04.24-.04.24l-.5,3.4c-.33,2.27-.67,4.54-1.01,6.81-1.35,9.09-2.72,18.27-4.08,27.41-.78,5.34-2.16,14.74-2.43,16.61-.89,6.91-1.42,8.79-2.1,14.01-.65,5.02-3.27,22.19-3.83,25.95-1.41,9.67-2.7,18.5-4.16,28.54-1.33,8.87-2.87,19.15-4.2,28.03-.58,4.07-1.45,10.21-2.06,14.52-1.19,8.12-2.77,17.69-3.5,23.36-.41,3.13-.38,2.44-.7,4.67-.65,4.59-1.41,9.95-2.06,14.52-.7,4.59-1.4,9.23-2.11,13.89-.34,2.31-.74,4.6-1.16,6.86-.41,2.25-.82,4.49-1.22,6.72-1.23,8.91-4.99,28.87-6.02,35.64-.81,5.31-2.12,12.01-2.82,16.53-.13.8-.21,1.33-.28,1.74-.02.09-.03.17-.04.25h0s0,.02,0,.02c-.01.01-.03.02-.03.05-.01.56-.19.92-.31,1.42-.1.38-.16.77-.24,1.16.08.18.24.22.33.32.11.11.12.23.22.28.07.04.21-.02.29.02-.08-.21.23-.18.25-.07.2.5.53.53.85.62.18.22,0,.34.04.52.35.09.74.02.99.52.18-.02.37-.07.51.08l.19.42c.21.01.39.16.59.25.14.06.31.08.37.18.06.11.21-.02.29.02.06.21.16.31.26.37.35.02.67.16,1.06.03.17.11.35.19.51.3.44-.23.72.11,1.16-.15.15.04.21.39.4.27-.08-.34.48-.48.72-.72-.05-.17.04-.33.07-.49.03-.16.04-.57.1-.62.08-.06.02-.06.03-.13.06-.2.04-.42.03-.57,0-.12.01-.18-.04-.3.25-.23.19-.64.25-.94.01-.06.09-.12.11-.18.02-.1-.06-.19-.04-.3.03-.19.15-.34.14-.54-.65,3.76,1.77-10.62,3.26-19.27.77-4.41,1.57-9.06,2.43-13.97.13-.78.28-1.3.42-2.08.25-1.41.53-3.68.78-5.16.25-1.48.58-2.66.84-4.15.28-1.59.5-3.54.78-5.16.65-3.9,1.89-10.65,2.89-16.89.93-6.24,1.78-11.95,2-13.69.64-4.96,1.57-10.56,2.1-14.02.2-1.29.46-3.81.66-5.18.29-1.92,1.07-7.13,1.4-9.35.99-6.61,1.74-11.61,2.8-18.69.46-3.1.93-6.23,1.4-9.34.53-3.42,1.25-8.1,1.77-11.43.36-2.46.64-5.32.99-7.77.4-2.86,1-5.91,1.44-8.84.19-1.22.48-3.88.66-5.18.06-.34.3-1.71.37-2.09.21-1.4.44-3.7.66-5.18,1.1-7.22,2.51-16.46,3.17-20.78.5-3.6.91-6.57,1.36-9.85,2-13.35,4.12-27.47,5.6-37.39.21-1.36.45-3.73.66-5.18.27-1.72.77-4.88,1.07-6.76.5-3.65.9-6.5,1.36-9.85,1.06-7.05,2.05-13.63,3.03-20.12.77-5.1,1.53-10.16,2.29-15.23.44-2.93.88-5.86,1.32-8.8.22-1.48.44-2.96.66-4.45l.33-2.24.04-.28c0-.06.07-.28-.03-.14l-.4.4-.8.8c-3.74,3.87-6.81,6.96-9.88,10.04-1.52,1.53-3.03,3.04-4.62,4.64-1.38,1.41-2.84,2.89-4.68,4.78-4.24,3.93-6.9,6.81-10.04,10-.68.67-4.01,3.92-4.89,4.78-5.63,5.66-11.51,11.57-17.02,17.1-11.15,11.04-22.04,21.83-33.22,32.9-4.1,4.2-7.67,7.55-12.12,12.31-5.08,4.76-11.18,11.13-16.48,16.23-8.83,9.06-17.09,17.22-24.98,24.78-9.62,9.58-17.77,17.68-27.4,27.26-1.71,1.72-4.18,4.18-5.97,5.97-1.94,1.96-2.55,2.61-4.14,4.26-1.57,1.64-2.46,2.57-4.45,4.53-.82.8-1.28,1.24-2.21,2.14-.83.83-1.7,1.7-2.54,2.54-1.95,1.95-3.95,3.95-5.88,5.89-2.19,2.23-3.96,4.01-6.01,6.1-4.23,4.21-8.59,8.56-12.71,12.66-5.3,5.27-10.29,10.23-15.49,15.4-3.05,3.05-6.22,6.22-9.28,9.29-1.75,1.75-3.68,3.68-5.4,5.4-1.85,1.83-3.62,3.57-5.58,5.49-6.24,6.22-12.26,12.23-18.57,18.52l-6.7,6.7c-1.45,1.48-1.9,1.93-3.23,3.29-1.62,1.63-2.63,2.65-4.15,4.18-.7.72-1.18,1.2-1.83,1.87-2.53,2.53-5.24,5.23-7.75,7.74-6.59,6.49-12.7,12.51-19.22,18.93-5.2,5.17-10.13,10.06-15.45,15.35-3.11,3.14-6.2,6.25-9.28,9.36-2.75,2.76-5.43,5.46-8.14,8.17-4.33,4.33-8.93,8.95-13.36,13.38-4.46,4.44-6.6,6.56-11.06,11-3.23,3.2-4.46,4.43-7.54,7.54-.74.75-1.46,1.48-2.17,2.21l-1.02,1.04-.5.51-.24.25.38-.06c2.1-.31,4.18-.63,6.47-.97,3.51-.5,7.78-1.11,11.47-1.64,7.22-1.01,13.55-1.9,20.59-2.89,1.82-.24,3.55-.47,5.36-.71,1.73-.24,3.55-.5,5.21-.73,1.76-.24.62-.09,2.87-.4Z"/>
        <path class="st0" d="M523.65,291.49c4.26-.74,8.66-1.28,11.15-1.66,6-.92,8.72-1.46,13.19-2.13,7.44-1.11,32.94-4.6,37.7-5.43,4.03-.7,9.13-1.3,12.57-1.81,1.15-.17,2.31-.43,3.45-.61,1.74-.27,3.98-.5,6.28-.9,2.57-.45,2.29-.28,4.56-.6.94-.13,2.46-.47,3.45-.61,6.02-.89,11.4-1.68,17.43-2.57,7.85-1.15,15.38-2.26,20.58-3.02.57-.08.85-.07,1.41-.15.96-.13,2.46-.47,3.45-.61,4.99-.72,9.37-1.35,12.57-1.81.44-.08,1.29-.23,1.73-.31.97-.14,1.85-.15,2.83-.29,3.98-.58,7.69-1.34,9.42-1.36l6.91-1.23c1.89-.27,3.77-.53,5.66-.8l2.86-.41c.68-.1.43-.06.51-.07h.06c.17-.02.34-.03.5-.05.33-.03.65-.07.93-.06.24,0,.54-.04.69-.04.11,0,.17.09.28.1.17.02.41-.09.56.08.03-.34.27,0,.41-.03.07-.01.24-.19.41-.25.01,0,.06.05.07.05.04,0,.1-.11.14-.12.01,0,.06.05.07.05.11,0,.67-.59.75-.68.05-.06.02-.13.07-.18.06-.06-.02-.09,0-.11.18-.28.37-.35.41-.48.07-.29.27-.52.26-.7,0-.08,0-.15,0-.23.3-.19.17-.35.47-.55-.16-.14-.06-.35-.08-.51,0-.07.02-.16,0-.23-.02-.04-.12-.06-.14-.11-.01-.02.07-.15.07-.18-.03-.26-.03-.56-.08-.74-.03-.1-.06-.18-.08-.28-.01-.07.01-.15,0-.23-.01-.08-.07-.14,0-.23.12.09.23.09.35.04-.22-.14-.06-.3-.29-.44.1-.1.11-.13,0-.23-.1-.08-.06-.31-.08-.4-.03-.12-.11-.14-.21-.27-.13-.16-.02-.52-.36-.61.02-.13.18-.28.2-.41-.22-.33-.56-.65-.57-1-.32.03-.44-.31-.7-.42-.08-.03-.38.14-.42-.09-.23-.03-.46.25-.69.16-.25-.14.05-.31-.29-.44-.34.21-.75.12-1.1.18-.2.03-.34.11-.55.15-.17.03-.43-.03-.55.15-.31-.15-.82-.03-1.04,0-.04,0-.1-.11-.14-.11-.07,0-.22.12-.27.13-.07.02-.15.03-.22.04h-.12s-.06.01-.06.01h-.03s-.47.07-.47.07c-3.39.49-6.51.95-8.8,1.35-3.59.63-13.17,1.93-17.44,2.57-5.27.8-11.02,1.67-16.02,2.42-4.06.6-8.45,1.17-10.84,1.5-.93.13-2.47.47-3.45.61-1.75.25-4.43.64-6.28.9-5.75.85-10.31,1.53-14.29,2.12-5.01.72-12.89,1.86-15.71,2.26-3.22.49-5.44,1.01-8.32,1.37-4.91.59-10.73,1.64-15.4,2.1-13.82,2.26-26.77,4.07-39.74,5.9-6.92,1.04-14.4,2.37-20.58,3.02-3.01.43-6.93.98-9.97,1.41-5.5.82-10.72,1.6-16.21,2.42-2.12.31-4.45.66-6.6.98-1.28.18-2.27.31-3.51.48-2.84.42-6.44.95-9.24,1.37-.13.02-.28.04-.43.06l-.12.02h-.06s0-.02,0-.04c0-.07,0-.13,0-.18,0-.07-.02-.11-.02-.2,0-.07,0-.15.01-.23.08-.51.15-1.04.23-1.56.21-1.32.43-2.67.61-3.84.84-4.97,1.63-9.23,2.51-15.29.44-3,.88-6.01,1.32-9.02.25-1.76.48-3.34.72-5,.09-.68.2-1.55.29-2.29.66-4.83,1.32-9.59,1.98-14.45.34-2.31.7-4.8,1.04-7.09.07-.51.13-1.04.19-1.5.16-1.08.29-1.98.44-3.08.5-3.34.97-6.55,1.47-9.92.51-3.18,1.01-6.28,1.51-9.4.12-.77.23-1.53.35-2.31.14-.8.28-1.65.41-2.43.28-1.83.64-4.21.93-6.07.45-3.19.79-5.55,1.25-8.8.48-3.52.76-5.17,1.27-8.63.37-2.56.79-5.42,1.16-7.96.36-2.36.22-1.21.44-2.33.41-2.07,1.31-9.21,1.73-12.05,1.42-9.75,2.99-19.48,4.25-28.79,1.35-10.01,3.31-22.6,4.45-29.99.15-.95.26-2.49.41-3.48.76-5.04,1.58-10.54,2.36-15.69.42-2.64.8-5.05,1.21-7.67.03-.23.07-.47.1-.7l.05-.36s0-.02,0-.03v-.04s-.03-.08-.04-.12c-.01-.08,0-.16.1.04-.08-.25,0-.14.05-.11.03.02.05.04.08.06.02,0,.03.01.06.02.02.01,0-.02.06.03.2.19.42.39.64.6,6.62,6.92,14.61,14.5,21.07,21.34,5.69,5.3,9.71,9.78,15.31,15.04,1.69,1.99,4.47,4.51,6.39,6.61,8.66,8.46,17.39,17.35,26.17,26.15,2.57,2.57,7.15,7.18,7.98,7.97,3.39,3.23,4.14,4.33,6.7,6.76,2.46,2.34,10.64,10.67,12.45,12.48,4.64,4.63,8.9,8.88,13.72,13.68,4.23,4.27,9.17,9.25,13.41,13.52,1.94,1.91,4.96,4.89,7.02,6.92,3.9,3.9,8.39,8.62,11.17,11.27,1.54,1.46,1.16,1.19,2.24,2.26,2.19,2.16,4.84,4.77,7.02,6.92,4.43,4.45,8.89,9.02,13.09,13.37,4.48,4.07,13.9,13.97,17.23,17.14,2.62,2.49,5.75,5.85,7.98,7.96.41.4.66.64.85.82.04.04.08.08.12.12h0s0,.02,0,.02c0,.02,0,.04.02.06.45.34.64.68.98,1.08.26.3.54.57.8.87.2.04.32-.07.45-.09.15-.02.26.03.36-.02.07-.03.11-.19.18-.23-.22-.05-.02-.3.09-.25.53.13.74-.13.99-.33.29-.02.28.19.45.27.28-.23.45-.59,1-.51.09-.16.16-.35.36-.37l.45.09c.13-.17.36-.23.54-.33.13-.08.24-.21.36-.19.13.02.1-.19.18-.23.21.07.35.05.45,0,.22-.28.52-.45.64-.84.19-.07.35-.17.54-.24.06-.49.51-.53.55-1.04.12-.1.44.05.45-.17-.33-.13-.12-.67-.17-1.01-.17-.06-.24-.23-.36-.34-.11-.11-.44-.36-.45-.44,0-.1-.04-.05-.09-.11-.13-.16-.32-.27-.45-.35-.1-.06-.14-.11-.27-.14-.05-.34-.41-.52-.62-.74-.04-.05-.05-.15-.09-.19-.07-.08-.19-.07-.27-.14-.14-.13-.19-.31-.36-.42,1.71,1.72-5.2-5.14-9.37-9.32-2.11-2.13-4.35-4.39-6.7-6.76-.37-.37-.59-.67-.96-1.05-.68-.69-1.83-1.69-2.55-2.41-.71-.71-1.2-1.38-1.92-2.1-.76-.77-1.77-1.63-2.55-2.41-3.75-3.76-12.97-13.1-14.68-14.73-2.43-2.31-5.05-5.09-6.7-6.76-.61-.62-1.89-1.76-2.55-2.41-.92-.93-3.42-3.44-4.47-4.51-3.15-3.18-5.55-5.6-8.94-9.02-1.48-1.5-2.98-3.01-4.47-4.51-1.59-1.63-3.89-3.98-5.43-5.56-1.18-1.18-2.64-2.45-3.82-3.61-1.38-1.36-2.76-2.94-4.15-4.35-.58-.59-1.92-1.79-2.55-2.41-.21-.21-.73-.81-.96-1.05-.67-.68-1.84-1.7-2.55-2.41-3.39-3.45-7.87-8-9.9-10.07-1.68-1.64-3.25-3.17-4.78-4.66-6.36-6.42-13.1-13.21-17.88-18.03-.65-.66-1.85-1.72-2.55-2.41-.77-.8-2.35-2.43-3.19-3.3-1.71-1.66-3.22-3.13-4.78-4.66-6.67-6.75-12.61-12.78-18.84-19.08-2.81-2.54-4.65-4.6-7.34-7.07-2.59-2.9-4.56-4.66-6.7-6.76-.43-.45-2.65-2.74-3.19-3.3-3.79-3.77-7.78-7.74-11.49-11.43-9.34-9.46-18.58-18.82-28.14-28.51l-.12-.12s-.02.09-.04.13l-.05.34c-.03.23-.06.45-.09.67-.06.45-.13.89-.19,1.32-.13.88-.25,1.72-.37,2.56-.25,1.68-.5,3.35-.75,5.03-.24,1.65-.47,3.28-.74,5.2-.23,1.69-.55,4.06-.59,4.77-.9,4.59-1.57,10.48-2.42,15.35-1.07,8.43-2.27,16.14-3.57,23.37-1.35,8.99-2.51,16.68-3.86,25.68-.24,1.61-.57,3.91-.82,5.61-.26,1.83-.32,2.43-.49,3.96-.17,1.51-.27,2.38-.56,4.23-.12.73-.21,1.23-.34,2.04-.12.8-.24,1.6-.35,2.38-.27,1.83-.54,3.71-.81,5.53-.28,2.04-.51,3.78-.77,5.7-.55,3.95-1.21,8.04-1.78,11.92-.75,4.95-1.46,9.65-2.19,14.51-.42,2.87-.86,5.85-1.28,8.73-.24,1.64-.51,3.45-.75,5.07-.27,1.7-.54,3.41-.82,5.19-.87,5.88-1.71,11.51-2.59,17.43-.3,2.02-.62,4.27-.92,6.29-.17,1.32-.23,1.78-.4,3.07-.18,1.46-.36,2.48-.56,3.92-.08.65-.15,1.14-.23,1.74-.32,2.35-.72,4.93-1.07,7.28-.95,6.01-1.88,11.88-2.83,17.9-.75,4.82-1.46,9.45-2.19,14.47-.48,3.39-.96,6.82-1.43,10.19-.36,2.5-.72,4.95-1.07,7.4l-.27,1.84-.13.92-.03.23s-.01.04,0,.05h.06s.11-.03.11-.03l.46-.07c1.22-.18,2.43-.37,3.66-.55,5.53-.82,11.31-1.68,16.91-2.52,2.38-.33,3.53-.5,5.97-.84,1.56-.21,2.15-.29,3.68-.54,1.4-.24,2.88-.5,4.34-.75,1.26-.19,2.74-.41,4.04-.6,3.56-.51,6.66-.96,10.18-1.47,1.19-.16,2.41-.32,3.6-.48,1.18-.17,2.36-.34,3.49-.51,1.19-.17.44-.06,1.92-.27Z"/>
        <path class="st0" d="M167.54,336.69c7.71-7.88,15.77-15.8,20.3-20.36,10.77-10.91,15.93-16.13,23.95-24.25,13.55-13.59,60.11-59.84,68.73-68.65,7.28-7.45,16.65-16.61,22.92-22.89,1.97-2.02,4.28-4.38,6.24-6.4,3.17-3.2,7.28-7.17,11.46-11.44,4.65-4.75,4.21-4.13,8.33-8.24,1.6-1.64,4.55-4.67,6.25-6.4,10.97-10.98,20.77-20.8,31.75-31.8,14.31-14.36,28.15-28.25,37.45-37.58.94-.91,1.66-1.61,2.6-2.52,1.63-1.68,4.54-4.67,6.24-6.41,9.12-9.13,17.04-17.06,22.88-22.91.99-1.02,2.13-2.19,3.12-3.2,1.76-1.77,3.43-3.27,5.21-5.05,3.57-3.62,7.1-7.2,10.08-10.22,3.02-3.09,5.32-5.34,6.98-6.59,4.16-3.74,8.67-6.94,13.61-9.32,2-.94,4.08-1.75,6.22-2.44.53-.18,1.07-.34,1.61-.49l.26-.08c.06,0,0,0,.15,0,1.22.01,2.44.03,3.67.04,2.45.03,4.91.06,7.36.09l1.21.02h.03s.06,0,.06,0c.17.01.34.02.5.03.33.02.65.03.93.08.24.04.54.05.69.07.11.01.15.11.26.14.16.04.42-.02.54.17.09-.33.27.05.41.04.07,0,.27-.15.45-.19.01,0,.05.06.06.06.04,0,.12-.09.15-.1.01,0,.05.06.06.06.11.02.76-.48.84-.55.06-.06.04-.12.09-.16.07-.05,0-.09.02-.11.22-.25.42-.29.48-.41.11-.27.34-.47.37-.66.01-.08.03-.15.03-.23.33-.14.22-.32.55-.46-.14-.17,0-.35,0-.52,0-.07.04-.16.03-.23,0-.05-.11-.08-.12-.13,0-.02.09-.13.09-.16.01-.27.05-.55.03-.75-.01-.11-.03-.19-.03-.29,0-.07.03-.15.03-.23,0-.08-.05-.15.03-.23.1.11.22.12.34.09-.2-.17-.01-.31-.21-.48.11-.08.13-.12.03-.23-.08-.1,0-.32-.01-.4-.01-.13-.08-.16-.17-.3-.1-.17.06-.52-.26-.66.04-.13.22-.25.26-.38-.16-.36-.45-.73-.41-1.08-.32-.02-.39-.37-.63-.52-.08-.05-.39.08-.4-.15-.22-.06-.49.18-.71.05-.23-.18.1-.3-.21-.48-.37.16-.76,0-1.12,0-.2,0-.35.05-.57.06-.17,0-.42-.1-.57.06-.29-.2-.8-.15-1.03-.16-.04,0-.08-.12-.12-.13-.07,0-.24.08-.29.09-.07.01-.15.01-.23,0h-.12s-.06-.01-.06-.01h-.03c-.41,0-.81-.01-1.21-.02-2.18-.02-4.32-.05-6.4-.07-1.04-.01-2.06-.02-3.06-.03-.5,0-1,0-1.49-.01-.42,0-.84,0-1.26-.01h-.34c-.11.02-.22.06-.33.09l-.65.19c-.56.17-1.11.33-1.65.49-.48.16-.95.32-1.42.47-.94.3-1.83.66-2.7.98-1.73.68-3.32,1.4-4.76,2.11-2.25,1.11-5.35,2.84-8.68,5.17-3.33,2.32-6.85,5.26-10.1,8.45-6.17,6.17-12.5,12.49-16.4,16.39-9.61,9.67-20,20.13-29.12,29.32-7.38,7.36-15.41,15.37-19.77,19.71-1.59,1.63-4.55,4.68-6.23,6.4-3.2,3.2-8.05,8.06-11.44,11.45-10.46,10.49-18.77,18.82-26.02,26.1-9.19,9.18-23.52,23.49-28.64,28.61-5.86,5.89-9.83,10.13-15.09,15.32-9,8.82-19.52,19.64-28.12,27.93-25.08,25.44-48.7,48.96-72.37,72.54-12.6,12.64-26.12,26.51-37.49,37.53-5.55,5.54-12.58,12.54-18.18,18.13-10.03,10.06-19.54,19.6-29.51,29.61-3.85,3.86-8.1,8.12-12.01,12.04-2.41,2.4-4.11,4.08-6.41,6.37-2.83,2.84-6.07,6.08-9.31,9.34-3.45,3.52-6.49,7.42-8.81,11.04-1.87,2.92-3.86,6.58-5.43,10.36-1.57,3.78-2.72,7.65-3.39,10.8-.19,1-.35,1.85-.51,2.71-.14.86-.24,1.73-.4,2.8-.41,3.38-.59,7.39-.32,11.31.25,3.92.96,7.72,1.76,10.68,1.84,6.79,4.75,12.83,8.92,18.36.51.7,1.04,1.39,1.62,2.05.57.67,1.11,1.37,1.73,2.01.61.65,1.22,1.3,1.84,1.96.59.6,1.19,1.2,1.79,1.81,2.44,2.45,4.98,5.01,7.73,7.76,5.47,5.47,10.96,10.96,16.43,16.43,3.23,3.22,6.21,6.2,9.13,9.1,1.3,1.28,2.79,2.75,4.18,4.13,8.67,8.6,17.31,17.18,26.41,26.22,4.21,4.21,8.81,8.81,12.92,12.92,1.01.99,1.85,1.83,2.75,2.71,1.95,1.94,3.6,3.6,5.62,5.61,6.11,6.12,12.06,12.08,18.07,18.09,5.97,6.04,11.24,11.36,17.08,17.27,1.38,1.38,2.82,2.83,4.21,4.23,1.58,1.6,2.89,2.93,4.4,4.47,3.22,3.23,7.62,7.65,11.05,11.1,5.88,5.85,10.26,10.22,16.05,15.99,6.43,6.43,9.43,9.44,15.72,15.73,4.68,4.67,9.92,9.92,14.51,14.51,4.3,4.32,2.19,2.25,4.21,4.35.94.98,2.42,2.48,4.31,4.35,2.09,2.09,4.79,4.22,7.73,6.04,2.93,1.82,6.1,3.31,9.01,4.4,2.92,1.08,5.57,1.84,7.51,2.27,6.66,1.55,13.5,2.03,20.27,1.46,6.76-.57,13.48-2.18,19.73-5.08,3.12-1.45,6.12-3.23,8.88-5.35.69-.53,1.35-1.1,2.03-1.66.66-.58,1.29-1.19,1.93-1.78,1.1-1.09,2.19-2.18,3.28-3.27,4.31-4.32,8.58-8.61,12.83-12.87,18.14-18.28,41.22-41.18,54.75-54.62,1.63-1.67,4.55-4.65,6.25-6.39,9.24-9.21,19.24-19.16,28.68-28.57,5.02-4.97,9.11-9.02,14.08-13.94,6.82-6.79,14.31-14.59,17.21-17.14,8.48-8.7,15.51-15.51,23.98-24.22,17.42-17.12,37.07-37.16,54.23-53.94,13.82-14.2,24.9-24.81,38.58-38.84,4.84-4.54,11.46-11.42,16.68-16.46,21.74-21.93,44.29-44.32,66.73-66.72,6.55-6.55,18.2-18.2,20.34-20.34,8.36-8.53,10.89-10.7,17.2-17.14.79-.8,1.78-1.81,2.95-3,1.38-1.43,2.82-3.18,4.11-5.19,1.27-2.01,2.47-4.25,3.44-6.62.96-2.37,1.77-4.86,2.38-7.35,1.2-4.99,1.72-9.97,1.76-14.11.06-4.14-.22-7.45-.44-9.18-1.01-8.94-3.56-17.34-7.82-25.12-2.17-3.87-4.83-7.55-8.06-10.89-2.94-2.94-5.93-5.94-9.01-9.03-10.86-10.9-23.41-23.5-34.28-34.41-5.03-5-12.49-12.42-17.82-17.72-9.94-9.95-21.58-21.82-28.57-28.67-3.86-3.79-2.99-3.01-5.72-5.74-5.67-5.64-12.18-12.11-17.82-17.72-11.2-11.3-22.64-22.83-33.6-33.89-11.12-10.71-35.45-35.54-43.92-43.82-3.48-3.37-7.73-7.03-12.34-10.01-4.57-3.02-9.46-5.28-13.49-6.63-1.36-.47-2.35-.76-3.11-.99-.16-.05-.31-.09-.45-.14h0s-.01-.01-.01-.01c-.01-.02-.02-.03-.05-.04-.6-.1-.97-.29-1.5-.48-.4-.14-.81-.24-1.22-.37-.2.06-.25.22-.36.3-.12.1-.25.11-.32.2-.05.07,0,.22-.03.29.23-.07.18.24.06.26-.54.17-.58.5-.7.8-.24.17-.35-.02-.54.01-.11.35-.06.74-.58.96,0,.18.06.38-.11.51l-.43.16c-.02.21-.18.38-.28.57-.07.14-.09.31-.2.36-.12.05.01.21-.03.29-.21.05-.32.14-.38.24-.03.35-.18.66-.07,1.06-.12.16-.2.34-.31.5.2.45-.13.72.1,1.17-.04.15-.38.2-.27.39.33-.07.43.49.64.75.17-.04.31.05.45.09.14.03.54.06.58.13.05.08.06.02.12.04.19.06.39.06.53.06.11,0,.16.03.29-.02.2.26.58.23.86.31.06.02.1.1.16.12.09.03.19-.04.29-.02.17.05.3.16.49.18l.19.05c.24.07-.75-.23,1.88.56,1.8.62,3.6,1.25,5.32,2.04,3.48,1.52,6.77,3.47,9.92,5.71,3.14,2.26,6.1,4.87,8.96,7.7,5.42,5.44,11.11,11.14,17.14,17.2.84.87,1.68,1.74,2.52,2.61,1.67,1.63,4.64,4.54,6.39,6.25,1.81,1.81,3.2,3.38,5.03,5.22,1.87,1.83,4.49,4.39,6.39,6.25,9.56,9.57,33.06,33.11,37.48,37.53,6.11,5.99,12.91,12.95,17.14,17.2,1.52,1.49,4.78,4.68,6.39,6.25,2.34,2.35,8.72,8.75,11.43,11.47,8.09,8.12,14.19,14.24,22.86,22.94,3.79,3.81,7.62,7.65,11.43,11.47,4.23,4.27,9.82,9.91,13.95,14.08,3.01,3.02,6.59,6.4,9.59,9.38,3.51,3.48,7.18,7.35,10.75,10.95,1.44,1.41,4.86,4.75,6.39,6.25.48.5,1.99,2.06,2.52,2.61.42.42.91.9,1.46,1.45.27.26.54.53.83.81.25.26.51.52.76.78.51.52,1.02,1.04,1.46,1.58.45.53.9,1.01,1.23,1.5,3.54,4.54,6.41,10.6,8.07,16.41,1.68,5.82,2.28,11.31,2.43,14.84.15,3.02.09,5.63-.11,8.16-.21,2.52-.54,4.97-1.16,7.6-1.24,5.17-3.38,10.17-6.57,13.94l-1.25,1.35-1.54,1.54c-1.02,1.02-2.05,2.04-3.06,3.05-2.03,2.02-4.04,4.03-6.02,6-7.9,7.86-15.27,15.19-21.33,21.22-1.57,1.61-4.59,4.69-6.25,6.39-2.19,2.16-5.95,5.87-8.35,8.23-4.55,4.59-7.81,7.89-11.99,12.11-17.35,17.26-32.36,32.18-48.49,48.23-6.68,6.95-11.77,11.83-18.25,18.5-7.16,6.85-11.8,11.7-17.2,17.14-1.18,1.17-6.79,6.7-8.34,8.23-9.68,9.7-19.74,19.78-29.2,29.25-19.19,19.06-37.82,37.57-56.84,56.46-7.07,7.16-13.11,12.98-20.85,21.01-8.6,8.27-19.14,19.07-28.16,27.89-15.22,15.44-29.35,29.45-42.75,42.51-16.51,16.45-30.4,30.29-46.92,46.74-.72.72-1.58,1.59-2.39,2.37-.39.36-.78.73-1.18,1.11-.42.35-.85.71-1.29,1.07-1.76,1.39-3.68,2.64-5.38,3.56-1.87.99-3.16,1.57-4.38,2.08-.61.24-1.21.47-1.86.73-.66.22-1.37.48-2.23.75-1.7.51-3.05.85-4.53,1.15-1.48.28-3.07.57-5.28.75-.94.1-1.62.11-2.33.14-.71.04-1.45.04-2.53.05-1.84.01-3.81-.09-5.67-.26-2.17-.2-4.35-.58-6.5-1.03-2.14-.49-4.24-1.11-6.26-1.82-4.64-1.75-7.98-3.54-11.53-6.31-.43-.36-.87-.71-1.3-1.08l-1.23-1.15c-.9-.9-1.81-1.8-2.71-2.7-1.82-1.82-3.65-3.66-5.47-5.49-3.65-3.66-7.28-7.31-10.8-10.84-9.06-9.09-17.54-17.6-26.42-26.51-5.22-5.22-10.66-10.66-15.91-15.91-3-3-6.32-6.32-9.25-9.25-3.16-3.19-6.1-6.15-9.44-9.52-10.64-10.66-20.96-20.99-31.75-31.8-3.68-3.68-7.8-7.8-11.47-11.47-2.58-2.55-3.33-3.29-5.62-5.55-2.7-2.69-4.53-4.52-7.15-7.12-1.26-1.24-2.03-2.01-3.19-3.15-4.29-4.3-8.97-8.98-13.26-13.27-11.29-11.39-21.44-21.63-32.54-32.83-2.19-2.21-4.37-4.4-6.53-6.57l-3.25-3.27-1.63-1.63-1.45-1.54c-1.89-2.06-3.61-4.27-5.13-6.65-1.49-2.39-2.78-4.94-3.83-7.65-2.46-6.39-3.41-13.2-2.88-20.03.45-6.05,2.07-11.97,4.49-17.46.46-1.11,1.03-2.18,1.56-3.28.6-1.07,1.16-2.17,1.83-3.21,1.27-2.13,2.72-4.19,4.3-6.15.77-1,1.62-1.93,2.45-2.89.89-.93,1.69-1.8,2.69-2.79,1.93-1.93,3.85-3.85,5.75-5.75,4.43-4.41,6.53-6.51,10.9-10.86,2.86-2.83,3.94-3.91,6.71-6.72,2.73-2.78,4.91-5.01,7.86-8.02,2.23-2.23,4.99-5,7.35-7.37,6.52-6.52,12.25-12.24,18.56-18.54,2.27-2.25,4.32-4.28,6.58-6.52l6.37-6.37c2.15-2.15.74-.74,3.51-3.5Z"/>
      </g>
    </g>
  </g>
  <path class="st2" d="M156.02,610.47c-26.89,43.55-57.05,85.08-90.15,124.12"/>
  <path class="st2" d="M192.89,677.45c-1.19,19.03-3.83,37.96-7.88,56.59"/>
  <path class="st2" d="M95.85,557.53c-19.21,7.57-37.32,17.92-53.6,30.62"/>
</svg>