<?xml version="1.0" encoding="UTF-8"?>
<svg id="Ebene_1" xmlns="http://www.w3.org/2000/svg" version="1.1" viewBox="0 0 2999.86 800">
  <!-- Generator: Adobe Illustrator 30.4.0, SVG Export Plug-In . SVG Version: 2.1.4 Build 226)  -->
  <defs>
    <style>
      .st0 {
        fill: #e5b969;
        stroke-miterlimit: 10;
        stroke-width: .04px;
      }

      .st0, .st1 {
        stroke: #e5b969;
      }

      .st1 {
        fill: none;
        stroke-linecap: round;
        stroke-linejoin: round;
        stroke-width: 48px;
      }
    </style>
  </defs>
  <g>
    <path class="st1" d="M2769.56,206.49c-59.55,0-204.17,10.21-263.73,10.21.21,172.47.43,344.93.65,517.4,136.79-4.72,147.58-4.72,284.37-9.44"/>
    <path class="st1" d="M2532.48,419.46c53.62-1.36,107.23-2.72,160.85-4.08"/>
  </g>
  <path class="st1" d="M1051.26,174.57c3.75,181.8,1.85,363.71-5.7,545.39-17.66-149.99-7.51-303.21,29.78-449.55,12.96-50.85,41.85-110.92,94.33-111.1,48.28-.17,79.45,53.51,83.73,101.61,4.9,55.12-14.06,114.58-58.22,147.93-44.15,33.35-114.46,32.14-150.2-10.11"/>
  <path class="st1" d="M1429.22,202.71c-4.28,3.56-7.91,7.82-11.43,12.13-99.55,121.71-123.85,300.28-60.46,444.17,16.32,37.03,42.28,74.97,81.9,83.18,56.29,11.65,104.95-42.57,125.7-96.18,38.72-100.01,23.24-202.02-4.26-302.29-12.91-47.04-49.71-209.07-131.45-141.01Z"/>
  <path class="st1" d="M1712.97,198.22c-10.3,114.41-6.69,230.06,10.74,343.6,6.61,43.09,15.57,86.85,37.86,124.31,22.3,37.46,60.33,68.03,103.84,70.81,46.12,2.95,89.95-26.04,115.61-64.47,25.66-38.43,35.92-85.03,41.8-130.86,15.86-123.84,2.98-251.27-37.36-369.42"/>
  <path class="st1" d="M2338.27,249.16c3.81-24.04,7.56-49.08.4-72.34-7.16-23.26-28.75-44.02-52.98-41.69-16.33,1.57-30.03,12.87-41.01,25.05-51.72,57.34-64.22,146.25-32.04,216.44,28.6,62.39,86.11,106.02,126.83,161.28,40.71,55.25,61.38,139.17,13.82,188.65-16.82,17.49-40.27,27.93-64.34,30.95-41.69,5.23-85.53-12.23-112.22-44.68-26.69-32.45-35.36-78.83-22.19-118.73"/>
  <g id="ZXLhTd">
    <g>
      <path class="st0" d="M378.46,93.28c9.84,3.64,13.98,11.91,13.81,22.42-.48,28.64-7.38,55-20.66,80.31-10.99,20.96-17.22,42.71-16.69,66.55.25,11.36-8.7,20.19-19.3,19.84-10.52-.35-18.18-8.94-18.21-19.79-.08-29.29,6.74-56.2,20.19-82.03,10.84-20.82,17.6-42.44,17.03-66.15-.24-10.05,5.05-17.68,14.19-21.17h9.64Z"/>
      <path class="st0" d="M490.47,93.28c9.84,3.64,13.98,11.91,13.81,22.42-.48,28.64-7.38,55-20.66,80.31-10.99,20.96-17.22,42.71-16.69,66.55.25,11.36-8.7,20.19-19.3,19.84s-18.18-8.94-18.21-19.79c-.08-29.29,6.74-56.2,20.19-82.03,10.84-20.82,17.6-42.44,17.03-66.15-.24-10.05,5.05-17.68,14.29-21.15h9.54Z"/>
      <path class="st0" d="M602.48,93.28c9.84,3.64,13.98,11.91,13.81,22.42-.48,28.64-7.38,55-20.66,80.31-10.99,20.96-17.22,42.71-16.69,66.55.25,11.36-8.7,20.19-19.3,19.84-10.52-.35-18.18-8.94-18.21-19.79-.08-29.29,6.74-56.2,20.19-82.03,10.84-20.82,17.6-42.44,17.03-66.15-.24-10.05,5.05-17.68,14.29-21.15h9.54Z"/>
      <path class="st0" d="M671.59,618.5c11.79.14,19.44,8.84,19.27,19.87-.88,47.72-36.39,86-84.03,92.08H252.13c-47.09-6.05-82.59-43.64-83.98-90.76-.9-12.35,7.76-21.22,19.95-21.22l117.43-.04c-61.17-41.34-99.83-108.78-99.91-182.9l-.1-97.09c-.01-10.26,8.14-18.64,18.82-18.64h410.3c10.76,0,18.73,8.43,18.79,18.55l.13,18.78h53.64c30.37-.99,57.06,22.4,57.98,53.31,2.32,77.83-64.27,139.26-141.5,132.99-17.72,30.6-41.29,55.22-70.28,75.01l118.2.07ZM616.12,432.38l.04-75.26H242.81s.08,76.74.08,76.74c.11,103.19,85.77,184.93,187.22,184.6,101.42-.33,185.96-82.56,186.01-186.09ZM728.13,413.81c.11-10.16-7.88-19.15-17.3-19.18l-57.32-.22v37.45c-.02,25.66-4.43,50.2-12.65,74.46,48.71-3.63,86.74-43.16,87.27-92.5ZM599.31,693.16c23.96-1.19,43.12-15.74,50.84-37.33H208.74c8,22.45,28.75,37.14,52.88,37.34h337.69Z"/>
      <path class="st0" d="M463.44,570.87c-23.46,15.12-52.24,13.26-73.63-3.62-46.32-36.55-48.4-126.02,4.54-161.77,24.06-16.25,54.86-14.3,76.91,4.55,44.95,38.43,45.04,126.77-7.82,160.84ZM393.93,504.04l50.44-67.15c-8.88-6.7-20.75-6.69-29.92-.09-19.31,13.92-25.76,43.36-20.52,67.24ZM443.38,539.53c20.56-13.47,26.88-44.78,21.66-67.91l-50.29,66.95c7.44,6.33,19.16,7.16,28.63.96Z"/>
    </g>
  </g>
</svg>