<?xml version="1.0" encoding="UTF-8"?>
<svg id="Ebene_1" xmlns="http://www.w3.org/2000/svg" version="1.1" viewBox="0 0 2999.86 800">
  <!-- Generator: Adobe Illustrator 30.4.0, SVG Export Plug-In . SVG Version: 2.1.4 Build 226)  -->
  <defs>
    <style>
      .st0 {
        fill: none;
        stroke-width: 48px;
      }

      .st0, .st1 {
        stroke: #e5b969;
        stroke-linecap: round;
        stroke-linejoin: round;
      }

      .st1 {
        fill: #e5b969;
        stroke-width: 10px;
      }
    </style>
  </defs>
  <path class="st0" d="M1155.47,269.35c-3.51-33.14,3.72-66.9-1.53-99.81-5.25-32.91-29.78-67.28-63.08-66.02-24.98.95-45.11,21.81-55.64,44.49-26.6,57.28-7.86,125.35,20.26,181.89,28.12,56.55,65.72,109.83,78.43,171.7,7.39,35.94-6.91,75.48-35.58,98.38-28.67,22.9-70.39,28.11-103.81,12.97-45.61-20.67-69.33-72.58-75.43-122.29"/>
  <path class="st0" d="M1203.65,608.92c-11.65-159.21,13.21-320.99,72.13-469.36,83.07,162.6,140.82,338.09,170.56,518.24"/>
  <path class="st0" d="M1206.76,444.69c24.67,0,166.01-3.08,190.68-3.08"/>
  <path class="st0" d="M1558.52,639.34c7.66-151.17,4.3-302.9-10.05-453.58,65.34,141.73,130.67,283.45,196.01,425.18-.61-158.85-1.21-317.7-1.82-476.55"/>
  <path class="st0" d="M2213.85,182.29c-2.85,151.59-1.14,303.27,5.12,454.77-23.77-135.9-25.15-275.69-4.05-412.03,8.17-52.83,31.43-116.48,84.58-122.16,22.24-2.37,43.71,13.15,53.39,33.31,9.68,20.16,9.34,43.82,4.79,65.71-13.5,64.94-64.77,120.59-128.4,139.35,83.1,109.88,160.38,224.16,231.4,342.21"/>
  <path class="st0" d="M2474.75,594.39c42.07-138.69,84.13-277.38,126.2-416.08,47.12,160.97,94.24,321.95,141.35,482.92"/>
  <path class="st0" d="M2520.99,487.74c29.04-1.15,149.34,1.15,178.38,0"/>
  <path class="st0" d="M1852.07,174.26c3.79,156.46,7.58,312.91,11.37,469.37-20.52-107.79-19.38-219.65,3.33-327,7.81-36.93,19.41-75.44,47.49-100.67,43.94-39.49,122.99-27.76,153.57,22.79,19.02,31.44,19.47,70.31,19.36,107.06-.13,42.93-.26,85.85-.39,128.78-.08,26.28-.34,53.45-11.1,77.43-19.17,42.73-71.65,65.88-117.27,55.3s-81.48-51.28-90.7-97.2"/>
  <g id="_x38_LXXAw">
    <g>
      <path class="st1" d="M453.47,418.94c-11.34,12.41-26.12,19.91-43.5,24.76l3.27-11.11-19.15,6.4,6.83,20.19c2.43,7.18,3.92,13.76,5.24,21.65l-7.47-3.68c9.28,36.2,12.97,72.43,11.86,109.88-.14,4.92,2.2,8.48,6.46,10.78,28.23,15.25,52.91,9.1,66.94,24.22,4.78,5.15,5.25,12.63,2.54,17.93-3.4,6.65-10.08,6.59-16.74,7.83l-22.32,4.14c-8.07,1.5-15.34-.81-23.57-1.84-24.45-3.05-48.83-3.92-73.28-5.62-24.34-1.69-15.56-32.43-21.69-44.01-10.93-20.64-17.97-40.73-20.19-64.09-1.35-14.23-4.73-27.95-11-41.85-17.17,21.96-33.46,45.95-56.14,60.92l.23-6.28c-15.17,14.1-31.18,24.58-50.65,33.48l24.63,15.94c13.25,8.58,26.65,14.9,41.57,20.44,2.68,1,4.69,5.62,4.56,8.17-.59,11.08-21.72,17.23-32.92,14.86l-25.58-5.41c-1.17,4.07-3.22,6.96-6.15,9.33-4.57,3.7-9.83,4.02-15,.78l-57.62-36.07c-13.21-8.27-20.2-21.91-15.94-37.18,1.79-6.42,5.29-12.48,9.24-17.92,12.12-16.72,16.75-38.34,36.76-54.81l27.11-22.32c8.74-7.19,14.15-17.04,14.9-28.64,1.4-21.5,3.82-42.68,3.72-64.29-.08-18.39-1.19-34.93,4.06-53.44l-8.41,6.72c-4.78-27.91,11.91-52.84,32.19-71.21,34.51-31.28,76.33-48.32,121.47-59.05,37.17-8.84,67.53-27.16,99.32-47.85,17.53-11.41,35.71-18.62,56.69-21.19,47.05-5.76,62.76-32.44,96.64-40.67,21.59-5.25,45.01-3.56,65.47,5.75,25.75,11.72,40.82,39.79,38.53,67.44-.47,5.62-1.66,9.96-.32,15.42,2.57,10.45,2.74,21.24-.89,31.49l-9.02,25.48c9.44,12.3,13.07,25.58,12.12,40.58l-6.75,14.28c-3.07,15.13-11.67,25.95-26.69,31.77,2.41,25.81,10.83,49.05,22.95,71.23,7.31,13.37,13.99,26.13,20.49,39.82l-6.66-1.03,31.25,63.27c6.68,13.53,11.51,27.08,16.95,41.17l21.72,56.19c6.04,15.63,10.01,33.62-1.46,44.2-5.37,4.95-11.77,3.78-18.18,4.87-16.47,2.8-33.1,2.97-47.04-7.15-6.34-2.98-8.55-9.63-6.8-16.33-3.47-3.96-5.61-8.98-2.44-13.2,3.87-3.94,6.02-9.01,5.07-14.5l-5.1-29.34c-1.63-9.38-7.47-15.81-13.97-22.1l-34.52-33.4c-5.16-4.99-10.5-9.19-14.79-14.94l-12.46-16.72-1.32,6.4c-13.55-14.33-19.64-31.45-23.61-50.54l-12.19,14.69c-8.3-22.42-7.23-43.87-4.55-69.15l-11.82,6.99-.77-7.78-15,10.56c1.62,11.31,3.34,21.95,5.92,32.96,5.43,23.13,7.18,45.67,7.76,69.46.73,30.04,3.07,59.07,5.61,89.04,2.12,25.02,15.59,38.08,8.46,56.78-3.48,9.14-20.57,10.54-32.44,8.59-10.33,2.91-18.03-.43-30.84.94-5.49.59-9.99-1.57-12.27-6.85s-4.72-12.51-1.94-18.25c2.06-4.25,6.93-7.31,11.06-10.5l-2.91-16.9c-1.45-8.45-1.18-17.18-4.42-25.23l-26.52-66.08c-8.39-20.91-10.55-42.09-13.53-65.3l-8.65,24.21c-4.95-7.95-8.72-15.88-9.8-25.33l-2.61-22.84ZM467.34,386.92c-3.41,18.98-6.23,37.37-2.09,57.3,7.28-20.58,12.89-45.6,30.14-59.53l-5.34,12.59c-2.59,6.09-5.59,11.72-6.17,18.59-2.65,30.99,1.73,61.51,13.47,90.25l12.74,31.19,3.56-24.76c2.72,25.2,7.25,48.26,11.93,72.52,2.04,10.61,2.64,21.24,6.01,31.58,5.23,16-13.14,15.86-12.29,22.86.23,1.93,5.64,4.97,7.54,3.81,8.91-5.44,15.4-12.26,23.47-19.59-.74,7.75-5.36,12.13-10.05,18.73,1.38,1.14,6.16,1.91,8.53,1.14,2.06-.68,4.79-3.89,5.67-6.09l5.7-14.25,1.08,18.37c.24,1.36,4.75.3,5.17-1.03l5.65-18.11c3.17,5.78,3.08,11.4,2.44,18.63,10.86-2.71,7.37-17.66,2.74-31.69-4.96-15.03-7.75-29.82-8.47-45.89l-3.65-81.59c-.65-14.57-2.17-28.23-4.78-42.4l-8.3-45.19c-2.69-14.61-3.86-28.53-3.74-43.59.21-26.69.61-52.49-1.8-79.07-2.32-25.52-8.84-49.21-7.7-76.24,13.93,38.45,17.86,78.71,17.93,119.39.04,23.54-.02,45.66,2.64,68.79,15.1-10.04,23.76-22.99,31.4-38.2-.5,11.01-4.39,19.85-7.72,30.63,13.51-10.52,21.21-23.62,28.75-38.14l.34,10.91,12.38-19.52c-1.01,9.13-3.56,15.56-6.03,24.28l17.12-21.36c-7.32-8.2-13.96-15.45-18.28-25.19-10.13-22.83-5.43-49.39,18.09-60.74,1.57,1,1.98,1.74,1.43,2.65-21.71,21.12-20.34,47.58-2.41,70.69,3.59,4.62,9.73,7.83,15.77,7.24,18.11-1.74,37.42-7.4,41.55-26.35-20.42,1.47-41.7.64-58.15-13.1,19.45,6.3,37.42,10.17,56.5,5.65,6.12-1.45,10.14-4.72,10.29-11.67.31-13.59-5.52-26.67-14.64-36.33-3.1,5.12-4.86,8.17-10.08,10.35-2.09-7.18,9.91-16.47,3.58-21.32-4.94-3.78-10.92-1.75-17.48-3.29l10.09-2.25-.42-5.3,14.06,9.52,1.55,10.81,6.89-21.08c7.39-16.5,6.35-32.22-.18-48.76-7.84-19.87-20.37-36.8-41.35-45.04-3.21,20.22-19.14,18.47-25.57,27.8-3.83,5.56-8.37,9.41-14.64,11.32l11.19-46.42,4.08,21.98,7.54-23.82,7.03,15.09,4.52-17.99c22.2,7.61,39.14,22.64,50.6,43.03-2.08-21.21-15.08-39.47-33.86-48.18-25.74-11.94-54.85-8.77-79.33,4.57l-39.3,21.42c-22.12,12.05-52.05,9.26-73.59,20.49-11.1,5.79-20.8,12.64-31.44,19.3-17.47,10.93-34.73,21.37-54.19,28.51-19.33,7.09-38.3,11.78-58.1,17.58-32.51,9.54-61.91,25.12-87.96,46.59-14.3,11.78-29.72,29.17-32.84,47.87l23.48-18.66c-7.7,11.26-13.66,20.31-16.66,32.78-3.62,15.02-6.27,29.81-3.88,45.18l12.59-27.36c-1.87,45.24,16.28,78.78,41.01,114.48l6.41-27.26c1.96,6.05,1.07,13.37,4.77,17.6l24.27,27.81c8.13,9.31,13.89,20.11,15.78,32.51l6.21,40.85c.75,4.96,2.24,9.79,4.25,14.22,0-23.45.13-45.5,6.02-67.36l.67,53.41c.14,11.26,2.93,21.83,5.33,32.69,4.61,20.9.1,46.18,14.64,47.2l75.01,5.28c6.13.43,11.47,3.94,17.74,1.91-6.32-6.03-13.72-7.44-20.93-11.68,18.58-.06,29.92,10.63,33.48,11.31,1.83.35,5.12-2.87,4.44-5.1l-32.67-10.99c13.5-1.68,25.79,2.92,36.84,8.19,3.94,1.88,6.43,7.73,12.21,2.13-2.97-2.8-6.86-5.93-10.94-7.08l-25.14-7.11c14.2-2.43,25.68,3.06,38.14,7.01-1.46-3.72-4.95-6.53-8.35-7.29l-30.29-6.74c-12.2-2.72-23.62-6.32-34.27-13.15l-15.47,2.83,9.46-8.87c2.02-1.89,1.52-7.66,1.54-10.98.19-38.24-3.58-75.33-12.96-112.3l-6.35-25.06,6.71,6.73c-5.24-22.67-15.14-41.77-28.63-59.72-7.2-9.58-12.96-19.79-20.98-28.62l-34.68-38.19c-9.18-10.11-17.68-19.46-25.8-31.21,7.3,3.27,11.59,8.05,16.67,13.2,19.36,19.61,39.52,37.69,57,58.99,11.54,14.07,21.67,28.48,29.7,44.53l8.51,17.01c11.41-3,20.66-7.45,29.32-14.21l14.65-11.44c-2.92,9.26-7.39,14.57-11.91,23.29,10.23-1.98,17.17-10.34,25.2-17.16,5.05-4.28,8.69-9.08,7.47-16.07l-15.23,9.77c.52-9.23,2.1-15.45,3.27-23.21,2.04-13.53.19-27.59.37-41.26.14-10.46-2.63-18.65-5.5-28.53-8.84-30.44-7.12-63.3,4.31-92.65,4.54-11.67,11.08-22.04,21.31-28.66-19.51,32.26-25.82,68.8-19.94,104.44,4.66-19.41,6.5-36.7,19.69-51.65l-7.29,34.07c-2.73,12.78-3.81,25.26-3.86,38.45l-.24,68.59c12.89-18.51,16.4-45.01,26.58-66.12l-12.25,68.26ZM713.37,619.04c3.72,2.64,8.4,2.73,12.12.54,10.37-6.12,1.7-25.5,22.81-31.19l-3.89,7.3-8.83,30.76c-6.42,2.2-11.71,2.84-18.99,3.78,2.03,13.25,27.03,16.49,39.67,10.53,7.92-3.73,9.62-16.11,6.26-23.66l-7.32-16.42c7.96,5.11,11.62,13,14.75,21.38,2.7,7.24,1.92,14.52-3.42,20.33,18.3-1.52,12.44-26.13,5.01-44.44l-35.66-87.85c-6.54-16.1-13.53-30.92-22.14-45.89l-31.9-55.43,16.5,12.87c-15.93-27.28-27.77-55.79-32.16-87.39l-22.06.28c-10.96,17.11-17.13,26.94-37.29,33.37-4.86,1.55-8.92,4.99-9.42,10.32l-2.66,28.2c-.84,8.92-.64,17.08,1.27,26.68,4.5-5.84,6.18-12.15,7.25-19.27l3.18-21.3,5.05,38c1.74,13.09,7.05,25.18,12.19,38.06-.53-18.06-6.41-41.13,6.56-54.8-5.55,25.97-.4,52.44,15.29,74.83-.97-10.05-4.03-18.37-.99-28.29,7.56,37.42,31.8,62.12,57.47,87.07l1.57-9.86c4.28,8.41,6.81,15.32,8.43,23.79l7.4,38.74c1.44,7.52-1.53,14.04-6.01,18.98ZM210.35,628.75c10.06,3.21,20.06,6.61,31.45,3.42-16.16-6.43-30.8-12.87-41.48-25.97,7.98,2.07,13.44,5.64,19.56,9.32,8.5,5.12,16.93,8.73,26.42,12.14l4,1.99c.91.45,2.86-1.3,4.23-2.47-11.59-10.79-32.22-9.89-47.86-23.26l-22.84-19.52c-2.84-2.42-9.45.48-14.56,1l49.63-43.43c-4.91,9.61-11.22,16.4-16.74,25.8,23.85-11.8,39.61-30.84,54.9-51.86l-4.57,20.12c14.33-15.27,26.06-30.9,38.7-47.7l-17.36-19.48-6.46,13.92c-24.95-26.72-40.1-56.94-50.41-91.65l-5.53,16.18-3.76-1.23-2.05,39.1c-.41,7.84-3.02,15.59-5.58,23.09l14.08-8.74c-5.4,10.44-13.73,19.23-23.79,24.6-4.64,2.47-8.34,4.23-12.41,7.8-13.56,11.92-27.23,23.44-36.86,39.9,14.16-5.91,24.57-14.56,38.89-19.42l-34.72,27.21c-12.73,9.97-23.07,22.6-28.45,38.04-3.29,9.43,2.66,17.99,10.34,23l50.16,32.72,10.55,5.46c1.07.55,4.45-.47,5.11-1.44.79-1.17.56-4.57-.37-5.81l-18.08-24.09c4.6.17,6.96,3.41,9.94,6.42,7.13,7.2,16.28,11.77,25.94,14.85Z"/>
      <path class="st1" d="M370.66,756.92c-.07.46,1.31,2.7,1.99,2.35l3.61-1.88-5.59-.47Z"/>
      <path class="st1" d="M551.04,216.21c-3.27-16.21-4.43-39.42,8.68-44.62,6.48-2.57,13.07-2.94,18.26,2,2.38,2.27,4.23,8.9,3.69,12.7l-8.38,57.97c-3.34,23.1,4.97,51.51,13.59,73.78-22.78-16.44-25.16-57.54-20.81-84.2-8.27-3.2-13.34-9.2-15.03-17.62ZM572.02,196.04l-6.38,3.79c-.03-7.47,7.66-7.89,8.3-14.08.27-2.6-2.46-7-5.08-6.86-14.78.8-11.57,21.68-8.34,38.09.48,2.43,3.49,5.63,6.58,8.15l4.92-29.08Z"/>
      <path class="st1" d="M365.7,363.1c3.35,1.31,7.28.16,10.21-2.4,17.01-14.85,28.49-35.26,31.94-58.46l-15.38,27.01c-7.29,12.8-16.07,23.65-26.78,33.85Z"/>
      <path class="st1" d="M391.28,250.03c-16.44,11.18-37.13,49.26-33.68,68.03,8.54-24.16,20.37-45.04,33.68-68.03Z"/>
      <path class="st1" d="M508.92,168.49c-16.21,12.19-22.79,31.39-20.5,51.69l13.06-34.27c3.27-8.58,9.96-14.5,16.54-20.43-3.22-.04-6.69,1.19-9.1,3.01Z"/>
      <path class="st1" d="M603.81,221.84c.77-5.8.08-11.84-.52-18.28-1.12-12.17,5.62-21.18,6.52-32.39-8.46,5.45-10.11,14.09-12.59,22.85-1.26,9.42-3.03,19.65,6.58,27.82Z"/>
      <path class="st1" d="M606.88,324.14l-9.55-24.18c-5.48-12.35-4.42-23.87,0-37.85-9.42,7.82-9.96,20.09-8.35,31.18,4.11,11.15,7.53,22.37,17.9,30.85Z"/>
      <path class="st1" d="M241.85,339.41c-5.59,19.22-7.2,45.27,3.74,63.98l-3.74-63.98Z"/>
      <path class="st1" d="M386.61,390.42c9.64-.32,15.5-8.24,20.44-15.68,5.53-8.35,10.06-17.2,8.98-28.1l-8.85,17.07c-5.16,9.95-11.74,17.91-20.57,26.71Z"/>
      <path class="st1" d="M585.25,258.01c8.88-13.6,10.83-32.6,3.38-47.82-1.75,16.41-2.85,30.96-3.38,47.82Z"/>
      <path class="st1" d="M629.67,210.26l5.18-.3c1.87-.11,4.12,8.45,10.62,6.74,3.37-.89,5.31-4.37,4.99-8.12-.18-2.11-1.09-5.05-2.21-6.08-1.3-1.2-5.59-1.49-7.2-.74l-9.18,4.3c-.97.45-2.58,3.85-2.19,4.2Z"/>
      <path class="st1" d="M298.26,419.77c-3.54,15.1-2.12,37.28,8.54,47.77l-8.54-47.77Z"/>
      <path class="st1" d="M673.47,209.03c-.44,3.75,1.44,7.6,3.55,8.22,5.68,1.67,11.8-3.92,11.97-7.96.11-2.47-4.59-6.13-10.69-6.04-1.82.02-4.51,3.1-4.83,5.79Z"/>
      <path class="st1" d="M548.12,180.71c5.85-12.79,9.16-24.75,12.29-38.34-10.52,10-14.21,23.93-12.29,38.34Z"/>
      <path class="st1" d="M666.03,249.93c1.52.29,2.54-4.83,1.32-5.31l-14.19-5.62c-1.43-.57-2.79-3.71-3.56-5.77-4.61,5.2-2.69,15.96,6.62,18.03l-3.57-8.15c3.82,3.47,7.26,5.64,13.39,6.81Z"/>
      <path class="st1" d="M624.77,188.17c8.58,1.6,14.09-6.61,28.41-3.65.62.13,2.62-.43,3.03-.5,3.53-.6-16.39-14.53-31.44,4.15Z"/>
      <path class="st1" d="M272.61,395c-1.48,15.52-3.12,35.56,6.55,46.54l-6.55-46.54Z"/>
      <path class="st1" d="M502.75,457.59l2.29-41.66c-7.61,12.89-8.53,27.98-2.29,41.66Z"/>
      <path class="st1" d="M348.82,572.74l-1.74-40.45c-6.32,13.08-5.84,27.58,1.74,40.45Z"/>
      <path class="st1" d="M333.19,304.43c9.34-6.36,17.23-14.08,21.62-25.35-9.76,4.69-16.81,14.4-21.62,25.35Z"/>
      <path class="st1" d="M679.86,187.2c3.92,1,6.73,2.19,10.33,3.79-1.26-3.57-4.48-7.87-7.65-9.11-4.56-1.77-9.08-2.96-13.31,2.62l10.63,2.7Z"/>
      <path class="st1" d="M733.28,632.15c5.32,5.15,16.21,3.2,19.21-4.57,1.79-4.64-1.31-10.81-4.47-14.18-1.82,9.28-4.96,15.99-14.73,18.75Z"/>
    </g>
  </g>
</svg>