<?xml version="1.0" encoding="UTF-8"?>
<svg id="Ebene_1" xmlns="http://www.w3.org/2000/svg" version="1.1" viewBox="0 0 2999.86 800">
  <!-- Generator: Adobe Illustrator 30.4.0, SVG Export Plug-In . SVG Version: 2.1.4 Build 226)  -->
  <defs>
    <style>
      .st0 {
        fill: #e5b969;
        stroke-miterlimit: 10;
        stroke-width: 6px;
      }

      .st0, .st1 {
        stroke: #e5b969;
      }

      .st1 {
        fill: none;
        stroke-linecap: round;
        stroke-linejoin: round;
        stroke-width: 48px;
      }
    </style>
  </defs>
  <path class="st1" d="M910.97,127.61c43.72,87.19,93.79,171.19,149.7,251.11,16.48-83.38,43.97-164.59,81.54-240.83"/>
  <path class="st1" d="M1060.39,394.46v232.98"/>
  <path class="st1" d="M1221.49,201.62c21.57,143.19,43.14,286.38,64.71,429.57,39.58-141.53,79.16-283.07,118.74-424.6"/>
  <path class="st1" d="M1474.96,427.17c-9.19,47.51-13.22,98.31,5.54,142.91s66.26,80.16,113.79,71.06c59.8-11.45,87.35-80.6,97.95-140.55,15.15-85.69,14.09-241.75-70.84-297.67-88.29-58.12-135.4,167.23-146.43,224.25Z"/>
  <path class="st1" d="M1782.12,631.12c-.53-130.66-1.05-261.33-1.58-391.99,72.22,125.3,156.54,243.63,251.4,352.79-11.49-155.37-12.39-311.53-2.69-467.02"/>
  <path class="st1" d="M2121.71,657.99c2.48-149.49,1.38-299.03-3.3-448.47,63,128.14,125.99,256.28,188.99,384.42-2.7-148.89-5.4-297.78-8.1-446.67"/>
  <path class="st1" d="M2607.25,197.81c-44.8,0-153.6,7.68-198.41,7.68.16,129.75.32,259.5.49,389.25,102.91-3.55,111.03-3.55,213.94-7.1"/>
  <path class="st1" d="M2428.89,358.03c40.34-1.02,80.67-2.05,121.01-3.07"/>
  <g id="REPTNW">
    <g>
      <path class="st0" d="M340.17,443.84l-29.6-16.86c-7.58,14.01-12.6,26.59-4.56,39.92.86,1.43.79,5.99-.57,6.53-2.96,1.18-9.47-1.92-12.59-3.11.85,3.61.08,10.92-2.76,10.81-5.26-.19-6.71-.24-10.74,2.69l-10.07-2.87c-1.9,15.67-5.47,31.91-3.52,48.37,3.81,32.09,14.72,62.66,30.47,90.5l9.92,19.88,16.58,24.11c1.91,2.77.88,7.49-1.97,8.36-3.79,1.16-6.52,2.99-9.26,5.48-11.65,2.53-24.52.53-36.19-3.48-4.51-1.55-7.64-7.6-8.28-11.97l-2.96-20.13c-1.9-12.9-17.55-4.08-18.37-18.92-1.68-30.29-8.86-60.12-25.01-86.08-6.35-10.21-10.69-19.37-14.1-32.47l-8.9,34.56c-5.27,20.49-4.93,40.98.13,61.55l10.38,42.1c1.71,6.92,5.36,12.85,10.17,18,3.06,3.28,3.55,7.74,5.26,11.57l10.21,22.83c.87,1.95-.29,6.99-1.75,8.16-1.46,1.17-4.38,1.72-7.95,2.13l-5.74,5.73c-9.83.99-20.51-.11-29.81-3.98-10.07-4.18-15.03-14.85-13.03-25.13,3.14-16.19-14.4-22.04-14.21-35.63.49-36.31-2.5-71.7-10.73-107.01l-5.39-18.26c-1.71,3.94-2.64,5.4-6.03,7.49l-.19,17.16c-.05,4.27-.58,7.38-4.35,11.34l-14.7-25.61c-2.85-1.05-6.52-3.02-7.74-6.5-5-14.22-10.68-28.94-10.54-44.48.22-24.36,8.69-47.1,20.72-68.11,3.14-42.75.47-84.55-5.43-127.06-5.01-36.13-7.81-75.3,10.25-106.61,19.21-33.32,52.42-33.03,88.45-30.62,7.64-2.22,15.02-3.3,23-3.68,12.6,1.91,24.05,3.94,36.58,6.96,43.68,10.55,87.1,18.72,132.1,22.02,14.99,1.1,28.92-1.97,43.57-3.69,12.87-1.51,25.81-2.19,37.79-6.89,14.15-5.55,27.46-11.59,42.76-13.48,16.49-2.03,32.52-4.73,48.48-8.75l-7.34-13.55c-1.38-2.55.57-8.3,3.09-9.94,20.48-13.39,43.11-18.17,58.38,1.45,1.02,1.31,3.82,4.32,5.31,3.86s3.91-2.41,6.11-4.29l-12.73-5.33c-4.73-1.98-9.07-9.24-12.41-13.66-11.64-15.39-11.59-33.62-2.18-36.15,3.46-.93,8.44,1.01,10.67,4.67,7.97,13.09,23.09,23.6,39.12,20.15,7.57-1.63,14.22-7.79,22.66-5.21,7.17,2.2,14.97,2.69,22.18.29,9.22-3.07,16.75,2.16,25.35,4.15,12.67,2.92,25.56-4.79,33.81-13.98,3.65-4.06,6.92-7.8,11.89-10.25,1.83-.91,6.47,1.02,7.46,2.72,6.94,11.9-8.58,36.96-24.09,48.75,7.28.11,13.8-2.37,20.45-5.21,18.12-7.76,39.33-6.46,43.19,7.72,1.4,5.14-.71,10.51-4.25,14.54l-9.59,10.92c-9.48,10.78-21.22,18.89-36,16.83l-14-1.96c.03,2.11.16,5.56.49,6.73l10.05,4.79-11.27,1.74-1.69,19.36c-5.96,21.51-18.75,56-10.18,71.75,3.24,5.95,4.8,12.91,4.8,19.43,0,10.51-6.09,16.04-13.52,21.56-5.74,4.27-10.75,8.87-18.69,9.56-9.45.82-18.5-.45-28.22-3.13-3.39,14.97-10.08,27.68-20.32,38.67-11.93,12.81-2.06,54.56-32.95,82.08-11.66,10.38-14.81,25.71-24.49,34.1-6.55,5.67-11.61,10.98-14.19,19.48-3.81,12.54-6.14,25.25-7.13,38.51-.59,7.94-2.31,15.5-5.62,22.67-12.74,27.62-8.91,64.76,4.65,91.19l6.01,14.96,9.7,20.42c.52,1.1.26,4.41-.38,5.33-.79,1.15-4.37,1.07-5.72,1.53-11.08,3.74-20.94,4.22-32.29.79-19.31-5.83-18.11-19.32-17.6-41.19-.84-4.49-7.32-8.89-9.6-13.03-7.39-13.43,7.99-46.17,7.14-70.36l-8.27,13.43c-1.98,19.99-2.98,39.71-1.83,59.82,1.04,18.22,7.54,34.03,17.51,48.82,9.18,13.61,12.92,28.67,3.97,27.74-4.61-.48-6.92,2.45-10.34,3.97-14.07,6.25-44.25-4.76-44.33-19.45l-.16-28.52c-7.51-6.77-10.97-15.44-8.26-25.09,5.96-21.28,9.26-42.44,9.39-64.88.04-6.92-12.91-19.7-7.19-42.84,2.6-10.5,1.59-20.53-.69-31.14l-7.88-36.6c-12.58-10.32-28.82-12.59-44.51-9.74-39.74,7.22-75.71,12.74-113.22-5.84ZM659.99,112.5c4.47-3.77,5.97-10.53,5.13-16.2-19.18-1.32-34.57-10.36-43.86-28.32-3.88,4.34-3.68,9.62-1.97,14.49,7.58,21.63,32.97,36.56,40.7,30.03ZM748.94,113.5c7.78,6.51,41.22-26.35,36.88-44.94l-16.44,16.06c-6.59,6.43-16.39,7.78-25.54,10.44-1.91,5.7-.6,13.66,5.1,18.43ZM686.76,277.59c-1.24,4.7-2.1,13.27,1.86,16.42,3.46,2.76,10.78,3.71,15.27,3.64l32.7-.49c6.73-.1,13.77-4.85,15.49-11.24,2.09-7.75-.13-15.33-3.67-22.22-13.56-26.38-22.64-48.62-7.42-75.97,5.86-10.54,4.14-29.16,21.49-29.68-5.77,3.16-10.35,6.55-11.14,11.66,4.88-3.98,7.91-6.04,13.61-8.98-4.03-15.08-14.07-24.7-15.92-42.18-7.39-5.24-13.54-12.51-9.7-23.41l-12.82-4.38c-8.87-3.03-19.18,6.32-31.63,1.55-9.43-3.61-18.89-1.9-26.45,4.23,2.96,7.42,1.08,16.77-6.53,19.75-5.34,2.09-10.49,4.48-14.77,8.11-12.19,10.33-17.45-8.58-32.94-11.28-9.58-1.67-18.51.99-26.55,5.44l15.54-1.43c7.14-.66,15.64,1.29,20.28,6.72l10.69,12.51c4.07,4.76,6.44,8.69,8.62,15.32,7.07-11.45,2.85-21.58,7.97-24.55,4.53,10.32.15,20.17-7.67,27.15,4.19,6.83,5.09,13.57,3.58,20.95-7.3,35.5,13.88,69.82,35.94,96.4,3.16-7.63,4.72-12.71,10.46-17.96l-6.3,23.91ZM823.39,117.38c-6.24-8.54-16.85-6.5-24.47-4.18,9.47.41,16.26,1.81,24.47,4.18ZM759.87,138.03c7.47-6.05,12.65-4.01,21.27-12.33l10-9.65c-9.7,3.86-18.24,7.65-28.25,3.6-1.82-.74-6.99,1.91-6.51,3.88l3.49,14.5ZM598.25,381.06c12.64-18.03,9.5-47.73,1.47-69.69-7.1-19.42-15.56-37.44-24.15-56.25-19.31-42.27-20.73-69.08,13.31-103.54l-3.75-4.8c-28.2,8.9-57.84,6.92-82.89,18.33-12.02,5.47-23.83,8.93-37.05,10.38l-39.92,4.38c-11.2,1.23-21.89.61-33.36-.59-47.75-4.99-94-13.95-140.51-25.58-17.48-4.37-33.65-.84-48.95,8.21-14.45,8.55-28.31,16.96-43.84,23.72-16.64,7.24-26.09,22.13-27.19,40.85-1.9,32.41,2.01,64.61,11.21,95.86l17.44,59.23c6.52,22.12,5.54,45.43,1.72,67.98-1.53,9.05-5.53,16.8-10.47,24.17-6.33,9.43-7.72,21.11-3.98,31.99l7.83,22.8c10.43,37.36,14.13,75.54,13.02,114.39-.38,13.38,12.32,17.63,14.9,31.99,12.12,1.31,30.74.46,31.62-4.64.69-4-9.32-10.72-12.49-23.97l-12.55-52.56c-4.85-20.3-2.88-40.24,2.15-60.43l13.76-55.2,10.54-41.78c3.54-14.04,10.23-26.01,18.64-37.74l19.73-27.52c5.46-7.61,16.3-6.81,26.2-6.57-2.32-8.35-7.29-15.61-12.61-23.08-18.22-25.6-29.58-56.18-27.2-87.59,4.45,29.62,10.53,56.87,27.78,80.63,7.96,10.96,14.85,21.53,19.09,34.58,15.11,25.83,50.5,37.54,79.05,42.23-30.02,1.3-69.58-13.63-83.14-41-24.69-4.24-27.72,3.4-39.7,23.43,21.11-3.61,37.79,6.09,55.6,17.26l34.58,21.69c36.9,23.14,77.35,17.56,118.58,10.14,15.33-2.76,30.29-.86,43.71,6.79l-1.92-23.76c-20.47-29.68-25.18-52.16-13.06-85.94,5.87-16.35,8.66-32.16,8.18-49.97,3.66,10.47,3.5,22,.33,32.97l-7.99,27.62c-7.59,26.23-.91,46.43,14.24,68l5.75-12.57c-.02,11.82-3.21,22.63-.68,33.52l12.51,53.82c6.58,28.32-8.81,42.43,3.39,64.49,3.06,5.53,4.53,12.19,4.14,18.79-1.23,21.06-4.95,40.98-10.32,61.23-3.4,12.83,9.41,13.9,9.03,25.32l-.41,12.53c11.11-.07,20.56-1.55,31.47-5.2-8.57-17-12.5-34.76-12.89-54.28l2.24-48.51,4.16-8.55c5.42-7.83,8.03-16.49,6.93-26.05-3.48-30.27,3.55-66.23,15.76-94.52,6.65-15.4-.28-29.63,18.34-45.88l11.59-10.11,1.02-1.45ZM598.13,383.52c-8.46,17.05-18.55,17.22-21.1,31.39l-4.49,24.98-10,37.13,21.36-1.39c18.97-2.56,34.45-14.42,42.68-31.53,4.88-10.14,11.82-17.3,19.54-25.33,11.15-11.59,14.69-28.01,16.6-43.19l-8.6,13.55c2.68-15.72,7.25-30.69,16.71-42.63,10.4-13.13,19.63-25.82,20.78-43.45l-13.69-4.79c-8.18-2.86-14.67-8.72-19.61-16.23-14.47-22.02-20.5-48.24-19.33-74.97l3.75-31.89c.68-5.76.2-11.42-3.52-15.6-20.55,11.61-31.48,8.58-49.21-7.04l-13.6,20.1c-11.03,16.31-12.99,35.4-7.2,54.25,12.8,41.66,42.05,79.29,41.84,123.34-1.06,12.24-4.47,23.6-12.34,32.09l-.6,1.2ZM132.14,348.81c-.97-24.46-2.19-47.53-5.69-71.45-2.09-14.29-2.81-27.75-2.93-42.17-.23-27.89,10.45-48.35,36.67-58.12,4.74-2,9.93-3.75,14.16-6.24l26.39-15.5c-27.18-.78-50.5.56-66.06,24.44-10.5,16.12-13.94,34.87-13.75,54.17.17,16.97.88,32.95,2.94,49.82,2.45,20.05,5.35,39.25,5.68,59.43l1.1,65.97,1.68-21.84c.97-12.68.34-25.2-.19-38.5ZM757.06,195.55c-4.36-2.11-6.85-3.68-9.05-6.13,6.64.3,11,.36,13.4-3.78-5.06,1.28-7.91.83-11.24-1.23-17.88,17.42-15.99,38.29-5.5,60.27,2.6-17.5,6.89-33.1,12.39-49.13ZM679.66,293.92l1.01-17.55c-16.94-16.23-28.71-36.23-36.5-58.49.15,21.14,5.81,40.38,15.22,57.95,5.1,8.1,11.4,15.18,20.27,18.08ZM732.63,302.32l-24.96.89c8,2.71,16.7,4.03,24.96-.89ZM151.02,460.88c10.17-31.58,7.65-64.16-2.75-94.12l-8.8-26.37-1.18,72.87c8.5,14.48,10.37,30.03,12.73,47.62ZM272.01,474.37c-.9-4.77-1.12-8.96-.55-12.86,3.88,7.06,8.19,11.01,13.89,11.94l1.84-19.05c2.48,4.79,4.15,7.95,9.28,9.98-3.65-15.3-.11-28.31,8.41-41.42-17.03-12.13-49.67-30.96-63.76-20.17-8.23,6.3-12.73,18.33-15.92,28.27-1.61,5.02,2.13,12.14,4.71,15.98l12.54,18.69v-18.37c5.33,15.35,13.93,26.67,29.55,27.01ZM132.34,512.26l5.47,7.28c1.01-8.86.69-15.37-.33-23.67-.91-7.42,2.74-14.4,4.13-21.67,3.99-20.83-3.19-55.61-10.96-58.04-5.15-1.61-14.15,22.04-17.85,34.49-5.69,19.17-5.72,38.46.35,57.18l2.63-11.18c4.05,12.9,7.95,23.48,13.89,34.43l2.66-18.82ZM259.16,533.81c-2.76-18.9,1.18-36.54,3.08-54.11l-14.2-8.88c-.26,2.09-1.34,6.74-2.55,9.01-.64,1.21-4.4-.89-4.88-2.37-1.83-5.63-4.66-11.26-7.78-16.39l-11.18-18.42-11.08,44.38c1.74,17.39,7.25,32.88,16.79,47.23,16.17,28.01,25.16,58.27,26.04,91.11,11.94,1.81,18.64,9.8,18.2,22.25,7.43,2,16.33,2.15,23.28-2.54,2.98-2.01,2.43-8.16.47-11.64-17.44-30.86-30.88-63.37-36.18-99.64ZM565.65,643.24l-.32,10.68c11.77-1.19,20.81-4.12,30.16-8.98-16.32-29.99-22.61-74.37-7.66-104.19,3.55-7.11,5.12-14.56,5.72-22.52,1.03-13.8,3.49-26.73,7.51-39.99-13.34,5.41-26.12,6.44-39.93,6l-4.14,37.3c-.66,5.96.77,12.27,2.69,17.77,3.14,7.47,4.76,15.62,3.18,23.72l-9,45.85c-1.39,7.09-.19,13.27,5.47,17.8,5.14,4.11,6.55,9.36,6.33,16.56ZM296.5,650.42c.98,7.25,6.49,18.56,10.65,20.47,2.49,1.14-3.84-13.37-10.65-20.47ZM605.58,669.54c-3.19-7.85-5.34-13.67-10.94-19.27l5.34,16.5c.63,1.96,3.57,3.59,5.6,2.78ZM554.87,699.23l-10.26-21.78c.94,10.62,6.21,26.32,10.26,21.78ZM216.43,700.48l-10.55-20.51c3,25.92,13.77,26.76,10.55,20.51Z"/>
      <path class="st0" d="M275.88,232.69c9.17,19.13.38,36.26-7.02,35.79-1.7-.11-4.36-3.29-4.51-5.09l-1.34-16.77c-.79-9.91-19.37-20.59-15.66-34.69,3.26-12.41,14.96-28.61,22.2-27.32,5.46.97,6.63,10.96,3.73,19.76-3.31,10.05-1.89,18.95,2.6,28.32Z"/>
      <path class="st0" d="M449.76,253.38c-5.15,3.25-16.77-15.52-.7-34.19l15.98-18.56c1.33-1.54,6.06-2.55,8.01-2.04,6.78,1.78,3.25,16.39-7.15,27.24-11.95,12.46-6.9,21.72-16.14,27.55Z"/>
      <path class="st0" d="M636.17,403.01l6.69-24.45c5.28-19.32,3.14-39.83-2.77-58.95l-13.59-44.02c-10.1-32.71-8.96-67.82,6.04-97.74-17.3,54.5-5.73,84.09,9.19,132.34,9.53,30.81,13.51,66.48-5.56,92.82Z"/>
      <path class="st0" d="M672.82,181.87c-1.96,2.57-5.24,4.97-8.92,4.73-2.96-.19-6.97-3.72-7.61-6.9l-1.93-9.69-2.78-3.09c-.61-.68,2.01-3.05,2.9-3.4,5.65-2.19,12.87.59,17.63,5.42-1.64-7.25-8.67-8.7-14.53-11.2,10.35-1.79,17.78,6.43,20.09,15.66,1.95,7.79,5.08,14.48,9.76,20.91,9.45,12.96,15.06,28.62,13.71,44.86-4.18-15.85-6.44-33.14-17.53-46.22-2.89-3.41-7.52-6.1-10.8-11.08Z"/>
      <path class="st0" d="M742.39,266.69c-.56-4.38-12.96,7.02-30.65.43-4.67-1.74-9.2-2.13-13.95,1.02l6.63,6.38c4.06,3.91,7.32,8.99,3.33,15.26-8.88-8.94-17.49-19.11-9.95-24.73,8.36-6.23,18.48,5.01,37.23-1.42,1.88-.65,6.49-.31,7.95.81,6.62,5.07,3.09,22.03-6.08,23.8.4-9.06,6.38-14.54,5.49-21.55Z"/>
      <path class="st0" d="M720.53,141.89l-.21,15.49c-2.92-8.19-3.18-17.27-1.1-25.81,1.57-6.45,7.16-10.36,13.33-9.43-7.82,4.7-11.9,11.18-12.02,19.75Z"/>
      <path class="st0" d="M702.73,129.88c4.89,7.66,6.48,16.89,4.29,25.09.03-15.36-6.13-27.45-21.41-32.77,6.47-1.44,13.1,1.39,17.12,7.69Z"/>
    </g>
  </g>
</svg>