<?xml version="1.0" encoding="UTF-8"?>
<svg id="Ebene_1" xmlns="http://www.w3.org/2000/svg" version="1.1" viewBox="0 0 2999.86 800">
  <!-- Generator: Adobe Illustrator 30.4.0, SVG Export Plug-In . SVG Version: 2.1.4 Build 226)  -->
  <defs>
    <style>
      .st0 {
        fill: #e5b969;
        stroke-miterlimit: 10;
        stroke-width: 9px;
      }

      .st0, .st1 {
        stroke: #e5b969;
      }

      .st1 {
        fill: none;
        stroke-linecap: round;
        stroke-linejoin: round;
        stroke-width: 48px;
      }
    </style>
  </defs>
  <path class="st1" d="M1242.68,593.72c-2.47-156.94-4.95-313.89-7.42-470.83,43.13,84.78,86.25,169.57,129.38,254.35,38.15-85.46,66.35-175.37,83.85-267.31,41.38,186.28,59.45,377.73,53.67,568.46"/>
  <path class="st1" d="M959.41,113.83c48.79-1.76,97.66-1.07,146.37,2.07-21.91,196.97-64.77,391.61-127.62,579.57,57.54-.59,115.09-.33,172.63.78"/>
  <path class="st1" d="M1883.36,220.51c-2.85,151.59-1.14,303.27,5.12,454.77-23.77-135.9-25.15-275.69-4.05-412.03,8.17-52.83,31.43-116.48,84.58-122.16,22.24-2.37,43.71,13.15,53.39,33.31,9.68,20.16,9.34,43.82,4.79,65.71-13.5,64.94-64.77,120.59-128.4,139.35,83.1,109.88,160.38,224.16,231.4,342.21"/>
  <path class="st1" d="M1628.11,219.35c-28.08,137.74-55.25,285.74.4,414.82,16.82,39.01,42.3,76.21,79.69,96.39,14.78,7.98,34.09,1.03,45.24-11.55,11.14-12.57,15.98-29.38,20.18-45.64,32.83-127.32,46.25-266.47,10.73-394.92-21.82-78.92-126.63-204.3-156.23-59.1Z"/>
  <path class="st1" d="M2826.38,153.07c-59.55,0-204.17,10.21-263.73,10.21.21,172.47.43,344.93.65,517.4,136.79-4.72,147.58-4.72,284.37-9.44"/>
  <path class="st1" d="M2589.31,366.04c53.62-1.36,107.23-2.72,160.85-4.08"/>
  <path class="st1" d="M2415.55,212.92c-7.3-33.17-31.51-62.15-62.85-75.22-8-3.34-16.84-5.71-25.3-3.81-14.1,3.16-22.93,16.86-29.79,29.57-69.93,129.5-96.29,282.05-73.87,427.51,5.23,33.95,14.14,69.54,38.79,93.47,24.65,23.92,69.61,29.65,91.77,3.41,8.88-10.51,12.83-24.23,15.94-37.63,9.81-42.34,13.43-86.1,10.72-129.48"/>
  <path class="st1" d="M2306.16,491.95c28.37-.26,56.74-.51,85.11-.77,7.32-.07,15.17.03,21.15,4.24,6.73,4.74,9.27,13.36,11.36,21.31,12.37,46.98,24.73,93.96,37.1,140.94"/>
  <g id="rb0jki">
    <g>
      <path class="st0" d="M452.91,579.52c-2.61,20.3-11.31,38.31-21.07,56.45,5.51,32.54,4.49,74.02-24.17,92.06-16.48,10.37-36.41,11.29-54.79,4.78-34.2-12.11-62.35-43.96-83.03-73.54-60.97-4.83-92.57-88.85-97.8-142.88-.54-5.54-1.57-8.95-4.02-13.78-5.86-11.54-7.97-24.9-8.6-38.21-1.42-30.09-.58-59.76,3.52-89.61,3.45-25.09,17.39-46.28,38.18-58.91-6.9-52.83,4.88-103.29,46.29-137.07,41.88-36.12,87.12-69.84,139.61-88.45,44.22-14.39,85.3-13.66,123.04,14,44.82-9.82,100.03-16.19,141.36.02,16.41,6.44,28.9,17.5,37.33,32.9,67.79,11.54,141.04,51.98,127.79,128.18-15.82,38.13-61.02,41.86-99.66,38.39-10.26,37.48-36.92,65.66-72.27,80.48.63,25.74-.65,49-21.6,64.33l-31.75,23.23c-20.75,15.18-43.79,28.04-69.68,24.67-13.3,30.79-34.63,57.3-62.73,74.95-3.86,2.42-5.35,3.4-5.94,8.02ZM326.84,263.9c-6.52-.43-10.44-6.68-9.74-12.03.76-5.82,5.49-10.02,12.04-9.7,72.99,3.52,145.24,42.76,193.03,97.19,29.13,33.17,46.86,77.25,44.83,122.55,16.71-11.64,32.42-22.66,47.77-35.31,6.11-5.04,6.02-15.37,7.87-22.53.84-21.09-1.16-40.71-6.02-61.61-16.82-72.25-56.95-160.75-110.14-212.44-71.7-69.68-180.65,9.62-242.66,63.78-35.19,27.65-45.37,68.1-41.67,112.11,46.86-14.02,100.13-7.13,148.07,2.89,62.83,17.28,115.62,60.88,144.51,119.11,7.58,15.27,11.85,29.89,12.04,47.01,5.95.19,11.09-.2,16.96-1.55,7.59-56.54-18.47-105.08-60.2-141.94-44.19-39.03-97.5-63.61-156.69-67.52ZM669.86,148.14c-6.83-11.5-15.66-19.88-28.32-24.29-34.04-11.85-75.14-7.65-111.19-1.28,50.11,56.74,83.42,127.66,103.42,198.77l8.57,40.13c80.07-38.56,66.85-147.11,27.53-213.34ZM794.9,258.88c5.81-26.54-7.53-50.91-27.67-66.92-19.04-14.61-40.63-23.34-65.07-29.34,15.95,38.28,24.18,77.54,19.34,119.31,23.93,3.48,68.67-1.4,73.41-23.05ZM181,452.42c-.27,9.82,1.14,20.29,2.42,29.28,18.72-15.77,44.35-21.61,68.9-22.72,32.8-1.48,64.66,2.68,96.15,11.56,42.07,13.15,83.54,38.87,101.53,80.96,19.92-14.8,36.03-32.72,47.3-53.87,8.42-15.81,9.31-31.58,2.9-48.2-9.44-24.48-24.27-45.59-42.67-64.46-32.48-33.31-73.79-54.02-119.95-60.15-37.06-4.92-77.71-9.58-112.48,3.42-21.81,8.16-36.69,25.9-40.36,49.08-2.09,13.2-2.7,26.26-3.15,40.17,25.8-19.92,60.84-25.09,92.07-21.59,58.06,6.51,127.24,28.24,169.53,69.24,5.31,5.15,5.91,12.96.57,17.56-5.65,4.87-11.77,2.64-17-2.55-36.5-36.2-104.47-56.86-155.61-62.38-33.19-3.58-74.07,3.68-90.15,34.64ZM266.84,636.72c9.31-23,36.39-31.64,60.7-35.63,30.96-5.07,61.69-.22,88.89,16.83,9.28-18.98,20.61-41.51,12.12-61.04-16.92-32.93-51.98-55.03-87.3-65.35-39.96-11.66-104.15-18.81-138.81,3.34-6.96,4.99-9.91,10.93-8.85,19.15,3.67,28.32,11.55,55.47,25.49,81.39,30.79-54.5,88.98-58.23,145.68-47.68,6.97,1.3,11.66,6.53,10.66,12.85-1.12,7.13-7.43,10.48-14.61,9-51.33-10.6-106.99-6.36-126.92,46.76,8.89,10.45,19.98,17.96,32.96,20.37ZM373.83,714.8c18.24,1.3,31.71-9.37,35.92-26.15,4-15.93,3.25-32.04.25-48.53-30.88-22.98-73.95-23.98-108.4-8.76-6.6,2.92-11.76,7.3-14.57,13.95,19.03,28.29,52.98,67.08,86.8,69.49Z"/>
      <path class="st0" d="M581.48,337.04c2.77,7.1-.2,13.29-5.88,15.42-6.37,2.39-12.2-.91-14.83-7.68-14.44-37.32-35.46-71.06-64.46-98.85-21.46-20.56-45.55-37.15-73.13-47.69-6.73-2.57-10.73-7.1-8.96-14.08,1.54-6.04,8.22-9.77,15.11-7.23,30.66,11.31,57.59,29.14,81.39,51.85,31.7,30.25,54.62,66.95,70.76,108.26Z"/>
      <path class="st0" d="M677.74,270.78c.22,7.73-3.97,12.91-10.04,13.37-7.47.56-12.15-5.09-12.17-12.6-.07-33.75-8.73-68.29-29.89-94.54-4.14-5.14-3.37-12.08,1.83-15.88,4.68-3.42,11.39-2.59,15.65,2.61,24.43,29.81,33.48,67.63,34.61,107.04Z"/>
    </g>
  </g>
</svg>