<?xml version="1.0" encoding="UTF-8" standalone="no"?>
<!DOCTYPE svg PUBLIC "-//W3C//DTD SVG 1.1//EN" "http://www.w3.org/Graphics/SVG/1.1/DTD/svg11.dtd">
<svg width="100%" height="100%" viewBox="0 0 7486 1741" version="1.1" xmlns="http://www.w3.org/2000/svg" xmlns:xlink="http://www.w3.org/1999/xlink" xml:space="preserve" xmlns:serif="http://www.serif.com/" style="fill-rule:evenodd;clip-rule:evenodd;stroke-linejoin:round;stroke-miterlimit:2;">
    <g>
        <path d="M3652.631,516.659C3652.631,545.011 3629.609,568.024 3601.167,568.024C3572.779,568.024 3549.757,545.011 3549.757,516.659C3549.757,488.198 3572.779,465.185 3601.167,465.185C3629.609,465.185 3652.631,488.198 3652.631,516.659Z" style="fill:rgb(0,140,68);fill-rule:nonzero;"/>
        <path d="M1570.117,9.999C1570.117,9.999 1567.84,10.891 1563.586,12.73C1564.835,12.332 1566.083,12.017 1567.332,11.66C1569.006,10.672 1570.117,9.999 1570.117,9.999Z" style="fill:rgb(0,140,68);fill-rule:nonzero;"/>
        <path d="M2019.743,1447.519C1964.615,1447.519 1911.834,1438.325 1861.302,1419.964C1810.798,1401.575 1766.687,1374.02 1729.066,1337.284L1757.549,1298.476C1760.815,1294.084 1767.058,1293.165 1771.407,1296.555C1771.407,1296.555 1842.011,1351.062 1883.337,1367.611C1924.703,1384.175 1970.131,1392.381 2019.743,1392.381C2082.184,1392.381 2132.428,1379.276 2170.57,1353.12C2208.699,1326.964 2227.756,1290.434 2227.756,1243.598C2227.756,1221.573 2222.927,1202.951 2213.309,1187.787C2203.609,1172.61 2189.175,1159.793 2169.898,1149.199C2150.593,1138.646 2126.693,1129.232 2098.251,1120.985C2069.767,1112.71 2036.702,1103.968 1999.067,1094.788C1958.647,1085.621 1923.537,1076.413 1893.695,1067.233C1863.813,1058.079 1839.281,1047.033 1819.935,1034.161C1800.7,1021.275 1786.211,1005.658 1776.566,987.311C1766.92,968.963 1762.118,945.497 1762.118,917.05C1762.118,881.206 1768.992,850.014 1782.754,823.323C1796.529,796.674 1815.6,774.635 1839.953,757.234C1864.266,739.779 1892.296,726.673 1923.976,717.918C1955.684,709.218 1989.422,704.84 2025.273,704.84C2081.238,704.84 2130.823,714.254 2174.014,733.096C2217.178,751.937 2250.683,776.034 2274.583,805.429L2243.192,835.66C2239.24,839.516 2232.64,839.667 2228.525,836.017C2228.525,836.017 2181.149,794.382 2143.02,780.645C2104.891,766.84 2064.238,759.924 2021.088,759.924C1994.443,759.924 1969.459,762.71 1946.052,768.226C1922.59,773.743 1902.175,782.443 1884.709,794.382C1867.27,806.362 1853.509,821.704 1843.356,840.559C1833.258,859.4 1828.25,881.645 1828.25,907.403C1828.25,928.536 1831.694,945.497 1838.554,958.383C1845.483,971.255 1856.5,982.247 1871.62,991.441C1886.78,1000.649 1906.291,1008.677 1930.164,1015.525C1954.023,1022.4 1982.507,1030.016 2015.572,1038.291C2060.561,1049.324 2100.542,1059.863 2135.446,1070.005C2170.337,1080.091 2199.492,1092.483 2222.927,1107.152C2246.333,1121.877 2264.224,1139.332 2276.669,1159.573C2289.045,1179.746 2295.26,1205.504 2295.26,1236.696C2295.26,1300.987 2270.207,1352.228 2220.182,1390.35C2170.062,1428.458 2103.272,1447.519 2019.743,1447.519Z" style="fill:rgb(0,140,68);fill-rule:nonzero;"/>
        <path d="M3111.134,1433.755C3105.605,1433.755 3099.733,1429.487 3097.99,1424.245L2900.378,828.661C2898.676,823.447 2895.85,823.447 2894.107,828.661L2696.495,1424.245C2694.738,1429.487 2688.866,1433.755 2683.406,1433.755L2631.721,1433.755C2626.192,1433.755 2620.237,1429.487 2618.399,1424.328L2371.572,726.632C2369.733,721.472 2372.738,717.246 2378.212,717.246L2431.282,717.246C2436.757,717.246 2442.725,721.472 2444.564,726.673L2657.008,1336.117C2658.819,1341.318 2661.686,1341.291 2663.347,1336.063L2859.738,726.769C2861.44,721.514 2867.326,717.246 2872.8,717.246L2921.726,717.246C2927.201,717.246 2933.087,721.514 2934.747,726.769L3131.138,1336.063C3132.84,1341.291 3135.68,1341.318 3137.505,1336.117L3349.963,726.673C3351.801,721.472 3357.769,717.246 3363.244,717.246L3414.914,717.246C3420.389,717.246 3423.393,721.472 3421.555,726.632L3174.741,1424.328C3172.903,1429.487 3166.88,1433.755 3161.419,1433.755L3111.134,1433.755Z" style="fill:rgb(0,140,68);fill-rule:nonzero;"/>
        <path d="M3576.731,1433.755C3571.243,1433.755 3566.756,1429.254 3566.756,1423.751L3566.756,727.222C3566.756,721.747 3571.243,717.246 3576.731,717.246L3625.671,717.246C3631.132,717.246 3635.632,721.747 3635.632,727.222L3635.632,1423.751C3635.632,1429.254 3631.132,1433.755 3625.671,1433.755L3576.731,1433.755Z" style="fill:rgb(0,140,68);fill-rule:nonzero;"/>
        <path d="M4076.45,1447.519C4021.322,1447.519 3968.526,1438.325 3918.008,1419.964C3867.463,1401.575 3823.407,1374.02 3785.773,1337.284L3814.297,1298.476C3817.535,1294.084 3823.777,1293.165 3828.086,1296.555C3828.086,1296.555 3898.731,1351.062 3940.043,1367.611C3981.41,1384.175 4026.837,1392.381 4076.45,1392.381C4138.849,1392.381 4189.189,1379.276 4227.263,1353.12C4265.405,1326.964 4284.476,1290.434 4284.476,1243.598C4284.476,1221.573 4279.633,1202.951 4269.988,1187.787C4260.342,1172.61 4245.895,1159.793 4226.604,1149.199C4207.314,1138.646 4183.413,1129.232 4154.957,1120.985C4126.474,1112.71 4093.408,1103.968 4055.773,1094.788C4015.326,1085.621 3980.23,1076.413 3950.36,1067.233C3920.533,1058.079 3895.987,1047.033 3876.697,1034.161C3857.365,1021.275 3842.917,1005.658 3833.272,987.311C3823.668,968.963 3818.825,945.497 3818.825,917.05C3818.825,881.206 3825.685,850.014 3839.515,823.323C3853.235,796.674 3872.306,774.635 3896.66,757.234C3920.985,739.779 3949.016,726.673 3980.682,717.918C4012.403,709.218 4046.142,704.84 4081.938,704.84C4137.971,704.84 4187.57,714.254 4230.72,733.096C4273.884,751.937 4307.403,776.034 4331.303,805.429L4299.898,835.66C4295.96,839.516 4289.32,839.667 4285.244,836.017C4285.244,836.017 4237.855,794.382 4199.74,780.645C4161.597,766.84 4120.958,759.924 4077.808,759.924C4051.15,759.924 4026.138,762.71 4002.717,768.226C3979.283,773.743 3958.895,782.443 3941.429,794.382C3923.976,806.362 3910.174,821.704 3900.117,840.559C3889.978,859.4 3884.942,881.645 3884.942,907.403C3884.942,928.536 3888.414,945.497 3895.274,958.383C3902.134,971.255 3913.22,982.247 3928.339,991.441C3943.5,1000.649 3963.011,1008.677 3986.884,1015.525C4010.743,1022.4 4039.227,1030.016 4072.279,1038.291C4117.281,1049.324 4157.248,1059.863 4192.152,1070.005C4227.002,1080.091 4256.254,1092.483 4279.633,1107.152C4303.04,1121.877 4320.945,1139.332 4333.362,1159.573C4345.737,1179.746 4351.98,1205.504 4351.98,1236.696C4351.98,1300.987 4326.899,1352.228 4276.848,1390.35C4226.823,1428.458 4159.992,1447.519 4076.45,1447.519Z" style="fill:rgb(0,140,68);fill-rule:nonzero;"/>
        <path d="M4739.083,1447.519C4683.955,1447.519 4631.146,1438.325 4580.628,1419.964C4530.123,1401.575 4486.027,1374.02 4448.392,1337.284L4476.916,1298.476C4480.182,1294.084 4486.384,1293.165 4490.733,1296.555C4490.733,1296.555 4561.337,1351.062 4602.649,1367.611C4644.015,1384.175 4689.457,1392.381 4739.083,1392.381C4801.524,1392.381 4851.808,1379.276 4889.882,1353.12C4928.024,1326.964 4947.095,1290.434 4947.095,1243.598C4947.095,1221.573 4942.239,1202.951 4932.607,1187.787C4922.962,1172.61 4908.473,1159.793 4889.223,1149.199C4869.933,1138.646 4846.018,1129.232 4817.59,1120.985C4789.093,1112.71 4756.027,1103.968 4718.393,1094.788C4677.973,1085.621 4642.849,1076.413 4613.021,1067.233C4583.152,1058.079 4558.593,1047.033 4539.316,1034.161C4520.025,1021.275 4505.537,1005.658 4495.932,987.311C4486.246,968.963 4481.444,945.497 4481.444,917.05C4481.444,881.206 4488.304,850.014 4502.079,823.323C4515.854,796.674 4534.967,774.635 4559.279,757.234C4583.591,739.779 4611.622,726.673 4643.302,717.918C4675.023,709.218 4708.747,704.84 4744.585,704.84C4800.591,704.84 4850.189,714.254 4893.353,733.096C4936.504,751.937 4970.009,776.034 4993.882,805.429L4962.531,835.66C4958.566,839.516 4951.98,839.667 4947.85,836.017C4947.85,836.017 4900.433,794.382 4862.345,780.645C4824.217,766.84 4783.577,759.924 4740.427,759.924C4713.782,759.924 4688.784,762.71 4665.364,768.226C4641.957,773.743 4621.5,782.443 4604.048,794.382C4586.596,806.362 4572.821,821.704 4562.737,840.559C4552.597,859.4 4547.575,881.645 4547.575,907.403C4547.575,928.536 4551.019,945.497 4557.893,958.383C4564.795,971.255 4575.784,982.247 4590.946,991.441C4606.106,1000.649 4625.63,1008.677 4649.531,1015.525C4673.404,1022.4 4701.846,1030.016 4734.898,1038.291C4779.901,1049.324 4819.854,1059.863 4854.772,1070.005C4889.676,1080.091 4918.818,1092.483 4942.239,1107.152C4965.659,1121.877 4983.605,1139.332 4995.981,1159.573C5008.37,1179.746 5014.613,1205.504 5014.613,1236.696C5014.613,1300.987 4989.573,1352.228 4939.508,1390.35C4889.457,1428.458 4822.653,1447.519 4739.083,1447.519Z" style="fill:rgb(0,140,68);fill-rule:nonzero;"/>
        <path d="M5476.423,1433.755C5470.907,1433.755 5464.857,1429.529 5462.867,1424.424L5194.499,722.447C5192.564,717.342 5195.391,713.129 5200.906,713.129L5337.985,713.129C5343.473,713.129 5349.428,717.342 5351.225,722.543L5549.949,1296.198C5551.747,1301.344 5554.71,1301.385 5556.549,1296.198L5757.976,722.502C5759.76,717.342 5765.769,713.129 5771.257,713.129L5894.574,713.129C5900.035,713.129 5902.916,717.342 5900.927,722.447L5632.531,1424.424C5630.611,1429.529 5624.505,1433.755 5619.045,1433.755L5476.423,1433.755Z" style="fill:rgb(0,140,68);fill-rule:nonzero;"/>
        <path d="M6518.558,1018.997C6524.073,1018.997 6527.75,1014.592 6526.817,1009.158C6526.817,1009.158 6518.256,960.661 6505.825,934.958C6493.436,909.242 6477.603,887.436 6458.271,869.5C6439.021,851.592 6416.507,837.595 6390.795,827.454C6365.042,817.354 6337.958,812.29 6309.502,812.29C6281.019,812.29 6254.196,817.354 6228.896,827.454C6203.651,837.595 6181.396,851.592 6162.092,869.5C6142.815,887.436 6127.215,909.242 6115.265,934.958C6103.287,960.661 6095.988,988.697 6093.202,1018.997L6518.558,1018.997ZM6309.502,1447.519C6253.483,1447.519 6202.512,1437.653 6156.576,1417.905C6110.655,1398.172 6071.387,1371.289 6038.788,1337.284C6006.216,1303.32 5980.971,1263.839 5963.011,1218.787C5945.12,1173.776 5936.188,1126.049 5936.188,1075.48C5936.188,1024.966 5945.12,976.95 5963.011,931.5C5980.971,886.05 6006.216,846.076 6038.788,811.604C6071.387,777.146 6110.655,750.098 6156.576,730.31C6202.512,710.618 6253.935,700.696 6310.902,700.696C6366.88,700.696 6417.673,710.837 6463.1,731.037C6508.597,751.21 6547.357,778.093 6579.572,811.604C6611.636,845.17 6636.222,884.198 6653.222,928.756C6670.221,973.314 6678.7,1019.93 6678.7,1068.577C6678.7,1079.665 6678.261,1089.971 6677.356,1099.618C6676.423,1109.279 6675.476,1117.307 6674.584,1123.716L6107.334,1123.716C6101.819,1123.716 6098.142,1128.148 6099.034,1133.541C6099.034,1133.541 6107.691,1184.823 6120.122,1210.526C6132.484,1236.284 6148.55,1258.542 6168.294,1277.343C6188.023,1296.198 6210.497,1310.634 6235.811,1320.775C6261.07,1330.862 6287.44,1335.898 6315.031,1335.898C6335.214,1335.898 6355.163,1333.373 6374.962,1328.35C6394.691,1323.287 6412.829,1315.931 6429.321,1306.284C6445.882,1296.637 6460.549,1284.918 6473.432,1271.154C6486.302,1257.376 6496.358,1242.212 6503.754,1225.69L6623.669,1260.12C6628.951,1261.644 6630.748,1266.625 6627.702,1271.154C6627.702,1271.154 6567.32,1361.367 6509.983,1395.839C6452.563,1430.352 6385.773,1447.519 6309.502,1447.519Z" style="fill:rgb(0,140,68);fill-rule:nonzero;"/>
        <path d="M7136.093,1317.99C7159.005,1317.99 7181.04,1314.133 7202.21,1306.284C7223.298,1298.476 7242.822,1287.923 7260.741,1274.612C7278.646,1261.287 7293.999,1246.109 7306.923,1229.148C7319.738,1212.145 7328.93,1193.976 7334.46,1174.723L7334.46,995.929C7334.46,990.412 7332.264,982.028 7329.561,977.225C7329.561,977.225 7287.619,902.559 7249.037,873.617C7210.456,844.676 7169.103,830.226 7125.048,830.226C7091.995,830.226 7062.401,837.362 7036.181,851.592C7010.031,865.864 6987.749,884.664 6969.391,908.075C6951.006,931.5 6936.778,957.917 6926.68,987.311C6916.541,1016.705 6911.533,1047.033 6911.533,1078.252C6911.533,1111.338 6917.268,1142.324 6928.711,1171.279C6940.236,1200.165 6956.069,1225.47 6976.251,1247.056C6996.489,1268.642 7020.142,1285.864 7047.226,1298.709C7074.324,1311.581 7103.932,1317.99 7136.093,1317.99ZM7086.48,1440.63C7037.745,1440.63 6993.484,1430.791 6953.517,1411.017C6913.591,1391.269 6879.139,1364.386 6850.245,1330.422C6821.267,1296.417 6798.794,1257.376 6782.686,1213.312C6766.62,1169.152 6758.594,1122.81 6758.594,1074.135C6758.594,1022.661 6766.62,974.206 6782.686,928.756C6798.794,883.264 6821.501,843.784 6850.917,810.273C6880.306,776.707 6915.429,750.098 6956.288,730.31C6997.161,710.618 7042.369,700.696 7091.995,700.696C7150.759,700.696 7201.716,714.474 7244.921,742.07C7288.085,769.571 7323.867,805.429 7352.351,849.534L7352.351,723.078C7352.351,717.603 7356.851,713.129 7362.325,713.129L7475.998,713.129C7481.513,713.129 7485.986,717.603 7485.986,723.078L7485.986,1403.112C7485.986,1408.574 7485.547,1417.549 7485.012,1423.038C7485.012,1423.038 7476.341,1511.824 7457.064,1552.252C7437.76,1592.679 7410.895,1626.863 7376.498,1654.912C7342.047,1682.907 7301.353,1704.232 7254.553,1718.943C7207.671,1733.626 7157.167,1740.982 7103.04,1740.982C7023.093,1740.982 6956.961,1727.437 6904.659,1700.335C6852.275,1673.246 6807.712,1635.385 6770.983,1586.655L6849.119,1513.567C6853.126,1509.848 6859.451,1510.068 6863.21,1514.102C6863.21,1514.102 6919.559,1574.73 6963.19,1594.957C7006.765,1615.157 7053.414,1625.243 7103.04,1625.243C7134.213,1625.243 7163.862,1621.113 7191.851,1612.865C7219.841,1604.604 7244.427,1591.732 7265.556,1574.277C7286.672,1556.821 7303.466,1534.796 7315.841,1508.188C7328.272,1481.483 7334.46,1449.825 7334.46,1413.075L7334.46,1312.83C7334.46,1307.313 7331.675,1306.421 7328.313,1310.675C7328.313,1310.675 7273.364,1380.936 7228.361,1404.814C7183.372,1428.719 7136.093,1440.63 7086.48,1440.63Z" style="fill:rgb(0,140,68);fill-rule:nonzero;"/>
        <path d="M1616.917,3.028C1615.463,0.489 1612.513,-0.773 1609.741,-0.005C1595.417,3.906 1581.34,7.749 1567.332,11.66C1566.083,12.017 1564.835,12.332 1563.586,12.689C1481.114,35.565 1404.061,58.372 1334.074,80.576C1163.38,134.808 961.693,215.993 916.663,364.007C896.069,431.77 910.969,508.261 960.623,592.203C968.827,579.469 976.95,566.761 985.058,554.164C1001.221,528.31 1018.92,503.952 1035.535,479.759C1044.055,467.792 1053.07,456.293 1061.645,444.807C1070.247,433.279 1078.74,421.931 1087.892,411.254C1096.81,400.441 1105.591,389.764 1114.248,379.225C1123.221,368.988 1132.29,359.067 1141.085,349.241C1145.53,344.356 1149.825,339.47 1154.243,334.695C1158.798,330.084 1163.284,325.459 1167.785,320.931C1176.758,311.86 1185.223,302.762 1194.155,294.322C1229.361,260.317 1263.868,231.472 1295.575,207.594C1297.112,206.428 1298.594,205.399 1300.117,204.273C1330.123,182.07 1357.934,164.573 1381.491,151.289C1383.11,150.439 1384.633,149.574 1386.156,148.723C1364.217,166.632 1341.469,186.42 1318.323,208.184C1313.562,212.617 1308.733,217.118 1303.889,221.646C1299.225,226.312 1294.464,231.06 1289.662,235.822C1280.153,245.414 1270.193,255.034 1260.506,265.161C1241.353,285.663 1221.252,306.659 1202.14,329.549C1182.356,351.889 1163.38,375.987 1143.733,400.441C1133.813,412.558 1124.799,425.622 1115.154,438.357C1105.824,451.27 1095.699,463.964 1086.671,477.522C1068.272,504.35 1049.036,531.315 1031.364,559.776C1022.432,573.938 1013.144,588.032 1004.267,602.468C999.012,611.237 993.812,620.061 988.571,628.912C987.885,630.024 987.254,631.149 986.581,632.274C986.581,632.315 986.636,632.37 986.677,632.398C968.553,665.566 951.142,699.351 934.239,733.452C920.56,760.967 908.225,789.044 895.218,816.777C882.692,844.676 871.125,872.863 859.326,900.679C837.031,956.86 815.984,1012.52 797.736,1067.082C788.008,1094.184 779.749,1121.246 771.544,1147.676C763.422,1174.133 754.846,1199.905 748.082,1225.374C740.989,1250.775 734.129,1275.463 727.447,1299.368C720.889,1323.287 715.771,1346.657 710.214,1369.011C708.925,1374.582 707.566,1379.825 706.263,1385.245C696.974,1343.075 686.478,1297.529 675.269,1249.348C669.561,1225.21 664.32,1200.303 657.776,1175.08C650.723,1149.926 643.548,1124.306 636.29,1098.191C628.977,1072.063 621.527,1045.55 614.035,1018.722C610.262,1005.315 606.462,991.757 602.689,978.254C598.202,964.847 593.716,951.33 589.188,937.813C579.996,910.861 570.748,883.676 561.418,856.381C551.869,829.197 543.376,801.614 531.892,774.868C521.094,748.04 510.228,721.116 499.417,694.329C494.038,680.949 488.66,667.624 483.309,654.34C478.15,640.988 471.331,628.24 465.459,615.217C440.735,563.674 418.577,512.117 391.04,464.952C377.855,441.102 365.37,417.443 352.281,394.787C337.97,372.762 323.976,351.176 310.338,330.221C303.382,319.819 297.194,309.184 289.922,299.441C282.472,289.794 275.214,280.243 267.997,270.897C260.849,261.566 253.769,252.413 246.868,243.397C239.994,234.395 233.271,225.502 225.739,217.461C211.031,201.364 196.94,185.83 183.522,171.133C169.829,156.71 155.381,144.25 142.525,132.132C129.903,119.741 116.539,109.654 104.397,100.268C98.333,95.602 92.501,91.17 86.931,86.861C81.251,82.771 75.447,79.272 70.165,75.786C49.173,61.46 31.487,52.128 19.208,46.392C12.965,43.757 8.163,41.713 4.98,40.368C1.701,39.201 0,38.625 0,38.625C0,38.625 1.522,39.558 4.527,41.356C7.408,43.346 11.566,46.241 17.095,50.111C27.591,58.372 43.383,69.858 61.192,87.218C65.719,91.485 70.604,95.698 75.406,100.542C80.071,105.565 84.928,110.821 89.977,116.337C100.089,127.329 111.6,138.376 122.096,152.14C132.784,165.644 144.844,179.243 156.465,194.544C167.675,210.147 179.433,226.628 191.713,243.754C198.175,252.056 203.786,261.25 209.617,270.596C215.449,279.872 221.376,289.341 227.44,298.988C233.491,308.594 239.637,318.324 245.88,328.245C252.191,338.112 257.446,348.884 263.415,359.382C275.077,380.515 287.055,402.225 299.307,424.442C310.777,447.112 321.726,470.702 333.264,494.401C357.481,541.141 376.414,592.697 397.722,643.76C402.744,656.728 408.712,669.298 413.061,682.623C417.589,695.866 422.117,709.136 426.713,722.447C435.809,749.014 445.002,775.678 454.167,802.355C463.977,828.799 470.837,856.34 478.74,883.306C486.506,910.367 494.217,937.291 501.886,964.064C505.783,977.348 509.693,990.632 513.548,1003.819C516.814,1017.24 520.052,1030.579 523.276,1043.849C529.697,1070.361 536.022,1096.613 542.21,1122.371C548.494,1148.129 554.599,1173.475 560.568,1198.231C566.138,1223.137 570.391,1247.811 575.139,1271.689C584.386,1319.472 593.126,1364.62 601.687,1406.2C606.187,1426.935 609.371,1447.039 612.279,1466.196C615.339,1485.353 618.22,1503.481 620.95,1520.566C626.37,1554.667 631.09,1584.418 634.986,1608.913C643.109,1657.808 647.774,1685.775 647.774,1685.775L648.13,1687.929L648.171,1688.19C649.077,1693.473 650.861,1698.263 653.111,1702.846C653.193,1703.024 653.289,1703.244 653.426,1703.463C654.812,1706.249 656.335,1708.898 658.132,1711.368C658.709,1712.123 659.34,1712.891 659.971,1713.646C661.411,1715.457 662.88,1717.159 664.499,1718.682C665.843,1720.027 667.325,1721.235 668.807,1722.442C669.877,1723.252 670.92,1724.116 671.99,1724.83C674.24,1726.394 676.655,1727.698 679.179,1728.96C679.659,1729.18 680.153,1729.4 680.647,1729.688C683.707,1731.019 686.89,1732.103 690.197,1732.899L690.251,1732.899C691.912,1733.311 693.435,1733.901 695.095,1734.161C725.471,1738.676 753.721,1717.735 758.29,1687.422L758.523,1685.994C758.523,1685.994 762.955,1656.339 770.721,1604.604C772.655,1591.677 774.809,1577.323 777.142,1561.721C779.913,1546.186 782.932,1529.417 786.156,1511.454C789.353,1493.518 792.755,1474.443 796.336,1454.298C799.931,1434.194 804.733,1413.24 809.206,1391.269C813.83,1369.327 818.33,1346.396 823.667,1322.834C829.183,1299.327 834.877,1274.969 840.708,1249.979C846.182,1224.839 853.454,1199.493 860.218,1173.379C867.133,1147.305 874.034,1120.669 882.376,1093.91C897.866,1040.075 915.936,985.115 935.281,929.565C945.544,902.065 955.189,873.974 965.96,846.254C977.169,818.74 987.761,790.745 999.588,763.382C1012.389,733.768 1025.574,704.319 1039.267,675.295C1061.412,679.289 1098.429,684.421 1142.567,684.421C1241.078,684.421 1374.178,658.485 1448.954,535.048C1514.097,427.626 1529.299,319.147 1542.718,223.389C1555.231,134.328 1566.001,57.425 1615.71,10.727C1617.809,8.75 1618.303,5.553 1616.917,3.028Z" style="fill:rgb(0,140,68);fill-rule:nonzero;"/>
    </g>
</svg>
