<?xml version="1.0" encoding="UTF-8"?><svg id="Ebene_1" xmlns="http://www.w3.org/2000/svg" viewBox="0 0 741.6 209.52"><defs><style>.cls-1{fill:#e5b969;fill-rule:evenodd;}</style></defs><path class="cls-1" d="M499.16,201.65c3.1-2.11,6.27-.02,8.08-.3,4.35-.7,6.34-3.44,9.58-3.6,5.39-.27,23.84,5.37,27.31,2.85,2.93-2.13,6.61,1.02,9.1.95.84-.03,1.68-1.82,2.51-2.04,1.27-.34,2.87,1.69,4.55.47,1.87-1.36,1.66,1.16,3.3,1.5.68.14,1.8-2.01,2.51-2.04,4.36-.19,8.26.25,12.63.17,5.7-.11,11.22-.41,14.91.41.41.09.61,1.17,1.02,1.26.69.14,1.79-2.08,2.51-2.04,3.63.21,6.78.97,9.1.95.42,0,.84-1.02,1.26-1.02.7,0,1.33,2.46,2.04,2.51,2.89.19,5.6-4.04,6.83.71,1.68-1.36,3.35-2.72,5.03-4.08,10.84,2.46,22.59,1.35,31.86,3.33,3.94.84,8.86.83,11.38,1.19,1.78.25,2.48,2.22,4.31,2.75,2.72.8,6.95-.52,8.87,3.23,1.35-6.59,4.46.86,6.83.71,1.16-.08,4.45-3.01,7.3-3.84.2-.05.8,1.21,1.02,1.26.6.12,1.88-1.88,2.51-2.04.21-.05.78,1.2,1.02,1.26,1.76.36,12.4-9.68,13.82-11.21,1.04-1.12.57-2.46,1.49-3.29,1.13-1.02-.04-1.89.24-2.28,3.55-5.04,6.95-5.91,7.78-8.39,1.83-5.5,5.58-9.41,5.98-13.18.16-1.52.5-3.02.47-4.55,5.38-2.89,3.65-6.52,9.04-9.41-2.3-3.29-.08-7-.07-10.36,0-1.35.69-3.16.48-4.55-.14-.93-1.8-1.6-2.04-2.51-.12-.46,1.48-2.69,1.49-3.29.15-5.32.82-11.08.41-14.91-.23-2.15-.54-3.81-.54-5.81,0-1.46.52-2.91.48-4.55-.05-1.65-.83-3.07.48-4.55,1.68,2.21,3.58,2.43,5.57,1.73-3.31-3.41-.29-6.16-3.6-9.58,1.87-1.72,2.07-2.36.47-4.55-1.41-1.93-.15-6.38-.31-8.08-.24-2.56-1.4-3.11-2.82-6.05-1.67-3.45.86-10.33-4.38-13.11.61-2.62,3.63-4.99,4.25-7.61-2.73-7.19-7.53-14.59-6.97-21.43-5.34-.27-6.42-7.39-10.43-10.29-1.26-.91-6.45,1.58-6.59-2.99-3.71-1.22-8.05,3.67-11.62,1.09-3.82-3.47,1.55-5.97-3.6-9.58-6.02,3.23-12.53.27-18.44.37-3.3.05-5.84,1.11-9.34,1.32-2.85.17-6.87-1.87-9.34,1.33-4.73-3.93-13.23-2.9-16.95-2.92-.7,0-1.34-2.48-2.04-2.51-1.12-.05-3.89,1.63-4.79,1.8-4.83.91-10.56-1.58-13.89.85-2.61,1.89-9.54-.27-12.64-.17-3.83.12-7.97.99-11.62,1.09-2.94.08-6.11-1.61-7.85-1.97-.67-.14-1.8,2-2.51,2.04-1.27.06-3.2-.51-4.55-.47-4.16.11-7.47.08-10.36.07-3.66-.01-9.34-1.49-11.38-1.19-2.34.34-3.97,4.04-6.05,2.82-3.54-2.77-7.78,1.13-11.14-3.46-10.04,4.35-19.41,2.29-28.8.44-5.02.28-10.46,4.7-14.91-.4-2.21.04-4.99-1.16-7.22-1.15-4,.01-7.78.21-11.75.58-1.53.14-3.23.17-4.78.07-.96-.06-1.62-.52-2.54-.68-2.24-.39-5.15.04-7.4.02-1.82-.02-4.34-.16-6.01.65-.54.26-.89.7-1.45.97-1.77.87-4.14.25-5.72-.69-3.61-2.14-6.72-5.43-11.11-5.36-2.18.04-4.36,0-6.53,0-1.28,0-2.47-.08-3.62.31-.52.18-1.1.59-1.65.79-3.42,1.18-6.84,2.34-10.46,2.65-1.67.14-3.51-.29-5.14.02-.4.08-.73.45-1.08.53-.77.17-1.43.15-2.23.14-2.43-.02-4.81.19-7.19-.41s-4.48-2.05-6.83-2.66c-.55-.14-1.13-.03-1.68-.21-.64-.21-1.15-.81-1.76-1.04-1.27-.47-3.03-.76-4.4-.74-2.34.03-4.08.14-6.37.81-2.54.73-3.75-.12-6.25-.2-1.86-.05-3.95.38-5.77.08-1.71-.29-.88-.88-1.7-2.02-1.51-2.11-6.67.67-8.73.73-7.06.22-14.13-2.83-20.86-.7-7.24,2.29-16.38-.01-21.74-1.12-.69-.14-1.79,2.07-2.51,2.04-3.67-.18-7.63-.91-11.38-1.19-2-.15-3.59-1.5-5.57-1.73-2.7-.32-5.74,4.14-6.83-.71-3.41,3.31-6.17.29-9.58,3.6-6.86-4.02-14.75,1.77-21.5-3.39-5.57,5.61-9.88-.85-15.39,4.14-1.86-4.17-4.55-.5-6.59-2.99-8.68,2.97-17.61.95-26.53.68-2.61-.08-7.26-.29-8.09.3-3.36,2.45-4.29-2.55-6.83-.71-2.44,1.77-10.8-.15-12.64-.17-4.71-.05-9,.93-13.89.85-4.33-.07-9.32-1.33-13.65-1.42-2-.04-4.94,1.55-7.07,1.56-3.95.02-8.63-3.19-11.38-1.19-1.52,1.1-1.19-.34-2.28-.24-2.26.21-4.82,1.7-7.06,1.56-4.5-.28-9.08-1.7-13.41-3.7-4.33,5.79-14.12-.77-17.43,1.63-2.59,1.88-5.88-1.3-8.08.31-1.49,1.08-1.32-.41-2.28-.24-9.21,1.62-15.43-.55-24.01-1.36-6.51-.61-12.92-.48-19.46-.88-2.69,2.26-2.98,5.5-4.24,7.61-1.48,2.46-3.36,3.23-4.01,5.33-.47,1.53.88,4.18.55,5.81,3.19-2.36,3.63,3.94,1.8,4.79-7.63,5.72-7.06,12.3-7.71,18.75-3.14,4.33-5.49,1.17-8.32,2.58-.55,7.23,1.7,14.75-5.67,21.26.76,3.53,2.18,7.13.07,10.36l-6.28,5.1c.38,4.23-1.58,8.3-2.44,12.4-.63,2.96-.4,6.43-1.97,7.85-1.7,1.54.95,4.09.54,5.81-3.24,1.96-4.66,4.12-5.26,6.35.73,6.98-.74,13.73,2.41,20.96-1.38,3.69-2.08,7.45-3.46,11.14,4.95,7.8.24,14.59,5.71,22.45-.18,3.05-5.71,5.54-3.22,8.87,5.28-2.81,9.16,7.75,13.72,11.79,2.68-1.54,5.48-.28,8.08-.31,2.6-.02,9.37-1.16,10.36-.06,1.26,1.39,1.05.09,2.27.23,3.47.41,6.9-.63,9.34-1.32,1.86-.53,2.89-.34,4.79-1.8,4.47,4.09,10.9,1.53,15.93,1.66,1.03.02,2.24,1.42,3.3,1.49,1.7.11,3-1.79,4.79-1.8,3.13-.02,5.91,1.73,9.1.95,4.65-.1,9.17-.91,13.89-.85,2.16.02,4.42.52,6.83.71.38.03.64,1.18,1.02,1.26.69.14,1.79-2.06,2.51-2.04.72.02,1.31,2.44,2.04,2.51.77.08,1.72-2.04,2.51-2.04,3.81,0,13.22,1.64,14.91.4,2.41-1.75,5.14.36,6.83.71.63.13,1.85-1.92,2.51-2.04.93-.16,3.47.45,4.55.48,3.23.08,5.65.6,9.1.95,1.51.15,3.04.31,4.55.47,1.7.18,3.91,1.72,5.57,1.73,1.2,0,2.58-2.77,3.77-3.06,1.39-.34,2.89,2.45,4.31,2.75.6.12,1.88-1.88,2.51-2.04.22-.05.78,1.21,1.02,1.26.68.14,1.79-2.02,2.51-2.04,3.56-.09,8,2.29,10.12,2.21,1.81-.07,3.14-1.81,4.79-1.8,6.52.04,13.4.91,18.21,1.9.66.14,1.81-1.98,2.51-2.04.88-.08,2.33,1.53,3.3,1.5,1.84-.07,3.1-1.85,4.79-1.8,6.89.18,12.82,2.45,19.22,3.16,2.71-3.92,4.69-.87,7.3-3.84,2.78,4.42,4.67,1.28,6.83.71.47-.13,2.67,1.49,3.29,1.49,3.86.04,7.85-1.31,11.62-1.09,7.63.46,15.01,2.4,22.52,4.65,2.83-1.41,5.18,1.75,8.32-2.58,3.35,4.59,7.6.69,11.14,3.47,6.09-3.27,11.69-1.77,16.95,2.92,6.56,0,12.06,1.92,18.62,1.92,1.17,0,2.85.22,4.06.01,1.33-.23,1.76-.81,2.86-1.79s1.71-1.62,3.06-1.08c.58.23.82.72,1.48.91.56.16,1.16.04,1.73.04,1.33,0,2.69.09,4.01-.06,1.53-.17,2.7-.97,4.13-1.26,2.86-.58,5.83.59,8.64.69,3.61.13,6.98,1.03,10.52,1.3,2.07.15,4.24-.03,6.32-.03,1.19,0,2.52-.18,3.68.05,1.27.24,2.43.99,3.77,1.18,4.23.6,8.34.7,12.63.7,1.46,0,3.1.2,4.56.01,1.03-.13,1.32-.44,2.22-.92,1.05-.56,1.8-.15,2.84-.34.5-.09.8-.42,1.26-.55,1.7-.47,3.57-.08,5.27.16,4.54.63,8.55,3.01,12.99,4.15,3.5.9,6.86,1.59,10.49,1.36,2.14-.14,4.23-.87,6.35-1.19,1.87-.28,3.72-.07,5.55-.45,2.93-.6,6.08-.28,9.11-.32,1.77-.03,2.6.33,4.32.9,1.13.38,1.56.52,2.67.01s1.94-1.73,3.16-2.1c.88-.27,1.98-.11,2.93-.1,2.59.01,4.88.16,7.37.77.9.22,1.7.83,2.6,1.05.83.21,1.73-.04,2.53.17.85.22.29.26,1.39.24Z"/></svg>