<?xml version="1.0" encoding="UTF-8"?><svg id="Ebene_1" xmlns="http://www.w3.org/2000/svg" viewBox="0 0 895.97 188.27"><defs><style>.cls-1{fill:#e5b969;fill-rule:evenodd;}</style></defs><path class="cls-1" d="M302.25,181.33c-1.36,0-3.49.46-4.37-.52-.51-.57-.5-1.33-1.43-1.56-1.27-.3-2.14,1.42-3.27,1.94-3.11,1.45-7.17,1.22-10.51,1.93-1.56.33-3.08.82-4.68.88-1.94.06-3.9-.02-5.85-.02h-5.34c-1.68,0-3.91-.4-5.52.08.02.71.15,1-.63.57-6.18-3.37-12.24-1.59-18.3.41-6.13-1.19-12.27-2.93-18.3.4-5.91-1.87-12.39-2.02-18.35-1.88-5.96.13-12.43.55-18.25,2.69-3.15-2.31-7.84-2.02-11.49-2.04-5.61-.02-10.76,1.27-17.13,1.52-4.86.2-10.94-.69-17.18-.76-.71,0-1.54,2.39-2.24,2.34-.42-.03-.75-1.08-1.17-1.12-1.65-.15-4.9-.9-8.03-.96-3.91-.09-7.55.2-11.44.25-3.78.05-7.69-.09-11.44.25-4.13.38-8.07-.57-11.39,2.54-4.39-2.86-8.19-.84-12.61-.87-3.5-.02-8.28.56-11.44.25-.72-.07-1.64-2.32-2.34-2.24-.69.08-2.77,1.33-3.41,1.22-.7-.12-1.66-2.32-2.34-2.24-.77.09-2.68,1.32-3.41,1.22-.71-.1-1.65-2.32-2.34-2.24-2.53.31-5.21.67-9.15.2-7.09-.84-14.69-3.44-21.76-.66-2.31-.99-4.73-7.15-6.96-4.42-1.88,1.14-3.82-.13-5.69,1.27-3.09-8-7.05-8.94-12.96-16.88,3.17-2.36.3-4.58,4.42-6.96-8.19-4.01.2-8.4-6-12.45,2.62-5.02,1.28-9.95.82-14.89-1.99-2.25,3.07-4.65,2.14-6.91-4-2.2-.13-4.58-2.44-6.81,1.7-3.47,4.67-6.97,5.49-10.42,1.24-1.58-.01-3.02-.1-4.58-.08-1.56.74-3.05-.1-4.57,3.32-7.7,8.44-15.45,10.93-23.13,2.42-4.25,1.26-8.42.87-12.6,4.28-5.97,12.74-6.93,13.42-14.03,2.58-4.24-3.57-1.27-4.68-4.47,5.58-4.7.86-9.17,4.27-13.83,4.45-5.7,8.98-7.72,13.52-9.45,3.61-4.41-7.2-2.84-3.55-5.64,1.3-4.31,4.24-6.24,7.83-8.18,1.75-.95,3.72-.64,5.69-1.27,1.11-.36,3.11-2.15,4.53-2.39.65-.11,1.68,2.32,2.34,2.24.83-.1,5.09-3.05,6.81-2.44.75.27,1.57,2.2,2.34,2.24,4.13.18,7.64-.52,11.44-.25,1.99.14,3.72.88,5.74,1.02.62.04,2.95-1.38,3.41-1.22.81.28,1.51,2.14,2.34,2.24,1.68.19,4.07-1.52,5.69-1.27,1.88.29,2.86,2,4.62,2.19.67.07,1.57-2.39,2.24-2.34.42.03.75,1.08,1.17,1.12,2.06.19,3.75,1.02,5.74,1.02,1.97,0,3.75.62,5.75,1.02.89.18,1.82-.16,2.29-.05,1.31.3,3.04,1.95,4.62,2.19,1.73.25,3.98-1.42,5.7-1.27.72.06,1.64,2.32,2.34,2.24.82-.1,2.61-1.3,3.41-1.22.72.08,1.65,2.32,2.34,2.24,2.21-.27,4.62-.53,7.98-1.32,3.59,2.9,7.89,3.71,11.54,4.32,6.97,1.17,12.41-1.32,19.42-1.58,1.09-.04,3.59-.21,4.57-.1,1.37.15,3.12,2.12,4.63,2.19,1.37.06,3.1-2.45,4.52-2.39,1.67.07,3,2.4,4.63,2.19,5.27-.13,10.08-3.29,15.96-2.64,1.46.16,3.02,2.07,4.63,2.19,3.03.23,6.1-.37,9.15-.2,6,.33,12.35,1.08,18.3-.41,4.68-1.17,9.51.49,14.33.49,2.02,0,4.36.36,6.34.04.98-.16,1.65-.85,2.53-1.24,1.06-.47,2.18-.47,3.33-1.07,1.99-1.03,3.66-.98,5.87-.94,1.46.03,1.99-.48,3.21-1.21s1.71-.93,3.19-.92c.89,0,1.92-.17,2.79.08,1.58.45,1.91,1.97,3.62,2.06,3.97.21,7.17-1.76,10.8-2.84,2.7-.8,5.07-.87,7.87-.91,6.68-.1,13.82,1.76,20.5,1.42.54-.03.84.09,1.26-.31.26-.25.17-.75.39-.94.28-.25,1.3-.13,1.66-.11,1.74.09,3.49.55,5.19.91,1.53.34,3.07.65,4.61.93.67.16,1.34.28,2.02.38.37.18.59.41.93.6.86.47,1.79.32,2.82.32,2.1,0,4.29.21,6.37.02,2.68-.24,5.36-1.04,8.05-1.32,1.14-.12,2.35.17,3.47,0s2.13-.84,3.27-1.12c1.54-.38,2.96-.18,4.45-.69s3.81-1.11,5.4-.9c1.7.22,1.37,1.52,2.27,2.72.84,1.12,1.95.84,3.21.84,1.5,0,2.74.35,4.19.45,3,.22,5.89-1.01,8.88-1.25s5.77-.09,8.64-.09c1.4,0,3.22.33,4.56-.08l.15-.73c.8-.28,1.83-.11,2.57.24,1.68.78,3.21,1.58,5.02,2.15,1.3.41,2.74.85,4.11.61,1.52-.27,2.81-1.13,4.22-1.66,1.66-.62,4.05-.87,5.82-.54.89.16,1.34.48,2.3.46,1.19-.01,2.37,0,3.56,0,2.21-.02,4.34.48,6.55.46.83,0,2.16.16,3.03,0,.41-.07.58-.27.87-.34,1.88-.47,4.42-1,6.36-1.06,2.27-.06,3.61,1.95,5.68,2.26.51.08,1.03-.09,1.53-.01.53.09.91.4,1.43.49.43.08.89-.12,1.32-.05.6.1,1.05.41,1.67.49,1.91.23,3.06-.04,3.01-2.15,2.13.33,4.28.51,6.42.92.68.13,1.33-.03,2,.09s1.08.47,1.72.59c1.73.32,3.01-.31,4.57-.86,1.98-.7,3.98-.77,6.11-.77,1.46,0,2.72.03,4.13-.39,1.48-.44,2.95-1.24,4.41-1.64,1.9-.52,4.41-.11,6.39-.11,2.25,0,4.25-.08,6.39-.64,3.02-.79,5.36-3.05,8.55-3.1.51,0,1.11.08,1.62.01s.79-.35,1.15-.43c1.11-.25,3.01-.36,4.17-.15,4.22.79,8.54,2.37,12.83,2.7,1.24.09,2.51.35,3.72.65.63.15.92.39,1.6.43s1.45-.12,2.15-.02c1.16.15,1.88.72,3.2.56,1.19-.14,1.55-.69,2.9-.44,1.81.34,2.99,1.09,4.88,1,2.3-.11,4.3-1.4,6.52-1.73.07-.29.13-.59.16-.89,1.13-.56,3.54-.09,4.81-.09s1.65.2,2.82,1.04,2.59,1.95,4.07,2.2c.79.14,1.8-.05,2.62-.04,2.33.02,3.05-.78,4.86-2.01.68-.46,1.27-.86,2.11-1.07s1.73.04,2.58-.21c.03-.15,2.77-1.75,2.8-1.9,4.28,3.7,8.46,2.94,12.61.86,2.76,3.52,7.04.89,10.32.92,3.49.03,6.82.86,10.32.92.57,0,2.99-1.37,3.41-1.22,2.24.79,3.54,1.94,6.91,2.14,1.76.1,3.97-1.45,5.69-1.27,1.4.14,3.1,2.11,4.63,2.18,5.19.24,9.73-1.12,16.01-.35,2.92.35,6.15.41,10.32.92,1.78.21,2.95-.17,4.58-.1,2.79.11,6.59-.53,9.15-.2.71.09,1.65,2.32,2.34,2.24.24-.03.91-1.24,1.12-1.17.62.21,1.73,2.31,2.34,2.24,2.04-.25,2.46-.52,4.57-.1,2.93.58,9.4,2.64,14.9.82,5.82,3.68,13.19,4.22,19.57,5.29,1.08.18.86-1.28,2.28-.05.38.32,2.79.95,3.46,1.07,1.3.23,3.37-.31,4.57-.1,2.88.49,6.19,1.63,9.2,2.08,1.1.17.86-1.28,2.28-.05,1.44,1.24,5.22.54,8.03.97,6.14.93,11.34,1.25,18.35,1.88,3.23.29,6.65-.31,9.2,2.08,2.85-2.3,6.43-1.4,10.27-1.37,2.43.02,6.1-.38,9.15-.2,3.03.18,5.95,1.76,9.2,2.08,3.09.31,5.97-.62,9.15-.2.71.09,1.65,2.32,2.34,2.24,1.69-.21,5.12-1.69,7.98-1.32,1.75.23,3.02,1.85,4.63,2.19,1.31.27,3.36-.3,4.58-.1,1.75.29,2.61,1.63,4.62,2.19,1.26.35,3.42-.32,4.58-.1,4.14.78,7.73,1.04,9.2,2.08,4.78,3.38,6.77,10.25,10.62,14.64.67,3.8-3.32,7.7-4.32,11.54-.92,3.07-.85,6.12.2,9.15-5.15,1.27-2.31,6.85-4.37,9.25-3.45,4.01-.11,3.89-3.25,8.08-2.27,3.03-4.25,5.15-2.09,9.2l-5.59,5.84c-4.14,3.91.27,7.62-2.04,11.49-6.44,5.16-5.78,11.41-12.35,10.57-1.97,2.72.89,5.32,1.32,7.98.94,2.26-4.13,4.67-2.14,6.91-2.57,4.69-5.3,1.85-7.93,3.61-3.17,2.36-.29,4.58-4.42,6.96-5.63-3.28-8.13,1.97-13.67,2.59-3.62.41-8.72-.68-12.61-.86-4.2-.21-9.31-1.59-12.61-.86-.69.15-1.56,2.39-2.24,2.34-.18-.02-1.04-1.19-1.17-1.12-7.45,4.31-14.64,9.39-23.84,8.53-3.73,3.55-7.57,2.61-11.29,7.11-2.1-2.24-5.33,1.36-8.03-.97-.17-.15-3.11-1.08-3.46-1.07-2.7.13-5.25,3.04-7.93,3.61.08-.02-11.34.23-12.61-.87-3.84-3.3-9.64-.07-14.9-.81-.71-.1-1.65-2.32-2.34-2.24-3.39.42-6.42.8-11.44.25-1.53-.17-4.33-2.35-5.74-1.02-2.61,2.45-3.85-2.51-6.91-2.14-.44.05-4.79,1.82-6.86.15-3.79.82-7.55,3.43-11.34,4.83-3.44-1.9-7.23-1.22-11.49-2.04-1.05-.2-.87,1.27-2.29.05-1.06-.92-9.47-1.08-12.61-.87-3.79.26-8.09,1.04-11.39,2.54-5.37-1.24-10.76-3.68-16.06-1.93-2.22,0-4.89,1.08-7.11,1.07-1.15,0-2.82-.26-3.97.06-.28,1.49-2.66,3.02-3.55,4.09-1.16,1.4-1.67,3.34-3.68,3.38-1.55.03-2.87-1.03-4.31-1.43-1.02-.29-2.25-.44-3.29-.64s-2.13-.05-3.21-.24c-.79-.14-1.46-.39-2.29-.43-1.96-.1-2.59.61-4.19,1.49-1,.55-2.25.45-3.27,1.03-1.63.92-3.06,1.93-5.01,2.24-1.79.28-3.04-.18-4.57-.48-1.67-.33-2.72-1.08-4.52-1.07-3.19.02-6.97.61-10.02-.25s-5.77-.56-8.94-.94c-4.14-.5-8.3-.51-12.48-.43-3.9.08-6.68,3.27-9.3,5.8-2.1,2.03-5.45,4.9-8.4,5.45-1.64.31-3.59-.05-5.26-.03-.48,0-.97.01-1.45.03-.27-.05-.47-.2-.59-.44-.67-.15-1.39.06-2.04-.09-.46-.11-.56-.49-1.01-.59-.96-.21-1.3-.09-2.27-.5-2.33-1-7.56-.42-8.01-4.19-.82-.15-1.59-.3-2.41-.49-1.76-.41-2.62-.04-4.34.71-2.28,0-4.02,1.45-6.3,1.43-1.37-.02-2.03.04-3.2.45-.25.09-.25.4-.58.48-.65.16-1.62-.03-2.32-.03-1.41,0-2.51.15-3.79-.43-.96-.44-1.64-.88-2.74-.92s-3.33.09-4.08.88c-.88.93-.62,1.74-2.16,2.16-1.4.38-3.01.91-4.45.97-.93.04-1.94.04-2.83-.27-1.4-.49-1.89-1.92-3.41-1.95-2.88-.07-5.86-.17-8.74.04-2.65.2-5.08.95-7.65,1.49-1.5.32-2.95.23-4.48.24-1.4,0-2.68-.08-4.04-.34-.95-.18-1.9,0-2.82-.2-.3-.06-.55-.3-.97-.35-.27-.04-.64,0-.9.01-.85,0-1.73.06-2.58.02-2.25-.11-4.42-.48-6.69-.46s-4.55,0-6.82,0c-1.54.01-2.6.03-4.03-.27-1.12-.23-2.17-.63-3.33-.66-1.09-.03-2.19.04-3.27.03-2.01,0-4.03-.13-5.95.63-2.05.81-3.5,2.42-5.77,2.84-.53.1-1.4.2-1.93.09-.33-.07-.67-.31-.91-.36-.89-.21-1.86-.07-2.78-.09-1.08-.02-2.06-.37-3.13-.47-1.97-.18-3.69,1.09-5.5,1.73-1.49.53-3.1.77-4.67.41-.13-.03-.41-.35-.61-.37-1.43-.18-3,.02-4.45.02-2.65,0-5.02-.08-7.61-.68-2.29-.53-4.72-.68-7.06-.64-2.51.04-4.56-.37-6.87-1.35-1.06-.45-1.65-.41-2.81-.43-1.94-.04-3.3.67-5.11,1.34-1.91.71-3.52.89-5.52.87s-4.14,0-6.21,0c-.83,0-1.77-.13-2.56.1-.59.18-1.09.82-1.79.87-.03.12.74-.53.71-.41Z"/></svg>