<?xml version="1.0" encoding="UTF-8"?>
<svg id="Ebene_1" xmlns="http://www.w3.org/2000/svg" version="1.1" viewBox="0 0 800 800">
  <!-- Generator: Adobe Illustrator 30.4.0, SVG Export Plug-In . SVG Version: 2.1.4 Build 226)  -->
  <defs>
    <style>
      .st0 {
        fill-rule: evenodd;
      }

      .st0, .st1 {
        fill: #e5b969;
      }
    </style>
  </defs>
  <path class="st0" d="M-573.58,197.37c-.9.53-1.82,0-2.35.08-1.26.18-1.84.86-2.78.9-1.57.07-6.92-1.34-7.93-.71-.85.53-1.92-.26-2.64-.24-.24,0-.49.46-.73.51-.37.08-.83-.42-1.32-.12-.54.34-.48-.29-.96-.37-.2-.03-.52.5-.73.51-1.27.05-2.4-.06-3.67-.04-1.65.03-3.26.1-4.33-.1-.12-.02-.18-.29-.3-.31-.2-.04-.52.52-.73.51-1.05-.05-1.97-.24-2.64-.24-.12,0-.24.26-.36.25-.2,0-.39-.62-.59-.63-.84-.05-1.62,1.01-1.98-.18l-1.46,1.02c-.62-.12-1.25-.21-1.89-.27-2.69-.26-5.44-.16-7.69-.56-1.2-.21-2.69-.21-3.45-.3-.54-.06-.75-.55-1.31-.69-.82-.2-2.11.13-2.69-.81-.41,1.65-1.35-.22-2.07-.18-.35.02-1.35.75-2.22.96-.06.01-.24-.3-.31-.31-.18-.03-.57.47-.76.51-.07.01-.24-.3-.31-.31-.54-.09-3.76,2.42-4.19,2.8-.32.28-.17.62-.45.82-.34.26.01.47-.07.57-1.08,1.26-2.11,1.48-2.36,2.1-.56,1.37-1.69,2.35-1.81,3.29-.05.38-.15.75-.14,1.14-1.63.72-1.11,1.63-2.74,2.35.7.82.02,1.75.02,2.59,0,.34-.21.79-.14,1.14.04.23.55.4.62.63.04.11-.45.67-.45.82-.05,1.33-.25,2.77-.12,3.73.07.54.16.95.16,1.45,0,.37-.16.73-.14,1.14.01.41.25.77-.14,1.14-.51-.55-1.09-.61-1.69-.43,1,.85.09,1.54,1.09,2.39-.57.43-.63.59-.14,1.14.43.48.04,1.6.09,2.02.07.64.43.78.86,1.51.51.86-.26,2.58,1.33,3.28-.19.65-1.1,1.25-1.29,1.9.83,1.8,2.29,3.65,2.11,5.36,1.62.07,1.95,1.85,3.16,2.57.38.23,1.96-.39,2,.75,1.13.3,2.44-.92,3.52-.27,1.16.87-.47,1.49,1.09,2.39,1.83-.81,3.8-.07,5.6-.09,1,0,1.77-.28,2.83-.33.87-.04,2.08.47,2.83-.33,1.44.98,4.01.73,5.14.73.21,0,.41.62.62.63.34,0,1.18-.41,1.45-.45.7-.11,1.46-.02,2.17.03.75.06,1.45.08,1.95-.24.76-.47,2.77.07,3.67.04,1.11-.03,2.31-.25,3.37-.27.85-.02,1.77.4,2.28.49.2.03.52-.5.73-.51.37-.02.93.13,1.32.12,1.21-.03,2.17-.02,3.01-.02,1.06,0,2.71.37,3.3.3.68-.09,1.15-1.01,1.75-.71,1.03.69,2.26-.28,3.23.87,2.91-1.09,5.63-.57,8.36-.11,1.46-.07,3.04-1.17,4.33.1.64,0,1.45.29,2.1.29,1.16,0,2.26-.05,3.41-.14.44-.04.94-.04,1.39-.02.28.02.47.13.74.17.65.1,1.5,0,2.15,0,.53,0,1.26.04,1.75-.16.16-.07.26-.17.42-.24.51-.22,1.2-.06,1.66.17,1.05.54,1.95,1.36,3.22,1.34h1.9c.37,0,.72.02,1.05-.08.15-.04.32-.15.48-.2.99-.29,1.99-.59,3.04-.66.49-.04,1.02.07,1.49,0,.12-.02.21-.11.31-.13.22-.04.42-.04.65-.03.71,0,1.4-.05,2.09.1.7.15,1.3.51,1.98.67.16.04.33,0,.49.05.19.05.33.2.51.26.37.12.88.19,1.28.18.68,0,1.18-.04,1.85-.2.74-.18,1.09.03,1.81.05.54,0,1.15-.1,1.67-.02.5.07.26.22.49.5.44.53,1.94-.17,2.53-.18,2.05-.05,4.1.71,6.06.18,2.1-.57,4.75,0,6.31.28.2.04.52-.52.73-.51,1.07.04,2.21.23,3.3.3.58.04,1.04.37,1.62.43.78.08,1.67-1.03,1.98.18.99-.83,1.79-.07,2.78-.9,1.99,1.01,4.28-.44,6.24.85,1.62-1.4,2.87.21,4.47-1.04.54,1.04,1.32.13,1.91.75,2.52-.74,5.11-.24,7.7-.17.76.02,2.11.07,2.35-.08.97-.61,1.25.64,1.98.18.71-.44,3.14.04,3.67.04,1.37,0,2.61-.23,4.03-.21,1.26.02,2.71.33,3.96.36.58,0,1.43-.39,2.05-.39,1.15,0,2.5.8,3.3.3.44-.28.35.08.66.06.65-.05,1.4-.43,2.05-.39,1.31.07,2.63.42,3.89.93,1.26-1.45,4.1.19,5.06-.41.75-.47,1.71.33,2.35-.08.43-.27.39.1.68.06,2.8-.41,4.68.14,7.29.34,1.98.15,3.92.12,5.91.22.82-.57.9-1.38,1.29-1.9.45-.61,1.02-.81,1.22-1.33.14-.38-.27-1.04-.17-1.45-.97.59-1.1-.98-.55-1.2,2.31-1.43,2.14-3.08,2.34-4.69.95-1.08,1.67-.29,2.53-.64.17-1.81-.52-3.69,1.72-5.32-.23-.88-.66-1.78-.02-2.59l1.91-1.27c-.11-1.06.48-2.08.74-3.1.19-.74.12-1.61.6-1.96.52-.38-.29-1.02-.16-1.45.98-.49,1.41-1.03,1.6-1.59-.22-1.74.22-3.43-.73-5.24.42-.92.63-1.86,1.05-2.79-1.5-1.95-.07-3.65-1.73-5.61.05-.76,1.73-1.38.98-2.22-1.6.7-2.78-1.94-4.16-2.95-.81.39-1.66.07-2.45.08-.79,0-2.84.29-3.14.02-.38-.35-.32-.02-.69-.06-1.05-.1-2.09.16-2.83.33-.57.13-.88.08-1.45.45-1.36-1.02-3.31-.38-4.83-.42-.31,0-.68-.36-1-.37-.52-.03-.91.45-1.45.45-.95,0-1.79-.43-2.76-.24-.47,0-.94.04-1.4.07-.89.07-1.78.15-2.69.14-.63,0-1.28-.13-1.98-.18-.11,0-.19-.29-.3-.31-.2-.04-.52.52-.73.51-.21,0-.38-.61-.59-.63-.22-.02-.5.51-.73.51-1.1,0-3.84-.41-4.33-.1-.7.44-1.49-.09-1.98-.18-.18-.03-.54.48-.73.51-.27.04-1.01-.11-1.32-.12-.94-.02-1.64-.15-2.64-.24-.44-.04-.88-.08-1.32-.12-.49-.05-1.13-.43-1.62-.43-.35,0-.75.69-1.09.76-.4.09-.84-.61-1.25-.69-.17-.03-.55.47-.73.51-.06,0-.23-.3-.3-.31-.2-.03-.52.51-.73.51-1.03.02-2.32-.57-2.94-.55-.53.02-.91.45-1.39.45-1.89,0-3.89-.23-5.28-.48-.19-.03-.53.49-.73.51-.26.02-.68-.38-.96-.37-.53.02-.9.46-1.39.45-2-.04-3.72-.61-5.58-.79-.79.98-1.36.22-2.12.96-.81-1.1-1.36-.32-1.98-.18-.14.03-.78-.37-.96-.37-1.12,0-2.28.33-3.37.27-2.21-.12-4.36-.6-6.54-1.16-.82.35-1.5-.44-2.42.65-.97-1.15-2.2-.17-3.23-.87-1.77.82-3.39.44-4.92-.73-1.9,0-3.5-.48-5.4-.48-.34,0-.83-.06-1.18,0-.39.06-.51.2-.83.45-.32.24-.5.41-.89.27-.17-.06-.24-.18-.43-.23-.16-.04-.34,0-.5-.01-.39,0-.78-.02-1.16.02-.44.04-.78.24-1.2.32-.83.15-1.69-.15-2.51-.17-1.05-.03-2.03-.26-3.05-.32-.6-.04-1.23,0-1.84,0-.35,0-.73.04-1.07-.01-.37-.06-.7-.25-1.09-.29-1.23-.15-2.42-.17-3.67-.17-.42,0-.9-.05-1.32,0-.3.03-.38.11-.64.23-.31.14-.52.04-.82.08-.15.02-.23.11-.37.14-.49.12-1.04.02-1.53-.04-1.32-.16-2.48-.75-3.77-1.04-1.02-.22-1.99-.4-3.04-.34-.62.03-1.23.22-1.84.3-.54.07-1.08.02-1.61.11-.85.15-1.77.07-2.64.08-.51,0-.75-.08-1.26-.23-.33-.09-.45-.13-.77,0-.32.13-.56.43-.92.52-.26.07-.58.03-.85.03-.75,0-1.42-.04-2.14-.19-.26-.06-.49-.21-.76-.26-.24-.05-.5,0-.73-.04-.25-.06-.08-.06-.4-.06l-.07-.06Z"/>
  <path class="st0" d="M-827.69,577.26c-.53-10.96,0-22.18-.08-28.58-.18-15.38-.86-22.4-.9-33.87-.07-19.07,1.34-84.29.71-96.54-.53-10.35.26-23.37.24-32.19,0-2.96-.46-5.95-.51-8.88-.08-4.47.42-10.15.12-16.09-.34-6.61.29-5.86.37-11.65.03-2.39-.5-6.35-.51-8.89.01-15.42.03-29.21.04-44.66,0-5.04-.02-10.04-.02-14.9v-1.82l.03-1.12c-.01-.72.07-1.41.12-2.11.04-.7.17-1.37.23-2.05.14-.66.22-1.33.37-1.97,1.12-5.17,3.38-9.49,5.72-12.52.49-.7,1.01-.82,1.52-1.48.92-1.07,2.1-3.11,3.24-4.11,1.41-1.27,2.91-2.33,4.4-3.26,1.49-.92,2.97-1.7,4.44-2.3,2.9-1.28,5.66-1.9,8.02-2.33.42-.09.84-.21,1.27-.32.42-.11.84-.27,1.29-.28.73-.04,1.43.02,2.14.19.36.07.67.13,1.08.18.6.06,1.21.1,1.83.1,10.2.05,19.78-1.01,24.13.18l17.77-1.02c4.8.06,9.64.13,14.5.19,2.43.02,4.88.05,7.32.07h1.21s.04,0,.04,0l.16.02.32.03c.84.07,1.68.11,2.51.14,1.65.07,3.25.12,4.65.37,1.2.21,2.69.21,3.45.3.54.06.75.55,1.31.69.82.2,2.11-.13,2.69.81.41-1.65,1.35.22,2.07.18.35-.02,1.35-.75,2.22-.96.06,0,.24.3.31.31.18.03.57-.47.76-.51.07,0,.24.3.31.31.54.09,3.76-2.42,4.19-2.8.32-.28.17-.62.45-.82.34-.26,0-.47.07-.57,1.08-1.26,2.11-1.48,2.36-2.1.56-1.37,1.69-2.35,1.81-3.29.05-.38.15-.75.14-1.14,1.63-.72,1.11-1.63,2.74-2.35-.7-.82-.02-1.75-.02-2.59,0-.34.21-.79.14-1.14-.04-.23-.55-.4-.62-.63-.04-.11.45-.67.45-.82.05-1.33.25-2.77.12-3.73-.07-.54-.16-.95-.16-1.45,0-.37.16-.73.14-1.14,0-.41-.25-.77.14-1.14.51.55,1.09.61,1.69.43-1-.85-.09-1.54-1.09-2.39.57-.43.63-.59.14-1.14-.43-.48-.04-1.6-.09-2.02-.07-.64-.43-.78-.86-1.51-.51-.86.26-2.58-1.33-3.28.19-.65,1.1-1.25,1.29-1.9-.83-1.8-2.29-3.65-2.11-5.36-1.62-.07-1.95-1.85-3.16-2.57-.38-.23-1.96.39-2-.75-1.13-.3-2.44.92-3.52.27-1.16-.87.47-1.49-1.09-2.39-1.83.81-3.8.07-5.6.09-1,.01-1.77.28-2.83.33-.87.04-2.08-.47-2.83.33-1.44-.98-4.01-.73-5.14-.73-.21,0-.41-.62-.62-.63-.34-.01-1.18.41-1.45.45-.37.06-.75.06-1.13.04l-.58-.04-.29-.02h-.18s-.38-.01-.38-.01h-.82c-8.67-.05-16.69-.05-22.57.25-4.61.24-13.05.22-21.7.15-4.32-.04-8.7-.09-12.68-.13-1.99-.02-3.88-.03-5.62-.05-.87,0-1.7,0-2.48-.01h-.58c-.26,0-.52,0-.78.01-.51.01-1.01.02-1.48.04-9.44.26-19.29,2.31-28.27,6.12-9,3.76-17.09,9.16-23.68,15.23-2.66,2.46-5.22,5.13-7.58,7.89-2.32,2.8-4.5,5.65-6.33,8.52-3.75,5.69-6.26,11.28-7.77,15.31-.57,1.58-1.17,3.73-1.63,5.95-.26,1.1-.45,2.22-.64,3.27-.2,1.08-.38,2.07-.53,2.91-.6,3.08-1.13,7-1.4,10.97-.04.99-.07,1.99-.11,2.98,0,.47-.02.94-.04,1.41v1.05c0,1.38,0,2.7-.02,3.9,0,14.72,0,26.42.02,36.63,0,12.92-.37,33.04-.3,40.23.09,8.26,1.01,14.02.71,21.37-.69,12.53.28,27.52-.87,39.38,1.09,35.5.57,68.63.11,101.83.07,17.73,1.17,36.98-.1,52.71,0,7.81-.29,17.63-.29,25.52,0,14.12.05,27.51.14,41.54.04,5.42.04,11.4.02,16.9-.02,3.4-.13,5.74-.17,8.98-.1,7.92,0,18.21,0,26.16,0,6.42-.04,15.34.16,21.26.09,1.88.15,3.18.24,5.13.03.95.07,1.93.1,2.94.05,1.17.07,2.37.19,3.59.16,2.44.46,4.96.82,7.44.73,4.97,1.94,9.75,3.12,13.49,2.68,8.59,6.45,16.23,11.66,23.46,2.6,3.62,5.6,7.12,9.12,10.47,3.52,3.35,7.55,6.56,12.25,9.49,9.32,5.81,19.89,9.74,30.77,11.41,1.6.21,3.18.44,4.74.58,1.56.11,3.09.27,4.6.3.76.02,1.51.03,2.25.05h1.85c1.03-.02,2.06-.04,3.08-.05,1.81-.06,3.9-.13,5.84-.2,12.09-.29,24.18-.59,36.98-.66,5.92-.04,12.39.07,18.16,0,1.43-.02,2.57-.11,3.83-.13,2.73-.04,5.06-.04,7.89-.03,8.6,0,17-.05,25.41.1,8.49.15,15.83.51,24.14.67,1.94.02,3.98.04,5.93.05,2.28.05,4.06.2,6.23.26,4.5.12,10.72.19,15.57.18,8.26,0,14.43-.04,22.52-.2,8.99-.18,13.25.03,22.1.05,6.57.01,13.96-.1,20.39-.02,6.05.07,3.12.22,6.01.5,5.34.53,23.58-.17,30.86-.18,24.96-.05,49.95.71,73.76.18,25.59-.57,57.9,0,76.86.28,2.44.04,6.34-.52,8.89-.51,12.97.1,26.98.2,40.23.3,7.07.04,12.69.37,19.69.43,9.56.08,20.3-1.03,24.14.18,3.02-.21,5.89-.31,8.69-.37,1.4-.02,2.78-.04,4.15-.06,1.44-.01,2.86-.02,4.28-.03,3.9-.04,7.82-.37,11.8-1,3.97-.68,8-1.69,12.09-3.16,8.38-2.39,16.71-6.3,24.15-11.74,7.44-5.41,14.09-12.17,19.34-19.88,5.27-7.7,9.27-16.27,11.72-25.09,1.23-4.41,2.13-8.86,2.68-13.28.24-2.21.48-4.41.56-6.59.09-1.72.17-3.43.26-5.14-1.4-19.69.21-34.93-1.04-54.4,1.04-6.59.13-16.08.75-23.29-.74-30.69-.24-62.26-.17-93.78.02-9.21.07-25.68-.08-28.59-.61-11.86.64-15.17.18-24.13-.44-8.62.04-38.2.04-44.67-.07-16.65-.14-31.84-.21-49.11.11-15.3.24-32.96.36-48.27.01-7.08-.39-17.47-.39-24.98,0-13.98.8-30.49.3-40.23-.28-5.37.08-4.21.06-8.05,0-.52-.01-1.05-.02-1.58-.02-.73-.05-1.46-.07-2.2-.03-1.47-.16-2.96-.3-4.47-.27-3-.76-6.04-1.39-9.04-1.25-6.01-3.22-11.84-5.5-17.08-4.55-10.52-11.29-20.13-19.6-28-8.3-7.89-18.2-13.98-28.68-17.88-5.38-1.48-12.53-3.19-20.56-3.75-1-.06-2.02-.15-3.04-.19-1.02-.02-2.06-.05-3.1-.07-1.53,0-3.08-.01-4.65-.02-2.98-.03-6.01-.06-9.02-.09-12.03-.15-23.6-.41-29.43-.11-9.16.47-20.78-.33-28.57.08-1.31.07-2.26.09-3,.1h-.48s-.05-.03-.07-.04c-.08-.05-.14-.14-.29-.11-2.8.41-4.68-.14-7.29-.34-1.98-.15-3.92-.12-5.91-.22-.82.57-.9,1.38-1.29,1.9-.45.61-1.02.81-1.22,1.33-.14.38.27,1.04.17,1.45.97-.59,1.1.98.55,1.2-2.31,1.43-2.14,3.08-2.34,4.69-.95,1.08-1.67.29-2.53.64-.17,1.81.52,3.69-1.72,5.32.23.88.66,1.78.02,2.59l-1.91,1.27c.11,1.06-.48,2.08-.74,3.1-.19.74-.12,1.61-.6,1.96-.52.38.29,1.02.16,1.45-.98.49-1.41,1.03-1.6,1.59.22,1.74-.22,3.43.73,5.24-.42.92-.63,1.86-1.05,2.79,1.5,1.95.07,3.65,1.73,5.61-.05.76-1.73,1.38-.98,2.22,1.6-.7,2.78,1.94,4.16,2.95.81-.39,1.66-.07,2.45-.08.79,0,2.84-.29,3.14-.02.38.35.32.02.69.06,1.05.1,2.09-.16,2.83-.33.57-.13.88-.08,1.45-.45,1.36,1.02,3.31.38,4.83.42.31,0,.68.36,1,.37.52.03.91-.45,1.45-.45.95,0,1.79.43,2.76.24-5.15-.02,19.14-.23,34.18-.21,7.63.06,15.64.12,24.13.18,1.34,0,2.26.29,3.61.31,2.44.04,6.32-.52,8.89-.51,1.27,0,2.43.15,3.59.31.29.04.58.08.87.11l.44.05c.13.02.2.04.3.06.38.07.77.13,1.18.14,1.72.1,3.9-.23,5.66.14,2.1.41,4.94,1.18,7.88,2.57,2.96,1.34,5.99,3.29,8.59,5.52,1.32,1.1,2.47,2.32,3.55,3.47,1.02,1.2,1.98,2.34,2.72,3.44,1.53,2.17,2.5,3.96,2.99,4.78,1.42,2.32,2.38,5.09,2.9,7.73.54,2.64.64,5.14.68,7.04,0,.36.03.79.1,1.28l.02.18.02.28c.01.19.03.39.04.6.03.4.06.81.09,1.23.13,1.65.26,3.32.28,4.49.04,3.29-.11,12.27-.12,16.1-.02,11.4-.15,19.98-.24,32.18-.04,5.34-.08,10.73-.12,16.09-.05,6.02-.43,13.82-.43,19.7,0,4.24.69,9.12.76,13.33.09,4.91-.61,10.21-.69,15.25-.03,2.11.47,6.65.51,8.89.01.76-.3,2.75-.31,3.61-.03,2.4.51,6.34.51,8.89.02,12.59-.57,28.27-.55,35.78.02,6.41.45,11.1.45,16.93,0,23.05-.23,47.39-.48,64.36-.03,2.35.49,6.4.51,8.89.02,3.11-.38,8.25-.37,11.65.02,6.5.46,10.95.45,16.93-.04,24.38-.61,45.33-.79,67.97.98,9.58.22,16.58.96,25.82-1.1,9.85-.32,16.52-.18,24.13.03,1.67-.37,9.44-.37,11.64.02,3.41.03,6.84.05,10.3.02,1.72.03,3.45.05,5.18l.03,2.59v2.08c-.01,4.43-.85,8.78-2.47,12.7-1.63,3.96-3.93,7.64-6.83,10.75-2.89,3.11-6.3,5.69-10.01,7.6-3.72,1.88-7.72,3.08-11.81,3.6l-1.54.15c-.51.05-1.04.04-1.55.08-.51.05-1.04,0-1.56.01h-.78l-1.23-.02c-3.31-.07-6.62-.14-9.94-.21-10,.35-18.33-.44-29.42.65-11.85-1.15-26.85-.17-39.39-.87-21.54.82-41.31.44-59.92-.73-23.18,0-42.63-.48-65.81-.48-4.13,0-10.08-.06-14.37,0-4.7.06-6.22.2-10.11.45-3.85.24-6.06.41-10.82.27-2.04-.06-2.91-.18-5.23-.23-1.98-.04-4.1,0-6.11-.01-4.69,0-9.51.01-14.18.02-5.42.04-9.54.24-14.59.32-10.1.15-20.61-.15-30.55-.17-12.76-.03-24.68-.26-37.2-.32h-22.36c-4.22,0-8.9.04-13-.01-4.49-.06-8.58-.25-13.33-.29-14.95-.15-29.48-.17-44.66-.17-5.17,0-10.96-.05-16.12,0-3.65.03-4.67.11-7.85.23-3.72.14-6.36.04-10.03.08-1.77.02-2.83.11-4.45.14-6.01.12-12.62.02-18.64-.04-4.01-.04-7.9-.11-11.74-.19-.96-.02-1.91-.04-2.86-.06l-1.42-.03-.66-.02-.42-.03c-1.13-.06-2.25-.19-3.35-.36-4.39-.7-8.52-2.23-12.42-4.58-6.13-3.72-10.92-9.12-13.94-15.79-1.78-3.95-2.88-8.08-3.07-12.46l-.04-.73c0-.08,0-.33-.01-.53v-.62l-.02-2.47c0-1.64,0-3.29-.01-4.92-.02-3.27-.04-6.52-.06-9.77-.15-10.34-.07-21.51-.08-32.19,0-6.24.08-9.19.23-15.29.09-4,.13-5.51,0-9.43-.13-3.94-.43-6.86-.52-11.16-.07-3.11-.03-7.01-.03-10.35,0-9.17.04-17.24.19-26.06.09-3.17.17-6.04.26-9.2.01-2.95.03-6.12.04-8.95.06-3.02.06-1.03.06-4.93l.08-.06Z"/>
  <path class="st0" d="M-391.57,391.4c3.27-.53,6.63,0,8.54-.08,4.6-.18,6.69-.86,10.12-.9,5.7-.07,25.18,1.34,28.84.71,3.09-.53,6.98.26,9.62.24.88,0,1.78-.46,2.65-.51,1.34-.08,3.03.42,4.81.12,1.97-.34,1.75.29,3.48.37.72.03,1.9-.5,2.66-.51,4.61-.05,8.73.06,13.34.04,6.02-.03,11.85-.1,15.75.1.44.02.64.29,1.08.31.73.04,1.89-.52,2.65-.51,3.83.05,7.16.24,9.61.24.44,0,.88-.26,1.33-.25.74,0,1.41.62,2.15.63,3.05.05,5.91-1.01,7.21.18l5.31-1.02c1.45.06,2.89.13,4.33.19l2.19.07c.48.01.43.02.57.03l.32.03c.84.07,1.68.11,2.51.14,1.65.07,3.25.12,4.65.37,1.2.21,2.69.21,3.45.3.54.06.75.55,1.31.69.82.2,2.11-.13,2.69.81.41-1.65,1.35.22,2.07.18.35-.02,1.35-.75,2.22-.96.06-.01.24.3.31.31.18.03.57-.47.76-.51.07-.01.24.3.31.31.54.09,3.76-2.42,4.19-2.8.32-.28.17-.62.45-.82.34-.26-.01-.47.07-.57,1.08-1.26,2.11-1.48,2.36-2.1.56-1.37,1.69-2.35,1.81-3.29.05-.38.15-.75.14-1.14,1.63-.72,1.11-1.63,2.74-2.35-.7-.82-.02-1.75-.02-2.59,0-.34.21-.79.14-1.14-.04-.23-.55-.4-.62-.63-.04-.11.45-.67.45-.82.05-1.33.25-2.77.12-3.73-.07-.54-.16-.95-.16-1.45,0-.37.16-.73.14-1.14-.01-.41-.25-.77.14-1.14.51.55,1.09.61,1.69.43-1-.85-.09-1.54-1.09-2.39.57-.43.63-.59.14-1.14-.43-.48-.04-1.6-.09-2.02-.07-.64-.43-.78-.86-1.51-.51-.86.26-2.58-1.33-3.28.19-.65,1.1-1.25,1.29-1.9-.83-1.8-2.29-3.65-2.11-5.36-1.62-.07-1.95-1.85-3.16-2.57-.38-.23-1.96.39-2-.75-1.13-.3-2.44.92-3.52.27-1.16-.87.47-1.49-1.09-2.39-1.83.81-3.8.07-5.6.09-1,.01-1.77.28-2.83.33-.87.04-2.08-.47-2.83.33-1.44-.98-4.01-.73-5.14-.73-.21,0-.41-.62-.62-.63-.34-.01-1.18.41-1.45.45-.37.06-.75.06-1.13.04l-.58-.04-.29-.02h-.14l-.39-.02c-2.59-.05-4.98-.05-6.74.25-2.76.47-10.08-.07-13.35-.04-4.05.03-8.42.25-12.27.27-3.11.02-6.46-.4-8.29-.49-.71-.03-1.9.5-2.65.51-1.34.02-3.38-.13-4.81-.12-4.4,0-7.89.01-10.94.02-3.86,0-9.87-.37-12.02-.3-2.47.09-4.19,1.01-6.38.71-3.74-.69-8.22.28-11.77-.87-10.61,1.09-20.5.57-30.42.11-5.3.07-11.05,1.17-15.75-.1-2.33.01-5.27-.29-7.62-.29-4.22,0-8.22.05-12.41.14-1.62.04-3.41.04-5.05.02-1.01-.02-1.72-.13-2.68-.17-2.37-.1-5.44,0-7.82,0-1.92,0-4.58-.04-6.35.16-.57.07-.94.17-1.53.24-1.86.22-4.38.06-6.04-.17-3.82-.54-7.1-1.36-11.73-1.34h-6.9c-1.35,0-2.61-.02-3.83.08-.51.06-1.19.13-1.75.2-3.61.29-7.22.59-11.05.66-1.77.04-3.7-.07-5.42,0-.43.02-.77.11-1.15.13-.81.04-1.51.04-2.36.03-2.57,0-5.08.05-7.59-.1-2.54-.15-4.73-.51-7.21-.67-.58-.04-1.19,0-1.77-.05-.68-.05-1.21-.2-1.86-.26-1.34-.12-3.2-.19-4.65-.18-2.47,0-4.31.04-6.73.2-2.69.18-3.96-.03-6.6-.05-1.96-.01-4.17.1-6.09.02-1.81-.07-.93-.22-1.8-.5-1.6-.53-7.04.17-9.22.18-7.46.05-14.92-.71-22.03-.18-7.65.57-17.3,0-22.96-.28-.73-.04-1.89.52-2.65.51-3.88-.04-8.06-.23-12.02-.3-2.11-.04-3.79-.37-5.88-.43-2.86-.08-6.07,1.03-7.21-.18-3.61.83-6.51.07-10.12.9-7.25-1.01-15.58.44-22.71-.85-5.88,1.4-10.44-.21-16.25,1.04-1.97-1.04-4.8-.13-6.96-.75-9.17.74-18.6.24-28.02.17-2.75-.02-7.67-.07-8.54.08-3.54.61-4.53-.64-7.21-.18-2.57.44-11.41-.04-13.35-.04-4.98-.01-9.51.23-14.67.21-4.57-.02-9.84-.33-14.42-.36-2.11-.01-5.22.39-7.46.39-4.18,0-9.11-.8-12.02-.3-1.61.28-1.26-.08-2.4-.06-2.38.05-5.09.43-7.46.39-4.75-.07-9.59-.42-14.17-.93-4.58,1.45-14.92-.19-18.4.41-2.74.47-6.21-.33-8.54.08-.39.07-.68.09-.9.1-.14,0-.16,0-.17-.01-.02,0-.05-.02-.07-.03-.08-.05-.14-.14-.29-.11-2.8.41-4.68-.14-7.29-.34-1.98-.15-3.92-.12-5.91-.22-.82.57-.9,1.38-1.29,1.9-.45.61-1.02.81-1.22,1.33-.14.38.27,1.04.17,1.45.97-.59,1.1.98.55,1.2-2.31,1.43-2.14,3.08-2.34,4.69-.95,1.08-1.67.29-2.53.64-.17,1.81.52,3.69-1.72,5.32.23.88.66,1.78.02,2.59l-1.91,1.27c.11,1.06-.48,2.08-.74,3.1-.19.74-.12,1.61-.6,1.96-.52.38.29,1.02.16,1.45-.98.49-1.41,1.03-1.6,1.59.22,1.74-.22,3.43.73,5.24-.42.92-.63,1.86-1.05,2.79,1.5,1.95.07,3.65,1.73,5.61-.05.76-1.73,1.38-.98,2.22,1.6-.7,2.78,1.94,4.16,2.95.81-.39,1.66-.07,2.45-.08.79,0,2.84-.29,3.14-.02.38.35.32.02.69.06,1.05.1,2.09-.16,2.83-.33.57-.13.88-.08,1.45-.45,1.36,1.02,3.31.38,4.83.42.31,0,.68.36,1,.37.52.03.91-.45,1.45-.45.95,0,1.79.43,2.76.24.9-.01.63-.07,3.83-.12,2.43-.05,4.87-.1,7.37-.09,2.28,0,4.67.13,7.21.18.4,0,.67.29,1.08.31.73.04,1.89-.52,2.65-.51.76,0,1.38.61,2.15.63.82.02,1.82-.51,2.65-.51,4.02,0,13.96.41,15.75.1,2.54-.44,5.43.09,7.21.18.66.03,1.95-.48,2.65-.51.98-.04,3.67.11,4.81.12,3.41.02,5.97.15,9.61.24,1.6.04,3.21.08,4.81.12,1.8.05,4.13.43,5.88.43,1.27,0,2.73-.69,3.98-.76,1.47-.09,3.05.61,4.55.69.63.03,1.99-.47,2.65-.51.23-.01.82.3,1.08.31.72.03,1.89-.51,2.65-.51,3.76-.02,8.44.57,10.69.55,1.91-.02,3.32-.45,5.06-.45,6.89,0,14.16.23,19.23.48.7.03,1.91-.49,2.65-.51.93-.02,2.47.38,3.48.37,1.94-.02,3.27-.46,5.06-.45,7.28.04,13.54.61,20.3.79,2.86-.98,4.95-.22,7.71-.96,2.94,1.1,4.93.32,7.21.18.5-.03,2.82.37,3.48.37,4.07.01,8.29-.33,12.27-.27,8.05.12,15.85.6,23.78,1.16,2.99-.35,5.48.44,8.79-.65,3.54,1.15,8.02.17,11.77.87,6.44-.82,12.34-.44,17.9.73,6.93,0,12.73.48,19.66.48,1.23,0,3.01.06,4.29,0,1.4-.06,1.86-.2,3.02-.45,1.15-.24,1.81-.41,3.23-.27.61.06.87.18,1.56.23.59.04,1.22,0,1.83.01,1.4,0,2.84.02,4.23-.02,1.62-.04,2.85-.24,4.36-.32,3.02-.15,6.16.15,9.13.17,3.81.03,7.37.26,11.11.32,2.19.04,4.48,0,6.68,0,1.26,0,2.66-.04,3.88.01,1.34.06,2.56.25,3.98.29,4.47.15,8.81.17,13.34.17,1.54,0,3.28.05,4.82,0,1.09-.03,1.39-.11,2.34-.23,1.11-.14,1.9-.04,3-.08.53-.02.84-.11,1.33-.14,1.79-.12,3.77-.02,5.57.04,4.79.16,9.03.75,13.72,1.04,3.7.22,7.24.4,11.08.34,2.26-.03,4.47-.22,6.7-.3,1.97-.07,3.93-.02,5.87-.11,3.09-.15,6.43-.07,9.62-.08,1.86,0,2.74.08,4.57.23,1.19.09,1.65.13,2.82,0,1.18-.13,2.05-.43,3.33-.52.93-.07,2.1-.03,3.09-.03,2.74,0,5.15.04,7.79.19.95.05,1.8.21,2.75.26.88.05,1.83,0,2.67.04.9.06.31.06,1.47.06l.09.05Z"/>
  <path class="st0" d="M-671.08,192.08c-.48.76,0-.18-.07-.11-.16.15-.78,1.06-.82.97-.03-.07.27-.78.52-1.28.24-.51.42-.84.13-.58-.48.42.23-.46.22-.5,0-.02-.41.34-.46.35-.08.02.39-.44.11-.25-.31.19.26-.28.34-.38.03-.04-.46.3-.46.28-.04-.13.06-.34.04-.48-.03-.18-.09-.37.09-.56.02-.02.27-.1.29-.12.03-.03-.47.08-.46.05.05-.15.22-.29.22-.36,0-.01-.23,0-.23-.02,0-.03.56-.1.57-.11.04-.06-.92-.18.16-.18-.31-.06-.62-.14-.92-.24.12-.07.19-.14.26-.21.26-.19.26-.46.67-.44.21.02.26-.06.35-.05.07,0,.44.3.55.37.15.11-.03-.16.6.5-1.07-1.2.16.13.12.13-.02,0-.44-.6-.52-.79.01.02.16.24.18.25.02.02-.23-.4-.24-.44.01.02.15.24.17.26.03.04-.25-.5-.46-1.13-.22-.62-.37-1.35-.41-1.54-.06-.28-.19-.58-.22-.79-.03-.26-.16-.44-.18-.54-.22-1.26,0-1.56-.09-2.15-.2-1.35,0-2.43-.12-3.37-.05-.37-.07-.75-.14-1.12.3-.39.37-.82.45-1.25.1-.41.14-.9.6-1.25-.48-.81-.16-1.74-.21-2.58-.03-.34.08-.79.02-1.14-.05-.23-.42-.39-.49-.61-.04-.11.27-.68.27-.83-.07-1.33,0-2.77-.17-3.72-.1-.53-.22-.94-.26-1.44-.03-.36.09-.73.05-1.14-.04-.41-.31-.75.06-1.14.55.53,1.11.55,1.71.35-1.03-.8-.09-1.54-1.2-2.34.6-.46.69-.62.11-1.15-.51-.46-.12-1.59-.19-2.01-.12-.63-.56-.75-1.14-1.45-.35-.41-.32-1.06-.46-1.68-.14-.62-.46-1.22-1.6-1.4.17-.7,1.41-1.45,1.62-2.09-1.27-1.76-3.87-3.16-3.87-4.91-1.34.15-2.22-.08-3.06-.44-.84-.35-1.65-.8-2.79-.87-.72-.02-3.14,1.5-3.6.46-1.01.2-1.92.91-2.83,1.52-.45.32-.91.62-1.36.87-.45.27-.91.48-1.41.58-2.24.3.06-1.77-2.9-1.07-1.25,1.26-2.68,2.31-4.14,3.32-1.4,1.09-2.92,2.06-4.07,3.31-.66.68-1.19,1.34-1.72,2.01-.52.68-1,1.42-1.61,2.21-1.02,1.26-2.72,2.9-2.82,4.55-1.16.84-2.19,2.47-3.1,4.08-.83,1.65-1.43,3.34-1.83,4.35-.13.38-.82.51-.96.91-.22.63-.3,2.34-.4,2.86-.28,1.42-.64,2.86-.98,4.37-.36,1.75-.48,3.43-.29,4.68.04.24.06.53.07.86.06.26.11.55.15.86.09.61.15,1.31.2,2.01.09,1.4.14,2.85.26,3.74.29,2.22.78,4.59,1.05,6.68.22,1.69.05,3.57.09,4.6.02.4.58.95.63,1.36.1.73.1,1.87.2,2.64.29,2.4.52,4.3.72,5.96.24,2.1.33,5.53.53,6.68.23,1.32,1.09,1.83.98,3.16-.31,2.39.74,4.29.08,6.88,1.52,5.16,1.73,10.75,2.08,16.61.41,2.88,1.48,4.95.97,8.73.16,1.27.17,3.18.32,4.48.28,2.32.58,4.48.91,6.68.13.85.25,1.82.34,2.76.06.58.04,1.1.08,1.68.05.71.14,1.46.24,2.19l.07.55c0,.11.04.12.07.16l.08.1c.11.13.22.26.32.39.31.42.71,1.03,1.18,1.23.14.06.27.02.41.08.23.09.44.34.63.64.22.31.41.67.55,1,.6,1.52,1.11,3.28,2.41,4.37.68.54,1.3,1.09,2.05,1.64.43.32.82.65,1.23.83.18.09.42.11.64.19.66.24,1.31.49,1.97.78.69.27,1.38.57,2.08.95.64.34,1.38.81,2.04,1.07.17.06.32.03.46.09.31.12.6.24.93.4,1.02.46,2.02.87,3.05,1.4.51.28.98.59,1.45.91.49.29.98.56,1.5.8.25.11.52.16.76.28.29.14.5.37.78.49.59.26,1.41.53,2.06.68,1.1.26,1.97.3,3.08.34,1.24,0,1.82.23,3.04.38.91.12,1.94,0,2.83.14.84.11.43.24.84.54.75.51,3.31-.24,4.3-.4.86-.11,1.74-.12,2.59-.2.84-.07,1.72-.15,2.56-.22,1.67-.25,3.33-.57,4.84-1.32,3.27-1.56,7.22-2.77,9.41-3.64.28-.12.56-.95.84-1.1.68-.36,1.4-.76,2.15-1.16.36-.19.72-.39,1.07-.58.33-.21.66-.42.98-.64.68-.46,1.34-.49,1.97-.92.44-.29.79-.93,1.13-1.37.3-.45.59-.68.99-.14.65-1.82,1.62-1.61,2.11-3.41.49-.12.92-.43,1.32-.84.42-.42.68-.84,1.02-1.3l.24-.33.12-.16s.04-.25.06-.36c.07-.55.14-1.08.22-1.58.17-1,.39-1.87.7-2.5-.18-2.49.02-3.88.25-5.28.23-1.39.47-2.77.3-5.05.78-.04.42-2.57.96-3.18.18-5.89,1.17-10.71,1.9-16.02.21-1.54.6-4.29.56-4.88-.2-2.39.8-2.16.65-3.97-.15-1.72.85-6.43.99-7.54.37-2.82.5-5.49.88-8.4.34-2.57.99-5.46,1.34-8.06.16-1.2.03-3.05.19-4.32.29-2.34,1.39-5.06,1.13-6.77-.14-.93.17-.71.23-1.36.12-1.36-.04-2.9.16-4.24s.48-2.7.8-4.05c.16-.68.34-1.36.53-2.03.09-.33.19-.67.29-1.01.05-.4.06-.85.09-1.27-.43-.8-.71-1.86-.91-3.05s-.44-2.5-.62-3.79c-.1-.65-.19-1.29-.31-1.91-.13-.61-.26-1.19-.4-1.73-.28-1.08-.58-1.98-.92-2.52-.56-.83-.91-1.89-1.25-2.93-.33-1.04-.69-2.04-1.27-2.67-.38-.44-.48-.67-.5-.82-.03-.17-.02-.32-.18-.57-.39-.62-.75-1.18-1.09-1.72-.37-.55-.72-1.07-1.06-1.57-.69-1.01-1.28-2.02-1.97-2.95-.66-.92-1.34-1.86-2.04-2.83-.74-.93-1.54-1.85-2.43-2.82-.66-.75-1.4-1.41-2.14-2.07-.74-.66-1.48-1.31-2.26-1.93-1.59-1.16-3.16-2.38-4.88-3.39-1.69-.33-2.21.32-3.1.43-1.03.13-2.1-.13-2.65.19-.4.24.03,1.16-.31,1.46,1.86.23,1.37,1.75.39,1.51-4.32-.45-4.54,1.33-5.42,2.7-1.79.52-2.57-.66-3.99-.65-.35.84-.4,1.78-.81,2.6-.41.83-1.18,1.53-2.82,1.97.15.94.49,1.95-.46,2.55-.87.26-1.72.58-2.54.88,0,1.07-.81,1.97-1.17,2.97-.27.73-.27,1.59-.79,1.92-.55.36.22,1.03.06,1.46-1,.44-1.4.96-1.57,1.51.14,1.75-.18,3.42.43,5.27-.32.91-.48,1.84-.72,2.74.42,1.01.37,1.92.37,2.83s-.05,1.84.27,2.83c-.16.77-.63,1.35-.45,2.2.15-.31.57.11.61.87.1.74.11,1.65.15,2.15.23-.31.33.03.48.04.14.04.63-.07.58.22-.07.35.05.05.1.11.14.17.42.07.65,0,.17-.04.19.04.49-.19-.34.99.3.74.51,1.03.04.05-.15.34-.13.41.04.1.43-.14.5-.05.13.16-.13.56.12.62.14.21.47.48.57.84.03.17-.02.38-.03.57,0,.03-.26.12-.27.15-.02.05.48.01.49.07,0,.06-.53.22-.55.27-.02.06.47.04.47.1.03.32-.36,1.01-.08,1.15.4.23-.08.39-.16.49-.03.04.44.23.46.29.04.09-.1.26-.11.34-.02.25-.14.4-.22.63l-.11.29c-.04.11-.39.07-.39.18,0,.07.63.57.7.71.08.17-.56-.16-.63-.11-.03.02.43.45.46.53.01.03-.28-.15-.29-.15-.03.02.46.5.46.56.02.32-.52.16-.5.31.02.14.41.64.41.77,0,.5-.21.8-.43.84-.03,0,.45.74.46.82.02.1-.35-.31-.34-.23.02.15.42.84.41.97-.04.5-.56.1-.72.23.89,1.82.2.69.87,2.18-1.01-1.73-.29-.22-.16.23.03.1-.34-.49-.34-.45-.01.25.3,1.23.25,1.42-.1.36-.64-.14-1.27-1.05.24,1.03-.46-.79.33,2.08-.51-1.32-.6-1.34-.66-1.21-.05.14-.07.43-.39-.4.39,2.45-.24,1.79-1.09-1.34-.26.21-.7-1.06-.92-.97-.05.02-.12-.12-.16.05-.04.19-.01.61,0,1.36,0,.73,0,1.23-.09.84-.04-.17-.07-.52-.11-.66-.03-.12-.06-.02-.08-.02-.06,0-.13-.04-.19.07-.07.13-.11.73-.19.96-.15.45-.3-.44-.44-.53-.18-.13-.3-.82-.44-1.06-.08-.13-.18-.03-.27-.06-.05-.02-.12.09-.15-.1-.03-.2,0-.76-.03-.93-.09-.52-.2-.66-.33-.77-.05-.03-.06-.21-.13-.12-.05.06-.11.27-.21.57-.12.35-.08.05-.14.14-.03.05-.09.26-.13.33-.14.26-.12-.07-.12-.29-.01-.58.38-2.24.56-3.05.14-.65.27-1.13.19-1.08-.04.03-.22.4-.3.51-.07.1-.03-.07-.12.08-.14.23-.07-.04-.08-.11,0-.04.07-.25.21-.58.09-.22.12-.29,0-.08s-.39.77-.48.9c-.06.09-.02-.02-.02-.06,0-.1.04-.25.17-.6.07-.15.17-.38.24-.53.05-.11,0-.04.04-.14.05-.12.06-.12.05-.14l.02-.05Z"/>
  <path class="st0" d="M-405.48,192.08c-.48.76,0-.18-.07-.11-.16.15-.78,1.06-.82.97-.03-.07.27-.78.52-1.28.24-.51.42-.84.13-.58-.48.42.23-.46.22-.5,0-.02-.41.34-.46.35-.08.02.39-.44.11-.25-.31.19.26-.28.34-.38.03-.04-.46.3-.46.28-.04-.13.06-.34.04-.48-.03-.18-.09-.37.09-.56.02-.02.27-.1.29-.12.03-.03-.47.08-.46.05.05-.15.22-.29.22-.36,0-.01-.23,0-.23-.02,0-.03.56-.1.57-.11.04-.06-.92-.18.16-.18-.31-.06-.62-.14-.92-.24.12-.07.19-.14.26-.21.26-.19.26-.46.67-.44.21.02.26-.06.35-.05.07,0,.44.3.55.37.15.11-.03-.16.6.5-1.07-1.2.16.13.12.13-.02,0-.44-.6-.52-.79.01.02.16.24.18.25.02.02-.23-.4-.24-.44.01.02.15.24.17.26.03.04-.25-.5-.46-1.13-.22-.62-.37-1.35-.41-1.54-.06-.28-.19-.58-.22-.79-.03-.26-.16-.44-.18-.54-.22-1.26,0-1.56-.09-2.15-.2-1.35,0-2.43-.12-3.37-.05-.37-.07-.75-.14-1.12.3-.39.37-.82.45-1.25.1-.41.14-.9.6-1.25-.48-.81-.16-1.74-.21-2.58-.03-.34.08-.79.02-1.14-.05-.23-.42-.39-.49-.61-.04-.11.27-.68.27-.83-.07-1.33,0-2.77-.17-3.72-.1-.53-.22-.94-.26-1.44-.03-.36.09-.73.05-1.14-.04-.41-.31-.75.06-1.14.55.53,1.11.55,1.71.35-1.03-.8-.09-1.54-1.2-2.34.6-.46.69-.62.11-1.15-.51-.46-.12-1.59-.19-2.01-.12-.63-.56-.75-1.14-1.45-.35-.41-.32-1.06-.46-1.68s-.46-1.22-1.6-1.4c.17-.7,1.41-1.45,1.62-2.09-1.27-1.76-3.87-3.16-3.87-4.91-1.34.15-2.22-.08-3.06-.44-.84-.35-1.65-.8-2.79-.87-.72-.02-3.14,1.5-3.6.46-1.01.2-1.92.91-2.83,1.52-.45.32-.91.62-1.36.87-.45.27-.91.48-1.41.58-2.24.3.06-1.77-2.9-1.07-1.25,1.26-2.68,2.31-4.14,3.32-1.4,1.09-2.92,2.06-4.07,3.31-.66.68-1.19,1.34-1.72,2.01-.52.68-1,1.42-1.61,2.21-1.02,1.26-2.72,2.9-2.82,4.55-1.16.84-2.19,2.47-3.1,4.08-.83,1.65-1.43,3.34-1.83,4.35-.13.38-.82.51-.96.91-.22.63-.3,2.34-.4,2.86-.28,1.42-.64,2.86-.98,4.37-.36,1.75-.48,3.43-.29,4.68.04.24.06.53.07.86.06.26.11.55.15.86.09.61.15,1.31.2,2.01.09,1.4.14,2.85.26,3.74.29,2.22.78,4.59,1.05,6.68.22,1.69.05,3.57.09,4.6.02.4.58.95.63,1.36.1.73.1,1.87.2,2.64.29,2.4.52,4.3.72,5.96.24,2.1.33,5.53.53,6.68.23,1.32,1.09,1.83.98,3.16-.31,2.39.74,4.29.08,6.88,1.52,5.16,1.73,10.75,2.08,16.61.41,2.88,1.48,4.95.97,8.73.16,1.27.17,3.18.32,4.48.28,2.32.58,4.48.91,6.68.13.85.25,1.82.34,2.76.06.58.04,1.1.08,1.68.05.71.14,1.46.24,2.19l.07.55c0,.11.04.12.07.16l.08.1c.11.13.22.26.32.39.31.42.71,1.03,1.18,1.23.14.06.27.02.41.08.23.09.44.34.63.64.22.31.41.67.55,1,.6,1.52,1.11,3.28,2.41,4.37.68.54,1.3,1.09,2.05,1.64.43.32.82.65,1.23.83.18.09.42.11.64.19.66.24,1.31.49,1.97.78.69.27,1.38.57,2.08.95.64.34,1.38.81,2.04,1.07.17.06.32.03.46.09.31.12.6.24.93.4,1.02.46,2.02.87,3.05,1.4.51.28.98.59,1.45.91.49.29.98.56,1.5.8.25.11.52.16.76.28.29.14.5.37.78.49.59.26,1.41.53,2.06.68,1.1.26,1.97.3,3.08.34,1.24,0,1.82.23,3.04.38.91.12,1.94,0,2.83.14.84.11.43.24.84.54.75.51,3.31-.24,4.3-.4.86-.11,1.74-.12,2.59-.2.84-.07,1.72-.15,2.56-.22,1.67-.25,3.33-.57,4.84-1.32,3.27-1.56,7.22-2.77,9.41-3.64.28-.12.56-.95.84-1.1.68-.36,1.4-.76,2.15-1.16.36-.19.72-.39,1.07-.58.33-.21.66-.42.98-.64.68-.46,1.34-.49,1.97-.92.44-.29.79-.93,1.13-1.37.3-.45.59-.68.99-.14.65-1.82,1.62-1.61,2.11-3.41.49-.12.91-.43,1.32-.84.42-.42.68-.84,1.02-1.3l.24-.33.12-.16s.04-.25.07-.36c.07-.55.14-1.08.22-1.58.17-1,.39-1.87.7-2.5-.18-2.49.02-3.88.25-5.28.23-1.39.47-2.77.3-5.05.78-.04.42-2.57.96-3.18.18-5.89,1.17-10.71,1.9-16.02.21-1.54.6-4.29.56-4.88-.2-2.39.8-2.16.65-3.97-.15-1.72.85-6.43.99-7.54.37-2.82.5-5.49.88-8.4.34-2.57.99-5.46,1.34-8.06.16-1.2.03-3.05.19-4.32.29-2.34,1.39-5.06,1.13-6.77-.14-.93.17-.71.23-1.36.12-1.36-.04-2.9.16-4.24.2-1.34.48-2.7.8-4.05.16-.68.34-1.36.53-2.03.09-.33.19-.67.29-1.01.05-.4.06-.85.09-1.27-.43-.8-.71-1.86-.91-3.05-.2-1.19-.44-2.5-.62-3.79-.1-.65-.19-1.29-.31-1.91-.13-.61-.26-1.19-.4-1.73-.28-1.08-.58-1.98-.92-2.52-.56-.83-.91-1.89-1.25-2.93-.33-1.04-.69-2.04-1.27-2.67-.38-.44-.48-.67-.5-.82-.03-.17-.02-.32-.18-.57-.39-.62-.75-1.18-1.09-1.72-.37-.55-.72-1.07-1.06-1.57-.69-1.01-1.28-2.02-1.97-2.95-.66-.92-1.34-1.86-2.04-2.83-.74-.93-1.54-1.85-2.43-2.82-.66-.75-1.4-1.41-2.14-2.07-.74-.66-1.48-1.31-2.26-1.93-1.59-1.16-3.16-2.38-4.88-3.39-1.69-.33-2.21.32-3.1.43-1.03.13-2.1-.13-2.65.19-.4.24.03,1.16-.31,1.46,1.86.23,1.37,1.75.39,1.51-4.32-.45-4.54,1.33-5.42,2.7-1.79.52-2.57-.66-3.99-.65-.35.84-.4,1.78-.81,2.6-.41.83-1.18,1.53-2.82,1.97.15.94.49,1.95-.46,2.55-.87.26-1.72.58-2.54.88,0,1.07-.8,1.97-1.17,2.97-.27.73-.27,1.59-.79,1.92-.55.36.22,1.03.06,1.46-1,.44-1.4.96-1.57,1.51.14,1.75-.18,3.42.43,5.27-.32.91-.48,1.84-.72,2.74.42,1.01.37,1.92.37,2.83s-.05,1.84.27,2.83c-.16.77-.63,1.35-.45,2.2.15-.31.57.11.61.87.1.74.11,1.65.15,2.15.23-.31.33.03.48.04.14.04.63-.07.58.22-.07.35.05.05.1.11.14.17.42.07.65,0,.17-.04.19.04.49-.19-.34.99.3.74.51,1.03.04.05-.15.34-.13.41.04.1.43-.14.5-.05.13.16-.13.56.12.62.14.21.47.48.57.84.03.17-.02.38-.03.57,0,.03-.26.12-.27.15-.02.05.48.01.49.07,0,.06-.53.22-.55.27-.02.06.47.04.47.1.03.32-.36,1.01-.08,1.15.4.23-.08.39-.16.49-.03.04.44.23.46.29.04.09-.1.26-.11.34-.02.25-.14.4-.22.63l-.11.29c-.04.11-.39.07-.39.18,0,.07.63.57.7.71.08.17-.56-.16-.63-.11-.03.02.43.45.46.53.01.03-.28-.15-.29-.15-.03.02.46.5.46.56.02.32-.52.16-.5.31.02.14.41.64.41.77,0,.5-.21.8-.43.84-.03,0,.45.74.46.82.02.1-.35-.31-.34-.23.02.15.42.84.41.97-.04.5-.56.1-.72.23.89,1.82.2.69.87,2.18-1.01-1.73-.29-.22-.16.23.03.1-.34-.49-.34-.45-.01.25.3,1.23.25,1.42-.1.36-.64-.14-1.27-1.05.24,1.03-.46-.79.33,2.08-.51-1.32-.6-1.34-.66-1.21-.05.14-.07.43-.39-.4.39,2.45-.24,1.79-1.09-1.34-.26.21-.7-1.06-.92-.97-.05.02-.12-.12-.16.05-.04.19-.01.61,0,1.36,0,.73,0,1.23-.09.84-.04-.17-.07-.52-.11-.66-.03-.12-.06-.02-.08-.02-.06,0-.13-.04-.19.07-.07.13-.11.73-.19.96-.15.45-.3-.44-.44-.53-.18-.13-.3-.82-.44-1.06-.08-.13-.18-.03-.27-.06-.05-.02-.12.09-.15-.1-.03-.2,0-.76-.03-.93-.09-.52-.2-.66-.33-.77-.05-.03-.06-.21-.13-.12-.05.06-.11.27-.21.57-.12.35-.08.05-.14.14-.03.05-.09.26-.13.33-.14.26-.12-.07-.12-.29-.01-.58.38-2.24.56-3.05.14-.65.27-1.13.19-1.08-.04.03-.22.4-.3.51-.07.1-.03-.07-.12.08-.14.23-.07-.04-.08-.11,0-.04.07-.25.21-.58.09-.22.12-.29,0-.08s-.39.77-.48.9c-.06.09-.02-.02-.02-.06,0-.1.04-.25.17-.6.07-.15.17-.38.24-.53.05-.11,0-.04.04-.14.05-.12.06-.12.05-.14v-.05Z"/>
  <path class="st0" d="M-390.28,640.51c-1.75.15-.39-2.86-.85-4.03-3.45-1.56-5.17-5.18-7.34-8-1.21-1.57-2.27-2.4-3.26-3.2-.27-.22.2-1.33-.02-1.61-.22-.29-1.32-.55-1.62-.79-.26-.21.18-1.32-.02-1.61-.18-.27-1.35-.57-1.62-.79s.21-1.33-.02-1.61c-.99-1.23-2.86-2.74-4.08-4-1.53-1.59-3.57-2.24-4.08-4.8-2.27-.1-3.3-1.84-4.87-3.18-1.43-1.22-2.74-2.67-4.08-4-1.37-1.37-2.74-2.57-4.07-4-1.07-1.14-1.93-2.56-2.45-3.2-.13-.16.13-.65,0-.81-.22-.27-1.37.27-1.61.02-2.15-2.25-3.95-4.74-5.71-6.4-2.31-2.19-4.57-3.58-6.51-5.59-1.26-1.31-3-2.88-3.27-4.81-2.79-1.33-5.19-3.5-7.32-5.58-2.12-2.08-4.33-4.45-5.72-7.21-3.29-.99-4.81-3.79-6.52-6.4-2.82-1.47-5.57-3.02-6.52-6.39.14-1.87,1.94-2.45,2.39-3.25,1.08-1.92.62-3.54,1.57-4.86,1.57-2.19,9.5-7.64,9.59-9.78.08-1.8,2.45-2.26,3.2-3.26.25-.34-.19-1.22-.02-1.61.26-.6,1.55-.6,1.6-1.63.05-1.15.97-.29,1.61-.82.26-.22-.23-1.32-.02-1.61,1.28-1.76,2.66-3.15,3.99-4.88,1.73-2.26,3.32-4.51,4.79-5.7.16-.13.65.13.81,0,.27-.23-.26-1.35-.02-1.61,1.21-1.35,2.48-2.34,3.2-3.26.13-.17-.14-.64,0-.81.22-.27,1.38.25,1.61-.02.97-1.07.16-3.44,2.4-2.44l-.03-3.23c4.33-3.47,7.54-8.4,11.19-11.41,1.55-1.28,3.08-3.2,4-4.07.65-.62,1.64-.28,2.41-.83,1.16-.81,1.96-2.87,4.01-2.46-2.15-2.57,1.72-1.47,2.4-2.44.33-.48.2-2.67.77-4.04.04-.09.72.07.81,0,.23-.2-.15-1.32-.02-1.61.05-.1.71.07.81,0,.69-.58.07-7.85-.09-8.88-.11-.75-.78-.99-.82-1.61-.05-.76-.75-.57-.82-.8-.87-2.95-.15-4.55-.86-5.64-1.58-2.42-1.94-5.1-3.29-6.43-.54-.53-1.02-1.13-1.63-1.6.54-3-1.41-3.45-.87-6.45-2-.12-2.76-2.14-4.07-3.19-.53-.42-1.02-1.25-1.63-1.6-.4-.23-1.18.2-1.61.02-.22-.09-.59-1.41-.82-1.61-2.03-1.71-4.07-3.76-5.7-4.79-.91-.58-1.66-.97-2.44-1.59-.57-.45-.97-1.11-1.63-1.6-.66-.49-1.46-.63-1.63-1.6,1.39.03,2.06-.64,2.4-1.64-2.36.23-2.5-1.8-4.86-1.57-.09-1.27-.28-1.54-1.63-1.6-1.19-.05-2.54-1.92-3.25-2.39-1.07-.7-1.65-.42-3.24-.78-1.86-.42-3.76-3.54-6.48-2.36-.83-1.05-.82-2.97-1.65-4.02-3.65-1.17-8.04-1.59-10.53-3.93-1.76,2-4.88.21-7.26.88-.75.21-1.39,3.01-3.21,1.65-1.63,1.07-1.07,4.28-3.18,4.87-2.54.42-1.85-2.46-4.86-1.57-.61,3.35-3.78,4.98-5.58,7.32-1,1.3-1.38,2.62-2.38,4.06-.82,1.17-2.87,2.1-2.38,4.06-3.01.63-5.24,4.27-6.4,5.71-.22.27-1.39-.25-1.61.02-.37.42-.57,2.03-.78,2.43-1.14,2.17-3.89,3.63-3.98,5.69-.07,1.61-3.07,3.64-3.99,4.88-1.14,1.54-2.09,3.42-3.18,4.87-.88,1.17-2.53,1.89-3.21,2.45-.26.22.22,1.32.02,1.61-.37.52-1.19,1.09-1.6,1.63-1.25,1.66-2.29,2.94-3.19,4.07-1.14,1.42-3.48,3.19-4,4.07-.59,1.02.35,2.8-.78,3.24-2.18.52-1.97,3.39-4.81,3.27-1.42,5.27-5.13,8.29-8.77,11.38-1.45,2.05-1.41,5.54-4.79,5.7-2.47-1.28-3.48-4.06-4.91-6.41-1.69-.65-3.46-1.92-4.87-3.18-1.17-1.05-4.04-4.11-4.08-4.8-.06-.93-.52-.35-.81-.8-1.19-1.8-2.75-2.92-3.27-4.81-1.82-.87-4.06-1.3-5.67-2.37-.13-1.32-2.27-2.26-2.44-2.4-1.2-.96.14-3.14-1.64-3.21-.97-.04-1.17-1.8-1.64-2.41-1.55-1.98-2.74-2.93-4.07-4-.27-.22.2-1.33-.02-1.61-1.56-2.14-4.74-3.08-4.9-5.6-.05-.83-4.12-4.83-4.08-4.8-1.14-.76-3.06-.66-4.05-1.58-.13-.12-.82-1.49-.82-1.61-.11-1.78-2.52-1.68-2.45-3.21-2.91.24-3.91-1.45-6.47-1.55-2.9-3.59-7.22-4.38-11.35-5.54-.07-.02.05-.74,0-.81-.22-.26-1.32.21-1.61.02-1.41-.93-2.7-3.23-4.08-4.8-1.29-1.45-2.68-3.65-4.08-4.8-2.15-1.76-4.9-.83-5.69-3.98-2.29-.65-2.08,1.16-4.03.85-1.54-.33-1.48-2.29-4.05-1.57-.11,1.49-2.73.52-3.21,1.64-.8,1.08-.73,3.01-2.39,3.25-1.99-2.64-3.99-.23-8.08-.73-2.18.52-1.98,3.39-4.81,3.28l-4.03.04c-.69,2.18-2.14,2.22-4.01,2.46-2.59.34-1.39,1.49-4.02,1.65-1.58.1-2.58,3.06-4.83,1.66-.72,1.43-1.78,2.52-3.2,3.26-1.72.98-4.5.91-5.63,2.48-.23,2.91-1.99,6.01-1.53,8.89.14.89,1.3,2.26,2.46,4.01.33.49,1.32,1.03,1.63,1.6.5.91.32,1.69.83,2.41.35.5,1.27,1.04,1.63,1.6.44.69.3,1.71.83,2.41.86,1.15,2.59,1.86,3.25,2.39.27.22-.2,1.33.02,1.61.96,1.28,2.3,1.99,3.26,3.2,1.02,1.28,1.47,2.87,2.46,4.01,1,1.15,2.42,2.32,3.26,3.2,1.33,1.38,2.25,2.97,4.07,3.19.03,1.74,1.44,2.76,2.46,4.01,2.22,2.73,3.91,4.7,5.72,7.21.83,1.15,2.39,2.26,2.45,3.2s.49.35.81.8c.89,1.24,1.63,2.81,2.46,4.01.34.5,1.26,1.05,1.63,1.6.19.28.81,1.36.82,1.61.06.94.5.35.81.8,1.84,2.65,4.21,5.47,4.93,8.83,2.57,1.33,4.08,4.36,4.9,5.6.59.9.83.96,1.63,1.6.24.19-.13,1.32.02,1.61.05.1.71-.08.81,0,.27.22-.2,1.33.02,1.61.78,1.03,2.33,2.16,3.26,3.2.55.6,1.09.89,1.63,1.6,1.27,1.67,2.38,2.84,3.27,4,1.92,2.51,3.98,3.66,5.7,5.6.51.57.39,1.86.83,2.41.54.68,1.86.93,2.44,1.59,1.1,1.27,1.15,2.14,1.64,3.21.09.2,1.43.58,1.62.79,1.2,1.27,2.06,2.75,3.27,4,1.13,1.18,3.56,1.79,3.27,4,2.19.76,3.91,1.99,4.08,4.8-1.36,3.54-5.09,6.39-7.19,8.14-.27.23.25,1.34.02,1.61-1.21,1.38-2.72,2.7-4,4.07-.68.74-1.7.94-2.4,1.64-.96.96-.17,3.53-2.4,2.44.23,2.36-1.8,2.5-1.57,4.86-3.7,1.43-3.89,6.31-8,7.34.46,3.92-3.4,3.6-3.16,7.29-2.21-.57-1.61,1.62-3.21,1.65-1.54,4.31-5.1,7.17-7.97,10.57-.84.99-2.37,2.75-2.39,3.25-.09,2.07-2.33.88-2.4,2.44-.06,1.5-3.41,4.17-3.99,4.88-1.48,1.82-2.43,3.8-3.98,5.69-1.37,1.67-3.41,3.23-4.8,4.89-.64.77-.93,2.41-1.58,3.24-1.22,1.55-3.92,2.38-4,4.07-.04.94-.5.36-.8.81-.62.95-.83,2.41-1.58,3.24-1.51,1.67-3.48,3.02-5.61,4.09.91,3.49-4.69,5.28-4.77,7.31-.07,1.59-2.33,1.89-2.39,3.25-.04.91-.57.39-.8.82-2.23,4.1-5.01,5.85-7.98,8.95-2.26,2.35-4.2,4.9-6.39,7.33.05,1.75,1.22,2.87,1.65,4.02.5,1.34.22,2.31.84,3.22.45.66,1.9.95,2.44,1.59.07-1.98,2.66-.2,2.43.78-.13,4.76,2.61,6.58,4.93,8.83.72,2.57-1.25,2.51-1.58,4.05,2.65,2.46,6.29,3.91,6.54,8.82,1.61.8,3.46,1.36,4.07,3.19l.04,4.04c1.77,1.17,2.75,3.19,4.08,4.8.96,1.16,2.39,2.15,2.45,3.2.07,1.14,1.89.9,2.44,1.59-.24,1.87.16,3.1.85,4.03,2.95,1.88,5.13,4.55,8.93,5.56,1.01,1.69,2.26,3.12,3.27,4.81,4.58.49,5.77,4.44,10.54,4.74,1.13,1.02.39,3.95,2.46,4.01.54-2.93,5.87-1.17,8.86-1.7.23-1.53,1.59-2.23,2.39-3.25.8-1.02,2.45-4.02,3.19-4.07.93-.06.36-.38.8-.82,1.24-1.23,1.9-2.89,2.38-4.06.37-.89.77-1.24.78-2.43,2.99-.48,3.98-3.78,5.6-5.7.33-.39,1.25-.43,1.61-.82.57-.63.23-1.73.78-2.43.96-1.23,2.51-1.77,3.2-3.26,1.41-1.85,2.49-3.86,3.98-5.69.68-.84,1.58-1.57,2.4-2.44.13-.14.66.12.81,0,.27-.23-.25-1.34-.02-1.61.23-.27,1.36.25,1.61-.02.27-.28-.26-1.31-.02-1.61,1.18-1.48,4.74-4.65,4.79-5.7.06-1.48,1.74-1.89,2.4-2.44.24-.21-.18-1.32-.02-1.61.22-.41,1.25-1.22,1.6-1.63,1.03-1.24,1.99-2.02,3.2-3.26.53-.54,1.07-1.09,1.6-1.63.6-.61,1.89-.99,2.41-1.64.38-.46-.28-1.87-.02-2.42.3-.65,1.86-.37,2.41-.83.23-.19-.15-1.32-.02-1.61.05-.1.71.07.81,0,.27-.22-.23-1.33-.02-1.61,1.07-1.42,3.37-2.41,4-3.27.54-.73.27-1.79.78-2.43,2.04-2.53,4.52-4.95,6.39-6.52.26-.22-.21-1.32-.02-1.61.24-.37,1.32-.44,1.61-.82.54-.74.24-1.78.78-2.43,2.21-2.64,4.94-4.24,7.2-6.53-.69-2.27,1.12-2.1.77-4.04,2.59.28,1.95-1.43,2.4-2.44.1-.22,1.41-.58,1.61-.82,1.21-1.49,1.92-3.47,3.18-4.87,2.55-2.83,5.6-5.11,8.81-7.35.33-1.54,2.29-1.48,1.57-4.05,2.83.12,2.63-2.75,4.81-3.27.61-3.4,2.94-5.11,6.4-5.71,2.6,1.61,4.55,4.14,6.52,6.39,1,1.15,2.29,2.04,3.26,3.2.52.62.38,1.84.83,2.41,1.82,2.33,4.62,2.94,6.5,4.78.64.51.28,1.79.83,2.41.47.53,1.97.27,2.43.78.5.56.41,1.87.83,2.41.3.39,1.24,1.23,1.63,1.6,2.53,2.41,5.32,3.49,7.33,6.39,1.05,1.52,2.26,3.34,2.48,5.63,1.45.93,2.38,1.69,3.25,2.39.27.22-.21,1.33.02,1.61.25.31,1.3.53,1.62.79.27.22-.21,1.33.02,1.61.55.67,1.93.88,2.44,1.59.47.65.48,1.84.83,2.41.13.21.57.42.81.8.55.85.95,1.7,1.64,2.41.69.71.99,1.6,1.64,2.41.13.16-.13.65,0,.81.21.26,1.41-.28,1.61-.02.55.7.28,1.64.83,2.41.48.67,1.92.92,2.44,1.59.26.33-.16,1.23.02,1.61.1.22,1.42.56,1.62.79.65.77.99,1.64,1.64,2.41,1.23,1.45,2.7,2.46,4.08,4,.26.29-.15,1.25.02,1.61.38.83,2.92,1.32,3.24,1.58.26.21-.25,1.42.02,1.61.58.42,1.92.51,2.43.78.91.48,1.49,1.3,2.44,1.59,1.94.61,3.66.98,5.65-.05,2.27.32-2.05-2.99.78-3.24,2.2,1.02,4.5,1.93,8.09,1.54,2.85-.4,2.8-3.65,6.43-3.29.76-1.51-2.44-2.67-.03-3.23,2.77-2.23,6.06.46,9.68-.09,1.36-1.6,2.44-3.47,4.8-4.08,3.61-1.79,8.16-2.66,12.07-4.15.25-.83,1.07-1.06,1.6-1.63.52-.57.6-1.52,1.6-1.63,1.52-.91,3.8-1.07,5.63-1.67,0-1.6,2.19-1.05,1.58-3.24.48-1.12,3.11-.15,3.21-1.65,1.61-1.89,2.9-4.08,5.6-4.9-.71-3.63,3.78-2.16,2.36-6.48,2.29.65,2.08-1.16,4.03-.85.78-4.87-.27-6.62,1.51-10.51-1.15-.18-1.38-1.32-2.44-1.59l-.05.02Z"/>
  <path class="st0" d="M1250.37,559.53c1.93,1.45,3.48,3.26,4.78,4.96,1.29,1.71,2.33,3.31,3.27,4.32,4.51,4.85,7.5,6.28,10.72,10.02,1.34,1.55,3.35,4.17,5.64,7.29,2.26,3.14,4.86,6.76,7.4,10.3,5.1,7.06,10.07,13.74,12.18,15.42,3.61,2.81,5.88,8.17,8.28,11.1.81.98,2.31,1.43,3.18,2.35,1.33,1.4,2.07,3.93,4.13,5.55,2.28,1.82,1.1,2.34,2.5,4.41.58.85,2.47,1.53,3.16,2.38,4.16,5.16,7.65,9.97,11.77,15.17,5.31,6.84,10.54,13.42,13.62,18.12.34.52.1,1.09.44,1.61.58.88,2.48,1.53,3.14,2.42,3.23,4.48,5.79,8.54,7.92,11.36.38.51,1.17.71,1.55,1.22.64.85.23,2.36.85,3.23,2.55,3.57,6.72,5.6,5.93,8.51l6.15,4.95c1.09,1.75,2.22,3.51,3.38,5.26l1.75,2.62c.38.55.37.57.5.79l.32.53c.87,1.41,1.78,2.79,2.69,4.14,1.82,2.7,3.57,5.3,4.76,7.84,1.03,2.16,2.74,4.54,3.47,5.86.51.93-.04,1.85.38,2.89.62,1.55,2.62,3.22,1.76,5.23,3.15-1.26,1.2,2.41,2.08,3.51.43.54,2.77,1.28,4.1,2.42.09.08-.22.74-.16.86.16.32,1.41.37,1.69.63.1.09-.23.73-.16.86.45.96,8.19,3.26,9.31,3.52.81.19,1.2-.43,1.86-.22.8.26.76-.56,1.01-.54,3.28.29,4.8,1.71,6.1,1.4,2.88-.68,5.78.04,7.46-.84.68-.36,1.41-.62,2.03-1.07,3.04,1.82,3.93-.07,6.98,1.76.56-2.07,2.85-2.04,4.23-2.99.56-.38,1.53-.56,2.03-1.06.33-.33.04-1.34.33-1.72.15-.19,1.62-.04,1.87-.2,2.24-1.44,4.83-2.76,6.26-4.05.8-.73,1.38-1.35,2.2-1.93.6-.42,1.38-.57,2.04-1.06.66-.49.97-1.29,2.03-1.06-.32,1.47.25,2.47,1.23,3.26.25-2.62,2.43-1.9,2.68-4.52,1.36.44,1.69.36,2.04-1.06.3-1.25,2.57-1.89,3.21-2.46.97-.85.79-1.59,1.5-3.13.83-1.82,4.54-2.51,3.85-5.93,1.29-.44,3.32.4,4.61-.04,1.99-3.42,3.34-7.95,6.35-9.62-1.77-2.76.77-5.35.54-8.2-.07-.9-2.93-2.8-1.11-4.18-.81-2.22-4.34-3.01-4.55-5.55.06-2.93,2.99-.94,2.64-4.58-3.45-2.1-4.61-6.21-6.77-9.15-1.21-1.64-2.55-2.61-3.89-4.3-1.1-1.38-1.71-3.99-3.89-4.3-.11-3.52-3.56-7.5-4.93-9.34-.25-.35.52-1.4.27-1.75-.39-.57-2.08-1.46-2.47-1.85-.53-.53-1-1.16-1.43-1.81l-.63-.99-.31-.49-.15-.24-.14-.2-.21-.3c-2.2-3.17-4.3-6.06-6.34-7.81-1.6-1.37-3.77-4.43-5.96-7.6-2.19-3.17-4.35-6.48-5.83-8.41-3.67-4.79-7.91-9.74-11.4-14.29-2.85-3.65-5.21-8.12-6.72-10.4-.59-.89-2.52-1.64-3.21-2.52-1.24-1.57-2.86-4.15-4.17-5.83-4.03-5.16-7.23-9.26-10.03-12.84-3.54-4.53-8.48-12.03-10.57-14.46-2.42-2.77-5.48-3.62-7.04-6.55-2.4-5.22-8.09-9.2-9.6-14.76-5.8-5.47-10.89-11.17-15.55-17.05-2.34-2.93-4.57-5.92-6.79-8.89l-6.61-8.93c-5.19-5.96-12.32-11.14-14.95-18.08-2.27-2.63-4.66-6.34-6.94-9.01-4.09-4.78-8.02-9.26-12.29-13.82-1.64-1.77-3.4-3.77-4.97-5.65-.97-1.16-1.49-2.1-2.37-3.24-2.17-2.79-5.34-6.1-7.67-8.77-1.9-2.14-4.49-5.15-6.54-6.85-.66-.55-1.19-.82-1.88-1.38-2.17-1.78-4.43-4.78-5.74-6.95-1.49-2.48-2.75-4.91-4.21-7.36-1.48-2.43-3.17-4.88-5.52-7.43-2.31-2.53-4.62-5.07-6.93-7.61-1.36-1.49-2.6-2.91-3.96-4.11-.61-.54-1.38-1.08-2.04-1.66-4.07-3.57-8.19-7.1-12.18-11.17-1.85-1.88-3.66-4.14-5.52-5.91-.46-.44-.94-.68-1.36-1.07-.89-.83-1.59-1.6-2.44-2.52-.51-.54-1.02-1.08-1.52-1.62-.15-.18-.28-.38-.31-.63-.07-.51.34-1.13.4-1.51.01-.09-.1-.13-.07-.23.04-.11.3-.27.36-.37.06-.1.1-.21.1-.3,0-.08.01-.13-.04-.17-.16-.14-.31-.22-.88-.33-.65-.14-.18-.27-.28-.43-.04-.06-.17-.13-.28-.2-.04-.03-.13-.07-.11-.1.04-.03.1-.05.19-.08.33-.08.69.01,1.55.07.78.06.71,0,.51-.11-.21-.11-.55-.3-.51-.35.15-.19.76-.21,1.13-.21.4-.01.57,0,.35-.5-.06-.14-.08-.26-.07-.36,0-.05.01-.1.03-.14-.12.08.32-.28.58-.5l.88-.72c2.35-1.91,4.8-3.77,7.21-5.54,4.82-3.53,9.49-6.66,12.92-9.01.88-.61,1.54-2.53,2.42-3.21,4.52-3.44,9.55-6.95,14.2-10.43,2.48-1.86,4.83-2.85,7.3-4.65,3.39-2.46,5.7-7.12,8.52-6.26,3.13-4.57,7.41-6.02,10.53-10.59,9.59-4.99,17.38-14.82,27.18-19.25,5.03-7.54,12.27-9.13,17.42-16.36,3.56-.15,5.68-4.16,8.93-5.13,9.63-9.48,21.11-17.23,32.03-25.67,3.19-2.46,8.92-6.84,9.73-7.86,3.32-4.17,6.01-3.11,8.52-6.25,2.41-3.03,13.18-10.28,15.41-12.03,5.74-4.49,10.66-8.98,16.62-13.63,5.28-4.12,11.74-8.4,17.03-12.51,2.45-1.9,5.53-5.34,8.1-7.38,4.8-3.79,11.47-7.01,14.2-10.43,1.51-1.89,1.55-1.01,2.84-2.09,2.68-2.24,5.33-5.28,8.1-7.38,5.56-4.2,11.56-8.02,17.45-11.39,3.48-6.42,17.41-13.22,20.67-17.32,2.57-3.22,7.54-5.12,9.73-7.86.37-.46.66-.76.91-.97.15-.12.19-.14.23-.16.05-.02.1-.03.14-.03.19-.01.39.04.59-.17,3.89-4.1,7.52-5.57,11.87-8.48,3.29-2.2,6.31-4.66,9.55-6.96.58-1.9-.28-3.28-.33-4.58-.06-1.52.6-2.53.26-3.6-.25-.78-1.71-1.31-2.06-2.08-.79,2.12-2.95-.18-2.34-1.21,1.87-5.11-.44-7.48-2.13-10.26.16-2.88,2.26-2.52,3.17-4.14-1.98-3.04-5.37-5.15-3.88-10.48-1.45-1.1-3.25-1.98-3.24-4.04l1.42-4.36c-1.49-1.52-1.82-3.85-2.67-5.79-.62-1.4-1.8-2.68-1.49-3.82.34-1.24-1.72-1.25-2.05-2.08.94-1.99.95-3.37.54-4.47-2.5-2.47-3.9-5.67-7.63-7.33-.48-1.97-1.31-3.71-1.8-5.68-4.77-1.2-4.63-5.64-9.67-6.67-.86-1.27,1.01-4.32-1.21-4.69-1.65,3.08-6.76.39-10.19.52-.8,1.61-2.52,2.17-3.76,3.16-1.23.99-4.11,3.98-4.92,3.92-1.03-.07-.53.36-1.16.76-1.78,1.14-3.1,2.84-4.04,4.03-.72.91-1.28,1.22-1.73,2.51-3.4.07-5.67,3.49-8.11,5.33-.5.38-1.51.28-2.03.65-.85.6-.88,1.83-1.73,2.51-1.48,1.18-3.35,1.54-4.63,3.04-.69.61-7.83,6.75-13.21,10.94-2.63,2.06-5.54,4.03-8.52,6.26-.47.35-1.14.15-1.63.48-.88.61-1.53,2.52-2.42,3.21-.88.68-2.34.3-3.25.96-.97.71-1.46,2.45-2.42,3.21-4.63,3.64-16.57,12.01-18.25,14.12-2.38,2.99-6.36,4.78-8.52,6.26-.8.55-1.65,2.52-2.42,3.21-1.08.96-4.36,3.15-5.68,4.17-3.94,3.06-7.05,5.18-11.36,8.34-1.89,1.38-3.79,2.78-5.68,4.17-2.12,1.56-5.28,3.07-7.31,4.65-1.46,1.14-2.28,3.56-3.64,4.81-1.58,1.46-4.27,1.8-6.09,3.05-.76.52-1.7,2.54-2.42,3.21-.25.23-1.32.27-1.63.48-.87.6-1.55,2.51-2.42,3.21-4.3,3.44-10.42,6.76-12.98,8.82-2.18,1.76-3.26,3.72-5.26,5.29-7.94,6.23-16.57,12.48-22.71,16.68-.85.58-1.59,2.51-2.42,3.21-1.05.87-3.31,1.63-4.47,2.57-2.21,1.79-3.2,3.69-5.26,5.29-8.43,6.53-16.34,11.31-24.34,17.17-2.08,4.13-5.43,4.83-7.69,8.5-4.75.93-6.07,3.97-8.52,6.25-.54.5-3.71,1.97-4.46,2.57-4.7,3.67-9.14,8.03-13.79,11.55-9.41,7.12-18.98,13.42-28.81,19.73-3,3.26-6.84,4.28-9.31,8.98-5.5,1.41-9.45,7-14.61,9.31-6.39,7.12-13.66,11.88-21.5,15.08-1.99,1.57-3.94,3.03-5.87,4.43-.97.7-1.92,1.39-2.88,2.07l-1.43,1.02-.81.58-1.32.98c-7.04,5.24-14.16,10.54-21.7,16.48-2.68,2.11-6.66,5.1-9.35,7.36-2.94,2.47-3.66,3.39-5.67,5.61-1.99,2.19-3.05,3.43-6.39,5.72-1.44.98-2.26,1.32-3.86,2.46-1.36.97-2.66,2.07-3.96,3.09-3.02,2.38-6.18,4.82-9.09,7.2-3.39,2.78-5.51,4.96-8.54,7.53-3.03,2.58-6.42,5.15-9.87,7.72l-2.6,1.93-1.3.96c-.1.08-.22.16-.32.24l-.14.12s.06.09.09.14l.51.56c1.36,1.49,2.73,2.96,4.13,4.42,7.18,7.48,13.4,14.53,20.45,21.97,4.11,4.35,8.66,8.87,12.85,13.21,2.38,2.47,5.1,5.18,7.3,7.63,2.4,2.68,4.35,5.24,6.96,8.09,4.1,4.48,8.21,8.89,12.38,13.3,2.09,2.2,4.19,4.4,6.3,6.62.95,1,1.91,2,2.87,3.01.55.59,1.1,1.19,1.66,1.78,1.51,1.63,3.14,3.52,4.72,5.08,1.12,1.1,1.53,1.32,2.64,2.16,1.3.98,1.92,1.95,3.06,3.04.55.53.98.75,1.51,1.22,1.94,1.73,3.73,3.95,5.41,5.92,4.44,5.3,7.65,10.62,11.78,15.99,3.25,4.23,6.44,8.22,10.18,12.28,2.22,2.39,4.61,4.51,6.86,6.8,1.99,2.03,3.79,4.2,5.79,6.15,3.2,3.1,6.22,6.85,9.26,10.29,1.77,2.01,2.47,3.08,3.98,5.25.99,1.42,1.36,1.95,2.66,3.06,1.3,1.11,2.59,1.66,3.95,2.93.98.92,2.03,2.23,2.96,3.32,2.56,3,4.76,5.69,6.99,8.77.81,1.12,1.37,2.24,2.17,3.35.74,1.03,1.73,1.99,2.44,2.98.76,1.06.19.42,1.29,1.69Z"/>
  <g>
    <path class="st1" d="M644.05,164.55l-79.88-79.88c-10.67-10.67-24.06-18.33-38.72-22.14-5.38-1.39-10.89,1.83-12.29,7.22-1.4,5.39,1.83,10.89,7.22,12.29,10.46,2.72,20.05,8.03,27.9,15.35l-27.4,27.4c-6.37,6.37-1.77,17.2,7.13,17.2,7.29,0,7.96-5.11,34.58-30.4l20.15,20.15-27.45,27.45c-6.37,6.37-1.77,17.2,7.12,17.2,7.29,0,7.96-5.11,34.58-30.4l20.15,20.15-27.45,27.45c-3.94,3.94-3.94,10.32,0,14.25,3.93,3.93,10.31,3.94,14.25,0l27.41-27.41c23.54,25.19,23.58,65.52-1.54,90.65l-27.26,27.26-61.61-61.61c-3.94-3.93-10.32-3.94-14.25,0-3.94,3.94-3.94,10.32,0,14.25l61.61,61.61-20.15,20.15-61.61-61.61c-3.94-3.93-10.32-3.93-14.25,0-3.94,3.94-3.94,10.32,0,14.25l61.61,61.61-20.15,20.15-61.61-61.61c-3.94-3.93-10.32-3.93-14.25,0-3.94,3.94-3.94,10.32,0,14.25l61.61,61.61-20.15,20.15-61.61-61.61c-3.94-3.93-10.32-3.93-14.25,0-3.94,3.94-3.94,10.32,0,14.25l61.61,61.61-20.15,20.15-61.61-61.61c-3.94-3.93-10.32-3.93-14.25,0-3.94,3.94-3.94,10.32,0,14.25l61.61,61.61-27.26,27.26c-24.87,24.87-65.03,25.48-90.65,1.54l27.41-27.41c3.94-3.94,3.94-10.32,0-14.25-3.94-3.94-10.32-3.94-14.25,0l-27.45,27.45-20.15-20.15,27.45-27.45c3.94-3.94,3.94-10.32,0-14.25-3.94-3.94-10.32-3.94-14.25,0l-27.45,27.45-20.15-20.15,27.45-27.45c3.94-3.94,3.94-10.32,0-14.25-3.93-3.93-10.31-3.94-14.25,0l-27.41,27.41c-23.87-25.55-23.37-65.74,1.54-90.65l27.26-27.26,61.61,61.61c3.94,3.94,10.32,3.93,14.25,0,3.94-3.94,3.94-10.32,0-14.25l-61.61-61.61,20.15-20.15c64.48,62.93,61.22,64.56,68.74,64.56,8.9,0,13.49-10.83,7.13-17.2l-61.61-61.61,20.15-20.15,61.61,61.61c3.94,3.94,10.32,3.93,14.25,0,3.94-3.94,3.94-10.32,0-14.25l-61.61-61.61,20.15-20.15c64.48,62.93,61.22,64.56,68.74,64.56,8.9,0,13.49-10.83,7.13-17.2l-61.61-61.61,20.15-20.15c64.48,62.93,61.22,64.57,68.74,64.57,8.9,0,13.49-10.83,7.13-17.2l-61.61-61.61c23.42-21.97,29.81-34.01,49.21-41.68,5.18-2.05,7.71-7.9,5.66-13.08-2.05-5.18-7.9-7.71-13.08-5.66-25.32,10.02-33.7,25.69-63.16,53.28,0,0,0,0-.01.01-.64.62-168.32,168.32-171.99,171.99-30.49,30.49-33.04,78.49-7.68,111.93-42.17,28.94-38.2,92.83,7.99,116.06v27.01c0,5.57,4.51,10.08,10.08,10.08s10.08-4.51,10.08-10.08v-20.59c6.35.96,13.31,1.03,20.19,0v161.62h-20.19v-94.01c0-5.57-4.51-10.08-10.08-10.08s-10.08,4.51-10.08,10.08v94.01h-42.32c-16.68,0-30.25,13.57-30.25,30.25s13.57,30.25,30.25,30.25h82.85c5.57,0,10.08-4.51,10.08-10.08s-4.51-10.08-10.08-10.08h-82.85c-5.57,0-10.09-4.53-10.09-10.09s4.53-10.1,10.09-10.1h145.12c5.57,0,10.09,4.53,10.09,10.1s-4.53,10.09-10.09,10.09h-15.25c-5.57,0-10.08,4.51-10.08,10.08s4.51,10.08,10.08,10.08h15.25c16.68,0,30.25-13.57,30.25-30.25s-13.57-30.25-30.25-30.25h-42.31v-168.02c10-5.01,18.69-12.48,25.19-21.82,33.58,27.69,83.38,25.75,114.66-5.54,48.45-48.45,161.32-161.32,206.37-206.37,33.26-33.26,33.26-87.52,0-120.77ZM267.58,447.52c6.14,0,11.13,4.99,11.13,11.13s-4.99,11.13-11.13,11.13-11.13-4.99-11.13-11.13,4.99-11.13,11.13-11.13ZM250.95,503.04s-.01,0-.02,0c-36.98-13.92-41.84-64.59-7.73-85.04l11.94,11.94c-11.08,4.82-18.86,15.87-18.86,28.71,0,17.25,14.03,31.28,31.28,31.28,12.84,0,23.89-7.77,28.71-18.86l11.94,11.94c-12.04,20.08-36.47,27.84-57.28,20.02Z"/>
    <g>
      <path class="st0" d="M297.37,479.02c.1-.05.21.21.26.24.04.03.08.05.12.06.33.31.67.62,1,.92.63.57,1.19,1.09,1.87,1.75.28.28.63.64,1.06,1.07.3.3.22.22.26.28l.07.09c.04.06.08.12.13.18-.01.06-.11.13-.15.19l-.08.09-.04.04-.15.17c-.46.56-.88,1.07-1.26,1.53-.38.47-.71.9-1,1.24-.31.32-.54.58-.69.75-.5.59-1.11,1.21-1.7,1.8-.63.55-1.29,1.04-1.77,1.47-.33.29-.61.65-.93.95-.5.44-1.27.83-1.94,1.4-.76.63-.73.48-1.45.95-.31.18-.76.57-1.08.76-.99.59-1.9,1.19-2.9,1.62-.49.24-.98.48-1.48.72-.25.12-.5.24-.75.37-.26.1-.53.2-.79.31-1.4.54-2.76,1.13-4.07,1.45-.64.19-1.25.37-1.83.53-.57.15-1.12.22-1.59.32-.21.04-.33,0-.54.05-.36.07-.91.29-1.28.37-.94.17-1.84.21-2.64.31-.8.09-1.52.17-2.13.16-.22,0-.44.06-.66.07-.37.01-.7-.1-1.08-.09-.38.01-.75.03-1.11.06-.35,0-.73,0-1.01-.01-.63-.01-1.15-.05-1.46-.18-.44,0-.89.04-1.33.02l-1.32-.09c-.73-.11-1.44-.23-2.13-.34-.36-.09-.71-.17-1.06-.26-.25-.06-.17-.04-.21-.05l-.05-.02c-.15-.04-.29-.09-.43-.13-.29-.08-.56-.16-.8-.26-.2-.09-.46-.15-.59-.2-.09-.03-.1-.14-.19-.18-.13-.06-.37-.07-.42-.28-.16.29-.22-.12-.34-.15-.06-.02-.27.07-.43.06-.01,0-.02-.07-.03-.08-.03-.02-.12.06-.16.05-.01,0-.02-.07-.03-.08-.08-.05-.79.25-.89.3-.07.04-.07.11-.13.13-.08.03-.03.09-.05.1-.27.18-.46.16-.54.26-.19.23-.45.35-.54.52-.03.07-.08.13-.1.21-.34.04-.31.24-.65.28.07.2-.12.33-.17.49-.02.06-.09.14-.1.21,0,.05.07.11.07.15,0,.02-.13.1-.14.13-.1.25-.24.51-.28.69-.02.11-.04.19-.07.28-.02.07-.08.13-.11.2-.03.08,0,.16-.11.2-.06-.14-.16-.18-.29-.19.13.22-.09.29.04.52-.14.04-.16.07-.11.2.05.12-.1.3-.12.38-.03.12.03.17.06.34.04.19-.23.47.04.7-.08.11-.3.16-.39.27.04.39.21.84.06,1.15.33.12.28.48.48.7.06.07.43.06.37.28.21.13.56,0,.75.19.19.24-.19.25.08.53.43-.03.8.24,1.17.36.21.07.39.06.62.1.19.03.42.19.62.08.26.26.82.34,1.06.4.05.01.06.14.1.15.07.02.27-.02.33-.02.08,0,.16.03.24.05l.12.04.06.02s-.02,0,.25.06c.39.09.76.18,1.13.26.37.07.73.11,1.07.16.69.09,1.32.17,1.85.21.42.03,1.01.11,1.68.19.68.04,1.44.09,2.24.13.78.04,1.58.11,2.3.13.74-.02,1.38-.03,1.87-.04,1.23-.05,2.51-.06,3.76-.26,1.25-.18,2.5-.27,3.64-.51,1.84-.39,3.87-.65,4.93-1.01.42-.11,1.08-.42,1.52-.55.38-.11.87-.25,1.38-.4.49-.15.98-.36,1.39-.51,1.24-.5,2.37-.88,3.36-1.36.98-.48,1.88-.92,2.71-1.32,2.08-1.07,5.23-2.94,6.24-3.78,1.2-.91,1.96-1.62,2.98-2.48.89-.7,1.85-1.51,2.74-2.36.86-.89,1.7-1.76,2.54-2.46.56-.58,1.01-1.25,1.5-1.87.52-.67.99-1.28,1.44-1.87.14-.18.28-.36.42-.54.18-.28.36-.55.54-.83.37-.56.73-1.1,1.08-1.65.73-1.1,1.44-2.17,2.16-3.26l.54-.81.14-.2s.05-.07.06-.1l-.08-.09-.34-.34c-.45-.46-.9-.91-1.35-1.38-.89-.9-1.79-1.82-2.71-2.75-1.11-1.14-2.25-2.32-3.39-3.49-1.29-1.26-3.05-2.97-4.48-4.35-1.98-1.94-3.85-3.83-5.61-5.76-.21-.22-.43-.44-.67-.67-.12-.12-.22-.21-.33-.31-.05-.03-.11-.13-.16-.11l-.11.23c-.3.6-.61,1.26-.94,1.91-.69,1.4-1.34,2.74-1.88,3.84-.26.54-.52,1.08-.78,1.62-.26.43-.52.87-.78,1.3l-.78,1.28-.39.64-.1.16-.06.07-.11.14c-.29.38-.59.77-.88,1.15-.3.38-.64.73-.96,1.11-.48.6-1.14,1.14-1.68,1.69-.36.32-.64.5-.99.79-.42.37-.94.75-1.46,1.12-.51.39-1.05.74-1.53,1.03-.75.51-1.88,1.05-2.61,1.46-.2.1-.44.23-.64.33-.78.43-1.92.76-2.67.98-1.76.38-3.28.63-5.44.82-.53.08-1.07.07-1.61.1-.54.03-1.08.05-1.61,0-.63-.04-1.22-.07-1.79-.07-.26.01-.54-.04-.81-.06-.83-.13-1.69-.14-2.52-.35-.83-.22-1.7-.34-2.54-.66-.77-.31-1.65-.56-2.37-.92-.13-.06-.37-.16-.5-.21-.38-.18-.65-.31-1-.47-.56-.23-1.04-.6-1.56-.89-.5-.32-1.03-.59-1.48-.98-.4-.33-.86-.7-1.33-1.07-.43-.34-.79-.77-1.22-1.16-.22-.2-.37-.35-.61-.56-.24-.21-.38-.43-.57-.66-.49-.57-1.02-1.17-1.42-1.64-.34-.46-.64-.85-.95-1.26-.15-.19-.3-.39-.47-.6-.13-.21-.28-.43-.43-.68-.34-.53-.58-.92-.82-1.32-.23-.4-.39-.83-.66-1.38-.19-.42-.44-.84-.61-1.29-.16-.45-.32-.88-.48-1.33-.28-.79-.11-.42-.2-.82-.11-.74-.89-3.15-.96-4.17-.48-3.44-.23-6.97.54-10.17.33-1.75,1.1-3.63,1.94-5.33.83-1.71,1.93-3.13,2.72-4.18.2-.27.48-.74.71-1.02.56-.71,1.26-1.35,1.92-2.02.72-.62,1.41-1.27,2.16-1.8.18-.13.36-.27.56-.42.05-.04.08-.06.15-.11l.31-.18c.2-.12.41-.24.62-.36.92-.54,1.8-1.06,2.56-1.5,1.54-.73,3.13-1.55,4.48-2.22,1.31-.65,2.43-1.18,3.24-1.43.78-.19-.01-.56-.28-.89-.41-.4-.74-.71-1.02-.99-.74-.74-1.32-1.3-1.92-1.9-1.26-1.25-2.53-2.52-3.98-3.86-1.47-1.52-2.4-2.48-3.34-3.45-.75-.75-1.51-1.5-2.28-2.26-1.23-1.23-2.39-2.39-3.62-3.62-.65-.65-1.34-1.34-2.16-2.16-.17-.17-.35-.35-.53-.54-.09-.09-.17-.18-.26-.27l-.13-.13s-.08-.14-.14-.07c-.37.23-.78.47-1.23.75-1.35.96-2.59,1.81-3.81,2.61-.59.41-1.24.78-1.77,1.18-.39.29-.79.59-1.19.89-.63.48-1.28.94-1.91,1.46-.61.55-1.23,1.12-1.85,1.76-1.08.61-2.12,2.04-3.14,2.89-3.76,4.19-7.04,9.06-9.37,14.36-.75,1.52-1.69,4.4-1.86,4.9-.47,2.12-.93,2.63-1.19,4.26-.32,1.55-1.25,6.88-1.2,8.08-.25,3.04-.1,5.82.14,8.96.31,2.77.73,5.98,1.51,8.68.28,1.27.99,3.04,1.43,4.34.42,1.21.96,2.5,1.41,3.71.53,1.19,1.06,2.27,1.5,3.05.51.84.36.68.71,1.29.33.55.76,1.25,1.19,1.96.49.71.92,1.34,1.3,1.88.78,1.24,1.72,2.37,2.58,3.55.89,1.16,1.87,2.23,2.78,3.32,1.13.87,2.73,2.51,4.46,3.89.42.35.84.71,1.25,1.05.43.32.85.62,1.21.89.76.55,1.42,1.01,1.88,1.29,1.49.77,3.2,2.08,4.54,2.6.28.13.41.19.5.23.08.04.08.04.08.04,0,0,0,0,0,.01.01.02.02.04.05.05.59.21.91.49,1.41.79.38.22.77.36,1.16.55.21-.03.29-.18.41-.24.14-.08.27-.06.35-.14.06-.06.03-.21.08-.28-.24.03-.14-.27-.01-.26.57-.07.66-.39.83-.67.27-.12.35.08.54.09.17-.32.19-.72.74-.85.02-.18,0-.38.19-.48l.45-.09c.06-.21.24-.35.37-.52.09-.12.14-.29.26-.32.12-.03.02-.21.08-.28.22-.02.34-.08.41-.17.09-.34.29-.62.25-1.03.15-.14.23-.31.41-.43-.17-.49.24-.69.08-1.18.07-.14.4-.13.33-.34-.33.01-.34-.56-.5-.85-.17.01-.29-.11-.43-.16-.14-.06-.51-.15-.54-.22-.04-.09-.05-.03-.11-.06-.17-.09-.37-.12-.51-.14-.11-.02-.16-.05-.29-.02-.15-.28-.54-.3-.78-.44-.05-.03-.08-.12-.13-.15-.08-.05-.19,0-.28-.04-.16-.08-.25-.23-.43-.27-.23-.11.21.12-1.34-.65-1.09-.57-2.13-1.24-3.22-1.88-.93-.69-1.94-1.35-2.92-2.17-.15-.13-.23-.26-.38-.4-.28-.24-.8-.53-1.1-.77-.3-.24-.46-.53-.73-.81-.29-.29-.73-.56-1.04-.85-.77-.67-1.91-2.01-2.98-3.22-.98-1.29-1.91-2.43-2.16-2.81-.39-.51-.78-1.08-1.12-1.61-.34-.54-.58-1.08-.81-1.47-.16-.29-.58-.8-.76-1.11-.25-.43-.8-1.67-1.06-2.19-.41-.76-.63-1.49-.93-2.2-.14-.36-.29-.72-.44-1.1-.13-.39-.26-.8-.4-1.23-.24-.77-.53-1.53-.7-2.33-.2-.89-.49-2.03-.62-2.91-.12-.63-.4-1.33-.53-1.95-.12-.73-.07-1.55-.16-2.31-.04-.31-.22-.99-.23-1.33,0-.12.04-.42.03-.55-.01-.36-.16-.95-.18-1.34-.05-.95.03-2.02.05-3,.05-.97.18-1.84.21-2.41.04-.97.1-1.67.21-2.55.49-3.45,1.55-6.99,2.53-9.35.11-.34.29-.92.42-1.27.18-.43.57-1.11.77-1.58.43-.88.68-1.5,1.09-2.3,1.8-3.2,3.79-5.68,6.11-8.16.88-1.15,1.68-1.85,2.65-2.85.63-.41,1.11-.81,1.53-1.21.36-.3.96-.8,1.31-1.08.05-.03.13-.09.27-.2.1-.07.33-.23.35-.23.13-.08.18-.09.22-.12.19-.12.37-.26.57-.41.17.13.34.29.5.46,1.32,1.35,2.66,2.74,4.09,4.21.34.4.51.64.69.9.13.06-.01.07-.05.11l-.19.08c-.12.06-.2.13-.26.28-.19.06-.36.13-.52.22-.04.02-.08.05-.12.07-.05.03-.03.01-.2.14-.26.2-.5.39-.76.58-1.03.76-1.97,1.66-2.9,2.4-2.83,2.92-5.07,5.9-6.95,8.89-2.04,3.88-3.34,7.42-4,11.79-.08.78-.25,1.9-.29,2.72-.02.89,0,1.18.02,1.92,0,.73.11,1.15.11,2.05,0,.31,0,.69,0,.99.02.44.04.78.06,1.16.13.88.27,1.76.41,2.66.13,1.02.43,1.76.66,2.69.13.5.25.94.37,1.4.13.47.31.92.47,1.38.34.91.6,1.85,1.02,2.7.99,2.21,2.07,4.2,3.43,6.16.83,1.12,1.67,2.3,2.65,3.3.55.58,1.11,1.27,1.7,1.79.55.52,1.28,1.21,1.83,1.75.52.48,1.11.88,1.66,1.31.57.41,1.1.87,1.71,1.24,1.21.71,2.37,1.54,3.7,2.12.9.41,1.85.97,2.8,1.26.66.24.84.29,1.42.47.68.21,1.13.43,1.82.58.25.06.57.13.83.19.63.16,1.15.29,1.72.43.58.14,1.18.21,1.74.32.75.12,1.48.26,2.2.36.69.05,1.41.11,2.15.17,1.43.15,2.85.1,4.35.05,1.17-.12,2.34-.17,3.49-.42.58-.11,1.16-.2,1.74-.33.58-.16,1.15-.31,1.75-.47.71-.17,1.37-.44,2.04-.68.67-.24,1.34-.49,1.98-.8.58-.26,1.16-.5,1.72-.77.54-.29,1.06-.56,1.65-.88.87-.47,1.72-1.05,2.6-1.59.84-.6,1.71-1.19,2.5-1.83.9-.78,1.39-1.08,2.23-1.88.56-.52.78-.71,1.29-1.25.38-.46,1-1.23,1.35-1.65.4-.44.83-1.04,1.23-1.54.23-.3.46-.6.69-.89l.17-.24c.05-.07.11-.14.16-.22l.06-.07s.06-.03.08-.05c.02-.02.03-.08.05-.09.02-.01,0-.01.04.02Z"/>
      <path class="st0" d="M261.55,460.42c-.14-.15-.09-.37-.14-.47-.08-.25-.22-.35-.27-.55-.06-.35.21-1.47.17-1.68-.08-.19.1-.39.15-.53.01-.05-.06-.12-.06-.17,0-.08.12-.15.09-.26-.02-.13.09-.08.14-.16.02-.04-.06-.13-.04-.18.06-.26.21-.46.32-.7.17-.3.31-.62.5-.77.02-.02.07,0,.09-.01.03-.03-.02-.15.01-.18.13-.18.31-.29.4-.4.02-.02,0-.07.01-.09.03-.03.14.02.17,0,.12-.12.12-.38.33-.25.03-.12.05-.25.1-.36.14-.06.34-.19.41-.23.08-.05.17-.09.26-.13.17-.08.32-.19.49-.2.14-.02.29-.09.37-.11.06-.01.12.06.18.06.1,0,.21-.1.33.06-.07-.33.15-.01.22-.05.03-.02.09-.18.17-.24,0,0,.04.05.05.05.02,0,.04-.11.05-.12,0,0,.04.05.05.05.05,0,.3-.58.35-.65.03-.06,0-.12.03-.17.03-.06-.02-.09,0-.11.09-.27.22-.33.24-.46.04-.29.18-.49.18-.68,0-.08,0-.15,0-.23.23-.15.14-.33.39-.49-.12-.16-.02-.35-.02-.52,0-.07.03-.16.02-.23,0-.05-.1-.08-.11-.12,0-.02.07-.14.07-.17,0-.27.03-.56,0-.75-.02-.11-.04-.19-.04-.29,0-.07.03-.15.02-.23,0-.08-.06-.15.02-.23.11.11.22.11.34.07-.2-.16-.02-.31-.23-.47.12-.09.13-.12.03-.23-.09-.09-.02-.32-.03-.4-.02-.13-.1-.15-.2-.29-.12-.17.05-.52-.34-.64.04-.13.25-.26.29-.4-.21-.35-.61-.7-.59-1.04-.42,0-.55-.33-.89-.43-.11-.03-.51.16-.56-.07-.32-.01-.63.28-.94.24-.35-.09.06-.32-.41-.39-.46.27-1.03.29-1.51.48-.26.1-.45.22-.72.34-.22.11-.57.17-.69.4-.46-.02-1.07.39-1.34.56-.05.03-.16-.05-.22-.02-.08.05-.24.24-.3.29-.18.13-.34.23-.55.38-.3.21-.58.42-.74.62-.23.33-1.09.93-1.4,1.29-.38.43-.78.91-1.09,1.36-.26.36-.63.68-.77.9-.06.08-.06.29-.11.38-.08.12-.3.46-.37.57-.3.55-.5,1.01-.69,1.4-.22.5-.57,1.29-.66,1.59-.08.35.04.63-.1.92-.29.48-.19,1.15-.49,1.62.01,1.53-.08,2.91.03,4.34.11.76.51,1.5.45,2.21.08.33.18.74.29,1.06.2.58.45,1.09.74,1.63.11.21.22.44.34.64.07.13.1.22.17.35.16.3.4.68.61.95.16.22.39.53.57.71.05.04.12.1.17.14.19.19.42.46.54.67.28.48.5.94,1.01,1.38.25.22.49.45.77.65.16.12.3.23.45.32.05.03.17.09.23.12.45.28.94.47,1.42.75.22.13.46.27.69.37.06.02.11.03.16.05.11.04.2.09.31.14.33.17.67.3,1,.45.33.16.61.33.94.48.14.04.08.02.25.08.09.04.16.08.25.12.18.07.44.15.65.2.35.09.62.12.97.15.39.02.57.09.95.15.28.02.61.02.89.05.26.03.13.05.26.11.23.13,1.03-.02,1.35-.05.54-.02,1.09-.04,1.63-.11.54-.05,1.07-.15,1.57-.34,1.07-.36,2.41-.8,3.18-1.13.1-.04.2-.22.3-.26.51-.26,1.04-.56,1.54-.85.25-.18.49-.27.75-.44.35-.24.57-.7.85-.64.28-.48.72-.64.95-1.15.89-.64,1.42-1.77,2.18-2.52.23-.87.8-1.32.94-2.2.32-.18.28-.65.51-.9.34-1.31.71-2.65.88-4.03.03-.4.08-1.12.05-1.25-.11-.52.11-.67,0-1.06-.06-.19-.06-.6-.1-1.01-.04-.36-.09-.86-.1-.94-.1-.73-.35-1.36-.54-2.09-.23-.63-.41-1.4-.72-2-.14-.28-.4-.66-.56-.95-.32-.52-.54-1.25-.89-1.53-.18-.16-.1-.16-.2-.29-.22-.27-.51-.55-.74-.81-.17-.21-.64-.78-1.32-1.62-.67-.26-1.68-1.43-2.2-1.6-.39-.13-.75-.54-1.09-.63-.24-.06-.14-.09-.23-.13-.77-.29-1.22-.63-1.93-.91-.53-.24-1.09-.39-1.65-.55-.26.05-.32.2-.45.28-.15.09-.32.09-.39.19-.05.07.03.22-.01.29.29-.06.26.26.1.26-.68.17-.68.51-.78.82-.27.18-.43,0-.66.03-.08.36.03.73-.53,1.01.04.18.12.36-.04.52l-.44.23c.01.21-.13.41-.19.61-.05.15-.04.32-.14.39-.11.07.05.21.02.29-.2.09-.28.19-.32.3.04.35-.04.68.12,1.06-.08.18-.11.37-.18.55.24.4.01.73.25,1.14-.01.15-.25.26-.15.43.22-.13.36.41.51.62.11-.08.21.01.3.02.1.02.36,0,.39.05.03.07.04,0,.08.02.12.05.26.04.35.03.08,0,.11.01.2-.04.11.22.37.21.55.27.04.01.05.09.09.11.06.03.14-.05.2-.02.11.05.16.18.29.2.12.03.46.19.71.35.13.07.23.19.35.29.02.02,0,.07.02.09.03.03.16-.01.2.02.04.03,0,.14.03.18.03.04.15,0,.19.04.09.09.25.24.38.4.12.16.25.3.31.32.19.05.2.28.26.38.02.04.15.04.18.07.05.05.13.2.16.26.1.19.18.34.27.55l.11.28c.04.11.04.26.08.37.02.07.18.11.22.18.05.08-.05.22-.03.31.01.04.13.09.15.13,0,.01-.05.07-.04.08,0,.05.13.09.14.13.08.23.02.54.03.68.02.12.12.19.14.3.03.44.01.9-.07,1.22,0,.04.09.13.1.18,0,.06-.08.15-.1.21-.02.12.06.22.04.33-.02.23-.12.43-.2.62-.07.2-.17.38-.27.56.11.23-.04.31,0,.52-.28.08-.19.25-.23.4,0,.04-.15.12-.17.16-.15.21-.2.49-.38.68-.16.2-.33.39-.54.53-.19.17-.4.3-.63.41-.09.19-.3.16-.34.45-.31-.04-.42.27-.7.26-.12.18-.28.3-.46.34-.18.05-.36.08-.56.01-.38.16-.74.15-1.13.25-.07,0-.18.01-.25.03-.08.02-.1.06-.16.12-.06.06-.1.1-.18.09-.04,0-.06-.03-.1-.04-.04,0-.07,0-.11,0-.08,0-.17,0-.25.02-.1.01-.17.07-.26.08-.18.01-.37-.05-.55-.06-.23-.02-.43-.12-.65-.15-.13-.02-.26-.07-.38-.09-.07-.02-.15-.03-.22-.06-.08-.03-.13-.09-.2-.13-.23-.13-.48-.19-.71-.33-.08-.04-.17-.09-.25-.12-.06-.02-.08-.02-.14-.03-.07-.01-.1-.05-.16-.08-.03-.01-.05,0-.08-.02-.1-.04-.2-.11-.28-.18-.2-.21-.35-.42-.5-.66-.13-.18-.26-.33-.41-.49-.09-.09-.21-.16-.31-.24-.08-.08-.13-.18-.22-.26-.14-.12-.23-.29-.32-.45-.06-.09-.07-.14-.1-.24-.02-.06-.02-.1-.07-.14-.05-.05-.13-.07-.17-.13-.04-.04-.06-.11-.08-.16-.08-.14-.1-.28-.13-.43,0-.06,0-.11,0-.16,0-.05-.04-.1-.05-.14,0-.05,0-.02,0-.09Z"/>
      <path class="st0" d="M232.5,655.79c.02,8.77.03,17.57.04,26.16v.28c.02.07-.05.05-.09.05h-.14c-1.45,0-2.89,0-4.32,0-4.36,0-8.63,0-12.79,0-4.15,0-8.19,0-12.07,0-1.94,0-3.84,0-5.71,0-.96,0-1.8-.02-2.81.02-1.05.05-2.09.11-3.12.16-8.21.88-15.06,4.47-19.63,8.6-.68.64-1.4,1.22-2.01,1.9-.61.68-1.22,1.35-1.83,2.02-1.09,1.43-2.19,2.82-3.04,4.34-.95,1.46-1.62,3.05-2.34,4.57-.58,1.58-1.2,3.13-1.55,4.73-1.68,6.34-1.33,12.64.22,18.23,1.53,5.62,4.51,10.42,8.06,14.28,3.58,3.85,7.85,6.78,12.44,8.61,2.3.9,4.65,1.6,7.03,2.01,1.2.16,2.38.43,3.59.44l1.8.09.88.03h.78c4.15,0,8.28-.02,12.47-.03,8.39,0,17.03-.02,26.61-.03,7.96,0,18.33,0,30.46,0,3.03,0,6.18,0,9.42,0,.81,0,1.63,0,2.45,0h.64s.9-.04.9-.04c.6-.01,1.21-.14,1.81-.23,2.41-.46,4.72-1.56,6.65-3.15,1.91-1.62,3.47-3.72,4.36-6.16.92-2.42,1.16-5.09.72-7.69-.43-2.6-1.63-5.11-3.39-7.14-1.76-2.04-4.11-3.59-6.74-4.42-1.32-.38-2.69-.64-4.07-.66-.39-.02-.56-.01-.81-.01h-.71s-1.43,0-1.43,0c-1.91,0-3.84,0-5.78,0-3.88,0-7.82,0-11.81,0-7.98,0-16.16-.01-24.45-.02-8.3,0-16.71-.01-25.16-.02-4.22,0-8.46,0-12.69-.01-.12,0-.3,0-.37,0l-.21-.02c-.14-.01-.28,0-.42-.03-.14-.03-.27-.04-.41-.06-.13-.04-.27-.08-.4-.11-.53-.16-1.04-.4-1.51-.71-.91-.65-1.67-1.56-2.02-2.61-.77-2.09-.08-4.63,1.73-5.98.43-.36.93-.61,1.44-.8.51-.2,1.05-.31,1.6-.32h.21c.06-.02.24-.02.36-.02h.78s1.56,0,1.56,0c1.04,0,2.07,0,3.11,0,8.27,0,16.42.01,24.36.02,15.88,0,30.93.02,44.52.02,27.16-.01,48.42-.02,58.67-.03,2.16,0,4.36-.01,6.58-.02,1.11,0,2.23,0,3.36,0h1.69c.17,0,.24,0,.31,0h.23c.15,0,.3.03.45.06,2.38.28,4.49,2.54,4.52,5.04.06,1.25-.32,2.49-1.12,3.48-.78,1-1.91,1.7-3.12,1.96-.31.04-.62.1-.94.1-.09.02-.49,0-.76.01h-.89s-3.56,0-3.56,0c-2.37,0-4.74,0-7.1,0h-1.77s-.88,0-.88,0h-.45s-.65.03-.65.03c-1.72.07-3.44.44-5.04,1.1-3.19,1.33-5.84,3.76-7.44,6.75-1.61,3.01-2.09,6.51-1.48,9.77.63,3.27,2.35,6.28,4.79,8.39,1.21,1.06,2.59,1.93,4.06,2.56,1.48.62,3.04.98,4.6,1.11l1.17.06h.79c.52,0,1.05,0,1.57,0,1.04,0,2.07,0,3.09,0,2.04,0,4.03,0,5.97,0,1.98-.01,3.71.05,5.97-.1,1.43-.02,2.85-.3,4.27-.51.71-.08,1.4-.31,2.1-.48.69-.19,1.4-.35,2.08-.57l2.03-.75,1.01-.38.97-.47,1.94-.95c.63-.34,1.23-.74,1.85-1.11,4.9-3,8.93-7.28,11.79-12.15,2.18-3.72,3.82-8.13,4.47-12.94.65-4.79.34-9.97-1.19-15.02-1.56-5.03-4.36-9.85-8.19-13.88-3.8-4.06-8.77-7.13-14.2-8.98-.74-.3-1.5-.44-2.22-.64-.72-.17-1.41-.38-2.1-.5-1.37-.19-2.64-.46-3.84-.52-.6-.03-1.18-.06-1.74-.09-.54-.02-1.14-.06-1.56-.05-.91,0-1.75,0-2.54,0-3.16-.01-5.52-.02-7.81-.02-4.57-.02-8.82-.03-18.43-.07-2,0-4.32,0-6.82.01-.38,0-.76,0-1.15,0h-.16s-.17.02-.17.02c-.08.03-.03-.08-.05-.12v-.17s-.01-.09-.01-.09v-.36c-.01-1.33-.02-2.64-.02-3.92,0-2.57-.01-4.98-.02-7.1,0-51.25,0-97.07,0-148.4v-.15s0-.05,0-.07l.07-.03,1.05-.58c1.94-1.13,3.84-2.33,5.66-3.63,3.65-2.59,7.05-5.51,10.15-8.71.76-.81,1.53-1.61,2.26-2.45l1.09-1.26.81-.99.18-.23.09-.12s.08.06.11.08l.23.18,2.2,1.56c.88.62,1.81,1.18,2.71,1.77.9.6,1.82,1.14,2.76,1.67,14.84,8.68,31.72,12.61,47.6,12.19,15.92-.38,30.84-4.97,42.94-12.06,6.08-3.51,11.5-7.58,16.19-11.97,2.4-2.24,4.41-4.31,6.47-6.35,2.04-2.04,4.03-4.02,5.96-5.95,3.42-3.38,5.14-5.09,8.55-8.46,5.73-5.77,14.94-15.05,20.91-21.06,30.32-30.3,56.6-56.55,76.02-75.95,3.48-3.51,6.99-7.04,10.46-10.53,5.81-5.75,11.24-11.12,17.11-16.93,24.1-24.08,46.57-46.86,57.01-56.96l5.23-5.26,1.31-1.33,1.35-1.42c.9-.95,1.8-1.89,2.63-2.9,3.43-3.94,6.53-8.18,9.19-12.67,5.35-8.98,9.14-18.87,11.12-29.11,3.28-16.55,1.84-34.2-4.38-50.21-1.57-3.99-3.35-7.91-5.5-11.64l-.78-1.41-.85-1.37c-.57-.91-1.13-1.84-1.72-2.73-1.23-1.77-2.43-3.56-3.78-5.24-.67-.85-1.3-1.72-2.01-2.53l-.63-.74-.02-.03-.04-.05-.32-.42c-.22-.27-.43-.54-.58-.79-.13-.22-.34-.46-.43-.59-.06-.09-.02-.19-.08-.3-.09-.16-.33-.31-.27-.52-.3.16-.17-.24-.28-.34-.05-.05-.31-.11-.46-.21-.01,0,0-.08,0-.09-.02-.03-.15-.02-.19-.05-.01,0,0-.08,0-.09-.07-.1-.9-.24-1.02-.26-.09,0-.11.06-.18.04-.09-.02-.07.07-.09.07-.34.01-.52-.12-.64-.07-.28.11-.58.07-.73.19-.06.05-.13.08-.18.14-.34-.14-.39.06-.72-.08-.02.22-.25.25-.36.37-.05.05-.14.08-.18.14-.03.04.02.14,0,.18-.01.02-.16.03-.18.05-.2.18-.43.35-.55.51-.07.09-.11.16-.18.23-.05.05-.13.08-.18.14-.06.06-.07.14-.18.14,0-.15-.06-.24-.17-.31.02.27-.21.23-.19.5-.14-.02-.17,0-.18.14-.01.13-.22.23-.27.3-.08.1-.05.17-.1.34-.05.19-.4.33-.29.65-.12.07-.33.02-.44.09-.14.37-.21.83-.48,1.05.2.24,0,.53.05.8.02.08.31.22.15.38.1.2.45.21.5.45.03.28-.28.14-.21.48.36.14.51.51.74.75.13.14.28.2.42.35.11.12.19.36.4.36.03.34.39.67.52.84.03.03-.04.14-.02.17.04.05.21.12.25.15.05.05.1.1.15.16l.07.09.03.04.02.02.79.92c.57.65,1.06,1.35,1.59,2.02,2.13,2.68,3.96,5.54,5.71,8.4,1.64,2.92,3.21,5.83,4.46,8.84,1.33,2.98,2.35,6.02,3.29,9.02.85,3.03,1.6,6.03,2.1,9.01,2.1,11.92,1.32,23.1-.74,32.15-.81,3.55-1.99,7.81-3.85,12.43-1.86,4.61-4.38,9.6-7.71,14.53-1.68,2.46-3.49,4.95-5.56,7.33-.51.6-1.03,1.2-1.55,1.81-.55.58-1.1,1.16-1.66,1.74-1.07,1.16-2.32,2.39-3.55,3.61-4.91,4.91-9.99,9.98-15.1,15.09-20.43,20.41-41.37,41.33-54.29,54.24-32,32.02-66.55,66.6-96.94,97.02-12.3,12.28-25.07,25.03-36.57,36.52l-1.08,1.07-1.04.99c-.69.65-1.36,1.31-2.05,1.94-1.42,1.21-2.78,2.45-4.22,3.52-2.81,2.25-5.7,4.15-8.51,5.84-5.64,3.34-11.04,5.63-15.63,7.16-3.57,1.19-8.43,2.51-13.45,3.3-5.02.81-10.17,1.08-14.16.97-7.11-.08-16.06-1.43-24.61-4.41-4.28-1.47-8.45-3.32-12.28-5.41-1.9-1.08-3.75-2.14-5.46-3.29-.88-.54-1.7-1.13-2.5-1.71-.52-.37-1.04-.74-1.54-1.1-.76-.59-1.51-1.18-2.25-1.76-1.14-.89-2.27-1.78-3.39-2.67l-.85-.66-.42-.33c-.08-.1-.12.05-.17.1l-.16.22-1.26,1.75c-.85,1.16-1.69,2.32-2.53,3.48-.42.58-.84,1.15-1.29,1.7l-.83,1.01c-1.79,2.15-3.7,4.14-5.7,5.99-2,1.84-4.1,3.53-6.27,5.07-1.09.76-2.19,1.49-3.3,2.18-.56.33-1.12.68-1.68,1l-1.02.57c-.57.33-1.16.61-1.73.92l-1.72.91-.86.45-.21.11-.11.06-.05.03v.06s0,.48,0,.48c0,1.29,0,2.58,0,3.86,0,1.6,0,3.19,0,4.77,0,2.71,0,5.39,0,8.03,0,5.29,0,10.45,0,15.49,0,20.17,0,38.46,0,55.51-.01,21.58-.02,49.16-.04,74.36,0,2.09,0,4.16,0,6.23,0,1.46,0,2.91,0,4.36v2.17c.66.06,1.42.02,2.13.03,4.28,0,8.49,0,12.6,0,5.87,0,11.46,0,16.63,0,5.18,0,9.94,0,14.16,0,.52,0,1.07,0,1.53,0,.43.02.86.05,1.27.07.42.02.83.04,1.23.06.4.06.79.12,1.17.18.76.11,1.5.21,2.17.42.68.19,1.34.3,1.94.53,2.79.86,5.27,2.28,7.46,3.9,2.16,1.65,4.08,3.52,5.54,5.65,2.99,4.2,4.59,9.02,4.76,13.84l.05.9c0,.3-.03.6-.04.9l-.08,1.8-.27,1.77c-.05.29-.07.59-.14.89l-.23.87c-.5,2.34-1.48,4.56-2.66,6.67-2.41,4.19-6.09,7.84-10.77,10.18l-1.51.73-1.58.57-.79.29-.82.21-1.65.42-1.69.25-.85.13-.86.04-1.73.09h-2.03c-2.73,0-5.47,0-8.24,0-1.38,0-2.77,0-4.16,0h-.52c-.15,0-.4,0-.46,0-.19-.02-.39,0-.58-.04-.38-.05-.76-.13-1.12-.26-1.45-.49-2.7-1.63-3.32-3.06-.62-1.41-.59-3.14.07-4.53.65-1.41,1.94-2.56,3.44-2.98.38-.1.76-.18,1.15-.21h.3s.15-.03.15-.03h.27s1.07,0,1.07,0h4.26c2.84,0,5.67,0,8.49,0h1.06c.43,0,1-.04,1.49-.07.51-.06,1.01-.14,1.52-.22.5-.12.99-.24,1.48-.38,1.95-.62,3.75-1.65,5.27-2.99,3.05-2.66,4.9-6.65,4.95-10.67.1-4.01-1.56-8.03-4.41-10.76-1.41-1.38-3.1-2.46-4.94-3.17-.92-.36-1.87-.62-2.83-.78-.48-.07-.97-.16-1.45-.17-.47-.03-1.04-.05-1.31-.05-2.68,0-5.33-.01-7.95-.02-5.22-.02-10.33-.05-15.31-.07-29.66.04-58.79.07-87.56.11-7.19,0-14.37,0-21.51.01-3.58,0-7.14,0-10.71,0-.92.01-1.63-.03-3.08.07-1.28.14-2.56.39-3.76.87-2.43.88-4.56,2.47-6.21,4.44-3.29,3.98-4.24,9.74-2.3,14.54.92,2.4,2.51,4.52,4.5,6.12,2,1.59,4.42,2.68,6.97,3.03.63.12,1.27.13,1.91.16h.24s.17,0,.17,0h.99s2.65,0,2.65,0h5.3c3.53,0,7.05,0,10.57,0,14.08,0,28.11,0,42.09.01,6.99,0,13.97,0,20.94.01.13,0,.19,0,.24,0h.18c.12.02.24,0,.36.03.23.05.48.05.7.13.47.09.9.31,1.32.51.82.48,1.56,1.14,2.04,1.97,1.02,1.6,1.05,3.79.16,5.45-.91,1.68-2.7,2.87-4.61,2.91-.16.02-.66.02-1.09.02h-1.3s-2.6,0-2.6,0h-5.21c-6.94,0-13.88-.01-20.81-.02-13.87-.01-27.72-.02-41.58-.03-1.85,0-3.71,0-5.57,0h-2.79s-1.4,0-1.4,0h-.7s-.6-.03-.6-.03c-3.17-.05-6.34-.68-9.27-1.92-5.89-2.44-10.86-7.21-13.52-13.07-2.69-5.83-3.03-12.74-.97-18.83,2.03-6.1,6.49-11.36,12.11-14.4,2.81-1.53,5.89-2.5,9.03-2.87,2.91-.34,6.93-.19,10.55-.22,7.37,0,14.66,0,21.83,0,4.4,0,8.76.01,13.09.01h2.47s1.23,0,1.23,0h.62s.15,0,.15,0c.05,0,.12.02.1-.05v-.31c0-1.64,0-3.27,0-4.9,0-2.45,0-4.89.01-7.31.03-6.88.05-13.63.07-20.22,0-13.03.02-27.76.03-42.51,0-7.38.01-14.76.02-21.95v-1.33c.04-.24,0-.49.06-.72.04-.48.21-.92.36-1.36.39-.85.96-1.64,1.72-2.18,1.45-1.14,3.5-1.37,5.13-.74,1.48.53,2.68,1.79,3.18,3.25.14.36.21.75.26,1.13.03.19.02.39.04.59v1.05c0,1.46,0,2.92,0,4.38,0,5.83,0,11.63,0,17.41,0,11.56,0,23.03,0,34.5,0,12.34,0,24.68,0,37.08v4.09c0,.08-.01.18.01.24h.26s.51,0,.51,0h1.02s2.05,0,2.05,0c2.4,0,4.79,0,7.19,0,2.92,0,5.84,0,8.77,0,2.74,0,5.49,0,8.24,0h1.03s.26,0,.26,0h.13s.09,0,.07-.06v-.52s0-2.06,0-2.06v-4.13c0-3.41,0-6.82,0-10.25,0-18.1,0-38.08,0-56.45.01-11.33.02-19.18.03-30,0-13.23,0-28.44,0-43.65,0-3.8,0-7.61,0-11.38,0-2.99,0-5.97,0-8.93v-2.66s0-1.32,0-1.32c-.01-.1.02-.24-.04-.28l-.33.05-.67.09c-1.79.25-3.58.49-5.36.74-.9.13-1.76.21-2.64.29-.44.04-.87.09-1.31.12l-.76.05c-.85.05-1.7.08-2.54.1-1.68.03-3.35,0-5-.1l-.88-.06c-.41-.03-.83-.06-1.25-.11-.84-.1-1.66-.16-2.51-.29-1.69-.24-3.36-.47-5.02-.7l-1.23-.17c-.07-.03-.06.04-.06.08v.14s0,.3,0,.3v.61c0,.81,0,1.61,0,2.41,0,1.6,0,3.19,0,4.77,0,3.12,0,6.4,0,9.78,0,1.45,0,2.93,0,4.43,0,.75,0,1.5,0,2.26v1.14s-.03.65-.03.65c-.18,1.61-1.12,3.18-2.59,4.03-1.41.9-3.3.98-4.84.35-1.54-.66-2.76-2.07-3.13-3.67-.11-.39-.14-.81-.16-1.22,0-.75,0-1.49,0-2.23,0-1.51,0-3.01,0-4.49,0-5.91-.02-11.47-.02-16.42,0-1.24,0-2.43,0-3.59,0-.69,0-1.38,0-2.05,0-.34,0-.67,0-1,.03-.1-.11-.1-.16-.15l-.22-.12-.43-.24c-1.88-1.02-3.68-2-5.48-2.98-1.07-.64-2.11-1.33-3.24-2.03-1.13-.69-2.21-1.59-3.47-2.47-3.85-2.96-7.68-6.62-11.04-10.92-3.36-4.28-6.24-9.17-8.38-14.31-2.15-5.14-3.56-10.51-4.27-15.66-.72-5.15-.73-10.08-.34-14.39.44-4.95,1.45-9.75,2.96-14.33,1.5-4.58,3.54-8.93,6.06-12.97,2.51-4.04,5.48-7.77,8.85-11.16.87-.82,1.71-1.68,2.6-2.48.92-.77,1.84-1.55,2.76-2.32l.17-.15.09-.07.3-.22.75-.55,1.51-1.11,3.03-2.22,1.52-1.11.38-.28c.11-.04.04-.11,0-.17l-.14-.19-.55-.77-2.19-3.07c-.73-1.03-1.47-2.07-2.21-3.11l-1.2-1.85c-.7-1.03-1.3-2.13-1.95-3.21-1.26-2.17-2.4-4.43-3.47-6.76-2.12-4.65-3.85-9.61-5.07-14.85-1.22-5.23-1.97-10.72-2.14-16.42-.17-5.7.31-11.6,1.43-17.6,1.14-5.95,2.98-11.75,5.4-17.3,2.46-5.53,5.55-10.78,9.17-15.64,1.85-2.4,3.77-4.75,5.87-6.93l1.57-1.65,1.7-1.7,3.41-3.41c4.54-4.54,9.09-9.09,13.63-13.63,10.7-10.71,20.64-20.65,30.23-30.26,4.3-4.32,9.15-9.18,13.76-13.82,28.53-28.59,57.04-57.17,87.22-87.4,6.99-6.98,14.3-14.3,21.57-21.57,1.85-1.77,3.7-3.53,5.54-5.29,1.84-1.81,3.67-3.61,5.48-5.4,3.59-3.6,7.08-7.18,10.42-10.66,3.31-3.44,5.92-6.16,8.86-9.14,3.17-3.16,6.14-6,9.24-8.65,3.13-2.61,6.36-5.1,10.13-7.43,1.45-.86,2.91-1.7,4.4-2.49l2.27-1.12c.75-.38,1.51-.75,2.29-1.07l2.33-1,.58-.25c.18-.08.43-.19.51-.2.23-.07.45-.17.69-.2.92-.23,1.89-.16,2.8.11,1.82.59,3.26,2.13,3.63,4.02.22.92.12,1.88-.15,2.78-.32.89-.83,1.72-1.54,2.33-.77.69-1.21.83-3.32,1.73-1.74.7-3.43,1.56-5.13,2.4-3.35,1.78-6.56,3.84-9.55,6.12-2.96,2.31-5.7,4.77-8.32,7.28-2.58,2.52-5.08,5.07-7.52,7.6-2.46,2.53-4.88,5.02-7.27,7.48-1.2,1.2-2.39,2.4-3.58,3.59-1.22,1.2-2.44,2.39-3.65,3.57-2.23,2.12-4.45,4.24-6.66,6.34l-.83.79-.05.05s.03.03.04.05l.11.11.21.21.42.42,1.68,1.68c1.12,1.12,2.24,2.24,3.35,3.36,2.56,2.57,5.11,5.13,7.65,7.68,9.28,9.31,18.5,18.56,28.3,28.39,4.56,4.57,9.41,9.42,14,14.01,2.68,2.69,5.07,5.09,7.43,7.47l1.77,1.78c.27.37.62.68.8,1.07.44.74.69,1.55.7,2.47,0,.95-.28,2-.86,2.9-.58.9-1.42,1.61-2.4,1.99-.23.14-.51.16-.78.23-.25.11-.56.07-.85.1-.24.06-.73,0-1.12.01-.13,0-.16-.01-.21-.02l-.15-.02c-.1,0-.22,0-.25-.05-.05-.03-.11-.04-.17-.04-.09-.06-.2-.13-.3-.18-.17-.05-.53-.35-.84-.58-.17-.13-.31-.21-.5-.37l-.56-.49c-.38-.34-.73-.62-1.13-1-3.11-2.92-6.32-6.28-9.42-9.44-3.12-3.19-6.15-6.3-8.98-9.2-9.68-9.86-18.2-18.41-26.75-26.83-4.74-4.65-9.46-9.29-14.33-14.07-1.07-1.05-2.14-2.1-3.22-3.15l-.81-.79-.2-.2-.1-.1s-.07.06-.1.09l-.4.4-1.61,1.61c-1.91,1.91-3.84,3.84-5.79,5.79-2.26,2.27-4.58,4.59-6.96,6.98-3.15,3.15-6.1,6.11-8.9,8.91-1.07,1.07-2.13,2.13-3.17,3.17-.25.13.06.26.15.39l.39.39.78.78c.52.52,1.03,1.03,1.54,1.54,1.74,1.74,3.45,3.45,5.12,5.12,4.03,4.03,7.73,7.73,11.38,11.38,7.31,7.31,14.44,14.45,23.66,23.69,1.14,1.14,2.44,2.44,3.78,3.78,5.58,5.58,11.41,11.4,17.3,17.3l.49.49.25.25.12.12.06.07c.15.2.32.38.49.56.13.2.23.41.37.6.14.19.17.43.28.63.31.85.39,1.8.19,2.75-.2.95-.67,1.86-1.31,2.56-.64.7-1.43,1.18-2.31,1.42-.23.03-.44.14-.68.14-.24,0-.49.03-.73.06l-.99-.03c-.14-.06-.38-.02-.46-.08-.27-.05-1.35-.67-2.57-1.82-.58-.48-1.19-1.07-1.8-1.66-.61-.57-1.21-1.16-1.83-1.78-1.22-1.21-2.43-2.43-3.63-3.66-14.09-14.44-7.24-7.49-13.96-14.42-6.22-6.42-20.13-20.42-34.82-34.75-1.33-1.3-2.67-2.61-4.01-3.92l-2.7-2.64-1.35-1.32c-.22-.21-.45-.47-.67-.63l-.67.67c-2.88,2.89-5.76,5.77-8.6,8.62-3.58,3.59-7.09,7.11-10.41,10.44-1.54,1.54-3.06,3.07-4.56,4.57-.79.79-1.57,1.57-2.34,2.35l-.58.58c.17.19.38.39.57.58.38.38.77.77,1.15,1.15,2.5,2.49,4.9,4.89,7.18,7.17,2.85,2.85,5.41,5.4,7.56,7.55,11.47,11.47,22.94,22.94,34.39,34.4,3.52,3.52,7.03,7.04,10.54,10.55l2.63,2.64.66.66.33.33.15.15.08.09c.22.23.41.48.59.73.68,1.03.94,2.35.73,3.58-.14.89-.54,1.71-1.1,2.4-.6.68-1.32,1.24-2.17,1.52-1.68.64-3.68.25-5.01-.93-4.93-4.93-9.86-9.85-14.78-14.76-10-10.01-19.96-19.98-29.86-29.89-5.37-5.37-10.73-10.73-16.07-16.07l-3.63-3.63-.91-.91c-.08-.05-.15-.2-.23-.18l-.23.23-.45.45-1.81,1.81-6.03,6.03c-2.46,2.46-4.91,4.91-7.35,7.36-3.48,3.48-6.95,6.96-10.42,10.43l-.9.9c-.14.07,0,.15.07.22l.22.22.45.45,1.8,1.79,3.59,3.59,4.18,4.17c4.86,4.85,9.71,9.69,14.54,14.51,10.81,10.79,22.12,22.08,33.67,33.61,1.74,1.74,3.49,3.48,5.24,5.23l1.31,1.31.69.8c.32.54.65,1.06.75,1.66.19.58.15,1.21.11,1.84-.09.31-.08.64-.23.94-.06.15-.09.31-.16.46-.08.14-.16.29-.22.44-.06.16-.15.29-.25.42l-.27.4c-.25.2-.4.51-.67.67-.12.1-.24.2-.35.31-.14.07-.27.14-.4.23-.24.2-.56.23-.83.39-.24.08-.51.1-.75.19-.26.04-.54.03-.81.07-.28.03-.75,0-1.09,0-.09-.02-.18-.04-.28-.05h-.14s-.05-.04-.07-.05c-.32-.02-1.8-1.09-3.15-2.34l-2.13-2.02-2.16-2.15-4.32-4.4c-5.77-5.92-11.56-11.86-17.33-17.69-5.77-5.84-11.52-11.6-17.22-17.24-6.71-6.6-13.32-13.11-19.79-19.49l-1.01-.99-.13-.12s-.08-.1-.13-.02l-.25.25-.5.5-2,1.99c-1.33,1.33-2.65,2.65-3.98,3.97-1.42,1.42-2.83,2.82-4.23,4.22-2.67,2.67-5.31,5.3-7.91,7.9-2.21,2.2-4.4,4.39-6.57,6.56l-.94.94-.47.47-.23.23s-.1.08-.09.12l.12.12,1.87,1.87c1.24,1.24,2.48,2.48,3.72,3.72,2.77,2.78,5.5,5.51,8.18,8.19,9.72,9.73,18.7,18.73,26.68,26.72,5.76,5.72,15.04,14.94,21.06,20.91.96.96,1.92,1.92,2.88,2.88l.71.72c.11.14.23.26.35.39.09.14.2.28.3.42.08.15.17.3.26.44.63,1.21.74,2.74.27,4.04-.44,1.3-1.5,2.43-2.78,2.98-1.27.57-2.83.55-4.1-.03-.16-.07-.32-.14-.47-.24-.15-.08-.31-.17-.44-.29-.15-.1-.29-.21-.41-.34l-.2-.18-.37-.37-2.97-2.97c-1.98-1.99-3.97-3.97-5.96-5.97-3.98-3.99-7.98-7.98-11.98-11.99-8-8.01-16.02-16.04-23.99-24.02-3.99-3.99-7.96-7.97-11.92-11.93-1.72-1.72-3.44-3.44-5.15-5.15l-1.45-1.45-.72-.73-.36-.36-.18-.18s-.06-.09-.09-.06l-.09.09-2.9,2.9c-2.67,2.67-5.33,5.32-7.98,7.97-4.18,4.17-8.14,8.13-12,11.98-1.93,1.92-3.83,3.82-5.71,5.7l-1.41,1.41-.7.7-.74.77c-.99,1.03-1.97,2.05-2.88,3.15-1.89,2.13-3.57,4.43-5.2,6.79-1.56,2.4-3.07,4.86-4.35,7.49-2.65,5.21-4.65,10.91-5.97,17.07-1.77,8.42-1.97,17.44-.52,26,1.41,8.57,4.47,16.64,8.38,23.43.96,1.71,2.02,3.31,3.06,4.88.55.76,1.09,1.51,1.63,2.25l.4.55.72.86c.48.57.95,1.14,1.42,1.7.47.56.94,1.12,1.4,1.68.51.58,1.03,1.16,1.53,1.73.51.58,1.02,1.15,1.53,1.72l.75.85.37.42c.06.07.12.15.19.2l.2-.19c2.13-2.03,4.18-3.99,6.15-5.99,2.27-2.25,4.34-4.31,6.2-6.15,1.57-1.53,2.95-2.88,4.17-4.07,3.56-3.58,7.02-7.07,10.42-10.49.85-.86,1.7-1.71,2.54-2.55l1.26-1.27.31-.32c.1-.1.13-.11.19-.17.12-.09.21-.22.33-.29.91-.74,2.09-1.08,3.25-1.04,2.34.02,4.43,1.96,4.73,4.21.19,1.13-.04,2.32-.61,3.28-.13.25-.31.47-.48.7-.1.1-.2.21-.29.32l-.59.59-2.41,2.41c-6.43,6.44-12.86,12.87-19.46,19.49-2.83,2.83-5.67,5.68-8.55,8.56,2.86,2.85,5.74,5.72,8.65,8.62,3.42,3.39,6.9,6.86,10.48,10.42,1.45,1.46,2.91,2.92,4.37,4.38l2.64,2.64.66.66.33.33c.06.04.11.13.17.14l.17-.16,1.32-1.32c2.74-2.73,5.49-5.48,8.25-8.23,3.65-3.64,7.33-7.31,11.03-11,1.85-1.85,3.71-3.7,5.57-5.56l2.8-2.79c.89-.88,2.06-2.09,2.38-2.3,1.04-.81,2.41-1.17,3.74-.98,1.32.18,2.53.89,3.34,1.98.8,1.05,1.14,2.45.93,3.78-.1.66-.34,1.3-.69,1.86-.18.28-.38.55-.62.79l-.08.1-.16.17-.36.36-.71.71c-3.81,3.81-7.62,7.62-11.45,11.45-3.95,3.96-7.91,7.92-11.88,11.88l-5.64,5.64-.71.71c-.22.12,0,.24.11.35l.35.35,1.41,1.41,2.82,2.82,6.96,6.95c4.88,4.87,9.75,9.75,14.62,14.61l.7.7.18.18c.06,0,.12-.1.18-.15l.35-.35,1.41-1.41,2.81-2.81,4.11-4.11c1.91-1.91,3.82-3.82,5.72-5.72,3.81-3.81,7.61-7.61,11.39-11.39l2.83-2.83,1.42-1.41.71-.71c.14-.15.17-.16.24-.22l.19-.17c1.01-.86,2.36-1.29,3.7-1.17,1.33.12,2.56.76,3.42,1.8.84,1.01,1.25,2.34,1.14,3.66-.06.65-.24,1.29-.54,1.86l-.24.42-.29.39c-.1.13-.22.24-.33.37-.03.04-.17.18-.28.29l-.35.34c-1.84,1.84-3.68,3.67-5.51,5.49-3.66,3.64-7.29,7.26-10.89,10.84-1.8,1.79-3.59,3.57-5.37,5.35-1.4,1.39-2.79,2.78-4.19,4.17-.89.88-1.72,1.75-2.56,2.62l-1.26,1.31-.63.65-.16.16-.08.08s-.06.05,0,.08l.34.3c1.51,1.33,3.01,2.66,4.51,3.99,1.41,1.17,2.81,2.34,4.21,3.51.2.17.28.22.4.3l.33.24.66.48,1.32.95c.89.62,1.81,1.19,2.72,1.78,3.66,2.28,7.49,4.2,11.4,5.74,7.84,3.09,16.03,4.69,24.12,4.91,16.19.41,31.94-4.75,44.39-14.27.77-.61,1.56-1.19,2.3-1.82l2.22-1.91c1.43-1.34,2.87-2.71,4.11-3.97,2.57-2.57,5.15-5.15,7.74-7.73,5.58-5.58,11.2-11.2,16.9-16.91,1.29-1.3,2.59-2.59,3.89-3.89l.49-.49.24-.24s.11-.08.09-.12l-.12-.12-.98-.98-1.96-1.95c-2.01-2.01-4.04-4.03-6.07-6.06-2.69-2.68-5.4-5.38-8.14-8.12-5.48-5.45-11.08-11.02-16.86-16.76-7.71-7.85-17.2-17.35-26.88-27.03-1.21-1.21-2.42-2.42-3.64-3.63l-.45-.45c-.13-.14-.16-.18-.24-.27-.16-.15-.27-.33-.4-.5-.24-.35-.44-.73-.58-1.13-.62-1.6-.27-3.51.76-4.8,1.05-1.35,2.7-2.04,4.32-1.91.81.04,1.57.32,2.22.72.34.19.62.45.91.71.52.53,1.05,1.05,1.56,1.57,18.14,18.11,36.4,36.34,54.76,54.66l5.13,5.12,3.37,3.37.42.42c.14-.09.28-.27.42-.39l.84-.84,1.68-1.69c3-3,6-6,9-9l6.9-6.9,5.65-5.65,1.69-1.69.84-.84.21-.21c-.06-.07-.14-.14-.2-.21l-.42-.42-3.38-3.38c-9.74-9.74-19.5-19.51-29.28-29.28-9.25-9.25-18.51-18.52-27.79-27.8l-3.48-3.48c-.27-.27-.65-.65-.72-.74-.15-.15-.28-.31-.39-.48-.25-.32-.43-.7-.6-1.07-.28-.76-.42-1.6-.32-2.43.11-.82.37-1.61.84-2.28.47-.67,1.11-1.25,1.82-1.64.73-.36,1.55-.57,2.38-.57.83.02,1.65.21,2.37.6.35.21.7.42,1,.72l.12.1.06.05.11.11.44.44.87.87c18.58,18.59,37.19,37.21,55.8,55.83,2.46,2.46,5.04,5.04,7.72,7.72.09.07.18.24.27.22l.27-.27.55-.55,1.11-1.11c.74-.74,1.49-1.49,2.24-2.24,1.26-1.26,2.55-2.55,3.85-3.85,3.16-3.16,6.49-6.49,9.9-9.89,2.68-2.68,5.4-5.4,8.13-8.12l.64-.64.32-.32.16-.16.08-.08s.03-.03.03-.04l-.04-.04-1.28-1.28-2.55-2.55-4.27-4.27c-3.46-3.46-6.9-6.9-10.23-10.23-13.3-13.29-24.74-24.72-28.18-28.15-7.03-7.01-12.77-12.73-17.77-17.73-.31-.31-.61-.61-.91-.92-.13-.18-.31-.31-.42-.5-.27-.33-.46-.71-.63-1.08-.33-.75-.43-1.58-.38-2.36.11-1.57.97-2.91,2.15-3.74,1.15-.82,2.65-1.09,4.01-.76.68.16,1.31.46,1.87.89.33.21,1.62,1.56,2.6,2.52,4.15,4.14,8.59,8.58,13.9,13.87,5.11,5.1,13.29,13.26,22.94,22.89,4.82,4.82,10.02,10.02,15.37,15.37,1.46,1.46,2.93,2.93,4.4,4.4,1.33,1.33,2.66,2.66,4,4l2.01,2.01.5.5c.17-.07.33-.31.5-.45l1.01-1.01c3.68-3.68,7.38-7.37,11.06-11.06,2.97-2.96,5.92-5.92,8.84-8.83,1.32-1.32,2.64-2.64,3.96-3.96.64-.66,1.35-1.31,1.93-1.97l-1.96-1.96c-2.2-2.2-4.38-4.39-6.54-6.54-5.19-5.2-10.15-10.16-14.65-14.67-9.01-9.02-16.24-16.26-20.06-20.08-4.92-4.92-9.78-9.78-14.6-14.6-2.41-2.41-4.82-4.81-7.21-7.21-.19-.18-.18-.2-.27-.3-.07-.08-.15-.15-.21-.23-.1-.18-.27-.32-.36-.52-.24-.35-.38-.74-.52-1.13-.24-.8-.28-1.67-.12-2.49.32-1.63,1.55-3.07,3.1-3.65,1.55-.6,3.43-.38,4.74.63.18.11.33.26.48.4l.13.11.22.22.44.44,1.78,1.78,3.55,3.55c2.37,2.37,4.74,4.74,7.11,7.11,9.49,9.49,19.03,19.02,28.75,28.73,4.86,4.86,9.76,9.76,14.72,14.72,2.01,2.01,4.02,4.02,6.05,6.05l1.84,1.84.46.46.23.23c.08.02.15-.13.23-.18l.92-.92c1.23-1.23,2.46-2.46,3.69-3.69,2.91-2.91,5.84-5.84,8.8-8.8,2.4-2.4,4.83-4.83,7.27-7.27,1.13-1.13,2.26-2.26,3.39-3.39l1.7-1.7.85-.85.43-.43c-.08-.14-.27-.28-.39-.43-2.27-2.27-4.56-4.56-6.85-6.85-4.67-4.67-9.4-9.41-14.18-14.19-9.55-9.56-19.27-19.29-28.99-29.03-4.86-4.87-9.72-9.73-14.56-14.58-.19-.18-.21-.23-.29-.32l-.22-.24c-.11-.18-.27-.33-.36-.52-.24-.35-.38-.75-.52-1.14-.23-.81-.28-1.69-.1-2.51.33-1.64,1.6-3.08,3.16-3.62,1.56-.6,3.43-.29,4.71.72.18.1.31.28.47.4l.85.85,1.77,1.77c1.18,1.18,2.35,2.35,3.51,3.52,4.67,4.67,9.28,9.28,13.8,13.8,8.36,8.34,18.68,18.65,29.14,29.09,2.61,2.61,5.24,5.22,7.84,7.82,2.21,2.21,4.41,4.4,6.59,6.58l.95.94.47.47.24.24s.08.11.12.09l.12-.12,1.88-1.88c1.25-1.25,2.5-2.5,3.74-3.74,5.32-5.32,10.42-10.44,15.08-15.1,2.06-2.06,4.15-4.15,6.25-6.25,1.05-1.05,2.11-2.11,3.17-3.17.52-.51,1.09-1.11,1.65-1.7.55-.59,1.13-1.16,1.66-1.78,2.16-2.43,4.17-5.02,6.01-7.74,1.8-2.75,3.48-5.6,4.89-8.58,5.75-11.91,7.89-25.47,6.48-38.14-1.36-12.7-6.18-24.46-12.86-33.57l-.62-.86-.31-.43-.16-.22-.28-.34c-.76-.9-1.51-1.8-2.26-2.69l-1.12-1.33-1.23-1.39c-.82-.92-1.64-1.84-2.45-2.75l-.3-.34-.15-.17c-.05-.04-.1-.17-.16-.07l-.65.62-1.29,1.24c-.86.83-1.71,1.62-2.56,2.48-1.42,1.42-2.82,2.83-4.2,4.21-3.32,3.33-6.44,6.46-9.31,9.34-6.35,6.36-8.82,8.83-10.86,10.87-.51.51-.99.98-1.5,1.49-.25.25-.51.51-.79.78-.16.14-.33.3-.5.46-.67.48-1.62,1.12-3.24,1.08-1.65-.02-3.28-.94-4.15-2.41-.91-1.42-.94-3.39-.13-4.9.22-.37.44-.74.76-1.05l.11-.13.23-.23.47-.47.93-.93c1.24-1.25,2.49-2.5,3.74-3.75,2.5-2.51,5.01-5.02,7.52-7.54,2.51-2.51,5.02-5.03,7.51-7.53,1.38-1.39,2.76-2.77,4.14-4.14,1.22-1.22,2.44-2.44,3.65-3.65l1.82-1.82.91-.91c.15-.08-.05-.15-.09-.23l-.23-.23-.45-.45c-6.01-6.01-11.92-11.91-17.63-17.62l-5.35-5.35-1.73-1.73-.86-.86-.43-.43-.22-.22c-.07-.07-.15-.19-.21-.07l-3.17,3.04-5.77,5.56-3.6,3.53c-4.78,4.72-9.47,9.63-14.03,14.39-1.13,1.17-2.27,2.33-3.35,3.32-1.09,1.05-2.1,1.79-2.76,2.1-.17.11-.32.14-.46.18-.13.07-.32.07-.5.11-.14.05-.43.04-.67.05-.26.04-.46-.01-.68-.03-.86-.06-1.63-.28-2.29-.75-1.31-.87-2.34-2.59-2.29-4.25,0-.82.2-1.58.56-2.29.12-.17.22-.34.32-.52.13-.17.29-.32.42-.49l.1-.13s.06-.09.15-.17l.44-.44.88-.88c4.7-4.69,9.39-9.36,14.06-14.03,2.34-2.33,4.67-4.66,7-6.98,1.88-1.88,3.76-3.75,5.63-5.62l1.73-1.72.86-.86c.14-.14.31-.29.41-.43l-.43-.43-3.44-3.44c-5.2-5.21-10.37-10.4-15.52-15.56-2.04-2.04-4.07-4.08-6.1-6.11l-1.7-1.71c-.15-.26-.27,0-.4.1l-.39.37-.78.75-3.12,2.99c-1.73,1.67-3.45,3.33-5.18,4.99-1.16,1.14-2.31,2.27-3.47,3.4-2.27,2.29-4.72,4.78-7.27,7.45-2.56,2.65-5.25,5.56-7.98,8.32-1.34,1.36-2.77,2.69-3.82,3.37-.28.23-.47.24-.68.38-.1.06-.19.05-.28.09-.09.03-.17.08-.3.08-.11.01-.23.04-.34.06-.13.02-.31.01-.46.02-.34.05-.6-.02-.88-.03-1.1-.12-2.09-.51-2.88-1.32-.79-.79-1.36-1.92-1.53-3.08-.12-1.17.14-2.26.79-3.24.13-.26.41-.46.58-.72.03-.03.04-.06.08-.1l.16-.16.32-.32.64-.64c.85-.85,1.7-1.71,2.56-2.56,3.43-3.43,6.92-6.92,10.44-10.44,3.97-3.96,7.97-7.96,11.98-11.97l1.31-1.32,1.24-1.31,1.24-1.31.62-.66.31-.33.16-.16.08-.08s-.05-.05-.07-.08l-5.43-4.9c-.91-.79-1.86-1.54-2.78-2.31-.55-.46-.72-.57-1.01-.79l-.81-.61c-1.09-.8-2.21-1.58-3.34-2.31-4.54-2.95-9.4-5.36-14.42-7.17-1.25-.45-2.52-.86-3.79-1.24l-1.91-.53c-.39-.1-.45-.14-.61-.19-.15-.03-.29-.09-.42-.16-1.09-.46-2.01-1.33-2.51-2.41-.51-1.08-.6-2.26-.31-3.4.31-1.12.98-2.07,1.89-2.74.92-.65,2.04-.96,3.11-.92.27.04.54.04.8.12l.2.04.37.1.74.21c.99.26,1.96.55,2.92.86,7.67,2.42,14.36,5.82,19.84,9.44,5.5,3.63,9.75,7.38,13.04,10.68,21.69,21.68,49.01,49,67.48,67.46,3.12,3.11,5.36,5.34,7.1,7.07.36.36.7.7,1.01,1.01h0s0,.02,0,.02c0,.02,0,.04.02.06.45.34.64.68.98,1.08.26.3.54.57.8.87.2.04.32-.07.45-.09.15-.02.26.03.36-.02.07-.03.11-.19.18-.23-.22-.05-.02-.3.09-.25.53.12.74-.13.99-.33.29-.02.28.19.45.27.28-.23.45-.59.99-.51.09-.16.16-.35.36-.37l.45.09c.13-.17.36-.23.54-.33.13-.08.24-.21.36-.19.13.02.1-.19.18-.23.21.07.35.05.45,0,.22-.28.52-.45.64-.84.19-.07.35-.17.54-.25.06-.49.51-.53.55-1.04.12-.1.44.05.45-.18-.33-.13-.12-.67-.17-1.01-.17-.06-.24-.22-.36-.34-.11-.11-.44-.36-.45-.44,0-.1-.04-.05-.09-.11-.13-.16-.32-.27-.45-.35-.1-.06-.14-.11-.27-.14-.05-.34-.41-.52-.62-.74-.04-.04-.05-.15-.09-.19-.07-.08-.19-.07-.27-.14-.14-.13-.19-.31-.36-.42l-.16-.14-.04-.03-4.79-4.78c-4.8-4.8-9.6-9.59-14.41-14.4-19.25-19.22-38.57-38.52-58.32-58.25-4.83-4.62-10.24-8.76-16.14-12.25-5.89-3.5-12.26-6.37-18.98-8.45-.84-.27-1.68-.52-2.53-.75l-1.28-.35c-.18-.06-.48-.12-.77-.18l-.87-.18c-2.35-.36-4.82-.13-7.07.69-4.5,1.61-8.15,5.71-9.05,10.51-1.06,4.78.68,10.06,4.35,13.37.92.83,1.94,1.55,3.04,2.12.55.29,1.13.52,1.7.75l.89.28.72.21c1.59.43,3.17.92,4.73,1.47,3.93,1.45,6.52,2.7,10.17,4.8,1.64.97,3.49,2.14,5.37,3.52.4.3.81.6,1.23.91l.36.28.31.25.15.13.08.07s.05.04,0,.07l-.55.58c-.65.66-1.3,1.32-1.93,1.96-1.8,1.81-3.5,3.52-5.01,5.04-2.99,2.96-5.74,5.68-8.52,8.44-1.38,1.36-2.77,2.73-4.18,4.12-.71.7-1.43,1.42-2.16,2.14-.37.36-.73.73-1.11,1.1-.39.39-.7.66-1.25,1.31-2.16,2.33-3.68,5.77-3.69,9.32.02,3.53,1.26,7.1,3.7,9.76,1.16,1.39,2.7,2.44,4.3,3.29,1.65.74,3.42,1.29,5.16,1.37.43.03.88.07,1.3.07l1.24-.06c.4,0,.87-.11,1.31-.18.44-.08.88-.16,1.33-.31.44-.14.89-.28,1.3-.45.39-.19.78-.39,1.17-.58.41-.19.7-.42,1.04-.63.32-.22.67-.43.95-.65,2.72-2.12,4.8-4.39,7.13-6.77,2.27-2.36,4.7-4.88,7.25-7.53,2.56-2.62,5.26-5.34,8.11-8.12.91-.88,1.83-1.78,2.76-2.69l.42-.4.21-.2.1-.1.05-.05s.02.02.03.03l.46.46c2.69,2.69,5.44,5.45,8.24,8.25,1.57,1.57,3.15,3.15,4.73,4.74l.56.56.24.24c.08.04,0,.08-.03.12l-.12.12c-5.68,5.68-11.44,11.43-17.07,17.05-1.59,1.59-3.16,3.16-4.73,4.73-.78.78-1.56,1.56-2.34,2.34-.17.15-.47.51-.71.78l-.74.87c-.48.59-.85,1.29-1.26,1.94-1.51,2.73-1.94,5.98-1.44,8.92.5,2.95,1.89,5.67,3.93,7.77,2.03,2.11,4.77,3.54,7.57,4.01,1.39.22,2.79.28,4.08.16.68-.07,1.41-.2,2.11-.36.69-.23,1.45-.41,2.05-.75,2.59-1.25,4.17-2.79,5.65-4.13,1.41-1.36,2.7-2.68,3.92-3.95,4.84-5.07,9.04-9.43,12.6-12.96,2.69-2.65,4.78-4.71,6.12-6.03l.35-.35.18-.17s.07.05.1.08l.39.38c.94.94,1.89,1.88,2.84,2.82,2.58,2.57,5.17,5.16,7.77,7.75.93.93,1.86,1.86,2.78,2.78l.41.41s.11.07.06.1l-.1.1-.2.2c-1.99,1.99-3.97,3.96-5.91,5.89-5,4.98-9.8,9.77-14.25,14.2-1.11,1.11-2.2,2.19-3.26,3.25l-.79.79c-.33.36-.7.76-1.03,1.14-.64.81-1.21,1.67-1.66,2.57-1.83,3.63-1.91,7.71-.75,11.03.81,2.5,2.7,5.35,5.69,7.31,2.98,1.98,7.06,2.84,10.86,1.96,1.9-.42,3.72-1.25,5.27-2.38.39-.28.77-.57,1.11-.9l.52-.48c.18-.17.25-.25.39-.38.47-.47.93-.94,1.38-1.39,1.82-1.83,3.49-3.51,4.87-4.9,3.61-3.61,10.34-10.33,17.22-17.2l.3-.3c.1-.07.2-.29.29-.1.19.22.34.37.63.75l.4.51c.35.48.69.96,1.04,1.43.71.93,1.31,1.91,1.92,2.85,2.41,3.77,4.1,7.42,5.18,10.21,3.3,8.29,4.53,16.77,4.26,24.88-.3,8.13-2.16,15.95-5.46,23.2-1.65,3.62-3.67,7.09-6.06,10.38-.59.83-1.24,1.61-1.86,2.43-.63.8-1.33,1.56-2,2.35-.68.78-1.42,1.51-2.13,2.27-.73.76-1.57,1.57-2.35,2.36-6.37,6.37-13.05,13.03-20.25,20.23l-1.95,1.95c-.04.07-.08,0-.12-.03l-.12-.12-.24-.24-1.14-1.14c-3.16-3.17-6.33-6.34-9.5-9.51-6.34-6.34-12.68-12.69-19-19.02-7.09-7.11-15.24-15.28-23.35-23.42-1.01-1.02-2.03-2.03-3.03-3.05l-1.51-1.52-.38-.38c-.14-.13-.22-.23-.43-.42-.38-.34-.73-.69-1.14-.99-3.18-2.52-7.41-3.52-11.27-2.84-3.89.64-7.36,2.97-9.43,6.07-2.13,3.11-2.86,6.94-2.29,10.37.38,2.49,1.5,4.92,3.17,6.91.97,1.11,1.49,1.55,2.17,2.25.66.65,1.32,1.31,1.98,1.97,2.65,2.63,5.35,5.31,8.06,7.99,5.41,5.37,10.81,10.73,15.76,15.65,5.77,5.8,11.78,11.83,17.85,17.93,3.02,3.05,6.05,6.1,9.06,9.14,1.34,1.35,2.67,2.69,3.99,4.02l.41.42.1.1s.04.03.04.05l-.05.05-.21.21c-2.03,2.04-5.23,5.27-8.49,8.55-1.66,1.68-3.33,3.36-4.85,4.9-.18.18-.36.39-.52.52-.17-.16-.32-.31-.45-.44-1.53-1.55-5.61-5.68-7.32-7.41-5.67-5.63-15.05-14.95-21.05-20.91-7.43-7.43-15.31-15.32-23.24-23.26l-5.94-5.95-.78-.77c-.37-.33-.72-.67-1.11-.98-.78-.61-1.61-1.15-2.5-1.59-1.77-.88-3.72-1.38-5.68-1.47-3.92-.21-7.9,1.31-10.65,4.05-2.79,2.69-4.36,6.57-4.28,10.36.03,1.9.43,3.78,1.18,5.5.37.86.83,1.68,1.37,2.45.28.37.53.77.85,1.1l.46.52c.15.17.33.36.42.45,1.84,1.85,3.66,3.67,5.43,5.45,3.55,3.56,6.96,6.98,10.17,10.2,6.43,6.44,12.06,12.08,16.49,16.52,7.57,7.55,14.13,14.09,20.53,20.47,1.6,1.59,3.19,3.17,4.78,4.76l.8.79.25.24s.12.08.09.12l-.12.12c-2.44,2.44-4.92,4.93-7.53,7.54-1.7,1.7-3.41,3.4-5.11,5.11l-1.1,1.1-.27.27s-.09.12-.13.11l-.13-.13c-2.63-2.63-5.26-5.27-7.9-7.9-6.86-6.86-13.72-13.73-20.56-20.57-6.83-6.84-13.63-13.64-20.36-20.37-1.68-1.68-3.36-3.36-5.03-5.04l-2.5-2.51-1.25-1.25-.62-.62-.32-.32-.46-.42c-2.43-2.26-5.71-3.59-9-3.7-3.28-.14-6.63.88-9.22,2.9-2.6,1.97-4.5,4.86-5.23,8.03-.76,3.15-.41,6.54,1,9.45.7,1.45,1.64,2.78,2.75,3.92.8.8,1.6,1.6,2.39,2.4,1.59,1.59,3.17,3.17,4.74,4.74,6.28,6.29,12.4,12.42,18.34,18.36,11.7,11.72,22.65,22.69,32.53,32.58.13.13.28.27.43.43l.12.12s.05.04.05.06l-.06.06c-.08.08-.16.16-.24.25-1.23,1.25-2.55,2.59-3.89,3.94-3.42,3.45-6.87,6.92-9.48,9.55-.1.1-.2.2-.3.3l-.16.16c-.05.05-.11-.08-.16-.11-.28-.28-.57-.58-.88-.89-2.29-2.3-4.74-4.77-7.21-7.25-4.95-4.97-9.99-10.03-13.98-14.04-7.68-7.66-14.16-14.11-20.49-20.42-3.16-3.15-6.29-6.26-9.51-9.46-1.61-1.6-3.24-3.23-4.91-4.89-.42-.42-.84-.84-1.26-1.26l-.32-.32-.47-.43c-.31-.28-.62-.57-.97-.82-1.35-1.04-2.92-1.85-4.61-2.34-3.44-1.02-7.24-.66-10.42.96-3.18,1.62-5.68,4.42-6.9,7.75-1.23,3.31-1.16,7.04.16,10.3.66,1.63,1.64,3.12,2.83,4.38.33.37.49.51.73.75l.65.65,1.31,1.31c6.96,6.97,13.82,13.84,20.6,20.62,6.78,6.79,13.48,13.5,20.12,20.15,3.32,3.33,6.63,6.64,9.93,9.94,1.61,1.62,3.22,3.23,4.83,4.84l.49.49c.06.08.21.16.19.25l-.25.24c-2.65,2.65-5.3,5.29-7.95,7.93l-4.9,4.89-.78.77c-.16.12-.32.45-.47.15-5.74-5.75-11.47-11.49-17.22-17.25-13.05-13.07-26.16-26.19-39.51-39.56-.36-.35-.71-.7-1.06-1.05l-.53-.52c-.07-.08-.19-.19-.33-.31l-.39-.35c-1.04-.93-2.22-1.71-3.47-2.28-2.5-1.18-5.29-1.56-7.93-1.21-2.65.33-5.15,1.46-7.17,3.09-1.98,1.66-3.55,3.81-4.39,6.22-.88,2.39-1.06,4.98-.62,7.43.46,2.44,1.55,4.77,3.15,6.64.91,1.04,1.4,1.47,2.04,2.12l1.83,1.83c1.22,1.22,2.43,2.43,3.64,3.64,9.69,9.65,19.24,19.17,30.24,30.13,5.84,5.89,11.14,11.24,16.11,16.26,1.82,1.83,3.59,3.6,5.31,5.32.43.23-.03.46-.22.69-.78.78-1.55,1.56-2.32,2.33-4.53,4.55-8.91,8.94-13.27,13.32-2.18,2.19-4.36,4.38-6.55,6.58l-1.65,1.65-1.59,1.52c-.52.52-1.08,1-1.64,1.48-.57.47-1.1.99-1.7,1.43-1.99,1.68-8.03,6.06-15.1,8.87-3.51,1.43-7.21,2.53-10.47,3.19-3.26.65-6.05.99-7.77,1.1-10.61.85-21.57-1.06-31.28-5.75-2.42-1.18-4.8-2.46-7.04-3.97-1.15-.71-2.22-1.53-3.32-2.32l-.34-.25-.14-.11-.28-.23c-.18-.14-.42-.33-.49-.4l-.33-.29c-.1-.05-.02-.1.03-.15l.15-.15.84-.85,6.11-6.12c4.07-4.08,8.14-8.15,12.19-12.21l3.04-3.04,1.52-1.52c.21-.2.62-.65.94-1,.35-.36.63-.79.93-1.19,2.35-3.32,3.1-7.64,2.11-11.54-.96-3.93-3.65-7.34-7.21-9.19-3.56-1.87-7.87-2.11-11.6-.7-1.87.7-3.58,1.8-4.98,3.19-1,1-2,1.99-2.99,2.99-1.98,1.98-3.95,3.95-5.92,5.92-3.98,3.98-7.95,7.95-11.92,11.91l-3.6,3.59-.15.15-.15-.15-.3-.31-1.78-1.78c-3.8-3.8-7.59-7.6-11.38-11.39l-.6-.6-.04-.04.04-.04.08-.07.15-.15.3-.3,5.15-5.14c3.93-3.92,7.86-7.84,11.78-11.76l5.88-5.87.73-.73.37-.37.48-.52c.33-.36.65-.73.93-1.13.3-.39.58-.79.82-1.22,1-1.69,1.65-3.59,1.89-5.53.51-3.88-.69-7.97-3.25-10.95-2.49-3-6.33-4.9-10.24-5.06-3.9-.21-7.9,1.29-10.68,4.05l-5.89,5.88-11.71,11.69-5.85,5.84-.9.89-.14.13s-.09.13-.14.04l-.27-.27-10.05-10.08-3.55-3.56-.13-.13s-.03-.04,0-.07l.07-.07.27-.26,1.54-1.53c3.9-3.89,7.81-7.79,11.71-11.68l5.86-5.85,2.93-2.92,1.47-1.46.37-.37.18-.18.24-.26c.33-.37.68-.71.97-1.12,2.45-3.12,3.5-7.27,2.85-11.17-.61-3.92-2.95-7.53-6.25-9.71-3.31-2.22-7.54-2.94-11.39-1.99-1.93.47-3.77,1.34-5.35,2.55-.78.58-1.58,1.38-1.97,1.78l-1.47,1.47c-5.91,5.92-11.56,11.58-17.12,17.15-1.39,1.39-2.78,2.78-4.17,4.17l-.44.43c-.12.11-.23.24-.34.33l-.32-.37-.54-.67-.07-.09-.13-.17-.4-.56-.81-1.11c-.56-.73-1.02-1.52-1.53-2.28-3.96-6.18-6.87-13.18-8.42-20.81-1.54-7.62-1.72-15.88-.06-24.39.97-4.52,2.48-9.08,4.55-13.52,2.09-4.42,4.78-8.68,7.99-12.64.85-.95,1.64-1.96,2.54-2.88l1.33-1.4c.44-.46.96-.97,1.44-1.45,1.96-1.96,3.93-3.93,5.92-5.91,3.96-3.96,7.96-7.96,11.98-11.98l4.73-4.73.25-.25s.08-.12.12-.09l.12.12.64.64c4.01,4.01,8.01,8.01,11.97,11.97,7.9,7.92,15.64,15.69,23.04,23.12,6.37,6.35,12.68,12.63,18.92,18.85l2.34,2.33,1.17,1.16.29.29.43.39c.3.26.57.54.89.77,2.47,1.95,5.6,3.03,8.71,3.07,3.11.03,6.25-.94,8.74-2.82,2.51-1.82,4.36-4.5,5.27-7.47.86-2.97.81-6.19-.28-9.08-.53-1.44-1.28-2.82-2.24-4.01-.23-.31-.5-.58-.75-.86l-.38-.41-.28-.28-1.14-1.13c-3.03-3.02-6.04-6.03-9.03-9.03-5.99-5.99-11.92-11.93-17.8-17.82-5.87-5.89-11.69-11.72-17.46-17.5-2.88-2.89-5.75-5.77-8.61-8.64-1.21-1.22-2.42-2.43-3.63-3.65l-.33-.34-.08-.08-.04-.04.04-.04.17-.16c4.51-4.48,8.99-8.93,13.44-13.34.1-.08.2-.23.3-.24l.29.3c.98.97,1.96,1.94,2.94,2.91,2.77,2.75,5.54,5.49,8.29,8.22,13.77,13.58,26.72,26.76,39.44,39.83,1.6,1.63,3.21,3.26,4.9,4.9.86.82,1.68,1.63,2.67,2.47.49.42.91.82,1.53,1.26l.87.64.44.32.56.32,1.14.61c.39.19.9.34,1.35.49.47.16.94.29,1.37.33.44.07.89.13,1.32.17l1.04.03h.52s.6-.02.6-.02c.81-.07,1.61-.07,2.41-.29,3.22-.64,6.22-2.47,8.28-4.98,2.08-2.49,3.24-5.65,3.39-8.89.15-3.24-.86-6.63-2.84-9.2-.49-.59-1.06-1.27-1.53-1.76l-1.18-1.18-2.36-2.36-4.72-4.72c-12.58-12.59-25.15-25.18-38-38.05-3.21-3.22-6.44-6.45-9.7-9.7-.72-.72-1.44-1.44-2.16-2.17l-.07-.07s.04-.04.06-.07l.14-.13.8-.8c3.3-3.3,6.63-6.63,9.99-9.98.82-.82,1.65-1.65,2.48-2.48.09-.18.18.04.28.1l.81.81c9.76,9.76,23.81,23.81,33.93,33.93,5.55,5.53,9.22,9.19,12.67,12.63,1.72,1.71,3.39,3.36,5.2,5.16.9.9,1.85,1.83,2.85,2.83.5.5,1.02,1.01,1.55,1.54.27.27.54.54.82.81l.45.44c.21.19.43.39.65.59,1.76,1.54,3.8,2.57,5.86,3.1,2.06.54,4.14.61,6.1.29,3.94-.64,7.42-2.88,9.65-6.1,2.26-3.23,3.26-7.56,2.13-11.97-.55-2.19-1.68-4.38-3.4-6.24-.48-.54-.72-.74-1.05-1.09-.32-.32-.64-.64-.97-.97-.66-.66-1.33-1.34-2.04-2.04-4.81-4.83-6.86-6.89-12.33-12.39-4.67-4.68-9.68-9.68-14.42-14.43-5.54-5.54-11.16-11.16-16.76-16.77-2.8-2.8-5.61-5.61-8.4-8.4-.85-.85-1.7-1.7-2.54-2.54-.06-.09-.24-.18-.21-.26l.26-.26c4.88-4.89,9.17-9.2,13.38-13.43.05-.09.09.03.14.05l.14.13.43.41c1.39,1.36,2.79,2.72,4.2,4.1,2.81,2.76,5.67,5.58,8.68,8.54,11.99,11.84,24.03,24.04,35.98,36.35l4.56,4.62c.76.77,1.54,1.54,2.37,2.32l1.22,1.16,1.35,1.18c.24.2.43.39.7.59l.82.61.82.6c.33.2.7.4,1.05.6.38.19.68.39,1.12.55.43.16.87.3,1.31.43.45.16.85.19,1.27.25.39.05.89.13,1.2.13,1.22.06,2.83.04,4.33-.27.75-.19,1.52-.31,2.23-.64.72-.29,1.45-.57,2.11-.99,5.42-3.12,8.35-9.57,7.05-15.65-.32-1.51-.86-2.98-1.64-4.28-.4-.65-.78-1.32-1.29-1.86l-.73-.85-.36-.4-.28-.28c-1.48-1.48-2.95-2.95-4.41-4.41-5.81-5.82-11.55-11.56-17.2-17.21-11.92-11.93-23.61-23.64-35.3-35.34l-1.12-1.13,1.17-1.16c2.93-2.93,5.86-5.86,8.8-8.79l3.41-3.41.27-.27c.04-.09.09.03.14.06l.14.13c2.46,2.42,4.93,4.84,7.41,7.28,8.7,8.6,17.56,17.4,26.33,26.3,4.38,4.47,8.76,8.94,13.12,13.39,2.18,2.23,4.35,4.47,6.59,6.7l1.68,1.67,1.76,1.68c1.21,1.12,2.5,2.27,4.19,3.43.56.34,1.17.66,1.77.97.65.29,1.44.52,2.16.73l1.05.16c.33.04.76.11,1,.1.57,0,1.07.05,1.71.02,2.57-.01,5.27-.82,7.53-2.26,4.57-2.9,7.23-8.27,6.78-13.68-.21-2.7-1.24-5.35-2.83-7.48-.42-.51-.84-1-1.28-1.49-.39-.42-.66-.67-1-1.01-.64-.64-1.29-1.29-1.92-1.92-2.55-2.56-5.06-5.06-7.48-7.49-10.58-10.61-20.24-20.29-31.43-31.51-4.41-4.42-8.81-8.82-13.19-13.2l-3.26-3.27c.15-.18.39-.38.58-.57l2.59-2.54c4.46-4.38,8.78-8.89,13.05-13.3,4.27-4.41,8.49-8.71,13-12.3,4.48-3.65,9.43-6.41,14.8-8.6l.66-.29.77-.35c.5-.26.99-.55,1.48-.85.94-.64,1.83-1.36,2.61-2.2,1.56-1.66,2.75-3.66,3.4-5.84.66-2.17.82-4.51.44-6.77-.38-2.26-1.29-4.39-2.64-6.24-2.68-3.74-7.17-6.02-11.76-6.06-1.15,0-2.3.1-3.42.37-1.1.22-2.32.71-2.95.99-1.51.66-3.04,1.27-4.54,1.97-6.01,2.79-11.75,6.39-16.95,10.54-7.14,5.64-13.58,12.41-19.96,18.98-6.35,6.6-12.66,13.06-18.83,18.97-1.1,1.04-2.09,2-3.01,2.87-.25.24-.5.47-.74.7-.22.22-.43.43-.64.64-.42.42-.82.82-1.21,1.21-1.55,1.56-2.89,2.9-4.2,4.21-2.61,2.62-5.08,5.11-8.83,8.87-8.81,8.82-15,15.02-23.68,23.7-4.18,4.2-6.66,6.69-10.5,10.54-14.2,14.19-29.8,29.79-44.03,44.02-18.96,18.91-36.83,36.74-54.61,54.47-4.44,4.43-8.88,8.85-13.33,13.29-2.22,2.22-4.45,4.44-6.68,6.66-2.23,2.23-4.44,4.39-6.78,6.87-9.08,9.79-16.1,21.76-20.1,35.04-6.34,20.9-4.83,43.61,4.07,63.32.58,1.22,1.15,2.45,1.75,3.66.64,1.19,1.26,2.4,1.91,3.58.69,1.16,1.37,2.34,2.08,3.5l1.54,2.36c.04.07.11.14.13.21l-.21.15-.08.06-.79.67-1.59,1.34c-1.08.87-2.07,1.85-3.07,2.82-3.99,3.88-7.58,8.25-10.61,13.03-3.02,4.78-5.47,9.98-7.29,15.43-4.37,12.87-4.84,26.75-1.85,39.73,1.5,6.49,3.89,12.78,7.1,18.63,3.23,5.84,7.29,11.22,12.03,15.95,4.19,4.17,8.86,7.87,13.91,10.85.61.41,1.27.73,1.91,1.09l.37.2c.14.03.07.17.09.27,0,2.66,0,5.31,0,7.97,0,2.73,0,5.46,0,8.19v4.09s0,2.04,0,2.04v1.02s0,.51,0,.51c0,.14.01.47.02.7.13,4.02,2.02,7.95,5.03,10.58,2.98,2.67,7.13,4.03,11.09,3.67,1.59-.14,3.16-.53,4.64-1.16,1.48-.64,2.84-1.52,4.04-2.59,2.41-2.12,4.08-5.1,4.69-8.29l.18-1.2c.04-.4.05-.81.07-1.21.02-.46.01-.65.01-.95v-.83c0-1.1,0-2.21,0-3.32,0-2.21,0-4.44,0-6.66,0-1.22,0-2.44,0-3.66v-.14s0-.07,0-.07h.07s.28.04.28.04l.44.03,1.81.09c1.2.04,2.41.06,3.62.04,1.21-.02,2.41-.06,3.62-.14l.41-.03h.14s.14-.03.14-.03c.02,0,.05-.01.07,0v.36s0,5.4,0,5.4c0,4.53,0,9.07,0,13.59,0,9.05,0,18.07,0,26.99-.02,20.84-.03,30.67-.05,51.05,0,13.36,0,18.39,0,31.5.02,6.57.04,12.3.05,18.19,0,1.32.01,2.65.02,4.01,0,.14,0,.28.01.42-.11.03-.28.02-.43.03-1.51,0-3.07,0-4.7,0-1.7,0-3.5,0-5.37,0-.07,0-.15,0-.2,0v-.21c0-.58,0-1.17,0-1.76,0-5.95,0-11.99,0-17.56,0-15.32,0-29.71,0-43.96,0-7.12,0-14.21.01-21.36v-2.68s0-1.34,0-1.34v-.34s-.01-.46-.01-.46l-.05-.99c-.26-2.62-1.2-5.23-2.79-7.36-1.56-2.16-3.73-3.86-6.2-4.93-2.49-1.03-5.26-1.42-7.93-1-3.91.56-7.41,2.71-9.67,5.7-1.14,1.49-1.99,3.2-2.49,4.99-.26.9-.41,1.82-.5,2.74-.03.44-.06.97-.06,1.34v.94c-.01,5.02-.02,10.04-.03,15.34,0,9.83,0,20.47,0,29.89,0,10.08,0,3.44-.01,16.45Z"/>
    </g>
  </g>
</svg>