<?xml version="1.0" encoding="UTF-8"?>
<svg id="Ebene_1" xmlns="http://www.w3.org/2000/svg" version="1.1" viewBox="0 0 756.13 649.37">
  <!-- Generator: Adobe Illustrator 30.4.0, SVG Export Plug-In . SVG Version: 2.1.4 Build 226)  -->
  <defs>
    <style>
      .st0 {
        fill: #e5b969;
      }
    </style>
  </defs>
  <path class="st0" d="M751.52,371.85c-17.67-16.77-35.34-33.54-53.01-50.31.02-.22.02-.43.03-.65,1.09-2.77,1.32-5.8.29-8.74,17.25-16.33,34.51-32.65,51.76-48.98,6.13-5.8,6.29-17,0-22.78-6.58-6.04-16.24-6.19-22.78,0-17.33,16.4-34.67,32.8-52,49.21-15.62-13.65-31.51-27.25-47.8-40.36,22.04-29.56,44.08-59.12,66.12-88.69,2.34-3.14,2.61-8.82,1.62-12.41-1.03-3.74-3.92-7.78-7.4-9.63-3.74-1.98-8.27-2.97-12.41-1.62-4.24,1.37-6.98,3.85-9.63,7.4-21.2,28.44-42.4,56.88-63.6,85.31-26.29-19.61-53.75-37.46-82.96-51.82,16.93-34.44,33.87-68.87,50.8-103.31,1.93-3.92,2.82-8.08,1.62-12.41-1.03-3.74-3.92-7.78-7.4-9.63-7.26-3.83-18.07-2.29-22.04,5.78-17.47,35.53-34.94,71.07-52.42,106.6-9.25-3.61-18.66-6.88-28.28-9.7-22.24-6.52-44.83-10.18-67.47-11.36-.43-42.55-.85-85.09-1.28-127.64-.08-8.42-7.35-16.5-16.11-16.11-8.65.39-16.2,7.08-16.11,16.11.42,41.67.83,83.33,1.25,125-3.59,0-6.68,1.26-9.13,3.23-32.97,2.63-65.57,10.27-96.76,22.01-17.7-36-35.4-71.99-53.11-107.99-3.73-7.58-15.09-10.26-22.04-5.78-7.76,5.01-9.76,13.93-5.78,22.04,17.1,34.77,34.2,69.54,51.3,104.32-15.38,7.28-30.31,15.52-44.64,24.64-10.19,6.49-20.09,13.39-29.74,20.62-19.86-26.63-39.72-53.27-59.57-79.9-2.6-3.49-5.27-6.2-9.63-7.4-3.85-1.06-8.99-.58-12.41,1.62-3.44,2.22-6.47,5.52-7.4,9.63-.9,3.95-.91,9.01,1.62,12.41,20.78,27.88,41.57,55.75,62.35,83.63-19.45,16.52-37.75,34.41-55,53.23-14.99-14.23-29.99-28.46-44.98-42.69-6.12-5.8-16.79-6.52-22.78,0-5.77,6.29-6.53,16.58,0,22.78,17.81,16.91,35.63,33.81,53.44,50.72.76,1.71,1.94,3.37,3.64,4.92-.33.27-.65.54-.97.84-18.39,17.4-36.78,34.81-55.18,52.21-6.13,5.8-6.29,17,0,22.78,6.58,6.04,16.24,6.19,22.78,0,18.39-17.4,36.78-34.81,55.18-52.21.82-.78,1.52-1.65,2.13-2.6,15.75,13.7,31.78,27.29,48.23,40.34-2.19,1.39-3.97,3.24-5.69,5.56-22.06,29.58-44.11,59.16-66.16,88.75-2.34,3.14-2.61,8.82-1.62,12.41,1.03,3.74,3.92,7.78,7.4,9.63,3.74,1.98,8.27,2.97,12.41,1.62,4.24-1.37,6.98-3.85,9.63-7.4,22.05-29.58,44.11-59.16,66.16-88.75.75-1,1.26-2.27,1.61-3.64,26.22,19.3,53.64,36.78,82.8,50.76-18.27,37.15-36.54,74.3-54.81,111.46-1.93,3.92-2.82,8.08-1.62,12.41,1.03,3.74,3.92,7.78,7.4,9.63,7.26,3.84,18.07,2.29,22.04-5.78,18.73-38.09,37.46-76.19,56.2-114.28.12-.25.23-.5.34-.75,8.04,3.04,16.22,5.8,24.54,8.24,22.09,6.48,44.55,10.14,67.04,11.33-.02.33-.05.65-.04.99.46,45.52.91,91.04,1.36,136.56.08,8.42,7.35,16.5,16.11,16.11,8.65-.39,16.2-7.08,16.11-16.11-.46-45.52-.91-91.04-1.36-136.56,0-.31-.04-.61-.06-.92,34.75-1.72,69.2-9.12,102.14-21.07.26.73.55,1.45.9,2.17,18.71,38.04,37.42,76.09,56.13,114.13,3.73,7.58,15.09,10.26,22.04,5.78,7.76-5.01,9.76-13.93,5.78-22.04-18.39-37.4-36.78-74.8-55.18-112.2,16.89-7.75,33.25-16.68,48.9-26.65,8.44-5.38,16.69-11.02,24.76-16.91,21.39,28.69,42.78,57.39,64.18,86.08,2.6,3.49,5.27,6.2,9.63,7.4,3.85,1.06,8.99.58,12.41-1.62,3.44-2.22,6.47-5.52,7.4-9.63.9-3.95.91-9.01-1.62-12.41-22.06-29.58-44.11-59.16-66.16-88.75-.19-.26-.39-.51-.59-.76,19.33-16.04,37.55-33.45,54.73-51.79,16.55,15.71,33.1,31.41,49.65,47.12,6.11,5.8,16.79,6.52,22.78,0,5.78-6.29,6.53-16.58,0-22.78ZM92.31,320.13c54.29-59.51,119.91-110.15,197.56-133.62-30.85,27.3-52.53,65.16-63.13,105.59-8.96,34.18-14.36,75.12-5.17,109.75,2.11,7.97,5.32,15.54,9.35,22.65-10.38-5.82-20.55-12.06-30.5-18.63-38.46-25.4-73.55-55.36-108.12-85.76ZM479.46,448.8c44.68-41.27,68.94-104.98,59.71-165.41-5.51-36.09-23.93-64.33-49.08-86.08,23.02,9.97,44.99,22.42,65.99,36.29,38.46,25.4,73.55,55.37,108.12,85.76-51.28,56.21-112.66,104.49-184.74,129.45Z"/>
</svg>