<?xml version="1.0" encoding="UTF-8"?>
<svg id="Ebene_1" xmlns="http://www.w3.org/2000/svg" version="1.1" viewBox="0 0 2999.86 800">
  <!-- Generator: Adobe Illustrator 30.4.0, SVG Export Plug-In . SVG Version: 2.1.4 Build 226)  -->
  <defs>
    <style>
      .st0 {
        fill: #e5b969;
        stroke-miterlimit: 10;
        stroke-width: .05px;
      }

      .st0, .st1 {
        stroke: #e5b969;
      }

      .st1 {
        fill: none;
        stroke-linecap: round;
        stroke-linejoin: round;
        stroke-width: 48px;
      }
    </style>
  </defs>
  <g>
    <path class="st1" d="M1637.33,178.9c-59.55,0-204.17,10.21-263.73,10.21.21,172.47.43,344.93.65,517.4,136.79-4.72,147.58-4.72,284.37-9.44"/>
    <path class="st1" d="M1400.25,391.87c53.62-1.36,107.23-2.72,160.85-4.08"/>
  </g>
  <path class="st1" d="M1945.27,245.77c3.81-24.04,7.56-49.08.4-72.34-7.16-23.26-28.75-44.02-52.98-41.69-16.33,1.57-30.03,12.87-41.01,25.05-51.72,57.34-64.22,146.25-32.04,216.44,28.6,62.39,86.11,106.02,126.83,161.28,40.71,55.25,61.38,139.17,13.82,188.65-16.82,17.49-40.27,27.93-64.34,30.95-41.69,5.23-85.53-12.23-112.22-44.68-26.69-32.45-35.36-78.83-22.19-118.73"/>
  <g id="xvgZYR">
    <g>
      <path class="st0" d="M507.84,732.62l-33.94-.07c-82.89-5.26-157.91-52.58-199.28-121.17-47.15-78.19-48.57-172.62-6.48-250.77,32.92-61.13,89.11-105.64,155.67-124.09l.17-37.06c.08-16.97,13.76-30.43,30.69-30.48l22.72-.07.02-103.7c0-8.06,6.73-13.59,13.89-13.28,6.6.29,12.7,5.65,12.7,13.28l.02,103.75,21.38-.1c17.32-.08,32.09,12.82,32.05,30.66l-.1,36.92c135.48,37.31,215.83,178.54,175.97,314.36-1.89,6.44-11.63,8.8-17.4,6.16-5.56-2.54-9.06-8.76-7.25-15.75,4.14-15.92,6.77-31.85,7.78-47.6h-92.89c-.87,31.71-4.63,62.11-11.78,93.13l26.66.06c7.92.02,13.47,6.69,13.15,13.85-.29,6.47-5.75,12.63-13.15,12.66l-34.26.14c-9.43,29.84-22.3,56.63-41.84,81.34,34.93-11.23,64.92-30.96,90.33-56.46,5.36-5.38,13.29-5.12,18.65-.02,3.99,3.8,6.15,12.14,1.27,17.29-43.59,45.93-102.39,72.67-164.72,77.03ZM530.84,195.57h-80.31v31.93h80.31v-31.93ZM477.4,347.22l-.02-91.25c-16.13,4.85-28.5,15.53-39.03,28.45-14.91,18.71-24.95,39.97-33.1,62.85l72.15-.05ZM576.1,347.24c-8.14-22.86-18.17-44.1-33.08-62.83-10.52-12.89-22.89-23.64-39.02-28.44l-.02,91.29,72.12-.02ZM377.3,347.17c9.54-30.83,22.57-56.83,41.65-81.27-44.89,15.05-83.09,43.17-110.99,81.35l69.33-.08ZM673.25,347.12c-28.33-38.76-66.31-66.25-110.87-81.25,19.42,24.69,32.37,51.43,41.8,81.43l69.06-.18ZM357.84,466.96c.92-32.78,4.68-62.47,11.8-93.12l-78.45.04c-15.47,28.93-24.25,60.06-26.25,93.16l92.9-.08ZM477.39,466.97v-93.11s-80.17,0-80.17,0c-7.83,30.49-11.73,61.25-12.8,93.16l92.97-.06ZM596.95,466.95c-1.16-33.01-5.12-62.94-12.82-93.1h-80.14s0,93.18,0,93.18l92.96-.08ZM716.41,466.97c-2.1-33.88-10.97-64.37-26.22-93.09l-78.45-.03c7.2,31.02,10.9,61.49,11.81,93.18l92.86-.06ZM369.61,586.72c-7.39-31.92-10.88-61.75-11.79-93.11h-92.87c1.99,33.07,10.77,64.18,26.26,93.15l78.4-.04ZM477.39,586.71v-93.11s-92.97,0-92.97,0c1.07,31.88,4.97,62.64,12.81,93.17l80.16-.07ZM584.21,586.74c7.82-31.33,11.7-61.53,12.72-93.13h-92.94s0,93.16,0,93.16l80.22-.03ZM377.14,613.32l-69.15.1c27.89,38.07,66.08,66.28,111.04,81.31-19.51-24.6-32.36-51.48-41.89-81.41ZM477.35,704.3l.05-90.95-72.15.02c8.02,22.58,17.94,43.48,32.48,62.12,10.77,13.01,23.17,24.67,39.62,28.81ZM543.31,675.85c14.99-19.04,24.73-39.94,32.79-62.48l-72.13-.02.02,91.29c16.13-4.81,28.42-15.47,39.32-28.79Z"/>
      <path class="st0" d="M775.42,733.11h-7.98s-4.47-3.52-4.47-3.52l-46.57-46.56c-4.81-4.98-5.41-13.32-.17-18.56l46.44-46.43c5.66-5.66,14.1-4.37,19.26.8l45.24,45.27c5.07,5.07,5.94,13.33.32,18.94l-46.86,46.77-5.19,3.3ZM771.92,646.45l-27.27,27.32,27.38,27.34,27.27-27.32-27.38-27.34Z"/>
      <path class="st0" d="M213.93,733.11h-7.98s-5.01-3.01-5.01-3.01l-47.86-47.86-3-5.01v-7.98s3.51-4.47,3.51-4.47l45.9-45.91c4.92-5.37,13.69-6.38,19.23-.84l46.44,46.44c5.52,5.52,4.49,14.28-.84,19.25l-45.9,45.89-4.49,3.51ZM209.42,646.44l-27.34,27.39,27.32,27.27,27.34-27.39-27.32-27.27Z"/>
      <path class="st0" d="M150.07,230.17v-7.98c2.32-3.06,6.57-8.62,10.82-8.67l19.7-.26c8.09-.11,14.02,6.48,13.77,13.6-.26,7.26-5.78,12.99-13.64,13.03l-16,.1c-7.41.05-12.01-3.65-14.65-9.82Z"/>
      <path class="st0" d="M330.4,166.25c-5.8,5.81-14.21,5.8-19.67.33l-46.49-46.48c-4.45-5.73-4.38-13.29.84-18.5l45.84-45.82c5.19-5.19,13.72-5.23,18.95,0l45.83,45.81c5.23,5.22,5.24,12.8.83,18.53l-46.12,46.14ZM320.34,84.04l-27.27,27.35,27.53,27.44,27.27-27.35-27.53-27.44Z"/>
      <path class="st0" d="M769.58,165.23l-16.82-.04c-7.83-.02-13.26-5.8-13.52-12.84s5.44-13.67,13.54-13.73l16.04-.12c8.12-.06,14.19,5.05,14.61,12.63.41,7.42-5,14.13-13.85,14.11Z"/>
      <path class="st0" d="M229.99,189.75c.02,8.5-5.58,14.36-12.87,14.66-7.69.31-13.88-5.84-13.88-14.08v-16.12c0-7.84,5.57-13.8,12.82-14.09,7.72-.3,13.86,5.83,13.88,14.09l.04,15.53Z"/>
      <path class="st0" d="M730.33,204.31c.03,8.42-5.84,13.83-12.79,14.02-7.25.2-13.83-5.31-13.84-13.43v-17.33c-.01-7.71,5.96-13.02,12.6-13.42,7.56-.46,13.95,5.23,13.97,13.42l.05,16.74Z"/>
      <path class="st0" d="M229.94,278.79c.05,8.59-5.74,13.97-12.71,14.28-7.6.34-13.96-5.35-13.94-13.67l.04-17.33c.02-7.55,6.05-12.93,12.67-13.22,7.22-.31,13.81,5.25,13.85,13.22l.1,16.72Z"/>
      <path class="st0" d="M730.39,115.21c.02,8.49-5.73,14.06-12.86,14.39-7.61.34-13.9-5.57-13.86-13.84l.07-17.37c.03-7.84,6.96-13.23,13.79-12.99,7.57.27,12.8,6.32,12.82,14.33l.04,15.48Z"/>
      <path class="st0" d="M681.75,165.14h-18.11c-7.6.01-12.86-6.27-13.13-12.83-.29-7.04,5.37-13.61,13.21-13.65l17.23-.07c7.78-.03,13.44,5.55,13.79,12.49s-4.62,14.06-12.99,14.06Z"/>
      <path class="st0" d="M268.53,239.99l-16.06-.1c-7.82-.05-13.42-5.79-13.63-13.01-.21-7.24,5.66-13.61,13.78-13.59l17.11.03c7.95.01,13.59,6.75,13.34,13.52-.29,8.06-6.31,13.21-14.54,13.16Z"/>
      <circle class="st0" cx="698.2" cy="600.05" r="13.26"/>
    </g>
  </g>
  <path class="st1" d="M966.49,712.57c6.61-190.41,8.55-380.98,5.81-571.49,47.29,0,102.87,3.94,150.17,3.94"/>
  <path class="st1" d="M1052.76,413.01h-55.17"/>
  <path class="st1" d="M1226.31,188.68l-3.7,516.26"/>
  <path class="st1" d="M2130.74,166.17l-1.15,602.97"/>
  <path class="st1" d="M2016.03,134.64c106.41,0,212.81,0,319.22,0"/>
  <path class="st1" d="M2377.33,669.42c-11.65-159.21,13.21-320.99,72.13-469.36,83.07,162.6,140.82,338.09,170.56,518.24"/>
  <path class="st1" d="M2380.44,505.19c24.67,0,166.01-3.08,190.68-3.08"/>
</svg>