<?xml version="1.0" encoding="UTF-8"?>
<svg id="Ebene_1" xmlns="http://www.w3.org/2000/svg" version="1.1" viewBox="0 0 800 800">
  <!-- Generator: Adobe Illustrator 30.4.0, SVG Export Plug-In . SVG Version: 2.1.4 Build 226)  -->
  <defs>
    <style>
      .st0 {
        fill: #e5b969;
        stroke: #e5b969;
        stroke-linecap: round;
        stroke-linejoin: round;
        stroke-width: 10.4px;
      }
    </style>
  </defs>
  <g id="_x38_LXXAw">
    <g>
      <path class="st0" d="M382.46,412c-11.79,12.9-27.15,20.7-45.22,25.74l3.4-11.55-19.91,6.65,7.1,20.99c2.53,7.47,4.08,14.3,5.44,22.51l-7.76-3.82c9.65,37.63,13.48,75.29,12.33,114.22-.15,5.12,2.29,8.81,6.71,11.21,29.34,15.85,55,9.46,69.58,25.17,4.97,5.36,5.46,13.13,2.65,18.64-3.53,6.91-10.48,6.85-17.41,8.14l-23.21,4.3c-8.39,1.56-15.94-.84-24.5-1.91-25.41-3.17-50.76-4.08-76.18-5.85s-16.17-33.71-22.54-45.75c-11.36-21.46-18.68-42.34-20.98-66.62-1.4-14.8-4.92-29.05-11.44-43.5-17.84,22.83-34.78,47.77-58.36,63.33l.24-6.53c-15.76,14.66-32.41,25.55-52.66,34.8l25.6,16.57c13.78,8.92,27.7,15.49,43.22,21.25,2.79,1.03,4.88,5.84,4.74,8.49-.61,11.52-22.58,17.91-34.22,15.45l-26.59-5.62c-1.22,4.23-3.35,7.23-6.39,9.7-4.75,3.85-10.22,4.18-15.59.81l-59.9-37.49c-13.73-8.59-21-22.78-16.57-38.65,1.86-6.67,5.5-12.97,9.61-18.63,12.6-17.38,17.41-39.85,38.21-56.98l28.18-23.2c9.08-7.48,14.71-17.71,15.49-29.77,1.45-22.35,3.97-44.37,3.87-66.83-.08-19.12-1.24-36.31,4.22-55.55l-8.74,6.99c-4.97-29.02,12.38-54.93,33.46-74.03,35.88-32.51,79.34-50.23,126.27-61.39,38.64-9.18,70.19-28.23,103.24-49.74,18.22-11.86,37.13-19.36,58.93-22.03,48.91-5.99,65.24-33.72,100.46-42.28,22.45-5.45,46.79-3.71,68.06,5.98,26.77,12.19,42.43,41.36,40.05,70.11-.48,5.85-1.73,10.36-.33,16.02,2.67,10.86,2.85,22.07-.92,32.73l-9.38,26.49c9.82,12.79,13.59,26.59,12.6,42.18l-7.01,14.85c-3.19,15.73-12.13,26.97-27.74,33.02,2.5,26.83,11.26,50.98,23.86,74.04,7.6,13.9,14.54,27.16,21.3,41.39l-6.92-1.08,32.48,65.77c6.95,14.06,11.96,28.15,17.62,42.79l22.58,58.41c6.28,16.25,10.4,34.95-1.52,45.94-5.58,5.15-12.23,3.93-18.9,5.06-17.12,2.91-34.41,3.08-48.9-7.43-6.59-3.1-8.89-10.02-7.07-16.98-3.61-4.12-5.83-9.34-2.54-13.72,4.02-4.09,6.26-9.36,5.27-15.07l-5.3-30.5c-1.69-9.75-7.76-16.43-14.52-22.98l-35.88-34.72c-5.37-5.19-10.92-9.56-15.37-15.54l-12.95-17.38-1.37,6.66c-14.09-14.89-20.41-32.7-24.55-52.54l-12.68,15.28c-8.63-23.31-7.51-45.6-4.73-71.89l-12.28,7.27-.8-8.08-15.59,10.97c1.69,11.76,3.47,22.82,6.16,34.26,5.65,24.04,7.46,47.47,8.06,72.21.76,31.23,3.19,61.4,5.83,92.56,2.2,26.01,16.2,39.59,8.79,59.03-3.62,9.5-21.38,10.96-33.72,8.93-10.74,3.03-18.75-.45-32.06.98-5.71.61-10.38-1.64-12.75-7.12-2.4-5.54-4.91-13.01-2.02-18.97,2.14-4.42,7.2-7.6,11.49-10.91l-3.02-17.56c-1.51-8.79-1.23-17.85-4.59-26.23l-27.56-68.69c-8.72-21.73-10.97-43.76-14.07-67.89l-8.99,25.17c-5.15-8.27-9.06-16.5-10.19-26.33l-2.71-23.74ZM396.88,378.72c-3.54,19.73-6.48,38.85-2.17,59.57,7.56-21.4,13.4-47.4,31.33-61.88l-5.56,13.08c-2.69,6.33-5.81,12.18-6.42,19.33-2.76,32.21,1.8,63.94,14,93.81l13.24,32.43,3.7-25.74c2.83,26.19,7.54,50.16,12.4,75.39,2.13,11.03,2.74,22.08,6.25,32.83,5.43,16.64-13.66,16.49-12.78,23.76.24,2.01,5.86,5.16,7.83,3.96,9.26-5.65,16.01-12.75,24.39-20.37-.77,8.05-5.57,12.61-10.45,19.47,1.44,1.18,6.4,1.99,8.86,1.18,2.15-.7,4.98-4.04,5.89-6.33l5.92-14.82,1.12,19.1c.25,1.41,4.94.31,5.37-1.07l5.87-18.83c3.29,6,3.21,11.85,2.53,19.36,11.29-2.82,7.66-18.36,2.85-32.94-5.15-15.63-8.06-31-8.81-47.7l-3.8-84.81c-.68-15.14-2.26-29.35-4.97-44.08l-8.63-46.98c-2.79-15.19-4.01-29.66-3.89-45.31.22-27.74.64-54.56-1.87-82.2-2.41-26.53-9.19-51.15-8-79.25,14.48,39.97,18.56,81.82,18.64,124.11.04,24.47-.02,47.47,2.74,71.51,15.7-10.44,24.7-23.9,32.64-39.71-.52,11.45-4.56,20.63-8.02,31.84,14.04-10.94,22.04-24.56,29.88-39.64l.36,11.34,12.87-20.3c-1.05,9.49-3.7,16.17-6.27,25.24l17.8-22.2c-7.61-8.52-14.51-16.06-19-26.18-10.54-23.74-5.64-51.34,18.8-63.14,1.63,1.04,2.06,1.81,1.48,2.75-22.57,21.96-21.15,49.46-2.51,73.49,3.73,4.8,10.11,8.14,16.4,7.53,18.82-1.81,38.89-7.69,43.2-27.4-21.23,1.52-43.35.66-60.45-13.62,20.21,6.55,38.9,10.58,58.73,5.87,6.37-1.51,10.54-4.91,10.7-12.13.32-14.12-5.74-27.72-15.22-37.77-3.23,5.32-5.05,8.49-10.48,10.76-2.18-7.46,10.3-17.12,3.72-22.16-5.13-3.93-11.35-1.82-18.17-3.42l10.49-2.33-.43-5.51,14.61,9.9,1.61,11.24,7.16-21.91c7.68-17.15,6.6-33.5-.18-50.68-8.15-20.65-21.17-38.25-42.99-46.82-3.34,21.02-19.89,19.2-26.58,28.9-3.98,5.78-8.7,9.79-15.22,11.77l11.63-48.26,4.24,22.85,7.83-24.77,7.31,15.68,4.7-18.7c23.08,7.91,40.68,23.53,52.59,44.73-2.17-22.05-15.68-41.03-35.2-50.08-26.75-12.41-57.02-9.12-82.47,4.75l-40.85,22.26c-22.99,12.53-54.11,9.62-76.5,21.3-11.54,6.02-21.63,13.14-32.68,20.06-18.16,11.36-36.1,22.21-56.34,29.63-20.1,7.37-39.82,12.24-60.4,18.28-33.79,9.91-64.35,26.12-91.44,48.43-14.86,12.24-30.89,30.33-34.14,49.76l24.41-19.4c-8,11.71-14.2,21.12-17.32,34.07-3.76,15.62-6.51,30.99-4.04,46.97l13.08-28.45c-1.94,47.03,16.92,81.89,42.63,119l6.66-28.33c2.03,6.29,1.12,13.9,4.96,18.3l25.23,28.91c8.45,9.68,14.44,20.9,16.4,33.8l6.46,42.47c.78,5.15,2.32,10.18,4.42,14.79,0-24.38.13-47.3,6.26-70.02l.69,55.52c.15,11.71,3.05,22.69,5.54,33.98,4.8,21.73.11,48,15.22,49.06l77.98,5.49c6.37.45,11.92,4.1,18.44,1.99-6.57-6.27-14.26-7.73-21.75-12.15,19.32-.06,31.11,11.05,34.8,11.76,1.91.37,5.32-2.98,4.61-5.3l-33.96-11.42c14.04-1.75,26.81,3.04,38.3,8.51,4.1,1.95,6.69,8.04,12.7,2.21-3.09-2.91-7.13-6.16-11.37-7.36l-26.13-7.39c14.76-2.53,26.69,3.18,39.65,7.28-1.52-3.86-5.14-6.79-8.68-7.57l-31.48-7.01c-12.69-2.82-24.55-6.57-35.62-13.67l-16.08,2.94,9.84-9.22c2.1-1.96,1.58-7.96,1.6-11.41.19-39.75-3.73-78.31-13.47-116.74l-6.61-26.05,6.97,7c-5.45-23.56-15.73-43.42-29.76-62.08-7.48-9.95-13.47-20.57-21.81-29.75l-36.05-39.7c-9.54-10.51-18.37-20.23-26.82-32.44,7.59,3.39,12.05,8.37,17.33,13.72,20.13,20.39,41.08,39.18,59.25,61.32,12,14.62,22.52,29.61,30.87,46.29l8.85,17.68c11.86-3.12,21.48-7.74,30.48-14.77l15.23-11.9c-3.03,9.63-7.68,15.15-12.38,24.21,10.64-2.06,17.84-10.75,26.2-17.84,5.25-4.45,9.03-9.44,7.76-16.71l-15.83,10.16c.54-9.59,2.19-16.06,3.4-24.13,2.12-14.06.2-28.68.38-42.89.14-10.87-2.74-19.39-5.72-29.66-9.19-31.64-7.4-65.8,4.48-96.31,4.72-12.13,11.52-22.91,22.15-29.79-20.28,33.53-26.84,71.52-20.73,108.57,4.85-20.18,6.75-38.16,20.47-53.69l-7.58,35.42c-2.84,13.28-3.96,26.26-4.01,39.97l-.25,71.3c13.4-19.24,17.05-46.78,27.63-68.73l-12.73,70.96ZM652.63,620.01c3.87,2.74,8.73,2.84,12.6.56,10.77-6.36,1.76-26.51,23.71-32.42l-4.04,7.59-9.18,31.97c-6.67,2.29-12.17,2.95-19.74,3.93,2.11,13.78,28.09,17.14,41.23,10.95,8.23-3.88,10-16.75,6.5-24.6l-7.61-17.07c8.28,5.31,12.08,13.51,15.33,22.22,2.81,7.53,2,15.09-3.55,21.13,19.02-1.58,12.94-27.16,5.21-46.2l-37.07-91.33c-6.79-16.74-14.06-32.15-23.02-47.71l-33.16-57.62,17.15,13.38c-16.56-28.36-28.87-57.99-33.43-90.84l-22.93.29c-11.4,17.78-17.81,28.01-38.76,34.69-5.06,1.61-9.27,5.19-9.8,10.73l-2.76,29.32c-.87,9.27-.66,17.76,1.32,27.74,4.68-6.07,6.43-12.63,7.53-20.03l3.3-22.14,5.24,39.5c1.81,13.61,7.33,26.17,12.67,39.56-.55-18.77-6.66-42.75,6.81-56.97-5.77,26.99-.41,54.51,15.89,77.78-1-10.45-4.19-19.1-1.03-29.41,7.86,38.9,33.06,64.58,59.74,90.51l1.64-10.25c4.45,8.74,7.08,15.93,8.76,24.73l7.7,40.27c1.49,7.82-1.59,14.6-6.25,19.73ZM129.73,630.1c10.46,3.34,20.85,6.87,32.69,3.55-16.8-6.68-32.02-13.38-43.12-26.99,8.29,2.16,13.97,5.86,20.33,9.69,8.84,5.32,17.6,9.07,27.46,12.62l4.15,2.07c.94.47,2.97-1.35,4.39-2.56-12.05-11.21-33.49-10.29-49.75-24.18l-23.75-20.3c-2.95-2.52-9.82.49-15.14,1.04l51.59-45.15c-5.1,9.99-11.67,17.04-17.41,26.82,24.8-12.27,41.17-32.05,57.07-53.9l-4.75,20.92c14.89-15.88,27.09-32.12,40.23-49.59l-18.04-20.25-6.72,14.47c-25.94-27.77-41.69-59.19-52.4-95.27l-5.74,16.82-3.91-1.28-2.13,40.64c-.43,8.15-3.14,16.21-5.8,24l14.64-9.09c-5.61,10.85-14.28,19.99-24.73,25.57-4.82,2.57-8.67,4.39-12.9,8.11-14.1,12.39-28.31,24.37-38.32,41.47,14.72-6.14,25.54-15.13,40.43-20.19l-36.09,28.28c-13.23,10.37-23.99,23.49-29.58,39.55-3.41,9.8,2.76,18.7,10.75,23.9l52.15,34.02,10.97,5.68c1.11.58,4.62-.49,5.31-1.5.83-1.21.58-4.75-.39-6.04l-18.8-25.04c4.78.18,7.24,3.55,10.34,6.68,7.41,7.48,16.92,12.23,26.96,15.43Z"/>
      <path class="st0" d="M296.38,763.33c-.08.48,1.36,2.81,2.06,2.44l3.75-1.95-5.81-.49Z"/>
      <path class="st0" d="M483.89,201.26c-3.39-16.85-4.61-40.98,9.03-46.38,6.74-2.67,13.59-3.06,18.98,2.08,2.48,2.36,4.4,9.25,3.83,13.2l-8.71,60.26c-3.47,24.02,5.16,53.54,14.12,76.69-23.68-17.09-26.16-59.82-21.63-87.53-8.6-3.33-13.86-9.57-15.63-18.32ZM505.7,180.29l-6.63,3.94c-.03-7.76,7.96-8.2,8.62-14.64.28-2.7-2.56-7.28-5.28-7.13-15.37.83-12.03,22.53-8.67,39.59.5,2.53,3.63,5.85,6.84,8.47l5.12-30.23Z"/>
      <path class="st0" d="M291.23,353.95c3.49,1.36,7.56.17,10.61-2.49,17.68-15.44,29.62-36.66,33.21-60.77l-15.98,28.08c-7.58,13.31-16.7,24.58-27.83,35.18Z"/>
      <path class="st0" d="M317.81,236.41c-17.09,11.62-38.6,51.2-35.01,70.72,8.88-25.12,21.18-46.81,35.01-70.72Z"/>
      <path class="st0" d="M440.11,151.65c-16.85,12.67-23.69,32.63-21.31,53.74l13.57-35.62c3.4-8.92,10.35-15.07,17.19-21.24-3.35-.04-6.95,1.24-9.46,3.12Z"/>
      <path class="st0" d="M538.74,207.11c.8-6.03.08-12.3-.54-19-1.17-12.66,5.85-22.02,6.78-33.67-8.79,5.66-10.51,14.65-13.08,23.75-1.31,9.79-3.15,20.43,6.84,28.92Z"/>
      <path class="st0" d="M541.94,313.45l-9.93-25.13c-5.69-12.84-4.59-24.82,0-39.35-9.8,8.13-10.35,20.88-8.68,32.41,4.28,11.59,7.83,23.26,18.61,32.07Z"/>
      <path class="st0" d="M162.48,329.33c-5.81,19.98-7.49,47.06,3.89,66.51l-3.89-66.51Z"/>
      <path class="st0" d="M312.96,382.35c10.02-.33,16.12-8.57,21.24-16.3,5.75-8.68,10.46-17.88,9.34-29.21l-9.19,17.75c-5.36,10.34-12.21,18.62-21.38,27.76Z"/>
      <path class="st0" d="M519.44,244.71c9.23-14.14,11.26-33.89,3.51-49.7-1.82,17.05-2.96,32.19-3.51,49.7Z"/>
      <path class="st0" d="M565.62,195.08l5.38-.32c1.95-.11,4.29,8.78,11.04,7,3.51-.92,5.52-4.54,5.19-8.44-.19-2.19-1.14-5.25-2.3-6.32-1.35-1.25-5.81-1.55-7.49-.76l-9.54,4.47c-1.01.47-2.68,4-2.28,4.37Z"/>
      <path class="st0" d="M221.12,412.86c-3.68,15.7-2.2,38.75,8.87,49.66l-8.87-49.66Z"/>
      <path class="st0" d="M611.15,193.79c-.46,3.9,1.5,7.9,3.69,8.55,5.9,1.74,12.26-4.08,12.44-8.28.11-2.57-4.78-6.37-11.11-6.28-1.89.03-4.69,3.23-5.02,6.02Z"/>
      <path class="st0" d="M480.85,164.35c6.08-13.3,9.53-25.72,12.77-39.85-10.94,10.39-14.77,24.88-12.77,39.85Z"/>
      <path class="st0" d="M603.41,236.31c1.58.3,2.64-5.02,1.37-5.52l-14.75-5.84c-1.49-.59-2.9-3.85-3.7-6-4.79,5.41-2.79,16.59,6.88,18.74l-3.71-8.47c3.97,3.61,7.54,5.86,13.92,7.08Z"/>
      <path class="st0" d="M560.53,172.11c8.91,1.67,14.65-6.87,29.53-3.8.64.13,2.72-.44,3.15-.52,3.67-.62-17.03-15.1-32.68,4.31Z"/>
      <path class="st0" d="M194.45,387.11c-1.53,16.13-3.24,36.97,6.81,48.37l-6.81-48.37Z"/>
      <path class="st0" d="M433.69,452.18l2.38-43.31c-7.91,13.39-8.87,29.09-2.38,43.31Z"/>
      <path class="st0" d="M273.67,571.88l-1.81-42.05c-6.57,13.6-6.08,28.67,1.81,42.05Z"/>
      <path class="st0" d="M257.43,292.97c9.71-6.61,17.91-14.63,22.48-26.36-10.14,4.88-17.47,14.97-22.48,26.36Z"/>
      <path class="st0" d="M617.8,171.1c4.07,1.03,6.99,2.28,10.74,3.94-1.31-3.71-4.66-8.19-7.95-9.47-4.74-1.84-9.44-3.08-13.83,2.72l11.05,2.81Z"/>
      <path class="st0" d="M673.33,633.63c5.53,5.35,16.85,3.33,19.97-4.75,1.86-4.83-1.36-11.24-4.65-14.74-1.89,9.65-5.15,16.62-15.32,19.49Z"/>
    </g>
  </g>
</svg>