<?xml version="1.0" encoding="UTF-8"?>
<svg id="Ebene_1" xmlns="http://www.w3.org/2000/svg" version="1.1" viewBox="0 0 800 800">
  <!-- Generator: Adobe Illustrator 30.4.0, SVG Export Plug-In . SVG Version: 2.1.4 Build 226)  -->
  <defs>
    <style>
      .st0 {
        fill-rule: evenodd;
      }

      .st0, .st1 {
        fill: #e5b969;
      }
    </style>
  </defs>
  <path class="st0" d="M-573.58,197.37c-.9.53-1.82,0-2.35.08-1.26.18-1.84.86-2.78.9-1.57.07-6.92-1.34-7.93-.71-.85.53-1.92-.26-2.64-.24-.24,0-.49.46-.73.51-.37.08-.83-.42-1.32-.12-.54.34-.48-.29-.96-.37-.2-.03-.52.5-.73.51-1.27.05-2.4-.06-3.67-.04-1.65.03-3.26.1-4.33-.1-.12-.02-.18-.29-.3-.31-.2-.04-.52.52-.73.51-1.05-.05-1.97-.24-2.64-.24-.12,0-.24.26-.36.25-.2,0-.39-.62-.59-.63-.84-.05-1.62,1.01-1.98-.18l-1.46,1.02c-.62-.12-1.25-.21-1.89-.27-2.69-.26-5.44-.16-7.69-.56-1.2-.21-2.69-.21-3.45-.3-.54-.06-.75-.55-1.31-.69-.82-.2-2.11.13-2.69-.81-.41,1.65-1.35-.22-2.07-.18-.35.02-1.35.75-2.22.96-.06.01-.24-.3-.31-.31-.18-.03-.57.47-.76.51-.07.01-.24-.3-.31-.31-.54-.09-3.76,2.42-4.19,2.8-.32.28-.17.62-.45.82-.34.26.01.47-.07.57-1.08,1.26-2.11,1.48-2.36,2.1-.56,1.37-1.69,2.35-1.81,3.29-.05.38-.15.75-.14,1.14-1.63.72-1.11,1.63-2.74,2.35.7.82.02,1.75.02,2.59,0,.34-.21.79-.14,1.14.04.23.55.4.62.63.04.11-.45.67-.45.82-.05,1.33-.25,2.77-.12,3.73.07.54.16.95.16,1.45,0,.37-.16.73-.14,1.14.01.41.25.77-.14,1.14-.51-.55-1.09-.61-1.69-.43,1,.85.09,1.54,1.09,2.39-.57.43-.63.59-.14,1.14.43.48.04,1.6.09,2.02.07.64.43.78.86,1.51.51.86-.26,2.58,1.33,3.28-.19.65-1.1,1.25-1.29,1.9.83,1.8,2.29,3.65,2.11,5.36,1.62.07,1.95,1.85,3.16,2.57.38.23,1.96-.39,2,.75,1.13.3,2.44-.92,3.52-.27,1.16.87-.47,1.49,1.09,2.39,1.83-.81,3.8-.07,5.6-.09,1,0,1.77-.28,2.83-.33.87-.04,2.08.47,2.83-.33,1.44.98,4.01.73,5.14.73.21,0,.41.62.62.63.34,0,1.18-.41,1.45-.45.7-.11,1.46-.02,2.17.03.75.06,1.45.08,1.95-.24.76-.47,2.77.07,3.67.04,1.11-.03,2.31-.25,3.37-.27.85-.02,1.77.4,2.28.49.2.03.52-.5.73-.51.37-.02.93.13,1.32.12,1.21-.03,2.17-.02,3.01-.02,1.06,0,2.71.37,3.3.3.68-.09,1.15-1.01,1.75-.71,1.03.69,2.26-.28,3.23.87,2.91-1.09,5.63-.57,8.36-.11,1.46-.07,3.04-1.17,4.33.1.64,0,1.45.29,2.1.29,1.16,0,2.26-.05,3.41-.14.44-.04.94-.04,1.39-.02.28.02.47.13.74.17.65.1,1.5,0,2.15,0,.53,0,1.26.04,1.75-.16.16-.07.26-.17.42-.24.51-.22,1.2-.06,1.66.17,1.05.54,1.95,1.36,3.22,1.34h1.9c.37,0,.72.02,1.05-.08.15-.04.32-.15.48-.2.99-.29,1.99-.59,3.04-.66.49-.04,1.02.07,1.49,0,.12-.02.21-.11.31-.13.22-.04.42-.04.65-.03.71,0,1.4-.05,2.09.1.7.15,1.3.51,1.98.67.16.04.33,0,.49.05.19.05.33.2.51.26.37.12.88.19,1.28.18.68,0,1.18-.04,1.85-.2.74-.18,1.09.03,1.81.05.54,0,1.15-.1,1.67-.02.5.07.26.22.49.5.44.53,1.94-.17,2.53-.18,2.05-.05,4.1.71,6.06.18,2.1-.57,4.75,0,6.31.28.2.04.52-.52.73-.51,1.07.04,2.21.23,3.3.3.58.04,1.04.37,1.62.43.78.08,1.67-1.03,1.98.18.99-.83,1.79-.07,2.78-.9,1.99,1.01,4.28-.44,6.24.85,1.62-1.4,2.87.21,4.47-1.04.54,1.04,1.32.13,1.91.75,2.52-.74,5.11-.24,7.7-.17.76.02,2.11.07,2.35-.08.97-.61,1.25.64,1.98.18.71-.44,3.14.04,3.67.04,1.37,0,2.61-.23,4.03-.21,1.26.02,2.71.33,3.96.36.58,0,1.43-.39,2.05-.39,1.15,0,2.5.8,3.3.3.44-.28.35.08.66.06.65-.05,1.4-.43,2.05-.39,1.31.07,2.63.42,3.89.93,1.26-1.45,4.1.19,5.06-.41.75-.47,1.71.33,2.35-.08.43-.27.39.1.68.06,2.8-.41,4.68.14,7.29.34,1.98.15,3.92.12,5.91.22.82-.57.9-1.38,1.29-1.9.45-.61,1.02-.81,1.22-1.33.14-.38-.27-1.04-.17-1.45-.97.59-1.1-.98-.55-1.2,2.31-1.43,2.14-3.08,2.34-4.69.95-1.08,1.67-.29,2.53-.64.17-1.81-.52-3.69,1.72-5.32-.23-.88-.66-1.78-.02-2.59l1.91-1.27c-.11-1.06.48-2.08.74-3.1.19-.74.12-1.61.6-1.96.52-.38-.29-1.02-.16-1.45.98-.49,1.41-1.03,1.6-1.59-.22-1.74.22-3.43-.73-5.24.42-.92.63-1.86,1.05-2.79-1.5-1.95-.07-3.65-1.73-5.61.05-.76,1.73-1.38.98-2.22-1.6.7-2.78-1.94-4.16-2.95-.81.39-1.66.07-2.45.08-.79,0-2.84.29-3.14.02-.38-.35-.32-.02-.69-.06-1.05-.1-2.09.16-2.83.33-.57.13-.88.08-1.45.45-1.36-1.02-3.31-.38-4.83-.42-.31,0-.68-.36-1-.37-.52-.03-.91.45-1.45.45-.95,0-1.79-.43-2.76-.24-.47,0-.94.04-1.4.07-.89.07-1.78.15-2.69.14-.63,0-1.28-.13-1.98-.18-.11,0-.19-.29-.3-.31-.2-.04-.52.52-.73.51-.21,0-.38-.61-.59-.63-.22-.02-.5.51-.73.51-1.1,0-3.84-.41-4.33-.1-.7.44-1.49-.09-1.98-.18-.18-.03-.54.48-.73.51-.27.04-1.01-.11-1.32-.12-.94-.02-1.64-.15-2.64-.24-.44-.04-.88-.08-1.32-.12-.49-.05-1.13-.43-1.62-.43-.35,0-.75.69-1.09.76-.4.09-.84-.61-1.25-.69-.17-.03-.55.47-.73.51-.06,0-.23-.3-.3-.31-.2-.03-.52.51-.73.51-1.03.02-2.32-.57-2.94-.55-.53.02-.91.45-1.39.45-1.89,0-3.89-.23-5.28-.48-.19-.03-.53.49-.73.51-.26.02-.68-.38-.96-.37-.53.02-.9.46-1.39.45-2-.04-3.72-.61-5.58-.79-.79.98-1.36.22-2.12.96-.81-1.1-1.36-.32-1.98-.18-.14.03-.78-.37-.96-.37-1.12,0-2.28.33-3.37.27-2.21-.12-4.36-.6-6.54-1.16-.82.35-1.5-.44-2.42.65-.97-1.15-2.2-.17-3.23-.87-1.77.82-3.39.44-4.92-.73-1.9,0-3.5-.48-5.4-.48-.34,0-.83-.06-1.18,0-.39.06-.51.2-.83.45-.32.24-.5.41-.89.27-.17-.06-.24-.18-.43-.23-.16-.04-.34,0-.5-.01-.39,0-.78-.02-1.16.02-.44.04-.78.24-1.2.32-.83.15-1.69-.15-2.51-.17-1.05-.03-2.03-.26-3.05-.32-.6-.04-1.23,0-1.84,0-.35,0-.73.04-1.07-.01-.37-.06-.7-.25-1.09-.29-1.23-.15-2.42-.17-3.67-.17-.42,0-.9-.05-1.32,0-.3.03-.38.11-.64.23-.31.14-.52.04-.82.08-.15.02-.23.11-.37.14-.49.12-1.04.02-1.53-.04-1.32-.16-2.48-.75-3.77-1.04-1.02-.22-1.99-.4-3.04-.34-.62.03-1.23.22-1.84.3-.54.07-1.08.02-1.61.11-.85.15-1.77.07-2.64.08-.51,0-.75-.08-1.26-.23-.33-.09-.45-.13-.77,0-.32.13-.56.43-.92.52-.26.07-.58.03-.85.03-.75,0-1.42-.04-2.14-.19-.26-.06-.49-.21-.76-.26-.24-.05-.5,0-.73-.04-.25-.06-.08-.06-.4-.06l-.07-.06Z"/>
  <path class="st0" d="M-827.69,577.26c-.53-10.96,0-22.18-.08-28.58-.18-15.38-.86-22.4-.9-33.87-.07-19.07,1.34-84.29.71-96.54-.53-10.35.26-23.37.24-32.19,0-2.96-.46-5.95-.51-8.88-.08-4.47.42-10.15.12-16.09-.34-6.61.29-5.86.37-11.65.03-2.39-.5-6.35-.51-8.89.01-15.42.03-29.21.04-44.66,0-5.04-.02-10.04-.02-14.9v-1.82l.03-1.12c-.01-.72.07-1.41.12-2.11.04-.7.17-1.37.23-2.05.14-.66.22-1.33.37-1.97,1.12-5.17,3.38-9.49,5.72-12.52.49-.7,1.01-.82,1.52-1.48.92-1.07,2.1-3.11,3.24-4.11,1.41-1.27,2.91-2.33,4.4-3.26,1.49-.92,2.97-1.7,4.44-2.3,2.9-1.28,5.66-1.9,8.02-2.33.42-.09.84-.21,1.27-.32.42-.11.84-.27,1.29-.28.73-.04,1.43.02,2.14.19.36.07.67.13,1.08.18.6.06,1.21.1,1.83.1,10.2.05,19.78-1.01,24.13.18l17.77-1.02c4.8.06,9.64.13,14.5.19,2.43.02,4.88.05,7.32.07h1.21s.04,0,.04,0l.16.02.32.03c.84.07,1.68.11,2.51.14,1.65.07,3.25.12,4.65.37,1.2.21,2.69.21,3.45.3.54.06.75.55,1.31.69.82.2,2.11-.13,2.69.81.41-1.65,1.35.22,2.07.18.35-.02,1.35-.75,2.22-.96.06,0,.24.3.31.31.18.03.57-.47.76-.51.07,0,.24.3.31.31.54.09,3.76-2.42,4.19-2.8.32-.28.17-.62.45-.82.34-.26,0-.47.07-.57,1.08-1.26,2.11-1.48,2.36-2.1.56-1.37,1.69-2.35,1.81-3.29.05-.38.15-.75.14-1.14,1.63-.72,1.11-1.63,2.74-2.35-.7-.82-.02-1.75-.02-2.59,0-.34.21-.79.14-1.14-.04-.23-.55-.4-.62-.63-.04-.11.45-.67.45-.82.05-1.33.25-2.77.12-3.73-.07-.54-.16-.95-.16-1.45,0-.37.16-.73.14-1.14,0-.41-.25-.77.14-1.14.51.55,1.09.61,1.69.43-1-.85-.09-1.54-1.09-2.39.57-.43.63-.59.14-1.14-.43-.48-.04-1.6-.09-2.02-.07-.64-.43-.78-.86-1.51-.51-.86.26-2.58-1.33-3.28.19-.65,1.1-1.25,1.29-1.9-.83-1.8-2.29-3.65-2.11-5.36-1.62-.07-1.95-1.85-3.16-2.57-.38-.23-1.96.39-2-.75-1.13-.3-2.44.92-3.52.27-1.16-.87.47-1.49-1.09-2.39-1.83.81-3.8.07-5.6.09-1,.01-1.77.28-2.83.33-.87.04-2.08-.47-2.83.33-1.44-.98-4.01-.73-5.14-.73-.21,0-.41-.62-.62-.63-.34-.01-1.18.41-1.45.45-.37.06-.75.06-1.13.04l-.58-.04-.29-.02h-.18s-.38-.01-.38-.01h-.82c-8.67-.05-16.69-.05-22.57.25-4.61.24-13.05.22-21.7.15-4.32-.04-8.7-.09-12.68-.13-1.99-.02-3.88-.03-5.62-.05-.87,0-1.7,0-2.48-.01h-.58c-.26,0-.52,0-.78.01-.51.01-1.01.02-1.48.04-9.44.26-19.29,2.31-28.27,6.12-9,3.76-17.09,9.16-23.68,15.23-2.66,2.46-5.22,5.13-7.58,7.89-2.32,2.8-4.5,5.65-6.33,8.52-3.75,5.69-6.26,11.28-7.77,15.31-.57,1.58-1.17,3.73-1.63,5.95-.26,1.1-.45,2.22-.64,3.27-.2,1.08-.38,2.07-.53,2.91-.6,3.08-1.13,7-1.4,10.97-.04.99-.07,1.99-.11,2.98,0,.47-.02.94-.04,1.41v1.05c0,1.38,0,2.7-.02,3.9,0,14.72,0,26.42.02,36.63,0,12.92-.37,33.04-.3,40.23.09,8.26,1.01,14.02.71,21.37-.69,12.53.28,27.52-.87,39.38,1.09,35.5.57,68.63.11,101.83.07,17.73,1.17,36.98-.1,52.71,0,7.81-.29,17.63-.29,25.52,0,14.12.05,27.51.14,41.54.04,5.42.04,11.4.02,16.9-.02,3.4-.13,5.74-.17,8.98-.1,7.92,0,18.21,0,26.16,0,6.42-.04,15.34.16,21.26.09,1.88.15,3.18.24,5.13.03.95.07,1.93.1,2.94.05,1.17.07,2.37.19,3.59.16,2.44.46,4.96.82,7.44.73,4.97,1.94,9.75,3.12,13.49,2.68,8.59,6.45,16.23,11.66,23.46,2.6,3.62,5.6,7.12,9.12,10.47,3.52,3.35,7.55,6.56,12.25,9.49,9.32,5.81,19.89,9.74,30.77,11.41,1.6.21,3.18.44,4.74.58,1.56.11,3.09.27,4.6.3.76.02,1.51.03,2.25.05h1.85c1.03-.02,2.06-.04,3.08-.05,1.81-.06,3.9-.13,5.84-.2,12.09-.29,24.18-.59,36.98-.66,5.92-.04,12.39.07,18.16,0,1.43-.02,2.57-.11,3.83-.13,2.73-.04,5.06-.04,7.89-.03,8.6,0,17-.05,25.41.1,8.49.15,15.83.51,24.14.67,1.94.02,3.98.04,5.93.05,2.28.05,4.06.2,6.23.26,4.5.12,10.72.19,15.57.18,8.26,0,14.43-.04,22.52-.2,8.99-.18,13.25.03,22.1.05,6.57.01,13.96-.1,20.39-.02,6.05.07,3.12.22,6.01.5,5.34.53,23.58-.17,30.86-.18,24.96-.05,49.95.71,73.76.18,25.59-.57,57.9,0,76.86.28,2.44.04,6.34-.52,8.89-.51,12.97.1,26.98.2,40.23.3,7.07.04,12.69.37,19.69.43,9.56.08,20.3-1.03,24.14.18,3.02-.21,5.89-.31,8.69-.37,1.4-.02,2.78-.04,4.15-.06,1.44-.01,2.86-.02,4.28-.03,3.9-.04,7.82-.37,11.8-1,3.97-.68,8-1.69,12.09-3.16,8.38-2.39,16.71-6.3,24.15-11.74,7.44-5.41,14.09-12.17,19.34-19.88,5.27-7.7,9.27-16.27,11.72-25.09,1.23-4.41,2.13-8.86,2.68-13.28.24-2.21.48-4.41.56-6.59.09-1.72.17-3.43.26-5.14-1.4-19.69.21-34.93-1.04-54.4,1.04-6.59.13-16.08.75-23.29-.74-30.69-.24-62.26-.17-93.78.02-9.21.07-25.68-.08-28.59-.61-11.86.64-15.17.18-24.13-.44-8.62.04-38.2.04-44.67-.07-16.65-.14-31.84-.21-49.11.11-15.3.24-32.96.36-48.27.01-7.08-.39-17.47-.39-24.98,0-13.98.8-30.49.3-40.23-.28-5.37.08-4.21.06-8.05,0-.52-.01-1.05-.02-1.58-.02-.73-.05-1.46-.07-2.2-.03-1.47-.16-2.96-.3-4.47-.27-3-.76-6.04-1.39-9.04-1.25-6.01-3.22-11.84-5.5-17.08-4.55-10.52-11.29-20.13-19.6-28-8.3-7.89-18.2-13.98-28.68-17.88-5.38-1.48-12.53-3.19-20.56-3.75-1-.06-2.02-.15-3.04-.19-1.02-.02-2.06-.05-3.1-.07-1.53,0-3.08-.01-4.65-.02-2.98-.03-6.01-.06-9.02-.09-12.03-.15-23.6-.41-29.43-.11-9.16.47-20.78-.33-28.57.08-1.31.07-2.26.09-3,.1h-.48s-.05-.03-.07-.04c-.08-.05-.14-.14-.29-.11-2.8.41-4.68-.14-7.29-.34-1.98-.15-3.92-.12-5.91-.22-.82.57-.9,1.38-1.29,1.9-.45.61-1.02.81-1.22,1.33-.14.38.27,1.04.17,1.45.97-.59,1.1.98.55,1.2-2.31,1.43-2.14,3.08-2.34,4.69-.95,1.08-1.67.29-2.53.64-.17,1.81.52,3.69-1.72,5.32.23.88.66,1.78.02,2.59l-1.91,1.27c.11,1.06-.48,2.08-.74,3.1-.19.74-.12,1.61-.6,1.96-.52.38.29,1.02.16,1.45-.98.49-1.41,1.03-1.6,1.59.22,1.74-.22,3.43.73,5.24-.42.92-.63,1.86-1.05,2.79,1.5,1.95.07,3.65,1.73,5.61-.05.76-1.73,1.38-.98,2.22,1.6-.7,2.78,1.94,4.16,2.95.81-.39,1.66-.07,2.45-.08.79,0,2.84-.29,3.14-.02.38.35.32.02.69.06,1.05.1,2.09-.16,2.83-.33.57-.13.88-.08,1.45-.45,1.36,1.02,3.31.38,4.83.42.31,0,.68.36,1,.37.52.03.91-.45,1.45-.45.95,0,1.79.43,2.76.24-5.15-.02,19.14-.23,34.18-.21,7.63.06,15.64.12,24.13.18,1.34,0,2.26.29,3.61.31,2.44.04,6.32-.52,8.89-.51,1.27,0,2.43.15,3.59.31.29.04.58.08.87.11l.44.05c.13.02.2.04.3.06.38.07.77.13,1.18.14,1.72.1,3.9-.23,5.66.14,2.1.41,4.94,1.18,7.88,2.57,2.96,1.34,5.99,3.29,8.59,5.52,1.32,1.1,2.47,2.32,3.55,3.47,1.02,1.2,1.98,2.34,2.72,3.44,1.53,2.17,2.5,3.96,2.99,4.78,1.42,2.32,2.38,5.09,2.9,7.73.54,2.64.64,5.14.68,7.04,0,.36.03.79.1,1.28l.02.18.02.28c.01.19.03.39.04.6.03.4.06.81.09,1.23.13,1.65.26,3.32.28,4.49.04,3.29-.11,12.27-.12,16.1-.02,11.4-.15,19.98-.24,32.18-.04,5.34-.08,10.73-.12,16.09-.05,6.02-.43,13.82-.43,19.7,0,4.24.69,9.12.76,13.33.09,4.91-.61,10.21-.69,15.25-.03,2.11.47,6.65.51,8.89.01.76-.3,2.75-.31,3.61-.03,2.4.51,6.34.51,8.89.02,12.59-.57,28.27-.55,35.78.02,6.41.45,11.1.45,16.93,0,23.05-.23,47.39-.48,64.36-.03,2.35.49,6.4.51,8.89.02,3.11-.38,8.25-.37,11.65.02,6.5.46,10.95.45,16.93-.04,24.38-.61,45.33-.79,67.97.98,9.58.22,16.58.96,25.82-1.1,9.85-.32,16.52-.18,24.13.03,1.67-.37,9.44-.37,11.64.02,3.41.03,6.84.05,10.3.02,1.72.03,3.45.05,5.18l.03,2.59v2.08c-.01,4.43-.85,8.78-2.47,12.7-1.63,3.96-3.93,7.64-6.83,10.75-2.89,3.11-6.3,5.69-10.01,7.6-3.72,1.88-7.72,3.08-11.81,3.6l-1.54.15c-.51.05-1.04.04-1.55.08-.51.05-1.04,0-1.56.01h-.78l-1.23-.02c-3.31-.07-6.62-.14-9.94-.21-10,.35-18.33-.44-29.42.65-11.85-1.15-26.85-.17-39.39-.87-21.54.82-41.31.44-59.92-.73-23.18,0-42.63-.48-65.81-.48-4.13,0-10.08-.06-14.37,0-4.7.06-6.22.2-10.11.45-3.85.24-6.06.41-10.82.27-2.04-.06-2.91-.18-5.23-.23-1.98-.04-4.1,0-6.11-.01-4.69,0-9.51.01-14.18.02-5.42.04-9.54.24-14.59.32-10.1.15-20.61-.15-30.55-.17-12.76-.03-24.68-.26-37.2-.32h-22.36c-4.22,0-8.9.04-13-.01-4.49-.06-8.58-.25-13.33-.29-14.95-.15-29.48-.17-44.66-.17-5.17,0-10.96-.05-16.12,0-3.65.03-4.67.11-7.85.23-3.72.14-6.36.04-10.03.08-1.77.02-2.83.11-4.45.14-6.01.12-12.62.02-18.64-.04-4.01-.04-7.9-.11-11.74-.19-.96-.02-1.91-.04-2.86-.06l-1.42-.03-.66-.02-.42-.03c-1.13-.06-2.25-.19-3.35-.36-4.39-.7-8.52-2.23-12.42-4.58-6.13-3.72-10.92-9.12-13.94-15.79-1.78-3.95-2.88-8.08-3.07-12.46l-.04-.73c0-.08,0-.33-.01-.53v-.62l-.02-2.47c0-1.64,0-3.29-.01-4.92-.02-3.27-.04-6.52-.06-9.77-.15-10.34-.07-21.51-.08-32.19,0-6.24.08-9.19.23-15.29.09-4,.13-5.51,0-9.43-.13-3.94-.43-6.86-.52-11.16-.07-3.11-.03-7.01-.03-10.35,0-9.17.04-17.24.19-26.06.09-3.17.17-6.04.26-9.2.01-2.95.03-6.12.04-8.95.06-3.02.06-1.03.06-4.93l.08-.06Z"/>
  <path class="st0" d="M-391.57,391.4c3.27-.53,6.63,0,8.54-.08,4.6-.18,6.69-.86,10.12-.9,5.7-.07,25.18,1.34,28.84.71,3.09-.53,6.98.26,9.62.24.88,0,1.78-.46,2.65-.51,1.34-.08,3.03.42,4.81.12,1.97-.34,1.75.29,3.48.37.72.03,1.9-.5,2.66-.51,4.61-.05,8.73.06,13.34.04,6.02-.03,11.85-.1,15.75.1.44.02.64.29,1.08.31.73.04,1.89-.52,2.65-.51,3.83.05,7.16.24,9.61.24.44,0,.88-.26,1.33-.25.74,0,1.41.62,2.15.63,3.05.05,5.91-1.01,7.21.18l5.31-1.02c1.45.06,2.89.13,4.33.19l2.19.07c.48.01.43.02.57.03l.32.03c.84.07,1.68.11,2.51.14,1.65.07,3.25.12,4.65.37,1.2.21,2.69.21,3.45.3.54.06.75.55,1.31.69.82.2,2.11-.13,2.69.81.41-1.65,1.35.22,2.07.18.35-.02,1.35-.75,2.22-.96.06-.01.24.3.31.31.18.03.57-.47.76-.51.07-.01.24.3.31.31.54.09,3.76-2.42,4.19-2.8.32-.28.17-.62.45-.82.34-.26-.01-.47.07-.57,1.08-1.26,2.11-1.48,2.36-2.1.56-1.37,1.69-2.35,1.81-3.29.05-.38.15-.75.14-1.14,1.63-.72,1.11-1.63,2.74-2.35-.7-.82-.02-1.75-.02-2.59,0-.34.21-.79.14-1.14-.04-.23-.55-.4-.62-.63-.04-.11.45-.67.45-.82.05-1.33.25-2.77.12-3.73-.07-.54-.16-.95-.16-1.45,0-.37.16-.73.14-1.14-.01-.41-.25-.77.14-1.14.51.55,1.09.61,1.69.43-1-.85-.09-1.54-1.09-2.39.57-.43.63-.59.14-1.14-.43-.48-.04-1.6-.09-2.02-.07-.64-.43-.78-.86-1.51-.51-.86.26-2.58-1.33-3.28.19-.65,1.1-1.25,1.29-1.9-.83-1.8-2.29-3.65-2.11-5.36-1.62-.07-1.95-1.85-3.16-2.57-.38-.23-1.96.39-2-.75-1.13-.3-2.44.92-3.52.27-1.16-.87.47-1.49-1.09-2.39-1.83.81-3.8.07-5.6.09-1,.01-1.77.28-2.83.33-.87.04-2.08-.47-2.83.33-1.44-.98-4.01-.73-5.14-.73-.21,0-.41-.62-.62-.63-.34-.01-1.18.41-1.45.45-.37.06-.75.06-1.13.04l-.58-.04-.29-.02h-.14l-.39-.02c-2.59-.05-4.98-.05-6.74.25-2.76.47-10.08-.07-13.35-.04-4.05.03-8.42.25-12.27.27-3.11.02-6.46-.4-8.29-.49-.71-.03-1.9.5-2.65.51-1.34.02-3.38-.13-4.81-.12-4.4,0-7.89.01-10.94.02-3.86,0-9.87-.37-12.02-.3-2.47.09-4.19,1.01-6.38.71-3.74-.69-8.22.28-11.77-.87-10.61,1.09-20.5.57-30.42.11-5.3.07-11.05,1.17-15.75-.1-2.33.01-5.27-.29-7.62-.29-4.22,0-8.22.05-12.41.14-1.62.04-3.41.04-5.05.02-1.01-.02-1.72-.13-2.68-.17-2.37-.1-5.44,0-7.82,0-1.92,0-4.58-.04-6.35.16-.57.07-.94.17-1.53.24-1.86.22-4.38.06-6.04-.17-3.82-.54-7.1-1.36-11.73-1.34h-6.9c-1.35,0-2.61-.02-3.83.08-.51.06-1.19.13-1.75.2-3.61.29-7.22.59-11.05.66-1.77.04-3.7-.07-5.42,0-.43.02-.77.11-1.15.13-.81.04-1.51.04-2.36.03-2.57,0-5.08.05-7.59-.1-2.54-.15-4.73-.51-7.21-.67-.58-.04-1.19,0-1.77-.05-.68-.05-1.21-.2-1.86-.26-1.34-.12-3.2-.19-4.65-.18-2.47,0-4.31.04-6.73.2-2.69.18-3.96-.03-6.6-.05-1.96-.01-4.17.1-6.09.02-1.81-.07-.93-.22-1.8-.5-1.6-.53-7.04.17-9.22.18-7.46.05-14.92-.71-22.03-.18-7.65.57-17.3,0-22.96-.28-.73-.04-1.89.52-2.65.51-3.88-.04-8.06-.23-12.02-.3-2.11-.04-3.79-.37-5.88-.43-2.86-.08-6.07,1.03-7.21-.18-3.61.83-6.51.07-10.12.9-7.25-1.01-15.58.44-22.71-.85-5.88,1.4-10.44-.21-16.25,1.04-1.97-1.04-4.8-.13-6.96-.75-9.17.74-18.6.24-28.02.17-2.75-.02-7.67-.07-8.54.08-3.54.61-4.53-.64-7.21-.18-2.57.44-11.41-.04-13.35-.04-4.98-.01-9.51.23-14.67.21-4.57-.02-9.84-.33-14.42-.36-2.11-.01-5.22.39-7.46.39-4.18,0-9.11-.8-12.02-.3-1.61.28-1.26-.08-2.4-.06-2.38.05-5.09.43-7.46.39-4.75-.07-9.59-.42-14.17-.93-4.58,1.45-14.92-.19-18.4.41-2.74.47-6.21-.33-8.54.08-.39.07-.68.09-.9.1-.14,0-.16,0-.17-.01-.02,0-.05-.02-.07-.03-.08-.05-.14-.14-.29-.11-2.8.41-4.68-.14-7.29-.34-1.98-.15-3.92-.12-5.91-.22-.82.57-.9,1.38-1.29,1.9-.45.61-1.02.81-1.22,1.33-.14.38.27,1.04.17,1.45.97-.59,1.1.98.55,1.2-2.31,1.43-2.14,3.08-2.34,4.69-.95,1.08-1.67.29-2.53.64-.17,1.81.52,3.69-1.72,5.32.23.88.66,1.78.02,2.59l-1.91,1.27c.11,1.06-.48,2.08-.74,3.1-.19.74-.12,1.61-.6,1.96-.52.38.29,1.02.16,1.45-.98.49-1.41,1.03-1.6,1.59.22,1.74-.22,3.43.73,5.24-.42.92-.63,1.86-1.05,2.79,1.5,1.95.07,3.65,1.73,5.61-.05.76-1.73,1.38-.98,2.22,1.6-.7,2.78,1.94,4.16,2.95.81-.39,1.66-.07,2.45-.08.79,0,2.84-.29,3.14-.02.38.35.32.02.69.06,1.05.1,2.09-.16,2.83-.33.57-.13.88-.08,1.45-.45,1.36,1.02,3.31.38,4.83.42.31,0,.68.36,1,.37.52.03.91-.45,1.45-.45.95,0,1.79.43,2.76.24.9-.01.63-.07,3.83-.12,2.43-.05,4.87-.1,7.37-.09,2.28,0,4.67.13,7.21.18.4,0,.67.29,1.08.31.73.04,1.89-.52,2.65-.51.76,0,1.38.61,2.15.63.82.02,1.82-.51,2.65-.51,4.02,0,13.96.41,15.75.1,2.54-.44,5.43.09,7.21.18.66.03,1.95-.48,2.65-.51.98-.04,3.67.11,4.81.12,3.41.02,5.97.15,9.61.24,1.6.04,3.21.08,4.81.12,1.8.05,4.13.43,5.88.43,1.27,0,2.73-.69,3.98-.76,1.47-.09,3.05.61,4.55.69.63.03,1.99-.47,2.65-.51.23-.01.82.3,1.08.31.72.03,1.89-.51,2.65-.51,3.76-.02,8.44.57,10.69.55,1.91-.02,3.32-.45,5.06-.45,6.89,0,14.16.23,19.23.48.7.03,1.91-.49,2.65-.51.93-.02,2.47.38,3.48.37,1.94-.02,3.27-.46,5.06-.45,7.28.04,13.54.61,20.3.79,2.86-.98,4.95-.22,7.71-.96,2.94,1.1,4.93.32,7.21.18.5-.03,2.82.37,3.48.37,4.07.01,8.29-.33,12.27-.27,8.05.12,15.85.6,23.78,1.16,2.99-.35,5.48.44,8.79-.65,3.54,1.15,8.02.17,11.77.87,6.44-.82,12.34-.44,17.9.73,6.93,0,12.73.48,19.66.48,1.23,0,3.01.06,4.29,0,1.4-.06,1.86-.2,3.02-.45,1.15-.24,1.81-.41,3.23-.27.61.06.87.18,1.56.23.59.04,1.22,0,1.83.01,1.4,0,2.84.02,4.23-.02,1.62-.04,2.85-.24,4.36-.32,3.02-.15,6.16.15,9.13.17,3.81.03,7.37.26,11.11.32,2.19.04,4.48,0,6.68,0,1.26,0,2.66-.04,3.88.01,1.34.06,2.56.25,3.98.29,4.47.15,8.81.17,13.34.17,1.54,0,3.28.05,4.82,0,1.09-.03,1.39-.11,2.34-.23,1.11-.14,1.9-.04,3-.08.53-.02.84-.11,1.33-.14,1.79-.12,3.77-.02,5.57.04,4.79.16,9.03.75,13.72,1.04,3.7.22,7.24.4,11.08.34,2.26-.03,4.47-.22,6.7-.3,1.97-.07,3.93-.02,5.87-.11,3.09-.15,6.43-.07,9.62-.08,1.86,0,2.74.08,4.57.23,1.19.09,1.65.13,2.82,0,1.18-.13,2.05-.43,3.33-.52.93-.07,2.1-.03,3.09-.03,2.74,0,5.15.04,7.79.19.95.05,1.8.21,2.75.26.88.05,1.83,0,2.67.04.9.06.31.06,1.47.06l.09.05Z"/>
  <path class="st0" d="M-671.08,192.08c-.48.76,0-.18-.07-.11-.16.15-.78,1.06-.82.97-.03-.07.27-.78.52-1.28.24-.51.42-.84.13-.58-.48.42.23-.46.22-.5,0-.02-.41.34-.46.35-.08.02.39-.44.11-.25-.31.19.26-.28.34-.38.03-.04-.46.3-.46.28-.04-.13.06-.34.04-.48-.03-.18-.09-.37.09-.56.02-.02.27-.1.29-.12.03-.03-.47.08-.46.05.05-.15.22-.29.22-.36,0-.01-.23,0-.23-.02,0-.03.56-.1.57-.11.04-.06-.92-.18.16-.18-.31-.06-.62-.14-.92-.24.12-.07.19-.14.26-.21.26-.19.26-.46.67-.44.21.02.26-.06.35-.05.07,0,.44.3.55.37.15.11-.03-.16.6.5-1.07-1.2.16.13.12.13-.02,0-.44-.6-.52-.79.01.02.16.24.18.25.02.02-.23-.4-.24-.44.01.02.15.24.17.26.03.04-.25-.5-.46-1.13-.22-.62-.37-1.35-.41-1.54-.06-.28-.19-.58-.22-.79-.03-.26-.16-.44-.18-.54-.22-1.26,0-1.56-.09-2.15-.2-1.35,0-2.43-.12-3.37-.05-.37-.07-.75-.14-1.12.3-.39.37-.82.45-1.25.1-.41.14-.9.6-1.25-.48-.81-.16-1.74-.21-2.58-.03-.34.08-.79.02-1.14-.05-.23-.42-.39-.49-.61-.04-.11.27-.68.27-.83-.07-1.33,0-2.77-.17-3.72-.1-.53-.22-.94-.26-1.44-.03-.36.09-.73.05-1.14-.04-.41-.31-.75.06-1.14.55.53,1.11.55,1.71.35-1.03-.8-.09-1.54-1.2-2.34.6-.46.69-.62.11-1.15-.51-.46-.12-1.59-.19-2.01-.12-.63-.56-.75-1.14-1.45-.35-.41-.32-1.06-.46-1.68-.14-.62-.46-1.22-1.6-1.4.17-.7,1.41-1.45,1.62-2.09-1.27-1.76-3.87-3.16-3.87-4.91-1.34.15-2.22-.08-3.06-.44-.84-.35-1.65-.8-2.79-.87-.72-.02-3.14,1.5-3.6.46-1.01.2-1.92.91-2.83,1.52-.45.32-.91.62-1.36.87-.45.27-.91.48-1.41.58-2.24.3.06-1.77-2.9-1.07-1.25,1.26-2.68,2.31-4.14,3.32-1.4,1.09-2.92,2.06-4.07,3.31-.66.68-1.19,1.34-1.72,2.01-.52.68-1,1.42-1.61,2.21-1.02,1.26-2.72,2.9-2.82,4.55-1.16.84-2.19,2.47-3.1,4.08-.83,1.65-1.43,3.34-1.83,4.35-.13.38-.82.51-.96.91-.22.63-.3,2.34-.4,2.86-.28,1.42-.64,2.86-.98,4.37-.36,1.75-.48,3.43-.29,4.68.04.24.06.53.07.86.06.26.11.55.15.86.09.61.15,1.31.2,2.01.09,1.4.14,2.85.26,3.74.29,2.22.78,4.59,1.05,6.68.22,1.69.05,3.57.09,4.6.02.4.58.95.63,1.36.1.73.1,1.87.2,2.64.29,2.4.52,4.3.72,5.96.24,2.1.33,5.53.53,6.68.23,1.32,1.09,1.83.98,3.16-.31,2.39.74,4.29.08,6.88,1.52,5.16,1.73,10.75,2.08,16.61.41,2.88,1.48,4.95.97,8.73.16,1.27.17,3.18.32,4.48.28,2.32.58,4.48.91,6.68.13.85.25,1.82.34,2.76.06.58.04,1.1.08,1.68.05.71.14,1.46.24,2.19l.07.55c0,.11.04.12.07.16l.08.1c.11.13.22.26.32.39.31.42.71,1.03,1.18,1.23.14.06.27.02.41.08.23.09.44.34.63.64.22.31.41.67.55,1,.6,1.52,1.11,3.28,2.41,4.37.68.54,1.3,1.09,2.05,1.64.43.32.82.65,1.23.83.18.09.42.11.64.19.66.24,1.31.49,1.97.78.69.27,1.38.57,2.08.95.64.34,1.38.81,2.04,1.07.17.06.32.03.46.09.31.12.6.24.93.4,1.02.46,2.02.87,3.05,1.4.51.28.98.59,1.45.91.49.29.98.56,1.5.8.25.11.52.16.76.28.29.14.5.37.78.49.59.26,1.41.53,2.06.68,1.1.26,1.97.3,3.08.34,1.24,0,1.82.23,3.04.38.91.12,1.94,0,2.83.14.84.11.43.24.84.54.75.51,3.31-.24,4.3-.4.86-.11,1.74-.12,2.59-.2.84-.07,1.72-.15,2.56-.22,1.67-.25,3.33-.57,4.84-1.32,3.27-1.56,7.22-2.77,9.41-3.64.28-.12.56-.95.84-1.1.68-.36,1.4-.76,2.15-1.16.36-.19.72-.39,1.07-.58.33-.21.66-.42.98-.64.68-.46,1.34-.49,1.97-.92.44-.29.79-.93,1.13-1.37.3-.45.59-.68.99-.14.65-1.82,1.62-1.61,2.11-3.41.49-.12.92-.43,1.32-.84.42-.42.68-.84,1.02-1.3l.24-.33.12-.16s.04-.25.06-.36c.07-.55.14-1.08.22-1.58.17-1,.39-1.87.7-2.5-.18-2.49.02-3.88.25-5.28.23-1.39.47-2.77.3-5.05.78-.04.42-2.57.96-3.18.18-5.89,1.17-10.71,1.9-16.02.21-1.54.6-4.29.56-4.88-.2-2.39.8-2.16.65-3.97-.15-1.72.85-6.43.99-7.54.37-2.82.5-5.49.88-8.4.34-2.57.99-5.46,1.34-8.06.16-1.2.03-3.05.19-4.32.29-2.34,1.39-5.06,1.13-6.77-.14-.93.17-.71.23-1.36.12-1.36-.04-2.9.16-4.24s.48-2.7.8-4.05c.16-.68.34-1.36.53-2.03.09-.33.19-.67.29-1.01.05-.4.06-.85.09-1.27-.43-.8-.71-1.86-.91-3.05s-.44-2.5-.62-3.79c-.1-.65-.19-1.29-.31-1.91-.13-.61-.26-1.19-.4-1.73-.28-1.08-.58-1.98-.92-2.52-.56-.83-.91-1.89-1.25-2.93-.33-1.04-.69-2.04-1.27-2.67-.38-.44-.48-.67-.5-.82-.03-.17-.02-.32-.18-.57-.39-.62-.75-1.18-1.09-1.72-.37-.55-.72-1.07-1.06-1.57-.69-1.01-1.28-2.02-1.97-2.95-.66-.92-1.34-1.86-2.04-2.83-.74-.93-1.54-1.85-2.43-2.82-.66-.75-1.4-1.41-2.14-2.07-.74-.66-1.48-1.31-2.26-1.93-1.59-1.16-3.16-2.38-4.88-3.39-1.69-.33-2.21.32-3.1.43-1.03.13-2.1-.13-2.65.19-.4.24.03,1.16-.31,1.46,1.86.23,1.37,1.75.39,1.51-4.32-.45-4.54,1.33-5.42,2.7-1.79.52-2.57-.66-3.99-.65-.35.84-.4,1.78-.81,2.6-.41.83-1.18,1.53-2.82,1.97.15.94.49,1.95-.46,2.55-.87.26-1.72.58-2.54.88,0,1.07-.81,1.97-1.17,2.97-.27.73-.27,1.59-.79,1.92-.55.36.22,1.03.06,1.46-1,.44-1.4.96-1.57,1.51.14,1.75-.18,3.42.43,5.27-.32.91-.48,1.84-.72,2.74.42,1.01.37,1.92.37,2.83s-.05,1.84.27,2.83c-.16.77-.63,1.35-.45,2.2.15-.31.57.11.61.87.1.74.11,1.65.15,2.15.23-.31.33.03.48.04.14.04.63-.07.58.22-.07.35.05.05.1.11.14.17.42.07.65,0,.17-.04.19.04.49-.19-.34.99.3.74.51,1.03.04.05-.15.34-.13.41.04.1.43-.14.5-.05.13.16-.13.56.12.62.14.21.47.48.57.84.03.17-.02.38-.03.57,0,.03-.26.12-.27.15-.02.05.48.01.49.07,0,.06-.53.22-.55.27-.02.06.47.04.47.1.03.32-.36,1.01-.08,1.15.4.23-.08.39-.16.49-.03.04.44.23.46.29.04.09-.1.26-.11.34-.02.25-.14.4-.22.63l-.11.29c-.04.11-.39.07-.39.18,0,.07.63.57.7.71.08.17-.56-.16-.63-.11-.03.02.43.45.46.53.01.03-.28-.15-.29-.15-.03.02.46.5.46.56.02.32-.52.16-.5.31.02.14.41.64.41.77,0,.5-.21.8-.43.84-.03,0,.45.74.46.82.02.1-.35-.31-.34-.23.02.15.42.84.41.97-.04.5-.56.1-.72.23.89,1.82.2.69.87,2.18-1.01-1.73-.29-.22-.16.23.03.1-.34-.49-.34-.45-.01.25.3,1.23.25,1.42-.1.36-.64-.14-1.27-1.05.24,1.03-.46-.79.33,2.08-.51-1.32-.6-1.34-.66-1.21-.05.14-.07.43-.39-.4.39,2.45-.24,1.79-1.09-1.34-.26.21-.7-1.06-.92-.97-.05.02-.12-.12-.16.05-.04.19-.01.61,0,1.36,0,.73,0,1.23-.09.84-.04-.17-.07-.52-.11-.66-.03-.12-.06-.02-.08-.02-.06,0-.13-.04-.19.07-.07.13-.11.73-.19.96-.15.45-.3-.44-.44-.53-.18-.13-.3-.82-.44-1.06-.08-.13-.18-.03-.27-.06-.05-.02-.12.09-.15-.1-.03-.2,0-.76-.03-.93-.09-.52-.2-.66-.33-.77-.05-.03-.06-.21-.13-.12-.05.06-.11.27-.21.57-.12.35-.08.05-.14.14-.03.05-.09.26-.13.33-.14.26-.12-.07-.12-.29-.01-.58.38-2.24.56-3.05.14-.65.27-1.13.19-1.08-.04.03-.22.4-.3.51-.07.1-.03-.07-.12.08-.14.23-.07-.04-.08-.11,0-.04.07-.25.21-.58.09-.22.12-.29,0-.08s-.39.77-.48.9c-.06.09-.02-.02-.02-.06,0-.1.04-.25.17-.6.07-.15.17-.38.24-.53.05-.11,0-.04.04-.14.05-.12.06-.12.05-.14l.02-.05Z"/>
  <path class="st0" d="M-405.48,192.08c-.48.76,0-.18-.07-.11-.16.15-.78,1.06-.82.97-.03-.07.27-.78.52-1.28.24-.51.42-.84.13-.58-.48.42.23-.46.22-.5,0-.02-.41.34-.46.35-.08.02.39-.44.11-.25-.31.19.26-.28.34-.38.03-.04-.46.3-.46.28-.04-.13.06-.34.04-.48-.03-.18-.09-.37.09-.56.02-.02.27-.1.29-.12.03-.03-.47.08-.46.05.05-.15.22-.29.22-.36,0-.01-.23,0-.23-.02,0-.03.56-.1.57-.11.04-.06-.92-.18.16-.18-.31-.06-.62-.14-.92-.24.12-.07.19-.14.26-.21.26-.19.26-.46.67-.44.21.02.26-.06.35-.05.07,0,.44.3.55.37.15.11-.03-.16.6.5-1.07-1.2.16.13.12.13-.02,0-.44-.6-.52-.79.01.02.16.24.18.25.02.02-.23-.4-.24-.44.01.02.15.24.17.26.03.04-.25-.5-.46-1.13-.22-.62-.37-1.35-.41-1.54-.06-.28-.19-.58-.22-.79-.03-.26-.16-.44-.18-.54-.22-1.26,0-1.56-.09-2.15-.2-1.35,0-2.43-.12-3.37-.05-.37-.07-.75-.14-1.12.3-.39.37-.82.45-1.25.1-.41.14-.9.6-1.25-.48-.81-.16-1.74-.21-2.58-.03-.34.08-.79.02-1.14-.05-.23-.42-.39-.49-.61-.04-.11.27-.68.27-.83-.07-1.33,0-2.77-.17-3.72-.1-.53-.22-.94-.26-1.44-.03-.36.09-.73.05-1.14-.04-.41-.31-.75.06-1.14.55.53,1.11.55,1.71.35-1.03-.8-.09-1.54-1.2-2.34.6-.46.69-.62.11-1.15-.51-.46-.12-1.59-.19-2.01-.12-.63-.56-.75-1.14-1.45-.35-.41-.32-1.06-.46-1.68s-.46-1.22-1.6-1.4c.17-.7,1.41-1.45,1.62-2.09-1.27-1.76-3.87-3.16-3.87-4.91-1.34.15-2.22-.08-3.06-.44-.84-.35-1.65-.8-2.79-.87-.72-.02-3.14,1.5-3.6.46-1.01.2-1.92.91-2.83,1.52-.45.32-.91.62-1.36.87-.45.27-.91.48-1.41.58-2.24.3.06-1.77-2.9-1.07-1.25,1.26-2.68,2.31-4.14,3.32-1.4,1.09-2.92,2.06-4.07,3.31-.66.68-1.19,1.34-1.72,2.01-.52.68-1,1.42-1.61,2.21-1.02,1.26-2.72,2.9-2.82,4.55-1.16.84-2.19,2.47-3.1,4.08-.83,1.65-1.43,3.34-1.83,4.35-.13.38-.82.51-.96.91-.22.63-.3,2.34-.4,2.86-.28,1.42-.64,2.86-.98,4.37-.36,1.75-.48,3.43-.29,4.68.04.24.06.53.07.86.06.26.11.55.15.86.09.61.15,1.31.2,2.01.09,1.4.14,2.85.26,3.74.29,2.22.78,4.59,1.05,6.68.22,1.69.05,3.57.09,4.6.02.4.58.95.63,1.36.1.73.1,1.87.2,2.64.29,2.4.52,4.3.72,5.96.24,2.1.33,5.53.53,6.68.23,1.32,1.09,1.83.98,3.16-.31,2.39.74,4.29.08,6.88,1.52,5.16,1.73,10.75,2.08,16.61.41,2.88,1.48,4.95.97,8.73.16,1.27.17,3.18.32,4.48.28,2.32.58,4.48.91,6.68.13.85.25,1.82.34,2.76.06.58.04,1.1.08,1.68.05.71.14,1.46.24,2.19l.07.55c0,.11.04.12.07.16l.08.1c.11.13.22.26.32.39.31.42.71,1.03,1.18,1.23.14.06.27.02.41.08.23.09.44.34.63.64.22.31.41.67.55,1,.6,1.52,1.11,3.28,2.41,4.37.68.54,1.3,1.09,2.05,1.64.43.32.82.65,1.23.83.18.09.42.11.64.19.66.24,1.31.49,1.97.78.69.27,1.38.57,2.08.95.64.34,1.38.81,2.04,1.07.17.06.32.03.46.09.31.12.6.24.93.4,1.02.46,2.02.87,3.05,1.4.51.28.98.59,1.45.91.49.29.98.56,1.5.8.25.11.52.16.76.28.29.14.5.37.78.49.59.26,1.41.53,2.06.68,1.1.26,1.97.3,3.08.34,1.24,0,1.82.23,3.04.38.91.12,1.94,0,2.83.14.84.11.43.24.84.54.75.51,3.31-.24,4.3-.4.86-.11,1.74-.12,2.59-.2.84-.07,1.72-.15,2.56-.22,1.67-.25,3.33-.57,4.84-1.32,3.27-1.56,7.22-2.77,9.41-3.64.28-.12.56-.95.84-1.1.68-.36,1.4-.76,2.15-1.16.36-.19.72-.39,1.07-.58.33-.21.66-.42.98-.64.68-.46,1.34-.49,1.97-.92.44-.29.79-.93,1.13-1.37.3-.45.59-.68.99-.14.65-1.82,1.62-1.61,2.11-3.41.49-.12.91-.43,1.32-.84.42-.42.68-.84,1.02-1.3l.24-.33.12-.16s.04-.25.07-.36c.07-.55.14-1.08.22-1.58.17-1,.39-1.87.7-2.5-.18-2.49.02-3.88.25-5.28.23-1.39.47-2.77.3-5.05.78-.04.42-2.57.96-3.18.18-5.89,1.17-10.71,1.9-16.02.21-1.54.6-4.29.56-4.88-.2-2.39.8-2.16.65-3.97-.15-1.72.85-6.43.99-7.54.37-2.82.5-5.49.88-8.4.34-2.57.99-5.46,1.34-8.06.16-1.2.03-3.05.19-4.32.29-2.34,1.39-5.06,1.13-6.77-.14-.93.17-.71.23-1.36.12-1.36-.04-2.9.16-4.24.2-1.34.48-2.7.8-4.05.16-.68.34-1.36.53-2.03.09-.33.19-.67.29-1.01.05-.4.06-.85.09-1.27-.43-.8-.71-1.86-.91-3.05-.2-1.19-.44-2.5-.62-3.79-.1-.65-.19-1.29-.31-1.91-.13-.61-.26-1.19-.4-1.73-.28-1.08-.58-1.98-.92-2.52-.56-.83-.91-1.89-1.25-2.93-.33-1.04-.69-2.04-1.27-2.67-.38-.44-.48-.67-.5-.82-.03-.17-.02-.32-.18-.57-.39-.62-.75-1.18-1.09-1.72-.37-.55-.72-1.07-1.06-1.57-.69-1.01-1.28-2.02-1.97-2.95-.66-.92-1.34-1.86-2.04-2.83-.74-.93-1.54-1.85-2.43-2.82-.66-.75-1.4-1.41-2.14-2.07-.74-.66-1.48-1.31-2.26-1.93-1.59-1.16-3.16-2.38-4.88-3.39-1.69-.33-2.21.32-3.1.43-1.03.13-2.1-.13-2.65.19-.4.24.03,1.16-.31,1.46,1.86.23,1.37,1.75.39,1.51-4.32-.45-4.54,1.33-5.42,2.7-1.79.52-2.57-.66-3.99-.65-.35.84-.4,1.78-.81,2.6-.41.83-1.18,1.53-2.82,1.97.15.94.49,1.95-.46,2.55-.87.26-1.72.58-2.54.88,0,1.07-.8,1.97-1.17,2.97-.27.73-.27,1.59-.79,1.92-.55.36.22,1.03.06,1.46-1,.44-1.4.96-1.57,1.51.14,1.75-.18,3.42.43,5.27-.32.91-.48,1.84-.72,2.74.42,1.01.37,1.92.37,2.83s-.05,1.84.27,2.83c-.16.77-.63,1.35-.45,2.2.15-.31.57.11.61.87.1.74.11,1.65.15,2.15.23-.31.33.03.48.04.14.04.63-.07.58.22-.07.35.05.05.1.11.14.17.42.07.65,0,.17-.04.19.04.49-.19-.34.99.3.74.51,1.03.04.05-.15.34-.13.41.04.1.43-.14.5-.05.13.16-.13.56.12.62.14.21.47.48.57.84.03.17-.02.38-.03.57,0,.03-.26.12-.27.15-.02.05.48.01.49.07,0,.06-.53.22-.55.27-.02.06.47.04.47.1.03.32-.36,1.01-.08,1.15.4.23-.08.39-.16.49-.03.04.44.23.46.29.04.09-.1.26-.11.34-.02.25-.14.4-.22.63l-.11.29c-.04.11-.39.07-.39.18,0,.07.63.57.7.71.08.17-.56-.16-.63-.11-.03.02.43.45.46.53.01.03-.28-.15-.29-.15-.03.02.46.5.46.56.02.32-.52.16-.5.31.02.14.41.64.41.77,0,.5-.21.8-.43.84-.03,0,.45.74.46.82.02.1-.35-.31-.34-.23.02.15.42.84.41.97-.04.5-.56.1-.72.23.89,1.82.2.69.87,2.18-1.01-1.73-.29-.22-.16.23.03.1-.34-.49-.34-.45-.01.25.3,1.23.25,1.42-.1.36-.64-.14-1.27-1.05.24,1.03-.46-.79.33,2.08-.51-1.32-.6-1.34-.66-1.21-.05.14-.07.43-.39-.4.39,2.45-.24,1.79-1.09-1.34-.26.21-.7-1.06-.92-.97-.05.02-.12-.12-.16.05-.04.19-.01.61,0,1.36,0,.73,0,1.23-.09.84-.04-.17-.07-.52-.11-.66-.03-.12-.06-.02-.08-.02-.06,0-.13-.04-.19.07-.07.13-.11.73-.19.96-.15.45-.3-.44-.44-.53-.18-.13-.3-.82-.44-1.06-.08-.13-.18-.03-.27-.06-.05-.02-.12.09-.15-.1-.03-.2,0-.76-.03-.93-.09-.52-.2-.66-.33-.77-.05-.03-.06-.21-.13-.12-.05.06-.11.27-.21.57-.12.35-.08.05-.14.14-.03.05-.09.26-.13.33-.14.26-.12-.07-.12-.29-.01-.58.38-2.24.56-3.05.14-.65.27-1.13.19-1.08-.04.03-.22.4-.3.51-.07.1-.03-.07-.12.08-.14.23-.07-.04-.08-.11,0-.04.07-.25.21-.58.09-.22.12-.29,0-.08s-.39.77-.48.9c-.06.09-.02-.02-.02-.06,0-.1.04-.25.17-.6.07-.15.17-.38.24-.53.05-.11,0-.04.04-.14.05-.12.06-.12.05-.14v-.05Z"/>
  <path class="st0" d="M-390.28,640.51c-1.75.15-.39-2.86-.85-4.03-3.45-1.56-5.17-5.18-7.34-8-1.21-1.57-2.27-2.4-3.26-3.2-.27-.22.2-1.33-.02-1.61-.22-.29-1.32-.55-1.62-.79-.26-.21.18-1.32-.02-1.61-.18-.27-1.35-.57-1.62-.79s.21-1.33-.02-1.61c-.99-1.23-2.86-2.74-4.08-4-1.53-1.59-3.57-2.24-4.08-4.8-2.27-.1-3.3-1.84-4.87-3.18-1.43-1.22-2.74-2.67-4.08-4-1.37-1.37-2.74-2.57-4.07-4-1.07-1.14-1.93-2.56-2.45-3.2-.13-.16.13-.65,0-.81-.22-.27-1.37.27-1.61.02-2.15-2.25-3.95-4.74-5.71-6.4-2.31-2.19-4.57-3.58-6.51-5.59-1.26-1.31-3-2.88-3.27-4.81-2.79-1.33-5.19-3.5-7.32-5.58-2.12-2.08-4.33-4.45-5.72-7.21-3.29-.99-4.81-3.79-6.52-6.4-2.82-1.47-5.57-3.02-6.52-6.39.14-1.87,1.94-2.45,2.39-3.25,1.08-1.92.62-3.54,1.57-4.86,1.57-2.19,9.5-7.64,9.59-9.78.08-1.8,2.45-2.26,3.2-3.26.25-.34-.19-1.22-.02-1.61.26-.6,1.55-.6,1.6-1.63.05-1.15.97-.29,1.61-.82.26-.22-.23-1.32-.02-1.61,1.28-1.76,2.66-3.15,3.99-4.88,1.73-2.26,3.32-4.51,4.79-5.7.16-.13.65.13.81,0,.27-.23-.26-1.35-.02-1.61,1.21-1.35,2.48-2.34,3.2-3.26.13-.17-.14-.64,0-.81.22-.27,1.38.25,1.61-.02.97-1.07.16-3.44,2.4-2.44l-.03-3.23c4.33-3.47,7.54-8.4,11.19-11.41,1.55-1.28,3.08-3.2,4-4.07.65-.62,1.64-.28,2.41-.83,1.16-.81,1.96-2.87,4.01-2.46-2.15-2.57,1.72-1.47,2.4-2.44.33-.48.2-2.67.77-4.04.04-.09.72.07.81,0,.23-.2-.15-1.32-.02-1.61.05-.1.71.07.81,0,.69-.58.07-7.85-.09-8.88-.11-.75-.78-.99-.82-1.61-.05-.76-.75-.57-.82-.8-.87-2.95-.15-4.55-.86-5.64-1.58-2.42-1.94-5.1-3.29-6.43-.54-.53-1.02-1.13-1.63-1.6.54-3-1.41-3.45-.87-6.45-2-.12-2.76-2.14-4.07-3.19-.53-.42-1.02-1.25-1.63-1.6-.4-.23-1.18.2-1.61.02-.22-.09-.59-1.41-.82-1.61-2.03-1.71-4.07-3.76-5.7-4.79-.91-.58-1.66-.97-2.44-1.59-.57-.45-.97-1.11-1.63-1.6-.66-.49-1.46-.63-1.63-1.6,1.39.03,2.06-.64,2.4-1.64-2.36.23-2.5-1.8-4.86-1.57-.09-1.27-.28-1.54-1.63-1.6-1.19-.05-2.54-1.92-3.25-2.39-1.07-.7-1.65-.42-3.24-.78-1.86-.42-3.76-3.54-6.48-2.36-.83-1.05-.82-2.97-1.65-4.02-3.65-1.17-8.04-1.59-10.53-3.93-1.76,2-4.88.21-7.26.88-.75.21-1.39,3.01-3.21,1.65-1.63,1.07-1.07,4.28-3.18,4.87-2.54.42-1.85-2.46-4.86-1.57-.61,3.35-3.78,4.98-5.58,7.32-1,1.3-1.38,2.62-2.38,4.06-.82,1.17-2.87,2.1-2.38,4.06-3.01.63-5.24,4.27-6.4,5.71-.22.27-1.39-.25-1.61.02-.37.42-.57,2.03-.78,2.43-1.14,2.17-3.89,3.63-3.98,5.69-.07,1.61-3.07,3.64-3.99,4.88-1.14,1.54-2.09,3.42-3.18,4.87-.88,1.17-2.53,1.89-3.21,2.45-.26.22.22,1.32.02,1.61-.37.52-1.19,1.09-1.6,1.63-1.25,1.66-2.29,2.94-3.19,4.07-1.14,1.42-3.48,3.19-4,4.07-.59,1.02.35,2.8-.78,3.24-2.18.52-1.97,3.39-4.81,3.27-1.42,5.27-5.13,8.29-8.77,11.38-1.45,2.05-1.41,5.54-4.79,5.7-2.47-1.28-3.48-4.06-4.91-6.41-1.69-.65-3.46-1.92-4.87-3.18-1.17-1.05-4.04-4.11-4.08-4.8-.06-.93-.52-.35-.81-.8-1.19-1.8-2.75-2.92-3.27-4.81-1.82-.87-4.06-1.3-5.67-2.37-.13-1.32-2.27-2.26-2.44-2.4-1.2-.96.14-3.14-1.64-3.21-.97-.04-1.17-1.8-1.64-2.41-1.55-1.98-2.74-2.93-4.07-4-.27-.22.2-1.33-.02-1.61-1.56-2.14-4.74-3.08-4.9-5.6-.05-.83-4.12-4.83-4.08-4.8-1.14-.76-3.06-.66-4.05-1.58-.13-.12-.82-1.49-.82-1.61-.11-1.78-2.52-1.68-2.45-3.21-2.91.24-3.91-1.45-6.47-1.55-2.9-3.59-7.22-4.38-11.35-5.54-.07-.02.05-.74,0-.81-.22-.26-1.32.21-1.61.02-1.41-.93-2.7-3.23-4.08-4.8-1.29-1.45-2.68-3.65-4.08-4.8-2.15-1.76-4.9-.83-5.69-3.98-2.29-.65-2.08,1.16-4.03.85-1.54-.33-1.48-2.29-4.05-1.57-.11,1.49-2.73.52-3.21,1.64-.8,1.08-.73,3.01-2.39,3.25-1.99-2.64-3.99-.23-8.08-.73-2.18.52-1.98,3.39-4.81,3.28l-4.03.04c-.69,2.18-2.14,2.22-4.01,2.46-2.59.34-1.39,1.49-4.02,1.65-1.58.1-2.58,3.06-4.83,1.66-.72,1.43-1.78,2.52-3.2,3.26-1.72.98-4.5.91-5.63,2.48-.23,2.91-1.99,6.01-1.53,8.89.14.89,1.3,2.26,2.46,4.01.33.49,1.32,1.03,1.63,1.6.5.91.32,1.69.83,2.41.35.5,1.27,1.04,1.63,1.6.44.69.3,1.71.83,2.41.86,1.15,2.59,1.86,3.25,2.39.27.22-.2,1.33.02,1.61.96,1.28,2.3,1.99,3.26,3.2,1.02,1.28,1.47,2.87,2.46,4.01,1,1.15,2.42,2.32,3.26,3.2,1.33,1.38,2.25,2.97,4.07,3.19.03,1.74,1.44,2.76,2.46,4.01,2.22,2.73,3.91,4.7,5.72,7.21.83,1.15,2.39,2.26,2.45,3.2s.49.35.81.8c.89,1.24,1.63,2.81,2.46,4.01.34.5,1.26,1.05,1.63,1.6.19.28.81,1.36.82,1.61.06.94.5.35.81.8,1.84,2.65,4.21,5.47,4.93,8.83,2.57,1.33,4.08,4.36,4.9,5.6.59.9.83.96,1.63,1.6.24.19-.13,1.32.02,1.61.05.1.71-.08.81,0,.27.22-.2,1.33.02,1.61.78,1.03,2.33,2.16,3.26,3.2.55.6,1.09.89,1.63,1.6,1.27,1.67,2.38,2.84,3.27,4,1.92,2.51,3.98,3.66,5.7,5.6.51.57.39,1.86.83,2.41.54.68,1.86.93,2.44,1.59,1.1,1.27,1.15,2.14,1.64,3.21.09.2,1.43.58,1.62.79,1.2,1.27,2.06,2.75,3.27,4,1.13,1.18,3.56,1.79,3.27,4,2.19.76,3.91,1.99,4.08,4.8-1.36,3.54-5.09,6.39-7.19,8.14-.27.23.25,1.34.02,1.61-1.21,1.38-2.72,2.7-4,4.07-.68.74-1.7.94-2.4,1.64-.96.96-.17,3.53-2.4,2.44.23,2.36-1.8,2.5-1.57,4.86-3.7,1.43-3.89,6.31-8,7.34.46,3.92-3.4,3.6-3.16,7.29-2.21-.57-1.61,1.62-3.21,1.65-1.54,4.31-5.1,7.17-7.97,10.57-.84.99-2.37,2.75-2.39,3.25-.09,2.07-2.33.88-2.4,2.44-.06,1.5-3.41,4.17-3.99,4.88-1.48,1.82-2.43,3.8-3.98,5.69-1.37,1.67-3.41,3.23-4.8,4.89-.64.77-.93,2.41-1.58,3.24-1.22,1.55-3.92,2.38-4,4.07-.04.94-.5.36-.8.81-.62.95-.83,2.41-1.58,3.24-1.51,1.67-3.48,3.02-5.61,4.09.91,3.49-4.69,5.28-4.77,7.31-.07,1.59-2.33,1.89-2.39,3.25-.04.91-.57.39-.8.82-2.23,4.1-5.01,5.85-7.98,8.95-2.26,2.35-4.2,4.9-6.39,7.33.05,1.75,1.22,2.87,1.65,4.02.5,1.34.22,2.31.84,3.22.45.66,1.9.95,2.44,1.59.07-1.98,2.66-.2,2.43.78-.13,4.76,2.61,6.58,4.93,8.83.72,2.57-1.25,2.51-1.58,4.05,2.65,2.46,6.29,3.91,6.54,8.82,1.61.8,3.46,1.36,4.07,3.19l.04,4.04c1.77,1.17,2.75,3.19,4.08,4.8.96,1.16,2.39,2.15,2.45,3.2.07,1.14,1.89.9,2.44,1.59-.24,1.87.16,3.1.85,4.03,2.95,1.88,5.13,4.55,8.93,5.56,1.01,1.69,2.26,3.12,3.27,4.81,4.58.49,5.77,4.44,10.54,4.74,1.13,1.02.39,3.95,2.46,4.01.54-2.93,5.87-1.17,8.86-1.7.23-1.53,1.59-2.23,2.39-3.25.8-1.02,2.45-4.02,3.19-4.07.93-.06.36-.38.8-.82,1.24-1.23,1.9-2.89,2.38-4.06.37-.89.77-1.24.78-2.43,2.99-.48,3.98-3.78,5.6-5.7.33-.39,1.25-.43,1.61-.82.57-.63.23-1.73.78-2.43.96-1.23,2.51-1.77,3.2-3.26,1.41-1.85,2.49-3.86,3.98-5.69.68-.84,1.58-1.57,2.4-2.44.13-.14.66.12.81,0,.27-.23-.25-1.34-.02-1.61.23-.27,1.36.25,1.61-.02.27-.28-.26-1.31-.02-1.61,1.18-1.48,4.74-4.65,4.79-5.7.06-1.48,1.74-1.89,2.4-2.44.24-.21-.18-1.32-.02-1.61.22-.41,1.25-1.22,1.6-1.63,1.03-1.24,1.99-2.02,3.2-3.26.53-.54,1.07-1.09,1.6-1.63.6-.61,1.89-.99,2.41-1.64.38-.46-.28-1.87-.02-2.42.3-.65,1.86-.37,2.41-.83.23-.19-.15-1.32-.02-1.61.05-.1.71.07.81,0,.27-.22-.23-1.33-.02-1.61,1.07-1.42,3.37-2.41,4-3.27.54-.73.27-1.79.78-2.43,2.04-2.53,4.52-4.95,6.39-6.52.26-.22-.21-1.32-.02-1.61.24-.37,1.32-.44,1.61-.82.54-.74.24-1.78.78-2.43,2.21-2.64,4.94-4.24,7.2-6.53-.69-2.27,1.12-2.1.77-4.04,2.59.28,1.95-1.43,2.4-2.44.1-.22,1.41-.58,1.61-.82,1.21-1.49,1.92-3.47,3.18-4.87,2.55-2.83,5.6-5.11,8.81-7.35.33-1.54,2.29-1.48,1.57-4.05,2.83.12,2.63-2.75,4.81-3.27.61-3.4,2.94-5.11,6.4-5.71,2.6,1.61,4.55,4.14,6.52,6.39,1,1.15,2.29,2.04,3.26,3.2.52.62.38,1.84.83,2.41,1.82,2.33,4.62,2.94,6.5,4.78.64.51.28,1.79.83,2.41.47.53,1.97.27,2.43.78.5.56.41,1.87.83,2.41.3.39,1.24,1.23,1.63,1.6,2.53,2.41,5.32,3.49,7.33,6.39,1.05,1.52,2.26,3.34,2.48,5.63,1.45.93,2.38,1.69,3.25,2.39.27.22-.21,1.33.02,1.61.25.31,1.3.53,1.62.79.27.22-.21,1.33.02,1.61.55.67,1.93.88,2.44,1.59.47.65.48,1.84.83,2.41.13.21.57.42.81.8.55.85.95,1.7,1.64,2.41.69.71.99,1.6,1.64,2.41.13.16-.13.65,0,.81.21.26,1.41-.28,1.61-.02.55.7.28,1.64.83,2.41.48.67,1.92.92,2.44,1.59.26.33-.16,1.23.02,1.61.1.22,1.42.56,1.62.79.65.77.99,1.64,1.64,2.41,1.23,1.45,2.7,2.46,4.08,4,.26.29-.15,1.25.02,1.61.38.83,2.92,1.32,3.24,1.58.26.21-.25,1.42.02,1.61.58.42,1.92.51,2.43.78.91.48,1.49,1.3,2.44,1.59,1.94.61,3.66.98,5.65-.05,2.27.32-2.05-2.99.78-3.24,2.2,1.02,4.5,1.93,8.09,1.54,2.85-.4,2.8-3.65,6.43-3.29.76-1.51-2.44-2.67-.03-3.23,2.77-2.23,6.06.46,9.68-.09,1.36-1.6,2.44-3.47,4.8-4.08,3.61-1.79,8.16-2.66,12.07-4.15.25-.83,1.07-1.06,1.6-1.63.52-.57.6-1.52,1.6-1.63,1.52-.91,3.8-1.07,5.63-1.67,0-1.6,2.19-1.05,1.58-3.24.48-1.12,3.11-.15,3.21-1.65,1.61-1.89,2.9-4.08,5.6-4.9-.71-3.63,3.78-2.16,2.36-6.48,2.29.65,2.08-1.16,4.03-.85.78-4.87-.27-6.62,1.51-10.51-1.15-.18-1.38-1.32-2.44-1.59l-.05.02Z"/>
  <path class="st0" d="M1250.37,559.53c1.93,1.45,3.48,3.26,4.78,4.96,1.29,1.71,2.33,3.31,3.27,4.32,4.51,4.85,7.5,6.28,10.72,10.02,1.34,1.55,3.35,4.17,5.64,7.29,2.26,3.14,4.86,6.76,7.4,10.3,5.1,7.06,10.07,13.74,12.18,15.42,3.61,2.81,5.88,8.17,8.28,11.1.81.98,2.31,1.43,3.18,2.35,1.33,1.4,2.07,3.93,4.13,5.55,2.28,1.82,1.1,2.34,2.5,4.41.58.85,2.47,1.53,3.16,2.38,4.16,5.16,7.65,9.97,11.77,15.17,5.31,6.84,10.54,13.42,13.62,18.12.34.52.1,1.09.44,1.61.58.88,2.48,1.53,3.14,2.42,3.23,4.48,5.79,8.54,7.92,11.36.38.51,1.17.71,1.55,1.22.64.85.23,2.36.85,3.23,2.55,3.57,6.72,5.6,5.93,8.51l6.15,4.95c1.09,1.75,2.22,3.51,3.38,5.26l1.75,2.62c.38.55.37.57.5.79l.32.53c.87,1.41,1.78,2.79,2.69,4.14,1.82,2.7,3.57,5.3,4.76,7.84,1.03,2.16,2.74,4.54,3.47,5.86.51.93-.04,1.85.38,2.89.62,1.55,2.62,3.22,1.76,5.23,3.15-1.26,1.2,2.41,2.08,3.51.43.54,2.77,1.28,4.1,2.42.09.08-.22.74-.16.86.16.32,1.41.37,1.69.63.1.09-.23.73-.16.86.45.96,8.19,3.26,9.31,3.52.81.19,1.2-.43,1.86-.22.8.26.76-.56,1.01-.54,3.28.29,4.8,1.71,6.1,1.4,2.88-.68,5.78.04,7.46-.84.68-.36,1.41-.62,2.03-1.07,3.04,1.82,3.93-.07,6.98,1.76.56-2.07,2.85-2.04,4.23-2.99.56-.38,1.53-.56,2.03-1.06.33-.33.04-1.34.33-1.72.15-.19,1.62-.04,1.87-.2,2.24-1.44,4.83-2.76,6.26-4.05.8-.73,1.38-1.35,2.2-1.93.6-.42,1.38-.57,2.04-1.06.66-.49.97-1.29,2.03-1.06-.32,1.47.25,2.47,1.23,3.26.25-2.62,2.43-1.9,2.68-4.52,1.36.44,1.69.36,2.04-1.06.3-1.25,2.57-1.89,3.21-2.46.97-.85.79-1.59,1.5-3.13.83-1.82,4.54-2.51,3.85-5.93,1.29-.44,3.32.4,4.61-.04,1.99-3.42,3.34-7.95,6.35-9.62-1.77-2.76.77-5.35.54-8.2-.07-.9-2.93-2.8-1.11-4.18-.81-2.22-4.34-3.01-4.55-5.55.06-2.93,2.99-.94,2.64-4.58-3.45-2.1-4.61-6.21-6.77-9.15-1.21-1.64-2.55-2.61-3.89-4.3-1.1-1.38-1.71-3.99-3.89-4.3-.11-3.52-3.56-7.5-4.93-9.34-.25-.35.52-1.4.27-1.75-.39-.57-2.08-1.46-2.47-1.85-.53-.53-1-1.16-1.43-1.81l-.63-.99-.31-.49-.15-.24-.14-.2-.21-.3c-2.2-3.17-4.3-6.06-6.34-7.81-1.6-1.37-3.77-4.43-5.96-7.6-2.19-3.17-4.35-6.48-5.83-8.41-3.67-4.79-7.91-9.74-11.4-14.29-2.85-3.65-5.21-8.12-6.72-10.4-.59-.89-2.52-1.64-3.21-2.52-1.24-1.57-2.86-4.15-4.17-5.83-4.03-5.16-7.23-9.26-10.03-12.84-3.54-4.53-8.48-12.03-10.57-14.46-2.42-2.77-5.48-3.62-7.04-6.55-2.4-5.22-8.09-9.2-9.6-14.76-5.8-5.47-10.89-11.17-15.55-17.05-2.34-2.93-4.57-5.92-6.79-8.89l-6.61-8.93c-5.19-5.96-12.32-11.14-14.95-18.08-2.27-2.63-4.66-6.34-6.94-9.01-4.09-4.78-8.02-9.26-12.29-13.82-1.64-1.77-3.4-3.77-4.97-5.65-.97-1.16-1.49-2.1-2.37-3.24-2.17-2.79-5.34-6.1-7.67-8.77-1.9-2.14-4.49-5.15-6.54-6.85-.66-.55-1.19-.82-1.88-1.38-2.17-1.78-4.43-4.78-5.74-6.95-1.49-2.48-2.75-4.91-4.21-7.36-1.48-2.43-3.17-4.88-5.52-7.43-2.31-2.53-4.62-5.07-6.93-7.61-1.36-1.49-2.6-2.91-3.96-4.11-.61-.54-1.38-1.08-2.04-1.66-4.07-3.57-8.19-7.1-12.18-11.17-1.85-1.88-3.66-4.14-5.52-5.91-.46-.44-.94-.68-1.36-1.07-.89-.83-1.59-1.6-2.44-2.52-.51-.54-1.02-1.08-1.52-1.62-.15-.18-.28-.38-.31-.63-.07-.51.34-1.13.4-1.51.01-.09-.1-.13-.07-.23.04-.11.3-.27.36-.37.06-.1.1-.21.1-.3,0-.08.01-.13-.04-.17-.16-.14-.31-.22-.88-.33-.65-.14-.18-.27-.28-.43-.04-.06-.17-.13-.28-.2-.04-.03-.13-.07-.11-.1.04-.03.1-.05.19-.08.33-.08.69.01,1.55.07.78.06.71,0,.51-.11-.21-.11-.55-.3-.51-.35.15-.19.76-.21,1.13-.21.4-.01.57,0,.35-.5-.06-.14-.08-.26-.07-.36,0-.05.01-.1.03-.14-.12.08.32-.28.58-.5l.88-.72c2.35-1.91,4.8-3.77,7.21-5.54,4.82-3.53,9.49-6.66,12.92-9.01.88-.61,1.54-2.53,2.42-3.21,4.52-3.44,9.55-6.95,14.2-10.43,2.48-1.86,4.83-2.85,7.3-4.65,3.39-2.46,5.7-7.12,8.52-6.26,3.13-4.57,7.41-6.02,10.53-10.59,9.59-4.99,17.38-14.82,27.18-19.25,5.03-7.54,12.27-9.13,17.42-16.36,3.56-.15,5.68-4.16,8.93-5.13,9.63-9.48,21.11-17.23,32.03-25.67,3.19-2.46,8.92-6.84,9.73-7.86,3.32-4.17,6.01-3.11,8.52-6.25,2.41-3.03,13.18-10.28,15.41-12.03,5.74-4.49,10.66-8.98,16.62-13.63,5.28-4.12,11.74-8.4,17.03-12.51,2.45-1.9,5.53-5.34,8.1-7.38,4.8-3.79,11.47-7.01,14.2-10.43,1.51-1.89,1.55-1.01,2.84-2.09,2.68-2.24,5.33-5.28,8.1-7.38,5.56-4.2,11.56-8.02,17.45-11.39,3.48-6.42,17.41-13.22,20.67-17.32,2.57-3.22,7.54-5.12,9.73-7.86.37-.46.66-.76.91-.97.15-.12.19-.14.23-.16.05-.02.1-.03.14-.03.19-.01.39.04.59-.17,3.89-4.1,7.52-5.57,11.87-8.48,3.29-2.2,6.31-4.66,9.55-6.96.58-1.9-.28-3.28-.33-4.58-.06-1.52.6-2.53.26-3.6-.25-.78-1.71-1.31-2.06-2.08-.79,2.12-2.95-.18-2.34-1.21,1.87-5.11-.44-7.48-2.13-10.26.16-2.88,2.26-2.52,3.17-4.14-1.98-3.04-5.37-5.15-3.88-10.48-1.45-1.1-3.25-1.98-3.24-4.04l1.42-4.36c-1.49-1.52-1.82-3.85-2.67-5.79-.62-1.4-1.8-2.68-1.49-3.82.34-1.24-1.72-1.25-2.05-2.08.94-1.99.95-3.37.54-4.47-2.5-2.47-3.9-5.67-7.63-7.33-.48-1.97-1.31-3.71-1.8-5.68-4.77-1.2-4.63-5.64-9.67-6.67-.86-1.27,1.01-4.32-1.21-4.69-1.65,3.08-6.76.39-10.19.52-.8,1.61-2.52,2.17-3.76,3.16-1.23.99-4.11,3.98-4.92,3.92-1.03-.07-.53.36-1.16.76-1.78,1.14-3.1,2.84-4.04,4.03-.72.91-1.28,1.22-1.73,2.51-3.4.07-5.67,3.49-8.11,5.33-.5.38-1.51.28-2.03.65-.85.6-.88,1.83-1.73,2.51-1.48,1.18-3.35,1.54-4.63,3.04-.69.61-7.83,6.75-13.21,10.94-2.63,2.06-5.54,4.03-8.52,6.26-.47.35-1.14.15-1.63.48-.88.61-1.53,2.52-2.42,3.21-.88.68-2.34.3-3.25.96-.97.71-1.46,2.45-2.42,3.21-4.63,3.64-16.57,12.01-18.25,14.12-2.38,2.99-6.36,4.78-8.52,6.26-.8.55-1.65,2.52-2.42,3.21-1.08.96-4.36,3.15-5.68,4.17-3.94,3.06-7.05,5.18-11.36,8.34-1.89,1.38-3.79,2.78-5.68,4.17-2.12,1.56-5.28,3.07-7.31,4.65-1.46,1.14-2.28,3.56-3.64,4.81-1.58,1.46-4.27,1.8-6.09,3.05-.76.52-1.7,2.54-2.42,3.21-.25.23-1.32.27-1.63.48-.87.6-1.55,2.51-2.42,3.21-4.3,3.44-10.42,6.76-12.98,8.82-2.18,1.76-3.26,3.72-5.26,5.29-7.94,6.23-16.57,12.48-22.71,16.68-.85.58-1.59,2.51-2.42,3.21-1.05.87-3.31,1.63-4.47,2.57-2.21,1.79-3.2,3.69-5.26,5.29-8.43,6.53-16.34,11.31-24.34,17.17-2.08,4.13-5.43,4.83-7.69,8.5-4.75.93-6.07,3.97-8.52,6.25-.54.5-3.71,1.97-4.46,2.57-4.7,3.67-9.14,8.03-13.79,11.55-9.41,7.12-18.98,13.42-28.81,19.73-3,3.26-6.84,4.28-9.31,8.98-5.5,1.41-9.45,7-14.61,9.31-6.39,7.12-13.66,11.88-21.5,15.08-1.99,1.57-3.94,3.03-5.87,4.43-.97.7-1.92,1.39-2.88,2.07l-1.43,1.02-.81.58-1.32.98c-7.04,5.24-14.16,10.54-21.7,16.48-2.68,2.11-6.66,5.1-9.35,7.36-2.94,2.47-3.66,3.39-5.67,5.61-1.99,2.19-3.05,3.43-6.39,5.72-1.44.98-2.26,1.32-3.86,2.46-1.36.97-2.66,2.07-3.96,3.09-3.02,2.38-6.18,4.82-9.09,7.2-3.39,2.78-5.51,4.96-8.54,7.53-3.03,2.58-6.42,5.15-9.87,7.72l-2.6,1.93-1.3.96c-.1.08-.22.16-.32.24l-.14.12s.06.09.09.14l.51.56c1.36,1.49,2.73,2.96,4.13,4.42,7.18,7.48,13.4,14.53,20.45,21.97,4.11,4.35,8.66,8.87,12.85,13.21,2.38,2.47,5.1,5.18,7.3,7.63,2.4,2.68,4.35,5.24,6.96,8.09,4.1,4.48,8.21,8.89,12.38,13.3,2.09,2.2,4.19,4.4,6.3,6.62.95,1,1.91,2,2.87,3.01.55.59,1.1,1.19,1.66,1.78,1.51,1.63,3.14,3.52,4.72,5.08,1.12,1.1,1.53,1.32,2.64,2.16,1.3.98,1.92,1.95,3.06,3.04.55.53.98.75,1.51,1.22,1.94,1.73,3.73,3.95,5.41,5.92,4.44,5.3,7.65,10.62,11.78,15.99,3.25,4.23,6.44,8.22,10.18,12.28,2.22,2.39,4.61,4.51,6.86,6.8,1.99,2.03,3.79,4.2,5.79,6.15,3.2,3.1,6.22,6.85,9.26,10.29,1.77,2.01,2.47,3.08,3.98,5.25.99,1.42,1.36,1.95,2.66,3.06,1.3,1.11,2.59,1.66,3.95,2.93.98.92,2.03,2.23,2.96,3.32,2.56,3,4.76,5.69,6.99,8.77.81,1.12,1.37,2.24,2.17,3.35.74,1.03,1.73,1.99,2.44,2.98.76,1.06.19.42,1.29,1.69Z"/>
  <g>
    <path class="st1" d="M592.67,91.49c-5.98,0-12.04.27-18,.81-61.56,5.57-117.69,42.95-158.58,105.47-47.44-69.97-125.85-114.89-201.27-114.89-16.57,0-33,2.14-48.8,6.37-48.85,13.07-88.67,49.44-109.26,99.78-22.81,55.77-18.89,121.11,10.25,170.5,40.01,67.84,108.61,109.25,174.94,149.29,34.07,20.58,69.31,41.83,99.53,66.2,9,7.25,20.31,16.69,30.01,26.98-12.24,12.06-36.44,52.16-36.68,52.64-7.61,16-18.05,49.83-8.97,75.13,3.88,10.8,10.85,18.62,20.74,23.24,5.07,2.37,10.41,3.58,15.86,3.58,23.43,0,45.13-22.2,59.22-40.82,25.77-34.08,29.62-69.86,11.45-106.38,31.17-28.2,65.09-54.41,97.9-79.78,56.45-43.63,114.82-88.76,161.27-145.47,22.69-27.72,92.85-125.18,43.26-215.99-26.21-48.01-79.63-76.68-142.87-76.68ZM389.75,677.88c-4.72,9.01-9.48,15.51-14.43,19.67,1-13.38,6.1-26.45,9.37-33.63.92-2.02,6.94-11.33,11.27-17.56,1.36,10.6-.69,20.98-6.22,31.53ZM333.35,176.17c14.53,11.97,27.38,25.5,38.18,40.17,1.29,1.75,3.26,5.05,5.56,8.87,13.26,22.09,27.51,43.66,42.94,43.66,7.65,0,14.13-5.38,19.26-16,32.72-67.76,84.93-108.16,147.01-113.76,3.61-.33,7.27-.49,10.88-.49,47.5,0,89.26,27.8,103.94,69.17,19.34,54.54-11.27,119.17-93.57,197.58-35.34,33.67-74.53,63.95-112.42,93.24-29.75,22.97-60.48,46.72-89.25,72.01-25.88-28.68-59.82-52.71-86.75-70.59-15.98-10.61-33.25-20.99-51.54-31.98-89.89-54.03-191.77-115.26-175.71-229.27,9.18-65.19,57.7-107.31,123.62-107.31,4.84,0,9.8.23,14.74.71,36.25,3.45,72.86,19.08,103.11,44Z"/>
    <g>
      <path class="st0" d="M126.51,349.29c-6.01-7.73-10.72-16.53-13.42-21.48-6.17-12.11-8.34-17.96-11.19-27.64-.28-1.01-.61-2.18-.97-3.47-.36-1.3-.6-2.77-.95-4.33-.33-1.57-.68-3.24-1.05-5.02-.25-1.79-.52-3.68-.79-5.64-.14-.98-.28-1.98-.42-2.99-.12-1.02-.16-2.06-.25-3.11-.16-2.1-.32-4.26-.49-6.44-.02-2.19-.04-4.42-.07-6.65,0-1.12-.06-2.24,0-3.36.06-1.12.12-2.24.18-3.36.14-2.23.19-4.46.39-6.64.25-2.18.5-4.33.74-6.43.12-1.05.24-2.08.35-3.1.17-1,.33-1.99.49-2.96.16-.97.32-1.92.47-2.85.19-.92.38-1.82.56-2.7,1.43-7.02,3.08-12.37,3.88-14.93.36-1.1.72-2.21,1.09-3.33.37-1.14.85-2.26,1.29-3.41.84-2.32,1.94-4.58,2.93-6.84,2.17-4.43,4.43-8.63,6.5-11.86,1.3-2.22,2.72-4.4,4.14-6.53,2.31-3.13,5.39-7,8.89-10.78,3.92-4.18,3.58-3.62,7.31-6.98.75-.72,1.82-1.59,2.86-2.51.53-.46,1.07-.93,1.56-1.36.51-.42,1.02-.8,1.46-1.13,5.32-4.06,10.74-7.42,16.4-10.32,5.66-2.89,11.58-5.32,18.03-7.32,8.41-2.63,17-4.21,24.91-5,.99-.09,1.96-.22,2.93-.29.97-.06,1.92-.11,2.86-.17.94-.05,1.86-.11,2.77-.16.91-.02,1.81-.03,2.68-.05,3.51-.11,6.75-.02,9.62.12,1.28.07,1.89.18,3.17.27,1.02.06,2.41.15,3.88.24,1.41.11,2.83.25,3.95.38,11.31,1.33,20.94,3.72,27.94,5.81,1.28.33,2.54.71,3.8,1.1,2.1.68,3.94,1.42,6.02,2.22,8.54,3.06,16.46,6.34,19.76,8.43,1.19.57,2.4,1.11,3.58,1.7l3.52,1.81c2.37,1.17,4.65,2.52,6.96,3.8,1.86,1.05,3.63,2.29,5.46,3.43,1.84,1.13,3.6,2.4,5.39,3.63.89.62,1.8,1.22,2.68,1.87l2.63,1.95.86.64.03.03.06.06c.18.15.35.29.52.44.35.28.69.55.95.83.22.24.54.5.68.64.1.1.06.25.16.37.14.18.47.33.43.63.37-.29.25.28.41.39.08.05.42.06.63.16.01,0,0,.11.01.12.03.04.2,0,.25.02.02,0,0,.11.01.12.1.11,1.22.1,1.38.09.12,0,.14-.11.24-.1.12,0,.08-.1.12-.11.45-.09.71.03.87-.06.36-.2.78-.22.97-.41.08-.07.17-.14.23-.22.48.12.53-.16,1.01-.04,0-.3.31-.38.46-.56.06-.07.19-.14.23-.22.03-.06-.05-.18-.02-.24.01-.03.22-.07.24-.1.25-.28.55-.56.69-.79.08-.13.13-.23.22-.34.06-.08.16-.13.23-.22.07-.09.08-.21.23-.22.01.21.13.32.29.39-.07-.36.26-.35.19-.71.2,0,.24-.02.23-.22,0-.18.27-.35.34-.45.1-.15.04-.24.08-.48.04-.28.52-.51.29-.94.16-.11.47-.08.62-.18.13-.54.14-1.2.48-1.54-.35-.3-.11-.75-.26-1.12-.05-.12-.51-.26-.32-.52-.2-.27-.71-.24-.84-.57-.11-.4.37-.24.17-.72-.55-.15-.87-.67-1.28-.98-.23-.18-.45-.26-.7-.44-.2-.15-.39-.48-.7-.43-.15-.48-.81-.85-1.06-1.05-.05-.04.01-.21-.04-.25-.08-.06-.34-.11-.41-.15-.09-.05-.18-.11-.27-.18l-.13-.11-.06-.05-.03-.03-.92-.68c-3.28-2.5-6.6-4.69-9.61-6.74-3.09-1.92-5.85-3.75-8.32-5.08-3.79-2.22-10.82-6.1-18.27-9.61-7.44-3.55-15.37-6.49-20.3-8.19-3.08-.98-6.2-2.04-9.42-2.88-1.61-.43-3.2-.93-4.82-1.3-1.62-.38-3.25-.77-4.87-1.15-6.5-1.4-12.99-2.56-19.13-3.19-4.93-.63-10.14-.96-14.81-1.11-2.34-.08-4.55-.07-6.55-.03-2,.03-3.77.03-5.25.14-1.15.06-2.67.19-4.21.32-1.6.19-3.17.37-4.3.5-2.16.18-4.86.62-7.59.99-1.37.2-2.73.49-4.04.72-1.31.25-2.57.46-3.69.75-6.96,1.5-13.08,3.46-18.56,5.54-2.76,1-5.31,2.16-7.77,3.23-1.22.56-2.39,1.16-3.55,1.72-1.16.56-2.29,1.12-3.37,1.74-5.56,2.93-12.38,7.26-18.13,11.85-1.42,1.17-2.82,2.3-4.12,3.41-1.27,1.15-2.48,2.25-3.6,3.26-1.1,1.03-2.07,2.04-2.95,2.9-.87.87-1.63,1.63-2.21,2.29-1.33,1.51-2.62,2.85-3.72,4.25-1.1,1.39-2.17,2.68-3.16,4-.99,1.36-1.95,2.68-2.9,3.98-.94,1.37-1.87,2.73-2.9,4.23-3.41,5.04-6.66,10.9-9.4,16.89-2.79,5.97-4.94,12.11-6.77,17.54-2.39,8.23-4.06,16.51-5.03,24.71-.22,2.05-.44,4.09-.66,6.12-.1,1.02-.24,2.03-.3,3.05l-.15,3.06c-.1,2.04-.19,4.07-.29,6.1-.08,1.01-.03,2.03-.02,3.04l.04,3.04c.05,2.02.01,4.05.13,6.06.16,2.01.31,4.02.46,6.03l.23,3.01c.1,1,.27,1.99.4,2.99.28,1.99.57,3.98.85,5.96.12,1,.34,1.98.54,2.96l.61,2.94.61,2.94c.2.98.39,1.96.68,2.92l1.6,5.79c.28.96.5,1.94.83,2.88l.98,2.83c.72,2.01,1.4,4.06,2.18,6.08.85,1.99,1.7,4,2.56,6.01.81,2.03,1.82,3.97,2.79,5.92.49.98.97,1.95,1.45,2.92.48.97.95,1.95,1.5,2.88,2.13,3.75,4.15,7.49,6.4,10.92,1.11,1.73,2.11,3.48,3.23,5.1,1.07,1.58,2.15,3.17,3.24,4.78.54.76,1.08,1.55,1.67,2.34.6.78,1.21,1.57,1.84,2.38,1.24,1.61,2.53,3.28,3.81,4.95,1.35,1.61,2.7,3.22,4.02,4.78.66.78,1.31,1.55,1.95,2.3.65.74,1.31,1.44,1.94,2.13,8.99,9.92,18.21,18.59,28.27,27.11,1.96,1.62,3.99,3.37,6.08,5.06,2.1,1.67,4.2,3.35,6.22,4.96,2.5,1.97,4.25,3.29,6.65,5.15,2.93,2.28,6.41,4.72,9.84,7.25,3.48,2.44,6.96,4.9,10.02,6.99,2.48,1.67,5.42,3.71,8.36,5.64,2.94,1.92,5.82,3.83,8.15,5.29,1.48.92,2.51,1.56,4.05,2.52,4.96,3.13,11.4,7.2,15.86,10.03,9.99,6.35,18.58,11.79,30.86,19.16,6.07,3.66,12.15,7.33,18.21,10.99,3.55,2.17,6.83,4.17,10.04,6.13,1.42.86,3.06,1.86,4.58,2.78,9.45,5.79,18.71,11.77,28.43,18.37,4.47,3.06,9.33,6.45,13.61,9.51,1.05.74,1.93,1.36,2.87,2.01,2.01,1.47,3.73,2.73,5.81,4.25,6.3,4.67,12.33,9.37,18.21,14.25,5.94,4.92,10.9,9.36,16.39,14.49,1.27,1.2,2.67,2.43,3.9,3.68,1.42,1.42,2.62,2.61,3.99,3.97,1.42,1.46,3.09,3.19,4.8,4.94,3.19,3.43,6.42,6.91,9.25,9.97.16.16.31.34.46.49l.51-.45c.34-.3.68-.59,1.02-.89.67-.59,1.34-1.17,1.99-1.74,1.31-1.14,2.58-2.26,3.84-3.35,1.81-1.57,3.55-3.08,5.28-4.59,2.49-2.14,4.96-4.26,7.78-6.69,6.28-5.34,9.32-7.79,15.62-12.93,4.68-3.81,9.94-8.09,14.59-11.76,4.37-3.45,2.28-1.74,4.41-3.33,3.93-2.94,17.03-13.44,22.34-17.55,18.17-14.11,36.62-27.98,53.82-41.76,9.25-7.4,19.7-15.81,29.46-23.88,9.76-8.06,18.83-15.79,25.45-21.61,1.71-1.5,4.29-4.04,6.06-5.62,8.98-8.08,18.48-17.02,27.22-25.74,2.35-2.31,4.43-4.42,6.51-6.52,1.04-1.05,2.08-2.1,3.14-3.17,1.05-1.1,2.12-2.23,3.24-3.41,6.18-6.45,12.58-14.22,15.18-16.71,7.19-8.73,13.1-15.7,19.68-24.98,6.88-9.11,13.71-19.41,19.72-30.2,5.95-10.83,11.14-22.11,14.88-33.03,2.77-9.11,4.66-17.43,5.73-25.89,1.04-8.46,1.29-17.09.02-26.64-.16-1.62-.39-3.42-.65-5.31-.33-1.88-.75-3.85-1.16-5.83-.52-1.96-1.04-3.94-1.55-5.86-.6-1.89-1.18-3.72-1.69-5.43l-2.16-5.29-1.09-2.65c-.4-.86-.86-1.71-1.28-2.56l-2.61-5.11c-.96-1.66-2-3.27-3-4.91l-1.52-2.45c-.52-.81-1.12-1.56-1.68-2.34l-3.42-4.65c-1.22-1.49-2.5-2.93-3.76-4.39l-1.9-2.19c-.65-.71-1.36-1.37-2.04-2.05l-4.12-4.07c-1.44-1.28-2.94-2.51-4.41-3.76l-2.22-1.87c-.76-.6-1.56-1.14-2.33-1.72l-4.7-3.4c-1.62-1.05-3.28-2.04-4.93-3.06l-2.47-1.52c-.83-.49-1.71-.9-2.56-1.35l-5.15-2.66c-1.75-.82-3.54-1.53-5.31-2.3-1.04-.44-2.18-.92-3.39-1.43-1.24-.42-2.55-.87-3.88-1.33-1.34-.46-2.7-.92-4.06-1.38-1.37-.42-2.76-.74-4.09-1.1-5.3-1.54-10.01-2.18-11.4-2.46-2.85-.56-5.23-.69-7.28-.95-1.02-.12-1.97-.23-2.88-.34-.9-.11-1.76-.23-2.59-.25-1.69-.08-3.3-.16-4.97-.25-1.71-.07-3.56-.17-5.74-.08-2.09.07-5.49.19-9.47.57-1.95.22-4.06.42-6.22.69-2.16.33-4.4.59-6.6.98-8.83,1.47-17.24,3.74-20.2,4.7-7.69,2.33-14.86,5.11-21.87,8.39-7.01,3.29-13.86,7.07-20.84,11.59-6.18,4-12.56,8.69-18.6,13.78-6.05,5.08-11.75,10.55-16.76,15.88-1.13,1.25-2.39,2.65-3.73,4.13-1.32,1.49-2.65,3.11-4.02,4.72-2.68,3.26-5.3,6.62-7.43,9.48-8.06,10.59-16.38,23.92-20.54,32.14-2.3,4.54-1.93,3.5-3.53,6.75-.81,1.65-1.66,3.36-2.52,5.1-.73,1.53-1.57,2.97-2.44,4.32-1.75,2.7-3.81,4.79-5.71,5.87-1.9,1.08-3.76,1.39-6,1.02-2.19-.37-4.63-1.57-7.03-3.29-4.83-3.52-9.26-8.8-13.2-14.18-2.09-2.62-4.68-6.27-7.42-10.48-2.75-4.22-5.61-8.95-8.45-13.74-.73-1.21-1.46-2.42-2.18-3.61-.75-1.22-1.48-2.41-2.41-3.75l-.38-.53-.3-.41-.6-.81c-.4-.54-.79-1.07-1.18-1.59-.8-1.03-1.57-2.04-2.31-3.01-3.01-3.85-5.71-7-7.58-9.06-2.92-3.24-6.27-6.88-9.61-10.29-3.34-3.42-6.69-6.61-9.47-9.06-.96-.84-1.63-1.43-2.15-1.88-.11-.1-.21-.19-.31-.27h0s0-.03,0-.03c0-.03,0-.06-.04-.08-.68-.45-.99-.91-1.53-1.45-.4-.4-.84-.76-1.25-1.16-.28-.03-.45.12-.63.16-.21.05-.37-.02-.51.06-.1.06-.13.27-.23.34.32.05.06.41-.1.36-.77-.12-1.03.26-1.36.57-.4.06-.42-.24-.67-.32-.36.36-.55.88-1.33.83-.11.23-.18.5-.46.56l-.64-.07c-.16.25-.47.36-.71.53-.17.13-.31.32-.48.32-.18,0-.12.27-.22.34-.3-.07-.49-.03-.63.06-.26.42-.66.7-.78,1.26-.25.12-.47.29-.72.41-.03.69-.63.8-.63,1.52-.15.15-.61,0-.6.31.46.13.24.91.35,1.37.24.06.36.28.53.41.17.14.65.44.66.55.02.14.06.06.13.13.2.2.47.33.65.43.14.07.2.14.38.16.09.46.61.67.92.95.06.06.08.2.14.26.1.1.27.07.38.16.2.17.29.41.53.54l.22.18c-1.11-.99,3.11,2.71,5.49,4.96,5.35,5,10.46,10.28,15.39,15.93,2.25,2.59,4.49,5.3,6.72,8.14,1.1,1.43,2.22,2.87,3.32,4.36l.81,1.1c.2.28.44.63.67.98.47.72.97,1.51,1.46,2.31.63,1.02.99,1.77,1.63,2.83,1.14,1.91,3.13,4.92,4.38,6.97,1.24,2.03,2.13,3.77,3.41,5.82,1.37,2.18,3.22,4.74,4.72,6.93,1.79,2.64,4.31,6.23,7.4,10.11,3.11,3.86,6.81,8.02,11.2,11.55,2.19,1.76,4.56,3.36,7.08,4.61,2.51,1.25,5.19,2.11,7.73,2.49,2.54.39,4.89.33,6.79,0,.95-.13,1.78-.37,2.49-.54.69-.23,1.26-.43,1.72-.58,2.52-.98,4.83-2.44,6.8-4.09,1.98-1.65,3.61-3.49,5-5.3,1.39-1.82,2.55-3.62,3.5-5.31.97-1.67,1.75-3.33,2.34-4.45.91-1.79,2.49-5.35,3.51-7.22,1.35-2.65,5.31-9.73,7.14-12.65,1.3-2.22,2.6-4.25,3.86-6.22,1.23-1.99,2.55-3.85,3.82-5.75,1.26-1.92,2.67-3.75,4.07-5.74,1.43-1.96,2.99-3.96,4.66-6.13,3-3.74,6.08-7.47,9.33-11,1.79-2.02,3.97-4.21,6.13-6.41,2.22-2.13,4.39-4.28,6.36-6.02,1.39-1.28,2.86-2.69,4.39-4.03.76-.69,1.53-1.37,2.25-2.03.76-.65,1.51-1.26,2.24-1.85.86-.69,1.72-1.39,2.63-2.07.9-.64,1.83-1.31,2.77-2,1.84-1.36,3.8-2.57,5.64-3.87.76-.55,2.01-1.35,3.24-2.2,1.23-.85,2.48-1.69,3.34-2.19.53-.3,2.21-1.24,2.8-1.57.91-.56,2.15-1.24,3.37-1.97,1.23-.73,2.47-1.45,3.49-1.95,4.95-2.62,10.74-5.11,16.09-7.09,2.66-1.03,5.26-1.83,7.56-2.6,2.33-.68,4.36-1.28,5.95-1.75,2.76-.71,5.12-1.39,7.47-1.9,1.17-.26,2.32-.56,3.51-.79,1.2-.22,2.41-.45,3.67-.69,1.26-.25,2.53-.4,3.81-.59,1.28-.17,2.55-.4,3.84-.52,2.57-.27,5.16-.59,7.67-.73,2.53-.15,5.07-.23,7.57-.21,2.5.1,4.97.19,7.41.29,9.72.69,18.6,2.69,25.7,4.84,1.93.7,5.36,1.63,7.39,2.42,1.22.53,2.88,1.26,4.59,2.01.83.39,1.7.71,2.48,1.13.79.41,1.53.8,2.18,1.14,1.26.64,2.42,1.23,3.55,1.8.28.14.55.28.83.41.26.16.52.31.78.46.51.31,1.02.61,1.52.91,1.01.6,2,1.19,3.02,1.8.51.31,1.04.6,1.55.95.5.36,1.01.73,1.54,1.11,8.73,6.09,15.88,13.07,21.75,20.73,5.85,7.67,10.47,16.04,13.74,25.27.69,1.95,1.38,3.77,1.9,5.56.25.91.49,1.78.72,2.65.24.87.48,1.73.63,2.61.75,3.48,1.37,6.94,1.83,10.93.07,1.12.13,2.14.19,3.08.02,1.02.04,1.97.05,2.87.01.92.08,1.82.05,2.69-.01.87-.03,1.72-.04,2.56-.02.84,0,1.66-.04,2.48-.05.81-.09,1.62-.14,2.43l-.14,2.42c-.09.82-.18,1.63-.27,2.45-.1,1.46-1.27,8.18-1.77,10.06-1.19,5.87-2.95,11.77-4.99,17.55-.99,2.9-2.16,5.74-3.31,8.55-.58,1.41-1.24,2.78-1.84,4.16-.61,1.38-1.23,2.74-1.91,4.07-5.31,10.85-11.51,21.11-18.36,30.91-6.83,9.81-14.24,19.22-22.09,28.39-5.81,7.01-11.02,12.54-17.74,20.1-7.64,7.67-17.14,17.56-25.6,25.32-14.14,13.73-27.89,25.56-41.18,36.28-16.33,13.64-30.42,24.64-47.25,37.78-3.01,2.34-7.33,5.69-10.45,8.12-3.41,2.66-4.5,3.56-7.3,5.81-2.77,2.23-4.35,3.51-7.85,6.16-1.48,1.11-2.19,1.65-3.86,2.9-1.45,1.12-3,2.31-4.46,3.45-3.42,2.66-6.94,5.39-10.34,8.03-3.9,3.09-6.93,5.49-10.57,8.38-7.32,5.8-14.99,11.79-22.15,17.58-9.2,7.43-17.75,14.44-26.58,21.99-1.33,1.15-2.69,2.32-4.06,3.49l-.13.11s-.09-.08-.13-.11l-.27-.29-.27-.29c-.42-.43-.84-.86-1.26-1.29-1.4-1.42-2.87-2.91-4.33-4.4-1.49-1.45-2.97-2.89-4.36-4.24-3.06-2.91-5.83-5.58-9.18-8.53-5.23-4.69-10.53-9.12-15.93-13.45-5.39-4.35-10.92-8.54-16.62-12.75-3.88-2.86-8.26-6.03-12.21-8.76-2.79-1.95-3.58-2.47-6.04-4.11-2.93-1.98-4.89-3.31-7.72-5.22-1.36-.89-2.21-1.44-3.46-2.26-4.66-3.08-9.81-6.46-14.53-9.47-12.57-8.02-23.74-14.92-36.12-22.47-9.77-5.95-19.1-11.63-29.17-17.76-5.94-3.64-11.72-7.18-17.51-10.84-2.55-1.64-5.09-3.26-7.61-4.88-2.5-1.64-4.99-3.27-7.48-4.9-7.88-5.23-16.23-11.07-24.05-16.85-2.26-1.72-3.91-2.98-5.57-4.24-.82-.63-1.64-1.26-2.52-1.95-.87-.7-1.81-1.46-2.88-2.33-2.81-2.29-3.92-3.11-6.65-5.38-2.74-2.28-4.88-3.86-7.78-6.45-2.11-1.86-4.78-4.17-6.93-6.27-1.5-1.42-2.96-2.8-4.39-4.15-1.38-1.4-2.74-2.77-4.09-4.13-2.75-2.69-5.22-5.56-7.91-8.47-1.91-2.14-3.46-4.13-5.31-6.3-.42-.51-.86-1.02-1.29-1.54-.41-.53-.83-1.07-1.25-1.61-.83-1.07-1.65-2.12-2.42-3.12-.82-1.06-.96-1.25-1.16-1.51-.2-.26-.48-.58-1.46-2.01Z"/>
      <path class="st0" d="M389.25,647.28c.2.46.1.96.15,1.24.13.66.31.95.37,1.45,0,.04,0,.07,0,.12h0c.04.48-.05,1.38-.08,2.21-.08.84-.13,1.61-.06,1.87.12.46-.13,1.01-.14,1.39,0,.13.11.27.11.39,0,.2-.16.43-.1.69.07.3-.1.25-.15.49-.02.1.12.29.1.4-.09.67-.17,1.26-.29,1.92-.14.87-.27,1.71-.46,2.26-.02.06-.1.07-.12.14-.03.1.08.3.06.41-.13.55-.33,1-.41,1.36-.02.06.04.14.02.21-.03.11-.22.16-.25.26-.13.43.02.92-.35,1.01l.05.84c-.19.44-.33.77-.46,1.06-.09.21-.16.39-.24.57-.15.38-.32.74-.5,1.04-.16.26-.29.6-.38.77-.07.12-.22.11-.31.23-.13.17-.17.5-.47.53.38.27-.19.29-.24.45-.03.08.07.39.03.61,0,.01-.1.02-.11.03-.03.04.06.18.05.23,0,.02-.1.02-.11.03-.08.11.22,1.14.27,1.29.04.11.14.11.16.2.03.11.12.05.14.09.21.4.14.67.26.8.28.3.39.68.61.83.09.06.17.13.27.18-.01.48.28.47.26.95.29-.06.44.22.65.33.08.04.17.15.27.18.06.02.17-.08.23-.07.03,0,.11.19.15.22.33.18.66.42.91.51.14.05.26.08.38.14.09.05.16.13.27.18.1.05.22.04.27.18-.2.06-.29.19-.32.37.34-.14.39.18.73.04.03.2.07.24.26.18.17-.05.4.19.51.24.17.06.25,0,.49-.03.28-.02.61.4.99.07.14.13.17.45.3.58.56.01,1.21-.14,1.62.12.24-.42.73-.29,1.07-.53.11-.07.16-.58.45-.46.22-.28.08-.78.38-1.01.37-.22.32.31.75-.03.04-.6.45-1.08.67-1.59.12-.29.14-.53.25-.84.1-.25.36-.55.24-.85.42-.31.63-1.09.76-1.42.02-.06.21-.06.23-.12.04-.1.01-.39.03-.47.05-.24.14-.42.25-.7.17-.46.32-.88.34-1.22.02-.54.58-1.81.72-2.41.18-.75.35-1.55.49-2.27.12-.58.37-1.17.47-1.51.04-.13-.06-.38-.04-.52.05-.21.15-.68.19-.89.15-.82.25-1.48.32-2.06.11-.73.34-1.85.35-2.27.02-.47-.21-.82-.08-1.23.23-.7,0-1.57.36-2.23-.23-1.8-.16-3.47-.16-5.14h0c0-.22,0-.44,0-.66-.07-1.01-.53-2.05-.26-2.99v-.08s-.01-.04-.01-.04h0s0-.02,0-.02h0s-11.79-2.89-11.79-2.89h0s0,0,0,0h0s-.01.02-.01.02c-.03.04-.06.08-.1.13-.06.08-.14.17-.22.26-.15.18-.29.35-.41.52-.41.6-.79,1.18-1.17,1.79-.15.24-.32.49-.48.72-.1.14-.2.22-.3.36-.25.32-.52.78-.74,1.11-.18.27-.44.65-.57.93-.02.07-.06.18-.09.26-.13.3-.4.63-.61.84-.48.46-.99.81-1.42,1.48-.22.33-.43.66-.65.99-.13.2-.25.37-.34.56-.03.07-.09.21-.12.28-.27.57-.53,1.13-.87,1.7-.16.26-.36.53-.5.79-.04.07-.04.13-.07.19-.07.13-.13.23-.21.35-.24.38-.46.75-.73,1.11-.27.36-.56.63-.83,1-.06.08-.11.18-.18.27-.08.1-.16.16-.24.25-.16.2-.35.5-.49.74-.12.2-.24.43-.34.63-.05.1-.1.2-.16.33-.06.13-.13.29-.21.48-.18.43-.2.49-.3.67-.08.16-.17.31-.26.52-.15.32-.28.69-.43.99-.15.29-.12.13-.26.24-.25.2-.46,1.17-.6,1.53-.5,1.23-1.19,2.38-1.51,3.62-.34,1.32-1.08,2.88-1.49,3.81-.05.12.03.37-.02.5-.23.65-.53,1.34-.76,2.01-.13.36-.31.61-.44.97-.18.48-.05,1.12-.43,1.22.04.69-.32,1.13-.28,1.81-.62,1.18-.63,2.73-1.28,3.89.12,1.12-.5,1.83-.38,2.93-.36.29-.23.84-.47,1.19-.13,1.68-.56,3.35-.83,5.06-.07.5-.2,1.4-.18,1.57.09.67-.29.81-.21,1.32.04.24-.01.77-.08,1.28-.03.23-.07.5-.1.72-.02.11-.03.2-.04.28,0,.04-.01.08-.01.11v.02s0,0,0,0h0s11.66,5.98,11.66,5.98h0s0,0,0,0h0s0,0,0,0l.03-.03c.78-.66,1.41-1.32,2.16-2.03.65-.63,1.45-1.32,2.05-1.97.29-.3.59-.83.88-1.15.53-.61,1.31-1.19,1.54-1.71.13-.29.17-.17.3-.35.27-.36.51-.83.78-1.18.56-.7,1.16-1.37,1.77-1.99.16-.93,1.6-2.25,1.8-2.89.16-.49.68-.91.81-1.33.1-.3.13-.15.18-.25.34-.78.76-1.19,1.21-1.83.33-.49.61-1,.94-1.5-.02-.29-.21-.42-.28-.6-.09-.2-.05-.37-.15-.5-.07-.09-.29-.07-.38-.15,0,.33-.4.15-.37-.02-.02-.79-.45-.97-.82-1.23-.13-.39.16-.46.2-.73-.42-.28-.98-.36-1.08-1.14-.25-.06-.53-.07-.64-.34l-.06-.65c-.28-.11-.45-.39-.67-.59-.16-.14-.38-.24-.41-.41-.03-.18-.29-.06-.38-.15,0-.31-.07-.48-.18-.6-.46-.17-.82-.5-1.39-.5-.17-.22-.38-.4-.55-.62-.68.11-.91-.46-1.61-.32-.18-.11-.12-.59-.43-.52-.03.47-.83.4-1.25.6,0,.24-.19.4-.29.59-.1.18-.29.7-.4.73-.13.04-.05.07-.1.15-.16.23-.23.51-.29.7-.04.15-.1.21-.08.4-.43.17-.53.71-.74,1.05-.04.07-.18.1-.23.17-.08.11-.02.27-.09.39-.13.22-.35.34-.43.59-.1.17-.56,1.03-.96,1.65-.2.3-.43.59-.66.92-.04.05-.13.04-.17.09-.07.09-.05.32-.11.42-.07.1-.26.08-.33.18-.08.1-.04.31-.11.42-.35.52-1.34,1.68-1.44,1.94-.13.39-.52.65-.71.84-.07.07-.08.31-.14.4-.08.13-.37.42-.48.54-.33.39-.6.67-.98,1.05l-.49.51c-.19.18-.5.36-.68.54-.13.14-.13.42-.25.56-.13.17-.43.19-.6.33-.07.06-.11.29-.17.37-.02.02-.14.02-.17.04-.08.06-.1.29-.18.36-.19.19-.44.35-.67.5-.12.07-.23.15-.32.2-.02.02-.05.03-.07.05l-.03.02h-.02s0,.01,0,.01h0s0,0,0,0c4.34,2.22-9.71-4.98,9.73,4.99h0s0,0,0,0h0c0-.08.01-.12.02-.16.02-.29-.08-.52-.05-.79.09-1.06.29-2.17.46-2.94.02-.11-.1-.31-.09-.43.01-.14.16-.36.18-.52.04-.3-.05-.52,0-.8.18-1.12.53-2.06.78-3.09-.19-.5.1-.77,0-1.24.4-.39.26-.74.3-1.1,0-.08.2-.41.23-.51.16-.62.23-1.3.4-1.91.37-1.23.82-2.39,1.34-3.55.04-.49.36-.8.24-1.39.48-.44.43-1.21.81-1.71.11-1.05.52-1.91,1.14-2.63.37-1.04.84-1.86,1.24-2.89.07-.18.19-.44.26-.64.07-.21.06-.3.06-.5,0-.2,0-.31.13-.51.05-.08.1-.11.15-.21.05-.08.08-.18.12-.27.09-.21.18-.42.26-.63.09-.24.12-.45.19-.68.16-.46.42-.89.63-1.32.13-.28.27-.54.4-.8.19-.38.13-.18.26-.42.16-.28.3-.53.44-.79.09-.16.19-.35.3-.51.12-.17.26-.31.39-.49.41-.59.78-1.18,1.17-1.81.13-.21.3-.45.42-.67.09-.16.1-.21.15-.36.06-.18.16-.27.24-.43.04-.08.05-.13.09-.21.13-.27.33-.53.5-.77.47-.64.98-1.14,1.48-1.75.39-.48.75-.94,1.09-1.48.2-.32.36-.65.54-.97.16-.28.36-.55.51-.83.25-.45.58-.9.87-1.34.17-.26.27-.36.48-.59.13-.15.18-.21.26-.39.08-.18.09-.35.19-.54.07-.14.19-.29.28-.43.26-.37.49-.7.77-1.03.07-.08.24-.25.32-.33.09-.11.17-.25.26-.35.04-.04.06-.06.07-.08,0-.01.01-.02.02-.03h0s0-.01,0-.01h0s0,0,0,0h0s0,0,0,0l-12.3-3.01v.02s0,.03,0,.05Z"/>
      <path class="st0" d="M577.78,501.72c10.44-8.53,21.25-17.15,27.27-22.26,3.64-3.03,6.74-5.72,9.54-8.15,2.79-2.43,5.3-4.58,7.64-6.71,2.36-2.11,4.6-4.12,6.9-6.18,2.3-2.1,4.66-4.26,7.27-6.64,8.7-7.94,27.8-25.72,44.61-44.37,2.09-2.34,4.17-4.67,6.22-6.96,2.06-2.28,3.97-4.64,5.89-6.88,1.9-2.27,3.78-4.41,5.54-6.61,1.77-2.18,3.43-4.29,4.97-6.32,6.2-8.09,10.64-14.72,12.7-17.95,3.51-5.45,7.41-11.63,10.93-17.78,3.54-6.13,6.79-12.16,9.18-17.16,1.66-3.33,3.08-6.81,4.57-10.18,1.11-2.58,2.36-5.52,3.67-8.69,1.22-3.2,2.61-6.59,3.74-10.17.67-2.01,1.14-3.41,1.52-4.54.35-1.11.62-1.96.89-2.82.27-.82.53-1.63.86-2.63.33-1.02.74-2.27,1.19-4.05.39-1.47.86-3.42,1.34-5.4.46-1.98.82-4.01,1.18-5.58,2.02-9.57,3.34-18.79,3.86-28.1.46-9.31.22-18.7-.98-28.53-1.63-12.83-5.03-25.22-9.34-35.97-1.14-2.66-2.2-5.29-3.34-7.77-1.23-2.44-2.42-4.81-3.57-7.09-.54-1.15-1.2-2.22-1.83-3.28-.63-1.06-1.24-2.09-1.84-3.1-1.22-2-2.26-3.98-3.52-5.66-.97-1.44-1.63-2.41-2.59-3.84-.45-.63-.97-1.36-1.54-2.16-.28-.38-.57-.79-.87-1.2-.32-.38-.66-.78-.99-1.17-1.33-1.57-2.67-3.14-3.71-4.41-10.6-12.67-21.93-21.62-30.67-27.43-.77-.5-1.56-1.03-2.38-1.57-.8-.51-1.57-1.05-2.41-1.51-2.74-1.59-5.11-3.17-7.89-4.79-2.88-1.53-5.79-2.88-8.55-4.24-.69-.33-1.37-.68-2.05-.98-.69-.28-1.37-.56-2.05-.83-1.34-.55-2.65-1.08-3.89-1.58-1.25-.51-2.44-1-3.56-1.46-1.12-.47-2.22-.79-3.22-1.16-2.01-.71-3.7-1.33-4.98-1.86l-2.69-.88c-.9-.27-1.82-.48-2.73-.73l-5.47-1.42-2.74-.71c-.92-.22-1.84-.37-2.77-.56l-5.54-1.08c-2.96-.7-5.99-1.1-9.03-1.55-3.03-.44-6.07-.97-9.15-1.17-3.07-.26-6.15-.58-9.24-.78l-1.52-.05h-.05s-.09-.02-.09-.02c-.24-.02-.49-.04-.72-.06-.48-.03-.94-.06-1.34-.14-.34-.07-.78-.08-1-.11-.16-.02-.21-.16-.37-.2-.24-.06-.61.02-.77-.25-.13.46-.39-.07-.6-.07-.1,0-.4.2-.65.25-.02,0-.07-.09-.09-.09-.05,0-.17.13-.22.14-.02,0-.07-.09-.09-.09-.16-.03-1.1.65-1.22.75-.09.08-.05.17-.13.23-.1.07,0,.13-.02.16-.31.34-.61.4-.68.57-.16.38-.49.65-.53.91-.01.11-.04.21-.04.32-.47.19-.32.45-.78.64.2.24,0,.49,0,.73,0,.09-.06.22-.04.32.01.07.15.12.17.18.01.03-.13.18-.13.23-.01.37-.07.77-.04,1.04.02.15.05.27.05.41,0,.1-.04.2-.04.32,0,.12.07.22-.04.32-.14-.16-.3-.18-.47-.13.28.25.02.43.3.68-.16.12-.18.16-.04.32.12.14.01.45.03.57.02.18.12.22.24.43.14.25-.07.72.36.93-.05.18-.31.34-.36.52.23.51.62,1.04.57,1.52.44.03.53.53.86.75.1.07.53-.1.54.22.3.09.67-.24.96-.05.31.25-.13.41.28.68.5-.21,1.03.01,1.52.02.27,0,.48-.06.77-.07.24,0,.56.15.77-.07.38.29,1.08.23,1.39.24.06,0,.1.18.16.18.09,0,.33-.11.4-.11.1-.01.2-.01.31,0h.16s.08.02.08.02h.04c.48.02.96.03,1.43.05,10.26.72,19.69,1.9,26.51,3.32,2.67.55,6.49,1.18,10.76,2.46,2.14.61,4.46,1.16,6.79,1.91,2.32.8,4.72,1.62,7.13,2.45,9.54,3.58,19,8.07,24.44,11.47,1.71,1.02,3.49,1.96,5.18,3.07,1.67,1.13,3.36,2.27,5.05,3.41.84.57,1.7,1.13,2.54,1.72l2.41,1.89c1.61,1.26,3.23,2.52,4.83,3.77,1.55,1.32,3.03,2.72,4.53,4.06,1.49,1.36,3.04,2.65,4.36,4.13,2.72,2.89,5.52,5.61,7.81,8.6,7.87,9.31,14.4,20.72,17.35,27.28.3.63.72,1.33,1.06,2.14.35.79.73,1.64,1.12,2.51.78,1.76,1.55,3.51,2.13,4.81.89,2.47,1.98,5.6,3.04,8.77.44,1.61.89,3.24,1.32,4.79.42,1.56.89,3.03,1.13,4.41.45,2.11.88,4.16,1.3,6.16.38,2.01.61,4,.91,5.92.14.96.28,1.91.42,2.85.08.95.16,1.88.24,2.81.16,1.85.31,3.65.47,5.42.27,7.08.29,13.53-.24,19.53-.21,3.8-.8,8.11-1.41,12.57-.39,2.22-.79,4.48-1.19,6.74-.44,2.25-.98,4.48-1.45,6.66-.12.55-.24,1.09-.36,1.63-.14.53-.28,1.06-.42,1.59-.28,1.05-.55,2.08-.82,3.09-.27,1.01-.53,1.99-.78,2.95-.29.95-.57,1.86-.84,2.74-.54,1.76-1.04,3.38-1.48,4.82-.49,1.42-.91,2.66-1.26,3.68-.39,1.16-.77,2.28-1.14,3.37-.39,1.07-.78,2.11-1.16,3.14-.75,2.03-1.43,3.98-2.21,5.85-.76,1.88-1.47,3.74-2.29,5.61-.84,1.86-1.69,3.72-2.61,5.75-3.29,6.74-7.07,14.08-11.14,21.15-4.06,7.08-8.4,13.89-12.55,19.69-2.96,4.43-6.04,8.73-9.18,12.93-3.15,4.21-6.36,8.24-9.76,12.22-1.68,2-3.35,3.99-5.01,5.97-1.72,1.94-3.43,3.88-5.14,5.81-1.72,1.92-3.39,3.87-5.15,5.75-1.75,1.88-3.5,3.75-5.25,5.61-14.03,14.89-28.64,28.78-43.79,42.14-16.1,14.36-34.04,29.53-49.3,41.22-7.46,5.94-16.96,13.3-24.58,19.22-13.68,10.62-26.64,20.68-40.24,31.23-5.24,4.11-11.02,8.65-16.34,12.82-3.27,2.58-5.55,4.38-8.68,6.84-7.63,6.06-17.44,14.1-24.94,20.4-6.08,5.08-14.44,12.24-19.86,17.14-2.29,2.08-3.85,3.5-6.24,5.66-1.34,1.21-2.73,2.46-4.16,3.75-.16.07.01.2.03.3l.15.33.31.66c.21.44.41.89.62,1.34.41.9.83,1.8,1.25,2.72.71,1.55,1.43,3.11,2.16,4.69.46.94.81,1.92,1.18,2.88.37.97.74,1.93,1.1,2.87.36.94.73,1.87.98,2.79.55,1.83,1.08,3.56,1.54,5.1,1.81,7.1,2.73,13.82,2.86,20.93.09,7.1-.62,14.6-2.92,23.11-2.28,8.43-5.88,16.57-10.4,24.23-1.42,2.21-2.72,4.39-4.1,6.44-1.44,2.02-2.84,3.98-4.22,5.92-1.31,1.72-2.78,3.66-4.24,5.45-4.49,5.56-9.28,10.82-14.53,15.6l-1.98,1.79c-.67.58-1.36,1.13-2.04,1.7-1.35,1.16-2.77,2.2-4.2,3.25l-1.07.79-1.1.72c-.74.49-1.47.97-2.21,1.46-.75.46-1.52.87-2.28,1.32-.77.42-1.52.91-2.32,1.25-5.78,2.9-12.45,4.81-18.24,4.61-1.43-.04-2.57-.13-3.83-.31-2.71-.42-4.99-1.09-7.65-2.22-4.07-1.8-7.71-4.27-10.64-7.37-2.95-3.09-5.23-6.82-6.89-10.94-.2-.53-.4-1.05-.59-1.57-.16-.54-.32-1.07-.47-1.6-.29-1.07-.68-2.08-.9-3.16-.22-1.08-.43-2.14-.65-3.2l-.16-.79-.1-.81-.19-1.62c-.34-2.14-.35-4.36-.49-6.58-.03-1.12.02-2.26.02-3.4,0-.57.01-1.15.02-1.73.04-.58.08-1.17.11-1.76.07-1.11.14-2.24.22-3.38.13-1.14.26-2.28.39-3.4.13-1.3.35-2.46.54-3.6.21-1.14.35-2.27.63-3.51.93-5.13,2.78-12.17,4.58-17.55,1.31-3.92,2.62-7.36,4.02-10.65.36-.8.72-1.6,1.08-2.4l.27-.6.03-.08.02-.04v-.02s.01,0,.01,0h0c-12.28-5.89-2.9-1.4-5.41-2.6l5.41,2.6h0s0,0,0,0c0,0,0,0,0,0l.67-1.12c.98-1.61,1.98-3.25,3.02-4.95.65-1.05,1.36-2.2,2.1-3.39,5.81-9.25,8.66-13.58,14.72-22.37,2.25-3.27,4.7-6.65,7.17-9.94.62-.83,1.25-1.6,1.87-2.4l.93-1.19c.09-.12.12-.16.27-.33l.44-.5.89-1c.59-.66,1.18-1.32,1.76-1.98l.87-.98c.3-.33.55-.63.92-1.01,1.37-1.45,2.72-2.89,4.05-4.29.07-.08.17-.16.22-.24l-.21-.23c-.15-.15-.29-.3-.43-.45-.28-.29-.55-.57-.8-.84-.51-.53-.96-1.01-1.38-1.44-.82-.86-1.46-1.53-1.97-2.06-.93-.99-1.4-1.48-1.79-1.89-.26-.29-.48-.53-.81-.89-.21-.22-.45-.48-.76-.81-.36-.37-.8-.81-1.36-1.39-2.35-2.44-7.77-7.55-13.62-12.51-5.85-5-12.01-9.89-15.6-12.7-24.45-19.24-50.49-35.95-75.53-51.1-13.46-8.15-28.71-17.24-42.91-25.97-14.2-8.74-27.37-17.12-36.93-23.54-2.5-1.61-6.46-4.17-9.02-5.92-12.98-8.91-26.66-18.95-38.89-29.21-6.47-5.55-11.58-9.98-17.62-15.82-4.26-3.86-8.47-8.25-12.16-11.95-.91-.94-1.82-1.8-2.6-2.69-.78-.88-1.5-1.7-2.18-2.47-1.33-1.53-2.4-2.8-3.1-3.72-1.23-1.36-2.42-2.65-3.56-3.91-1.1-1.35-2.16-2.66-3.21-3.95-2.08-2.61-4.18-5.11-6.13-7.7-3.74-5.31-7.72-10.46-11.5-16.58-1.87-3.08-3.94-6.17-5.59-9.44-.88-1.62-1.76-3.24-2.65-4.88-.47-.81-.85-1.66-1.24-2.51-.4-.85-.79-1.7-1.19-2.55-.8-1.7-1.6-3.42-2.4-5.13-.7-1.76-1.4-3.53-2.11-5.3-.68-1.78-1.46-3.53-2.06-5.34l-1.79-5.46c-4.7-14.57-7.4-29.75-8.15-43.81-.19-1.44-.22-2.88-.29-4.29-.06-1.43-.12-2.82-.18-4.19-.05-1.38-.14-2.75-.15-4.1.02-1.36.05-2.7.07-4.03.03-1.33.05-2.65.08-3.97.02-1.31.04-2.62.17-3.91.2-2.59.41-5.16.61-7.73.07-1.29.26-2.56.44-3.84.17-1.28.35-2.56.52-3.84.17-1.28.34-2.57.52-3.87.18-1.29.47-2.58.7-3.88.5-2.6.95-5.25,1.5-7.93.63-2.64,1.27-5.35,1.94-8.19.49-1.89,1.25-3.92,1.92-6.1.72-2.16,1.36-4.48,2.16-6.76.85-2.27,1.71-4.55,2.54-6.77.43-1.1.8-2.21,1.27-3.25.46-1.01.92-2.01,1.38-3.01,7.05-16.67,16.92-32.41,29.17-46.16,12.28-13.71,26.97-25.4,43.34-33.91,2.4-1.22,5.23-2.78,8.36-4.05,1.54-.68,3.12-1.37,4.69-2.06,1.6-.63,3.21-1.19,4.75-1.77,1.55-.56,3.03-1.15,4.44-1.61,1.42-.43,2.74-.83,3.92-1.18,2.35-.7,4.09-1.28,4.93-1.48,6.75-1.85,11.17-2.63,15.16-3.28,4-.63,7.58-1.1,12.83-1.71,2.53-.28,6.6-.65,11.42-.83,4.82-.21,10.38-.14,15.86.12,1.37.08,2.73.16,4.08.23,1.35.08,2.67.24,3.97.35,1.3.13,2.56.23,3.78.36,1.22.16,2.39.31,3.52.45,1.12.15,2.19.29,3.18.42.99.16,1.92.32,2.76.45,1.69.28,3.06.5,4,.66,9.71,1.76,18.88,4.09,27.98,7.01,9.09,2.92,18.11,6.43,27.43,10.8,8.26,3.86,16.92,8.53,25.27,13.72,8.36,5.18,16.4,10.86,23.61,16.48,1.65,1.32,3.49,2.79,5.44,4.34,1.91,1.6,3.92,3.29,5.94,4.99,1.97,1.76,3.96,3.53,5.86,5.23,1.86,1.76,3.64,3.45,5.27,4.99,5.96,5.85,12.12,12.56,17.55,19.07,2.74,3.23,5.22,6.46,7.55,9.4,1.12,1.5,2.19,2.93,3.2,4.28.47.63.94,1.26,1.4,1.87.48.68.96,1.35,1.42,2.01.92,1.29,1.8,2.53,2.66,3.73,3.76,5.25,5.21,7.32,6.41,9.04l.06.08.03.04.02-.03.09-.14.19-.27c.12-.18.25-.36.38-.54.26-.37.53-.76.83-1.19.63-.91,1.4-2.03,2.54-3.68,2.38-3.48,4.84-7.08,7.35-10.75.62-.91,1.25-1.83,1.88-2.75l.23-.34.14-.19.28-.38.57-.76c.76-1.01,1.52-2.03,2.28-3.05,1.53-2.04,3.05-4.08,4.55-6.07,1.6-1.93,3.16-3.81,4.67-5.64,12.21-14.55,26.2-28,40.96-38.63,7.16-5.58,19.6-13.7,32.47-19.72,12.83-6.1,25.87-10.26,32.55-11.82,2.6-.69,5.37-1.51,8.28-1.97,1.44-.27,2.9-.55,4.37-.82l2.19-.41c.73-.14,1.46-.28,2.2-.35,2.94-.35,5.82-.7,8.54-1.02,2.71-.36,5.31-.49,7.6-.67,1.55-.11,2.67-.17,3.54-.2.18,0,.35-.01.51-.02h.01s.02.01.02.01c.02.01.04.04.08.03.75-.14,1.26,0,1.97.03.53.03,1.06,0,1.59.03.22-.16.24-.39.34-.54.12-.17.27-.23.32-.38.04-.11-.08-.29-.05-.41-.26.17-.3-.27-.15-.33.62-.41.57-.87.62-1.32.26-.31.46-.09.69-.19.04-.51-.15-1.03.46-1.49-.07-.25-.19-.5-.01-.73l.53-.36c-.03-.3.13-.58.2-.87.05-.21.03-.45.17-.55.14-.11-.08-.29-.05-.41.28-.14.4-.29.45-.45-.06-.49.06-.96-.21-1.47.12-.26.18-.52.3-.78-.43-.54-.02-1.02-.5-1.57.01-.21.5-.39.28-.62-.46.2-.8-.54-1.2-.82-.23.11-.48.02-.71.03-.23,0-.82.09-.91.02-.11-.1-.09,0-.2-.01-.3-.02-.6.06-.81.11-.16.04-.25.03-.42.13-.4-.28-.95-.08-1.39-.08-.09,0-.2-.09-.29-.1-.15,0-.26.13-.41.14-.27,0-.52-.1-.8-.04l-.3.02c-.34.02,1.03-.05-2.65.12-2.56.13-5.12.31-7.68.54-10.22,1.15-20.5,2.59-30.68,5.45-4.72,1.08-9.38,2.73-14.22,4.28-.6.2-1.21.39-1.82.59-.61.2-1.19.46-1.8.69-1.2.47-2.4.95-3.61,1.43-1.21.48-2.43.96-3.67,1.45-1.23.49-2.48.95-3.68,1.55-1.43.64-2.72,1.21-4.16,1.86-1.4.65-3.19,1.53-4.99,2.43-1.78.94-3.53,1.99-4.95,2.75-1.41.77-2.71,1.43-4.02,2.1-.67.34-1.33.68-1.98,1.01-.67.35-1.31.77-2.01,1.2-2.92,1.84-6.46,4.15-9.39,6.09-1.73,1.22-3.78,2.67-6.05,4.27-1.13.8-2.33,1.65-3.56,2.52-1.19.94-2.41,1.91-3.67,2.9-1.26,1-2.55,2.02-3.86,3.05-.65.52-1.31,1.04-1.98,1.57-.66.52-1.28,1.11-1.92,1.66-2.55,2.25-5.14,4.54-7.67,6.77-9.82,9.25-18.04,18.42-20.4,21.33-3.34,4.15-7.1,8.42-10.21,12.69-1.6,2.09-3.15,4.11-4.58,5.98-.18.23-.36.46-.53.69l-.17.22-.1.14c-.13.18-.25.36-.37.53-.24.34-.47.66-.68.96-.31.44-.75,1.14-1.21,1.88-.23.37-.47.74-.68,1.09-.02.03-.06.11-.08.1l-.04-.05-.08-.1c-.05-.07-.1-.14-.15-.2-.13-.18-.3-.43-.51-.73-.1-.15-.22-.31-.33-.47-.35-.47-.71-.96-1.07-1.45-2.3-3.18-4.81-6.3-6.29-8.19-2.22-2.8-4.41-5.33-6.49-7.83-2.17-2.42-4.21-4.84-6.4-7.15-2.18-2.33-4.36-4.7-6.76-7.07-1.2-1.19-2.38-2.45-3.68-3.67-1.29-1.23-2.62-2.5-4-3.82-2.44-2.29-4.95-4.52-7.46-6.75-2.57-2.16-5.08-4.4-7.72-6.47-1.48-1.17-3.02-2.48-4.68-3.75-1.66-1.27-3.37-2.58-5.08-3.9-3.48-2.54-6.94-5.07-10.02-7.08-1.11-.74-2.25-1.51-3.44-2.25-1.18-.72-2.41-1.46-3.64-2.21-2.42-1.51-4.92-2.88-7.19-4.22-2.63-1.59-5.46-3.1-8.24-4.72-2.83-1.54-5.68-3.09-8.51-4.49-1.19-.57-3.09-1.45-5-2.32-1.92-.87-3.9-1.66-5.18-2.23-.88-.39-3.13-1.48-4.13-1.86-1.4-.57-3.25-1.29-5.13-2.01-1.94-.69-3.87-1.39-5.32-1.9-7.43-2.7-15.91-5.37-23.75-7.37-7.85-1.96-15.04-3.32-19.72-4.02-7.99-1.16-13.9-1.7-21.25-2.04-14.53-.8-29.56.17-43.37,2.55-6.91,1.2-13.51,2.65-19.64,4.49-6.17,1.71-11.79,3.8-16.82,5.77-1.37.6-3.22,1.45-5.09,2.31-.94.43-1.88.87-2.76,1.27-.88.46-1.69.89-2.37,1.25-1.74.88-4.08,2.07-6.48,3.29-2.33,1.36-4.68,2.72-6.52,3.8-1.81,1.01-3.34,2.15-4.84,3.16-1.49,1.02-2.91,2-4.31,2.97-2.72,2.03-5.31,4.1-8.32,6.4-11.96,9.82-21.81,20.44-30.2,31.74-8.38,11.32-15.31,23.34-21.05,36.45-.6,1.44-1.16,2.78-1.69,4.06-.49,1.36-.96,2.65-1.42,3.91-.92,2.55-1.87,4.98-2.72,7.42-.76,2.47-1.52,4.93-2.31,7.48-.37,1.28-.82,2.55-1.13,3.9-.31,1.32-.63,2.69-.97,4.14-.42,1.55-.81,2.98-1.17,4.33-.18.7-.36,1.39-.54,2.05-.14.69-.27,1.35-.4,2.01-.51,2.67-.98,5.11-1.44,7.5-.11.6-.22,1.19-.32,1.78-.07.59-.15,1.18-.22,1.77-.15,1.17-.29,2.33-.44,3.49-.27,2.32-.62,4.62-.83,7.01-.13,2.1-1.14,11.86-1.02,14.64-.54,17.19,1.25,35.06,4.96,51.46,3.73,16.62,9.66,32.48,17.58,47.26l3,5.52,3.29,5.27,3.29,5.27c.56.87,1.08,1.77,1.67,2.62l1.79,2.54c2.41,3.36,4.74,6.8,7.23,10.11,2.57,3.25,5.15,6.5,7.74,9.76,2.01,2.41,4.06,4.59,6,6.82.98,1.11,1.95,2.2,2.92,3.3l1.46,1.65c.5.54,1.02,1.06,1.53,1.59,2.06,2.1,4.14,4.22,6.34,6.46,1.11,1.09,2.19,2.27,3.41,3.35,1.18,1.07,2.42,2.19,3.73,3.38,1.37,1.33,2.73,2.65,4.1,3.98.71.68,1.43,1.36,2.15,2.05.75.66,1.51,1.33,2.27,2,3.07,2.67,6.21,5.48,9.45,8.19,3.28,2.66,6.59,5.33,9.83,7.95,3.26,2.52,6.46,4.99,9.6,7.42,2.66,2.03,5.37,3.91,8.04,5.8,2.67,1.88,5.29,3.79,7.92,5.6,5.3,3.58,10.43,7.2,15.59,10.54,2.56,1.7,5.09,3.38,7.62,5.05,2.52,1.63,5.03,3.25,7.53,4.87,4.96,3.25,9.88,6.34,14.7,9.43,24.27,14.96,44.8,27.06,68.69,42.16,4.27,2.68,10.34,6.63,14.7,9.48,4.67,3.07,6.26,4.1,10.28,6.74,3.91,2.58,6.13,4.08,10.81,7.45,1.97,1.45,2.87,2.11,5.1,3.76,1.93,1.43,3.98,2.96,5.93,4.41,4.52,3.43,9.09,7.02,13.49,10.58,5.09,4.14,8.93,7.29,13.47,11.32,2.27,2.01,4.51,4.08,6.71,6.2l1.64,1.6.47.47.45.48c.07.04-.04.08-.05.12l-.12.12c-.08.08-.11.11-.35.39l-.57.66-.14.16-.07.08-.18.22-.76.95c-2.04,2.54-3.94,5.08-5.77,7.6-4.69,6.48-8.96,12.82-13.12,19.18-2.08,3.18-4.12,6.37-6.16,9.58-1.01,1.61-2.02,3.23-3.04,4.86-.5.82-1.01,1.64-1.52,2.46l-.76,1.24-.38.63-.51.86-.2.36c-.07.12-.14.25-.15.3l-.19.41-.38.82-.75,1.65c-.49,1.1-.93,2.21-1.4,3.32-.48,1.11-.87,2.24-1.31,3.36-.44,1.12-.84,2.25-1.22,3.39-1.6,4.53-2.93,9.15-4.07,13.73-1.34,5.23-2.38,11.18-3.01,16.46-.71,5.77-1.01,11.13-.67,17.43.2,4.95,1.03,9.92,2.27,14.81.75,2.44,1.41,4.88,2.43,7.26.98,2.38,2.18,4.71,3.54,6.96,2.72,4.5,6.32,8.59,10.55,11.9,4.24,3.32,8.95,5.85,14.14,7.57,3.52,1.17,7.46,1.94,11.42,2.13,3.96.15,7.9-.24,11.48-.96.65-.09,1.21-.25,1.72-.4.52-.14.99-.28,1.44-.4.88-.25,1.65-.47,2.4-.69,1.44-.53,2.78-1.06,4.83-1.86,1.15-.55,2.2-1.06,3.22-1.54.5-.25,1.01-.47,1.49-.73.47-.26.93-.53,1.39-.79.92-.52,1.85-1.05,2.81-1.59.91-.6,1.86-1.21,2.88-1.88.99-.64,1.76-1.17,2.47-1.73.73-.54,1.43-1.07,2.28-1.71,6.28-4.77,12.38-10.71,17.54-16.39,3.44-3.78,6.6-7.58,9.57-11.42.76-.94,1.48-1.92,2.19-2.92.71-.99,1.43-1.97,2.14-2.96,1.46-1.93,2.73-4.01,4.04-6.05,5.16-8.19,9.52-16.98,12.59-26.83,4.95-15.48,5.69-31.82,2.24-48.31-.29-1.21-.57-2.41-.86-3.62-.29-1.2-.55-2.41-.95-3.57-.37-1.17-.73-2.33-1.1-3.5-.38-1.16-.69-2.34-1.16-3.46-.89-2.25-1.73-4.53-2.67-6.75l-.71-1.54-.09-.17-.13-.26c.03-.06.1-.11.15-.16l.5-.45c1.5-1.33,2.99-2.65,4.48-3.97,2.98-2.64,5.99-5.22,8.96-7.81,9.54-8.23,20.06-16.88,30.22-25.05,5.95-4.77,8.78-6.99,14.66-11.58,3.85-3.02,5.28-4.14,9.07-7.12,3.73-2.97,6.64-5.29,10.69-8.51,3.03-2.35,6.79-5.27,10.02-7.77,8.9-6.87,16.72-12.9,25.31-19.53,3.09-2.38,5.87-4.53,8.95-6.9,2.85-2.24,5.92-4.65,8.65-6.8,2.92-2.3,1-.79,4.76-3.75Z"/>
    </g>
  </g>
</svg>