<?xml version="1.0" encoding="UTF-8"?>
<svg id="Ebene_1" xmlns="http://www.w3.org/2000/svg" version="1.1" viewBox="0 0 800 800">
  <!-- Generator: Adobe Illustrator 30.4.0, SVG Export Plug-In . SVG Version: 2.1.4 Build 226)  -->
  <defs>
    <style>
      .st0 {
        fill: #e5b969;
        fill-rule: evenodd;
      }

      .st1, .st2 {
        fill: none;
        stroke: #e5b969;
        stroke-linejoin: round;
        stroke-width: 48px;
      }

      .st2 {
        stroke-linecap: round;
      }
    </style>
  </defs>
  <path class="st0" d="M-573.58,197.37c-.9.53-1.82,0-2.35.08-1.26.18-1.84.86-2.78.9-1.57.07-6.92-1.34-7.93-.71-.85.53-1.92-.26-2.64-.24-.24,0-.49.46-.73.51-.37.08-.83-.42-1.32-.12-.54.34-.48-.29-.96-.37-.2-.03-.52.5-.73.51-1.27.05-2.4-.06-3.67-.04-1.65.03-3.26.1-4.33-.1-.12-.02-.18-.29-.3-.31-.2-.04-.52.52-.73.51-1.05-.05-1.97-.24-2.64-.24-.12,0-.24.26-.36.25-.2,0-.39-.62-.59-.63-.84-.05-1.62,1.01-1.98-.18l-1.46,1.02c-.62-.12-1.25-.21-1.89-.27-2.69-.26-5.44-.16-7.69-.56-1.2-.21-2.69-.21-3.45-.3-.54-.06-.75-.55-1.31-.69-.82-.2-2.11.13-2.69-.81-.41,1.65-1.35-.22-2.07-.18-.35.02-1.35.75-2.22.96-.06.01-.24-.3-.31-.31-.18-.03-.57.47-.76.51-.07.01-.24-.3-.31-.31-.54-.09-3.76,2.42-4.19,2.8-.32.28-.17.62-.45.82-.34.26.01.47-.07.57-1.08,1.26-2.11,1.48-2.36,2.1-.56,1.37-1.69,2.35-1.81,3.29-.05.38-.15.75-.14,1.14-1.63.72-1.11,1.63-2.74,2.35.7.82.02,1.75.02,2.59,0,.34-.21.79-.14,1.14.04.23.55.4.62.63.04.11-.45.67-.45.82-.05,1.33-.25,2.77-.12,3.73.07.54.16.95.16,1.45,0,.37-.16.73-.14,1.14.01.41.25.77-.14,1.14-.51-.55-1.09-.61-1.69-.43,1,.85.09,1.54,1.09,2.39-.57.43-.63.59-.14,1.14.43.48.04,1.6.09,2.02.07.64.43.78.86,1.51.51.86-.26,2.58,1.33,3.28-.19.65-1.1,1.25-1.29,1.9.83,1.8,2.29,3.65,2.11,5.36,1.62.07,1.95,1.85,3.16,2.57.38.23,1.96-.39,2,.75,1.13.3,2.44-.92,3.52-.27,1.16.87-.47,1.49,1.09,2.39,1.83-.81,3.8-.07,5.6-.09,1,0,1.77-.28,2.83-.33.87-.04,2.08.47,2.83-.33,1.44.98,4.01.73,5.14.73.21,0,.41.62.62.63.34,0,1.18-.41,1.45-.45.7-.11,1.46-.02,2.17.03.75.06,1.45.08,1.95-.24.76-.47,2.77.07,3.67.04,1.11-.03,2.31-.25,3.37-.27.85-.02,1.77.4,2.28.49.2.03.52-.5.73-.51.37-.02.93.13,1.32.12,1.21-.03,2.17-.02,3.01-.02,1.06,0,2.71.37,3.3.3.68-.09,1.15-1.01,1.75-.71,1.03.69,2.26-.28,3.23.87,2.91-1.09,5.63-.57,8.36-.11,1.46-.07,3.04-1.17,4.33.1.64,0,1.45.29,2.1.29,1.16,0,2.26-.05,3.41-.14.44-.04.94-.04,1.39-.02.28.02.47.13.74.17.65.1,1.5,0,2.15,0,.53,0,1.26.04,1.75-.16.16-.07.26-.17.42-.24.51-.22,1.2-.06,1.66.17,1.05.54,1.95,1.36,3.22,1.34h1.9c.37,0,.72.02,1.05-.08.15-.04.32-.15.48-.2.99-.29,1.99-.59,3.04-.66.49-.04,1.02.07,1.49,0,.12-.02.21-.11.31-.13.22-.04.42-.04.65-.03.71,0,1.4-.05,2.09.1.7.15,1.3.51,1.98.67.16.04.33,0,.49.05.19.05.33.2.51.26.37.12.88.19,1.28.18.68,0,1.18-.04,1.85-.2.74-.18,1.09.03,1.81.05.54,0,1.15-.1,1.67-.02.5.07.26.22.49.5.44.53,1.94-.17,2.53-.18,2.05-.05,4.1.71,6.06.18,2.1-.57,4.75,0,6.31.28.2.04.52-.52.73-.51,1.07.04,2.21.23,3.3.3.58.04,1.04.37,1.62.43.78.08,1.67-1.03,1.98.18.99-.83,1.79-.07,2.78-.9,1.99,1.01,4.28-.44,6.24.85,1.62-1.4,2.87.21,4.47-1.04.54,1.04,1.32.13,1.91.75,2.52-.74,5.11-.24,7.7-.17.76.02,2.11.07,2.35-.08.97-.61,1.25.64,1.98.18.71-.44,3.14.04,3.67.04,1.37,0,2.61-.23,4.03-.21,1.26.02,2.71.33,3.96.36.58,0,1.43-.39,2.05-.39,1.15,0,2.5.8,3.3.3.44-.28.35.08.66.06.65-.05,1.4-.43,2.05-.39,1.31.07,2.63.42,3.89.93,1.26-1.45,4.1.19,5.06-.41.75-.47,1.71.33,2.35-.08.43-.27.39.1.68.06,2.8-.41,4.68.14,7.29.34,1.98.15,3.92.12,5.91.22.82-.57.9-1.38,1.29-1.9.45-.61,1.02-.81,1.22-1.33.14-.38-.27-1.04-.17-1.45-.97.59-1.1-.98-.55-1.2,2.31-1.43,2.14-3.08,2.34-4.69.95-1.08,1.67-.29,2.53-.64.17-1.81-.52-3.69,1.72-5.32-.23-.88-.66-1.78-.02-2.59l1.91-1.27c-.11-1.06.48-2.08.74-3.1.19-.74.12-1.61.6-1.96.52-.38-.29-1.02-.16-1.45.98-.49,1.41-1.03,1.6-1.59-.22-1.74.22-3.43-.73-5.24.42-.92.63-1.86,1.05-2.79-1.5-1.95-.07-3.65-1.73-5.61.05-.76,1.73-1.38.98-2.22-1.6.7-2.78-1.94-4.16-2.95-.81.39-1.66.07-2.45.08-.79,0-2.84.29-3.14.02-.38-.35-.32-.02-.69-.06-1.05-.1-2.09.16-2.83.33-.57.13-.88.08-1.45.45-1.36-1.02-3.31-.38-4.83-.42-.31,0-.68-.36-1-.37-.52-.03-.91.45-1.45.45-.95,0-1.79-.43-2.76-.24-.47,0-.94.04-1.4.07-.89.07-1.78.15-2.69.14-.63,0-1.28-.13-1.98-.18-.11,0-.19-.29-.3-.31-.2-.04-.52.52-.73.51-.21,0-.38-.61-.59-.63-.22-.02-.5.51-.73.51-1.1,0-3.84-.41-4.33-.1-.7.44-1.49-.09-1.98-.18-.18-.03-.54.48-.73.51-.27.04-1.01-.11-1.32-.12-.94-.02-1.64-.15-2.64-.24-.44-.04-.88-.08-1.32-.12-.49-.05-1.13-.43-1.62-.43-.35,0-.75.69-1.09.76-.4.09-.84-.61-1.25-.69-.17-.03-.55.47-.73.51-.06,0-.23-.3-.3-.31-.2-.03-.52.51-.73.51-1.03.02-2.32-.57-2.94-.55-.53.02-.91.45-1.39.45-1.89,0-3.89-.23-5.28-.48-.19-.03-.53.49-.73.51-.26.02-.68-.38-.96-.37-.53.02-.9.46-1.39.45-2-.04-3.72-.61-5.58-.79-.79.98-1.36.22-2.12.96-.81-1.1-1.36-.32-1.98-.18-.14.03-.78-.37-.96-.37-1.12,0-2.28.33-3.37.27-2.21-.12-4.36-.6-6.54-1.16-.82.35-1.5-.44-2.42.65-.97-1.15-2.2-.17-3.23-.87-1.77.82-3.39.44-4.92-.73-1.9,0-3.5-.48-5.4-.48-.34,0-.83-.06-1.18,0-.39.06-.51.2-.83.45-.32.24-.5.41-.89.27-.17-.06-.24-.18-.43-.23-.16-.04-.34,0-.5-.01-.39,0-.78-.02-1.16.02-.44.04-.78.24-1.2.32-.83.15-1.69-.15-2.51-.17-1.05-.03-2.03-.26-3.05-.32-.6-.04-1.23,0-1.84,0-.35,0-.73.04-1.07-.01-.37-.06-.7-.25-1.09-.29-1.23-.15-2.42-.17-3.67-.17-.42,0-.9-.05-1.32,0-.3.03-.38.11-.64.23-.31.14-.52.04-.82.08-.15.02-.23.11-.37.14-.49.12-1.04.02-1.53-.04-1.32-.16-2.48-.75-3.77-1.04-1.02-.22-1.99-.4-3.04-.34-.62.03-1.23.22-1.84.3-.54.07-1.08.02-1.61.11-.85.15-1.77.07-2.64.08-.51,0-.75-.08-1.26-.23-.33-.09-.45-.13-.77,0-.32.13-.56.43-.92.52-.26.07-.58.03-.85.03-.75,0-1.42-.04-2.14-.19-.26-.06-.49-.21-.76-.26-.24-.05-.5,0-.73-.04-.25-.06-.08-.06-.4-.06l-.07-.06Z"/>
  <path class="st0" d="M-827.69,577.26c-.53-10.96,0-22.18-.08-28.58-.18-15.38-.86-22.4-.9-33.87-.07-19.07,1.34-84.29.71-96.54-.53-10.35.26-23.37.24-32.19,0-2.96-.46-5.95-.51-8.88-.08-4.47.42-10.15.12-16.09-.34-6.61.29-5.86.37-11.65.03-2.39-.5-6.35-.51-8.89.01-15.42.03-29.21.04-44.66,0-5.04-.02-10.04-.02-14.9v-1.82l.03-1.12c-.01-.72.07-1.41.12-2.11.04-.7.17-1.37.23-2.05.14-.66.22-1.33.37-1.97,1.12-5.17,3.38-9.49,5.72-12.52.49-.7,1.01-.82,1.52-1.48.92-1.07,2.1-3.11,3.24-4.11,1.41-1.27,2.91-2.33,4.4-3.26,1.49-.92,2.97-1.7,4.44-2.3,2.9-1.28,5.66-1.9,8.02-2.33.42-.09.84-.21,1.27-.32.42-.11.84-.27,1.29-.28.73-.04,1.43.02,2.14.19.36.07.67.13,1.08.18.6.06,1.21.1,1.83.1,10.2.05,19.78-1.01,24.13.18l17.77-1.02c4.8.06,9.64.13,14.5.19,2.43.02,4.88.05,7.32.07h1.21s.04,0,.04,0l.16.02.32.03c.84.07,1.68.11,2.51.14,1.65.07,3.25.12,4.65.37,1.2.21,2.69.21,3.45.3.54.06.75.55,1.31.69.82.2,2.11-.13,2.69.81.41-1.65,1.35.22,2.07.18.35-.02,1.35-.75,2.22-.96.06,0,.24.3.31.31.18.03.57-.47.76-.51.07,0,.24.3.31.31.54.09,3.76-2.42,4.19-2.8.32-.28.17-.62.45-.82.34-.26,0-.47.07-.57,1.08-1.26,2.11-1.48,2.36-2.1.56-1.37,1.69-2.35,1.81-3.29.05-.38.15-.75.14-1.14,1.63-.72,1.11-1.63,2.74-2.35-.7-.82-.02-1.75-.02-2.59,0-.34.21-.79.14-1.14-.04-.23-.55-.4-.62-.63-.04-.11.45-.67.45-.82.05-1.33.25-2.77.12-3.73-.07-.54-.16-.95-.16-1.45,0-.37.16-.73.14-1.14,0-.41-.25-.77.14-1.14.51.55,1.09.61,1.69.43-1-.85-.09-1.54-1.09-2.39.57-.43.63-.59.14-1.14-.43-.48-.04-1.6-.09-2.02-.07-.64-.43-.78-.86-1.51-.51-.86.26-2.58-1.33-3.28.19-.65,1.1-1.25,1.29-1.9-.83-1.8-2.29-3.65-2.11-5.36-1.62-.07-1.95-1.85-3.16-2.57-.38-.23-1.96.39-2-.75-1.13-.3-2.44.92-3.52.27-1.16-.87.47-1.49-1.09-2.39-1.83.81-3.8.07-5.6.09-1,.01-1.77.28-2.83.33-.87.04-2.08-.47-2.83.33-1.44-.98-4.01-.73-5.14-.73-.21,0-.41-.62-.62-.63-.34-.01-1.18.41-1.45.45-.37.06-.75.06-1.13.04l-.58-.04-.29-.02h-.18s-.38-.01-.38-.01h-.82c-8.67-.05-16.69-.05-22.57.25-4.61.24-13.05.22-21.7.15-4.32-.04-8.7-.09-12.68-.13-1.99-.02-3.88-.03-5.62-.05-.87,0-1.7,0-2.48-.01h-.58c-.26,0-.52,0-.78.01-.51.01-1.01.02-1.48.04-9.44.26-19.29,2.31-28.27,6.12-9,3.76-17.09,9.16-23.68,15.23-2.66,2.46-5.22,5.13-7.58,7.89-2.32,2.8-4.5,5.65-6.33,8.52-3.75,5.69-6.26,11.28-7.77,15.31-.57,1.58-1.17,3.73-1.63,5.95-.26,1.1-.45,2.22-.64,3.27-.2,1.08-.38,2.07-.53,2.91-.6,3.08-1.13,7-1.4,10.97-.04.99-.07,1.99-.11,2.98,0,.47-.02.94-.04,1.41v1.05c0,1.38,0,2.7-.02,3.9,0,14.72,0,26.42.02,36.63,0,12.92-.37,33.04-.3,40.23.09,8.26,1.01,14.02.71,21.37-.69,12.53.28,27.52-.87,39.38,1.09,35.5.57,68.63.11,101.83.07,17.73,1.17,36.98-.1,52.71,0,7.81-.29,17.63-.29,25.52,0,14.12.05,27.51.14,41.54.04,5.42.04,11.4.02,16.9-.02,3.4-.13,5.74-.17,8.98-.1,7.92,0,18.21,0,26.16,0,6.42-.04,15.34.16,21.26.09,1.88.15,3.18.24,5.13.03.95.07,1.93.1,2.94.05,1.17.07,2.37.19,3.59.16,2.44.46,4.96.82,7.44.73,4.97,1.94,9.75,3.12,13.49,2.68,8.59,6.45,16.23,11.66,23.46,2.6,3.62,5.6,7.12,9.12,10.47,3.52,3.35,7.55,6.56,12.25,9.49,9.32,5.81,19.89,9.74,30.77,11.41,1.6.21,3.18.44,4.74.58,1.56.11,3.09.27,4.6.3.76.02,1.51.03,2.25.05h1.85c1.03-.02,2.06-.04,3.08-.05,1.81-.06,3.9-.13,5.84-.2,12.09-.29,24.18-.59,36.98-.66,5.92-.04,12.39.07,18.16,0,1.43-.02,2.57-.11,3.83-.13,2.73-.04,5.06-.04,7.89-.03,8.6,0,17-.05,25.41.1,8.49.15,15.83.51,24.14.67,1.94.02,3.98.04,5.93.05,2.28.05,4.06.2,6.23.26,4.5.12,10.72.19,15.57.18,8.26,0,14.43-.04,22.52-.2,8.99-.18,13.25.03,22.1.05,6.57.01,13.96-.1,20.39-.02,6.05.07,3.12.22,6.01.5,5.34.53,23.58-.17,30.86-.18,24.96-.05,49.95.71,73.76.18,25.59-.57,57.9,0,76.86.28,2.44.04,6.34-.52,8.89-.51,12.97.1,26.98.2,40.23.3,7.07.04,12.69.37,19.69.43,9.56.08,20.3-1.03,24.14.18,3.02-.21,5.89-.31,8.69-.37,1.4-.02,2.78-.04,4.15-.06,1.44-.01,2.86-.02,4.28-.03,3.9-.04,7.82-.37,11.8-1,3.97-.68,8-1.69,12.09-3.16,8.38-2.39,16.71-6.3,24.15-11.74,7.44-5.41,14.09-12.17,19.34-19.88,5.27-7.7,9.27-16.27,11.72-25.09,1.23-4.41,2.13-8.86,2.68-13.28.24-2.21.48-4.41.56-6.59.09-1.72.17-3.43.26-5.14-1.4-19.69.21-34.93-1.04-54.4,1.04-6.59.13-16.08.75-23.29-.74-30.69-.24-62.26-.17-93.78.02-9.21.07-25.68-.08-28.59-.61-11.86.64-15.17.18-24.13-.44-8.62.04-38.2.04-44.67-.07-16.65-.14-31.84-.21-49.11.11-15.3.24-32.96.36-48.27.01-7.08-.39-17.47-.39-24.98,0-13.98.8-30.49.3-40.23-.28-5.37.08-4.21.06-8.05,0-.52-.01-1.05-.02-1.58-.02-.73-.05-1.46-.07-2.2-.03-1.47-.16-2.96-.3-4.47-.27-3-.76-6.04-1.39-9.04-1.25-6.01-3.22-11.84-5.5-17.08-4.55-10.52-11.29-20.13-19.6-28-8.3-7.89-18.2-13.98-28.68-17.88-5.38-1.48-12.53-3.19-20.56-3.75-1-.06-2.02-.15-3.04-.19-1.02-.02-2.06-.05-3.1-.07-1.53,0-3.08-.01-4.65-.02-2.98-.03-6.01-.06-9.02-.09-12.03-.15-23.6-.41-29.43-.11-9.16.47-20.78-.33-28.57.08-1.31.07-2.26.09-3,.1h-.48s-.05-.03-.07-.04c-.08-.05-.14-.14-.29-.11-2.8.41-4.68-.14-7.29-.34-1.98-.15-3.92-.12-5.91-.22-.82.57-.9,1.38-1.29,1.9-.45.61-1.02.81-1.22,1.33-.14.38.27,1.04.17,1.45.97-.59,1.1.98.55,1.2-2.31,1.43-2.14,3.08-2.34,4.69-.95,1.08-1.67.29-2.53.64-.17,1.81.52,3.69-1.72,5.32.23.88.66,1.78.02,2.59l-1.91,1.27c.11,1.06-.48,2.08-.74,3.1-.19.74-.12,1.61-.6,1.96-.52.38.29,1.02.16,1.45-.98.49-1.41,1.03-1.6,1.59.22,1.74-.22,3.43.73,5.24-.42.92-.63,1.86-1.05,2.79,1.5,1.95.07,3.65,1.73,5.61-.05.76-1.73,1.38-.98,2.22,1.6-.7,2.78,1.94,4.16,2.95.81-.39,1.66-.07,2.45-.08.79,0,2.84-.29,3.14-.02.38.35.32.02.69.06,1.05.1,2.09-.16,2.83-.33.57-.13.88-.08,1.45-.45,1.36,1.02,3.31.38,4.83.42.31,0,.68.36,1,.37.52.03.91-.45,1.45-.45.95,0,1.79.43,2.76.24-5.15-.02,19.14-.23,34.18-.21,7.63.06,15.64.12,24.13.18,1.34,0,2.26.29,3.61.31,2.44.04,6.32-.52,8.89-.51,1.27,0,2.43.15,3.59.31.29.04.58.08.87.11l.44.05c.13.02.2.04.3.06.38.07.77.13,1.18.14,1.72.1,3.9-.23,5.66.14,2.1.41,4.94,1.18,7.88,2.57,2.96,1.34,5.99,3.29,8.59,5.52,1.32,1.1,2.47,2.32,3.55,3.47,1.02,1.2,1.98,2.34,2.72,3.44,1.53,2.17,2.5,3.96,2.99,4.78,1.42,2.32,2.38,5.09,2.9,7.73.54,2.64.64,5.14.68,7.04,0,.36.03.79.1,1.28l.02.18.02.28c.01.19.03.39.04.6.03.4.06.81.09,1.23.13,1.65.26,3.32.28,4.49.04,3.29-.11,12.27-.12,16.1-.02,11.4-.15,19.98-.24,32.18-.04,5.34-.08,10.73-.12,16.09-.05,6.02-.43,13.82-.43,19.7,0,4.24.69,9.12.76,13.33.09,4.91-.61,10.21-.69,15.25-.03,2.11.47,6.65.51,8.89.01.76-.3,2.75-.31,3.61-.03,2.4.51,6.34.51,8.89.02,12.59-.57,28.27-.55,35.78.02,6.41.45,11.1.45,16.93,0,23.05-.23,47.39-.48,64.36-.03,2.35.49,6.4.51,8.89.02,3.11-.38,8.25-.37,11.65.02,6.5.46,10.95.45,16.93-.04,24.38-.61,45.33-.79,67.97.98,9.58.22,16.58.96,25.82-1.1,9.85-.32,16.52-.18,24.13.03,1.67-.37,9.44-.37,11.64.02,3.41.03,6.84.05,10.3.02,1.72.03,3.45.05,5.18l.03,2.59v2.08c-.01,4.43-.85,8.78-2.47,12.7-1.63,3.96-3.93,7.64-6.83,10.75-2.89,3.11-6.3,5.69-10.01,7.6-3.72,1.88-7.72,3.08-11.81,3.6l-1.54.15c-.51.05-1.04.04-1.55.08-.51.05-1.04,0-1.56.01h-.78l-1.23-.02c-3.31-.07-6.62-.14-9.94-.21-10,.35-18.33-.44-29.42.65-11.85-1.15-26.85-.17-39.39-.87-21.54.82-41.31.44-59.92-.73-23.18,0-42.63-.48-65.81-.48-4.13,0-10.08-.06-14.37,0-4.7.06-6.22.2-10.11.45-3.85.24-6.06.41-10.82.27-2.04-.06-2.91-.18-5.23-.23-1.98-.04-4.1,0-6.11-.01-4.69,0-9.51.01-14.18.02-5.42.04-9.54.24-14.59.32-10.1.15-20.61-.15-30.55-.17-12.76-.03-24.68-.26-37.2-.32h-22.36c-4.22,0-8.9.04-13-.01-4.49-.06-8.58-.25-13.33-.29-14.95-.15-29.48-.17-44.66-.17-5.17,0-10.96-.05-16.12,0-3.65.03-4.67.11-7.85.23-3.72.14-6.36.04-10.03.08-1.77.02-2.83.11-4.45.14-6.01.12-12.62.02-18.64-.04-4.01-.04-7.9-.11-11.74-.19-.96-.02-1.91-.04-2.86-.06l-1.42-.03-.66-.02-.42-.03c-1.13-.06-2.25-.19-3.35-.36-4.39-.7-8.52-2.23-12.42-4.58-6.13-3.72-10.92-9.12-13.94-15.79-1.78-3.95-2.88-8.08-3.07-12.46l-.04-.73c0-.08,0-.33-.01-.53v-.62l-.02-2.47c0-1.64,0-3.29-.01-4.92-.02-3.27-.04-6.52-.06-9.77-.15-10.34-.07-21.51-.08-32.19,0-6.24.08-9.19.23-15.29.09-4,.13-5.51,0-9.43-.13-3.94-.43-6.86-.52-11.16-.07-3.11-.03-7.01-.03-10.35,0-9.17.04-17.24.19-26.06.09-3.17.17-6.04.26-9.2.01-2.95.03-6.12.04-8.95.06-3.02.06-1.03.06-4.93l.08-.06Z"/>
  <path class="st0" d="M-391.57,391.4c3.27-.53,6.63,0,8.54-.08,4.6-.18,6.69-.86,10.12-.9,5.7-.07,25.18,1.34,28.84.71,3.09-.53,6.98.26,9.62.24.88,0,1.78-.46,2.65-.51,1.34-.08,3.03.42,4.81.12,1.97-.34,1.75.29,3.48.37.72.03,1.9-.5,2.66-.51,4.61-.05,8.73.06,13.34.04,6.02-.03,11.85-.1,15.75.1.44.02.64.29,1.08.31.73.04,1.89-.52,2.65-.51,3.83.05,7.16.24,9.61.24.44,0,.88-.26,1.33-.25.74,0,1.41.62,2.15.63,3.05.05,5.91-1.01,7.21.18l5.31-1.02c1.45.06,2.89.13,4.33.19l2.19.07c.48.01.43.02.57.03l.32.03c.84.07,1.68.11,2.51.14,1.65.07,3.25.12,4.65.37,1.2.21,2.69.21,3.45.3.54.06.75.55,1.31.69.82.2,2.11-.13,2.69.81.41-1.65,1.35.22,2.07.18.35-.02,1.35-.75,2.22-.96.06-.01.24.3.31.31.18.03.57-.47.76-.51.07-.01.24.3.31.31.54.09,3.76-2.42,4.19-2.8.32-.28.17-.62.45-.82.34-.26-.01-.47.07-.57,1.08-1.26,2.11-1.48,2.36-2.1.56-1.37,1.69-2.35,1.81-3.29.05-.38.15-.75.14-1.14,1.63-.72,1.11-1.63,2.74-2.35-.7-.82-.02-1.75-.02-2.59,0-.34.21-.79.14-1.14-.04-.23-.55-.4-.62-.63-.04-.11.45-.67.45-.82.05-1.33.25-2.77.12-3.73-.07-.54-.16-.95-.16-1.45,0-.37.16-.73.14-1.14-.01-.41-.25-.77.14-1.14.51.55,1.09.61,1.69.43-1-.85-.09-1.54-1.09-2.39.57-.43.63-.59.14-1.14-.43-.48-.04-1.6-.09-2.02-.07-.64-.43-.78-.86-1.51-.51-.86.26-2.58-1.33-3.28.19-.65,1.1-1.25,1.29-1.9-.83-1.8-2.29-3.65-2.11-5.36-1.62-.07-1.95-1.85-3.16-2.57-.38-.23-1.96.39-2-.75-1.13-.3-2.44.92-3.52.27-1.16-.87.47-1.49-1.09-2.39-1.83.81-3.8.07-5.6.09-1,.01-1.77.28-2.83.33-.87.04-2.08-.47-2.83.33-1.44-.98-4.01-.73-5.14-.73-.21,0-.41-.62-.62-.63-.34-.01-1.18.41-1.45.45-.37.06-.75.06-1.13.04l-.58-.04-.29-.02h-.14l-.39-.02c-2.59-.05-4.98-.05-6.74.25-2.76.47-10.08-.07-13.35-.04-4.05.03-8.42.25-12.27.27-3.11.02-6.46-.4-8.29-.49-.71-.03-1.9.5-2.65.51-1.34.02-3.38-.13-4.81-.12-4.4,0-7.89.01-10.94.02-3.86,0-9.87-.37-12.02-.3-2.47.09-4.19,1.01-6.38.71-3.74-.69-8.22.28-11.77-.87-10.61,1.09-20.5.57-30.42.11-5.3.07-11.05,1.17-15.75-.1-2.33.01-5.27-.29-7.62-.29-4.22,0-8.22.05-12.41.14-1.62.04-3.41.04-5.05.02-1.01-.02-1.72-.13-2.68-.17-2.37-.1-5.44,0-7.82,0-1.92,0-4.58-.04-6.35.16-.57.07-.94.17-1.53.24-1.86.22-4.38.06-6.04-.17-3.82-.54-7.1-1.36-11.73-1.34h-6.9c-1.35,0-2.61-.02-3.83.08-.51.06-1.19.13-1.75.2-3.61.29-7.22.59-11.05.66-1.77.04-3.7-.07-5.42,0-.43.02-.77.11-1.15.13-.81.04-1.51.04-2.36.03-2.57,0-5.08.05-7.59-.1-2.54-.15-4.73-.51-7.21-.67-.58-.04-1.19,0-1.77-.05-.68-.05-1.21-.2-1.86-.26-1.34-.12-3.2-.19-4.65-.18-2.47,0-4.31.04-6.73.2-2.69.18-3.96-.03-6.6-.05-1.96-.01-4.17.1-6.09.02-1.81-.07-.93-.22-1.8-.5-1.6-.53-7.04.17-9.22.18-7.46.05-14.92-.71-22.03-.18-7.65.57-17.3,0-22.96-.28-.73-.04-1.89.52-2.65.51-3.88-.04-8.06-.23-12.02-.3-2.11-.04-3.79-.37-5.88-.43-2.86-.08-6.07,1.03-7.21-.18-3.61.83-6.51.07-10.12.9-7.25-1.01-15.58.44-22.71-.85-5.88,1.4-10.44-.21-16.25,1.04-1.97-1.04-4.8-.13-6.96-.75-9.17.74-18.6.24-28.02.17-2.75-.02-7.67-.07-8.54.08-3.54.61-4.53-.64-7.21-.18-2.57.44-11.41-.04-13.35-.04-4.98-.01-9.51.23-14.67.21-4.57-.02-9.84-.33-14.42-.36-2.11-.01-5.22.39-7.46.39-4.18,0-9.11-.8-12.02-.3-1.61.28-1.26-.08-2.4-.06-2.38.05-5.09.43-7.46.39-4.75-.07-9.59-.42-14.17-.93-4.58,1.45-14.92-.19-18.4.41-2.74.47-6.21-.33-8.54.08-.39.07-.68.09-.9.1-.14,0-.16,0-.17-.01-.02,0-.05-.02-.07-.03-.08-.05-.14-.14-.29-.11-2.8.41-4.68-.14-7.29-.34-1.98-.15-3.92-.12-5.91-.22-.82.57-.9,1.38-1.29,1.9-.45.61-1.02.81-1.22,1.33-.14.38.27,1.04.17,1.45.97-.59,1.1.98.55,1.2-2.31,1.43-2.14,3.08-2.34,4.69-.95,1.08-1.67.29-2.53.64-.17,1.81.52,3.69-1.72,5.32.23.88.66,1.78.02,2.59l-1.91,1.27c.11,1.06-.48,2.08-.74,3.1-.19.74-.12,1.61-.6,1.96-.52.38.29,1.02.16,1.45-.98.49-1.41,1.03-1.6,1.59.22,1.74-.22,3.43.73,5.24-.42.92-.63,1.86-1.05,2.79,1.5,1.95.07,3.65,1.73,5.61-.05.76-1.73,1.38-.98,2.22,1.6-.7,2.78,1.94,4.16,2.95.81-.39,1.66-.07,2.45-.08.79,0,2.84-.29,3.14-.02.38.35.32.02.69.06,1.05.1,2.09-.16,2.83-.33.57-.13.88-.08,1.45-.45,1.36,1.02,3.31.38,4.83.42.31,0,.68.36,1,.37.52.03.91-.45,1.45-.45.95,0,1.79.43,2.76.24.9-.01.63-.07,3.83-.12,2.43-.05,4.87-.1,7.37-.09,2.28,0,4.67.13,7.21.18.4,0,.67.29,1.08.31.73.04,1.89-.52,2.65-.51.76,0,1.38.61,2.15.63.82.02,1.82-.51,2.65-.51,4.02,0,13.96.41,15.75.1,2.54-.44,5.43.09,7.21.18.66.03,1.95-.48,2.65-.51.98-.04,3.67.11,4.81.12,3.41.02,5.97.15,9.61.24,1.6.04,3.21.08,4.81.12,1.8.05,4.13.43,5.88.43,1.27,0,2.73-.69,3.98-.76,1.47-.09,3.05.61,4.55.69.63.03,1.99-.47,2.65-.51.23-.01.82.3,1.08.31.72.03,1.89-.51,2.65-.51,3.76-.02,8.44.57,10.69.55,1.91-.02,3.32-.45,5.06-.45,6.89,0,14.16.23,19.23.48.7.03,1.91-.49,2.65-.51.93-.02,2.47.38,3.48.37,1.94-.02,3.27-.46,5.06-.45,7.28.04,13.54.61,20.3.79,2.86-.98,4.95-.22,7.71-.96,2.94,1.1,4.93.32,7.21.18.5-.03,2.82.37,3.48.37,4.07.01,8.29-.33,12.27-.27,8.05.12,15.85.6,23.78,1.16,2.99-.35,5.48.44,8.79-.65,3.54,1.15,8.02.17,11.77.87,6.44-.82,12.34-.44,17.9.73,6.93,0,12.73.48,19.66.48,1.23,0,3.01.06,4.29,0,1.4-.06,1.86-.2,3.02-.45,1.15-.24,1.81-.41,3.23-.27.61.06.87.18,1.56.23.59.04,1.22,0,1.83.01,1.4,0,2.84.02,4.23-.02,1.62-.04,2.85-.24,4.36-.32,3.02-.15,6.16.15,9.13.17,3.81.03,7.37.26,11.11.32,2.19.04,4.48,0,6.68,0,1.26,0,2.66-.04,3.88.01,1.34.06,2.56.25,3.98.29,4.47.15,8.81.17,13.34.17,1.54,0,3.28.05,4.82,0,1.09-.03,1.39-.11,2.34-.23,1.11-.14,1.9-.04,3-.08.53-.02.84-.11,1.33-.14,1.79-.12,3.77-.02,5.57.04,4.79.16,9.03.75,13.72,1.04,3.7.22,7.24.4,11.08.34,2.26-.03,4.47-.22,6.7-.3,1.97-.07,3.93-.02,5.87-.11,3.09-.15,6.43-.07,9.62-.08,1.86,0,2.74.08,4.57.23,1.19.09,1.65.13,2.82,0,1.18-.13,2.05-.43,3.33-.52.93-.07,2.1-.03,3.09-.03,2.74,0,5.15.04,7.79.19.95.05,1.8.21,2.75.26.88.05,1.83,0,2.67.04.9.06.31.06,1.47.06l.09.05Z"/>
  <path class="st0" d="M-671.08,192.08c-.48.76,0-.18-.07-.11-.16.15-.78,1.06-.82.97-.03-.07.27-.78.52-1.28.24-.51.42-.84.13-.58-.48.42.23-.46.22-.5,0-.02-.41.34-.46.35-.08.02.39-.44.11-.25-.31.19.26-.28.34-.38.03-.04-.46.3-.46.28-.04-.13.06-.34.04-.48-.03-.18-.09-.37.09-.56.02-.02.27-.1.29-.12.03-.03-.47.08-.46.05.05-.15.22-.29.22-.36,0-.01-.23,0-.23-.02,0-.03.56-.1.57-.11.04-.06-.92-.18.16-.18-.31-.06-.62-.14-.92-.24.12-.07.19-.14.26-.21.26-.19.26-.46.67-.44.21.02.26-.06.35-.05.07,0,.44.3.55.37.15.11-.03-.16.6.5-1.07-1.2.16.13.12.13-.02,0-.44-.6-.52-.79.01.02.16.24.18.25.02.02-.23-.4-.24-.44.01.02.15.24.17.26.03.04-.25-.5-.46-1.13-.22-.62-.37-1.35-.41-1.54-.06-.28-.19-.58-.22-.79-.03-.26-.16-.44-.18-.54-.22-1.26,0-1.56-.09-2.15-.2-1.35,0-2.43-.12-3.37-.05-.37-.07-.75-.14-1.12.3-.39.37-.82.45-1.25.1-.41.14-.9.6-1.25-.48-.81-.16-1.74-.21-2.58-.03-.34.08-.79.02-1.14-.05-.23-.42-.39-.49-.61-.04-.11.27-.68.27-.83-.07-1.33,0-2.77-.17-3.72-.1-.53-.22-.94-.26-1.44-.03-.36.09-.73.05-1.14-.04-.41-.31-.75.06-1.14.55.53,1.11.55,1.71.35-1.03-.8-.09-1.54-1.2-2.34.6-.46.69-.62.11-1.15-.51-.46-.12-1.59-.19-2.01-.12-.63-.56-.75-1.14-1.45-.35-.41-.32-1.06-.46-1.68-.14-.62-.46-1.22-1.6-1.4.17-.7,1.41-1.45,1.62-2.09-1.27-1.76-3.87-3.16-3.87-4.91-1.34.15-2.22-.08-3.06-.44-.84-.35-1.65-.8-2.79-.87-.72-.02-3.14,1.5-3.6.46-1.01.2-1.92.91-2.83,1.52-.45.32-.91.62-1.36.87-.45.27-.91.48-1.41.58-2.24.3.06-1.77-2.9-1.07-1.25,1.26-2.68,2.31-4.14,3.32-1.4,1.09-2.92,2.06-4.07,3.31-.66.68-1.19,1.34-1.72,2.01-.52.68-1,1.42-1.61,2.21-1.02,1.26-2.72,2.9-2.82,4.55-1.16.84-2.19,2.47-3.1,4.08-.83,1.65-1.43,3.34-1.83,4.35-.13.38-.82.51-.96.91-.22.63-.3,2.34-.4,2.86-.28,1.42-.64,2.86-.98,4.37-.36,1.75-.48,3.43-.29,4.68.04.24.06.53.07.86.06.26.11.55.15.86.09.61.15,1.31.2,2.01.09,1.4.14,2.85.26,3.74.29,2.22.78,4.59,1.05,6.68.22,1.69.05,3.57.09,4.6.02.4.58.95.63,1.36.1.73.1,1.87.2,2.64.29,2.4.52,4.3.72,5.96.24,2.1.33,5.53.53,6.68.23,1.32,1.09,1.83.98,3.16-.31,2.39.74,4.29.08,6.88,1.52,5.16,1.73,10.75,2.08,16.61.41,2.88,1.48,4.95.97,8.73.16,1.27.17,3.18.32,4.48.28,2.32.58,4.48.91,6.68.13.85.25,1.82.34,2.76.06.58.04,1.1.08,1.68.05.71.14,1.46.24,2.19l.07.55c0,.11.04.12.07.16l.08.1c.11.13.22.26.32.39.31.42.71,1.03,1.18,1.23.14.06.27.02.41.08.23.09.44.34.63.64.22.31.41.67.55,1,.6,1.52,1.11,3.28,2.41,4.37.68.54,1.3,1.09,2.05,1.64.43.32.82.65,1.23.83.18.09.42.11.64.19.66.24,1.31.49,1.97.78.69.27,1.38.57,2.08.95.64.34,1.38.81,2.04,1.07.17.06.32.03.46.09.31.12.6.24.93.4,1.02.46,2.02.87,3.05,1.4.51.28.98.59,1.45.91.49.29.98.56,1.5.8.25.11.52.16.76.28.29.14.5.37.78.49.59.26,1.41.53,2.06.68,1.1.26,1.97.3,3.08.34,1.24,0,1.82.23,3.04.38.91.12,1.94,0,2.83.14.84.11.43.24.84.54.75.51,3.31-.24,4.3-.4.86-.11,1.74-.12,2.59-.2.84-.07,1.72-.15,2.56-.22,1.67-.25,3.33-.57,4.84-1.32,3.27-1.56,7.22-2.77,9.41-3.64.28-.12.56-.95.84-1.1.68-.36,1.4-.76,2.15-1.16.36-.19.72-.39,1.07-.58.33-.21.66-.42.98-.64.68-.46,1.34-.49,1.97-.92.44-.29.79-.93,1.13-1.37.3-.45.59-.68.99-.14.65-1.82,1.62-1.61,2.11-3.41.49-.12.92-.43,1.32-.84.42-.42.68-.84,1.02-1.3l.24-.33.12-.16s.04-.25.06-.36c.07-.55.14-1.08.22-1.58.17-1,.39-1.87.7-2.5-.18-2.49.02-3.88.25-5.28.23-1.39.47-2.77.3-5.05.78-.04.42-2.57.96-3.18.18-5.89,1.17-10.71,1.9-16.02.21-1.54.6-4.29.56-4.88-.2-2.39.8-2.16.65-3.97-.15-1.72.85-6.43.99-7.54.37-2.82.5-5.49.88-8.4.34-2.57.99-5.46,1.34-8.06.16-1.2.03-3.05.19-4.32.29-2.34,1.39-5.06,1.13-6.77-.14-.93.17-.71.23-1.36.12-1.36-.04-2.9.16-4.24s.48-2.7.8-4.05c.16-.68.34-1.36.53-2.03.09-.33.19-.67.29-1.01.05-.4.06-.85.09-1.27-.43-.8-.71-1.86-.91-3.05s-.44-2.5-.62-3.79c-.1-.65-.19-1.29-.31-1.91-.13-.61-.26-1.19-.4-1.73-.28-1.08-.58-1.98-.92-2.52-.56-.83-.91-1.89-1.25-2.93-.33-1.04-.69-2.04-1.27-2.67-.38-.44-.48-.67-.5-.82-.03-.17-.02-.32-.18-.57-.39-.62-.75-1.18-1.09-1.72-.37-.55-.72-1.07-1.06-1.57-.69-1.01-1.28-2.02-1.97-2.95-.66-.92-1.34-1.86-2.04-2.83-.74-.93-1.54-1.85-2.43-2.82-.66-.75-1.4-1.41-2.14-2.07-.74-.66-1.48-1.31-2.26-1.93-1.59-1.16-3.16-2.38-4.88-3.39-1.69-.33-2.21.32-3.1.43-1.03.13-2.1-.13-2.65.19-.4.24.03,1.16-.31,1.46,1.86.23,1.37,1.75.39,1.51-4.32-.45-4.54,1.33-5.42,2.7-1.79.52-2.57-.66-3.99-.65-.35.84-.4,1.78-.81,2.6-.41.83-1.18,1.53-2.82,1.97.15.94.49,1.95-.46,2.55-.87.26-1.72.58-2.54.88,0,1.07-.81,1.97-1.17,2.97-.27.73-.27,1.59-.79,1.92-.55.36.22,1.03.06,1.46-1,.44-1.4.96-1.57,1.51.14,1.75-.18,3.42.43,5.27-.32.91-.48,1.84-.72,2.74.42,1.01.37,1.92.37,2.83s-.05,1.84.27,2.83c-.16.77-.63,1.35-.45,2.2.15-.31.57.11.61.87.1.74.11,1.65.15,2.15.23-.31.33.03.48.04.14.04.63-.07.58.22-.07.35.05.05.1.11.14.17.42.07.65,0,.17-.04.19.04.49-.19-.34.99.3.74.51,1.03.04.05-.15.34-.13.41.04.1.43-.14.5-.05.13.16-.13.56.12.62.14.21.47.48.57.84.03.17-.02.38-.03.57,0,.03-.26.12-.27.15-.02.05.48.01.49.07,0,.06-.53.22-.55.27-.02.06.47.04.47.1.03.32-.36,1.01-.08,1.15.4.23-.08.39-.16.49-.03.04.44.23.46.29.04.09-.1.26-.11.34-.02.25-.14.4-.22.63l-.11.29c-.04.11-.39.07-.39.18,0,.07.63.57.7.71.08.17-.56-.16-.63-.11-.03.02.43.45.46.53.01.03-.28-.15-.29-.15-.03.02.46.5.46.56.02.32-.52.16-.5.31.02.14.41.64.41.77,0,.5-.21.8-.43.84-.03,0,.45.74.46.82.02.1-.35-.31-.34-.23.02.15.42.84.41.97-.04.5-.56.1-.72.23.89,1.82.2.69.87,2.18-1.01-1.73-.29-.22-.16.23.03.1-.34-.49-.34-.45-.01.25.3,1.23.25,1.42-.1.36-.64-.14-1.27-1.05.24,1.03-.46-.79.33,2.08-.51-1.32-.6-1.34-.66-1.21-.05.14-.07.43-.39-.4.39,2.45-.24,1.79-1.09-1.34-.26.21-.7-1.06-.92-.97-.05.02-.12-.12-.16.05-.04.19-.01.61,0,1.36,0,.73,0,1.23-.09.84-.04-.17-.07-.52-.11-.66-.03-.12-.06-.02-.08-.02-.06,0-.13-.04-.19.07-.07.13-.11.73-.19.96-.15.45-.3-.44-.44-.53-.18-.13-.3-.82-.44-1.06-.08-.13-.18-.03-.27-.06-.05-.02-.12.09-.15-.1-.03-.2,0-.76-.03-.93-.09-.52-.2-.66-.33-.77-.05-.03-.06-.21-.13-.12-.05.06-.11.27-.21.57-.12.35-.08.05-.14.14-.03.05-.09.26-.13.33-.14.26-.12-.07-.12-.29-.01-.58.38-2.24.56-3.05.14-.65.27-1.13.19-1.08-.04.03-.22.4-.3.51-.07.1-.03-.07-.12.08-.14.23-.07-.04-.08-.11,0-.04.07-.25.21-.58.09-.22.12-.29,0-.08s-.39.77-.48.9c-.06.09-.02-.02-.02-.06,0-.1.04-.25.17-.6.07-.15.17-.38.24-.53.05-.11,0-.04.04-.14.05-.12.06-.12.05-.14l.02-.05Z"/>
  <path class="st0" d="M-405.48,192.08c-.48.76,0-.18-.07-.11-.16.15-.78,1.06-.82.97-.03-.07.27-.78.52-1.28.24-.51.42-.84.13-.58-.48.42.23-.46.22-.5,0-.02-.41.34-.46.35-.08.02.39-.44.11-.25-.31.19.26-.28.34-.38.03-.04-.46.3-.46.28-.04-.13.06-.34.04-.48-.03-.18-.09-.37.09-.56.02-.02.27-.1.29-.12.03-.03-.47.08-.46.05.05-.15.22-.29.22-.36,0-.01-.23,0-.23-.02,0-.03.56-.1.57-.11.04-.06-.92-.18.16-.18-.31-.06-.62-.14-.92-.24.12-.07.19-.14.26-.21.26-.19.26-.46.67-.44.21.02.26-.06.35-.05.07,0,.44.3.55.37.15.11-.03-.16.6.5-1.07-1.2.16.13.12.13-.02,0-.44-.6-.52-.79.01.02.16.24.18.25.02.02-.23-.4-.24-.44.01.02.15.24.17.26.03.04-.25-.5-.46-1.13-.22-.62-.37-1.35-.41-1.54-.06-.28-.19-.58-.22-.79-.03-.26-.16-.44-.18-.54-.22-1.26,0-1.56-.09-2.15-.2-1.35,0-2.43-.12-3.37-.05-.37-.07-.75-.14-1.12.3-.39.37-.82.45-1.25.1-.41.14-.9.6-1.25-.48-.81-.16-1.74-.21-2.58-.03-.34.08-.79.02-1.14-.05-.23-.42-.39-.49-.61-.04-.11.27-.68.27-.83-.07-1.33,0-2.77-.17-3.72-.1-.53-.22-.94-.26-1.44-.03-.36.09-.73.05-1.14-.04-.41-.31-.75.06-1.14.55.53,1.11.55,1.71.35-1.03-.8-.09-1.54-1.2-2.34.6-.46.69-.62.11-1.15-.51-.46-.12-1.59-.19-2.01-.12-.63-.56-.75-1.14-1.45-.35-.41-.32-1.06-.46-1.68s-.46-1.22-1.6-1.4c.17-.7,1.41-1.45,1.62-2.09-1.27-1.76-3.87-3.16-3.87-4.91-1.34.15-2.22-.08-3.06-.44-.84-.35-1.65-.8-2.79-.87-.72-.02-3.14,1.5-3.6.46-1.01.2-1.92.91-2.83,1.52-.45.32-.91.62-1.36.87-.45.27-.91.48-1.41.58-2.24.3.06-1.77-2.9-1.07-1.25,1.26-2.68,2.31-4.14,3.32-1.4,1.09-2.92,2.06-4.07,3.31-.66.68-1.19,1.34-1.72,2.01-.52.68-1,1.42-1.61,2.21-1.02,1.26-2.72,2.9-2.82,4.55-1.16.84-2.19,2.47-3.1,4.08-.83,1.65-1.43,3.34-1.83,4.35-.13.38-.82.51-.96.91-.22.63-.3,2.34-.4,2.86-.28,1.42-.64,2.86-.98,4.37-.36,1.75-.48,3.43-.29,4.68.04.24.06.53.07.86.06.26.11.55.15.86.09.61.15,1.31.2,2.01.09,1.4.14,2.85.26,3.74.29,2.22.78,4.59,1.05,6.68.22,1.69.05,3.57.09,4.6.02.4.58.95.63,1.36.1.73.1,1.87.2,2.64.29,2.4.52,4.3.72,5.96.24,2.1.33,5.53.53,6.68.23,1.32,1.09,1.83.98,3.16-.31,2.39.74,4.29.08,6.88,1.52,5.16,1.73,10.75,2.08,16.61.41,2.88,1.48,4.95.97,8.73.16,1.27.17,3.18.32,4.48.28,2.32.58,4.48.91,6.68.13.85.25,1.82.34,2.76.06.58.04,1.1.08,1.68.05.71.14,1.46.24,2.19l.07.55c0,.11.04.12.07.16l.08.1c.11.13.22.26.32.39.31.42.71,1.03,1.18,1.23.14.06.27.02.41.08.23.09.44.34.63.64.22.31.41.67.55,1,.6,1.52,1.11,3.28,2.41,4.37.68.54,1.3,1.09,2.05,1.64.43.32.82.65,1.23.83.18.09.42.11.64.19.66.24,1.31.49,1.97.78.69.27,1.38.57,2.08.95.64.34,1.38.81,2.04,1.07.17.06.32.03.46.09.31.12.6.24.93.4,1.02.46,2.02.87,3.05,1.4.51.28.98.59,1.45.91.49.29.98.56,1.5.8.25.11.52.16.76.28.29.14.5.37.78.49.59.26,1.41.53,2.06.68,1.1.26,1.97.3,3.08.34,1.24,0,1.82.23,3.04.38.91.12,1.94,0,2.83.14.84.11.43.24.84.54.75.51,3.31-.24,4.3-.4.86-.11,1.74-.12,2.59-.2.84-.07,1.72-.15,2.56-.22,1.67-.25,3.33-.57,4.84-1.32,3.27-1.56,7.22-2.77,9.41-3.64.28-.12.56-.95.84-1.1.68-.36,1.4-.76,2.15-1.16.36-.19.72-.39,1.07-.58.33-.21.66-.42.98-.64.68-.46,1.34-.49,1.97-.92.44-.29.79-.93,1.13-1.37.3-.45.59-.68.99-.14.65-1.82,1.62-1.61,2.11-3.41.49-.12.91-.43,1.32-.84.42-.42.68-.84,1.02-1.3l.24-.33.12-.16s.04-.25.07-.36c.07-.55.14-1.08.22-1.58.17-1,.39-1.87.7-2.5-.18-2.49.02-3.88.25-5.28.23-1.39.47-2.77.3-5.05.78-.04.42-2.57.96-3.18.18-5.89,1.17-10.71,1.9-16.02.21-1.54.6-4.29.56-4.88-.2-2.39.8-2.16.65-3.97-.15-1.72.85-6.43.99-7.54.37-2.82.5-5.49.88-8.4.34-2.57.99-5.46,1.34-8.06.16-1.2.03-3.05.19-4.32.29-2.34,1.39-5.06,1.13-6.77-.14-.93.17-.71.23-1.36.12-1.36-.04-2.9.16-4.24.2-1.34.48-2.7.8-4.05.16-.68.34-1.36.53-2.03.09-.33.19-.67.29-1.01.05-.4.06-.85.09-1.27-.43-.8-.71-1.86-.91-3.05-.2-1.19-.44-2.5-.62-3.79-.1-.65-.19-1.29-.31-1.91-.13-.61-.26-1.19-.4-1.73-.28-1.08-.58-1.98-.92-2.52-.56-.83-.91-1.89-1.25-2.93-.33-1.04-.69-2.04-1.27-2.67-.38-.44-.48-.67-.5-.82-.03-.17-.02-.32-.18-.57-.39-.62-.75-1.18-1.09-1.72-.37-.55-.72-1.07-1.06-1.57-.69-1.01-1.28-2.02-1.97-2.95-.66-.92-1.34-1.86-2.04-2.83-.74-.93-1.54-1.85-2.43-2.82-.66-.75-1.4-1.41-2.14-2.07-.74-.66-1.48-1.31-2.26-1.93-1.59-1.16-3.16-2.38-4.88-3.39-1.69-.33-2.21.32-3.1.43-1.03.13-2.1-.13-2.65.19-.4.24.03,1.16-.31,1.46,1.86.23,1.37,1.75.39,1.51-4.32-.45-4.54,1.33-5.42,2.7-1.79.52-2.57-.66-3.99-.65-.35.84-.4,1.78-.81,2.6-.41.83-1.18,1.53-2.82,1.97.15.94.49,1.95-.46,2.55-.87.26-1.72.58-2.54.88,0,1.07-.8,1.97-1.17,2.97-.27.73-.27,1.59-.79,1.92-.55.36.22,1.03.06,1.46-1,.44-1.4.96-1.57,1.51.14,1.75-.18,3.42.43,5.27-.32.91-.48,1.84-.72,2.74.42,1.01.37,1.92.37,2.83s-.05,1.84.27,2.83c-.16.77-.63,1.35-.45,2.2.15-.31.57.11.61.87.1.74.11,1.65.15,2.15.23-.31.33.03.48.04.14.04.63-.07.58.22-.07.35.05.05.1.11.14.17.42.07.65,0,.17-.04.19.04.49-.19-.34.99.3.74.51,1.03.04.05-.15.34-.13.41.04.1.43-.14.5-.05.13.16-.13.56.12.62.14.21.47.48.57.84.03.17-.02.38-.03.57,0,.03-.26.12-.27.15-.02.05.48.01.49.07,0,.06-.53.22-.55.27-.02.06.47.04.47.1.03.32-.36,1.01-.08,1.15.4.23-.08.39-.16.49-.03.04.44.23.46.29.04.09-.1.26-.11.34-.02.25-.14.4-.22.63l-.11.29c-.04.11-.39.07-.39.18,0,.07.63.57.7.71.08.17-.56-.16-.63-.11-.03.02.43.45.46.53.01.03-.28-.15-.29-.15-.03.02.46.5.46.56.02.32-.52.16-.5.31.02.14.41.64.41.77,0,.5-.21.8-.43.84-.03,0,.45.74.46.82.02.1-.35-.31-.34-.23.02.15.42.84.41.97-.04.5-.56.1-.72.23.89,1.82.2.69.87,2.18-1.01-1.73-.29-.22-.16.23.03.1-.34-.49-.34-.45-.01.25.3,1.23.25,1.42-.1.36-.64-.14-1.27-1.05.24,1.03-.46-.79.33,2.08-.51-1.32-.6-1.34-.66-1.21-.05.14-.07.43-.39-.4.39,2.45-.24,1.79-1.09-1.34-.26.21-.7-1.06-.92-.97-.05.02-.12-.12-.16.05-.04.19-.01.61,0,1.36,0,.73,0,1.23-.09.84-.04-.17-.07-.52-.11-.66-.03-.12-.06-.02-.08-.02-.06,0-.13-.04-.19.07-.07.13-.11.73-.19.96-.15.45-.3-.44-.44-.53-.18-.13-.3-.82-.44-1.06-.08-.13-.18-.03-.27-.06-.05-.02-.12.09-.15-.1-.03-.2,0-.76-.03-.93-.09-.52-.2-.66-.33-.77-.05-.03-.06-.21-.13-.12-.05.06-.11.27-.21.57-.12.35-.08.05-.14.14-.03.05-.09.26-.13.33-.14.26-.12-.07-.12-.29-.01-.58.38-2.24.56-3.05.14-.65.27-1.13.19-1.08-.04.03-.22.4-.3.51-.07.1-.03-.07-.12.08-.14.23-.07-.04-.08-.11,0-.04.07-.25.21-.58.09-.22.12-.29,0-.08s-.39.77-.48.9c-.06.09-.02-.02-.02-.06,0-.1.04-.25.17-.6.07-.15.17-.38.24-.53.05-.11,0-.04.04-.14.05-.12.06-.12.05-.14v-.05Z"/>
  <path class="st0" d="M-390.28,640.51c-1.75.15-.39-2.86-.85-4.03-3.45-1.56-5.17-5.18-7.34-8-1.21-1.57-2.27-2.4-3.26-3.2-.27-.22.2-1.33-.02-1.61-.22-.29-1.32-.55-1.62-.79-.26-.21.18-1.32-.02-1.61-.18-.27-1.35-.57-1.62-.79s.21-1.33-.02-1.61c-.99-1.23-2.86-2.74-4.08-4-1.53-1.59-3.57-2.24-4.08-4.8-2.27-.1-3.3-1.84-4.87-3.18-1.43-1.22-2.74-2.67-4.08-4-1.37-1.37-2.74-2.57-4.07-4-1.07-1.14-1.93-2.56-2.45-3.2-.13-.16.13-.65,0-.81-.22-.27-1.37.27-1.61.02-2.15-2.25-3.95-4.74-5.71-6.4-2.31-2.19-4.57-3.58-6.51-5.59-1.26-1.31-3-2.88-3.27-4.81-2.79-1.33-5.19-3.5-7.32-5.58-2.12-2.08-4.33-4.45-5.72-7.21-3.29-.99-4.81-3.79-6.52-6.4-2.82-1.47-5.57-3.02-6.52-6.39.14-1.87,1.94-2.45,2.39-3.25,1.08-1.92.62-3.54,1.57-4.86,1.57-2.19,9.5-7.64,9.59-9.78.08-1.8,2.45-2.26,3.2-3.26.25-.34-.19-1.22-.02-1.61.26-.6,1.55-.6,1.6-1.63.05-1.15.97-.29,1.61-.82.26-.22-.23-1.32-.02-1.61,1.28-1.76,2.66-3.15,3.99-4.88,1.73-2.26,3.32-4.51,4.79-5.7.16-.13.65.13.81,0,.27-.23-.26-1.35-.02-1.61,1.21-1.35,2.48-2.34,3.2-3.26.13-.17-.14-.64,0-.81.22-.27,1.38.25,1.61-.02.97-1.07.16-3.44,2.4-2.44l-.03-3.23c4.33-3.47,7.54-8.4,11.19-11.41,1.55-1.28,3.08-3.2,4-4.07.65-.62,1.64-.28,2.41-.83,1.16-.81,1.96-2.87,4.01-2.46-2.15-2.57,1.72-1.47,2.4-2.44.33-.48.2-2.67.77-4.04.04-.09.72.07.81,0,.23-.2-.15-1.32-.02-1.61.05-.1.71.07.81,0,.69-.58.07-7.85-.09-8.88-.11-.75-.78-.99-.82-1.61-.05-.76-.75-.57-.82-.8-.87-2.95-.15-4.55-.86-5.64-1.58-2.42-1.94-5.1-3.29-6.43-.54-.53-1.02-1.13-1.63-1.6.54-3-1.41-3.45-.87-6.45-2-.12-2.76-2.14-4.07-3.19-.53-.42-1.02-1.25-1.63-1.6-.4-.23-1.18.2-1.61.02-.22-.09-.59-1.41-.82-1.61-2.03-1.71-4.07-3.76-5.7-4.79-.91-.58-1.66-.97-2.44-1.59-.57-.45-.97-1.11-1.63-1.6-.66-.49-1.46-.63-1.63-1.6,1.39.03,2.06-.64,2.4-1.64-2.36.23-2.5-1.8-4.86-1.57-.09-1.27-.28-1.54-1.63-1.6-1.19-.05-2.54-1.92-3.25-2.39-1.07-.7-1.65-.42-3.24-.78-1.86-.42-3.76-3.54-6.48-2.36-.83-1.05-.82-2.97-1.65-4.02-3.65-1.17-8.04-1.59-10.53-3.93-1.76,2-4.88.21-7.26.88-.75.21-1.39,3.01-3.21,1.65-1.63,1.07-1.07,4.28-3.18,4.87-2.54.42-1.85-2.46-4.86-1.57-.61,3.35-3.78,4.98-5.58,7.32-1,1.3-1.38,2.62-2.38,4.06-.82,1.17-2.87,2.1-2.38,4.06-3.01.63-5.24,4.27-6.4,5.71-.22.27-1.39-.25-1.61.02-.37.42-.57,2.03-.78,2.43-1.14,2.17-3.89,3.63-3.98,5.69-.07,1.61-3.07,3.64-3.99,4.88-1.14,1.54-2.09,3.42-3.18,4.87-.88,1.17-2.53,1.89-3.21,2.45-.26.22.22,1.32.02,1.61-.37.52-1.19,1.09-1.6,1.63-1.25,1.66-2.29,2.94-3.19,4.07-1.14,1.42-3.48,3.19-4,4.07-.59,1.02.35,2.8-.78,3.24-2.18.52-1.97,3.39-4.81,3.27-1.42,5.27-5.13,8.29-8.77,11.38-1.45,2.05-1.41,5.54-4.79,5.7-2.47-1.28-3.48-4.06-4.91-6.41-1.69-.65-3.46-1.92-4.87-3.18-1.17-1.05-4.04-4.11-4.08-4.8-.06-.93-.52-.35-.81-.8-1.19-1.8-2.75-2.92-3.27-4.81-1.82-.87-4.06-1.3-5.67-2.37-.13-1.32-2.27-2.26-2.44-2.4-1.2-.96.14-3.14-1.64-3.21-.97-.04-1.17-1.8-1.64-2.41-1.55-1.98-2.74-2.93-4.07-4-.27-.22.2-1.33-.02-1.61-1.56-2.14-4.74-3.08-4.9-5.6-.05-.83-4.12-4.83-4.08-4.8-1.14-.76-3.06-.66-4.05-1.58-.13-.12-.82-1.49-.82-1.61-.11-1.78-2.52-1.68-2.45-3.21-2.91.24-3.91-1.45-6.47-1.55-2.9-3.59-7.22-4.38-11.35-5.54-.07-.02.05-.74,0-.81-.22-.26-1.32.21-1.61.02-1.41-.93-2.7-3.23-4.08-4.8-1.29-1.45-2.68-3.65-4.08-4.8-2.15-1.76-4.9-.83-5.69-3.98-2.29-.65-2.08,1.16-4.03.85-1.54-.33-1.48-2.29-4.05-1.57-.11,1.49-2.73.52-3.21,1.64-.8,1.08-.73,3.01-2.39,3.25-1.99-2.64-3.99-.23-8.08-.73-2.18.52-1.98,3.39-4.81,3.28l-4.03.04c-.69,2.18-2.14,2.22-4.01,2.46-2.59.34-1.39,1.49-4.02,1.65-1.58.1-2.58,3.06-4.83,1.66-.72,1.43-1.78,2.52-3.2,3.26-1.72.98-4.5.91-5.63,2.48-.23,2.91-1.99,6.01-1.53,8.89.14.89,1.3,2.26,2.46,4.01.33.49,1.32,1.03,1.63,1.6.5.91.32,1.69.83,2.41.35.5,1.27,1.04,1.63,1.6.44.69.3,1.71.83,2.41.86,1.15,2.59,1.86,3.25,2.39.27.22-.2,1.33.02,1.61.96,1.28,2.3,1.99,3.26,3.2,1.02,1.28,1.47,2.87,2.46,4.01,1,1.15,2.42,2.32,3.26,3.2,1.33,1.38,2.25,2.97,4.07,3.19.03,1.74,1.44,2.76,2.46,4.01,2.22,2.73,3.91,4.7,5.72,7.21.83,1.15,2.39,2.26,2.45,3.2s.49.35.81.8c.89,1.24,1.63,2.81,2.46,4.01.34.5,1.26,1.05,1.63,1.6.19.28.81,1.36.82,1.61.06.94.5.35.81.8,1.84,2.65,4.21,5.47,4.93,8.83,2.57,1.33,4.08,4.36,4.9,5.6.59.9.83.96,1.63,1.6.24.19-.13,1.32.02,1.61.05.1.71-.08.81,0,.27.22-.2,1.33.02,1.61.78,1.03,2.33,2.16,3.26,3.2.55.6,1.09.89,1.63,1.6,1.27,1.67,2.38,2.84,3.27,4,1.92,2.51,3.98,3.66,5.7,5.6.51.57.39,1.86.83,2.41.54.68,1.86.93,2.44,1.59,1.1,1.27,1.15,2.14,1.64,3.21.09.2,1.43.58,1.62.79,1.2,1.27,2.06,2.75,3.27,4,1.13,1.18,3.56,1.79,3.27,4,2.19.76,3.91,1.99,4.08,4.8-1.36,3.54-5.09,6.39-7.19,8.14-.27.23.25,1.34.02,1.61-1.21,1.38-2.72,2.7-4,4.07-.68.74-1.7.94-2.4,1.64-.96.96-.17,3.53-2.4,2.44.23,2.36-1.8,2.5-1.57,4.86-3.7,1.43-3.89,6.31-8,7.34.46,3.92-3.4,3.6-3.16,7.29-2.21-.57-1.61,1.62-3.21,1.65-1.54,4.31-5.1,7.17-7.97,10.57-.84.99-2.37,2.75-2.39,3.25-.09,2.07-2.33.88-2.4,2.44-.06,1.5-3.41,4.17-3.99,4.88-1.48,1.82-2.43,3.8-3.98,5.69-1.37,1.67-3.41,3.23-4.8,4.89-.64.77-.93,2.41-1.58,3.24-1.22,1.55-3.92,2.38-4,4.07-.04.94-.5.36-.8.81-.62.95-.83,2.41-1.58,3.24-1.51,1.67-3.48,3.02-5.61,4.09.91,3.49-4.69,5.28-4.77,7.31-.07,1.59-2.33,1.89-2.39,3.25-.04.91-.57.39-.8.82-2.23,4.1-5.01,5.85-7.98,8.95-2.26,2.35-4.2,4.9-6.39,7.33.05,1.75,1.22,2.87,1.65,4.02.5,1.34.22,2.31.84,3.22.45.66,1.9.95,2.44,1.59.07-1.98,2.66-.2,2.43.78-.13,4.76,2.61,6.58,4.93,8.83.72,2.57-1.25,2.51-1.58,4.05,2.65,2.46,6.29,3.91,6.54,8.82,1.61.8,3.46,1.36,4.07,3.19l.04,4.04c1.77,1.17,2.75,3.19,4.08,4.8.96,1.16,2.39,2.15,2.45,3.2.07,1.14,1.89.9,2.44,1.59-.24,1.87.16,3.1.85,4.03,2.95,1.88,5.13,4.55,8.93,5.56,1.01,1.69,2.26,3.12,3.27,4.81,4.58.49,5.77,4.44,10.54,4.74,1.13,1.02.39,3.95,2.46,4.01.54-2.93,5.87-1.17,8.86-1.7.23-1.53,1.59-2.23,2.39-3.25.8-1.02,2.45-4.02,3.19-4.07.93-.06.36-.38.8-.82,1.24-1.23,1.9-2.89,2.38-4.06.37-.89.77-1.24.78-2.43,2.99-.48,3.98-3.78,5.6-5.7.33-.39,1.25-.43,1.61-.82.57-.63.23-1.73.78-2.43.96-1.23,2.51-1.77,3.2-3.26,1.41-1.85,2.49-3.86,3.98-5.69.68-.84,1.58-1.57,2.4-2.44.13-.14.66.12.81,0,.27-.23-.25-1.34-.02-1.61.23-.27,1.36.25,1.61-.02.27-.28-.26-1.31-.02-1.61,1.18-1.48,4.74-4.65,4.79-5.7.06-1.48,1.74-1.89,2.4-2.44.24-.21-.18-1.32-.02-1.61.22-.41,1.25-1.22,1.6-1.63,1.03-1.24,1.99-2.02,3.2-3.26.53-.54,1.07-1.09,1.6-1.63.6-.61,1.89-.99,2.41-1.64.38-.46-.28-1.87-.02-2.42.3-.65,1.86-.37,2.41-.83.23-.19-.15-1.32-.02-1.61.05-.1.71.07.81,0,.27-.22-.23-1.33-.02-1.61,1.07-1.42,3.37-2.41,4-3.27.54-.73.27-1.79.78-2.43,2.04-2.53,4.52-4.95,6.39-6.52.26-.22-.21-1.32-.02-1.61.24-.37,1.32-.44,1.61-.82.54-.74.24-1.78.78-2.43,2.21-2.64,4.94-4.24,7.2-6.53-.69-2.27,1.12-2.1.77-4.04,2.59.28,1.95-1.43,2.4-2.44.1-.22,1.41-.58,1.61-.82,1.21-1.49,1.92-3.47,3.18-4.87,2.55-2.83,5.6-5.11,8.81-7.35.33-1.54,2.29-1.48,1.57-4.05,2.83.12,2.63-2.75,4.81-3.27.61-3.4,2.94-5.11,6.4-5.71,2.6,1.61,4.55,4.14,6.52,6.39,1,1.15,2.29,2.04,3.26,3.2.52.62.38,1.84.83,2.41,1.82,2.33,4.62,2.94,6.5,4.78.64.51.28,1.79.83,2.41.47.53,1.97.27,2.43.78.5.56.41,1.87.83,2.41.3.39,1.24,1.23,1.63,1.6,2.53,2.41,5.32,3.49,7.33,6.39,1.05,1.52,2.26,3.34,2.48,5.63,1.45.93,2.38,1.69,3.25,2.39.27.22-.21,1.33.02,1.61.25.31,1.3.53,1.62.79.27.22-.21,1.33.02,1.61.55.67,1.93.88,2.44,1.59.47.65.48,1.84.83,2.41.13.21.57.42.81.8.55.85.95,1.7,1.64,2.41.69.71.99,1.6,1.64,2.41.13.16-.13.65,0,.81.21.26,1.41-.28,1.61-.02.55.7.28,1.64.83,2.41.48.67,1.92.92,2.44,1.59.26.33-.16,1.23.02,1.61.1.22,1.42.56,1.62.79.65.77.99,1.64,1.64,2.41,1.23,1.45,2.7,2.46,4.08,4,.26.29-.15,1.25.02,1.61.38.83,2.92,1.32,3.24,1.58.26.21-.25,1.42.02,1.61.58.42,1.92.51,2.43.78.91.48,1.49,1.3,2.44,1.59,1.94.61,3.66.98,5.65-.05,2.27.32-2.05-2.99.78-3.24,2.2,1.02,4.5,1.93,8.09,1.54,2.85-.4,2.8-3.65,6.43-3.29.76-1.51-2.44-2.67-.03-3.23,2.77-2.23,6.06.46,9.68-.09,1.36-1.6,2.44-3.47,4.8-4.08,3.61-1.79,8.16-2.66,12.07-4.15.25-.83,1.07-1.06,1.6-1.63.52-.57.6-1.52,1.6-1.63,1.52-.91,3.8-1.07,5.63-1.67,0-1.6,2.19-1.05,1.58-3.24.48-1.12,3.11-.15,3.21-1.65,1.61-1.89,2.9-4.08,5.6-4.9-.71-3.63,3.78-2.16,2.36-6.48,2.29.65,2.08-1.16,4.03-.85.78-4.87-.27-6.62,1.51-10.51-1.15-.18-1.38-1.32-2.44-1.59l-.05.02Z"/>
  <path class="st0" d="M1250.37,559.53c1.93,1.45,3.48,3.26,4.78,4.96,1.29,1.71,2.33,3.31,3.27,4.32,4.51,4.85,7.5,6.28,10.72,10.02,1.34,1.55,3.35,4.17,5.64,7.29,2.26,3.14,4.86,6.76,7.4,10.3,5.1,7.06,10.07,13.74,12.18,15.42,3.61,2.81,5.88,8.17,8.28,11.1.81.98,2.31,1.43,3.18,2.35,1.33,1.4,2.07,3.93,4.13,5.55,2.28,1.82,1.1,2.34,2.5,4.41.58.85,2.47,1.53,3.16,2.38,4.16,5.16,7.65,9.97,11.77,15.17,5.31,6.84,10.54,13.42,13.62,18.12.34.52.1,1.09.44,1.61.58.88,2.48,1.53,3.14,2.42,3.23,4.48,5.79,8.54,7.92,11.36.38.51,1.17.71,1.55,1.22.64.85.23,2.36.85,3.23,2.55,3.57,6.72,5.6,5.93,8.51l6.15,4.95c1.09,1.75,2.22,3.51,3.38,5.26l1.75,2.62c.38.55.37.57.5.79l.32.53c.87,1.41,1.78,2.79,2.69,4.14,1.82,2.7,3.57,5.3,4.76,7.84,1.03,2.16,2.74,4.54,3.47,5.86.51.93-.04,1.85.38,2.89.62,1.55,2.62,3.22,1.76,5.23,3.15-1.26,1.2,2.41,2.08,3.51.43.54,2.77,1.28,4.1,2.42.09.08-.22.74-.16.86.16.32,1.41.37,1.69.63.1.09-.23.73-.16.86.45.96,8.19,3.26,9.31,3.52.81.19,1.2-.43,1.86-.22.8.26.76-.56,1.01-.54,3.28.29,4.8,1.71,6.1,1.4,2.88-.68,5.78.04,7.46-.84.68-.36,1.41-.62,2.03-1.07,3.04,1.82,3.93-.07,6.98,1.76.56-2.07,2.85-2.04,4.23-2.99.56-.38,1.53-.56,2.03-1.06.33-.33.04-1.34.33-1.72.15-.19,1.62-.04,1.87-.2,2.24-1.44,4.83-2.76,6.26-4.05.8-.73,1.38-1.35,2.2-1.93.6-.42,1.38-.57,2.04-1.06.66-.49.97-1.29,2.03-1.06-.32,1.47.25,2.47,1.23,3.26.25-2.62,2.43-1.9,2.68-4.52,1.36.44,1.69.36,2.04-1.06.3-1.25,2.57-1.89,3.21-2.46.97-.85.79-1.59,1.5-3.13.83-1.82,4.54-2.51,3.85-5.93,1.29-.44,3.32.4,4.61-.04,1.99-3.42,3.34-7.95,6.35-9.62-1.77-2.76.77-5.35.54-8.2-.07-.9-2.93-2.8-1.11-4.18-.81-2.22-4.34-3.01-4.55-5.55.06-2.93,2.99-.94,2.64-4.58-3.45-2.1-4.61-6.21-6.77-9.15-1.21-1.64-2.55-2.61-3.89-4.3-1.1-1.38-1.71-3.99-3.89-4.3-.11-3.52-3.56-7.5-4.93-9.34-.25-.35.52-1.4.27-1.75-.39-.57-2.08-1.46-2.47-1.85-.53-.53-1-1.16-1.43-1.81l-.63-.99-.31-.49-.15-.24-.14-.2-.21-.3c-2.2-3.17-4.3-6.06-6.34-7.81-1.6-1.37-3.77-4.43-5.96-7.6-2.19-3.17-4.35-6.48-5.83-8.41-3.67-4.79-7.91-9.74-11.4-14.29-2.85-3.65-5.21-8.12-6.72-10.4-.59-.89-2.52-1.64-3.21-2.52-1.24-1.57-2.86-4.15-4.17-5.83-4.03-5.16-7.23-9.26-10.03-12.84-3.54-4.53-8.48-12.03-10.57-14.46-2.42-2.77-5.48-3.62-7.04-6.55-2.4-5.22-8.09-9.2-9.6-14.76-5.8-5.47-10.89-11.17-15.55-17.05-2.34-2.93-4.57-5.92-6.79-8.89l-6.61-8.93c-5.19-5.96-12.32-11.14-14.95-18.08-2.27-2.63-4.66-6.34-6.94-9.01-4.09-4.78-8.02-9.26-12.29-13.82-1.64-1.77-3.4-3.77-4.97-5.65-.97-1.16-1.49-2.1-2.37-3.24-2.17-2.79-5.34-6.1-7.67-8.77-1.9-2.14-4.49-5.15-6.54-6.85-.66-.55-1.19-.82-1.88-1.38-2.17-1.78-4.43-4.78-5.74-6.95-1.49-2.48-2.75-4.91-4.21-7.36-1.48-2.43-3.17-4.88-5.52-7.43-2.31-2.53-4.62-5.07-6.93-7.61-1.36-1.49-2.6-2.91-3.96-4.11-.61-.54-1.38-1.08-2.04-1.66-4.07-3.57-8.19-7.1-12.18-11.17-1.85-1.88-3.66-4.14-5.52-5.91-.46-.44-.94-.68-1.36-1.07-.89-.83-1.59-1.6-2.44-2.52-.51-.54-1.02-1.08-1.52-1.62-.15-.18-.28-.38-.31-.63-.07-.51.34-1.13.4-1.51.01-.09-.1-.13-.07-.23.04-.11.3-.27.36-.37.06-.1.1-.21.1-.3,0-.08.01-.13-.04-.17-.16-.14-.31-.22-.88-.33-.65-.14-.18-.27-.28-.43-.04-.06-.17-.13-.28-.2-.04-.03-.13-.07-.11-.1.04-.03.1-.05.19-.08.33-.08.69.01,1.55.07.78.06.71,0,.51-.11-.21-.11-.55-.3-.51-.35.15-.19.76-.21,1.13-.21.4-.01.57,0,.35-.5-.06-.14-.08-.26-.07-.36,0-.05.01-.1.03-.14-.12.08.32-.28.58-.5l.88-.72c2.35-1.91,4.8-3.77,7.21-5.54,4.82-3.53,9.49-6.66,12.92-9.01.88-.61,1.54-2.53,2.42-3.21,4.52-3.44,9.55-6.95,14.2-10.43,2.48-1.86,4.83-2.85,7.3-4.65,3.39-2.46,5.7-7.12,8.52-6.26,3.13-4.57,7.41-6.02,10.53-10.59,9.59-4.99,17.38-14.82,27.18-19.25,5.03-7.54,12.27-9.13,17.42-16.36,3.56-.15,5.68-4.16,8.93-5.13,9.63-9.48,21.11-17.23,32.03-25.67,3.19-2.46,8.92-6.84,9.73-7.86,3.32-4.17,6.01-3.11,8.52-6.25,2.41-3.03,13.18-10.28,15.41-12.03,5.74-4.49,10.66-8.98,16.62-13.63,5.28-4.12,11.74-8.4,17.03-12.51,2.45-1.9,5.53-5.34,8.1-7.38,4.8-3.79,11.47-7.01,14.2-10.43,1.51-1.89,1.55-1.01,2.84-2.09,2.68-2.24,5.33-5.28,8.1-7.38,5.56-4.2,11.56-8.02,17.45-11.39,3.48-6.42,17.41-13.22,20.67-17.32,2.57-3.22,7.54-5.12,9.73-7.86.37-.46.66-.76.91-.97.15-.12.19-.14.23-.16.05-.02.1-.03.14-.03.19-.01.39.04.59-.17,3.89-4.1,7.52-5.57,11.87-8.48,3.29-2.2,6.31-4.66,9.55-6.96.58-1.9-.28-3.28-.33-4.58-.06-1.52.6-2.53.26-3.6-.25-.78-1.71-1.31-2.06-2.08-.79,2.12-2.95-.18-2.34-1.21,1.87-5.11-.44-7.48-2.13-10.26.16-2.88,2.26-2.52,3.17-4.14-1.98-3.04-5.37-5.15-3.88-10.48-1.45-1.1-3.25-1.98-3.24-4.04l1.42-4.36c-1.49-1.52-1.82-3.85-2.67-5.79-.62-1.4-1.8-2.68-1.49-3.82.34-1.24-1.72-1.25-2.05-2.08.94-1.99.95-3.37.54-4.47-2.5-2.47-3.9-5.67-7.63-7.33-.48-1.97-1.31-3.71-1.8-5.68-4.77-1.2-4.63-5.64-9.67-6.67-.86-1.27,1.01-4.32-1.21-4.69-1.65,3.08-6.76.39-10.19.52-.8,1.61-2.52,2.17-3.76,3.16-1.23.99-4.11,3.98-4.92,3.92-1.03-.07-.53.36-1.16.76-1.78,1.14-3.1,2.84-4.04,4.03-.72.91-1.28,1.22-1.73,2.51-3.4.07-5.67,3.49-8.11,5.33-.5.38-1.51.28-2.03.65-.85.6-.88,1.83-1.73,2.51-1.48,1.18-3.35,1.54-4.63,3.04-.69.61-7.83,6.75-13.21,10.94-2.63,2.06-5.54,4.03-8.52,6.26-.47.35-1.14.15-1.63.48-.88.61-1.53,2.52-2.42,3.21-.88.68-2.34.3-3.25.96-.97.71-1.46,2.45-2.42,3.21-4.63,3.64-16.57,12.01-18.25,14.12-2.38,2.99-6.36,4.78-8.52,6.26-.8.55-1.65,2.52-2.42,3.21-1.08.96-4.36,3.15-5.68,4.17-3.94,3.06-7.05,5.18-11.36,8.34-1.89,1.38-3.79,2.78-5.68,4.17-2.12,1.56-5.28,3.07-7.31,4.65-1.46,1.14-2.28,3.56-3.64,4.81-1.58,1.46-4.27,1.8-6.09,3.05-.76.52-1.7,2.54-2.42,3.21-.25.23-1.32.27-1.63.48-.87.6-1.55,2.51-2.42,3.21-4.3,3.44-10.42,6.76-12.98,8.82-2.18,1.76-3.26,3.72-5.26,5.29-7.94,6.23-16.57,12.48-22.71,16.68-.85.58-1.59,2.51-2.42,3.21-1.05.87-3.31,1.63-4.47,2.57-2.21,1.79-3.2,3.69-5.26,5.29-8.43,6.53-16.34,11.31-24.34,17.17-2.08,4.13-5.43,4.83-7.69,8.5-4.75.93-6.07,3.97-8.52,6.25-.54.5-3.71,1.97-4.46,2.57-4.7,3.67-9.14,8.03-13.79,11.55-9.41,7.12-18.98,13.42-28.81,19.73-3,3.26-6.84,4.28-9.31,8.98-5.5,1.41-9.45,7-14.61,9.31-6.39,7.12-13.66,11.88-21.5,15.08-1.99,1.57-3.94,3.03-5.87,4.43-.97.7-1.92,1.39-2.88,2.07l-1.43,1.02-.81.58-1.32.98c-7.04,5.24-14.16,10.54-21.7,16.48-2.68,2.11-6.66,5.1-9.35,7.36-2.94,2.47-3.66,3.39-5.67,5.61-1.99,2.19-3.05,3.43-6.39,5.72-1.44.98-2.26,1.32-3.86,2.46-1.36.97-2.66,2.07-3.96,3.09-3.02,2.38-6.18,4.82-9.09,7.2-3.39,2.78-5.51,4.96-8.54,7.53-3.03,2.58-6.42,5.15-9.87,7.72l-2.6,1.93-1.3.96c-.1.08-.22.16-.32.24l-.14.12s.06.09.09.14l.51.56c1.36,1.49,2.73,2.96,4.13,4.42,7.18,7.48,13.4,14.53,20.45,21.97,4.11,4.35,8.66,8.87,12.85,13.21,2.38,2.47,5.1,5.18,7.3,7.63,2.4,2.68,4.35,5.24,6.96,8.09,4.1,4.48,8.21,8.89,12.38,13.3,2.09,2.2,4.19,4.4,6.3,6.62.95,1,1.91,2,2.87,3.01.55.59,1.1,1.19,1.66,1.78,1.51,1.63,3.14,3.52,4.72,5.08,1.12,1.1,1.53,1.32,2.64,2.16,1.3.98,1.92,1.95,3.06,3.04.55.53.98.75,1.51,1.22,1.94,1.73,3.73,3.95,5.41,5.92,4.44,5.3,7.65,10.62,11.78,15.99,3.25,4.23,6.44,8.22,10.18,12.28,2.22,2.39,4.61,4.51,6.86,6.8,1.99,2.03,3.79,4.2,5.79,6.15,3.2,3.1,6.22,6.85,9.26,10.29,1.77,2.01,2.47,3.08,3.98,5.25.99,1.42,1.36,1.95,2.66,3.06,1.3,1.11,2.59,1.66,3.95,2.93.98.92,2.03,2.23,2.96,3.32,2.56,3,4.76,5.69,6.99,8.77.81,1.12,1.37,2.24,2.17,3.35.74,1.03,1.73,1.99,2.44,2.98.76,1.06.19.42,1.29,1.69Z"/>
  <path class="st1" d="M405.54,610.89c-59.42-84.24-112.87-172.98-154.91-267.11-11.99-26.85-23.25-55.2-21.98-84.58s18.4-60.03,46.68-68.07c29-8.25,60.3,9.87,76.91,35.04s21.84,55.93,26.69,85.69c6.96-49.68,43.45-94.06,90.85-110.49,16.01-5.55,33.86-8.03,49.79-2.26,11.57,4.19,21.62,12.83,26.77,24,12.98,28.19,26.24,57.72,25.02,88.73-1.11,28.49-14.35,54.94-27.75,80.12-42.27,79.41-89.01,156.44-138.08,218.93Z"/>
  <path class="st2" d="M643.88,272.75c28.97-6.72,56.82-18.28,82.03-34.05"/>
  <path class="st2" d="M643.87,380.22h65.09"/>
  <path class="st2" d="M621.83,478.66c26.55,26.28,53.09,52.56,79.64,78.83"/>
  <path class="st2" d="M193.05,488.99c-36.92,19.88-72.26,42.67-105.6,68.1"/>
  <path class="st2" d="M148.64,400.03h-56.6"/>
  <path class="st2" d="M38.38,252.42c37.69,8.74,74,23.43,107.17,43.34"/>
</svg>