<?xml version="1.0" encoding="UTF-8"?>
<svg id="Ebene_1" xmlns="http://www.w3.org/2000/svg" version="1.1" viewBox="0 0 2999.86 800">
  <!-- Generator: Adobe Illustrator 30.4.0, SVG Export Plug-In . SVG Version: 2.1.4 Build 226)  -->
  <defs>
    <style>
      .st0 {
        fill-rule: evenodd;
      }

      .st0, .st1 {
        fill: #e5b969;
      }

      .st2 {
        fill: none;
        stroke: #e5b969;
        stroke-linecap: round;
        stroke-linejoin: round;
        stroke-width: 48px;
      }
    </style>
  </defs>
  <g>
    <path class="st2" d="M2118.31,595.88c-11.65-159.21,13.21-320.99,72.13-469.36,83.07,162.6,140.82,338.09,170.56,518.24"/>
    <path class="st2" d="M2121.42,431.65c24.67,0,166.01-3.08,190.68-3.08"/>
  </g>
  <g id="xj9tua">
    <g>
      <g>
        <path class="st1" d="M197.71,42.03c10.64,3.01,17.16,10.92,19.84,21.89l4.65,19.06,3.45-21.44c1.59-9.9,9.81-15.63,18.39-19.5h11.95c9.25,3.4,17.37,10.42,18.88,21.09l2.75,19.45,6.93-24.5c2.38-8.41,10.17-12.9,17.23-16.05h12.49c8.3,3.8,18.42,11.03,18.46,22.24l.32,105.56c136.75-113.86,341.33-82.12,437.74,66.63l.54-48.18c3.15-61.17,27.44-118.53,82.95-146.25h9.47c5.87,3.32,13.85,8.09,13.85,17.04l-.2,655.49c0,19.51-18.07,34-34.26,37.69-27.66,3.12-48.25-17.38-47.38-44.36l6.98-215c-40.47,116.98-146.09,195.69-269.55,200.17-91.85,3.33-179.79-35.42-239.13-107.44l2.55,118.27c.57,26.59-19.34,47.94-45.49,48.6s-48.17-20.12-47.58-47.37l9.42-435.4c-25.18-13.53-41.52-38.09-45.78-65.74V61.46c3.11-9.6,9.83-16.33,20-19.4l10.53-.03h0ZM309.28,194.57l-1-130.32c-10.04,29.92-15.09,57.71-22.85,86.25-1.66,6.09-5.97,9.94-12.18,9.88-4.57-.04-10.08-3.68-10.96-9.26-4.52-28.82-5.85-56.72-12.28-86.97-5.85,29.11-7.8,56.61-11.74,84.86-.83,5.95-4.33,10.15-9.61,11.16-4.24.81-11.21-1-12.61-6.15l-24.42-89.92-.59,130.48c-.12,26.06,16.39,47.7,39.48,57.33,4.09,1.7,6.37,6.19,6.27,11.03l-9.53,444.6c-.27,12.78,12.01,20.93,22.59,20.99,10.51.06,23.3-7.77,23.02-20.72l-9.52-444.76c-.12-5.8,2.98-9.84,7.7-11.71,23.39-9.28,38.43-31.17,38.23-56.77h0ZM817.44,432.98c6.55.26,11.36,5.51,11.13,11.99l-9.07,265.64c-.35,10.35,6.86,17.19,16.18,18.09,6.89.67,18.16-5.64,18.16-15.77l.09-643.52c-40.62,25.61-58.95,78.66-59,125.44l-.23,214.72c-.01,13.13,9.11,22.87,22.74,23.42h0ZM539.48,669.03c125.7-7.58,228.09-99.82,250.17-221.72-11.69-9.09-18.66-21.94-18.68-37.7l-.13-122.69c-33.8-79.37-106.38-136.3-185.61-154.62-93.41-21.6-185.38,5.23-252.62,69.77-2.9,29.83-19.02,54.22-45.8,68.29l7.16,273.23c50.59,84.53,147.6,131.34,245.51,125.44h0Z"/>
        <g>
          <path class="st0" d="M286.97,424.32c.34,9.71.52,19.66.68,25.32.42,13.46.62,20,.93,30.01.2,8.43.66,27.11,1.09,45.04.11,4.48.21,8.91.32,13.13.03,1.05.05,2.09.08,3.12,0,.51.02,1.02.04,1.52,0,.45.02.9.03,1.35.03.47-.07.98.29,1.35,1.2,1.92,2.35,3.77,3.44,5.53,1.89,3.14,3.8,5.79,5.29,8.03,1.49,2.25,2.76,3.95,3.59,5.05,1.41,1.85,2.83,3.89,4.4,5.88,1.56,1.98,3.16,4.01,4.74,6.02,3.27,3.89,6.4,7.69,9.13,10.56.86.92,1.78,1.9,2.74,2.93.91.97,1.89,1.88,2.81,2.83,1.43,1.42,2.99,3.09,4.74,4.8,1.77,1.69,3.66,3.49,5.62,5.31,4.48,3.91,3.9,3.55,7.83,6.97,1.57,1.27,4.57,3.67,6.24,5.01,10.89,8.59,21.2,15.55,33.23,22.48,7.83,4.56,15.84,8.5,23.22,11.87,1.86.82,3.67,1.62,5.42,2.4s3.5,1.43,5.15,2.12c1.66.66,3.24,1.33,4.77,1.91,1.53.56,2.99,1.1,4.37,1.61,1.06.41,1.96.75,3.02,1.16,2.07.74,5.43,1.71,7.6,2.44,10.99,3.5,20.72,5.84,27.94,7.39,1.31.28,2.62.46,3.93.72,2.19.4,4.13.91,6.35,1.28,4.53.71,8.92,1.39,12.69,1.77,1.89.23,3.56.43,5.09.61,1.49.14,2.76.28,3.73.42,2.66.21,5.31.45,7.97.53,2.66.1,5.32.3,7.98.31,2.15.06,4.32.11,6.49.17,2.17.06,4.35-.01,6.54-.01,2.19-.01,4.38-.02,6.57-.14l1.08-.04h.49c.27,0,.53,0,.76.03.2.03.44.01.56.02.09,0,.13.08.22.1.14.03.34-.04.44.11.05-.27.22.02.34.01.06,0,.21-.13.35-.17,0,0,.04.05.05.05.03,0,.09-.08.12-.09.01,0,.04.05.05.05.09.01.59-.41.66-.48.05-.05.02-.1.07-.13.05-.04,0-.08,0-.09.16-.21.33-.25.36-.35.08-.22.25-.39.26-.54,0-.06.02-.12.01-.18.26-.13.16-.27.42-.39-.12-.13-.02-.28-.03-.41,0-.05.03-.13.01-.18,0-.04-.09-.06-.11-.1,0-.02.07-.11.07-.13,0-.21.01-.44-.02-.6-.02-.09-.04-.15-.04-.23,0-.06.02-.12.01-.18,0-.07-.05-.12.01-.18.09.08.18.09.27.06-.17-.13-.03-.25-.2-.37.09-.07.09-.1.01-.18-.07-.07-.02-.25-.03-.32-.02-.1-.08-.12-.15-.24-.09-.13.02-.41-.24-.51.02-.11.16-.21.19-.31-.15-.28-.4-.57-.39-.84-.26,0-.33-.28-.52-.39-.06-.03-.31.08-.32-.11-.18-.04-.38.16-.55.07-.19-.13.06-.24-.19-.38-.28.14-.6.04-.88.05-.16,0-.28.06-.44.07-.14.01-.33-.06-.44.07-.23-.15-.64-.09-.82-.08-.03,0-.07-.1-.1-.1-.05,0-.18.07-.23.08-.06.01-.12.01-.18.01h-.16l-1.05.04c-.95.04-1.89.08-2.81.11-.93,0-1.84.02-2.75.03-1.8.02-3.55.04-5.22.06-3.34-.02-6.38-.12-8.96-.14-2.02-.04-4.87-.23-8.16-.4-1.65-.07-3.4-.25-5.21-.41s-3.68-.33-5.57-.51c-7.52-.87-15.19-2.02-19.88-2.91-11.67-2.08-24.12-5.2-34.84-8.66-8.71-2.68-17.77-6.45-22.72-8.48-1.8-.77-5.24-2.25-7.14-3.07-1.8-.79-4.01-1.92-6.26-2.99-2.27-1.06-4.5-2.26-6.35-3.23-11.4-5.97-20.05-11.48-27.42-16.5-2.29-1.65-4.95-3.47-7.61-5.48-1.32-1.01-2.67-2.05-4.01-3.08-.67-.52-1.34-1.03-2.01-1.54-.65-.53-1.29-1.06-1.93-1.59-5.14-4.13-9.55-8.16-11.9-10.23-2.61-2.49-4.91-4.52-7.03-6.59-2.09-2.1-4.17-4.08-6.33-6.45-1.82-2.05-3.79-4.13-5.71-6.34-1.88-2.24-3.86-4.48-5.74-6.78-1.83-2.34-3.7-4.63-5.41-6.91-1.58-2.21-3.13-4.36-4.78-6.67-1.1-1.6-2.19-3.19-3.27-4.78-.54-.79-1.08-1.59-1.62-2.37-.53-.79-1.03-1.61-1.54-2.42-.98-1.56-1.96-3.12-2.93-4.66-.07-.1-.09-.12-.08-.2l-.03-.92c-.03-.96-.05-1.91-.08-2.87-.21-7.65-.41-15.18-.61-22.65-.36-14.92-.72-29.62-1.08-44.35-.42-15.71-1.05-32.77-1.21-46.71-.17-6.9-.38-15.65-.55-22.61-.34-12.51-.65-24.37-.99-36.81-.13-4.81-.27-10.1-.4-14.98-.07-2.99-.12-5.1-.18-7.96-.18-7.04-.42-16.14-.61-23.19-.16-5.68-.37-13.5-.52-18.84-.06-1.66-.1-2.82-.16-4.55-.18-5.53-.35-12.98-.44-17.92-.03-1.41-.05-2.8-.08-4.18l-.02-1.03v-.16c.02-.06-.03-.15.05-.17l.17-.07,1.86-1.03c1.26-.65,2.43-1.49,3.67-2.25,4.87-3.14,9.84-6.81,14.92-11.93,5.04-5.06,9.47-10.77,13.1-16.92,1.08-1.81,1.99-3.63,2.94-5.36.84-1.79,1.63-3.54,2.4-5.26.59-1.57,1.28-3.38,1.91-5.07,1.77-5.32,3.1-10.76,4.01-16.35.18-1.4.35-2.81.53-4.22.02-.13,0-.03,0-.1,0-.03,0-.06.04-.08l.84-.79c2.01-1.85,3.97-3.8,6.1-5.61,1.96-1.69,3.95-3.53,6.04-5.23s4.12-3.44,6.1-5c.96-.76,1.78-1.4,2.64-2.07,1.88-1.47,3.48-2.73,5.5-4.17,1.52-1.11,3.03-2.21,4.54-3.31,1.54-1.05,3.07-2.1,4.59-3.14l2.29-1.56,2.33-1.49c1.55-.99,3.1-1.97,4.65-2.96,6.37-3.81,11.93-7.01,18.42-10.27,1.51-.76,3.08-1.63,4.63-2.34,1.76-.82,3.24-1.52,4.93-2.31,1.76-.87,3.93-1.75,6.1-2.72,1.09-.48,2.19-.95,3.26-1.42,1.08-.44,2.13-.86,3.12-1.25,1.67-.67,3.23-1.32,4.75-1.9,1.53-.56,3-1.11,4.47-1.65,2.92-1.13,5.9-2.06,9.24-3.19,3.73-1.23,6.53-1.98,9.28-2.82,2.79-.72,5.54-1.49,9.3-2.4,5.58-1.33,11.89-2.68,17.44-3.59,5.22-.85,2.69-.41,5.19-.77,1.31-.17,3.08-.4,5.24-.68,1.11-.15,2.32-.31,3.58-.48,1.26-.13,2.58-.27,3.92-.4,1.33-.14,2.68-.28,4-.42,1.32-.12,2.62-.2,3.84-.29,2.46-.16,4.63-.38,6.23-.4,10.89-.53,21.82-.35,32.57.44,10.75.81,21.33,2.25,31.56,4.15,11.01,2.04,23.3,5.02,34.58,8.89,11.3,3.79,21.6,8.2,29.07,11.76,1.92.93,5.04,2.29,7,3.34,10.1,5.13,20.64,11.39,30.19,17.94,2.53,1.78,4.79,3.38,7.02,5.01,2.19,1.69,4.42,3.3,6.81,5.21,6.63,5.08,13.71,11.25,16.07,13.63,7.84,7.05,13.69,13.23,20.75,21.04,6.92,8.02,13.93,17.01,20.25,26.43,6.31,9.41,11.94,19.23,16.45,28.6.99,1.99,1.9,3.84,2.79,5.62.85,1.89,1.67,3.7,2.46,5.47l.43.97v8.99c0,7.72,0,15.41.1,24.04-.16,5.84,0,14.25-.1,20.64.04,13.72.07,27.43.11,41.29v26.13c-.01.84.03,1.83.05,2.76,0,.94.09,1.88.17,2.82.33,3.76,1.05,7.51,2.21,11.13.65,2.13,1.66,4.6,2.88,7.11,1.28,2.48,2.78,4.97,4.4,7.15,3.22,4.38,6.71,7.48,7.74,8.38.13.12.26.23.39.35l.09.08h.02l.03.03.12.09c.06.05.19.13.19.16l-.02.09c-.06.28-.11.55-.17.81-.37,1.77-.7,3.32-1.01,4.82-.57,2.94-1.29,5.52-2.19,9.33-.45,1.83-1.1,4.78-2.15,8.19-1.02,3.42-2.08,7.39-3.47,11.21-.65,1.92-1.3,3.82-1.92,5.64-.6,1.83-1.33,3.51-1.92,5.07-1.22,3.1-2.16,5.61-2.71,6.91-5.57,13.43-11.59,25.29-19.48,38.15-1.77,2.83-3.71,5.71-5.62,8.68-1.96,2.94-4.12,5.82-6.18,8.76-1.02,1.48-2.17,2.87-3.26,4.29-1.1,1.41-2.19,2.82-3.28,4.22-1.06,1.42-2.22,2.73-3.33,4.05-1.11,1.32-2.21,2.62-3.29,3.9-.5.59-1.02,1.21-1.57,1.87-.57.63-1.17,1.28-1.78,1.96-1.22,1.35-2.51,2.77-3.81,4.2-.65.71-1.29,1.44-1.96,2.13-.68.68-1.34,1.36-2,2.03-1.32,1.33-2.58,2.61-3.73,3.77-.54.54-1.08,1.09-1.63,1.64-.57.53-1.15,1.06-1.73,1.6-1.16,1.07-2.33,2.15-3.51,3.24-1.19,1.07-2.33,2.2-3.55,3.22-1.21,1.03-2.42,2.05-3.6,3.05s-2.34,1.99-3.46,2.94c-1.13.95-2.28,1.8-3.35,2.66-2.12,1.68-4.04,3.2-5.77,4.57-3.78,2.78-2.99,2.14-5.7,4.1-2.78,2.1-5.91,4.11-8.99,6.18-3.05,2.12-6.26,3.98-9.23,5.78-11.94,7.11-24.68,13.3-37.14,18.2-1.67.68-3.42,1.4-5.3,2.17-1.98.78-4.18,1.5-6.47,2.33-4.57,1.71-9.73,3.15-14.75,4.67-2.52.72-5.06,1.3-7.48,1.94-1.21.31-2.4.61-3.56.9-1.16.3-2.3.5-3.39.74-2.19.46-4.21.89-6,1.27-.89.19-1.72.37-2.5.53-.76.13-1.46.26-2.1.37-2.04.35-4.1.71-6.22,1.07-1.08.17-2.16.38-3.26.52-1.09.13-2.19.27-3.28.4-2.18.27-4.32.53-6.34.77-2.02.28-3.93.35-5.62.53-1.17.1-1.98.17-2.61.23-.13.01-.26.02-.37.03h-.01s-.02-.02-.05-.01c-.43.1-.74.04-1.15.04-.31,0-.62.03-.93.04-.12.1-.13.23-.18.32-.06.1-.15.14-.18.23-.02.06.05.16.04.23.15-.11.18.14.1.18-.35.26-.31.52-.32.78-.14.18-.26.07-.39.14,0,.29.12.58-.22.87.05.14.12.28.03.41l-.29.23c.03.17-.06.34-.09.5-.02.12,0,.26-.08.32-.08.07.06.16.04.23-.15.09-.22.18-.24.27.05.28,0,.55.17.83-.06.15-.08.31-.14.46.26.29.05.58.33.87,0,.12-.27.24-.14.37.25-.13.47.27.7.42.13-.07.27-.03.4-.04.13-.01.46-.08.51-.04.07.05.05,0,.11,0,.17,0,.34-.05.45-.09.09-.03.14-.03.23-.09.23.15.54.02.78,0,.05,0,.11.05.17.05.08,0,.14-.08.23-.09.15-.01.29.05.45,0,.92-.08-2.97.23,7.48-.63,3.62-.45,7.25-.9,10.9-1.36,3.64-.52,7.29-1.2,10.98-1.8,6.73-1.29,13.76-2.76,21.12-4.74,1.01-.24,2.12-.51,3.15-.76,1.96-.61,5.56-1.74,7.61-2.38,1.09-.33,2.1-.61,3.1-.89,1-.3,1.99-.63,3.08-1.01,2.16-.78,5.3-1.91,7.5-2.7,2.82-1.07,6.65-2.62,10.92-4.29,2.09-.93,4.29-1.9,6.52-2.89,1.11-.49,2.23-.99,3.35-1.49,1.12-.49,2.19-1.07,3.28-1.59,2.16-1.07,4.28-2.12,6.27-3.1,2-.97,3.8-2.04,5.45-2.92,3.27-1.82,5.82-3.15,6.94-3.9,1.68-1.03,3.34-2.04,5-3.05,1.68-1.03,3.39-2,4.96-3.07,3.16-2.09,6.12-3.97,8.33-5.48,1.51-1.11,4.82-3.56,6.42-4.73.59-.44,1.46-1.04,2.44-1.78.96-.75,2.06-1.61,3.17-2.48,2.21-1.74,4.49-3.49,5.81-4.58,1.95-1.66,3.77-3.22,5.55-4.73.89-.76,1.76-1.5,2.63-2.25l2.51-2.32c1.68-1.55,3.37-3.12,5.15-4.76,1.74-1.68,3.51-3.5,5.45-5.43l2.54-2.55c.84-.86,1.64-1.77,2.46-2.65,1.63-1.78,3.26-3.55,4.88-5.32,3.52-4.09,8.14-9.36,11.29-13.59,1.16-1.51,2.41-3.13,3.61-4.78,1.21-1.74,2.4-3.45,3.41-4.9,2.61-3.55,5.24-7.51,7.72-11.29,1.09-1.55,3.07-5.12,4.09-6.85.32-.51,1.34-2.19,1.7-2.76,1.15-1.83,2.72-5,3.81-7.01,2.77-4.93,5.48-10.66,8.01-15.85,2.3-5.29,4.51-10.01,5.64-13.19,1.01-2.64,1.9-4.98,2.78-7.28.78-2.33,1.54-4.58,2.36-7.02.42-1.22.83-2.45,1.25-3.68.4-1.24.74-2.49,1.12-3.74.73-2.5,1.47-5,2.2-7.5.63-2.52,1.26-5.03,1.88-7.51.31-1.24.62-2.47.92-3.7.28-1.23.51-2.46.77-3.68.58-2.83,1.15-5.61,1.7-8.33l.32-1.56c0-.06.05-.14.01-.18l-.14-.12-.29-.24-.58-.47c-.77-.63-1.53-1.25-2.28-1.87l-.28-.23-.17-.15-.3-.27-.59-.54c-.38-.36-.8-.7-1.15-1.08-2.97-2.92-5.35-6.01-7.13-9-.99-1.65-2.58-4.57-3.26-6.51-.26-.58-.46-1.3-.71-2.06-.27-.75-.47-1.59-.68-2.42-.24-.83-.39-1.69-.55-2.5-.18-.81-.28-1.59-.38-2.29-.23-1.32-.28-2.56-.41-3.73-.05-1.19-.1-2.27-.12-3.45-.01-2.41-.03-4.72-.04-7.33.02-21.55.04-40.21.06-60.25-.17-8.49-.05-14.7-.18-22.89.17-8.73.04-14.64,0-21.39,0-.73.01-2.81.02-4.99,0-1.08.01-2.17.02-3.11v-1.28c-.01-.64.03-1.26-.02-1.68-.71-1.59-1.42-3.19-2.13-4.79-.64-1.4-1.23-2.84-1.92-4.22-.68-1.39-1.35-2.79-2.03-4.19l-1.02-2.09-1.08-2.06c-1.44-2.74-2.85-5.49-4.4-8.14-.75-1.33-1.5-2.66-2.25-3.98-.78-1.3-1.56-2.59-2.33-3.86-6.28-10.35-13.14-20.11-20.58-29.35-7.46-9.22-15.48-17.93-24.1-26.17-6.57-6.12-12.11-11.16-20.06-17.16-2.04-1.7-4.34-3.38-6.66-5.16-2.35-1.75-4.85-3.47-7.34-5.24-2.55-1.68-5.08-3.42-7.62-5.03-2.56-1.58-5.02-3.22-7.45-4.64-16.67-9.81-32.9-17.17-48.57-22.97-9.82-3.47-19.03-6.16-28.36-8.35-9.32-2.14-18.74-3.9-29.06-5.23-1.84-.22-4.09-.49-6.36-.77-2.27-.2-4.56-.4-6.48-.57-2.1-.2-3.5-.27-4.8-.33-1.28-.06-2.52-.12-4.27-.2-1.73-.1-3.09-.12-4.55-.14-1.48-.04-3.01-.08-5.16-.13-1.84-.07-2.61-.03-4.7-.05-1.79.01-3.68.03-5.49.04-4.21.16-8.55.26-12.72.61-4.86.29-8.53.78-13.05,1.24-9.01,1.09-18.33,2.65-27.05,4.57-11.19,2.49-21.51,5.43-32.12,9.18-3.09,1.15-6.28,2.24-9.38,3.54-1.56.63-3.13,1.26-4.68,1.89-1.54.67-3.07,1.34-4.59,2-3.49,1.47-7.26,3.35-10.59,4.92-1.81.88-3.52,1.78-5.26,2.66-1.75.88-3.51,1.79-5.37,2.84-11.78,6.45-22.78,13.54-33.71,21.69-1.83,1.42-3.78,2.93-5.73,4.43-1.96,1.49-3.81,3.11-5.61,4.57-2.54,2.08-3.2,2.7-5.34,4.6-1.28,1.13-2.33,2.06-3.39,2.99-1.06.95-2.08,1.93-3.29,3.05-1.33,1.25-2.16,2.03-3.38,3.18l-.69.64c-.11.11-.25.2-.33.33l-.06.47c-.08.64-.16,1.28-.24,1.93-.09.73-.18,1.46-.27,2.19-.08.66-.17,1.32-.25,1.99-.11.66-.24,1.32-.36,1.98-.26,1.32-.46,2.65-.78,3.94-.32,1.29-.64,2.56-.95,3.8-1.81,6.57-4.3,12.52-7.43,18.05-3.13,5.53-6.89,10.65-11.46,15.47-3.61,3.77-7.46,7.21-11.71,10.18l-1.57,1.15-1.65,1.06c-1.11.69-2.18,1.45-3.34,2.1-1.67.94-3.35,1.89-5.04,2.84-1.72.36-1.02,2.09-1.11,3.38.03,1.05.06,2.11.08,3.17.19,6.69.38,13.27.57,19.88.16,5.86.32,11.64.47,17.4.25,9.2.51,19.07.76,28.53.13,5.5.19,8.11.32,13.55.09,3.56.13,4.84.22,8.36.12,3.41.22,6.2.34,9.89.07,2.78.17,6.22.24,9.17.2,8.12.38,15.24.57,23.1.06,2.8.11,5.36.17,8.15.07,2.62.14,5.42.2,7.93.06,2.68.02.93.1,4.37l.06-.07Z"/>
          <path class="st0" d="M809.27,114.93c-3.54,7.24-6.61,14.9-8.1,19.35-1.81,5.34-2.94,9.29-3.84,12.93-.94,3.62-1.64,6.93-2.49,11.04-.65,3.42-1.67,8.93-2.43,15.46-.77,6.52-1.28,14.08-1.3,21.47-.06,14.5-.1,28.38-.06,32.77.08,7.42-.06,16.76-.06,23.08.02,1.93.05,4.44.07,6.37.01,3.21-.08,7.28-.03,11.54.05,4.74-.05,4.2-.07,8.35.02,1.56.06,4.72.07,6.37-.01,11.06-.03,20.94-.04,32.02-.02,14.44-.04,28.39-.06,37.8-.02.86-.04,1.73-.05,2.58.02,1.6.06,4.72.07,6.37-.02,9.19-.05,17.19-.06,23.07.01.96.03,2.23.04,3.19,0,1.78-.1,3.37-.11,5.17.02,3.59.03,7.2.04,10.23,0,2.68,0,4.17-.01,7.31l.05.91.13.91.27,1.81c.3,1.19.51,2.4.96,3.56.74,2.35,1.9,4.59,3.3,6.64,2.25,3.34,5.34,6.2,8.93,8.13,1.8.94,3.68,1.75,5.63,2.27l.96.26h.03l.06.03c.15.05.3.09.44.14.29.08.58.13.82.22.21.07.48.12.61.16.1.03.12.11.22.15.14.06.39.05.47.21.11-.25.24.08.37.09.06,0,.26-.07.42-.09.01,0,.04.05.05.05.03,0,.11-.07.15-.07.01,0,.04.05.05.05.1.02.72-.33.8-.38.06-.04.04-.1.09-.12.06-.04,0-.08.02-.09.21-.18.39-.2.45-.3.12-.21.32-.35.35-.5.01-.06.03-.12.04-.18.29-.09.21-.24.49-.34-.11-.14.01-.28.02-.41,0-.05.04-.12.03-.18,0-.04-.09-.07-.1-.11,0-.02.08-.1.08-.13.02-.21.06-.44.05-.59,0-.09-.02-.15-.02-.23,0-.06.03-.11.03-.18s-.03-.13.03-.18c.08.1.17.11.27.09-.15-.15,0-.25-.16-.4.09-.06.1-.09.03-.18-.06-.08,0-.26,0-.32,0-.1-.06-.13-.12-.25-.07-.14.06-.41-.17-.54.03-.1.18-.19.21-.29-.11-.3-.3-.61-.26-.88-.23-.03-.26-.32-.42-.45-.05-.04-.28.04-.27-.14-.15-.06-.36.12-.5,0-.15-.15.09-.23-.11-.39-.27.12-.52-.06-.77-.1-.14-.02-.25,0-.39-.02-.12-.01-.27-.12-.4-.01-.17-.19-.52-.21-.68-.23-.03,0-.03-.11-.06-.11-.04-.01-.17.02-.21.02-.05,0-.1-.02-.15-.03l-.07-.03h-.04l-.02-.02-.71-.19c-2.55-.72-4.8-1.89-6.59-3.28-1.8-1.39-3.15-2.97-4.13-4.43-.72-1.17-1.68-2.89-2.31-5.1-.13-.56-.26-1.14-.4-1.73-.12-.6-.17-1.23-.27-1.86-.09-.63-.07-1.3-.11-1.96l-.02-.5v-1.74c.02-6.2.04-12.56.05-16.48,0-9.71,0-20.22-.01-29.45.04-7.39.08-15.52.1-19.89-.02-1.56-.06-4.73-.07-6.37,0-3.22.02-8.12.03-11.53.01-10.55.02-18.94.03-26.26.03-9.25.06-23.68.08-28.85,0-5.92-.15-10.06-.1-15.32.12-8.98-.02-19.73.17-28.24-.02-6.45-.04-12.68-.07-18.8.02-6.17-.08-12.32.13-18.19.45-11.85,2.07-23.46,4.76-34.8,1.41-6.06,3.19-12.32,5.29-18.27,2.09-5.95,4.52-11.59,7.05-16.47,2.4-4.9,5.86-10.84,8.94-15.38,5.5-8.14,11.57-15.27,18.86-21.68.71-.61,1.42-1.26,2.17-1.88.76-.61,1.53-1.22,2.3-1.84,1.02-.82.95-.74,1.22-.94.19-.14.38-.28.57-.41.11-.06.2-.12.29-.17.02,0,.05-.04.05-.02v.09c0,.06,0,.12-.01.18v13.84c0,4.59.02,10.88.02,15.25.01,1.33.02,2.3.04,3.68.03,4.48,0,10.51-.03,14.5-.09,9.16-.22,17.03-.22,28.16v16.56c0,3.24,0,6.23.01,9.19,0,1.29.02,2.8.03,4.19.03,8.73.07,17.42.1,26.52v13.02c0,.99.01,1.86.02,2.75v5.66c0,6.16-.01,12.14-.02,18.22-.04,6.01-.07,11.42-.11,17.31v4.25c-.01,1.58-.03,2.96-.04,4.47,0,3.27-.02,7.7-.03,11.16.01,5.9.02,10.29.03,16.15,0,6.51,0,9.51-.01,15.85v14.62c-.01,4.34-.04,2.24-.08,4.31-.09,3.83.02,16.91.03,22.13,0,17.9-.12,35.81-.04,52.89.09,18.35,0,41.52-.05,55.11.02,1.59.06,4.72.08,6.37-.02,9.29-.03,19.35-.05,28.84-.03,5-.05,9.16-.07,14.12-.01,6.86.16,14.56-.03,17.31.13,8.66,0,15.63.14,24.28-.16,17.4.07,37.4-.14,54.5.22,14.12-.04,25.05.16,39.01-.17,4.73-.02,11.53-.12,16.7.02,11.15.04,22.2.06,33.4v11.61c0,.36-.04.52-.05.8-.02.25-.02.49-.05.74l-.16.72c-.06.49-.29.94-.43,1.42-1.45,3.7-5.62,6.89-9.88,7.95-.61.14-1.29.29-1.95.31-.35.05-.65.02-.96.01-.28.03-.76-.09-1.15-.13-1.65-.25-3.3-.77-4.69-1.48-2.83-1.41-4.42-3.57-4.82-4.22-1.75-2.67-2.04-4.89-2.11-6.82.01-.52,0-.93.01-1.51.03-.62.05-1.22.08-1.84.04-1.25.08-2.52.13-4.21.14-6.18.94-27.37,1.1-32.01.4-11.93.76-22.82,1.17-35.2.39-10.95.85-23.63,1.24-34.59.15-5.03.39-12.57.55-17.9.34-10.02.87-21.85,1.03-28.83.09-3.85.12-3.02.21-5.77.17-5.68.38-12.25.55-17.9.43-11.26.88-22.8,1.31-33.98.14-10.99,1.25-35.78,1.44-44.15.05-1.73.1-3.43.15-5.18.03-.89.06-1.8.1-2.71l.03-.68c0-.24.02-.41.02-.75-.01-.6.02-1.2-.07-1.8-.21-2.4-.99-4.74-2.17-6.69-1.17-1.96-2.73-3.5-4.3-4.58-1.06-.73-1.9-1.13-2.54-1.44-.14-.06-.27-.11-.39-.16h-.01s-.02-.04-.05-.05c-.58-.17-.93-.4-1.47-.58-.4-.14-.81-.27-1.23-.36-.19.05-.24.18-.33.25-.11.08-.24.09-.29.16-.04.05.02.17,0,.23.21-.06.19.2.07.21-.5.14-.51.41-.59.65-.21.14-.32-.02-.49.03-.06.28.02.59-.41.82.03.14.09.29-.04.41l-.35.17c0,.17-.11.32-.16.48-.04.12-.04.25-.12.3-.09.05.04.17.01.23-.16.06-.23.14-.26.23.02.28-.06.55.07.85-.07.14-.1.29-.17.43.19.33-.01.58.18.92-.02.12-.23.2-.14.34.2-.09.32.34.46.52.1-.05.2,0,.29,0,.09.01.33.02.36.07.03.06.04.01.08.02.12.04.24.02.33,0,.07,0,.1,0,.18-.03.11.21.35.17.52.22.03.01.06.08.09.09.06.02.12-.04.18-.02.1.04.16.14.28.16l.11.04h.03l.25.1.69.36c.89.52,1.68,1.2,2.31,2.02.63.81,1.1,1.75,1.38,2.76.13.51.24,1.02.28,1.56.04.56.05.98.02,1.8-.1,2.94-.2,5.9-.3,8.89-.2,5.46-.4,11.21-.62,17.29-.04.78-.1,1.79-.14,2.58-.03,1.59-.1,4.71-.14,6.37-.06,1.83-.21,3.31-.28,5.16-.04,1.78-.1,4.56-.14,6.37-.33,9.62-1.15,33.17-1.31,37.77-.14,6.1-.46,13.02-.62,17.3-.03,1.45-.1,4.83-.14,6.37-.08,2.36-.32,8.8-.41,11.54-.29,8.16-.51,14.32-.83,23.06-.14,3.83-.28,7.69-.41,11.53-.17,4.25-.39,9.97-.55,14.11-.06,2.76-.15,6.8-.2,9.55-.11,3.52-.35,7.31-.48,10.92-.03,1.38-.1,4.9-.14,6.37-.02.45-.11,2.08-.14,2.58-.03,1.57-.1,4.72-.14,6.37-.34,8.95-.76,20.3-.96,25.64-.13,4.49-.23,8.05-.34,12.14-.14,4.13-.29,8.31-.43,12.46-.07,2.07-.15,4.14-.22,6.18-.04,1.02-.07,2.04-.11,3.05-.01.52-.04.98-.05,1.53,0,.58.01,1.16.02,1.74.12,2.32.57,4.62,1.39,6.76.8,2.15,2.02,4.09,3.45,5.74,1.43,1.64,3.06,3.01,4.78,4.03,1.72,1.01,3.47,1.79,5.19,2.27.95.27,2.26.57,3.6.7.63.1,1.41.12,2.13.13.72.02,1.33-.09,1.9-.12,2.76-.24,6.82-1.72,9.2-3.3,2.29-1.45,4.01-3.06,5.43-4.87,1.41-1.81,2.57-3.84,3.31-6.42.14-.67.28-1.33.42-1.99.08-.67.11-1.34.16-2.01.03-.36.03-.63.03-.89v-2.39c0-2.11,0-4.2.01-6.26.01-4.11.03-8.14.04-12.13.02-7.98.05-15.81.07-23.9-.16-6.87-.03-11.89-.15-18.52.18-7.06.05-11.84.03-17.3,0-1.17.05-6.82.06-8.35-.01-9.76-.03-19.92-.04-29.45.07-19.21.13-37.93.19-57.08-.06-7.17.07-13.14-.1-21.09.18-8.5.03-19.25.14-28.24-.13-15.45-.07-29.62.12-42.96.03-16.59.05-30.6.08-47.19v-10.3c-.03-3.18-.04-4.34-.07-7.25-.04-2.76-.06-4.35-.04-7.76.01-1.42.02-2.15.04-3.75v-14.54c-.02-3.84-.03-6.87-.05-10.46.01-7.27.02-14.8.03-21.9.02-9.13.04-17.71.06-26.67v-25.35c.02-3.19.03-6.19.05-9.56.01-10.74.02-21.14.03-32.02v-11.56c-.02-2.55-.02-3.32-.04-5.63,0-2.76,0-4.56-.01-7.19,0-1.24-.01-2.05-.02-3.19v-13.37c.06-11.36.11-21.73.17-32.94.02-8.92.04-17.42.06-26.59-.02-5.41-.03-10.74-.05-16.09,0-4.75-.01-9.41-.02-14.08v-25.91c.02-2.18-.05-3.91-.07-5.59-.01-.83-.03-1.62-.04-2.4,0-.39-.01-.77-.02-1.16l-.96.63c-1.28.84-2.56,1.68-3.94,2.6-.69.46-1.41.93-2.18,1.43-.69.48-1.42.99-2.2,1.53-1.02.71-1.89,1.32-2.67,1.86-.75.53-1.62,1.11-1.88,1.35-.78.63-1.56,1.26-2.72,2.19-2.22,1.91-3.84,3.36-6.13,5.59-.85.79-1.76,1.72-2.67,2.67-.92.94-1.86,1.9-2.67,2.84-4.56,5.04-8.19,9.79-11.81,15.2-1.34,1.95-2.41,3.73-3.65,5.72-1.07,1.88-2.27,3.91-3.22,5.76-1.03,1.97-.38.65-1.68,3.22v-.05Z"/>
          <path class="st0" d="M274.68,611.44c-.31-10.36-.45-20.99-.59-27.04-.37-14.4-.55-21.33-.83-32.04-.4-18.04-1.49-79.75-1.84-91.34-.29-9.79-.43-22.12-.61-30.46-.08-2.64-.18-5.77-.26-8.4-.1-4.23-.14-9.61-.31-15.23-.19-6.25-.07-5.54-.18-11.02-.07-2.14-.19-6.14-.26-8.41-.31-14.59-.59-27.64-.9-42.25-.4-19.06-.79-37.49-1.05-49.88,0-1.22,0-2.2-.02-3.41-.07-2.19-.19-6.14-.26-8.41-.12-6.07-.24-11.74-.34-16.86-.03-1.28-.05-2.53-.07-3.74,0-.92.08-1.77.26-2.53.36-1.54,1.09-2.71,2.01-3.62.67-.66,1.45-1.25,2.37-1.69.92-.39,1.94-.81,3.04-1.28,1.09-.46,2.21-.88,3.3-1.5,4.62-2.25,8.66-5.22,11.94-7.88,1.6-1.39,3.08-2.64,4.24-3.86,1.2-1.18,2.23-2.17,2.95-3,3.92-4.51,7.19-9.57,9.68-14.99,2.05-4.37,3.57-9.02,4.65-13.79l.66-3.61c.23-1.2.29-2.43.44-3.65l.13-1.2v-.08s.08-.42.08-.42c.05-.28.06-.55.1-.78.04-.2.05-.45.07-.58,0-.09.09-.12.12-.22.04-.14,0-.36.14-.45-.26-.08.04-.23.04-.35,0-.06-.11-.23-.14-.38,0,0,.05-.04.05-.05,0-.03-.07-.1-.08-.13,0,0,.05-.04.05-.05.02-.09-.37-.65-.43-.72-.04-.05-.1-.03-.13-.08-.04-.06-.08,0-.09,0-.2-.18-.23-.36-.32-.4-.22-.1-.37-.29-.52-.31-.06,0-.12-.03-.18-.02-.11-.27-.26-.18-.36-.45-.14.12-.28,0-.41,0-.05,0-.13-.03-.18-.02-.04,0-.07.09-.1.1-.02,0-.11-.07-.13-.07-.21,0-.44-.04-.6-.02-.09,0-.15.03-.23.03-.06,0-.12-.03-.18-.02-.07,0-.12.04-.18-.02.09-.08.1-.17.08-.27-.14.16-.25.02-.39.18-.07-.09-.09-.1-.18-.02-.08.07-.26,0-.32.02-.1,0-.13.07-.25.14-.14.08-.41-.04-.53.21-.1-.03-.19-.17-.3-.2-.29.13-.59.35-.87.33-.02.25-.3.3-.43.48-.04.06.05.3-.13.3-.05.17.14.37.03.54-.14.17-.24-.08-.39.16.12.28,0,.57,0,.84,0,.15.04.27.04.43,0,.13-.08.31.04.43-.17.21-.13.6-.14.77,0,.03-.11.05-.11.09,0,.05.05.18.05.22,0,.06,0,.11,0,.17l-.02.09v.06s-.12,1.06-.12,1.06c-.11.96-.18,1.91-.32,2.85-.17.93-.34,1.84-.5,2.75-.08.45-.16.9-.25,1.34-.11.44-.23.87-.34,1.3-.22.86-.44,1.7-.65,2.52-.52,1.61-1.04,3.15-1.56,4.58-.61,1.39-1.13,2.72-1.68,3.91-.48.93-1.04,2.02-1.68,3.25-.72,1.2-1.54,2.53-2.45,3.93-.49.67-1.01,1.37-1.53,2.08-.26.36-.53.72-.8,1.08-.3.34-.59.69-.9,1.04-.6.7-1.21,1.41-1.83,2.13l-2.03,2.03c-5.43,5.48-12.43,9.39-16.88,11.33-.69.31-1.39.61-2.08.92-.86.36-1.85.8-2.72,1.36-1.79,1.07-3.43,2.58-4.69,4.38-1.23,1.81-2.08,3.9-2.42,5.99-.19,1.04-.27,2.09-.27,3.11,0,.56,0,.88.02,1.32l.03,1.24c.15,6.59.29,13.1.43,19.19.18,9.79.38,20.46.48,26.25.07,2.13.19,6.15.26,8.4.09,4.25.22,10.71.31,15.22.3,13.93.54,24.99.74,34.65.25,12.21.63,31.25.77,38.07.18,7.81.45,13.26.55,20.22.14,11.85.6,26.04.66,37.26.89,33.58,1.48,64.93,2.08,96.34.37,16.78.94,34.99,1.05,49.87.14,7.37.33,16.7.47,24.14.29,13.36.57,26.02.86,39.3.11,5.13.23,10.79.35,15.99.06,3.19.1,5.45.15,8.5.04,1.88.08,3.89.12,5.97.02,1.04.04,2.1.07,3.17l-.06,1.3-.02.65-.11.63c-.44,3.39-2.34,6.42-4.57,8.58-1.81,1.75-4.48,3.43-7.36,4.48-2.88,1.08-5.88,1.41-8.17,1.27-1.49-.08-2.48-.27-4.03-.64-2.43-.65-5.17-1.96-7.42-3.73-2.28-1.75-3.96-3.95-4.86-5.86-1.05-2.19-1.51-4.49-1.45-6.83.08-2.91.17-5.8.25-8.75.15-6.06.31-12.29.49-19.55.16-7.28.31-14.57.47-21.85.09-4.28.17-8.24.25-12.12.03-1.71.06-3.69.09-5.53.21-11.49.42-22.94.64-34.99.12-5.6.25-11.71.37-17.18.02-1.33.04-2.45.06-3.63.05-2.59.1-4.79.15-7.46.18-8.13.36-16.05.53-24.04.21-7.98.39-15.03.6-22.84.04-1.84.09-3.76.13-5.61.06-2.11.11-3.87.17-5.9.1-4.29.24-10.15.35-14.73.16-7.8.27-13.61.42-21.31.19-8.55.27-12.55.46-20.91.13-6.22.28-13.19.41-19.29.13-5.72.1-2.95.2-5.68.19-5.05.45-22.31.6-29.2.5-23.62,1.13-47.25,1.52-69.78.43-24.22,1.18-54.78,1.6-72.71,0-.29,0-.59.02-.93,0-.33,0-.63,0-1.12,0-.9-.1-1.87-.25-2.83-.32-1.92-1.02-3.82-1.79-5.26-.98-1.81-2.37-3.55-4.22-4.84-.45-.34-.95-.61-1.43-.9l-1.38-.65c-.67-.31-1.35-.62-2.03-.93-.67-.32-1.37-.6-2.03-.96l-1.98-1.08c-1.34-.68-2.6-1.51-3.87-2.33-5.06-3.28-9.65-7.32-13.43-11.81-1.03-1.18-1.87-2.41-2.76-3.54-.84-1.17-1.56-2.38-2.33-3.54-.73-1.19-1.35-2.44-2.05-3.69-.66-1.27-1.21-2.63-1.87-4.02-1.57-3.91-2.89-8.19-3.52-11.99-.23-.94-.25-1.86-.38-2.72-.1-.86-.19-1.66-.27-2.42-.04-1.5-.06-2.73-.04-3.57-.02-.34-.03-.67-.05-1v-7.15c0-2.66.02-5.23.02-7.8.02-5.16.04-10.31,0-16.02.13-11.48.17-23.82.21-36.11.03-6.15.06-12.27.08-18.29.02-2.99.05-5.95.07-8.9.01-1.45.03-2.9.04-4.35v-.87l.02-.02s.01-.02.02-.03c-.06-.13-.08-.4-.09-.61v-.55l.02.06.03.14.06.22c.04.13.08.19.18.35,0,.16,0,.26.01.33v.05c.1.34.19.67.28,1.02.25.92.5,1.85.76,2.78,1.02,3.74,2.07,7.55,2.91,10.86,3.85,14.11,7.71,28.25,11.61,42.52l.73,2.68c.04.13.04.18.11.38l.18.53c.13.35.23.71.4,1.03.32.67.68,1.31,1.12,1.88.85,1.17,1.88,2.12,2.96,2.85,1.08.76,2.2,1.3,3.34,1.73,2.28.85,4.59,1.22,7.05,1.14,2.58-.11,4.97-.84,7.19-2.14,2.2-1.31,4.01-3.2,5.28-5.3,1.25-2.11,2.03-4.38,2.4-6.62l.14-.82.1-.7.19-1.39.38-2.79.72-5.57c1.1-8.69,2.88-24.17,3.19-26.89,1.24-11.13,1.84-14.19,2.94-22.54.53-4.02,1.87-12.88,3.54-21.42.21-1.07.42-2.13.62-3.18v-.02h0c-3.53,0,7.9-.06-7.91.02v.05l.03.1.04.2.08.39.16.78c.1.51.21,1.02.31,1.53.42,2.01.78,3.94,1.09,5.7.67,3.51,1.09,6.35,1.36,7.84,2.5,15.41,4.01,29.63,5.93,45.92.85,7.21,1.82,15,3,22.78l.22,1.46c.14.65.24,1.36.47,2,.39,1.33,1.02,2.55,1.75,3.67,1.49,2.23,3.48,3.95,5.7,5.17,1.11.61,2.3,1.08,3.55,1.42.63.17,1.27.3,1.93.38.63.08,1.4.13,1.97.1,2.39-.03,4.9-.53,7.12-1.67,2.07-1,4.09-2.7,5.62-4.81.74-1.06,1.42-2.19,1.92-3.38.27-.59.48-1.2.69-1.8.18-.6.39-1.27.5-1.73,1.08-4.07,2.14-8.2,3.01-11.66,3.24-12.9,6.88-28.08,9.07-36.97,1.2-4.92.98-3.84,1.89-7.34,1.89-7.26,4.13-15.46,6.38-22.55.54-1.78,1.15-3.55,1.72-5.32l.44-1.33.11-.33h0c7.02,1.1-9.56-1.54-7.85-1.26v1.04l.02,2.83c.02,3.77.04,7.55.06,11.32.02,7.48.05,14.94.07,22.24.34,14.49.33,47.26.51,58.3.07,8.98.16,19.39.22,27.04.02,1.27.03,2.16.04,2.84v.41h0v.02s-.02.02-.02.05c.07.45-.02.75-.05,1.17-.02.32,0,.63-.03.95.09.13.22.14.31.2.1.07.13.16.21.19.06.02.17-.04.23-.03-.1-.15.16-.18.19-.09.23.37.49.34.75.37.17.15.05.27.11.4.29.02.59-.09.85.27.14-.04.28-.11.41,0l.21.3c.17-.02.33.07.5.11.12.03.26.02.31.09.06.08.16-.05.23-.03.08.16.17.22.26.25.28-.04.55.03.84-.12.15.07.3.1.45.16.31-.24.58-.02.9-.28.12,0,.22.28.36.15-.11-.26.31-.45.47-.67-.06-.13,0-.27-.02-.39,0-.13-.05-.45,0-.5.06-.06,0-.05,0-.11,0-.17-.03-.33-.06-.45-.02-.09,0-.14-.07-.23.16-.22.06-.53.06-.77,0-.05.06-.11.06-.16,0-.08-.07-.15-.07-.23,0-.15.07-.29.03-.44.05,6.47-.17-17.13-.27-31.24-.05-7.22-.1-14.8-.15-22.84,0-1.12.02-2.28.02-3.41-.04-2.18-.11-6.12-.15-8.41,0-2.12.03-4.67.05-6.82-.04-2.44-.1-5.92-.15-8.4-.04-6.36-.12-17.42-.19-27.59-.04-5.09-.07-9.95-.1-13.9,0-.99-.02-1.92-.02-2.78v-.84h0c1.42.22-12.37-1.97-6.53-1.04l-.02.07-.09.29c-.12.38-.24.74-.35,1.08-.44,1.36-.78,2.42-1.01,3.12-2.44,7.75-5.03,16.59-6.49,22.07-.55,2.04-1.51,6.03-2.05,8.2-.78,3.03-2.83,11.3-3.68,14.83-2.54,10.5-4.39,18.39-7.27,29.52-.62,2.44-1.29,4.88-1.94,7.3-.56,2.01-1.51,3.79-2.8,5.06-1.44,1.42-3.6,2.32-6.12,2.26-1.01-.04-2.16-.33-3.16-.85-1.02-.51-1.9-1.19-2.57-1.9-.47-.52-.9-1.1-1.24-1.72-.32-.65-.53-1.26-.68-2.04-.34-2.11-.71-4.21-.98-6.17-.67-4.57-1.19-9.53-1.75-14.25-.24-1.87-.81-6.34-1.07-8.32-.06-.64-.27-2.68-.34-3.39-.27-2.13-.77-6.1-1.05-8.35-.7-5.93-1.49-12.59-2.31-18.66-.83-6.07-1.69-11.53-2.31-15.06-.52-3.01-1.03-5.62-1.55-8.15-.27-1.27-.53-2.52-.79-3.78l-.1-.48-.05-.24-.03-.12v-.02h0c-2.91,0,6.51-.04-6.52.03v.03l-.02.06c-.06.32-.12.65-.19.98-.13.66-.25,1.32-.39,2.01-4.2,21.62-6.59,44.63-8.54,60.54-.23,2.08-.68,6.14-.92,8.34-.35,2.91-1.03,7.72-1.47,10.88-.1.76-.2,1.48-.29,2.19-.09.59-.19,1.13-.32,1.66-.27,1.04-.63,1.96-1.09,2.78-.93,1.63-2.21,2.86-4.08,3.58l-.73.24c-.25.05-.51.13-.76.17-.46.07-.97.13-1.51.11-1.06,0-2.18-.2-3.18-.52-1.01-.32-1.91-.79-2.59-1.34-.68-.55-1.1-1.15-1.32-1.8l-.09-.25-.13-.49-.26-.98-.53-1.95c-.35-1.3-.7-2.59-1.04-3.88-.69-2.57-1.38-5.12-2.06-7.66-2.74-10.17-5.42-20.14-8.2-30.46-1.26-4.35-2.3-8.14-3.32-11.88-1.61-5.84-3.13-11.36-5.12-18.6-2.15-8.24-4.02-15.19-5.73-21.46-.84-3.06-1.67-6.07-2.5-9.07-.41-1.48-.81-2.96-1.22-4.43l-.62-2.24-.08-.28v-.04,2.1c-.02,2.76-.12,15.84-.15,19.44-.07,17.86-.14,36.44-.2,53.89-.18,25.42-.35,50.12-.53,75.34v3.48c0,1.14.07,2.38.1,3.54,0,2.37.39,4.67.63,7.02.79,4.66,2,9.41,4.18,14.51,2.17,5.52,5.62,11.39,10.01,16.58,4.36,5.21,9.61,9.73,14.79,13.2,1.14.71,2.26,1.44,3.4,2.11,1.17.63,2.33,1.25,3.49,1.87,1.16.62,2.37,1.1,3.55,1.66.55.25,1.1.5,1.65.75.34.15.67.34.98.57,1.24.87,2.17,2.37,2.63,4.07.23.85.35,1.75.36,2.66v.78l-.02.89-.04,1.77c-.22,9.42-.48,18.5-.76,27.3-.5,21.91-.91,40.35-1.41,62.26-.08,3.91-.2,9.53-.29,13.59-.06,4.29-.08,5.79-.13,9.57-.04,3.65-.06,5.74-.18,10.24-.05,1.9-.08,2.8-.14,4.95-.04,1.88-.08,3.88-.13,5.78-.09,4.44-.19,9-.29,13.41-.09,5.09-.16,9.05-.25,13.81-.21,9.58-.44,19.51-.65,28.9-.28,12.06-.54,23.36-.81,35.19-.15,6.94-.3,14.17-.45,21.15-.09,3.99-.18,8.41-.27,12.3-.11,4.22-.21,8.14-.32,12.61-.31,14.16-.62,27.89-.93,42.25-.1,4.89-.22,10.37-.33,15.25-.06,3.4-.07,4.4-.12,7.43-.07,3.59-.12,6.01-.19,9.49-.03,1.66-.04,2.69-.07,4.21-.12,5.71-.26,11.93-.38,17.64-.38,15.07-.72,28.64-1.1,43.46-.14,5.86-.28,11.6-.42,17.38-.07,2.9-.13,5.81-.2,8.75-.03,1.47-.06,2.95-.1,4.44,0,.83.05,1.78.09,2.67.07.9.27,1.81.41,2.72.89,4.29,3.17,8.12,6.02,11.12,2.88,3.01,6.41,5.18,10.19,6.68,3.35,1.31,6.96,1.99,10.63,1.88,3.65-.12,7.13-.95,10.36-2.32,2.57-1.11,5.07-2.59,7.32-4.49,2.24-1.9,4.29-4.22,5.73-6.98,1.46-2.74,2.33-5.84,2.52-8.92l.05-1.16c0-.38.03-.8.02-1.09l-.04-1.92c-.03-1.28-.05-2.55-.08-3.81-.11-5.88-.16-8.67-.27-14.46-.08-3.8-.11-5.17-.19-8.92-.11-3.65-.19-6.61-.31-10.56-.06-2.97-.14-6.64-.21-9.79-.17-8.67-.33-16.28-.5-24.66-.05-3-.09-5.72-.14-8.71-.06-2.8-.12-5.79-.17-8.47-.06-2.86-.02-.99-.09-4.66l-.05-.15Z"/>
          <path class="st0" d="M291.85,663.33c.24,10.72.48,21.43.7,31.08.05,2.42.1,4.76.14,7.02,0,.56.02,1.12.03,1.68l.02.83-.02.76c-.03,1-.05,1.98-.08,2.93.02.96-.16,1.87-.26,2.76-.11.89-.22,1.76-.32,2.59-.39,1.64-.67,3.18-1.06,4.56-1.93,6.61-4.99,11.83-8.39,15.94-3.43,4.11-7.19,7.15-11.09,9.49-3.96,2.25-8.06,3.8-12.43,4.8-1.11.2-2.22.4-3.35.6-1.14.14-2.3.19-3.48.29-1.18.15-2.38.05-3.6.03-.61-.01-1.23-.03-1.85-.04-.62-.05-1.25-.16-1.88-.23-4.21-.47-9.73-1.78-15.42-4.95-1.4-.83-2.9-1.61-4.26-2.69-.7-.52-1.44-1-2.13-1.56-.67-.59-1.35-1.19-2.04-1.8-.34-.31-.7-.6-1.03-.93-.32-.34-.63-.68-.96-1.03-.64-.7-1.31-1.37-1.94-2.1-1.13-1.56-2.46-3.04-3.42-4.8-.26-.43-.53-.86-.79-1.29-.27-.43-.54-.86-.74-1.33-.44-.92-.89-1.84-1.34-2.78-.25-.46-.41-.95-.58-1.45-.18-.49-.35-.98-.53-1.48-.18-.49-.36-.99-.54-1.49-.17-.5-.26-1.03-.4-1.54-.24-1.04-.54-2.07-.75-3.13-.15-1.07-.29-2.14-.44-3.22-.21-1.07-.15-2.18-.21-3.28-.02-1.13-.11-2.15-.05-3.4.22-9.65.45-19.58.67-29.4.86-39.29,1.68-76.8,1.94-88.81.35-20.12,1.02-45.42,1.39-62.54.1-5.67.2-11.64.29-17.26.19-8.68.44-19.64.7-31.27.22-12.84.29-11.38.55-22.63.08-4.59.21-12.41.29-17.28.65-29.97,1.23-56.76,1.88-86.77.42-19.57.84-38.85,1.21-56.4.1-4.39.19-8.67.28-12.82.05-2.07.09-4.12.13-6.12.04-1.73.08-3.44.11-5.14v-.18s-.09-.06-.14-.09l-.3-.18-.61-.35-1.21-.7c-.71-.41-1.42-.82-2.12-1.23-6.41-3.71-11.78-7.97-16.13-12.19-1.99-1.84-2.75-2.9-4.61-4.85-1.46-1.74-3.4-3.96-5.12-6.38-.44-.6-.9-1.19-1.32-1.79-.4-.62-.8-1.23-1.19-1.82-.78-1.18-1.53-2.3-2.08-3.35-3.01-5.16-5.43-10.44-7.19-15.7-.51-1.29-.82-2.63-1.24-3.93-.19-.65-.38-1.3-.57-1.94-.16-.65-.31-1.3-.47-1.95-.29-1.29-.66-2.55-.86-3.84-.22-1.22-.44-2.43-.66-3.63,0-10.36.01-19.6.02-27.47-.01-2.85-.03-5.8-.04-8.64.03-4.65.07-9.31.1-14.01,0-19.83-.16-38.45.03-46.9-.05-11.51-.11-23.02-.16-34.54v-9.99s.02-.04.05-.13l.26-.74c.18-.49.4-.96.59-1.44,1.66-3.79,4.17-7.11,7.42-9.6,1.62-1.25,3.41-2.3,5.33-3.15.96-.42,1.94-.81,2.96-1.13l.25-.08h4.5l.4.03c.26,0,.52.02.74.06.19.03.43.03.55.05.09,0,.12.09.21.11.13.03.34-.02.43.13.07-.26.22.03.33.03.06,0,.22-.12.35-.15,0,0,.04.05.05.05.03,0,.09-.08.12-.08.01,0,.04.05.05.05.09,0,.6-.39.67-.45.05-.04.03-.1.07-.13.05-.04,0-.08.01-.09.17-.2.34-.24.38-.34.09-.22.27-.38.29-.53,0-.06.02-.12.02-.18.26-.12.18-.26.44-.38-.11-.13,0-.28,0-.41,0-.05.03-.13.02-.18,0-.04-.09-.06-.1-.1,0-.02.07-.11.07-.13,0-.21.04-.44.02-.6-.01-.09-.03-.15-.03-.23,0-.06.03-.12.02-.18,0-.07-.04-.12.02-.18.08.09.17.1.27.07-.16-.14-.01-.25-.18-.38.09-.07.1-.09.02-.18-.07-.08,0-.26-.02-.32-.01-.1-.07-.12-.14-.24-.08-.14.04-.41-.21-.52.03-.1.18-.2.21-.3-.13-.29-.37-.58-.34-.86-.26,0-.31-.29-.51-.41-.06-.04-.31.06-.32-.12-.18-.05-.39.15-.56.04-.19-.14.07-.24-.18-.38-.29.13-.61,0-.9.02-.16,0-.28.05-.45.05-.14,0-.33-.07-.45.05-.23-.16-.64-.11-.82-.11-.03,0-.07-.1-.1-.1-.05,0-.19.07-.23.07h-5.33c-.24.02-.5-.03-.73.04l-.69.23c-.6.2-1.19.4-1.78.59l-1.6.63c-2.11.89-4.14,1.96-6.02,3.22-3.76,2.53-6.87,5.83-9.08,9.39-1.09,1.78-2.04,3.6-2.75,5.44-.2.45-.35.91-.51,1.37l-.32.92-.2.57c-.06.19-.02.4-.03.6v2.93c0,3.32.02,6.44.03,9.31,0,18.11,0,65.59,0,86.83,0,13.17,0,26.87.02,40.4v3.49l.16.88.24,1.29c.32,1.72.59,3.45,1.04,5.13.77,3.4,1.75,6.72,2.86,9.96,2.24,6.48,5.14,12.59,8.51,18.16,2.77,4.47,5.93,8.82,9.37,12.83,3.52,3.94,7.23,7.6,11.06,10.71.92.83,1.93,1.5,2.87,2.24.97.7,1.87,1.46,2.84,2.08,1.93,1.26,3.73,2.56,5.58,3.56.38.22.75.43,1.1.64.07.02.06.08.05.13v.16c-.05,1.69-.08,3.25-.11,4.66-.08,4.57-.21,12.43-.29,17.26-.19,8.74-.49,21.98-.7,31.26-.62,28.6-1.11,51.33-1.54,71.17-.56,25.1-1.43,64.19-1.74,78.17-.33,16.05-.43,27.25-.79,41.53-.64,24.33-1.11,53.47-1.79,76.52-.71,34.59-1.4,67.86-2.07,100.6-.08,4.11-.2,8.15-.25,12.3l.1,3.29.06,1.64.22,1.63.45,3.26c.2,1.08.5,2.14.75,3.2.44,2.16,1.29,4.19,2.02,6.26.17.52.4,1.02.65,1.51l.71,1.48.72,1.48.36.74.43.7c1.15,1.86,2.24,3.77,3.63,5.45l.99,1.3c.33.44.66.87,1.05,1.26l2.23,2.39c.71.83,1.58,1.5,2.39,2.23.83.7,1.6,1.48,2.49,2.11,1.77,1.26,3.49,2.62,5.41,3.65,3.7,2.3,7.81,3.87,11.96,5.15l3.18.75c.53.11,1.06.27,1.6.34l1.62.22c1.08.14,2.16.29,3.24.41l3.27.09,1.63.04c.54-.01,1.08-.07,1.62-.1l3.25-.24c1.08-.1,2.14-.35,3.22-.52,1.07-.21,2.15-.32,3.19-.66,1.12-.32,2.24-.64,3.37-.95,1.12-.33,2.19-.83,3.29-1.24l1.64-.65c.54-.23,1.05-.53,1.58-.79,1.05-.55,2.11-1.07,3.14-1.65,4.06-2.44,7.8-5.44,11.11-8.88,3.19-3.54,5.98-7.45,8.15-11.69.55-1.05.97-2.16,1.46-3.25l.71-1.63.55-1.69c.36-1.13.76-2.24,1.07-3.38.26-1.15.51-2.3.77-3.44.3-1.14.4-2.31.55-3.47.12-1.16.34-2.31.36-3.47.05-2.3.16-4.7.07-6.78-.09-4.29-.18-8.53-.27-12.7-.15-8.28-.29-16.29-.43-24.06-.31-15.16-.71-34.27-1.02-49.58-.13-6.24-.27-12.39-.4-18.5v-.52l-.02-.26v-.2s.03.03.04.04l.7.8,2.78,3.18c1.08,1.3,2.29,2.48,3.47,3.69,2.37,2.41,4.74,4.83,7.12,7.25,1.21,1.19,2.34,2.46,3.61,3.59,1.26,1.14,2.52,2.29,3.79,3.44,2.53,2.29,5.08,4.6,7.63,6.92,4.08,3.43,8.5,6.89,12.87,10.45,1.08.91,2.24,1.71,3.38,2.53s2.28,1.64,3.42,2.45c2.27,1.63,4.52,3.24,6.72,4.81.68.48,1.32.97,1.98,1.39.66.42,1.29.82,1.92,1.22,1.24.79,2.43,1.54,3.61,2.29,2.36,1.49,4.68,2.97,7.37,4.68.41.26.83.52,1.25.79.43.24.87.48,1.31.73.88.49,1.78.99,2.69,1.49,1.82,1.01,3.68,2.04,5.58,3.09,1.9,1.04,3.81,2.15,5.78,3.17,2,.97,4.02,1.94,6.04,2.91,2.02.97,4.04,1.95,6.05,2.91,1.01.48,2,.98,3,1.43,1.02.42,2.03.84,3.03,1.25,4.02,1.66,7.9,3.26,11.52,4.75,2.95,1.15,6.25,2.21,9.65,3.42,1.7.59,3.44,1.19,5.19,1.8.88.29,1.74.63,2.64.89l2.68.76c3.57,1.01,7.11,2.02,10.46,2.97.84.24,1.66.47,2.47.7.81.22,1.63.37,2.42.55,1.58.35,3.09.69,4.51,1,3.65.8,6.07,1.33,9.87,2.17,3.04.5,6.33,1.04,9.73,1.6,1.7.28,3.43.56,5.17.85.87.13,1.74.31,2.62.4l2.63.28c3.5.38,6.96.75,10.23,1.11,1.64.15,3.21.41,4.74.46,1.52.08,2.98.16,4.35.23,3.13.17,6.22.33,9.27.49l2.28.12c.76.04,1.52,0,2.28.01,1.52,0,3.03-.01,4.54-.02,3.02-.01,6.03-.02,9.06-.04,1.52.02,3.03-.06,4.56-.15,1.53-.08,3.06-.16,4.6-.24,12.34-.73,25.34-2.11,40.34-5.03,14.86-2.91,29.55-6.96,43.8-12.09,2.09-.78,4.15-1.55,6.17-2.31,1.01-.39,2.02-.74,3-1.14.98-.41,1.95-.82,2.92-1.22,1.93-.81,3.84-1.61,5.72-2.39,1.89-.77,3.7-1.68,5.52-2.5,1.63-.76,3.36-1.56,5.12-2.39s3.5-1.77,5.22-2.64c5.34-2.63,10.5-5.61,15.7-8.55,2.55-1.55,5.11-3.11,7.67-4.67s5.03-3.29,7.56-4.94c10.01-6.75,19.79-14.16,29.33-22.39,8.78-7.66,17.9-16.6,25.52-25,1.85-2.1,3.35-3.79,4.99-5.66,1.77-2.02,3.3-3.98,4.92-5.91,1.6-1.94,3.23-3.89,4.89-6.12,10.36-13.39,19.37-27.31,27.25-41.85,7.92-14.71,13.79-27.95,19.33-43.34.16-.45.33-.9.5-1.35l.25-.68.06-.17h0v-.02c1.64.3-14.31-2.65-7.56-1.4h0v.52c-.04.96-.08,1.93-.11,2.9-.06,1.94-.13,3.88-.19,5.77-.16,4.4-.28,7.9-.43,12.11-.29,8.75-.7,20.82-1.01,30.23-.51,16.03-.89,28-1.39,43.74-.57,17.49-.84,25.74-1.4,42.93-.41,12.77-.88,27.1-1.28,39.61-.39,11.75-.23,6.06-.46,11.67-.09,2.68-.24,6.79-.41,11.75-.08,2.5-.17,5.21-.26,8.04-.07,2.85-.24,5.68-.12,9.01.17,6.44,1.64,13.01,4.05,18.49.31.68.62,1.35.92,2.01.15.33.3.66.45.98.17.32.36.62.53.92.72,1.21,1.4,2.38,2.08,3.46,1.55,2.05,2.87,3.96,4.28,5.31,4.52,4.9,10.19,8.74,16.39,11.13,6.2,2.41,12.89,3.37,19.41,3.09l2.45-.15,1.42-.09,1.44-.38c.8-.22,1.6-.41,2.39-.66l2.33-.8c3.07-1.15,6.04-2.51,8.82-4.2,2.83-1.61,5.43-3.58,7.92-5.68,1.19-1.12,2.44-2.17,3.52-3.41.55-.6,1.12-1.19,1.66-1.81l1.53-1.94c.25-.33.51-.64.76-.98l.68-1.04,1.36-2.08,1.17-2.2.58-1.1c.17-.38.32-.77.49-1.16l.95-2.32c.27-.79.48-1.61.72-2.41.54-1.59.72-3.28,1.03-4.93.16-.83.14-1.67.21-2.51.04-.82.12-1.73.11-2.46v-13.34c0-11.81-.01-23.51-.02-35.1.03-49.82.07-112.51.09-149.37-.02-4.68-.05-12.39-.08-17.27.02-25.21.05-52.43.07-78.18.03-13.72.05-24.68.08-38.26.02-18.58-.15-39.46.04-46.91-.04-23.79-.08-42.03-.12-65.82.18-47.16-.04-101.38.18-147.72-.11-19.13-.09-36.11-.08-53.02v-9.53c.02-.47-.02-1.21-.06-1.88-.01-.68-.14-1.36-.26-2.04-.49-2.72-1.69-5.32-3.26-7.46-1.58-2.15-3.47-3.87-5.41-5.35-.97-.75-1.97-1.41-2.96-2.05-.5-.33-1-.61-1.5-.92l-1.66-.96-1.33-.75-.33-.19c-.12-.04-.27,0-.4-.02h-6.33c-1.31,0-2.63,0-3.96,0h-.83c-.25.1-.5.25-.74.38l-1.24.66c-.52.28-1.04.55-1.57.83-2.11,1.08-4.18,2.3-6.27,3.53-5.71,3.28-12.39,7.82-18.66,13.11-6.3,5.26-12.17,11.24-16.85,16.73-9.9,11.74-17.89,25.12-24,39.3-6.12,14.19-10.39,29.17-13.13,44.42-1.37,7.63-2.35,15.32-2.99,23.05-.76,7.86-.59,15.48-.74,23.15-.08,6.7-.16,13.41-.24,20.12v.36s-.12-.16-.17-.24l-1.52-2.22c-.15-.22-.3-.44-.46-.68-.71-.93-1.46-1.89-2.22-2.89-1.61-2.09-3.3-4.29-5.04-6.54-.87-1.13-1.74-2.26-2.62-3.4-.91-1.12-1.88-2.2-2.81-3.3-1.88-2.19-3.76-4.36-5.57-6.47-.91-1.05-1.79-2.09-2.67-3.08-.92-.96-1.82-1.89-2.68-2.79-1.73-1.8-3.34-3.48-4.77-4.97s-2.69-2.79-3.71-3.84c-1.07-1-1.9-1.77-2.43-2.26-2.15-2-4.09-3.8-5.88-5.47-1.8-1.66-3.4-3.23-5.03-4.54-3.17-2.68-5.9-4.97-8.49-7.16-.64-.55-1.28-1.08-1.91-1.62-.66-.5-1.32-1-1.97-1.5-1.32-1-2.65-2.01-4.03-3.05-1.38-1.04-2.81-2.12-4.34-3.27-.76-.57-1.55-1.16-2.37-1.78-.85-.57-1.73-1.15-2.65-1.77-6.96-4.85-22.81-15.05-39.28-23.05-16.36-8.24-33.28-13.82-39.3-15.89-15.64-4.96-30.92-8.61-46.56-11.1-15.66-2.31-31.63-3.59-48.66-3.55-3.77.1-7.61.21-11.5.31-1.95.01-3.9.19-5.87.35-1.97.15-3.94.31-5.93.47s-3.98.32-5.98.48c-1.99.26-3.99.52-5.99.78s-4.01.53-6.02.79l-3.02.4c-1,.15-2,.36-3,.54-3.99.74-7.98,1.47-11.96,2.21-3.95.87-7.85,1.86-11.73,2.77-3.9.85-7.67,2.04-11.41,3.14-1.87.55-3.72,1.11-5.57,1.65-.92.28-1.84.52-2.74.84s-1.79.64-2.68.95c-3.28,1.17-6.95,2.48-10.83,3.86-3.84,1.48-7.8,3.23-11.83,4.9-4.06,1.59-7.95,3.63-11.76,5.44-1.9.92-3.76,1.82-5.56,2.69-.91.42-1.77.9-2.61,1.37-.85.47-1.67.92-2.48,1.37-3.01,1.66-6.1,3.36-9.22,5.08-3.08,1.78-6.1,3.76-9.18,5.64l-4.6,2.86c-.78.46-1.52.97-2.25,1.49l-2.21,1.55c-2.94,2.06-5.85,4.1-8.72,6.1-1.45.97-2.79,2.07-4.14,3.12-1.25.98-2.48,1.95-3.7,2.9-.05.03-.14.13-.15.08-.02-3.42-.04-6.53-.05-9.21-.08-10.44,0-8.19-.04-15.64-.07-15.49-.14-33.12-.21-48.53-.02-7.73-.04-15.49-.05-23.25,0-.44-.03-1.09-.06-1.67-.05-.59-.03-1.19-.16-1.77l-.31-1.76c-.12-.58-.31-1.15-.47-1.72-.71-2.26-1.72-4.41-3.03-6.28-2.57-3.81-5.91-6.73-9.41-9.1-1.76-1.18-3.57-2.25-5.43-3.18-.23-.12-.46-.23-.7-.35l-1.03-.49-.64-.31-.32-.15c-.11-.02-.24,0-.35,0h-13.96c-.06.02-.11.05-.16.07l-.32.15-.65.3-.93.42-1.37.65c-3.63,1.78-7.3,3.94-10.5,7.01-1.59,1.53-3.04,3.3-4.21,5.28l-.82,1.52-.69,1.58c-.21.53-.38,1.09-.56,1.63l-.13.41-.1.34-.19.67c-1.01,3.65-2.16,7.78-3.41,12.3-.64,2.28-1.31,4.66-2,7.12-.35,1.23-.7,2.49-1.06,3.76l-.07.24-.02.06v.03c-7.13-.47,9.68.68,7.95.54l-.02-.12-.07-.49-.14-.99c-.09-.66-.19-1.33-.28-2-.38-2.69-.77-5.44-1.17-8.23-.2-1.4-.4-2.81-.6-4.23-.1-.71-.2-1.42-.3-2.13l-.15-1.07c-.05-.36-.14-.82-.21-1.22-.6-3.33-1.82-6.62-3.62-9.55-1.81-2.92-4.12-5.46-6.69-7.57-2.57-2.12-5.41-3.77-8.31-5.09-.36-.16-.72-.34-1.09-.48l-1.37-.54c-.33-.11-.65-.31-.99-.34h-13.22c-.17,0-.34-.02-.48.08-.56.26-1.11.52-1.66.77-.32.15-.64.3-.96.46-2.55,1.25-4.99,2.65-7.25,4.27-2.25,1.62-4.32,3.47-6.03,5.53-1.72,2.06-3.07,4.34-3.99,6.62-.24.57-.46,1.13-.62,1.7s-.37,1.12-.47,1.68c-.11.56-.23,1.1-.34,1.64-.1.51-.15.91-.22,1.35-.27,1.72-.52,3.29-.74,4.7-.7,4.43-1.45,9.1-2.21,13.88l-.14.9-.07.45-.04.23-.02.11h0c3.56-.13-7.98.35,7.99-.3v-.03l-.02-.06-.43-1.78c-.29-1.19-.58-2.38-.87-3.58-.58-2.39-1.16-4.78-1.74-7.15-.58-2.39-1.16-4.76-1.73-7.09-.64-2.53-1.5-4.98-2.6-7.28-1.09-2.3-2.41-4.45-3.9-6.35-1.48-1.92-3.18-3.55-4.88-4.92-2.33-1.84-4.22-2.87-5.69-3.58-.31-.15-.6-.29-.87-.41h0s-.01-.04-.04-.05c-.49-.16-.78-.35-1.21-.56-.33-.16-.66-.28-.99-.43-.17.03-.23.15-.32.21-.11.07-.22.07-.28.13-.04.05,0,.17-.05.23.2-.04.13.21.03.21-.47.09-.52.35-.63.58-.21.11-.29-.04-.45-.04-.11.27-.1.59-.54.72,0,.15.02.31-.12.4l-.36.1c-.03.17-.17.29-.26.44-.06.1-.09.24-.18.27-.1.03,0,.17-.04.23-.17.03-.26.09-.31.17-.04.28-.18.52-.12.84-.1.12-.17.26-.28.38.13.37-.15.57,0,.94-.04.11-.3.14-.23.3.25-.04.29.42.43.63.13-.02.23.06.34.09.11.03.4.08.43.13.03.07.04.02.09.04.14.06.29.07.4.08.08,0,.12.03.22,0,.12.22.41.23.61.31.04.02.07.09.11.11.07.03.15-.02.22,0,.12.05.21.15.35.18l.14.06h.03l.77.38c.4.18.78.38,1.15.6.37.22.76.41,1.11.66,2.89,1.86,5.35,4.36,7.17,7.36.93,1.48,1.72,3.08,2.35,4.76.35.82.6,1.7.89,2.56.24.9.48,1.71.71,2.71.94,3.85,1.88,7.71,2.83,11.58.47,1.94.95,3.88,1.42,5.82l.18.73v.05l.02.02c-1.41.07,12.27-.49,6.48-.27v-.09l.04-.19.06-.37.24-1.48.48-2.97c.64-3.97,1.28-7.95,1.92-11.96.15-.92.3-1.83.44-2.76l.22-1.38c.08-.46.16-.79.24-1.19.35-1.53.86-3.02,1.65-4.41,1.55-2.78,3.92-5.24,6.83-7.27,1.45-1.02,3-1.97,4.65-2.83l1.25-.63.63-.31.51-.24.14-.06h10.46c.05,0,.11,0,.15.02l.27.11c.44.17.87.34,1.3.55,2.15.99,3.54,1.82,5.45,3.17,1.72,1.23,3.75,3.05,5.37,5.19,1.64,2.13,2.73,4.62,3.28,6.69.15.51.27,1.02.35,1.53.09.51.18.97.26,1.57.15,1.12.3,2.25.44,3.38.31,2.3.61,4.56.93,6.96.38,2.6.81,5.52,1.24,8.5v.02h0c-5.87-.39,7.99.55,6.57.45v-.03l.03-.07.04-.13.07-.27.15-.54.3-1.07c.2-.72.39-1.43.59-2.13.4-1.42.78-2.78,1.14-4.08.89-3.15,1.95-6.87,3.12-11,.29-1.03.59-2.09.9-3.17.15-.54.31-1.09.46-1.64.08-.3.16-.53.23-.74l.22-.67c.63-1.8,1.69-3.49,3.1-5.06,1.39-1.57,3.16-2.99,5.15-4.25.98-.64,2.04-1.23,3.12-1.8.55-.28,1.09-.56,1.66-.83l1.31-.62c.06-.04.13-.03.19-.03h10.88l.23.11c.56.26,1.1.55,1.64.83,4.3,2.27,8.1,5.18,10.59,8.49,1.25,1.65,2.15,3.39,2.7,5.13.11.44.28.86.35,1.3.08.44.15.87.23,1.3.05.9.13,1.63.11,2.73.03,8.1.06,14.3.07,17.24.12,16.53.09,35.32.11,46.91.03,4.26.1,12.76.13,17.27,0,3.31.02,9.49.04,15.8,0,2.72,0,5.46.02,8.13,0,1.34,0,2.66,0,3.96v1.93s-.02.12.02.08l.09-.07.19-.15.37-.29.74-.58c3.91-3.07,7.4-5.82,10.01-7.87,2.25-1.77,4.44-3.49,6.57-5.17,2.1-1.52,4.19-2.95,6.23-4.4,2.04-1.43,4.06-2.85,6.06-4.26.99-.73,2.03-1.37,3.07-2.01,1.04-.65,2.07-1.29,3.11-1.94,4.18-2.55,8.28-5.33,12.89-7.72,4.56-2.46,9.23-5.25,14.57-7.67,4.63-2.2,9.22-4.57,14.03-6.44,4.77-1.96,9.48-4.08,14.37-5.69,2.72-.96,5.65-2,8.67-3.07,3.04-1.01,6.24-1.87,9.4-2.83,6.3-2.01,12.74-3.34,18.21-4.7.99-.24,1.99-.48,3.02-.73,1.03-.19,2.08-.39,3.14-.59,2.1-.4,4.25-.81,6.41-1.23,2.15-.39,4.28-.88,6.41-1.17,2.14-.29,4.22-.57,6.21-.84,2.34-.31,4.71-.62,7.14-.93,2.42-.25,4.88-.38,7.34-.58,2.46-.18,4.94-.36,7.38-.55,2.46-.16,4.91-.14,7.33-.23,2-.06,5.19-.17,8.44-.27,3.22.02,6.48.11,8.63.15,1.42.05,5.34.17,6.93.22,2.27.16,5.3.38,8.41.6,1.54.11,3.09.21,4.55.31.73.06,1.45.09,2.13.16.68.09,1.33.17,1.93.24,3,.38,6.09.78,9.23,1.18.79.1,1.57.2,2.37.3l1.19.15,1.18.21c1.58.29,3.16.57,4.75.86,3.17.59,6.36,1.12,9.5,1.75,3.11.73,6.2,1.45,9.21,2.16,1.5.35,2.99.7,4.45,1.04,1.45.38,2.86.82,4.26,1.21,2.78.8,5.45,1.58,7.96,2.3,2.53.67,4.83,1.53,6.96,2.26s4.07,1.4,5.77,1.99c1.46.5,2.86.98,4.23,1.45,1.34.54,2.65,1.06,3.92,1.57,2.55,1.02,5,1.99,7.41,2.96,2.43.91,4.75,2.02,7.12,3.11,2.38,1.1,4.79,2.22,7.33,3.39l1.89.87,1.84.97,3.69,1.95c2.46,1.3,4.93,2.61,7.39,3.91,2.43,1.37,4.8,2.85,7.2,4.27,2.38,1.45,4.81,2.83,7.15,4.32,2.31,1.55,4.61,3.1,6.9,4.64,1.15.77,2.29,1.54,3.43,2.31l1.71,1.15,1.65,1.23c2.19,1.65,4.36,3.28,6.52,4.91,2.15,1.64,4.34,3.19,6.34,4.96,2.04,1.71,4.06,3.41,6.06,5.09s4.01,3.31,5.84,5.1c1.87,1.75,3.71,3.47,5.53,5.17,1.8,1.72,3.66,3.32,5.29,5.11,3.34,3.49,6.57,6.87,9.67,10.11,2.92,3.4,5.72,6.66,8.38,9.75,1.52,1.67,3.38,4.12,5.29,6.57,1.93,2.47,3.86,4.96,5.31,6.82.23.3.47.6.71.92l.39.51c.19.28.39.57.59.86.8,1.16,1.64,2.39,2.51,3.66,1.74,2.55,3.61,5.28,5.5,8.04,1.9,2.77,3.81,5.57,5.63,8.22.23.33.45.66.68.99l.34.49v-.63c.02-.86.03-1.7.04-2.52.02-1.66.04-3.24.06-4.72.15-15.3.25-25.92.38-39.99.03-2.95.07-5.88.1-8.79l.03-2.17.13-2.11c.1-1.41.16-2.8.28-4.21.43-5.64,1.08-11.18,1.86-16.63.8-5.45,1.82-10.79,2.97-16.05,1.19-5.26,2.57-10.41,4.11-15.49,6.29-20.24,15.77-39.16,29.62-55.59,5.83-6.96,11.53-12.42,17.55-17.34,6.04-4.89,12.39-9.29,20.06-13.55,1.05-.54,2.06-1.06,3.06-1.57.27-.14.54-.28.81-.41.29,0,.58,0,.87,0,2.23,0,4.36.02,6.42.03.7,0,.33-.05,1.14.39.83.49,1.64.97,2.4,1.47,1.52.99,2.9,2.01,4.08,3.1,2.36,2.19,3.84,4.63,4.17,7.33.14,1.19.1,3.21.11,4.97,0,1.81,0,3.63.01,5.48,0,3.24-.05,18.37-.07,22.63,0,26.48.01,53.96.02,79.83-.08,52.35-.16,103.07-.23,154.73.05,19.44-.08,35.63.09,57.17-.19,23.04-.04,52.19-.16,76.55.12,41.87.05,80.29-.15,116.45-.04,45.04-.08,82.86-.12,127.9v11.08l-.05.82-.09,1.62c-.34,4.34-1.85,8.56-3.72,11.8-.22.46-.49.88-.75,1.27-.26.4-.51.78-.75,1.14-.45.75-.98,1.37-1.45,1.98-.9,1.23-1.84,2.19-2.72,3.15-.88.95-1.84,1.77-2.83,2.71-1.09.84-2.18,1.85-3.65,2.81-1.39,1.04-2.76,1.78-4.03,2.56-.66.34-1.31.67-1.95,1l-.97.49c-.33.14-.67.28-1,.43-.68.28-1.35.61-2.08.86-.73.25-1.48.51-2.27.79-.8.25-1.65.45-2.55.7l-.24.06c-.06.01,0,0-.12.01-.22.01-.44.02-.67.04-.5.03-1.02.06-1.55.09-.92.04-1.71.12-2.43.12-.72-.04-1.39-.07-2.07-.11-.68-.03-1.38-.06-2.16-.1-.78-.12-1.64-.25-2.66-.41-1.76-.17-3.49-.77-5.26-1.21-.45-.1-.87-.26-1.29-.44l-1.27-.5c-.42-.16-.84-.33-1.26-.49-.21-.08-.42-.16-.63-.25l-.59-.31c-7.47-3.58-13.79-9.95-17.23-17.49-1.1-2.15-1.73-4.33-2.44-6.4-.45-2.15-1.04-4.18-1.19-6.29l-.19-1.56-.09-.78v-.79c-.03-1.05-.05-2.11-.07-3.17,0-2.2.12-4.61.18-7.04.65-19.63,1.32-40.05,1.95-59.34.82-24.78,1.59-47.94,2.4-72.25.46-14.25.94-29.1,1.41-43.43.27-8.19.56-17.27.82-25.25.07-2.18.15-4.31.22-6.42l.05-1.58v-.3h.01c-3.21-.6,7.18,1.32-7.2-1.34h0v.03l-.02.05-.14.37-.27.73c-.36.98-.72,1.95-1.08,2.93-.72,1.96-1.45,3.94-2.2,5.96-.77,2.01-1.65,4.03-2.5,6.14-10.97,26.51-25.19,50.82-43.46,73.52-1.58,1.91-3.2,3.89-4.85,5.89-1.68,1.97-3.46,3.91-5.19,5.88-.87.98-1.75,1.96-2.62,2.94-.91.95-1.81,1.89-2.7,2.82-1.8,1.86-3.53,3.74-5.29,5.48-5.05,4.86-6.35,6.32-10.92,10.37-1.33,1.2-2.56,2.31-3.73,3.37-1.18,1.06-2.38,2-3.54,2.99-1.17.97-2.33,1.94-3.54,2.95-.61.5-1.22,1.02-1.86,1.55-.65.51-1.33,1.03-2.02,1.57-2.68,2.08-4.29,3.32-6.76,5.23-9.25,6.88-19.93,13.76-30,19.43-13.42,7.55-26.63,13.61-40.12,18.68-13.5,5.05-27.29,9.11-42.03,12.25-1.45.3-2.9.6-4.35.9l-2.17.45-2.18.37c-2.9.49-5.79.98-8.68,1.47-5.81.76-11.59,1.6-17.45,2.05-1.46.14-2.92.27-4.39.41-1.47.14-2.94.18-4.41.27-2.95.14-5.91.38-8.89.43-2.98.02-5.99.04-9.01.07-1.51.01-3.03.02-4.56.04-.76,0-1.53,0-2.29.01-.76-.04-1.53-.08-2.3-.11-7.25-.4-14.44-.52-21.54-1.45l-5.33-.56-2.66-.28c-.89-.09-1.78-.18-2.66-.34-3.53-.58-7.05-1.15-10.59-1.73-1.56-.26-3.13-.51-4.69-.77-1.54-.34-3.08-.69-4.62-1.03-3.08-.69-6.15-1.38-9.21-2.06l-2.3-.51c-.76-.19-1.51-.42-2.26-.63-1.51-.43-3.01-.86-4.51-1.28-3-.85-6-1.7-8.99-2.55-18.93-5.94-38.69-14.5-56.46-24.7-1.31-.73-2.53-1.4-3.69-2.04-1.16-.63-2.19-1.35-3.21-1.98-2.02-1.28-3.88-2.46-5.72-3.63s-3.68-2.34-5.68-3.6c-1.92-1.38-3.99-2.86-6.36-4.57-3.12-2.24-5.26-3.78-7.39-5.31-2.04-1.64-4.06-3.27-7-5.64-1.47-1.18-2.85-2.28-4.19-3.36-.67-.54-1.34-1.06-1.98-1.6-.63-.56-1.25-1.12-1.88-1.69-2.52-2.27-5.1-4.6-8.15-7.34-2.27-1.94-4.58-4.4-6.98-6.83-2.39-2.44-4.82-4.92-7.07-7.2-.76-.79-1.45-1.64-2.17-2.45-.77-.88-1.53-1.75-2.29-2.62-2.71-3.1-5.38-6.16-8.04-9.2-1.33-1.52-2.65-3.04-3.97-4.55l-1.97-2.26s-.09-.12-.11-.11v.56s.03.75.03.75l.03,1.49c.08,3.98.17,7.93.25,11.88.19,9.43.39,18.76.59,28.52.12,6.2.22,11.71.34,17.88.12,5.72.25,11.91.37,17.39.12,5.87.04,2,.2,9.57l-.02.17Z"/>
        </g>
      </g>
      <g>
        <path class="st1" d="M735.46,397.24c0,117.67-95.39,213.06-213.06,213.06s-213.06-95.39-213.06-213.06,95.39-213.06,213.06-213.06,213.06,95.39,213.06,213.06ZM711.78,397.25c0-104.59-84.79-189.38-189.38-189.38s-189.38,84.79-189.38,189.38,84.79,189.38,189.38,189.38,189.38-84.79,189.38-189.38Z"/>
        <g>
          <path class="st0" d="M532.68,590.23c3.68-.3,6.98-.58,10.07-.83,3.12-.39,5.88-.73,7.89-.98,2.41-.32,4.46-.78,6.33-1.1,1.86-.36,3.53-.62,5.1-1,3.13-.78,5.99-1.4,9.49-2.3,1.45-.41,3.33-.94,5.54-1.57,1.1-.33,2.3-.61,3.53-1.04,1.23-.41,2.53-.85,3.87-1.3s2.74-.92,4.17-1.4c1.41-.55,2.85-1.11,4.31-1.67,1.46-.57,2.94-1.15,4.43-1.73,1.46-.65,2.93-1.3,4.38-1.95,11.68-5.2,22.18-11.55,25.34-13.78,5.5-3.54,12.16-8.38,16.49-11.87,1.49-1.13,2.86-2.44,4.25-3.66,1.06-.91,2.28-1.95,3.59-3.08,1.32-1.1,2.61-2.41,3.96-3.71,2.96-2.94,2.77-2.46,5.29-5.12.91-.98,2.86-3.08,3.81-4.12,1.68-1.76,3.17-3.61,4.72-5.36l2.28-2.64c.72-.91,1.43-1.82,2.14-2.72,1.41-1.83,2.9-3.59,4.25-5.5,1.36-1.91,2.73-3.84,4.15-5.83,1.79-2.63,3.44-5.32,5.11-7.9,1.6-2.63,3.04-5.25,4.48-7.71,2.68-5.03,5.06-9.6,6.7-13.38.31-.65.67-1.41.98-2.05.32-.7.72-1.62,1.11-2.55.39-1.02.75-1.99,1-2.65.75-1.88,1.47-3.7,2.16-5.45.67-1.76,1.21-3.48,1.77-5.09.55-1.62,1.07-3.15,1.56-4.59.42-1.46.8-2.82,1.16-4.06.21-.8.51-1.92.73-2.71.21-.75.44-1.46.67-2.17.2-.72.39-1.44.57-2.21.35-1.55.7-3.09,1.04-4.6.33-1.48.66-2.89.85-4.21.45-2.62.84-4.79,1.18-6.13.34-1.84.5-3.71.72-5.57l.63-5.58c.28-3.01.5-6.06.74-9.12.15-1.53.12-3.07.18-4.62.03-1.11.02-.67.02-.79v-.05l.04-.41c.02-.27.03-.53.08-.76.04-.19.04-.44.06-.56.01-.09.09-.12.12-.21.04-.13-.01-.34.14-.44-.26-.07.04-.22.04-.34,0-.06-.11-.22-.14-.36,0,0,.05-.04.05-.05,0-.03-.07-.09-.08-.13,0-.01.05-.04.05-.05.02-.09-.37-.62-.43-.69-.04-.05-.1-.03-.13-.07-.04-.06-.08,0-.09-.01-.2-.18-.23-.34-.33-.39-.22-.09-.37-.28-.52-.3-.06,0-.12-.03-.18-.02-.11-.26-.26-.18-.37-.44-.13.11-.28,0-.41,0-.05,0-.13-.03-.18-.02-.04,0-.07.09-.1.1-.02,0-.11-.07-.13-.07-.21,0-.44-.04-.6-.02-.09.01-.15.03-.23.03-.06,0-.12-.03-.18-.02-.07,0-.12.04-.18-.02.09-.08.1-.17.08-.27-.14.16-.25.01-.39.17-.07-.09-.09-.1-.18-.02-.08.07-.26,0-.32.01-.1.01-.13.07-.25.14-.14.08-.41-.04-.53.21-.1-.03-.19-.18-.3-.2-.29.13-.59.36-.87.33-.02.26-.3.31-.42.5-.04.06.06.31-.13.31-.05.18.14.39.03.55-.14.18-.24-.08-.39.17.12.29,0,.6,0,.88,0,.16.04.28.04.45,0,.14-.08.33.04.45-.16.22-.13.63-.14.8,0,.03-.1.06-.1.09,0,.05.06.19.07.23v.31s-.01.02-.01.02l-.02.73c-.05,1.32-.05,2.61-.12,3.86-.09,1.25-.19,2.46-.27,3.62-.19,2.31-.28,4.42-.47,6.2-.18,1.49-.41,3.4-.69,5.63-.16,1.13-.26,2.35-.49,3.59-.22,1.24-.46,2.53-.69,3.82s-.47,2.59-.7,3.87c-.22,1.28-.56,2.5-.82,3.68-.55,2.36-1.04,4.47-1.42,6.09-.56,1.98-1.13,4-1.71,6.03-.29,1.01-.56,2.04-.88,3.05-.34,1-.68,2.01-1.01,3.01-.69,2-1.31,4.01-2.03,5.94-.75,1.92-1.49,3.8-2.21,5.62-2.37,5.86-5.38,11.97-7.14,15.24-.67,1.28-1.66,3.49-2.47,4.79-.68,1.18-1.54,2.67-2.41,4.18-.44.75-.86,1.52-1.31,2.23-.45.71-.89,1.38-1.28,1.99-1.21,1.88-2.35,3.67-3.44,5.37-1.17,1.65-2.28,3.21-3.35,4.71-.53.75-1.05,1.48-1.56,2.19s-1.06,1.37-1.57,2.03c-1.04,1.32-2.03,2.58-2.99,3.8-4.92,6.12-13.28,15.04-16.6,17.9-1.81,1.74-3.31,3.25-4.87,4.59-1.54,1.37-3.03,2.7-4.73,4.14-1.62,1.25-3.13,2.43-4.69,3.64-.8.63-1.61,1.26-2.42,1.9l-2.52,1.8c-1.68,1.19-3.35,2.39-4.98,3.52-1.68,1.06-3.31,2.08-4.85,3.01-18.17,11.59-37.11,19.27-56.76,23.69-10.47,2.46-22.08,4.24-31.63,4.52-4.73.18-10.7.36-15.49.13-4.29-.01-8.45-.43-12.6-.72-1.04-.06-2.07-.19-3.11-.32-1.03-.13-2.07-.26-3.11-.39-2.07-.28-4.17-.46-6.26-.88-1.62-.29-3.32-.59-5.03-.89-.85-.16-1.71-.29-2.56-.47-.84-.19-1.67-.39-2.48-.58-1.98-.47-3.41-.8-5.31-1.25-4.64-1.24-10.66-2.92-15.2-4.57-.92-.31-1.94-.65-2.99-1.01-1.03-.41-2.11-.83-3.18-1.24-2.13-.85-4.24-1.63-5.89-2.32-1.02-.45-1.79-.78-2.85-1.25-1.72-.78-3.78-1.64-5.72-2.62-1.88-.98-3.75-1.96-5.31-2.77-1.73-.87-3.33-1.85-4.93-2.8-1.61-.96-3.21-1.91-4.83-2.87-1.63-1.07-3.27-2.14-4.96-3.25-.86-.57-1.77-1.12-2.67-1.75-.9-.64-1.82-1.3-2.77-1.98-3.86-2.62-7.48-5.58-11.16-8.46-2.07-1.79-3.98-3.44-5.88-5.08-.86-.7-1.75-1.57-2.62-2.38l-4.01-3.77c-1.34-1.26-2.58-2.64-3.88-3.96l-1.94-2.02c-.66-.67-1.3-1.36-1.91-2.08-1.25-1.43-2.5-2.88-3.78-4.34-1.21-1.33-2.33-2.84-3.49-4.3-1.15-1.47-2.29-2.92-3.38-4.31-.49-.67-.93-1.28-1.36-1.88-.97-1.36-1.78-2.5-2.78-3.9-.78-1.05-1.47-2.15-2.16-3.24-.7-1.09-1.39-2.17-2.08-3.25-1.43-2.13-2.65-4.37-3.92-6.58-.63-1.11-1.24-2.19-1.85-3.26-.58-1.08-1.09-2.16-1.63-3.22-.54-1.07-1.07-2.14-1.61-3.21-.55-1.07-1.1-2.17-1.59-3.33-.48-1.08-.98-2.19-1.47-3.28-.53-1.21-1.01-2.3-1.52-3.46-1.01-2.59-2.36-6.07-3.42-8.79-1.59-4.75-2.89-8.25-4.17-12.99-.38-1.32-.71-2.45-1.01-3.5-.31-1.05-.49-2.04-.72-3.01-.44-1.95-.89-3.89-1.48-6.5-.35-1.96-.73-4.04-1.1-6.11-.19-1.04-.37-2.07-.55-3.08-.13-1.02-.25-2.02-.38-2.99-.45-3.64-.2-1.88-.38-3.62-.44-3.21-1.27-14.23-1.25-18.66l-.07-2.84.07-2.84.15-5.67c0-.94.08-1.88.16-2.82l.22-2.81c.16-1.87.26-3.75.47-5.6.9-7.42,1.99-14.74,3.64-21.77,1.56-7.6,4.22-15.99,7.07-23.74.76-1.92,1.51-3.81,2.25-5.65.18-.46.36-.92.54-1.37.2-.44.4-.88.6-1.32.4-.87.79-1.73,1.17-2.57.78-1.67,1.48-3.3,2.21-4.79.76-1.48,1.48-2.87,2.14-4.14.69-1.31,1.64-3.48,2.45-4.79.98-1.7,1.98-3.44,3-5.2.49-.89,1.04-1.75,1.6-2.6.55-.86,1.11-1.72,1.67-2.58,2.15-3.5,4.64-6.8,6.95-10.08,1.26-1.73,2.51-3.2,3.69-4.71,1.2-1.49,2.36-3.01,3.78-4.59.93-1.09,1.9-2.21,2.87-3.34.47-.55.94-1.11,1.4-1.64.48-.52.95-1.02,1.4-1.5,1.81-1.92,3.34-3.52,4.21-4.29,1.23-1.35,2.53-2.52,3.74-3.71,1.23-1.17,2.4-2.33,3.62-3.44,1.24-1.08,2.48-2.15,3.77-3.28,1.28-1.11,2.55-2.3,3.99-3.43,2.92-2.24,5.89-4.63,9.1-6.82,1.6-1.1,3.14-2.3,4.8-3.35,1.65-1.06,3.31-2.13,4.96-3.19,1.63-1.1,3.37-2.03,5.05-3.02,1.7-.96,3.36-1.98,5.07-2.86,1.7-.86,3.39-1.71,5.09-2.57.84-.41,1.66-.86,2.5-1.23.83-.36,1.66-.73,2.51-1.1,2.7-1.26,5.22-2.53,7.78-3.48,1.28-.51,2.52-1,3.75-1.49,1.24-.49,2.46-.98,3.72-1.38,2.5-.83,4.99-1.7,7.57-2.53,2.61-.75,5.28-1.53,8.11-2.38,3.93-.73,9.48-2.28,13.82-2.83,4.55-.95,9.22-1.42,13.88-2.05,4.7-.34,9.41-.83,14.16-.83,4.75-.23,9.51.04,14.28.15,4.75.39,9.53.64,14.25,1.35,1.38.19,3.04.37,4.77.63,1.72.31,3.52.63,5.2.93,3.37.54,6.22,1.25,7.08,1.43,3.51.76,5.76,1.27,7.73,1.91,1.99.6,3.77,1.13,6.39,1.84,1.33.44,3.27,1.09,5.58,1.85,1.17.41,2.45.79,3.72,1.29,1.28.51,2.59,1.03,3.9,1.55s2.6,1.03,3.84,1.52c1.21.55,2.37,1.08,3.42,1.56,2.11.96,3.8,1.73,4.69,2.13,9.06,4.44,17.05,9.04,25.66,15,1.88,1.36,3.88,2.7,5.82,4.21,1.92,1.52,3.88,3.07,5.84,4.61,3.79,3.25,7.58,6.5,10.88,9.77.77.73,1.64,1.56,2.56,2.43.87.91,1.8,1.87,2.73,2.83,1.86,1.93,3.77,3.86,5.22,5.61,5.75,6.24,11.46,14.49,14.89,19.27,1.79,2.72,1.37,2.16,2.62,4.11.65,1.01,1.33,2.06,2.02,3.13.64,1.09,1.29,2.21,1.94,3.32,1.28,2.23,2.64,4.42,3.69,6.59,4.56,8.5,8.28,17.61,11.2,26.41.44,1.24.88,2.46,1.34,3.75.51,1.38.89,2.95,1.38,4.57.46,1.63.95,3.33,1.44,5.07.4,1.76.81,3.55,1.22,5.33.88,3.54,1.42,7.07,1.97,10.13.6,3.05.83,5.68,1.1,7.42.2,1.47.38,2.88.58,4.34.14,1.51.23,3.05.34,4.57.11,1.52.22,3.02.32,4.42.1,1.41.09,2.73.15,3.91.03.83.05,1.39.06,1.82v.26h0v.02s-.02.02-.02.05c.08.44,0,.73-.03,1.14-.02.31,0,.61-.01.92.09.13.22.14.31.2.1.07.13.16.22.19.06.02.17-.04.23-.03-.1-.15.15-.17.19-.09.24.36.5.33.76.36.18.15.05.26.11.4.29.02.59-.09.86.27.14-.04.28-.11.41,0l.21.3c.17-.02.33.08.5.12.12.03.26.02.32.09.06.08.16-.05.23-.03.08.16.17.23.26.26.28-.04.55.04.84-.12.15.07.3.1.45.17.31-.24.58-.01.89-.28.12,0,.23.28.36.16-.12-.26.3-.45.45-.68-.06-.13-.02-.27-.02-.4s-.06-.46-.02-.51c.05-.06,0-.05,0-.11.01-.17-.03-.34-.06-.46-.02-.09-.02-.14-.08-.24.16-.22.05-.54.05-.79,0-.05.05-.11.06-.16,0-.08-.08-.15-.08-.24,0-.15.06-.29.03-.45-.02-.68.04,2.01-.16-5.34-.38-5.11-.67-10.25-1.44-15.46-.15-1.19-.3-2.4-.46-3.62-.14-1.23-.41-2.45-.61-3.7-.46-2.49-.83-5.06-1.41-7.68-.13-.64-.33-1.57-.46-2.23-.33-1.32-1-4.06-1.34-5.44-.38-1.56-.69-2.83-1.12-4.4-.44-1.45-1.17-3.88-1.61-5.36-.68-2.01-1.6-4.75-2.63-7.8-1.07-3.03-2.43-6.29-3.65-9.45-1.35-3.1-2.71-6.05-3.79-8.44-1.15-2.36-2.11-4.14-2.54-4.98-.66-1.26-1.28-2.45-1.9-3.64-.68-1.2-1.36-2.39-2.02-3.56-1.34-2.3-2.46-4.5-3.52-6.05-.69-1.04-2.36-3.57-3.09-4.67-.28-.44-.68-1.06-1.15-1.78-.5-.7-1.06-1.5-1.63-2.31-1.14-1.61-2.31-3.26-3-4.24-2.13-2.89-4.13-5.32-6.09-7.87-2.07-2.45-4.2-4.94-6.74-7.82-1.16-1.22-2.32-2.45-3.49-3.67-1.18-1.21-2.3-2.49-3.54-3.63-1.34-1.29-2.91-2.81-4.49-4.33-.39-.38-.78-.75-1.17-1.12-.4-.36-.8-.71-1.19-1.05-.79-.69-1.54-1.35-2.24-1.95-1.01-.87-2.11-1.79-3.22-2.71-1.12-.9-2.28-1.73-3.32-2.55-1.22-.95-2.47-1.96-3.73-2.98-1.26-1.02-2.6-1.94-3.88-2.88-1.08-.77-3.45-2.39-4.62-3.16-.32-.21-1.53-1.03-1.89-1.27-1.14-.71-3.56-2.21-4.76-2.95-1.67-1.07-3.53-2.06-5.34-3.14-1.83-1.06-3.65-2.16-5.47-3.06-3.6-1.87-6.82-3.59-9.01-4.5-1.79-.79-3.4-1.51-5-2.22-1.55-.7-3.13-1.23-4.83-1.92-1.69-.66-3.39-1.33-5.1-2-1.73-.59-3.47-1.18-5.19-1.76-3.43-1.25-6.93-2.15-10.29-3.13-6.74-1.84-13.12-3.18-18.39-4.07-.65-.11-1.64-.27-2.73-.45-1.08-.12-2.13-.24-2.82-.32-1.94-.24-5.15-.74-7.28-.96-1.98-.14-3.71-.26-5.45-.38-.85-.06-1.69-.11-2.52-.17-.85-.07-1.73-.12-2.67-.13-15.33-.6-28.59.27-42.65,2.7-1.7.33-3,.59-4.19.82-1.33.25-2.59.59-3.85.87-1.25.29-2.49.58-3.8.89-1.29.3-2.62.62-4.01,1.07-3,.77-5.52,1.44-7.84,2.15-2.23.77-4.48,1.56-6.68,2.32-1.02.27-5.59,2.04-6.88,2.54-4.03,1.49-7.96,3.43-11.93,5.2-1.95.96-3.87,1.98-5.78,2.95-.96.49-1.91.98-2.85,1.47-.92.53-1.84,1.05-2.75,1.58-1.84,1.06-3.67,2.11-5.5,3.16-1.78,1.13-3.55,2.26-5.32,3.39-.88.57-1.77,1.11-2.64,1.7l-2.56,1.81c-1.7,1.21-3.42,2.39-5.1,3.62l-4.92,3.84c-.81.65-1.66,1.26-2.45,1.94l-2.37,2.03c-1.57,1.36-3.18,2.69-4.72,4.09-1.52,1.43-3.04,2.86-4.56,4.3-.58.56-1.13,1.09-1.67,1.61-.53.55-1.04,1.09-1.56,1.63-1.03,1.07-2.04,2.14-3.07,3.21-2.1,2.11-4.01,4.51-6.26,7.18-1.29,1.36-2.53,2.91-3.81,4.53-1.27,1.62-2.63,3.27-3.9,4.99-2.46,3.51-5.06,6.99-7.17,10.33-7.26,11.49-12.88,22.66-17.38,33.5-.66,1.7-1.35,3.36-1.96,5.02-.57,1.67-1.13,3.31-1.68,4.94-.53,1.63-1.16,3.22-1.59,4.86-.47,1.62-.93,3.24-1.39,4.86-1.84,6.47-3.26,13.06-4.48,20.27-.26,1.28-.46,2.86-.66,4.45-.2,1.59-.4,3.19-.57,4.54-.4,2.94-.36,3.91-.53,6.36-.12,2.43-.27,3.81-.42,6.81-.05,1.24-.07,1.91-.12,3.3-.03,1.27-.07,2.59-.1,3.85-.07,1.48-.02,2.98.02,4.48.04,1.5.08,2.99.12,4.46.02.85.05,1.65.07,2.43.03.77.11,1.51.17,2.25.12,1.48.24,2.93.37,4.5.18,3.18.66,6.4,1.05,9.62.33,3.22.95,6.39,1.49,9.48.18.99.35,1.97.52,2.95s.43,1.93.63,2.89c.44,1.91.87,3.8,1.3,5.69.2.95.45,1.88.72,2.81l.79,2.8c.54,1.86,1.02,3.76,1.63,5.64.74,2.2,1.5,4.43,2.26,6.68.36,1.13.79,2.23,1.23,3.33.43,1.1.86,2.19,1.29,3.27.49,1.24,1.01,2.54,1.53,3.84.57,1.27,1.14,2.53,1.67,3.72,1.16,2.59,2.16,4.97,3.57,7.62,4.15,8.48,8.96,16.32,14.44,24.18.94,1.33,1.95,2.74,2.95,4.15,1.02,1.4,2.12,2.73,3.12,4.02,1.39,1.74,1.82,2.28,3.09,3.87,1.61,1.86,2.63,3.03,4.16,4.78.72.82,1.19,1.36,1.86,2.11,1.32,1.39,2.69,2.81,4.06,4.25.68.72,1.37,1.44,2.05,2.16.68.71,1.4,1.36,2.08,2.03,7.19,7.13,14.1,12.87,22.09,18.74,1.59,1.14,3.17,2.26,4.73,3.39,1.62,1.05,3.24,2.09,4.86,3.14.81.52,1.63,1.05,2.45,1.57s1.68.99,2.53,1.49c1.71.98,3.43,1.97,5.19,2.98,2.09,1.16,4.23,2.18,6.32,3.26,1.05.52,2.09,1.08,3.16,1.58l3.22,1.45c1.91.84,3.78,1.74,5.7,2.53,1.92.75,3.83,1.5,5.75,2.26.76.3,1.53.6,2.3.9.79.27,1.58.53,2.38.8,1.6.54,3.21,1.09,4.84,1.63,1.61.58,3.27,1.03,4.92,1.5,1.65.47,3.29.93,4.91,1.39,3.81,1,5.64,1.35,9.39,2.26,2.46.57,3.42.66,5.86,1.1,2.46.39,4.27.77,6.97,1.04,1.98.25,4.4.56,6.48.82,5.77.52,10.84.97,16.42,1.04.99.03,1.95.06,2.91.09l1.43.04c.49,0,.97-.02,1.47-.03,1.88-.05,3.85-.09,5.65-.14,1.91-.05.65.01,3.11-.09l.07-.04Z"/>
          <path class="st0" d="M533.93,188.39c3.74.27,7.53.48,10.92.85,3.38.44,6.37.83,8.54,1.11,2.61.37,4.84.82,6.87,1.15,1.01.17,1.97.33,2.89.49.92.14,1.8.31,2.65.51,1.72.38,3.36.75,5.01,1.11.85.19,1.7.38,2.57.58.44.1.89.2,1.35.31.45.13.91.26,1.38.39,3.13.93,8.22,2.2,14.01,4.31,1.45.5,2.97,1,4.51,1.56,1.52.61,3.08,1.23,4.66,1.86,1.58.63,3.18,1.27,4.79,1.92,1.58.72,3.16,1.44,4.73,2.16,12.61,5.73,23.92,12.72,27.41,15.04,6.05,3.71,13.11,9.19,17.8,12.97,1.62,1.21,3.17,2.56,4.7,3.85,1.15,1,2.45,2.14,3.87,3.38,1.38,1.25,2.79,2.66,4.28,4.04,3.3,3.09,2.91,2.76,5.62,5.65,1.04,1.06,3.16,3.23,4.26,4.35,7.07,7.85,12.95,15.26,18.95,23.97,1.87,2.9,3.72,5.78,5.53,8.58,1.67,2.89,3.29,5.7,4.83,8.38,1.47,2.72,2.76,5.36,4.02,7.78.31.61.61,1.2.91,1.78.27.6.53,1.18.79,1.75.51,1.14.99,2.22,1.45,3.24.32.75.65,1.52.97,2.27.33.77.84,1.73,1.25,2.75.44,1.08.87,2.11,1.16,2.84.8,2.04,1.58,4.02,2.32,5.92.65,1.93,1.27,3.78,1.86,5.54.57,1.76,1.18,3.41,1.64,4.99.45,1.58.86,3.05,1.25,4.41.26.88.61,2.04.87,2.92.5,1.62.73,3.14,1.11,4.81.39,1.68.79,3.35,1.17,4.97.19.8.37,1.58.55,2.34.14.77.28,1.51.41,2.21.52,2.84.94,5.19,1.11,6.67.21.99.36,2,.49,3l.42,3.01.84,6.03c.24,3.28.48,6.59.72,9.91.09,1.66.09,3.34.14,5.01l.02.82v.46c-.02.26-.02.51-.05.73-.03.19-.02.42-.03.54,0,.08-.09.12-.1.21-.03.13.03.33-.12.42.27.06-.03.21-.02.33,0,.06.13.21.16.35,0,0-.05.04-.05.05,0,.03.08.09.08.12,0,.01-.05.04-.05.05-.01.08.4.59.47.66.05.05.1.03.13.07.04.05.08,0,.09.01.21.17.24.33.35.37.22.09.38.27.53.28.06,0,.12.02.18.02.12.26.27.17.39.43.13-.11.28,0,.41,0,.05,0,.13.03.18.02.04,0,.06-.09.1-.1.02,0,.11.07.13.07.21,0,.44.04.6.02.09-.01.15-.03.23-.03.06,0,.12.03.18.02.07,0,.12-.04.18.02-.09.08-.09.17-.06.27.13-.16.25-.01.38-.18.07.09.1.1.18.02.08-.07.26,0,.32-.02.1-.01.12-.07.24-.14.14-.08.41.04.52-.22.11.03.2.18.31.21.28-.13.57-.37.85-.34,0-.26.29-.32.4-.51.03-.06-.07-.32.11-.33.04-.18-.16-.4-.06-.57.13-.19.24.07.38-.18-.14-.3-.03-.62-.04-.91,0-.16-.05-.29-.06-.46-.01-.14.07-.34-.06-.46.15-.24.1-.66.1-.84,0-.03.1-.07.1-.1,0-.06-.07-.19-.08-.23-.01-.06-.01-.12-.01-.18v-.16l-.02-.85c-.04-1.54-.07-3.05-.11-4.51-.11-1.46-.21-2.87-.31-4.22-.22-2.7-.4-5.16-.61-7.24-.23-1.72-.52-3.96-.86-6.56-.17-1.33-.35-2.74-.54-4.2-.26-1.45-.52-2.95-.79-4.46-.94-6.07-2.49-12.16-3.34-15.95-.6-2.33-1.31-4.67-1.98-7.05-.34-1.19-.68-2.38-1.02-3.57-.38-1.18-.79-2.35-1.18-3.52-.8-2.34-1.59-4.66-2.37-6.94-.89-2.24-1.75-4.44-2.59-6.56-1.28-3.47-2.97-6.91-4.34-10.08-.69-1.58-1.36-3.07-2.05-4.37-.67-1.32-1.26-2.49-1.75-3.45-.79-1.49-2.07-4.01-3.01-5.53-.79-1.38-1.79-3.12-2.8-4.89-.5-.88-1.01-1.77-1.5-2.62-.51-.84-1.03-1.62-1.48-2.33-1.41-2.2-2.75-4.28-4.02-6.26-1.33-1.95-2.65-3.76-3.89-5.51-2.42-3.54-4.9-6.53-7.12-9.39-1.38-1.83-3.1-3.79-4.87-5.84-1.78-2.04-3.55-4.21-5.43-6.11-1.84-1.94-3.6-3.79-5.11-5.38-1.56-1.55-2.92-2.8-3.84-3.69-4.19-4.1-7.47-6.56-11.35-10.03-1.68-1.44-3.54-2.86-5.4-4.34-.94-.74-1.88-1.48-2.82-2.22-.95-.74-1.96-1.41-2.93-2.12-1.95-1.39-3.88-2.77-5.8-4.14-1.79-1.18-3.56-2.35-5.56-3.68-10.69-6.66-21.54-12.22-32.56-16.87-11.02-4.65-22.28-8.19-33.73-10.93-12.25-2.88-25.82-4.62-36.95-5.38-1.38-.14-2.85-.14-4.37-.19-1.52-.04-3.08-.09-4.65-.13-1.57-.02-3.13-.14-4.66-.08-1.53.04-3.01.07-4.41.1-1.25.03-2.5.06-3.73.1l-1.85.05-1.84.14c-2.45.19-4.88.37-7.31.56l-1.82.14-1.81.23c-1.21.15-2.42.31-3.63.46-1.21.16-2.43.31-3.65.47l-1.84.24c-.61.11-1.22.22-1.83.33-1.89.34-3.88.7-5.88,1.06-1,.18-2,.36-2.99.54-.98.23-1.95.45-2.9.67-2.32.53-3.99.9-6.22,1.41-5.44,1.4-12.47,3.4-17.78,5.31-1.08.37-2.26.77-3.5,1.18-1.23.43-2.47.96-3.72,1.44-2.49.99-4.94,1.94-6.88,2.76-1.19.55-2.06.96-3.3,1.54-2,.94-4.39,1.97-6.68,3.08-2.23,1.12-4.43,2.24-6.25,3.15-1.01.52-2.02.98-2.98,1.52-.96.54-1.91,1.07-2.86,1.6-1.91,1.07-3.81,2.14-5.74,3.22-1.92,1.21-3.86,2.43-5.87,3.7-1.02.65-2.08,1.31-3.15,2.02-1.05.75-2.13,1.51-3.26,2.31l-3.34,2.38-1.67,1.19-1.61,1.26-6.45,5.07c-2.43,2.1-4.66,4.04-6.87,5.96-.99.83-2.03,1.86-3.03,2.83-1.55,1.49-3.09,2.98-4.64,4.47-.79.73-1.53,1.52-2.27,2.31l-2.23,2.37c-1.47,1.6-3.05,3.13-4.48,4.82-1.45,1.68-2.91,3.38-4.39,5.09-1.4,1.56-2.74,3.31-4.1,5.02-1.35,1.72-2.68,3.42-3.95,5.04-.56.8-1.06,1.51-1.56,2.23-1.13,1.59-2.08,2.93-3.24,4.56-.44.62-.89,1.24-1.31,1.87l-1.23,1.91c-.82,1.27-1.63,2.54-2.44,3.8-.79,1.27-1.66,2.49-2.38,3.8-.75,1.29-1.49,2.58-2.24,3.87s-1.48,2.55-2.21,3.79c-.71,1.24-1.32,2.5-1.98,3.73-.65,1.24-1.29,2.48-1.94,3.73-.65,1.25-1.33,2.52-1.92,3.87-.57,1.26-1.16,2.56-1.74,3.83-.66,1.41-1.23,2.66-1.86,4.02-1.21,2.96-2.84,7.06-4.08,10.27-1.86,5.56-3.39,9.68-4.83,15.24-.86,3.07-1.53,5.33-2.01,7.62-.53,2.28-1.06,4.55-1.77,7.61-.41,2.3-.85,4.73-1.28,7.16-.22,1.21-.43,2.42-.64,3.61-.16,1.2-.31,2.37-.46,3.5-.55,4.26-.31,2.19-.62,4.22-.7,3.74-1.43,16.69-1.41,21.86l-.08,3.32c0,1.11.05,2.21.07,3.32l.16,6.64c0,1.11.08,2.21.17,3.31l.24,3.3c.18,2.2.29,4.39.52,6.57,1.01,8.7,2.28,17.3,4.29,25.52,1.93,8.89,5.04,18.71,8.34,27.82.88,2.25,1.75,4.48,2.6,6.64.21.54.42,1.08.63,1.61.23.52.47,1.04.7,1.55.46,1.03.91,2.03,1.36,3.02.9,1.97,1.71,3.88,2.56,5.63.88,1.74,1.71,3.37,2.48,4.87.8,1.54,2.08,3.99,3.03,5.54,1.15,2,2.31,4.04,3.5,6.1.57,1.04,1.21,2.05,1.86,3.06.64,1.01,1.29,2.02,1.94,3.04,2.51,4.12,5.41,8,8.11,11.85,1.48,2.03,2.91,3.77,4.27,5.56,1.38,1.77,2.72,3.57,4.38,5.43,1.11,1.27,2.25,2.58,3.39,3.89.56.64,1.12,1.28,1.67,1.9.58.6,1.14,1.18,1.67,1.73,2.15,2.23,3.93,4.1,4.8,5.16,1.5,1.53,3.04,2.87,4.47,4.25,1.45,1.36,2.83,2.72,4.27,4.01,1.46,1.26,2.92,2.52,4.44,3.83,1.51,1.29,3.03,2.65,4.77,3.91,1.72,1.37,3.43,2.73,5.14,4.1l1.31,1.04,1.37.98c.92.66,1.84,1.31,2.76,1.97.93.66,1.86,1.32,2.79,1.98.93.67,1.87,1.33,2.85,1.93,1.94,1.24,3.88,2.48,5.83,3.73,1.92,1.29,3.96,2.36,5.93,3.52,2,1.12,3.93,2.33,5.94,3.36,1.99,1.03,3.96,2.05,5.94,3.07.98.5,1.93,1.04,2.91,1.49.96.45,1.93.9,2.91,1.35,3.22,1.38,6.2,2.79,9.21,3.89,1.5.59,2.95,1.16,4.41,1.73.73.29,1.45.57,2.17.86.72.27,1.46.51,2.19.76,2.93.98,5.84,2.03,8.87,2.97,3.06.86,6.21,1.74,9.55,2.63,4.52,1.2,11.1,2.69,16.15,3.56,2.69.46,5.37.97,8.11,1.25,2.72.33,5.45.7,8.19,1,5.5.4,11.03.93,16.59.96,2.78.07,5.57.19,8.36.06,2.79-.07,5.58-.12,8.37-.22l8.37-.63,2.09-.16c.7-.06,1.39-.17,2.08-.25l4.17-.53c1.62-.22,3.57-.41,5.59-.75,2.02-.36,4.13-.74,6.1-1.09,3.95-.63,7.29-1.5,8.29-1.73,2.16-.51,3.76-.89,5.2-1.23,1.47-.32,2.69-.72,3.87-1.02,2.35-.64,4.46-1.19,7.5-2.12,1.54-.53,3.82-1.31,6.52-2.24,1.37-.49,2.87-.92,4.36-1.53,1.5-.59,3.04-1.2,4.58-1.8,1.53-.61,3.05-1.21,4.51-1.78,1.43-.64,2.79-1.25,4.02-1.81,2.48-1.12,4.46-2.01,5.5-2.49,10.63-5.21,19.94-10.71,30.03-17.7,1.11-.79,2.24-1.59,3.38-2.4,1.14-.82,2.32-1.62,3.44-2.53,2.26-1.77,4.57-3.57,6.87-5.38,2.22-1.91,4.44-3.82,6.62-5.69,1.11-.92,2.14-1.9,3.15-2.87,1.02-.97,2.02-1.93,3.01-2.86.91-.87,1.93-1.83,2.98-2.88,1.01-1.07,2.09-2.21,3.17-3.35,1.08-1.14,2.17-2.3,3.21-3.4,1.05-1.1,1.96-2.25,2.85-3.24,1.61-1.89,3.36-3.81,5.02-5.82,1.61-2.04,3.24-4.09,4.81-6.06.39-.49.78-.98,1.16-1.47.36-.5.72-1,1.07-1.48.7-.98,1.37-1.93,2.02-2.83,1.28-1.82,2.49-3.45,3.42-4.92,2.02-3.24,1.63-2.51,3.1-4.81.76-1.2,1.56-2.42,2.33-3.7.73-1.29,1.48-2.61,2.23-3.92,1.49-2.63,3.02-5.23,4.25-7.77,1.27-2.53,2.64-5.01,3.83-7.59,1.17-2.57,2.35-5.15,3.53-7.73,1.12-2.59,2.11-5.22,3.17-7.81,1.09-2.57,1.94-5.2,2.84-7.77.47-1.44.94-2.9,1.43-4.44.52-1.65.98-3.48,1.54-5.39.53-1.91,1.12-3.91,1.67-5.95.48-2.06.97-4.16,1.46-6.25,1.93-8.33,3.18-16.47,3.59-20.59.2-1.71.4-3.37.61-5.1.14-1.76.28-3.57.42-5.36.14-1.79.28-3.54.41-5.18.07-1.65.09-3.21.11-4.59.02-.97.03-1.63.04-2.13v-.31h0v-.02s.02-.02.02-.05c-.05-.46.04-.76.08-1.19.03-.32.04-.64.06-.96-.09-.13-.22-.15-.3-.21-.1-.07-.12-.17-.21-.2-.06-.02-.17.04-.23.03.09.16-.16.18-.19.09-.22-.38-.48-.35-.74-.38-.17-.16-.04-.27-.09-.41-.29-.03-.59.08-.84-.28-.14.04-.29.11-.41,0l-.2-.31c-.17.02-.33-.08-.49-.12-.12-.03-.26-.02-.31-.1-.06-.08-.16.05-.23.03-.07-.16-.16-.23-.25-.26-.28.03-.55-.04-.84.12-.15-.07-.3-.1-.44-.17-.32.24-.58.01-.91.27-.12,0-.21-.27-.35-.15.11.25-.32.44-.49.66.06.13,0,.26,0,.39,0,.12.04.45-.01.49-.06.06,0,.05-.01.11-.02.17.02.33.04.45.02.09.01.14.07.23-.17.21-.07.52-.09.76,0,.05-.06.11-.06.16,0,.08.07.14.07.23,0,.15-.08.28-.05.43-.02.73.07-2.22-.13,5.79-.11,2.79-.39,5.58-.58,8.39-.13,1.4-.16,2.82-.37,4.22-.18,1.41-.36,2.82-.54,4.24-.56,5.22-1.64,10.61-2.71,16.33-.18.72-.42,1.67-.61,2.4-.32,1.48-.96,4.41-1.29,5.96-.37,1.71-.93,3.04-1.39,4.74-.44,1.63-1.14,4.22-1.59,5.89-.7,2.2-1.75,5.18-2.87,8.5-.52,1.67-1.25,3.36-1.93,5.1-.69,1.73-1.38,3.48-2.06,5.2-1.44,3.39-2.96,6.58-4.12,9.2-1.21,2.59-2.28,4.52-2.71,5.45-.69,1.37-1.35,2.68-2.02,4-.7,1.34-1.49,2.62-2.21,3.88-.72,1.24-1.43,2.45-2.08,3.57-.64,1.12-1.24,2.14-1.81,2.99-.73,1.18-2.45,3.93-3.22,5.18-1.12,1.97-4.82,6.91-6.31,9.07-1.1,1.62-2.3,3.02-3.38,4.43-1.1,1.4-2.18,2.76-3.26,4.13-2.23,2.69-4.61,5.35-7.35,8.51-2.55,2.63-5.05,5.36-7.67,7.94-3,2.84-6.86,6.55-9.98,9.11-1.1.95-2.26,2-3.43,3.04-1.16,1.05-2.4,1.99-3.52,2.9-1.32,1.05-2.71,2.11-4.12,3.18-1.39,1.09-2.9,2.03-4.29,3.04-1.06.78-3.8,2.77-4.93,3.6-.37.23-1.7,1.04-2.11,1.29-1.25.82-3.78,2.49-5.09,3.36-.9.6-1.86,1.16-2.85,1.71-.98.56-1.98,1.13-2.98,1.7-2.01,1.12-3.99,2.34-5.98,3.29-3.95,1.97-7.46,3.85-9.84,4.83-1.95.9-3.69,1.69-5.41,2.49-.42.2-.84.39-1.26.58l-1.29.52c-.88.35-1.76.7-2.68,1.07-1.84.72-3.69,1.45-5.55,2.19-1.89.64-3.78,1.27-5.66,1.91-3.74,1.35-7.55,2.35-11.21,3.39-7.34,1.99-14.29,3.42-20.04,4.35-.72.14-1.79.34-2.96.57-1.09.19-2.21.33-3.05.45-2.05.24-5.7.68-7.94.94-4.45.31-7.49.7-11.58.9-8.36.29-16.15.24-23.76-.33-3.8-.32-7.57-.53-11.33-1.1-1.88-.24-3.77-.49-5.66-.74s-3.78-.66-5.69-.99c-1.82-.3-3.26-.53-4.59-.74-1.46-.23-2.82-.61-4.2-.9-1.37-.31-2.72-.62-4.15-.95-1.41-.32-2.87-.61-4.4-1.05-3.23-1.01-5.95-1.78-8.49-2.52-2.45-.81-4.9-1.61-7.32-2.41-1.12-.28-6.05-2.32-7.45-2.88-4.39-1.62-8.68-3.7-13.01-5.61-2.14-1.02-4.22-2.13-6.31-3.18-1.04-.53-2.08-1.06-3.11-1.59-1.01-.57-2-1.15-3-1.71-2-1.16-4-2.31-5.99-3.45-1.93-1.24-3.85-2.48-5.77-3.72l-2.87-1.86-2.78-1.99c-1.84-1.33-3.7-2.63-5.53-3.98l-5.33-4.22c-.88-.71-1.79-1.39-2.65-2.13l-2.56-2.24c-1.7-1.5-3.43-2.96-5.1-4.5-1.63-1.57-3.27-3.15-4.91-4.73-.64-.6-1.24-1.17-1.84-1.73-.58-.6-1.14-1.19-1.7-1.77-1.11-1.17-2.21-2.33-3.33-3.5-2.29-2.29-4.38-4.88-6.96-7.68-.64-.79-1.34-1.57-2-2.43-.68-.88-1.35-1.75-2.02-2.61-1.36-1.78-2.83-3.57-4.22-5.44-2.68-3.82-5.53-7.58-7.72-11.29-8.12-12.34-14.14-24.59-18.66-36.5-.72-1.85-1.46-3.65-2.12-5.45-.61-1.81-1.21-3.6-1.81-5.37-.3-.88-.59-1.76-.89-2.64l-.44-1.31-.37-1.33c-.5-1.77-.99-3.52-1.48-5.28-1.96-7.03-3.46-14.19-4.77-22.01-.28-1.39-.49-3.1-.7-4.83-.22-1.73-.44-3.46-.63-4.92-.46-3.19-.46-4.24-.72-6.89-.21-2.63-.44-4.13-.55-7.39-.02-1.36-.03-2.06-.05-3.59-.03-1.37-.07-2.81-.1-4.19-.08-1.61,0-3.24.03-4.86.04-1.63.08-3.25.12-4.85.02-.92.04-1.8.06-2.64.03-.84.11-1.65.16-2.45.11-1.61.22-3.19.35-4.9.17-3.46.71-6.96,1.15-10.45.38-3.5,1.09-6.93,1.67-10.29.19-1.08.38-2.14.57-3.2.2-1.06.47-2.09.71-3.13.48-2.07.96-4.13,1.44-6.18.22-1.03.51-2.04.81-3.05l.87-3.03c.6-2.02,1.11-4.08,1.8-6.11.81-2.38,1.63-4.81,2.45-7.24.39-1.23.86-2.42,1.34-3.61.47-1.19.94-2.38,1.4-3.55.54-1.34,1.07-2.77,1.66-4.16.63-1.38,1.24-2.74,1.83-4.03.63-1.38,1.25-2.72,1.87-4.09.61-1.36,1.37-2.68,2.09-4.13,4.56-9.17,9.78-17.68,15.74-26.19,1.03-1.44,2.11-2.97,3.2-4.5,1.12-1.51,2.31-2.96,3.39-4.36,1.5-1.92,1.95-2.5,3.3-4.24,1.73-2,2.85-3.3,4.49-5.2.77-.9,1.27-1.48,1.99-2.32,1.43-1.51,2.91-3.06,4.4-4.62.75-.78,1.49-1.56,2.23-2.34.76-.75,1.54-1.47,2.28-2.18,7.85-7.69,15.48-13.77,24.21-20.04,1.74-1.21,3.43-2.45,5.16-3.62,1.77-1.12,3.53-2.24,5.29-3.37.88-.56,1.77-1.13,2.66-1.7.9-.54,1.83-1.05,2.75-1.59,1.85-1.06,3.71-2.14,5.62-3.23,2.28-1.24,4.57-2.37,6.83-3.56,1.14-.57,2.25-1.2,3.41-1.72l3.48-1.59c2.07-.91,4.09-1.92,6.17-2.74,2.08-.82,4.15-1.64,6.22-2.46.82-.32,1.65-.67,2.5-.98.85-.29,1.71-.58,2.58-.88,1.73-.59,3.48-1.18,5.24-1.78,1.74-.64,3.56-1.08,5.34-1.6,1.79-.51,3.56-1.01,5.32-1.51,4.14-1.05,6.12-1.42,10.19-2.36,2.68-.55,3.71-.66,6.35-1.18,2.65-.48,4.6-.95,7.53-1.29,2.14-.27,4.77-.61,7.03-.9,6.26-.54,11.77-1.01,17.81-1.03,2.19-.03,4.12-.13,6.3-.02,2.03.05,4.18.11,6.13.16,2.07.08.7,0,3.37.13v.02Z"/>
        </g>
      </g>
      <g>
        <path class="st1" d="M532.2,513.04c-7.31,3.03-12.37,2.84-18.94.16-37.64-15.35-71.16-39.19-97-70.65-15.94-19.41-24.73-42.5-24.04-67.4.96-29.51,17.76-53.38,44.04-65.47,30.14-13.86,64.78-7.2,86.13,19.57,21.52-26.7,55.98-33.46,86.18-19.59,26.28,12.06,43.07,35.97,44.02,65.49.69,24.92-8.09,47.97-24.04,67.41-25.56,31.17-58.67,54.85-96.36,70.48h0ZM628.99,377.21c-.31-21.25-11.88-37.14-29.68-45.82-25.64-12.5-55.9-1.33-65.65,25.87-1.85,5.16-6.74,8.38-11.92,8.14-4.36-.2-8.9-3.48-10.58-8.11-9.98-27.62-40.84-38.66-66.58-25.42-17.78,9.15-28.9,25.46-28.74,46.07.14,18.26,6.79,35.07,18.53,49.22,23.61,28.46,53.52,50.34,88.07,64.19,34.76-13.97,65-36.1,88.6-64.97,11.42-13.98,17.89-30.41,17.96-49.16h-.01Z"/>
        <g>
          <path class="st0" d="M533.18,490.93c3.3-1.55,6.67-3.16,8.57-4.12,2.3-1.13,3.89-2.1,5.39-2.91.76-.42,1.48-.83,2.18-1.21.77-.45,1.5-.88,2.29-1.34,1.36-.81,3.61-2.01,6.15-3.6,1.27-.78,2.64-1.62,4.06-2.48,1.39-.9,2.81-1.84,4.22-2.75,1.42-.9,2.77-1.88,4.07-2.78,1.29-.92,2.54-1.76,3.62-2.57,2.16-1.63,3.85-2.92,4.65-3.55,2.64-2.22,6.11-4.82,8.3-6.77.75-.64,1.45-1.35,2.19-1.99,1.13-.97,2.55-2.22,3.98-3.59,1.57-1.54,1.49-1.27,2.87-2.61.57-.55,1.45-1.54,2.06-2.13,1.85-1.78,3.52-3.55,5.21-5.3,1.71-1.73,3.31-3.56,5.03-5.47,1.14-1.23,2.21-2.51,3.25-3.75,1.04-1.25,2.07-2.43,3.02-3.61,1.92-2.41,3.58-4.64,4.82-6.5.17-.23.56-.77.73-1,.49-.68,1.07-1.89,1.54-2.63,2.27-3.77,3.95-7.21,5.07-9.8.22-.46.35-.96.54-1.43.31-.79.7-1.46,1-2.27.58-1.66,1.12-3.27,1.49-4.67.42-1.39.72-2.55.98-3.25.47-1.99.81-4,1.11-6.01.28-1.62.55-3.26.71-4.93.1-.83.2-1.66.25-2.5.04-.6.03-.37.04-.44v-.05c.03-.14.04-.28.06-.42.03-.28.06-.54.11-.78.05-.2.06-.45.09-.58.02-.09.1-.12.12-.21.04-.14-.01-.35.14-.45-.26-.08.04-.23.04-.35,0-.06-.11-.23-.14-.38,0-.01.05-.04.05-.05,0-.03-.07-.1-.08-.13,0-.01.05-.04.05-.05.02-.09-.37-.64-.43-.71-.04-.05-.1-.03-.13-.08-.04-.06-.08,0-.09-.01-.2-.18-.23-.36-.33-.4-.22-.1-.37-.29-.52-.31-.06,0-.12-.03-.18-.03-.11-.27-.26-.19-.36-.45-.13.11-.28,0-.41,0-.05,0-.13-.03-.18-.02-.04,0-.07.09-.1.1-.02,0-.11-.07-.13-.07-.21,0-.44-.04-.6-.02-.09.01-.15.03-.23.02-.06,0-.12-.03-.18-.02-.07,0-.12.04-.18-.02.09-.08.1-.17.08-.27-.14.16-.25.01-.39.17-.07-.09-.09-.1-.18-.02-.08.07-.26,0-.32.01-.1.01-.13.07-.25.13-.14.08-.41-.04-.53.2-.1-.03-.2-.17-.3-.2-.29.13-.59.35-.87.32-.02.25-.3.3-.42.48-.04.06.06.3-.13.3-.05.17.14.38.03.54-.14.17-.24-.08-.39.16.12.28,0,.58,0,.86,0,.15.04.27.04.44,0,.13-.1.31.02.43-.17.21-.16.6-.17.78,0,.03-.1.06-.11.09,0,.05.05.18.06.23v.26l-.02.04v.02l-.03.38c-.07,1.35-.28,2.64-.39,3.82-.15,1.08-.29,2.07-.44,3.16-.21,1.42-.74,3.99-1.45,6.59-.75,2.58-1.65,5.19-2.28,6.77-1.51,3.94-3.53,8.05-5.61,11.49-.82,1.4-1.79,2.79-2.65,4.05-.9,1.23-1.71,2.32-2.3,3.08-.47.58-1.17,1.62-1.66,2.24-.93,1.1-2.36,2.78-3.35,3.94-1.5,1.83-2.98,3.36-4.26,4.82-1.28,1.46-2.51,2.72-3.65,3.91-.72.75-1.54,1.6-2.39,2.49-.88.85-1.79,1.74-2.66,2.59s-1.71,1.65-2.42,2.34c-.74.68-1.35,1.24-1.78,1.63-1.95,1.81-3.2,3.19-5.04,4.68-3.1,2.58-6.75,5.74-9.89,7.92-8.96,7.08-17.97,12.86-27.35,17.97-5.01,2.72-10.44,5.73-15.16,7.59-2.27,1.08-5.21,2.25-7.55,3.23l-.31.13s-.1-.03-.18-.06c-.96-.4-1.92-.8-2.88-1.2-2.05-.82-4.04-1.78-6.1-2.69-1.6-.7-3.32-1.55-4.91-2.34-.93-.47-1.68-.85-2.58-1.3-2.25-1.19-5.19-2.72-7.42-3.97-1.78-1.04-4.29-2.43-5.93-3.41-.48-.28-.93-.54-1.43-.83-1.73-1.02-4.02-2.46-5.48-3.5-3.4-2.31-6.22-4.44-10.24-7.39-1.97-1.5-3.98-2.95-5.88-4.52-1.13-.9-2.13-1.7-3.22-2.57-.43-.35-.99-.81-1.45-1.19-1.48-1.25-3-2.47-4.48-3.78-1.5-1.35-2.98-2.69-4.48-4.03-1.37-1.33-2.83-2.75-4.19-4.07-.33-.32-.61-.56-.89-.85-.63-.65-1.14-1.17-1.77-1.82-.96-1-1.91-1.98-2.85-2.96-.9-1-1.79-1.98-2.72-3.02-1.85-2.01-3.3-3.88-5.03-5.92-.39-.48-.85-.97-1.22-1.45-.38-.5-.81-1.07-1.18-1.55-.44-.55-.93-1.23-1.43-1.92-.49-.69-1.03-1.37-1.44-2.01-1.46-2.12-2.5-3.74-3.76-5.92-.36-.63-.66-1.15-.93-1.62-.25-.5-.48-.95-.72-1.41-.23-.46-.46-.91-.71-1.41-.23-.51-.48-1.05-.76-1.68-.44-.92-.86-1.92-1.26-2.92-.43-.99-.79-2-1.11-2.94-.62-1.77-.3-.92-.53-1.79-.2-.81-.78-2.54-1.24-4.38-.26-.91-.48-1.86-.66-2.71-.19-.85-.37-1.61-.45-2.17-.69-3.8-1.04-7.67-1.07-11.49-.01-3.77.32-7.44.99-10.96.73-3.78,2.18-7.92,4.12-11.53,1.91-3.62,4.3-6.68,6.19-8.8.51-.53,1.22-1.47,1.76-2.02,2.76-2.79,6.16-5.39,9.61-7.49.9-.6,1.78-1.02,2.63-1.48.43-.23.86-.46,1.29-.69.46-.22.91-.43,1.37-.65,2.6-1.23,5.61-2.47,6.78-2.57,3.45-1.14,6.36-1.53,9.96-1.92,3.64-.14,7.56.09,11.37.84,3.8.79,7.49,2.08,10.61,3.78,2.67,1.22,4.87,2.67,6.9,4.28,2.03,1.62,3.92,3.39,5.91,5.52,1.2,1.56,2.96,3.79,4.01,5.69,1.26,1.92,2.27,4.02,3.21,6.16l.65,1.63.4,1.01c.15.4.34.79.53,1.16.77,1.52,1.77,2.9,2.94,4.1,2.34,2.39,5.36,4.14,8.92,4.74,1.84.29,3.52.22,5.24-.1,1.7-.32,3.34-.93,4.84-1.77,1.76-.97,3.95-2.79,5.32-4.83.71-1,1.23-2.01,1.6-2.84.17-.42.31-.78.43-1.09.07-.2.13-.36.18-.48,1.19-3.38,1.88-4.15,3.07-6.55.6-1.14,2.11-3.58,3.87-5.72,1.72-2.18,3.72-3.99,4.42-4.65,1.84-1.66,3.75-3.09,5.76-4.38,2.01-1.3,4.17-2.42,6.57-3.38,2.12-.85,4.47-1.6,6.88-2.12,2.41-.51,4.86-.8,7.15-.92,2.11-.15,5.24-.08,7.47.21,4.19.43,8.93,2.01,11.66,3.07,1.53.55,1.16.52,2.22.98,1.1.46,2.25,1.13,3.41,1.69,1.15.6,2.24,1.3,3.29,1.92,4.07,2.63,7.76,5.92,10.67,9.47,1.64,1.62,3.8,4.71,5.47,7.89.87,1.58,1.51,3.23,2.11,4.64.5,1.45.95,2.68,1.21,3.51.37,1.33.84,2.82,1.05,4.32.13.75.28,1.48.38,2.17.08.7.16,1.36.24,1.94.06.45.1.71.12.9,0,.05.01.09.02.13h0v.02s-.02.02-.01.04c.13.4.02.7.02,1.08-.01.29,0,.58,0,.88.1.12.23.12.31.18.1.06.14.15.22.17.06.02.16-.05.23-.04-.1-.14.15-.17.19-.09.25.34.51.3.77.32.18.14.06.25.12.38.29.02.59-.1.86.24.14-.04.28-.11.41-.01l.22.29c.17-.02.34.07.5.11.12.03.26.01.32.09.07.08.16-.05.23-.03.09.16.18.22.27.25.28-.04.55.03.83-.13.15.07.3.1.45.16.3-.25.58-.02.88-.3.12,0,.23.29.36.16-.12-.27.29-.47.44-.71-.07-.14-.02-.28-.03-.41,0-.13-.07-.48-.03-.53.05-.07,0-.05,0-.12,0-.18-.04-.35-.08-.48-.03-.09-.02-.15-.08-.24.15-.24.03-.56.03-.82,0-.05.05-.12.05-.17,0-.09-.08-.15-.08-.24,0-.16.06-.31,0-.47-.05-.42.1.96-.38-3.03-.15-1.4-.5-2.79-.75-4.19-.3-1.4-.72-2.78-1.08-4.19-.42-1.26-.86-2.56-1.33-3.88-.57-1.28-1.07-2.64-1.74-3.97-.21-.42-.32-.72-.54-1.14-.19-.38-.47-.86-.75-1.35-.28-.48-.62-.94-.85-1.32-.47-.76-.76-1.43-1.25-2.19-.56-.78-1.31-1.68-1.89-2.47-.71-.93-1.75-2.17-2.92-3.51-.61-.64-1.26-1.32-1.91-2-.65-.69-1.39-1.3-2.07-1.94-.35-.31-.69-.63-1.02-.93-.35-.28-.7-.56-1.03-.83-.68-.54-1.31-1.04-1.88-1.49-1.18-.84-2.1-1.45-2.53-1.74-1.22-.82-2.6-1.57-3.83-2.36-1.24-.68-2.51-1.37-3.37-1.83-.69-.35-2.1-.88-2.84-1.22-.54-.22-1.52-.6-2.54-1.01-1.04-.35-2.1-.72-2.72-.93-3.81-1.13-6.76-1.78-11.01-2.17-1.86-.16-3.75-.23-5.62-.19-2.11,0-4.84.25-6.88.55-1.47.25-3.13.7-4.54,1.08-1.66.44-3.47.9-5.13,1.5-.7.24-2.14.95-2.86,1.26-.14.06-1.01.43-1.16.5-.78.34-1.95,1.07-2.73,1.51-3.9,2.08-8.24,5.54-10.1,7.41-1.62,1.56-2.66,2.85-3.97,4.43-2.57,3.13-4.76,6.69-6.42,10.19-.39.89-.83,1.74-1.16,2.6-.33.82-.64,1.62-.95,2.4-.45,1.12-1.08,2.06-1.77,2.8-.38.4-1.05,1.1-1.55,1.43-.61.44-1.74.9-2.51,1.09-1.46.38-2.58.48-3.83.21-2.72-.64-5.11-2.78-6.14-5.15-.31-.8-.62-1.59-.92-2.38-.33-.91-.74-1.78-1.13-2.66-.8-1.76-1.71-3.48-2.74-5.18-1.91-2.76-3.28-4.81-5.51-7.17-2.19-2.68-4.07-4.14-6.15-5.8-.21-.17-.85-.66-1.55-1.22-.69-.5-1.41-1-1.73-1.22-3.99-2.65-8.56-4.71-13.03-6.04-2.26-.71-4.56-1.18-6.85-1.58-2.31-.33-4.62-.59-6.93-.61-4.63-.13-9.25.43-13.77,1.53-3.36.95-6.18,1.81-9.61,3.6-3.81,1.61-8.18,4.41-11.68,7.03-2.9,2.38-5.49,4.89-7.82,7.49-.58.65-1.1,1.34-1.65,2-.27.32-.54.65-.81.99-.26.34-.5.69-.75,1.03-.47.65-.96,1.33-1.47,2.04-.42.67-.86,1.37-1.32,2.1-2,3.55-3.58,6.99-4.64,10.59-1.08,3.59-1.91,7.27-2.2,11.32-.03.36-.07.76-.11,1.18-.01.42-.03.86-.04,1.31-.02.89-.04,1.77-.06,2.53.02,1.62.09,2.14.16,3.47.1,1.32.21,2.07.3,3.7.05.7.08.99.17,1.79.09.71.17,1.4.26,2.08.27,1.59.5,3.23.86,4.79.37,1.82.77,3.18,1.22,4.85.97,3.33,2.09,6.75,3.43,9.89,1.72,4.02,3.59,7.66,5.83,11.3.64,1.08,1.35,2.14,2.08,3.2.7,1.07,1.48,2.09,2.22,3.11.83,1.18,1.88,2.38,2.73,3.49.92,1.1,1.88,2.25,2.84,3.41,1.58,1.92,3.24,3.72,4.9,5.54,1.63,1.84,3.38,3.59,5.13,5.41,1.18,1.25,2.57,2.59,3.81,3.78.8.75,1.09,1.03,1.9,1.79.89.86,1.55,1.44,2.45,2.26.4.35.73.65,1.11.98.77.7,1.52,1.38,2.29,2.08.79.68,1.59,1.37,2.35,2.03.98.86,1.96,1.71,2.95,2.56.97.8,1.94,1.6,2.92,2.4.97.79,1.92,1.6,2.91,2.38,1.02.79,2.03,1.57,3.05,2.35,1.62,1.27,3.26,2.45,4.92,3.63.84.6,1.67,1.19,2.51,1.78.85.59,1.74,1.16,2.63,1.75,1.04.68,2.09,1.36,3.14,2.05,1.05.67,2.12,1.29,3.18,1.94.95.58,1.87,1.15,2.8,1.72.93.56,1.88,1.09,2.82,1.62,2.98,1.73,6.26,3.48,9.4,5.14,1.79.9,2.67,1.35,4.54,2.3,1.19.59,1.63.85,2.83,1.37,1.07.46,2.32.99,3.42,1.46.95.41,2.12.99,3.15,1.4,1.4.59,2.72,1.15,4.04,1.7l1.77.74.92.39c.15.05.31.16.46.17l.46-.19c1.04-.43,2.09-.87,3.19-1.32.93-.37,1.92-.77,2.84-1.15.91-.36,1.88-.79,2.73-1.19.92-.42.35-.16,1.5-.67l-.03-.05Z"/>
          <path class="st0" d="M648.6,382.78c0,1.04-.08,2.09-.18,3.11s-.17,2.02-.29,2.96c-.29,1.87-.48,3.54-.72,4.73-.25,1.4-.48,2.64-.69,3.8-.24,1.08-.46,2.09-.68,3.06-.19.96-.46,1.84-.7,2.77-.27.92-.49,1.88-.84,2.92-.29.86-.67,1.98-1.12,3.29-.49,1.3-1.08,2.77-1.71,4.36-1.39,3.14-3.03,6.72-4.97,10.07-3.74,6.77-8.27,12.68-9.72,14.52-1.16,1.6-2.67,3.32-4.11,4.99-.71.82-1.43,1.65-2.1,2.42-.71.77-1.35,1.48-1.92,2.09-.77.85-1.5,1.77-2.26,2.62-1.15,1.31-2.79,2.81-4.35,4.52-1.75,1.89-1.62,1.61-3.25,3.17-.67.65-1.72,1.78-2.43,2.47-2.15,2.1-4.31,3.96-6.4,5.89-2.17,1.85-4.31,3.72-6.64,5.63-6.05,5.01-12.26,9.44-16.45,12.32-.46.33-.72.44-1.19.75-.8.52-2.02,1.43-2.85,1.98-2.08,1.4-4.07,2.62-5.88,3.71-1.8,1.11-3.41,2.09-4.81,2.88-.38.23-1.1.67-1.48.9-.84.48-1.64.83-2.49,1.32-3.49,1.91-6.7,3.84-8.31,4.43-2.05,1.08-4.08,2.18-6.14,3.24-1.71.79-3.43,1.57-5.15,2.36-.86.41-1.74.78-2.62,1.15-.63.27-.39.16-.46.19l-.05.02-.37.14c-.24.09-.48.18-.7.24-.19.04-.4.14-.52.17-.08.02-.14-.03-.23-.02-.13.02-.3.15-.44.05.04.27-.21.05-.31.1-.05.02-.15.2-.26.28,0,0-.05-.03-.06-.03-.03,0-.05.11-.08.12,0,0-.05-.03-.06-.03-.08.02-.39.59-.43.68-.03.06.01.1-.01.15-.03.06.03.07.03.09-.08.25-.21.35-.21.46,0,.24-.1.45-.06.6.02.06.02.12.05.18-.19.21-.06.31-.25.52.15.08.11.26.16.38.02.05.02.13.05.18.02.03.1.02.13.05.01.01-.02.13-.02.15.08.2.13.42.21.56.04.07.08.13.11.2.02.05.02.12.05.18s.08.1.05.18c-.11-.05-.2-.02-.27.04.2.06.11.22.31.28-.06.1-.06.13.05.18.09.04.1.23.14.29.05.09.11.09.22.17.13.1.12.4.4.4.01.11-.09.25-.07.36.23.21.56.39.64.66.24-.09.4.15.63.18.07,0,.27-.18.34-.02.19-.03.31-.29.51-.27.23.05.02.25.31.28.22-.24.56-.25.83-.37.15-.07.25-.15.4-.23.13-.06.34-.07.4-.23.28.05.64-.15.81-.22.03-.01.1.06.13.05.05-.02.15-.14.19-.16.05-.03.11-.06.17-.08l.09-.03.04-.02h.02l.45-.2c3.2-1.38,6.09-2.8,8.22-3.82,1.98-1,4.73-2.39,7.78-3.94,3.06-1.65,6.23-3.27,8.11-4.41,2.36-1.37,4.82-2.76,7.18-4.27,1.19-.74,2.37-1.47,3.53-2.19,1.15-.73,2.26-1.49,3.34-2.19,3.52-2.26,7.2-4.86,9.24-6.25.79-.54,2-1.59,2.82-2.19,1.44-1.1,3.67-2.68,5.15-3.91,4.65-3.67,8.21-6.74,11.29-9.46,3.89-3.45,9.77-9.02,11.74-11.14,2.3-2.4,3.82-4.15,5.82-6.33.99-1.07,1.82-1.97,2.67-2.89.9-1.01,1.77-2.07,2.66-3.11.88-1.03,1.73-2.03,2.62-3.08.84-1.04,1.66-2.04,2.44-2.96,8.72-11.58,15.01-23.88,18.79-37,1.01-3.5,1.73-7.25,2.36-10.89.23-1.83.53-3.64.71-5.39.15-1.76.4-3.45.5-5.07.05-1.61.21-3.41.18-5.24.01-1.82.03-3.64-.12-5.28-.27-5.86-1.25-11.37-2.8-17-.32-1.08-.61-2.23-.99-3.36-.4-1.12-.81-2.24-1.2-3.32-.45-1.34-.85-2.24-1.4-3.47-.34-.76-.7-1.57-1.07-2.41s-.86-1.66-1.29-2.5c-.45-.84-.9-1.68-1.33-2.49-.46-.8-.96-1.54-1.39-2.24-1.36-2.31-3.59-5.3-5.13-7.23-.49-.55-.91-1.03-1.41-1.61-.85-.98-1.82-2.16-2.89-3.2-1.04-1.06-2.02-2.14-2.86-2.94-1.95-1.8-3.73-3.53-5.81-5.12-2-1.69-4.3-3.22-7-4.98l-4.15-2.41c-1.41-.75-2.85-1.44-4.28-2.16-.83-.44-1.67-.79-2.49-1.12-.81-.33-1.59-.65-2.4-.98-.68-.26-1.53-.6-2.26-.89l-3.6-1.13c-1.21-.37-2.4-.79-3.66-1.04-2.49-.57-4.99-1.23-7.65-1.56-1.22-.17-2.49-.42-3.76-.55-1.28-.09-2.54-.19-3.75-.28-.54-.03-1.11-.07-1.6-.1-1.13-.05-2.11,0-3.29,0-.9,0-1.79.01-2.68.02-.89-.01-1.77.13-2.65.19-.88.08-1.75.16-2.63.23-.44.04-.87.08-1.31.12-.43.06-.87.14-1.3.21-1.75.3-3.39.54-5,.84-1.63.41-3.25.82-4.87,1.22-.79.17-1.6.49-2.36.75-.82.28-1.68.57-2.47.84-1.81.53-4.15,1.7-6.01,2.52-1.6.67-2.88,1.49-4.19,2.21-1.3.76-2.64,1.43-4,2.44-.95.65-1.72,1.18-2.44,1.67-.72.5-1.41.92-2.05,1.47-.87.7-1.79,1.44-2.93,2.37-.53.44-1.09.87-1.62,1.35-.52.5-1.04,1-1.56,1.51-1.03.99-2.04,1.97-3,2.9-.5.56-.28.26-.53.48-.11.1-.28.28-.48.5-.05.06-.1.12-.16.18l-.08.09s-.06.08-.08.03c-.11-.12-.23-.25-.35-.39-.24-.26-.49-.54-.72-.78-.06-.06-.11-.12-.17-.18-.2-.19-.39-.38-.57-.55-.37-.35-.69-.67-.96-.93l-2.81-2.73c-.95-.89-2-1.68-2.99-2.52l-1.51-1.24-.75-.62-.8-.56c-1.07-.74-2.14-1.47-3.2-2.21-1.04-.77-2.18-1.39-3.3-2.02-1.12-.63-2.24-1.26-3.35-1.89-1.16-.53-2.31-1.05-3.47-1.58-1.15-.51-2.29-1.06-3.48-1.43-1.29-.45-2.59-.9-3.91-1.36-1.34-.46-2.75-.75-4.15-1.14l-2.11-.55c-.71-.18-1.43-.27-2.15-.4-1.43-.25-2.86-.5-4.27-.74-1.42-.13-2.82-.26-4.19-.39-.68-.06-1.35-.14-2.01-.17-.66,0-1.31-.02-1.95-.03-1.27-.01-2.49-.03-3.65-.04-1.15.02-2.22.13-3.21.19-1.02.08-2.64.26-3.69.39-1.34.21-2.7.42-4.08.63-.69.12-1.39.19-2.07.35s-1.37.32-2.06.48c-1.37.34-2.76.63-4.12,1-1.34.43-2.68.86-3.99,1.28-.7.24-1.37.42-2.01.66l-1.85.74c-1.26.51-2.5,1.01-3.79,1.53-1.79.87-3.66,1.85-5.26,2.68-1.56.93-2.87,1.69-3.61,2-1.08.63-2.05,1.35-3.01,2-.96.66-1.91,1.28-2.83,1.95-.89.69-1.76,1.38-2.71,2.12-.44.35-.89.71-1.39,1.11-.41.38-.85.79-1.35,1.26-3.93,3.2-7.61,7.28-10.9,11.6-3.34,4.3-5.99,9.05-8.23,13.51-.78,1.91-1.61,3.67-2.19,5.47-.63,1.77-1.3,3.47-1.75,5.24-.5,1.75-1.05,3.48-1.37,5.33-.37,1.83-.78,3.71-.96,5.73-.62,2.69-.74,6.66-.96,9.65-.2,12.67,1.91,25.76,6.52,37.92,1.23,3.6,4.19,9.71,4.77,10.76,1.29,2.41,1.81,3.37,2.56,4.76.68,1.24,1.32,2.32,2.3,3.88.97,1.48,3.12,4.76,5.39,7.81,1.13,1.53,2.31,2.98,3.27,4.22.99,1.18,1.79,2.13,2.2,2.63,1.09,1.28,2.14,2.54,3.21,3.76,1.09,1.2,2.18,2.39,3.27,3.59.55.6,1.09,1.2,1.64,1.8.57.59,1.14,1.18,1.72,1.77,1.16,1.19,2.33,2.4,3.54,3.65,4.4,4.33,9.53,9.26,14.27,13.21,1.09.91,2.42,2.08,3.83,3.17,1.43,1.12,2.85,2.24,4,3.15,2.2,1.76,4.68,3.57,6.94,5.32,2.31,1.68,4.48,3.19,6.11,4.29,1.95,1.31,1.55,1.04,2.69,1.8,1.31.85,2.77,1.79,4.23,2.73,1.5.91,2.95,1.79,4.29,2.6,2.7,1.72,5.54,3.26,8.29,4.9,2.79,1.56,5.57,3.09,8.3,4.54,1.41.63,3.24,1.51,5.25,2.5,2.02.98,4.28,1.98,6.46,3.01,2.19,1.04,4.39,1.92,6.28,2.76.97.41,1.78.78,2.64,1.11.84.34,1.62.59,2.24.79,1.96.6,4.35,1.17,6.78,1.33,2.42.15,4.77-.12,6.52-.54.6-.13,1.01-.26,1.34-.34.07-.02.13-.03.19-.05h.01s.03.01.06,0c.48-.2.82-.22,1.29-.33.36-.08.68-.21,1.02-.31.11-.13.08-.26.12-.36.04-.12.13-.18.13-.27,0-.07-.1-.14-.11-.21-.13.15-.24-.08-.16-.15.3-.35.18-.59.12-.84.09-.22.25-.15.36-.25-.08-.28-.29-.52-.04-.9-.09-.12-.21-.23-.15-.38l.22-.3c-.08-.15-.05-.34-.07-.5-.02-.12-.08-.25-.03-.33.05-.09-.1-.13-.11-.21.12-.13.15-.23.14-.33-.14-.25-.18-.52-.43-.73,0-.16-.02-.31-.02-.47-.33-.2-.23-.54-.59-.73-.04-.12.16-.3,0-.38-.18.19-.5-.14-.75-.21-.09.1-.22.1-.33.14-.11.05-.37.19-.43.16-.07-.03-.04.01-.1.02-.15.03-.28.12-.37.19-.07.05-.12.05-.17.14-.24-.09-.47.1-.68.15-.04.01-.11-.03-.15-.02-.07.02-.1.11-.18.13-.13.04-.26,0-.39.08l-.14.05c.54-.14-1.55.45-2.74.57-2.68.38-5.31.02-8.13-.94-.64-.21-1.29-.47-1.96-.74-.7-.3-1.41-.61-2.14-.92-1.45-.62-2.93-1.26-4.45-1.91-.48-.2-.78-.41-1.26-.63-.86-.4-2.28-.96-3.19-1.38s-1.6-.84-2.52-1.27c-.75-.35-2.39-1.11-3.15-1.47-1.17-.6-2.8-1.36-4.56-2.31-1.76-.94-3.69-1.98-5.54-2.97-3.64-2.1-6.99-3.97-7.98-4.6-1.44-.84-2.95-1.77-4.35-2.65-1.4-.87-2.64-1.76-3.62-2.4-.72-.48-2.18-1.34-2.95-1.84-1.07-.71-3.92-2.76-5.15-3.61-1.84-1.25-3.36-2.49-4.96-3.67-.79-.6-1.6-1.21-2.44-1.84-.82-.66-1.68-1.35-2.61-2.1-1.63-1.31-3.28-2.61-4.85-3.99-1.78-1.53-4.09-3.53-5.76-5.1-1.22-1.12-2.72-2.3-3.93-3.41-1.39-1.33-2.8-2.84-4.2-4.22-.6-.56-1.89-1.78-2.5-2.41-.13-.14-.8-.89-.94-1.05-.65-.68-1.78-1.72-2.47-2.44-1.67-1.81-3.49-3.87-5.17-5.75-1.63-1.95-3.09-3.69-4.01-4.78-.83-.95-1.49-1.78-2.15-2.58-.65-.81-1.32-1.58-1.97-2.49-2.67-3.54-5.13-7.39-7.26-11.07-1.01-1.87-2.03-3.66-2.84-5.41-.88-1.72-1.59-3.38-2.23-4.87-.38-.82-1.02-2.23-1.36-3.12-.19-.51-.47-1.25-.77-2.05-.26-.82-.52-1.6-.7-2.16-.84-2.34-1.3-3.98-1.95-6.18-1.15-4.52-1.89-8.8-2.38-13.02-.41-4.23-.6-8.4-.5-12.72-.02-1.82.12-3.38.21-4.94.09-1.55.39-3.07.54-4.82.8-3.65,1.21-6.14,2.02-8.9.09-.3.33-1.16.61-2.04.34-.89.67-1.78.81-2.13.81-2.45,1.93-4.82,3.01-7.19.61-1.15,1.22-2.3,1.82-3.44.62-1.13,1.35-2.18,2-3.25,5.54-8.55,12.88-15.48,21.36-20.86,1.56-1.07,3.12-1.86,4.65-2.78,1.57-.85,3.24-1.65,5.08-2.67,4.2-1.59,9.45-3.83,14.14-4.65,7.89-1.98,15.48-2.28,22.4-1.41,4.34.37,8.25,1.28,12.09,2.36l.72.19.71.25,1.41.51c.95.34,1.9.68,2.85,1.02.94.39,1.87.85,2.82,1.27.94.45,1.94.83,2.89,1.36,1.34.77,3.3,1.84,4.68,2.66,1.46.99,1.94,1.29,3.17,2.08,1.24.75,1.88,1.28,3.25,2.43.54.46.91.77,1.5,1.27.3.24.59.48.88.72.29.26.56.54.83.8.63.61,1.27,1.24,1.91,1.86l.96.93.48.46.13.12.19.21.37.43c2.22,2.53,4.11,4.68,6.2,7.07,2.15-2.37,4.33-4.92,6.52-7.39l.21-.23c.08-.09.13-.15.17-.18l.26-.25.52-.5c.35-.33.7-.66,1.04-.99.69-.67,1.38-1.32,2.05-1.97,1.41-1.24,2.88-2.35,4.27-3.5.53-.47,1.14-.83,1.71-1.22l1.74-1.17,1.75-1.18c.62-.34,1.24-.69,1.86-1.04.6-.34,1.21-.68,1.82-1.02.61-.34,1.21-.71,1.86-.98,1.28-.58,2.56-1.17,3.82-1.74,1.45-.63,3.13-1.15,4.57-1.68.39-.14.78-.27,1.17-.41.39-.1.79-.2,1.19-.3.81-.21,1.62-.41,2.46-.62.68-.16,1.35-.38,2.03-.5.69-.12,1.37-.23,2.05-.35l2.05-.35c.34-.06.68-.13,1.02-.17l1.04-.09c1.38-.12,2.77-.25,4.16-.37,1.4-.04,2.81-.02,4.23-.04.48,0,.98,0,1.49-.01.51.04,1.02.08,1.53.12,1.03.08,2.05.15,3.02.22,1.37.07,1.74.2,2.93.34,1.53.24,2.37.36,3.73.57.61.14,1.07.24,1.64.37,1.13.27,2.26.53,3.42.81,1.15.31,2.27.73,3.35,1.07.71.24,1.42.47,2.13.7.7.22,1.36.55,2.03.82,1.31.56,2.62,1.12,3.94,1.69,1.26.65,2.53,1.3,3.8,1.95,1.28.65,2.48,1.45,3.77,2.19,1.02.57,1.97,1.23,2.91,1.88.94.66,1.92,1.26,2.83,1.97,1.81,1.42,3.68,2.81,5.43,4.46l1.59,1.41,1.48,1.49c.97,1,2,1.95,2.88,3.05.8.95,1.62,1.87,2.39,2.83.72.98,1.44,1.96,2.17,2.95.61.76,1.09,1.63,1.64,2.46.52.85,1.1,1.69,1.6,2.57l1.43,2.69.71,1.34c.2.46.41.92.61,1.38.47,1.06.81,1.84,1.17,2.64.33.79.58,1.6.97,2.68.48,1.42.74,1.93,1.13,3.35.41,1.42.8,2.45,1.2,4.02.25,1.19.54,2.59.8,3.81.34,1.69.48,3.32.71,4.91.13.79.16,1.59.21,2.4.05.8.1,1.61.15,2.45.1,1.2.05,2.28.05,3.48,0,1.12.03,2.33-.05,3.4-.06,1.15-.02.43-.09,1.87v.04Z"/>
        </g>
      </g>
    </g>
  </g>
  <g>
    <path class="st2" d="M1851.04,161.26c29.04-1.15,149.34,1.15,178.38,0"/>
    <path class="st2" d="M1938.05,185.91c10.5,175.67,17.18,351.58,20.06,527.54"/>
  </g>
  <g>
    <path class="st2" d="M1619.51,100.38c29.04-1.15,149.34,1.15,178.38,0"/>
    <path class="st2" d="M1706.52,125.03c10.5,175.67,17.18,351.58,20.06,527.54"/>
  </g>
  <path class="st2" d="M1122.67,613.72c-2.47-156.94-4.95-313.89-7.42-470.83,43.13,84.78,86.25,169.57,129.38,254.35,38.15-85.46,66.35-175.37,83.85-267.31,41.38,186.28,59.45,377.73,53.67,568.46"/>
  <path class="st2" d="M1511.26,172.79c0,167.72,0,335.43,0,503.15"/>
  <path class="st2" d="M2633.68,250.35c1.71-37.56,3.04-77.02-13.81-110.62s-58.51-57.95-92.77-42.45c-30.29,13.71-41.64,50.21-48.78,82.68-15.06,68.5-26.24,137.85-33.46,207.62-8.66,83.56-9.86,174.39,37.46,243.8,17.07,25.04,49.17,47.63,75.78,33.14,18.75-10.21,24.71-33.6,31.97-53.67,13.2-36.48,36.5-70,40.5-108.59s-24.14-84.82-62.5-79.04c30.95-7.52,61.91-15.03,92.86-22.55-16.95,73.37-19.57,150.02-7.67,224.38"/>
</svg>