<?xml version="1.0" encoding="UTF-8"?>
<svg id="Ebene_1" xmlns="http://www.w3.org/2000/svg" version="1.1" viewBox="0 0 800 800">
  <!-- Generator: Adobe Illustrator 30.4.0, SVG Export Plug-In . SVG Version: 2.1.4 Build 226)  -->
  <defs>
    <style>
      .st0 {
        fill-rule: evenodd;
      }

      .st0, .st1 {
        fill: #e5b969;
      }
    </style>
  </defs>
  <path class="st0" d="M-353.33,1207.83c3.76-2.11,7.61-.02,9.81-.3,5.28-.7,7.69-3.44,11.63-3.6,6.55-.27,28.93,5.37,33.14,2.85,3.55-2.13,8.02,1.02,11.05.95,1.02-.03,2.04-1.82,3.05-2.04,1.54-.34,3.49,1.69,5.52.47,2.27-1.36,2.01,1.16,4,1.5.82.14,2.18-2.01,3.05-2.04,5.29-.19,10.03.25,15.33.17,6.92-.11,13.62-.41,18.1.41.5.09.74,1.17,1.24,1.26.84.14,2.18-2.08,3.05-2.04,4.41.21,8.22.97,11.05.95.51,0,1.02-1.02,1.53-1.02.85,0,1.62,2.46,2.47,2.51,3.5.19,6.79-4.04,8.28.71,2.03-1.36,4.07-2.72,6.1-4.08,13.16,2.46,27.42,1.35,38.67,3.33,4.78.84,10.75.83,13.81,1.19,2.15.25,3.01,2.22,5.24,2.75,3.3.8,8.44-.52,10.76,3.23,1.64-6.59,5.42.86,8.28.71,1.4-.08,5.4-3.01,8.86-3.84.24-.05.97,1.21,1.24,1.26.72.12,2.29-1.88,3.05-2.04.26-.05.95,1.2,1.24,1.26,2.14.36,15.05-9.68,16.78-11.21,1.26-1.12.69-2.46,1.81-3.29,1.37-1.02-.05-1.89.29-2.28,4.3-5.04,8.43-5.91,9.44-8.39,2.23-5.5,6.78-9.41,7.25-13.18.19-1.52.61-3.02.57-4.55,6.53-2.89,4.43-6.52,10.97-9.41-2.79-3.29-.1-7-.09-10.36,0-1.35.83-3.16.58-4.55-.17-.93-2.18-1.6-2.47-2.51-.15-.46,1.79-2.69,1.81-3.29.18-5.32.99-11.08.49-14.91-.28-2.15-.65-3.81-.66-5.81,0-1.46.63-2.91.58-4.55-.06-1.65-1.01-3.07.58-4.55,2.04,2.21,4.34,2.43,6.76,1.73-4.02-3.41-.35-6.16-4.37-9.58,2.27-1.72,2.51-2.36.58-4.55-1.71-1.93-.18-6.38-.37-8.08-.29-2.56-1.7-3.11-3.42-6.05-2.02-3.45,1.04-10.33-5.32-13.11.75-2.62,4.41-4.99,5.15-7.61-3.31-7.19-9.14-14.59-8.45-21.43-6.48-.27-7.79-7.39-12.65-10.29-1.53-.91-7.83,1.58-8-2.99-4.5-1.22-9.77,3.67-14.1,1.09-4.64-3.47,1.88-5.97-4.37-9.58-7.31,3.23-15.21.27-22.38.37-4,.05-7.09,1.11-11.34,1.32-3.46.17-8.34-1.87-11.33,1.33-5.75-3.93-16.06-2.9-20.57-2.92-.84,0-1.63-2.48-2.47-2.51-1.36-.05-4.73,1.63-5.81,1.8-5.86.91-12.82-1.58-16.86.85-3.17,1.89-11.58-.27-15.34-.17-4.65.12-9.68.99-14.1,1.09-3.57.08-7.42-1.61-9.52-1.97-.82-.14-2.18,2-3.05,2.04-1.54.06-3.88-.51-5.52-.47-5.05.11-9.07.08-12.57.07-4.44-.01-11.34-1.49-13.81-1.19-2.84.34-4.81,4.04-7.34,2.82-4.3-2.77-9.45,1.13-13.52-3.46-12.19,4.35-23.56,2.29-34.95.44-6.09.28-12.7,4.7-18.1-.4-2.68.04-6.05-1.16-8.76-1.15-4.85.01-9.44.21-14.26.58-1.86.14-3.91.17-5.8.07-1.17-.06-1.97-.52-3.08-.68-2.72-.39-6.25.04-8.98.02-2.21-.02-5.27-.16-7.3.65-.65.26-1.08.7-1.76.97-2.14.87-5.03.25-6.94-.69-4.39-2.14-8.15-5.43-13.48-5.36-2.64.04-5.29,0-7.93,0-1.56,0-3-.08-4.4.31-.63.18-1.33.59-2.01.79-4.15,1.18-8.3,2.34-12.69,2.65-2.03.14-4.25-.29-6.23.02-.49.08-.88.45-1.32.53-.94.17-1.74.15-2.71.14-2.95-.02-5.84.19-8.72-.41s-5.43-2.05-8.29-2.66c-.66-.14-1.37-.03-2.04-.21-.78-.21-1.39-.81-2.14-1.04-1.54-.47-3.68-.76-5.34-.74-2.83.03-4.95.14-7.73.81-3.09.73-4.55-.12-7.59-.2-2.26-.05-4.79.38-7,.08-2.08-.29-1.07-.88-2.06-2.02-1.83-2.11-8.09.67-10.59.73-8.57.22-17.15-2.83-25.32-.7-8.79,2.29-19.88-.01-26.38-1.12-.84-.14-2.17,2.07-3.05,2.04-4.45-.18-9.26-.91-13.81-1.19-2.43-.15-4.36-1.5-6.76-1.73-3.28-.32-6.97,4.14-8.29-.71-4.14,3.31-7.48.29-11.63,3.6-8.33-4.02-17.91,1.77-26.09-3.39-6.76,5.61-11.99-.85-18.67,4.14-2.26-4.17-5.52-.5-7.99-2.99-10.53,2.97-21.37.95-32.19.68-3.16-.08-8.82-.29-9.81.3-4.07,2.45-5.21-2.55-8.28-.71-2.96,1.77-13.11-.15-15.33-.17-5.72-.05-10.93.93-16.86.85-5.26-.07-11.31-1.33-16.57-1.42-2.43-.04-6,1.55-8.57,1.56-4.8.02-10.47-3.19-13.81-1.19-1.84,1.1-1.45-.34-2.76-.24-2.74.21-5.85,1.7-8.57,1.56-5.46-.28-11.01-1.7-16.28-3.7-5.26,5.79-17.14-.77-21.15,1.63-3.14,1.88-7.13-1.3-9.81.31-1.81,1.08-1.6-.41-2.77-.24-11.18,1.62-18.72-.55-29.14-1.36-7.9-.61-15.68-.48-23.62-.88-3.26,2.26-3.62,5.5-5.15,7.61-1.79,2.46-4.07,3.23-4.86,5.33-.57,1.53,1.07,4.18.66,5.81,3.87-2.36,4.41,3.94,2.18,4.79-9.26,5.72-8.57,12.3-9.35,18.75-3.81,4.33-6.67,1.17-10.1,2.58-.66,7.23,2.06,14.75-6.88,21.26.92,3.53,2.65,7.13.08,10.36-2.54,1.7-5.08,3.4-7.63,5.1.46,4.23-1.92,8.3-2.97,12.4-.76,2.96-.48,6.43-2.39,7.85-2.07,1.54,1.16,4.09.66,5.81-3.93,1.96-5.65,4.12-6.39,6.35.88,6.98-.89,13.73,2.93,20.96-1.68,3.69-2.52,7.45-4.2,11.14,6.01,7.8.29,14.59,6.93,22.45-.22,3.05-6.93,5.54-3.91,8.87,6.4-2.81,11.11,7.75,16.65,11.79,3.25-1.54,6.64-.28,9.81-.31,3.16-.02,11.37-1.16,12.57-.06,1.52,1.39,1.27.09,2.76.23,4.21.41,8.38-.63,11.34-1.32,2.26-.53,3.51-.34,5.81-1.8,5.43,4.09,13.22,1.53,19.33,1.66,1.25.02,2.72,1.42,4,1.49,2.07.11,3.65-1.79,5.81-1.8,3.8-.02,7.17,1.73,11.05.95,5.65-.1,11.13-.91,16.86-.85,2.62.02,5.37.52,8.28.71.46.03.77,1.18,1.24,1.26.84.14,2.17-2.06,3.05-2.04.87.02,1.59,2.44,2.47,2.51.94.08,2.09-2.04,3.05-2.04,4.62,0,16.04,1.64,18.1.4,2.92-1.75,6.24.36,8.29.71.76.13,2.24-1.92,3.05-2.04,1.13-.16,4.21.45,5.53.48,3.91.08,6.86.6,11.05.95,1.83.15,3.68.31,5.52.47,2.07.18,4.75,1.72,6.76,1.73,1.45,0,3.13-2.77,4.57-3.06,1.69-.34,3.5,2.45,5.23,2.75.72.12,2.28-1.88,3.05-2.04.26-.05.95,1.21,1.24,1.26.83.14,2.18-2.02,3.05-2.04,4.32-.09,9.7,2.29,12.28,2.21,2.2-.07,3.81-1.81,5.81-1.8,7.91.04,16.27.91,22.09,1.9.81.14,2.2-1.98,3.05-2.04,1.07-.08,2.83,1.53,4,1.5,2.23-.07,3.76-1.85,5.81-1.8,8.37.18,15.56,2.45,23.33,3.16,3.29-3.92,5.69-.87,8.86-3.84,3.38,4.42,5.67,1.28,8.28.71.57-.13,3.24,1.49,4,1.49,4.68.04,9.53-1.31,14.1-1.09,9.26.46,18.21,2.4,27.33,4.65,3.43-1.41,6.29,1.75,10.1-2.58,4.07,4.59,9.22.69,13.52,3.47,7.4-3.27,14.18-1.77,20.57,2.92,7.96,0,14.63,1.92,22.59,1.92,1.42,0,3.46.22,4.93.01,1.61-.23,2.14-.81,3.47-1.79s2.08-1.62,3.71-1.08c.7.23,1,.72,1.8.91.68.16,1.41.04,2.1.04,1.61,0,3.27.09,4.87-.06,1.86-.17,3.27-.97,5.01-1.26,3.47-.58,7.08.59,10.49.69,4.38.13,8.47,1.03,12.77,1.3,2.52.15,5.14-.03,7.67-.03,1.45,0,3.05-.18,4.46.05,1.54.24,2.94.99,4.57,1.18,5.13.6,10.12.7,15.33.7,1.77,0,3.76.2,5.53.01,1.25-.13,1.6-.44,2.69-.92,1.28-.56,2.18-.15,3.44-.34.61-.09.97-.42,1.53-.55,2.06-.47,4.33-.08,6.4.16,5.51.63,10.37,3.01,15.77,4.15,4.25.9,8.32,1.59,12.73,1.36,2.6-.14,5.14-.87,7.7-1.19,2.27-.28,4.52-.07,6.74-.45,3.55-.6,7.38-.28,11.05-.32,2.14-.03,3.15.33,5.25.9,1.37.38,1.89.52,3.24.01s2.36-1.73,3.83-2.1c1.07-.27,2.41-.11,3.55-.1,3.15.01,5.92.16,8.95.77,1.1.22,2.07.83,3.16,1.05,1.01.21,2.1-.04,3.07.17,1.04.22.35.26,1.69.24Z"/>
  <path class="st0" d="M1754.4,319.74c-1.93-1.45-3.48-3.26-4.78-4.96-1.29-1.71-2.33-3.31-3.27-4.32-4.51-4.85-7.5-6.28-10.72-10.02-1.34-1.55-3.35-4.17-5.64-7.29-2.26-3.14-4.86-6.76-7.4-10.3-5.1-7.06-10.07-13.74-12.18-15.42-3.61-2.81-5.88-8.17-8.28-11.1-.81-.98-2.31-1.43-3.18-2.35-1.33-1.4-2.07-3.93-4.13-5.55-2.28-1.82-1.1-2.34-2.5-4.41-.58-.85-2.47-1.53-3.16-2.38-4.16-5.16-7.65-9.97-11.77-15.17-5.31-6.84-10.54-13.42-13.62-18.12-.34-.52-.1-1.09-.44-1.61-.58-.88-2.48-1.53-3.14-2.42-3.23-4.48-5.79-8.54-7.92-11.36-.38-.51-1.17-.71-1.55-1.22-.64-.85-.23-2.36-.85-3.23-2.55-3.57-6.72-5.6-5.93-8.51l-6.15-4.95c-1.09-1.75-2.22-3.51-3.38-5.26l-1.75-2.62c-.38-.55-.37-.57-.5-.79l-.32-.53c-.87-1.41-1.78-2.79-2.69-4.14-1.82-2.7-3.57-5.3-4.76-7.84-1.03-2.16-2.74-4.54-3.47-5.86-.51-.93.04-1.85-.38-2.89-.62-1.55-2.62-3.22-1.76-5.23-3.15,1.26-1.2-2.41-2.08-3.51-.43-.54-2.77-1.28-4.1-2.42-.09-.08.22-.74.16-.86-.16-.32-1.41-.37-1.69-.63-.1-.09.23-.73.16-.86-.45-.96-8.19-3.26-9.31-3.52-.81-.19-1.2.43-1.86.22-.8-.26-.76.56-1.01.54-3.28-.29-4.8-1.71-6.1-1.4-2.88.68-5.78-.04-7.46.84-.68.36-1.41.62-2.03,1.07-3.04-1.82-3.93.07-6.98-1.76-.56,2.07-2.85,2.04-4.23,2.99-.56.38-1.53.56-2.03,1.06-.33.33-.04,1.34-.33,1.72-.15.19-1.62.04-1.87.2-2.24,1.44-4.83,2.76-6.26,4.05-.8.73-1.38,1.35-2.2,1.93-.6.42-1.38.57-2.04,1.06-.66.49-.97,1.29-2.03,1.06.32-1.47-.25-2.47-1.23-3.26-.25,2.62-2.43,1.9-2.68,4.52-1.36-.44-1.69-.36-2.04,1.06-.3,1.25-2.57,1.89-3.21,2.46-.97.85-.79,1.59-1.5,3.13-.83,1.82-4.54,2.51-3.85,5.93-1.29.44-3.32-.4-4.61.04-1.99,3.42-3.34,7.95-6.35,9.62,1.77,2.76-.77,5.35-.54,8.2.07.9,2.93,2.8,1.11,4.18.81,2.22,4.34,3.01,4.55,5.55-.06,2.93-2.99.94-2.64,4.58,3.45,2.1,4.61,6.21,6.77,9.15,1.21,1.64,2.55,2.61,3.89,4.3,1.1,1.38,1.71,3.99,3.89,4.3.11,3.52,3.56,7.5,4.93,9.34.25.35-.52,1.4-.27,1.75.39.57,2.08,1.46,2.47,1.85.53.53,1,1.16,1.43,1.81l.63.99.31.49.15.24.14.2.21.3c2.2,3.17,4.3,6.06,6.34,7.81,1.6,1.37,3.77,4.43,5.96,7.6,2.19,3.17,4.35,6.48,5.83,8.41,3.67,4.79,7.91,9.74,11.4,14.29,2.85,3.65,5.21,8.12,6.72,10.4.59.89,2.52,1.64,3.21,2.52,1.24,1.57,2.86,4.15,4.17,5.83,4.03,5.16,7.23,9.26,10.03,12.84,3.54,4.53,8.48,12.03,10.57,14.46,2.42,2.77,5.48,3.62,7.04,6.55,2.4,5.22,8.09,9.2,9.6,14.76,5.8,5.47,10.89,11.17,15.55,17.05,2.34,2.93,4.57,5.92,6.79,8.89l6.61,8.93c5.19,5.96,12.32,11.14,14.95,18.08,2.27,2.63,4.66,6.34,6.94,9.01,4.09,4.78,8.02,9.26,12.29,13.82,1.64,1.77,3.4,3.77,4.97,5.65.97,1.16,1.49,2.1,2.37,3.24,2.17,2.79,5.34,6.1,7.67,8.77,1.9,2.14,4.49,5.15,6.54,6.85.66.55,1.19.82,1.88,1.38,2.17,1.78,4.43,4.78,5.74,6.95,1.49,2.48,2.75,4.91,4.21,7.36,1.48,2.43,3.17,4.88,5.52,7.43,2.31,2.53,4.62,5.07,6.93,7.61,1.36,1.49,2.6,2.91,3.96,4.11.61.54,1.38,1.08,2.04,1.66,4.07,3.57,8.19,7.1,12.18,11.17,1.85,1.88,3.66,4.14,5.52,5.91.46.44.94.68,1.36,1.07.89.83,1.59,1.6,2.44,2.52.51.54,1.02,1.08,1.52,1.62.15.18.28.38.31.63.07.51-.34,1.13-.4,1.51-.01.09.1.13.07.23-.04.11-.3.27-.36.37-.06.1-.1.21-.1.3,0,.08-.01.13.04.17.16.14.31.22.88.33.65.14.18.27.28.43.04.06.17.13.28.2.04.03.13.07.11.1-.04.03-.1.05-.19.08-.33.08-.69-.01-1.55-.07-.78-.06-.71,0-.51.11.21.11.55.3.51.35-.15.19-.76.21-1.13.21-.4.01-.57,0-.35.5.06.14.08.26.07.36,0,.05-.01.1-.03.14.12-.08-.32.28-.58.5l-.88.72c-2.35,1.91-4.8,3.77-7.21,5.54-4.82,3.53-9.49,6.66-12.92,9.01-.88.61-1.54,2.53-2.42,3.21-4.52,3.44-9.55,6.95-14.2,10.43-2.48,1.86-4.83,2.85-7.3,4.65-3.39,2.46-5.7,7.12-8.52,6.26-3.13,4.57-7.41,6.02-10.53,10.59-9.59,4.99-17.38,14.82-27.18,19.25-5.03,7.54-12.27,9.13-17.42,16.36-3.56.15-5.68,4.16-8.93,5.13-9.63,9.48-21.11,17.23-32.03,25.67-3.19,2.46-8.92,6.84-9.73,7.86-3.32,4.17-6.01,3.11-8.52,6.25-2.41,3.03-13.18,10.28-15.41,12.03-5.74,4.49-10.66,8.98-16.62,13.63-5.28,4.12-11.74,8.4-17.03,12.51-2.45,1.9-5.53,5.34-8.1,7.38-4.8,3.79-11.47,7.01-14.2,10.43-1.51,1.89-1.55,1.01-2.84,2.09-2.68,2.24-5.33,5.28-8.1,7.38-5.56,4.2-11.56,8.02-17.45,11.39-3.48,6.42-17.41,13.22-20.67,17.32-2.57,3.22-7.54,5.12-9.73,7.86-.37.46-.66.76-.91.97-.15.12-.19.14-.23.16-.05.02-.1.03-.14.03-.19.01-.39-.04-.59.17-3.89,4.1-7.52,5.57-11.87,8.48-3.29,2.2-6.31,4.66-9.55,6.96-.58,1.9.28,3.28.33,4.58.06,1.52-.6,2.53-.26,3.6.25.78,1.71,1.31,2.06,2.08.79-2.12,2.95.18,2.34,1.21-1.87,5.11.44,7.48,2.13,10.26-.16,2.88-2.26,2.52-3.17,4.14,1.98,3.04,5.37,5.15,3.88,10.48,1.45,1.1,3.25,1.98,3.24,4.04l-1.42,4.36c1.49,1.52,1.82,3.85,2.67,5.79.62,1.4,1.8,2.68,1.49,3.82-.34,1.24,1.72,1.25,2.05,2.08-.94,1.99-.95,3.37-.54,4.47,2.5,2.47,3.9,5.67,7.63,7.33.48,1.97,1.31,3.71,1.8,5.68,4.77,1.2,4.63,5.64,9.67,6.67.86,1.27-1.01,4.32,1.21,4.69,1.65-3.08,6.76-.39,10.19-.52.8-1.61,2.52-2.17,3.76-3.16,1.23-.99,4.11-3.98,4.92-3.92,1.03.07.53-.36,1.16-.76,1.78-1.14,3.1-2.84,4.04-4.03.72-.91,1.28-1.22,1.73-2.51,3.4-.07,5.67-3.49,8.11-5.33.5-.38,1.51-.28,2.03-.65.85-.6.88-1.83,1.73-2.51,1.48-1.18,3.35-1.54,4.63-3.04.69-.61,7.83-6.75,13.21-10.94,2.63-2.06,5.54-4.03,8.52-6.26.47-.35,1.14-.15,1.63-.48.88-.61,1.53-2.52,2.42-3.21.88-.68,2.34-.3,3.25-.96.97-.71,1.46-2.45,2.42-3.21,4.63-3.64,16.57-12.01,18.25-14.12,2.38-2.99,6.36-4.78,8.52-6.26.8-.55,1.65-2.52,2.42-3.21,1.08-.96,4.36-3.15,5.68-4.17,3.94-3.06,7.05-5.18,11.36-8.34,1.89-1.38,3.79-2.78,5.68-4.17,2.12-1.56,5.29-3.07,7.31-4.65,1.46-1.14,2.28-3.56,3.64-4.81,1.58-1.46,4.27-1.8,6.09-3.05.76-.52,1.7-2.54,2.42-3.21.25-.23,1.32-.27,1.63-.48.87-.6,1.55-2.51,2.42-3.21,4.3-3.44,10.42-6.76,12.98-8.82,2.18-1.76,3.26-3.72,5.26-5.29,7.94-6.23,16.57-12.48,22.71-16.68.85-.58,1.59-2.51,2.42-3.21,1.05-.87,3.31-1.63,4.47-2.57,2.21-1.79,3.2-3.69,5.26-5.29,8.43-6.53,16.34-11.31,24.34-17.17,2.08-4.13,5.43-4.83,7.69-8.5,4.75-.93,6.07-3.97,8.52-6.25.54-.5,3.71-1.97,4.46-2.57,4.7-3.67,9.14-8.03,13.79-11.55,9.41-7.12,18.98-13.42,28.81-19.73,3-3.26,6.84-4.28,9.31-8.98,5.5-1.41,9.45-7,14.61-9.3,6.39-7.12,13.66-11.88,21.5-15.08,1.99-1.57,3.94-3.03,5.87-4.43.97-.7,1.92-1.39,2.88-2.07l1.43-1.02.81-.58,1.32-.98c7.04-5.24,14.16-10.54,21.7-16.48,2.68-2.11,6.66-5.1,9.35-7.36,2.94-2.47,3.66-3.39,5.67-5.61,1.99-2.19,3.05-3.43,6.39-5.72,1.44-.98,2.26-1.32,3.86-2.46,1.36-.97,2.66-2.07,3.96-3.09,3.02-2.38,6.18-4.82,9.09-7.2,3.39-2.78,5.51-4.96,8.54-7.53,3.03-2.58,6.42-5.15,9.87-7.72l2.6-1.93,1.3-.96c.1-.08.22-.16.32-.24l.14-.12s-.06-.09-.09-.14l-.51-.56c-1.36-1.49-2.73-2.96-4.13-4.42-7.18-7.48-13.4-14.53-20.45-21.97-4.11-4.35-8.66-8.87-12.85-13.21-2.38-2.47-5.1-5.18-7.3-7.63-2.4-2.68-4.35-5.24-6.96-8.09-4.1-4.48-8.21-8.89-12.38-13.3-2.09-2.2-4.19-4.4-6.3-6.62-.95-1-1.91-2-2.87-3.01-.55-.59-1.1-1.19-1.66-1.78-1.51-1.63-3.14-3.52-4.72-5.08-1.12-1.1-1.53-1.32-2.64-2.16-1.3-.98-1.92-1.95-3.06-3.04-.55-.53-.98-.75-1.51-1.22-1.94-1.73-3.73-3.95-5.41-5.92-4.44-5.3-7.65-10.62-11.78-15.99-3.25-4.23-6.44-8.22-10.18-12.28-2.22-2.39-4.61-4.51-6.86-6.8-1.99-2.03-3.79-4.2-5.79-6.15-3.2-3.1-6.22-6.85-9.26-10.29-1.77-2.01-2.47-3.08-3.98-5.25-.99-1.42-1.36-1.95-2.66-3.06-1.3-1.11-2.59-1.66-3.95-2.93-.98-.92-2.03-2.23-2.96-3.32-2.56-3-4.76-5.69-6.99-8.77-.81-1.12-1.37-2.24-2.17-3.35-.74-1.03-1.73-1.99-2.44-2.98-.76-1.06-.19-.42-1.29-1.69Z"/>
  <path class="st0" d="M1507.22,329.42c-3.13-2.94-4.54-7.11-5.97-9.08-1.72-2.37-3.23-3.94-4.61-5.37-1.37-1.44-2.59-2.75-3.77-4.59-1.96-3.06-5.59-10.24-9.16-17.07-3.46-6.89-6.87-13.43-8.6-15.11-1.46-1.42-2.48-3.4-3.36-5.38-.86-1.98-1.54-3.99-2.39-5.43-.57-.97-1.91-1.51-2.55-2.43-.99-1.4-1.18-3.78-2.82-5.44-1.83-1.85-.6-2.22-1.54-4.22-.39-.82-2.07-1.61-2.56-2.44-2.96-5.06-5.24-9.8-8.11-14.93-1.86-3.35-3.74-6.62-5.35-9.66-1.59-3.05-2.97-5.82-3.95-8.11-.22-.51.14-1-.08-1.5-.37-.86-2.04-1.65-2.47-2.52-2.16-4.38-3.85-8.27-5.23-11.07-.26-.5-.96-.77-1.21-1.28-.42-.84.29-2.16-.11-3.02-1.66-3.5-5.19-5.81-3.81-8.35l-4.87-5.13c-.69-1.7-1.38-3.41-2.08-5.13l-1.08-2.57c-.23-.53-.24-.58-.32-.81l-.22-.57c-.59-1.53-1.23-3.03-1.86-4.5-1.27-2.94-2.51-5.77-3.25-8.43-.64-2.26-1.85-4.88-2.31-6.3-.32-1,.39-1.79.18-2.88-.31-1.62-1.94-3.59-.72-5.4-3.32.66-.71-2.56-1.35-3.78-.32-.6-2.46-1.74-3.54-3.09-.07-.09.36-.68.32-.8-.09-.34-1.32-.61-1.55-.92-.08-.1.36-.66.32-.8-.3-.99-7.37-4.66-8.42-5.11-.76-.33-1.26.19-1.86-.13-.73-.4-.85.4-1.1.34-3.15-.89-4.36-2.55-5.69-2.5-2.95.12-5.64-1.13-7.46-.58-.73.22-1.5.33-2.2.66-2.62-2.35-3.86-.68-6.49-3.04-.95,1.91-3.19,1.44-4.73,2.1-.62.27-1.61.25-2.2.65-.39.26-.3,1.31-.66,1.62-.18.16-1.59-.28-1.87-.16-2.48.98-5.28,1.76-6.94,2.75-.93.56-1.62,1.06-2.53,1.46-.67.3-1.46.29-2.2.64-.74.35-1.2,1.07-2.2.64.6-1.38.24-2.47-.57-3.44-.75,2.51-2.76,1.38-3.51,3.9-1.25-.7-1.59-.69-2.21.64-.54,1.17-2.89,1.35-3.63,1.78-1.12.64-1.08,1.4-2.08,2.78-1.17,1.62-4.95,1.57-4.92,5.08-1.35.18-3.19-1.05-4.54-.87-2.62,2.97-4.81,7.18-8.08,8.23,1.21,3.09-1.77,5.14-2.09,8.01-.1.9,2.35,3.36.29,4.36.38,2.37,3.7,3.84,3.42,6.4-.58,2.88-3.13.35-3.42,4.02,3.05,2.75,3.41,7.06,5.01,10.39.89,1.86,2.03,3.08,3.05,5.02.83,1.58.95,4.3,3.05,5.02-.51,3.51,2.28,8.08,3.28,10.17.19.39-.76,1.29-.58,1.69.28.64,1.79,1.84,2.11,2.31.43.63.78,1.34,1.1,2.07l.45,1.1.22.55.11.27.09.21.13.3c1.45,3.2,2.82,6.15,4.45,7.99,2.53,2.91,6.02,12.26,8.06,16.19,2.49,4.89,5.66,9.92,8.12,14.51,1.99,3.71,3.35,8.12,4.35,10.4.39.89,2.08,1.81,2.57,2.7.88,1.59,1.97,4.14,2.9,5.83,2.9,5.2,5.16,9.36,7.14,12.99,2.46,4.61,5.89,12.02,7.45,14.49,1.8,2.82,4.56,3.93,5.5,6.82.66,2.54,2.14,4.91,3.55,7.26,1.42,2.35,2.73,4.73,2.96,7.38,2.3,2.82,4.39,5.68,6.34,8.58,1.94,2.9,3.72,5.85,5.48,8.77,3.49,5.87,6.58,11.84,9.71,17.81,3.92,6.02,10.01,11.37,11.28,18.12,1.72,2.65,3.33,6.35,5.12,8.99,3.16,4.77,6.24,9.23,9.53,13.87,1.28,1.79,2.61,3.81,3.82,5.68.75,1.15,1.1,2.06,1.78,3.19,1.65,2.76,4.19,6.07,6.01,8.73,1.47,2.15,3.45,5.17,5.14,6.91.54.56,1.01.85,1.58,1.43,1.81,1.82,3.54,4.76,4.46,6.87,2.12,4.83,3.37,9.42,7.05,14.52,1.81,2.54,3.68,5.05,5.52,7.57,1.09,1.48,2.07,2.88,3.21,4.09.51.54,1.17,1.09,1.72,1.67l2.53,2.7,1.26,1.37.61.67.06-.05s.08-.1.16-.09c.08.02.15.03.22.06.14.05.27.11.38.19.2.15.15.43.43.54.07.03.28,0,.35.03.15.06.2.14.26.23.19.27.53.54.38.84-.15.31-.86.55-1.1.73-.06.04.05.09-.03.13-.1.05-.46.07-.58.1-.24.07-.36.15-.28.23.09.14.42.27.63.45.32.23-.37.16-.58.25-.16.07-.05.26-.36.28-.28,0-.56-.16-1.24-.41-.62-.23-.58-.16-.43,0,.15.16.39.43.34.48-.16.17-.65.06-.96-.02-.16-.04-.28-.07-.34-.01l-.02.02h0s-.36.26-.36.26l-1.46,1.01c-.97.69-1.91,1.4-2.82,2.14-7.87,6.36-19.19,12.2-25.77,15.74-.85.46-1.54,2.21-2.4,2.73-4.35,2.66-9.18,5.31-13.65,7.98-2.38,1.43-4.61,2.04-6.99,3.42-3.25,1.88-5.62,6.03-8.19,4.79-3.11,3.94-7.15,4.72-10.26,8.66-9.12,3.42-16.81,11.75-26.1,14.6-5.02,6.52-11.8,7.01-16.91,13.22-3.3-.37-5.46,3.18-8.52,3.65-9.37,7.72-20.38,13.53-30.89,20.07-3.07,1.91-8.59,5.29-9.39,6.16-3.28,3.53-5.71,2.12-8.19,4.79-2.38,2.56-12.7,7.99-14.85,9.35-5.53,3.49-10.3,7.1-16.05,10.72-5.09,3.2-11.28,6.39-16.38,9.58-2.36,1.47-5.37,4.34-7.86,5.93-4.63,2.96-10.96,5.09-13.65,7.98-1.48,1.6-1.49.75-2.73,1.6-2.59,1.77-5.19,4.31-7.86,5.93-5.35,3.24-11.09,6.05-16.71,8.44-3.52,5.67-16.75,10.21-19.98,13.68-2.53,2.72-7.23,3.83-9.38,6.15-.36.39-.65.64-.89.8-.14.1-.19.11-.23.12-.05.01-.1.02-.15.01-.19,0-.38-.08-.61.11-4.28,3.69-8.05,4.79-12.66,7.25-3.5,1.86-6.74,4.01-10.2,5.97-.77,1.83-.05,3.29-.13,4.59-.1,1.52-.85,2.45-.62,3.55.17.8,1.57,1.47,1.84,2.27,1-2.03,2.92.48,2.21,1.43-2.37,4.9-.31,7.49,1.09,10.42-.44,2.85-2.5,2.28-3.57,3.8,1.66,3.23,4.83,5.67,2.81,10.82,1.34,1.24,3.03,2.3,2.82,4.35l-1.85,4.2c1.33,1.66,1.42,4.02,2.08,6.03.47,1.45,1.52,2.84,1.1,3.95-.46,1.2,1.59,1.41,1.84,2.27-1.13,1.88-1.28,3.25-.99,4.39,2.24,2.71,3.31,6.03,6.86,8.05.28,2.01.94,3.82,1.22,5.83,4.63,1.68,4.04,6.08,8.95,7.61.73,1.35-1.44,4.2.73,4.79,1.95-2.9,6.77.29,10.19.5.96-1.52,2.73-1.9,4.06-2.76,1.32-.86,4.48-3.54,5.29-3.4,1.02.18.56-.3,1.23-.64,1.89-.96,3.36-2.52,4.43-3.6.81-.83,1.39-1.09,1.97-2.32,3.39.27,5.99-2.9,8.6-4.49.53-.32,1.53-.13,2.09-.44.9-.51,1.06-1.73,1.97-2.32,1.59-1.03,3.49-1.2,4.91-2.56,1.02-.71,7.79-5.5,13-8.78,2.54-1.6,5.32-3.08,8.19-4.79.45-.27,1.06.02,1.53-.23.85-.45,1.54-2.2,2.4-2.73.85-.53,2.19.05,3.06-.46.93-.54,1.47-2.14,2.4-2.73,4.46-2.83,15.92-9.16,17.58-10.95,2.35-2.53,6.12-3.68,8.19-4.79.77-.41,1.65-2.19,2.4-2.73,1.05-.76,4.19-2.4,5.46-3.19,3.8-2.37,6.78-3.96,10.92-6.39,1.81-1.06,3.64-2.13,5.46-3.19,2.04-1.19,5.04-2.19,6.99-3.42,1.41-.89,2.28-3.09,3.6-4.1,1.54-1.18,4.04-1.12,5.79-2.06.73-.39,1.7-2.2,2.4-2.73.24-.18,1.24-.07,1.53-.23.83-.45,1.56-2.19,2.4-2.73,4.15-2.69,9.98-5,12.45-6.61,2.1-1.38,3.19-3.1,5.13-4.33,7.65-4.85,15.95-9.61,21.84-12.77.81-.44,1.59-2.18,2.4-2.73,1.01-.69,3.15-1.09,4.26-1.83,2.13-1.4,3.13-3.09,5.13-4.33,8.12-5.07,15.68-8.52,23.37-13,2.12-3.67,5.26-3.86,7.53-7.06,4.45-.21,5.82-2.94,8.19-4.79.52-.41,3.53-1.36,4.26-1.83,4.53-2.86,8.85-6.41,13.32-9.12,9.06-5.49,18.23-10.18,27.63-14.83,2.94-2.7,6.54-3.13,9.05-7.29,5.16-.56,9.08-5.37,13.98-6.84,6.26-5.92,13.22-9.46,20.64-11.41,3.84-2.44,7.5-4.49,11.16-6.53,1.83-1.03,3.65-2.07,5.51-3.12.92-.54,1.85-1.09,2.8-1.65.51-.32,1.03-.63,1.55-.95.89-.56,1.79-1.13,2.7-1.71,2.59-1.65,6.39-3.94,9.01-5.73,2.87-1.96,3.63-2.79,5.69-4.68,2.04-1.88,3.14-2.96,6.29-4.64,1.36-.72,2.08-.9,3.61-1.76,1.29-.73,2.56-1.61,3.81-2.4,2.91-1.85,5.95-3.74,8.77-5.62,3.28-2.19,5.43-4.03,8.39-6.09,5.91-4.1,13.03-7.95,19.26-11.85,3.99-2.5,7.97-4.88,11.97-7.26,2-1.19,4-2.39,6-3.58,1-.6,2-1.2,3-1.81l1.5-.91c.26-.15.5-.31.71-.46.04-.04.15-.07.12-.13l-.13-.17-.26-.34c-3.27-4.25-6.93-8.73-10.33-13.02-1.94-2.46-4.21-5.18-5.96-7.57-1.72-2.35-3.05-4.53-4.83-7-.18-.25-.38-.52-.58-.78-6.58-8.75-13.23-17.41-20.24-26.39-2.38-3.06-4.97-6.53-7.44-9.54-1.75-2.13-2.36-2.67-4.05-4.44-1.97-2.06-2.99-3.71-4.76-5.82-.84-1.02-1.45-1.56-2.24-2.48-1.44-1.65-2.87-3.67-4.32-5.64l-.2-.27-.13-.19-.25-.37-.5-.75c-.33-.5-.65-.99-.97-1.47-3.37-5.11-5.64-10.13-8.68-15.3-2.36-4.1-4.7-7.97-7.62-11.88-1.73-2.31-3.65-4.38-5.43-6.6-1.55-1.98-2.86-4.1-4.41-6.02-2.47-3.07-4.74-6.67-7.06-10-1.35-1.95-1.85-2.97-2.91-5.05-.68-1.37-.94-1.89-1.97-2.99-1.04-1.11-2.16-1.7-3.21-2.96-.77-.91-1.52-2.2-2.22-3.25-1.92-2.91-3.56-5.51-5.16-8.48-.57-1.08-.93-2.13-1.48-3.21-.51-1-1.27-1.95-1.76-2.91-.52-1.03-.1-.4-.91-1.64Z"/>
  <g id="TRVp4Q">
    <g>
      <g>
        <path class="st1" d="M263.37,647.26c-3.02,4.22-8.7,6.49-13.66,5.83s-9.5-4.85-11.27-10.68l-71.92-236.04-103.27-102.19c-3.93-3.88-5.71-9.17-4.5-14.51.91-4.02,4.99-7.96,10.58-9.86L760.43,44.83c5.26-1.79,11.25,1.12,13.82,4.01,3.13,3.52,5.14,10.2,2.17,15.48l-332.29,591.93c-2.23,3.98-6.95,6.92-9.94,7.28-4.41.53-9.71-1.5-13.08-4.85l-97-96.38-60.74,84.95ZM181,381.83L631.53,118.59,97.74,299.27l83.26,82.56ZM428.91,626.93L711.43,122.48l-424.28,364.48,141.76,139.97ZM254.32,478.96l379.22-327.74-438.55,254.06,49.63,162.18,9.7-88.5ZM304.26,542.56l-26.51-25.54-6.6,71.42,33.11-45.88Z"/>
        <g>
          <path class="st0" d="M279.53,585.09c.97-1.52,2-2.77,2.58-3.59,1.38-1.97,1.92-2.96,2.93-4.37.21-.28.46-.64.81-1.11.2-.27.45-.6.74-.98.43-.55.95-1.23,1.44-1.87.99-1.28,1.93-2.52,2.17-2.95.4-.74,1.14-1.49,1.55-2.06.14-.19.21-.44.33-.64.2-.3.55-.61.77-1.03.25-.47.32-.35.61-.71.12-.15.22-.47.33-.64.74-1.02,1.37-1.89,2.1-2.9.94-1.31,1.85-2.59,2.49-3.42.07-.09.15-.11.22-.2.12-.15.21-.47.33-.64.57-.76,1.19-1.59,1.55-2.06.07-.1.1-.22.17-.32.12-.16.32-.23.44-.4.49-.66.76-1.4,1.16-1.55l.67-1.27c.26-.33.49-.63.71-.92.12-.16.24-.32.35-.47l.09-.11.04-.05c.11-.14.21-.26.32-.39.2-.26.4-.51.61-.71.17-.17.35-.41.45-.53.07-.08.18-.06.26-.13.13-.11.23-.36.45-.34-.22-.26.19-.19.27-.32.04-.06.04-.31.1-.47,0-.01.08,0,.09-.01.03-.03,0-.15,0-.18,0-.01.08,0,.09-.01.08-.08.05-.89.04-1.01,0-.08-.08-.1-.08-.17,0-.09-.08-.05-.08-.08-.08-.32,0-.51-.06-.63-.16-.25-.18-.55-.32-.68-.06-.05-.1-.11-.17-.16.07-.35-.13-.37-.06-.72-.22.02-.29-.2-.42-.3-.05-.04-.1-.13-.17-.16-.04-.02-.13.04-.17.03-.02,0-.06-.15-.08-.17-.21-.16-.42-.36-.59-.46-.1-.05-.17-.09-.25-.14-.06-.04-.1-.11-.17-.16-.07-.05-.15-.05-.17-.16.15-.02.23-.1.27-.22-.26.06-.26-.17-.52-.1,0-.14-.02-.17-.17-.16-.13.01-.26-.18-.34-.22-.11-.06-.18-.02-.35-.04-.2-.02-.39-.34-.69-.17-.08-.11-.07-.32-.16-.43-.39-.08-.86-.06-1.12-.28-.2.25-.53.1-.79.21-.08.04-.17.36-.36.24-.18.15-.14.5-.37.6-.28.09-.19-.25-.52-.1-.08.39-.43.62-.64.92-.12.16-.16.32-.28.5-.09.15-.32.28-.28.5-.33.12-.59.57-.72.75-.02.03-.15,0-.17.03-.04.05-.07.24-.1.29-.03.07-.08.13-.13.19l-.07.09-.04.04-.08.1c-.42.56-.79,1.08-1.02,1.5-.36.66-1.59,2.19-2.1,2.9-.58.83-1.34,1.92-1.88,2.7-.49.68-1.08,1.36-1.38,1.75-.12.15-.22.47-.33.64-.2.26-.57.76-.77,1.03-.69.96-1.24,1.72-1.72,2.38-.61.84-1.61,2.1-1.94,2.58-.37.55-.49,1.03-.89,1.47-.7.73-1.25,1.82-1.99,2.46-.74,1.22-1.53,2.35-2.33,3.44-.37.49-.77,1.02-1.21,1.61l-.15.2c-.05.06-.03.03-.05.05l-.05.04-.09.07c-.07.11-.15.61-.29.37-.04.06-.1.03-.13.08-.07.1-.13.2-.21.34-.03.05-.06.1-.09.13-.02.02-.01-.03-.02-.03-.02,0-.09.12-.13.18-.03.04-.06.07-.14.25-.02.06-.06.14-.08.2-.08.19-.1.17-.06.03.15-.5.37-1.08.37-1.14v-.11s.02-.05,0-.02c-.01.01-.03.05-.05.06-.07.07-.13.1-.14.02,0-.03.03-.12.01-.14,0,0-.02.01-.03,0,0-.01,0-.03,0-.05,0-.07,0-.13.04-.23.04-.1.12-.2.16-.26,0-.01,0-.02.01-.04.01-.02.04-.04.06-.05.03-.03.04-.06.04-.08,0-.02,0-.03,0-.05,0-.02,0,.02,0-.04,0-.07,0-.14.01-.22,0-.13.01-.28.02-.46.03-.72.1-1.06.17-1.76.05-.52.08-1.12.15-1.63.06-.48.07-.25.14-.47.14-.42.14-1.89.19-2.47.17-1.99.51-3.97.58-5.89.08-2.05.43-4.62.62-6.13.03-.19-.06-.52-.04-.72.11-.96.24-2.2.36-3.21.06-.56.17-1.01.23-1.56.09-.76-.06-1.64.21-1.92-.08-.98.15-1.74.07-2.72.38-1.92.3-4.17.73-6.05-.13-1.6.3-2.78.2-4.36.26-.51.14-1.28.32-1.84-.14-.12-.03-.23,0-.27,0-.02.02-.04,0-.11-.1-.3.11.22.05.05-.04-.16.08.09.08.09.03.03.06,0,.1.04.02.02.03.05.03.08v.02s.05.05.11.11l.17.17c.25.24.47.46.68.67.41.4,1.06.92,1.5,1.33.81.78,1.65,1.81,2.28,2.28.35.26.23.25.46.46.47.44,1.04.89,1.5,1.33.91.89,1.79,1.85,2.61,2.77,1.09.64,2.86,2.81,3.61,3.37.59.44,1.15,1.2,1.66,1.58.18.13.24.2.22.2,0,.02,0,.04.03.06.46.33.65.67,1,1.06.26.3.55.56.82.85.2.03.32-.07.45-.1.15-.03.26.03.36-.02.07-.04.11-.19.18-.23-.22-.05-.02-.29.09-.25.53.12.74-.15.99-.35.29-.02.28.19.45.26.27-.24.44-.6.99-.53.09-.16.15-.35.36-.38l.45.08c.13-.17.36-.23.54-.34.13-.08.24-.21.36-.2.13.02.1-.19.18-.23.21.07.35.05.45,0,.21-.28.51-.46.62-.86.19-.07.35-.18.54-.26.05-.49.5-.54.53-1.05.11-.1.44.04.45-.18-.33-.12-.13-.66-.19-1-.17-.06-.25-.22-.36-.33-.11-.11-.45-.35-.45-.43,0-.1-.04-.05-.09-.1-.14-.16-.32-.27-.45-.35-.1-.06-.14-.11-.27-.14-.05-.34-.42-.51-.64-.73-.04-.04-.05-.15-.09-.19-.07-.08-.19-.06-.27-.14-.14-.13-.2-.31-.36-.42.12.12-1.24-1.14-2.12-1.99-.39-.39-.91-.91-1.37-1.37-.08-.08-.09-.17-.16-.25-.14-.14-.44-.28-.58-.42-.15-.14-.18-.35-.33-.49-.16-.16-.42-.27-.58-.42-.78-.75-2.64-2.66-3.03-2.95-.55-.41-1.04-1.02-1.37-1.37-.12-.13-.44-.29-.58-.42-.2-.18-.69-.7-.91-.91-.59-.59-1.14-1.14-1.83-1.82-.3-.3-.61-.61-.91-.91-.34-.34-.74-.83-1.08-1.16-.37-.36-1.02-.79-1.45-1.18-.51-.47-1-1.13-1.52-1.66-.22-.22-.73-.57-.96-.78-.08-.07-.27-.34-.36-.43-.25-.25-.68-.52-.94-.77-1.29-1.24-2.93-2.98-3.72-3.74-.67-.64-1.13-.96-1.73-1.54-.59-.57-1.19-1.15-1.81-1.75-.3-.29-.6-.58-.9-.88l-.45-.44-.22-.22-.11-.11-.05-.05s0,.04-.01.05c-.15,1.42-.31,2.86-.45,4.18-.04.33,0,1.09-.03,1.44-.04.45-.18,1.07-.22,1.56-.08.95-.06,1.69-.14,2.54-.33,3.46-.71,6.39-1.05,9.69.12.8-.08,1.33,0,2.09-.29.77-.19,1.31-.21,1.92,0,.13-.14.75-.16.92-.1,1.09-.14,2.22-.25,3.28-.22,2.15-.51,4.23-.82,6.34,0,.81-.22,1.46-.09,2.36-.32.93-.23,2.14-.46,3.13,0,1.74-.22,3.31-.59,4.77-.18,1.66-.4,3.59-.58,5.25-.03.32-.07.73-.11,1.15-.02.38,0,.5.01.82.02.31.04.49-.03.87-.03.16-.06.23-.08.41-.02.16-.03.33-.05.49-.03.37-.06.72-.1,1.13-.03.43-.02.77-.04,1.17-.05.81-.18,1.64-.26,2.44-.1.91-.24,2.07-.34,3-.11,1.16-.21,2.25-.31,3.35-.06.61-.11,1.16-.18,1.95-.06.52-.19,1.54-.25,2.04-.25,2.59-.45,4.57-.66,6.79-.07.78-.14,1.55-.23,2.44-.04.54-.04.67-.06,1.11-.02.51-.08.94-.12,1.48,0,.14-.02.45-.03.62-.06.86-.17,1.88-.27,2.82-.26,2.47-.61,4.92-.9,7.51-.23,2.03-.45,3.98-.62,5.93-.01.14-.02.28-.04.42,0,.07-.01.14-.02.21v.1s-.01.05-.01.05l.03-.05c.17-.24.34-.5.53-.76.37-.53.74-1.07,1.05-1.51.68-.95,1.04-1.47,1.79-2.52.96-1.38,1.95-2.72,2.91-4.06.56-.78.81-1.1,1.35-1.79.35-.45.48-.63.85-1.18.37-.55.66-1.06,1.05-1.63.44-.61.65-.91.93-1.29.82-1.13,1.54-2.12,2.33-3.16.2-.26.62-.79.83-1.05.37-.5.45-.61.81-1.1.27-.36.09-.11.45-.6Z"/>
          <path class="st0" d="M234,377.09c-6.19,3.71-12.63,7.32-16.27,9.44-8.53,5.03-12.86,7.59-19.2,11.33-2.04,1.18-4.68,2.71-7.79,4.51-.24.14-.49.28-.74.43l-.38.22c-.06.04-.14.07-.17.11l.06.21c.17.56.34,1.13.52,1.7.35,1.15.71,2.35,1.09,3.57.48,1.6.99,3.28,1.52,5.03,1.71,5.66,3.67,12.17,5.59,18.54,3.84,12.74,7.54,24.94,8.78,28.77,2.1,6.48,4.45,14.72,6.15,20.27.57,1.86,1.23,3.72,1.81,5.56.88,2.81,1.87,6.42,3.08,10.13,1.34,4.14,1.07,3.7,2.17,7.35.45,1.51,1.32,3.97,1.81,5.56,2.97,9.71,5.62,18.38,8.59,28.1,3.06,10,6.08,19.84,8.82,28.81,1.66,5.42,3.23,10.57,4.69,15.35.73,2.4,1.43,4.7,2.1,6.9.17.55.33,1.09.5,1.63l.06.2.03.1s0-.06.01-.08l.05-.41c.03-.27.06-.54.09-.81.12-1.07.24-2.1.35-3.11.17-1.37.36-2.88.53-4.24.28-2.83.86-8.54,1.15-11.47,1.52-13.69,2.84-25.61,3.82-34.37.08-.87.19-2.05.27-2.91.18-1.62.46-3.06.64-4.7.74-6.67,1.22-12.96,1.77-15.78l1.07-11.65c.57-5,1.15-10.07,1.72-15.15.03-.17.06-.33.08-.5.05-.33.1-.64.18-.92.07-.23.1-.53.13-.68.02-.11.13-.14.17-.25.06-.16.02-.42.22-.52-.32-.12.07-.26.08-.41,0-.07-.12-.28-.14-.46,0-.01.07-.04.07-.05,0-.04-.08-.12-.08-.16,0-.01.07-.04.07-.05.03-.1-.4-.8-.47-.89-.05-.07-.12-.05-.15-.11-.04-.07-.09,0-.11-.03-.23-.24-.25-.45-.37-.51-.26-.14-.43-.39-.62-.43-.07-.02-.15-.05-.22-.05-.11-.34-.3-.26-.41-.6-.18.12-.35-.03-.52-.05-.07,0-.15-.06-.22-.05-.05,0-.09.1-.14.11-.02,0-.12-.1-.15-.11-.26-.04-.55-.11-.74-.11-.11,0-.19.01-.29,0-.07,0-.14-.05-.22-.05-.08,0-.16.03-.22-.05.12-.09.14-.2.12-.33-.19.18-.31-.02-.5.16-.07-.12-.1-.14-.22-.05-.11.07-.32-.03-.4-.03-.13,0-.16.07-.32.14-.18.08-.51-.11-.68.19-.13-.05-.22-.25-.35-.3-.38.13-.78.38-1.11.3-.05.32-.41.35-.58.57-.05.07.04.4-.19.38-.09.22.13.51-.02.71-.2.21-.29-.13-.5.17.12.38-.07.76-.1,1.11-.02.2.02.36,0,.57-.01.17-.14.4,0,.57-.23.26-.23.78-.26,1.01,0,.04-.13.07-.14.11,0,.07.06.24.06.3,0,.07,0,.15-.02.23l-.02.11v.06s-.02.03-.02.03l-.09.79c-.63,5.67-1.21,10.91-1.57,14.77-.57,6.05-2.43,22.07-3.21,29.23-.41,3.86-.84,7.88-1.27,11.85-.06.61-.12,1.22-.17,1.79-.05.45-.11.9-.17,1.12-.12-.46-.22-.88-.3-1.17-.05-.18-.16-.17-.23-.4-.11-.38-.28-.97-.4-1.37-2.75-8.99-4.94-16.13-6.85-22.37-2.46-8.12-6.31-20.8-7.69-25.34-1.61-5.19-2.89-8.77-4.25-13.41-2.28-7.92-5.35-17.3-7.42-24.83-3.52-11.14-6.85-21.93-10.09-32.54-1.58-5.2-3.15-10.37-4.71-15.53-.03-.16-.14-.36-.09-.49l.64-.35,7.11-4.08c10.09-5.86,20.94-12.4,30.03-17.37,4.43-2.55,10.08-5.8,14.56-8.37,8.03-4.67,15.65-9.09,23.64-13.73,3.09-1.79,6.49-3.76,9.62-5.58,1.92-1.1,3.3-1.88,5.13-2.93,4.53-2.63,10.37-6.01,14.9-8.63,3.64-2.12,8.61-5.02,12.09-7.04,1.04-.62,1.81-1.09,2.9-1.74,3.53-2.1,8.34-4.84,11.53-6.64,7.33-4.12,13.66-7.6,22.5-12.73,4.38-2.54,8.77-5.08,13.15-7.62,2.57-1.5,4.94-2.87,7.29-4.24,1.02-.6,2.22-1.31,3.31-1.96,6.92-4.06,13.8-8.1,20.99-12.31,3.37-1.95,7.04-4.08,10.34-5.99.78-.46,1.48-.88,2.17-1.29,1.56-.91,2.88-1.67,4.49-2.61,4.89-2.83,9.64-5.57,14.48-8.36,4.79-2.72,9.12-5.18,13.81-7.85,1.11-.64,2.26-1.3,3.38-1.95,1.25-.71,2.37-1.33,3.58-2.01,2.61-1.5,6.13-3.52,8.88-5.1,4.68-2.73,8.16-4.75,12.8-7.46,5.1-3,7.55-4.36,12.59-7.28,3.74-2.17,7.93-4.6,11.61-6.73,3.45-1.98,1.8-.99,3.47-1.9,3.1-1.67,13.41-7.81,17.56-10.21,14.21-8.25,28.51-16.35,42.02-24.3,7.26-4.27,15.5-9.05,23.28-13.53.97-.56,1.94-1.12,2.89-1.67l.67-.38.03-.02.06-.03c.08-.03.15-.07.22-.1.12-.05.2-.08.24-.09,0,0,.45-.38.53-.43.36-.2.51-.24.68-.32.02-.01.02,0-.02.03l-.28.21c-.16.12-.31.23-.48.36-.1.08.19-.11.24-.12.07-.03-.07.08-.7.47.36-.2.25-.1.18-.04-.09.08-.12.12-.11.21l-.28.17-.05.04h-.01s-.07.07-.07.07l-.59.51c-.79.68-1.59,1.37-2.38,2.05-3.18,2.76-6.42,5.56-9.65,8.36-6.46,5.6-12.89,11.17-18.91,16.21-9.62,8.69-17.42,15-26.95,23.57-3.42,2.68-8.02,6.9-11.69,9.91-15.18,13.32-30.97,26.83-46.67,40.38-4.57,3.96-12.66,10.96-14.22,12.31-5.83,5.2-7.64,6.43-12.04,10.36-4.23,3.77-19.02,16.43-22.25,19.22-8.28,7.17-15.84,13.72-24.43,21.17-7.62,6.56-16.45,14.16-24.08,20.72-3.48,3.03-8.7,7.59-12.39,10.81-6.96,6.02-15.29,13-20.07,17.27-2.64,2.35-2.11,1.8-4.02,3.45-3.92,3.42-8.48,7.4-12.38,10.81-7.93,6.84-16.03,13.74-23.73,20.27-7.44,6.81-24.89,21.46-30.62,26.57-4.5,4.01-10.39,8.89-14.22,12.31-.68.6-1.13,1-1.48,1.31-.08.07-.15.13-.21.19h0s-.01,0-.01,0c-.02,0-.04,0-.06.02-.37.43-.73.59-1.15.9-.32.24-.61.49-.92.74-.05.19.04.33.05.46.01.15-.05.26,0,.36.03.08.18.12.21.2.07-.22.3,0,.24.11-.16.52.08.75.26,1.02,0,.29-.21.26-.3.43.21.3.56.49.43,1.03.15.1.33.18.34.39l-.12.44c.16.15.2.38.29.57.07.14.19.26.17.37-.03.13.18.12.21.2-.08.2-.08.34-.03.45.26.24.41.55.8.7.06.19.15.36.21.56.48.1.49.54,1,.62.09.12-.08.44.14.46.15-.32.67-.07,1.02-.1.07-.16.24-.23.36-.33.12-.1.39-.42.47-.41.1,0,.05-.04.11-.08.17-.12.3-.3.39-.42.07-.09.12-.13.16-.26.34-.02.55-.37.79-.57.05-.04.15-.04.2-.07.08-.06.08-.19.16-.26.14-.13.33-.17.45-.33-3.27,2.82,9.07-7.9,16.5-14.32,3.8-3.27,7.8-6.71,12.04-10.36.54-.44,1.29-1.05,1.84-1.5,1.22-1.04,3.08-2.8,4.36-3.9,1.27-1.1,2.38-1.9,3.67-3,1.37-1.18,2.96-2.7,4.36-3.9,6.7-5.79,23.32-20.04,26.26-22.67,4.18-3.73,9.06-7.81,12.04-10.36,1.11-.95,3.19-2.88,4.36-3.9,1.65-1.42,6.13-5.27,8.03-6.91,5.68-4.89,9.97-8.58,16.05-13.81,2.67-2.29,5.35-4.61,8.03-6.9,2.96-2.53,6.98-5.95,9.86-8.41,2.11-1.82,4.45-4.03,6.54-5.85,2.44-2.13,5.16-4.3,7.68-6.46,1.05-.9,3.25-2.93,4.36-3.9.31-.26,1.49-1.22,1.84-1.51,1.2-1.03,3.09-2.8,4.36-3.9,6.23-5.34,14.17-12.13,17.89-15.31,3.08-2.71,5.57-4.89,8.37-7.35,11.47-9.87,23.6-20.3,32.11-27.62,1.17-1.01,3.12-2.83,4.36-3.9,1.5-1.27,4.21-3.57,5.85-4.96,3.13-2.75,5.5-4.83,8.37-7.35,12.11-10.4,22.67-19.45,33.94-29.13,4.64-4.27,8.23-7.17,12.73-11.26,5.05-4.07,8.27-7.06,12.04-10.36.82-.69,4.78-4.05,5.85-4.95,6.76-5.87,13.81-11.98,20.42-17.72,19.15-16.44,37.82-32.48,56.96-48.92.28-.24.55-.48.83-.72.2-.16.15-.15.15-.17v-.07s.01-.27.01-.27c.02-.18.04-.36.07-.55l.2-1.11c.13-.74.14-1.44.15-2.23.2-.53.3-1.05.39-1.56l.06-.39.03-.19c0-.05.06-.16-.04-.15l-.78-.15c-1.03-.21-2.16-.35-2.93-.7-.83-.08-1.61-.16-2.38-.23l-.29-.03-.14-.02h-.04s-.22.12-.22.12l-.45.26c-1.2.7-2.39,1.39-3.57,2.07-2.36,1.36-4.69,2.71-7.01,4.06-9.24,5.34-18.11,10.41-26.97,15.44-2.11,1.19-4.23,2.4-6.38,3.61-13.19,7.6-24.33,14.03-37.52,21.63-2.35,1.36-5.73,3.32-8.18,4.74-2.67,1.56-3.52,2.09-5.71,3.41-2.17,1.31-3.41,2.07-6.13,3.62-1.13.64-1.73.97-3,1.69-1.14.66-2.34,1.35-3.48,2.01-2.67,1.55-5.41,3.14-8.07,4.68-3.03,1.78-5.44,3.2-8.28,4.87-5.78,3.34-11.76,6.79-17.41,10.05-7.26,4.18-14.09,8.11-21.21,12.21-4.18,2.42-8.53,4.94-12.73,7.38-2.4,1.39-5.05,2.93-7.4,4.29-2.54,1.45-4.94,2.82-7.62,4.35-8.54,4.94-16.8,9.71-25.45,14.7-2.94,1.7-6.24,3.61-9.18,5.32-2.01,1.19-2.62,1.55-4.45,2.63-2.2,1.28-3.62,2.11-5.7,3.32-.98.58-1.62.96-2.52,1.49-3.46,2-7.18,4.16-10.62,6.14-9.04,5.15-17.34,9.89-26.26,14.97-7.11,4.09-13.86,7.98-21.15,12.17-4.28,2.5-8.51,4.98-12.75,7.45-3.77,2.19-7.46,4.34-11.17,6.5-5.93,3.44-12.25,7.11-18.32,10.63-3.53,2.02-5.21,2.99-8.73,5-2.29,1.3-3.15,1.8-5.37,3.11-2.14,1.28-4.01,2.4-6.3,3.77-1.8,1.04-4,2.32-5.89,3.42-5.22,3.01-9.79,5.64-14.86,8.57-1.8,1.02-3.48,1.97-5.27,2.99-1.69.98-3.48,2.01-5.1,2.95-1.73.99-.61.35-2.81,1.62Z"/>
          <path class="st0" d="M378.09,402.46c-5.71,5.04-11.69,10.04-15.05,12.95-7.9,6.89-11.87,10.35-17.73,15.47-10.04,8.65-44.6,37.96-50.97,43.6-1.43,1.25-2.83,2.47-4.28,3.72-2.32,1.98-4.69,4.01-7.06,6.03-.72.61-1.43,1.22-2.14,1.82l-.53.45c-.06.08-.23.15-.21.23l.24.24.97.97c1.3,1.29,2.57,2.56,3.8,3.78,1.77,1.76,3.41,3.39,4.87,4.84,1.34,1.28,3.12,2.98,4.46,4.26,2.22,2.17,4.96,5.02,7.94,7.87,3.31,3.18,2.86,2.9,5.71,5.74,1.18,1.17,3.21,3.03,4.47,4.27,7.63,7.53,14.44,14.26,22.07,21.81,9.95,9.84,19.56,19.34,26.05,25.75.57.59,1.17,1.21,1.74,1.8,1.11,1.06,3.31,3.17,4.47,4.27,6.32,6.27,11.83,11.73,15.88,15.74.67.64,1.56,1.49,2.23,2.13,1.22,1.21,2.24,2.38,3.48,3.61,5.04,4.99,9.92,9.51,11.91,11.81l8.93,8.53c3.76,3.75,7.58,7.55,11.41,11.35l.34.37c.23.24.44.47.61.71.14.2.35.41.45.53.07.08.03.18.09.28.09.14.32.28.27.49.29-.18.16.22.27.32.05.05.3.08.45.17.01,0,0,.08,0,.09.02.03.15.01.18.03.01,0,0,.08,0,.09.06.09.88.18.99.19.08,0,.11-.06.18-.05.08.01.06-.07.09-.07.33-.03.51.09.63.03.27-.12.57-.1.72-.21.06-.05.13-.09.18-.14.33.13.39-.08.72.05.02-.22.24-.25.36-.37.05-.05.14-.08.18-.14.03-.04-.02-.13,0-.18.01-.02.16-.03.18-.05.19-.18.42-.36.54-.51.07-.09.11-.16.18-.23.05-.05.12-.08.18-.14.06-.06.07-.14.18-.14,0,.15.07.24.18.3-.02-.26.2-.23.18-.49.14.02.17,0,.18-.14,0-.13.22-.23.27-.3.08-.1.05-.17.09-.34.05-.19.4-.33.27-.65.12-.07.33-.02.45-.09.13-.37.19-.84.45-1.06-.22-.24-.02-.54-.09-.81-.02-.09-.33-.22-.18-.39-.12-.2-.48-.21-.54-.46-.04-.29.28-.15.18-.49-.37-.14-.55-.52-.81-.77-.14-.14-.29-.21-.45-.35-.13-.12-.23-.36-.45-.35-.07-.34-.47-.67-.63-.83-.03-.03.03-.15,0-.18-.05-.05-.23-.11-.27-.14-.06-.04-.12-.1-.17-.15l-.08-.09-.04-.04-.02-.02-.6-.59c-4.28-4.24-8.24-8.15-11.2-10.99-4.63-4.44-16.67-16.48-22.08-21.82-6.71-6.6-13.97-13.74-20.34-20.01-5.06-5.05-10.65-10.62-13.65-13.61-1.17-1.17-3.21-3.03-4.46-4.26-2.22-2.2-5.59-5.54-7.94-7.87-7.28-7.19-13.06-12.89-18.11-17.88-6.36-6.31-16.3-16.16-19.85-19.68-4.1-4.02-7.08-6.7-10.67-10.33-1.39-1.4-2.73-2.74-4.09-4.12l-.34-.34-.09-.08s.04-.05.06-.08l.18-.16c1.09-.93,2.16-1.84,3.23-2.75,1.73-1.47,3.42-2.88,5.02-4.18,18.57-16.24,36.1-31.16,53.65-46.12,9.34-8.04,19.34-16.92,27.8-23.85,4.11-3.51,9.34-7.97,13.49-11.51,7.44-6.4,14.48-12.46,21.88-18.83,2.86-2.46,6.01-5.16,8.91-7.66,1.78-1.51,3.05-2.59,4.76-4.04,4.19-3.6,9.6-8.25,13.79-11.85,3.36-2.9,7.98-6.88,11.19-9.65.96-.85,1.67-1.48,2.67-2.36,3.26-2.86,7.71-6.64,10.68-9.13,6.8-5.7,12.7-10.55,20.88-17.58,4.05-3.48,8.12-6.97,12.17-10.46,2.38-2.05,4.57-3.94,6.74-5.81.94-.82,2.04-1.79,3.05-2.67,6.39-5.55,12.75-11.07,19.4-16.84,3.12-2.68,6.52-5.6,9.57-8.22.72-.63,1.36-1.19,2-1.76,1.44-1.24,2.67-2.3,4.15-3.58,4.53-3.88,8.93-7.65,13.4-11.49,4.45-3.76,8.45-7.15,12.81-10.83,1.03-.88,2.09-1.79,3.13-2.68,1.17-.98,2.2-1.84,3.32-2.78,2.41-2.06,5.68-4.84,8.23-7.02,4.33-3.74,7.55-6.52,11.84-10.23,4.79-4.11,7-6,11.66-10,3.46-2.98,7.34-6.31,10.75-9.24,3.2-2.73,1.67-1.38,3.23-2.64,2.88-2.34,12.41-10.7,16.24-14,13.15-11.31,26.42-22.51,38.9-33.37,3.11-2.69,6.39-5.53,9.72-8.41.27-.24.54-.44.69-.55l.1-.06h.02s-.03.04-.03.04l-.07.11c-.08.13-.16.24-.23.35-.03.04.17-.09.11,0-.06.1-.12.2-.18.31l-.09.15-.04.07-.8,1.43c-2.31,4.11-4.64,8.23-6.89,12.24-2.39,4.21-4.39,7.72-6.76,11.89-3.26,5.79-6.71,12.41-8.23,14.62-3.95,7.4-7.39,13.22-11.34,20.62-8.41,14.61-17.63,31.67-25.96,46-6.44,12.07-11.9,21.16-18.29,33.08-2.42,3.89-5.48,9.74-8.04,14.05-10.29,18.68-21.1,37.77-31.81,56.87-3.12,5.58-8.63,15.44-9.69,17.34-3.92,7.25-5.26,9.14-8.22,14.61-2.85,5.27-12.98,23.15-15.18,27.08-5.64,10.1-10.79,19.32-16.64,29.8-5.21,9.25-11.24,19.97-16.45,29.23-2.36,4.26-5.91,10.66-8.41,15.18-4.74,8.47-10.49,18.41-13.71,24.36-1.78,3.28-1.45,2.55-2.74,4.87-2.67,4.81-5.76,10.39-8.41,15.18-5.41,9.64-10.97,19.41-16.26,28.66-4.95,9.43-16.99,30.25-20.85,37.39-3.03,5.6-7.11,12.56-9.69,17.33-.46.83-.76,1.39-1,1.83-.05.09-.1.18-.15.26h0s-.01.01-.01.01c-.02,0-.04.01-.05.04-.2.53-.48.8-.77,1.24-.22.33-.4.67-.62,1.01.02.2.15.29.21.41.06.14.04.26.11.34.05.06.21.06.27.11,0-.23.28-.1.26.02.02.54.33.67.59.87.1.27-.11.32-.13.5.3.21.69.27.76.82.18.05.38.06.45.25l.04.46c.2.08.32.29.47.43.11.11.27.18.28.3.02.13.21.05.27.11-.01.22.04.35.12.43.33.13.58.37.99.38.12.16.26.29.38.46.49-.07.64.34,1.15.25.13.08.07.44.29.39.03-.35.61-.3.92-.44.01-.18.15-.3.23-.44.08-.14.23-.52.3-.55.1-.03.04-.05.08-.11.12-.17.18-.38.22-.53.03-.11.07-.16.06-.3.31-.14.39-.54.54-.8.03-.05.13-.08.16-.14.06-.09.01-.2.06-.3.09-.17.25-.27.31-.46-2.24,3.99,6.16-11.09,11.23-20.13,2.6-4.62,5.33-9.47,8.23-14.61.38-.65.89-1.5,1.28-2.16.83-1.48,2.06-3.88,2.93-5.44.87-1.54,1.68-2.74,2.56-4.31.81-1.51,2.1-3.9,2.93-5.43,4.57-8.16,15.94-28.28,17.92-31.95,2.81-5.2,6.19-11.01,8.23-14.62.76-1.34,2.13-4.01,2.93-5.44,1.12-2,4.19-7.44,5.49-9.75,3.88-6.89,6.81-12.1,10.97-19.49,1.82-3.24,3.66-6.5,5.48-9.74,2.04-3.58,4.78-8.41,6.76-11.9,1.44-2.57,2.98-5.6,4.39-8.15,1.65-2.99,3.57-6.13,5.3-9.18.63-1.17,2.26-4.19,2.93-5.44.22-.38,1.03-1.74,1.28-2.16.82-1.45,2.06-3.89,2.93-5.44,4.27-7.55,9.7-17.13,12.24-21.64,2.09-3.81,3.77-6.85,5.67-10.31,7.84-13.93,16.13-28.65,21.94-38.97.8-1.42,2.09-3.93,2.93-5.44,1.04-1.81,2.89-5.05,4.02-7.03,2.12-3.86,3.72-6.76,5.67-10.31,8.29-14.68,15.5-27.46,23.21-41.13,3.08-5.9,5.59-10.07,8.6-15.75,3.54-5.86,5.66-9.98,8.22-14.61.56-.99,3.28-5.74,4.02-7.02,4.6-8.26,9.4-16.86,13.9-24.93,9.16-16.2,18.09-31.99,27.23-48.15,3.34-6.1,6.3-11.07,9.88-17.9,4.23-7.07,9.15-16.26,13.52-23.79,3.11-5.61,6.07-10.94,8.94-16.13,3.23-5.76,6.36-11.35,9.47-16.9,1.57-2.78,3.13-5.55,4.7-8.32.78-1.38,1.57-2.77,2.35-4.15l1.18-2.08.59-1.04.29-.52.15-.26-.21.18c-4.43,3.74-8.91,7.52-13.48,11.39-16.77,14.37-30.94,26.49-47.71,40.86-2.18,1.87-5.31,4.56-7.57,6.51-2.47,2.13-3.25,2.85-5.27,4.65-2,1.78-3.14,2.81-5.67,4.94-1.05.88-1.6,1.34-2.79,2.34-1.06.91-2.16,1.86-3.22,2.76-2.47,2.12-5.01,4.31-7.47,6.42-2.8,2.44-5.02,4.37-7.65,6.65-5.35,4.58-10.89,9.33-16.12,13.81-6.73,5.75-13.05,11.15-19.65,16.79-3.87,3.32-7.9,6.78-11.78,10.12-2.22,1.91-4.68,4.02-6.85,5.88-2.36,2-4.58,3.88-7.06,5.99-7.91,6.78-15.56,13.33-23.56,20.19-2.72,2.34-5.77,4.96-8.5,7.3-1.86,1.63-2.42,2.12-4.11,3.59-2.03,1.75-3.34,2.89-5.28,4.55-.91.79-1.49,1.31-2.33,2.04-3.2,2.74-6.65,5.71-9.83,8.43-8.39,7.11-16.07,13.62-24.35,20.64-6.58,5.62-12.83,10.97-19.59,16.74-3.96,3.43-7.87,6.81-11.79,10.2-3.49,3-6.91,5.95-10.34,8.91-5.48,4.71-11.34,9.75-16.96,14.59-3.27,2.79-4.83,4.12-8.09,6.89-2.12,1.8-2.92,2.48-4.97,4.27-1.98,1.75-3.69,3.26-5.82,5.13-1.66,1.43-3.7,3.18-5.45,4.69-4.83,4.13-9.07,7.76-13.76,11.77-1.67,1.41-3.22,2.72-4.88,4.13-1.57,1.34-3.22,2.76-4.72,4.05-1.6,1.36-.56.48-2.6,2.22Z"/>
          <path class="st0" d="M260.97,238.91c-6.45,2.29-13.12,4.44-16.9,5.74-8.86,3.08-13.4,4.66-19.98,6.95-11.28,3.83-49.94,16.62-57.15,19.19-6.09,2.17-13.84,4.63-19.06,6.4-1.75.59-3.49,1.28-5.22,1.87-2.64.91-6.03,1.95-9.53,3.2-3.89,1.39-3.48,1.12-6.91,2.26-1.42.47-3.72,1.37-5.23,1.88-4.56,1.54-8.88,3-13.2,4.47-3.05,1.03-6.1,2.06-9.2,3.11-2.09.71-4.19,1.42-6.32,2.14-1.06.36-2.13.72-3.2,1.08-.24.02.02.16.08.25l.3.3.61.6,1.22,1.21c10.58,10.5,20.79,20.64,27.7,27.49.49.52,1.06,1.11,1.55,1.63,1.08,1.08,2.88,2.71,4.01,3.83,5.67,5.65,10.61,10.57,14.24,14.18.59.57,1.42,1.35,2.01,1.92,1.1,1.09,2,2.16,3.11,3.26,4.52,4.49,8.91,8.55,10.68,10.64l8.02,7.67c3.38,3.38,6.81,6.81,10.23,10.24l.34.37c.23.24.44.47.61.71.14.2.35.41.45.53.07.08.03.18.09.28.09.14.32.28.27.49.29-.18.16.22.27.32.05.05.3.08.45.18.01,0,0,.08,0,.09.02.03.15.01.18.04.01,0,0,.08,0,.09.06.09.88.19.99.19.08,0,.11-.06.18-.05.08.01.06-.07.09-.07.33-.03.51.09.63.03.27-.12.57-.1.72-.21.06-.05.13-.09.18-.14.33.13.39-.08.72.05.02-.22.24-.25.36-.37.05-.05.14-.08.18-.14.03-.04-.02-.13,0-.18.01-.02.16-.03.18-.05.19-.18.43-.36.54-.51.07-.09.11-.16.18-.23.05-.05.12-.08.18-.14.06-.06.07-.14.18-.14,0,.15.07.24.18.3-.02-.26.2-.23.18-.49.14.02.17,0,.18-.14,0-.13.22-.23.27-.3.08-.1.05-.17.09-.34.05-.19.4-.33.27-.65.12-.07.33-.02.45-.09.14-.37.19-.84.45-1.06-.22-.24-.02-.54-.09-.81-.02-.09-.33-.22-.18-.39-.12-.2-.48-.21-.54-.46-.04-.29.28-.15.18-.49-.37-.14-.55-.53-.81-.77-.14-.14-.29-.21-.45-.35-.13-.12-.23-.36-.45-.35-.07-.34-.47-.67-.63-.83-.03-.03.03-.15,0-.18-.05-.05-.23-.11-.27-.14-.06-.04-.11-.1-.17-.15l-.08-.09-.04-.04-.02-.02-.53-.53c-3.84-3.82-7.39-7.34-10.05-9.89-4.16-3.99-14.95-14.85-19.8-19.65-6.01-5.94-12.54-12.38-18.25-18.02-4.53-4.54-9.54-9.57-12.23-12.27-1.05-1.05-2.89-2.72-4.01-3.83-1.99-1.98-5.01-4.99-7.12-7.09-.34-.34-.66-.65-.97-.96l-.14-.14s-.13-.1-.02-.11c.12-.04.24-.08.36-.12,2.07-.7,3.94-1.33,5.69-1.93,7.63-2.56,19.55-6.57,23.82-8,4.88-1.67,8.23-3,12.6-4.41,7.45-2.38,16.26-5.56,23.35-7.72,20.93-7.31,40.56-13.85,60.22-20.41,10.48-3.56,21.8-7.63,31.19-10.54,4.6-1.54,10.47-3.5,15.11-5.05,8.35-2.84,16.26-5.52,24.56-8.35,3.21-1.09,6.74-2.28,10-3.39,1.99-.66,3.42-1.13,5.33-1.77,4.71-1.6,10.78-3.65,15.48-5.24,3.78-1.29,8.94-3.05,12.57-4.29,1.08-.38,1.89-.67,3.02-1.07,3.68-1.29,8.66-2.95,11.97-4.02,7.59-2.46,14.14-4.5,23.32-7.61,4.55-1.54,9.11-3.08,13.66-4.62,2.67-.91,5.13-1.75,7.57-2.58,1.06-.37,2.31-.81,3.44-1.21,7.2-2.48,14.36-4.95,21.83-7.53,3.5-1.19,7.31-2.48,10.74-3.64.81-.28,1.54-.54,2.26-.79,1.62-.55,2.99-1.02,4.66-1.59,5.08-1.71,10.01-3.37,15.04-5.07,4.96-1.63,9.47-3.11,14.32-4.71,1.15-.39,2.34-.79,3.51-1.18,1.29-.42,2.46-.8,3.7-1.2,2.71-.91,6.37-2.13,9.22-3.08,4.86-1.66,8.47-2.89,13.31-4.55,5.31-1.84,7.84-2.65,13.08-4.42,3.89-1.32,8.24-2.79,12.06-4.09,3.58-1.2,1.86-.58,3.59-1.11,3.19-.97,13.94-4.75,18.24-6.21,7.37-2.48,14.77-4.96,22.09-7.42,2.45-.82,4.87-1.63,7.27-2.44.13-.04.25-.1.46-.2.23-.11.49-.21.72-.29.35-.12.6-.19.67-.19.02,0,.03,0,.03,0-.1.05-.21.11-.3.16-.18.09-.35.17-.5.25-.07.03.58-.22.48-.16-.39.21-.81.43-1.21.64-.08.04-.18.08-.25.1l-.09.02c-.85.49-1.72.99-2.62,1.51-5.16,3-10.84,6.58-13.03,7.57-6.43,3.95-11.75,6.88-18.17,10.83-13.19,7.47-28.08,16.51-41.07,23.8-10.48,6.45-18.86,10.97-29.23,17.32-3.66,1.9-8.68,5.04-12.63,7.21-16.47,9.8-33.55,19.66-50.55,29.57-4.95,2.9-13.7,8.02-15.41,9.02-6.34,3.84-8.25,4.67-13.03,7.57-4.6,2.79-20.6,12.03-24.09,14.07-8.97,5.26-17.16,10.06-26.46,15.51-8.25,4.79-17.81,10.35-26.06,15.15-3.76,2.22-9.44,5.58-13.43,7.94-7.54,4.4-16.52,9.47-21.72,12.62-2.87,1.74-2.28,1.31-4.35,2.53-4.25,2.51-9.2,5.44-13.43,7.94-8.59,5-17.34,10.04-25.66,14.78-8.11,5.08-26.94,15.7-33.18,19.48-4.89,2.97-11.24,6.49-15.4,9.01-.74.44-1.23.74-1.61.96-.08.05-.16.09-.23.14h0s-.01,0-.01,0c-.02,0-.04,0-.06,0-.44.35-.82.45-1.29.68-.36.17-.69.37-1.04.56-.08.18-.02.33-.03.46-.02.15-.09.24-.08.35.01.08.15.15.18.23.11-.2.29.06.21.15-.26.48-.06.75.07,1.05-.06.28-.26.22-.37.37.15.33.46.58.24,1.09.13.13.29.24.26.45l-.2.41c.13.17.13.41.18.61.04.15.14.29.09.4-.05.12.15.15.17.23-.12.18-.14.32-.12.44.21.28.31.62.66.83.02.2.08.39.1.59.46.19.38.62.87.79.07.14-.16.41.05.48.21-.28.68.05,1.02.09.1-.15.28-.18.42-.26.14-.08.46-.34.54-.32.1.02.06-.03.13-.06.19-.09.35-.24.46-.34.08-.08.14-.1.21-.22.34.04.61-.27.88-.42.05-.03.15,0,.21-.04.09-.05.11-.17.21-.22.16-.1.35-.11.5-.24-3.52,2.05,9.84-5.8,17.89-10.5,4.12-2.39,8.45-4.91,13.03-7.57.57-.31,1.4-.76,1.98-1.08,1.32-.76,3.36-2.08,4.74-2.89,1.37-.8,2.56-1.35,3.95-2.16,1.48-.86,3.23-2.01,4.74-2.89,7.26-4.24,25.23-14.65,28.43-16.59,4.54-2.76,9.81-5.71,13.03-7.57,1.2-.69,3.47-2.14,4.74-2.89,1.78-1.04,6.63-3.85,8.69-5.05,6.14-3.57,10.79-6.27,17.38-10.1,2.88-1.68,5.79-3.37,8.69-5.05,3.2-1.84,7.55-4.34,10.66-6.13,2.28-1.33,4.85-2.99,7.11-4.33,2.64-1.56,5.57-3.11,8.29-4.68,1.14-.66,3.54-2.18,4.74-2.89.33-.18,1.61-.88,1.98-1.08,1.3-.75,3.37-2.08,4.74-2.89,6.74-3.89,15.33-8.85,19.35-11.18,3.33-1.99,6.05-3.6,9.08-5.41,12.41-7.21,25.54-14.84,34.75-20.2,1.27-.73,3.4-2.1,4.74-2.89,1.62-.92,4.55-2.6,6.32-3.61,3.38-2.01,5.98-3.56,9.08-5.41,13.1-7.59,24.53-14.21,36.73-21.28,5.07-3.19,8.92-5.26,13.83-8.3,5.42-2.91,8.94-5.15,13.03-7.57.88-.5,5.17-2.95,6.32-3.6,7.32-4.3,14.96-8.78,22.12-12.99,14.46-8.36,28.57-16.52,43.04-24.88,5.36-3.21,9.93-5.7,15.8-9.38.89-.49,1.71-.95,2.5-1.38,1.58-.91,3.1-1.78,4.62-2.66,3.3-1.92,6.6-3.85,9.96-5.8,6.74-3.94,13.45-7.88,19.95-11.6,10.38-6.16,20.31-11.99,30.35-17.82,5.04-2.92,10.06-5.82,15.17-8.77,4.78-2.48-.45-.41-2.28.12-2.34.77-4.71,1.54-7.11,2.32-25.62,8.64-47.28,15.94-72.89,24.57-3.2,1.08-7.8,2.64-11.13,3.77-2.77.95-3.67,1.28-5.95,2.11-2.26.82-3.56,1.29-6.38,2.22-1.17.38-1.8.58-3.11,1-1.19.4-2.43.82-3.61,1.22-2.77.94-5.62,1.91-8.38,2.84-3.15,1.09-5.66,1.96-8.61,2.98-6.01,2.02-12.22,4.11-18.08,6.08-7.54,2.53-14.63,4.91-22.02,7.39-4.34,1.47-8.86,3-13.22,4.48-2.49.84-5.25,1.77-7.69,2.6-2.63.87-5.13,1.7-7.9,2.61-8.87,2.99-17.45,5.88-26.43,8.91-3.06,1.03-6.48,2.19-9.54,3.23-2.08.73-2.72.95-4.63,1.62-2.3.79-3.76,1.28-5.93,2.02-1.02.35-1.69.59-2.63.92-3.6,1.21-7.46,2.52-11.03,3.72-9.36,3.09-17.99,5.94-27.24,9-7.38,2.47-14.39,4.82-21.96,7.36-4.45,1.53-8.85,3.04-13.25,4.55-3.92,1.33-7.75,2.64-11.61,3.95-6.16,2.09-12.73,4.32-19.04,6.46-3.66,1.22-5.41,1.8-9.06,3.02-2.37.78-3.27,1.08-5.58,1.89-2.22.79-4.19,1.49-6.57,2.33-1.87.63-4.15,1.41-6.12,2.08-5.41,1.82-10.16,3.41-15.43,5.18-1.86.61-3.61,1.18-5.46,1.79-1.76.59-3.61,1.22-5.3,1.78-1.79.6-.63.21-2.92.98Z"/>
          <path class="st0" d="M563.52,433.69c-5.96,10.83-12.25,21.83-15.78,28.13-8.36,15.06-12.33,22.21-18.56,33.42-10.53,18.78-46.8,82.83-53.46,94.94-5.63,10.24-12.96,22.98-17.83,31.66-1.54,2.81-3.29,6-4.82,8.79-2.46,4.41-5.68,9.95-8.91,15.83-1.8,3.27-2.62,4.7-3.39,6.03-.19.33-.38.66-.59,1-.09.15-.23.4-.29.49-.07.11-.15.23-.22.35-.35.48-.82,1.12-1.69,1.91-.7.65-1.79,1.48-2.88,2.03-.53.28-1.07.47-1.36.53-.06.03-.36.05-.59.08-.25,0-.48.03-.72,0-1.41-.04-2.99-.46-4.42-1.12-.71-.33-1.41-.71-2.03-1.15-.31-.22-.62-.45-.89-.69-.15-.12-.28-.24-.41-.36-.13-.12-.25-.23-.46-.44-2.96-2.95-5.89-5.85-8.81-8.76-5.85-5.81-11.7-11.63-17.88-17.77-16.12-16.03-31.73-31.55-42.2-41.95-1.05-1.07-1.8-1.84-2.84-2.91-1.9-1.85-5.21-5.08-7.19-7-5.38-5.36-10.4-10.36-14.94-14.88-2.07-2.06-4.08-4.06-6.03-6l-.73-.73c-.13-.24-.22.05-.32.16l-.3.41c-.39.55-.79,1.1-1.17,1.64-.78,1.09-1.54,2.15-2.29,3.2-2.07,2.89-4,5.58-5.77,8.06-.92,1.32-1.96,2.8-2.88,4.11-1.51,2.05-3.31,4.48-4.83,6.55-6.71,9.36-12.82,18.28-15.87,22.14l-11.5,16.43c-5.01,6.97-10.11,14.07-15.22,21.17l-.31.39c-.2.26-.4.51-.6.71-.17.17-.35.41-.45.53-.07.08-.18.06-.26.13-.13.11-.22.36-.44.34.22.26-.19.2-.27.32-.04.06-.03.31-.1.47,0,.01-.08,0-.09.01-.03.03.01.15,0,.18,0,.01-.08,0-.09.01-.08.08-.04.89-.03,1.01,0,.08.08.1.08.17,0,.09.08.05.08.08.08.32,0,.51.07.63.16.25.19.55.33.68.06.05.1.11.17.16-.07.35.14.37.06.72.22-.02.29.2.42.3.05.04.1.13.17.16.04.02.13-.04.17-.03.02,0,.06.15.08.17.21.16.42.36.59.45.1.05.17.08.26.14.06.04.1.11.17.16.07.05.15.05.17.16-.15.02-.23.11-.27.22.26-.06.26.16.52.1,0,.14.02.17.17.16.13-.01.26.18.34.22.11.06.18.02.35.04.2.02.39.34.69.16.08.11.07.32.16.43.39.07.86.05,1.12.28.2-.26.53-.1.79-.22.08-.04.16-.36.35-.24.18-.15.13-.5.37-.6.28-.09.19.25.52.1.08-.39.43-.63.64-.92.11-.16.16-.32.28-.5.09-.15.32-.28.28-.5.33-.12.59-.57.72-.75.02-.03.15,0,.17-.03.04-.05.07-.24.1-.29.03-.07.08-.13.12-.19l.07-.09.04-.04.02-.02c.26-.37.53-.74.79-1.1,5.7-7.96,10.96-15.31,14.78-20.75,5.98-8.53,22.16-30.97,29.34-41.01,2.22-3.11,4.49-6.29,6.77-9.49.56-.79,1.12-1.58,1.68-2.37.07-.08.14-.25.22-.27l.27.26c4.95,4.91,9.84,9.75,14.41,14.28,8.27,8.27,17.26,17.26,22.14,22.14,1.85,1.8,5.23,5.09,7.18,6.99,3.6,3.58,9.05,9.01,12.86,12.81,11.79,11.71,21.15,21.01,29.33,29.14,1.29,1.29,2.67,2.66,4.12,4.09.72.72,1.45,1.45,2.2,2.19l.56.56.72.68c.51.46,1.04.91,1.59,1.31,2.19,1.63,4.65,2.85,7.31,3.61,1.33.38,2.71.64,4.15.74.72.05,1.45.05,2.19.02.39-.03.72-.05,1.15-.11.45-.07.91-.15,1.29-.25,1.59-.41,2.84-.99,4.02-1.63,1.16-.65,2.21-1.37,3.18-2.16,1.94-1.56,3.57-3.43,4.77-5.54,1.71-3.05,3.15-5.61,4.15-7.39,4.55-8.14,7.57-13.9,11.69-21.1,7.04-12.26,15.15-27.11,21.91-38.68,19.42-35.05,37.81-67.6,56.24-100.23,9.78-17.46,20.23-36.51,29.14-51.87,4.32-7.66,9.78-17.35,14.15-25.09,7.79-13.9,15.18-27.08,22.93-40.9,2.99-5.34,6.3-11.22,9.34-16.64,1.88-3.32,3.2-5.65,4.99-8.83,4.38-7.81,10.06-17.93,14.46-25.75,3.54-6.32,8.42-15.04,11.72-20.94,1.02-1.86,1.73-3.14,2.79-5.08,3.41-6.16,8.08-14.43,11.2-19.89,7.15-12.52,13.36-23.25,21.93-38.52,4.25-7.57,8.51-15.16,12.76-22.73,2.5-4.46,4.81-8.59,7.06-12.62.99-1.79,2.13-3.84,3.19-5.77,6.66-11.96,13.31-23.89,20.32-36.46,3.27-5.83,6.84-12.19,10.03-17.87.77-1.39,1.41-2.55,2.1-3.79,1.51-2.69,2.79-4.98,4.35-7.77,4.76-8.46,9.39-16.7,14.06-25,4.71-8.29,8.84-15.57,13.45-23.69,1.07-1.91,2.2-3.91,3.29-5.83,1.26-2.2,2.29-4,3.49-6.11.31-.55.64-1.13.98-1.73.17-.3.34-.6.52-.91l.26-.47c.07-.12.23-.43.34-.65.98-1.87,1.58-4.03,1.75-6.16.35-4.29-.82-8.3-2.62-11.45-.78-1.36-1.67-2.58-2.87-3.77-1.16-1.13-2.32-1.95-3.51-2.66-2.38-1.4-4.9-2.3-7.66-2.69-1.39-.17-2.83-.18-4.3,0-1.43.17-3.17.74-3.93,1.02-1.97.68-4,1.37-6.16,2.12-9.65,3.28-14.17,4.81-23.62,8.02-7.02,2.39-14.9,5.07-21.79,7.41-6.47,2.18-3.35,1.09-6.46,2.09-5.74,1.84-25.19,8.6-32.97,11.25-26.67,9.08-53.42,18.01-78.83,26.76-27.31,9.41-61.87,21.04-82.15,27.87-2.5.88-6.86,2.41-9.46,3.33-13.86,4.69-28.84,9.77-43.01,14.56-7.53,2.53-13.62,4.57-21.07,7.07-10.22,3.46-21.63,7.57-25.8,8.74-12.85,4.54-23.29,7.93-36.13,12.48-25.99,8.63-55.71,19.04-81.27,27.45-20.95,7.42-37.34,12.65-58.06,19.96-7.11,2.2-17.19,5.82-24.93,8.32-32.75,11.29-66.52,22.67-100.2,34.11-9.83,3.35-27.35,9.31-30.54,10.4-3.26,1.13-5.83,2.02-8.09,2.8-2.78,1-5.02,2.26-6.99,3.78-.99.75-1.9,1.6-2.76,2.55-.86.95-1.66,2.01-2.36,3.29-.35.64-.67,1.32-.94,2.09-.27.73-.51,1.66-.62,2.31-.27,1.43-.41,3-.32,4.7.08,1.63.42,3.76,1.29,6.08.87,2.31,2.31,4.76,4.31,6.94.25.27.51.54.77.81.21.21.42.41.63.62.42.42.86.85,1.29,1.28.87.86,1.77,1.75,2.68,2.65,1.82,1.8,3.69,3.66,5.55,5.5,7.43,7.38,14.66,14.55,17.25,17.12,13.37,13.21,25.56,25.25,39.43,38.96,6.13,6.08,12.73,12.63,19.33,19.18,3.3,3.28,6.6,6.55,9.84,9.77,1.62,1.61,3.23,3.2,4.81,4.78.5.49.99.98,1.48,1.46.19.62.38,1.24.56,1.85,2.34,7.61,5.81,18.88,8.29,26.95,4.6,15.09,9.88,32.97,13.18,43.45,1.82,5.79,1.37,4.55,2.64,8.69,2.64,8.58,5.66,18.4,8.29,26.94,5.15,17.11,10.4,34.56,15.42,51.26,5.32,16.45,16.39,53.93,20.34,66.49.78,2.52,1.58,5.12,2.41,7.8.34,1.17.95,3.16,1.78,4.78.83,1.67,1.86,3.23,3.1,4.64,2.46,2.81,5.72,5.04,9.53,5.96.48.11.96.19,1.44.27.45.04.9.09,1.34.13.44.01.87.02,1.3.03.42-.02.84-.04,1.26-.06,1.65-.13,3.18-.47,4.56-.91,1.87-.61,3.13-1.28,4.1-1.81.2-.12.38-.23.55-.34h0s.02,0,.02,0c.02,0,.05,0,.08-.02.6-.45,1.06-.68,1.66-1.06.43-.32.85-.65,1.26-1.02.09-.24,0-.37,0-.52,0-.17.09-.31.05-.42-.03-.08-.2-.1-.24-.18-.1.26-.35.06-.27-.07.24-.62-.05-.82-.24-1.08,0-.32.24-.34.33-.55-.25-.27-.63-.41-.53-1-.17-.07-.37-.12-.4-.33l.06-.49c-.18-.11-.26-.34-.39-.51-.09-.12-.24-.22-.24-.34,0-.13-.2-.08-.25-.15.04-.21,0-.34-.06-.44-.31-.17-.53-.43-.93-.51-.1-.17-.23-.31-.34-.47-.47-.04-.6-.41-1.07-.45-.12-.1-.07-.36-.27-.38-.03.26-.55.07-.81.09-.02.13-.14.17-.21.25-.07.08-.21.33-.29.31-.09-.01-.04.03-.08.06-.12.08-.19.22-.24.32-.04.08-.08.09-.09.2-.29-.04-.4.25-.59.37-.04.02-.12,0-.16.02-.06.04-.05.15-.12.19-.11.08-.25.08-.36.18l-.12.09-.03.02c.3-.18-.76.51-1.48.78-1.55.66-3.26,1-4.83.92-.82-.05-1.4-.17-2.12-.44-.69-.26-1.39-.64-2.05-1.12-1.33-.95-2.48-2.31-3.33-3.82-.41-.77-.76-1.58-1.03-2.41-.34-1.11-.68-2.22-1.02-3.33-.68-2.23-1.36-4.47-2.05-6.73-2.5-8.24-5.12-16.89-7.9-26.07-.38-1.32-.74-2.57-1.13-3.91-.8-2.52-2.19-6.92-3.02-9.56-.84-2.75-1.41-5.03-2.25-7.81-.89-2.82-2.11-6.68-3.02-9.56-4.42-14.52-15.29-50.25-17.32-56.92-2.88-9.16-5.96-19.62-7.91-26.07-.73-2.3-2.25-7.13-3.02-9.56-1.08-3.56-4.02-13.26-5.27-17.39-3.73-12.31-6.55-21.58-10.54-34.76-1.75-5.77-3.51-11.59-5.27-17.38-.49-1.62-1.01-3.36-1.56-5.18-.2-.65-.39-1.31-.59-1.97l-.19-.62-.09-.31-.23-.23-.92-.92c-.76-.76-1.53-1.53-2.3-2.3-2.76-2.75-5.5-5.48-7.83-7.8-3.29-3.19-7.52-7.29-10.8-10.47-3.95-3.89-8.1-8.19-12.14-12.2-1.64-1.59-5.46-5.29-7.2-6.98-.55-.57-2.23-2.28-2.85-2.91-1.87-1.81-5.22-5.06-7.2-6.98-10.04-9.99-22.64-22.52-28.63-28.48-5.11-5.01-8.99-8.81-13.65-13.38-2.31-2.29-4.64-4.59-6.97-6.9l-3.46-3.44c-.89-.9-1.64-1.9-2.21-2.97-1.15-2.14-1.56-4.51-1.2-6.81.06-.27.11-.61.17-.83.05-.19.11-.4.2-.6.17-.42.39-.86.7-1.29.58-.87,1.42-1.71,2.36-2.44.94-.73,2.01-1.35,3.14-1.85.29-.11.56-.25.85-.35.3-.11.54-.2.93-.33.72-.24,1.43-.49,2.15-.73,2.84-.96,5.62-1.9,8.31-2.81,5.38-1.81,10.41-3.51,14.95-5.04,2.4-.84,6.92-2.43,9.46-3.32,3.28-1.1,8.89-2.97,12.47-4.16,6.87-2.37,11.75-4.06,18.06-6.24,26.02-8.79,48.49-16.38,72.68-24.54,10.17-3.67,17.71-6.07,27.53-9.56,10.59-3.37,17.67-5.94,25.8-8.73,1.77-.59,10.14-3.38,12.47-4.16,14.55-4.97,29.66-10.12,43.88-14.98,28.76-9.7,56.68-19.11,85.15-28.71,10.67-3.7,19.62-6.58,31.39-10.81,12.74-4.09,28.71-9.72,42.14-14.15,22.97-7.98,44.12-15.09,64.07-21.63,24.77-8.38,45.59-15.44,70.36-23.82,4.42-1.5,10.77-3.66,15.35-5.22,4.88-1.7,6.55-2.28,10.78-3.76,4.1-1.45,6.45-2.28,11.54-3.98,2.16-.72,3.16-1.05,5.61-1.86,2.12-.72,4.38-1.49,6.53-2.22,5.01-1.7,10.17-3.46,15.15-5.15,5.75-1.98,10.19-3.51,15.57-5.36,10.82-3.67,22.05-7.47,32.65-11.07,6.82-2.31,13.41-4.54,19.98-6.76,3.28-1.11,6.56-2.22,9.85-3.33,1.65-.56,3.29-1.11,4.95-1.67l1.24-.42c.39-.13.92-.32,1.07-.34.44-.16.95-.19,1.47-.24,1.24-.03,2.68.26,4.06.88,1.38.6,2.66,1.51,3.35,2.39.85,1.03,1.54,2.47,1.92,3.9.18.72.28,1.44.33,2.14.01.69-.03,1.36-.16,1.98-.09.35-.17.7-.31,1.03-.06.17-.12.34-.21.49l-.12.24-.06.12-.11.2c-.6,1.08-1.22,2.17-1.83,3.26-1.22,2.17-2.44,4.33-3.57,6.35-2.49,4.39-4.78,8.45-7.41,13.09-8.28,14.72-16.31,29-24.7,43.93-2.85,5.08-6.06,10.79-8.91,15.87-1.98,3.57-2.55,4.59-4.3,7.75-2.08,3.72-3.5,6.26-5.53,9.88-.96,1.74-1.55,2.8-2.44,4.4-3.33,5.93-6.97,12.41-10.31,18.34-8.88,15.67-16.84,29.71-25.56,45.11-6.87,12.19-13.45,23.86-20.55,36.46-4.16,7.45-8.24,14.75-12.34,22.11-3.65,6.51-7.25,12.95-10.83,19.34-5.72,10.21-11.88,21.18-17.77,31.69-3.45,6.11-5.09,9.01-8.49,15.02-2.23,3.93-3.07,5.41-5.21,9.28-2.11,3.84-3.78,6.87-6.08,11.04-1.73,3.08-3.87,6.91-5.71,10.19-5.08,9.01-9.53,16.93-14.43,25.63-1.77,3.12-3.37,5.93-5.13,9.03-1.63,2.9-3.39,6.02-4.95,8.8-1.68,2.97-.58,1.02-2.73,4.84Z"/>
        </g>
      </g>
      <g>
        <circle class="st1" cx="72.09" cy="750.08" r="13.84"/>
        <path class="st0" d="M70.16,741.3c.25-.17.56-.09.71-.13.38-.12.56-.22.86-.25.25-.05.8.07,1.32.14.51.14.99.23,1.15.24.28-.02.57.17.77.27.07.03.17-.03.25-.02.11.02.21.17.38.16.18,0,.11.12.24.2.05.03.19-.02.25,0,.37.14.65.38,1,.57.42.3.85.57,1.06.85.02.03,0,.08.03.11.04.05.19.03.24.08.25.22.38.49.54.63.03.03.09.02.12.05.04.05,0,.17.02.22.14.22.46.29.34.51.15.08.29.17.42.27.06.13.11.24.16.34.06.12.13.23.13.26.03.11.07.21.11.31.07.2.18.39.19.58.01.16.08.34.09.44.01.07-.07.13-.07.2,0,.11.11.25-.06.37.33-.04,0,.18.03.26.01.04.19.13.26.22,0,0-.05.04-.05.05,0,.02.11.05.13.07,0,0-.06.04-.06.05-.01.06.54.4.63.45.06.03.13,0,.17.04.06.04.09-.01.11,0,.27.12.35.26.46.28.28.05.48.21.67.22.08,0,.15.01.23,0,.16.25.33.16.49.42.16-.12.35-.01.52-.02.07,0,.16.03.23.02.05,0,.07-.1.12-.11.02,0,.14.08.17.08.27,0,.56.03.75,0,.11-.02.19-.04.29-.04.07,0,.15.03.23.02.08,0,.15-.05.23.02-.11.11-.11.22-.07.34.16-.2.31-.02.47-.23.09.12.12.13.23.03.09-.09.32-.01.4-.03.13-.02.15-.09.29-.19.17-.12.52.05.64-.32.13.04.26.24.39.28.35-.2.7-.58,1.05-.56,0-.4.34-.52.46-.84.03-.1-.15-.49.07-.53.02-.3-.28-.6-.19-.9.12-.33.31.07.42-.37-.26-.44-.26-.98-.38-1.44-.07-.26-.18-.44-.29-.7-.09-.21-.1-.55-.32-.68.07-.43-.26-1.05-.4-1.31-.02-.05.07-.15.04-.2-.04-.08-.21-.25-.25-.31-.12-.18-.16-.34-.28-.58-.22-.39-.44-.75-.65-.98-.3-.38-1-1.44-1.35-1.89-.48-.51-1-1.08-1.5-1.52-.4-.36-.77-.82-1.01-1.04-.09-.08-.33-.12-.43-.2-.14-.11-.51-.4-.66-.52-.62-.45-1.16-.73-1.61-1.02-.58-.33-1.51-.84-1.86-.98-.41-.14-.76-.07-1.1-.26-.56-.38-1.38-.35-1.92-.73-1.86-.17-3.54-.44-5.28-.39-.46.02-.94.13-1.39.23-.46.1-.91.14-1.34.12-.4.1-.91.17-1.31.28-.71.2-1.37.48-2.04.76-.31.15-.52.25-.8.38-.16.07-.28.11-.44.18-.39.15-.83.47-1.19.68-.29.18-.7.41-.92.63-.05.05-.13.14-.19.2-.24.23-.6.47-.87.61-.57.35-1.12.62-1.71,1.19-.28.3-.55.6-.83.9-.16.18-.31.34-.42.53-.04.06-.12.2-.16.27-.34.55-.68,1.08-1,1.68-.16.27-.35.55-.49.82-.04.07-.05.13-.07.19-.1.22-.12.26-.18.38-.2.41-.38.81-.59,1.2-.19.41-.39.74-.57,1.15-.06.15-.04.11-.12.29-.05.11-.11.19-.15.3-.08.22-.18.54-.25.79-.1.43-.2.74-.23,1.18-.04.48-.12.69-.19,1.16-.06.34-.06.74-.09,1.08-.03.32-.05.16-.12.31-.13.28-.02,1.26.03,1.64.03.66.03,1.33.12,1.98.07.66.17,1.31.39,1.91.4,1.31.96,2.94,1.37,3.87.05.12.24.26.3.38.33.61.68,1.27,1.07,1.86.22.31.34.59.56.9.29.43.85.7.8,1.02.55.37.79.86,1.39,1.17.4.52.95.96,1.52,1.35.55.42,1.14.77,1.63,1.21.52.16.92.38,1.34.59.42.21.82.46,1.36.51.25.32.8.32,1.12.57,1.61.33,3.25.79,4.93.85.25.01.59.03.89.04.3-.01.56-.03.63-.05.62-.15.82.09,1.29-.04.44-.16,2.03-.27,2.36-.4.43-.11.84-.23,1.26-.35.46-.17.86-.32,1.24-.46.78-.26,1.64-.65,2.38-1.02.33-.19.76-.55,1.1-.76.63-.39,1.42-.83,1.77-1.22.18-.23.18-.14.33-.28.31-.29.62-.67.93-.96.58-.61,1.25-1.18,1.81-1.79.29-.8,1.55-2.2,1.72-2.83.13-.48.55-.98.65-1.39.06-.3.08-.16.11-.27.18-.75.5-1.19.71-1.87.16-.52.31-1.04.43-1.57-.07-.24-.23-.3-.32-.42-.1-.14-.12-.3-.21-.37-.07-.05-.22.04-.29,0,.08.27-.24.25-.26.1-.19-.64-.53-.63-.84-.72-.18-.26,0-.41-.05-.63-.36-.07-.74.04-1.04-.49-.18.04-.36.12-.52-.03l-.23-.43c-.21.01-.41-.12-.61-.18-.15-.04-.32-.04-.39-.13-.07-.11-.21.05-.29.03-.09-.2-.19-.28-.3-.32-.35.04-.68-.04-1.06.13-.18-.08-.37-.12-.55-.19-.4.25-.73.01-1.14.27-.15-.01-.26-.27-.43-.16.13.24-.41.4-.62.57.07.12.01.23,0,.34-.02.11,0,.4-.07.43-.08.04-.01.04-.03.09-.04.14,0,.29.01.4,0,.08-.02.12.03.22-.25.14-.19.43-.25.64-.01.04-.09.07-.11.11-.03.06.04.15.01.22-.05.13-.17.21-.18.35,0,.09-.22.63-.41,1.01-.08.19-.24.36-.36.55-.02.03-.08.02-.1.05-.04.05,0,.2-.04.26-.03.06-.17.04-.22.09-.05.06-.02.19-.06.25-.2.32-.88.93-.94,1.09-.11.22-.38.32-.51.42-.05.04-.07.19-.11.24-.06.07-.29.18-.37.25-.26.18-.45.32-.75.46l-.39.21c-.14.09-.37.1-.51.17-.1.05-.16.23-.26.3-.11.08-.3,0-.44.03-.06.01-.14.15-.19.18-.02,0-.09-.03-.11-.03-.06.02-.13.16-.19.18-.33.12-.78.08-.97.15-.16.06-.28.14-.44.17-.62.12-1.3.09-1.76.05-.06-.01-.18.09-.25.09-.09,0-.22-.09-.32-.09-.18,0-.31.09-.47.05-.67-.09-1.2-.34-1.77-.54-.3.09-.43-.12-.73-.06-.17-.29-.38-.25-.59-.31-.04-.01-.2-.18-.25-.2-.32-.18-.69-.33-.99-.54-.58-.46-1.08-.98-1.47-1.6-.23-.16-.28-.41-.61-.52,0-.39-.42-.6-.46-.97-.22-.2-.39-.43-.47-.69-.08-.26-.16-.51-.11-.79-.23-.57-.26-1.08-.39-1.66-.01-.11-.02-.26-.05-.37-.03-.12-.06-.15-.13-.25-.06-.09-.12-.15-.09-.28,0-.06.03-.08.04-.14,0-.05,0-.11,0-.16,0-.12,0-.25-.02-.37-.02-.14-.06-.25-.06-.39,0-.27.05-.55.08-.81.07-.33.14-.64.22-.95.06-.18.1-.38.15-.56.03-.11.04-.23.09-.32.05-.11.13-.19.18-.3.14-.36.32-.69.49-1.04.05-.12.14-.25.2-.36.04-.08.04-.11.07-.2.03-.1.08-.15.12-.23.02-.04.02-.08.04-.12.06-.15.2-.27.3-.39.26-.33.62-.51.92-.77.24-.2.51-.36.73-.6.08-.08.3-.28.42-.39.13-.11.26-.22.4-.31.22-.15.46-.31.7-.43.14-.07.22-.08.37-.13.1-.03.14-.04.22-.11.08-.07.12-.16.22-.21.07-.04.17-.06.25-.09.22-.07.41-.17.64-.18.05,0,.19,0,.24,0,.07,0,.15-.04.22-.05.08,0,.03,0,.12-.02Z"/>
      </g>
      <g>
        <circle class="st1" cx="150.37" cy="671.81" r="13.82"/>
        <path class="st0" d="M148.44,663.05c.25-.17.56-.09.71-.13.38-.12.56-.22.85-.25.25-.05.8.07,1.31.14.5.14.98.23,1.14.24.28-.02.57.17.77.27.07.03.17-.03.25-.02.11.02.21.17.38.16.18,0,.11.12.24.2.05.03.19-.02.25,0,.37.14.65.37.99.57.42.3.85.57,1.06.85.02.03,0,.08.03.11.04.05.19.03.24.08.25.22.38.49.54.63.03.03.09.02.12.05.04.05,0,.16.02.22.14.22.46.29.34.51.15.08.29.17.42.27.06.13.11.24.16.34.06.12.13.23.13.26.03.11.07.21.11.31.07.2.18.39.19.58.01.16.08.34.09.44.01.07-.07.13-.07.2,0,.11.11.25-.06.37.33-.04,0,.18.03.26.01.04.19.13.26.22,0,0-.05.04-.05.05,0,.02.11.05.13.07,0,0-.06.04-.06.05-.01.06.54.39.63.45.06.03.13,0,.17.04.06.04.09-.01.11,0,.27.12.35.26.46.28.28.05.48.21.67.22.08,0,.15.01.23,0,.16.25.33.16.49.42.16-.12.35-.01.52-.02.07,0,.16.03.23.02.05,0,.07-.1.12-.11.02,0,.14.08.17.08.27,0,.56.03.75,0,.11-.02.19-.04.29-.04.07,0,.15.03.23.02.08,0,.15-.05.23.02-.11.11-.11.22-.07.34.16-.2.31-.02.47-.23.09.12.12.13.23.03.09-.09.32-.01.4-.03.13-.02.15-.09.29-.19.17-.12.52.05.64-.32.13.04.26.24.39.28.35-.2.7-.58,1.05-.56,0-.4.34-.52.46-.84.03-.1-.15-.49.07-.53.02-.3-.28-.6-.19-.9.12-.33.31.07.42-.37-.27-.44-.26-.98-.38-1.44-.07-.26-.18-.44-.29-.7-.09-.21-.1-.55-.32-.68.07-.43-.26-1.05-.4-1.31-.02-.05.07-.15.04-.2-.04-.08-.21-.25-.25-.31-.12-.18-.16-.34-.29-.58-.22-.39-.44-.75-.65-.98-.3-.38-1-1.44-1.35-1.89-.48-.51-1-1.08-1.5-1.51-.4-.36-.77-.82-1.01-1.03-.09-.08-.33-.12-.43-.2-.14-.11-.51-.4-.66-.52-.62-.45-1.16-.73-1.61-1.01-.58-.33-1.51-.84-1.86-.97-.41-.14-.76-.07-1.09-.25-.56-.38-1.38-.35-1.92-.73-1.86-.16-3.54-.44-5.27-.39-.46.02-.93.13-1.39.23-.46.1-.91.14-1.33.12-.4.1-.91.17-1.31.28-.71.21-1.36.48-2.04.76-.31.15-.52.25-.8.38-.16.07-.28.11-.44.18-.39.15-.83.47-1.19.68-.29.18-.7.41-.91.63-.05.05-.13.14-.19.2-.24.23-.6.47-.86.61-.57.35-1.12.61-1.7,1.19-.28.3-.55.6-.82.9-.16.18-.31.34-.42.53-.04.06-.12.2-.16.27-.34.55-.68,1.08-1,1.67-.16.27-.35.55-.49.82-.04.07-.05.13-.07.19-.1.22-.12.26-.18.37-.2.41-.38.81-.59,1.2-.19.4-.39.74-.57,1.15-.06.15-.04.11-.12.29-.05.11-.11.19-.15.3-.08.22-.18.54-.25.79-.1.43-.2.74-.23,1.17-.04.48-.12.69-.19,1.16-.06.34-.06.74-.09,1.07-.03.32-.05.16-.12.31-.13.28-.02,1.25.03,1.64.03.66.03,1.32.12,1.98.07.66.17,1.3.39,1.9.4,1.31.96,2.93,1.37,3.86.05.12.24.26.3.38.33.6.68,1.27,1.06,1.86.22.31.34.59.56.9.29.43.84.7.8,1.02.55.37.79.86,1.39,1.16.4.52.94.96,1.52,1.35.55.42,1.14.77,1.62,1.21.52.16.92.38,1.34.59.42.2.82.46,1.35.51.25.32.79.32,1.12.57,1.61.33,3.24.79,4.92.85.25.01.59.03.89.04.3-.01.56-.03.63-.05.62-.15.82.09,1.28-.03.44-.16,2.02-.26,2.36-.39.43-.11.84-.23,1.25-.35.46-.17.86-.32,1.24-.46.78-.26,1.64-.65,2.37-1.02.33-.19.76-.55,1.1-.76.63-.39,1.41-.83,1.77-1.21.18-.23.18-.14.33-.28.31-.29.62-.67.93-.96.58-.61,1.25-1.17,1.81-1.79.29-.8,1.54-2.19,1.72-2.82.13-.48.55-.98.65-1.39.06-.3.08-.16.11-.27.18-.75.5-1.19.71-1.87.16-.52.31-1.04.43-1.57-.07-.24-.23-.3-.32-.42-.1-.14-.12-.3-.21-.37-.07-.05-.22.04-.29,0,.08.27-.24.25-.26.1-.19-.64-.53-.63-.84-.72-.18-.26,0-.41-.05-.63-.36-.07-.74.04-1.04-.49-.18.04-.36.12-.52-.03l-.23-.43c-.21.01-.41-.12-.61-.18-.15-.04-.32-.04-.39-.13-.07-.11-.21.05-.29.03-.09-.2-.19-.28-.3-.32-.35.04-.68-.04-1.06.13-.18-.08-.37-.12-.55-.19-.4.25-.73.01-1.14.27-.15-.01-.26-.27-.43-.16.13.24-.41.4-.62.57.07.12.01.23,0,.34-.02.11,0,.4-.07.43-.08.04-.01.04-.03.09-.04.14,0,.29.01.4,0,.08-.02.12.03.22-.25.14-.19.43-.25.64,0,.04-.09.07-.11.11-.03.06.04.15.01.22-.05.13-.17.2-.18.35,0,.09-.22.62-.41,1.01-.08.19-.24.35-.36.55-.02.03-.08.02-.1.05-.04.05,0,.2-.04.26-.03.06-.17.04-.22.09-.05.06-.02.19-.06.25-.2.32-.88.92-.94,1.09-.11.22-.38.32-.51.42-.05.04-.07.19-.11.24-.06.07-.29.18-.37.25-.26.18-.45.32-.75.46l-.39.21c-.14.09-.37.1-.51.17-.1.05-.16.23-.26.3-.11.08-.3,0-.43.03-.06.01-.14.15-.19.18-.02,0-.09-.03-.11-.03-.06.02-.13.16-.19.18-.32.12-.78.08-.97.15-.16.06-.28.14-.44.17-.62.12-1.3.09-1.75.05-.06-.01-.18.09-.25.09-.09,0-.22-.09-.31-.09-.18,0-.31.09-.47.05-.67-.09-1.2-.34-1.77-.54-.3.09-.43-.12-.72-.06-.17-.29-.38-.25-.59-.31-.04-.01-.2-.18-.25-.2-.32-.18-.69-.33-.98-.53-.58-.46-1.08-.98-1.46-1.59-.23-.16-.28-.4-.61-.52,0-.39-.42-.59-.46-.97-.22-.2-.39-.43-.47-.69-.08-.26-.16-.5-.11-.78-.23-.56-.26-1.08-.39-1.66-.01-.11-.02-.26-.05-.37-.03-.12-.06-.15-.13-.25-.06-.09-.12-.15-.09-.28,0-.06.03-.08.04-.14,0-.05,0-.11,0-.16,0-.12,0-.25-.02-.37-.02-.14-.06-.25-.06-.38,0-.27.05-.54.08-.8.07-.33.14-.63.22-.95.06-.18.1-.38.15-.56.03-.11.04-.23.09-.32.05-.11.13-.19.18-.3.14-.36.32-.69.49-1.04.05-.12.14-.25.2-.36.04-.08.04-.11.07-.2.03-.1.08-.15.12-.23.02-.04.02-.07.04-.12.06-.15.2-.27.3-.39.26-.33.61-.51.92-.77.24-.2.51-.36.73-.6.08-.08.3-.28.42-.39.13-.11.26-.22.39-.31.21-.15.46-.31.7-.43.14-.07.22-.08.37-.12.1-.03.14-.04.21-.11.08-.07.12-.16.22-.21.07-.04.17-.06.25-.09.22-.07.41-.17.64-.18.05,0,.19,0,.24,0,.07,0,.15-.04.22-.05.08,0,.03,0,.12-.02Z"/>
      </g>
      <g>
        <circle class="st1" cx="189.47" cy="632.71" r="13.79"/>
        <path class="st0" d="M187.54,623.98c.25-.17.56-.09.71-.13.38-.12.55-.22.85-.25.25-.05.8.07,1.31.14.5.15.98.23,1.14.23.28-.02.57.17.77.27.07.03.17-.03.24-.02.11.02.21.17.38.16.18,0,.11.12.24.2.05.03.19-.02.25,0,.37.14.65.37.99.56.42.29.85.57,1.05.84.02.03,0,.08.03.11.04.05.19.03.24.08.25.22.38.49.53.63.03.03.09.02.12.05.04.05,0,.16.02.22.14.21.46.29.34.51.15.07.29.17.42.26.06.13.11.24.16.34.06.12.13.23.13.26.03.11.07.21.11.31.07.2.18.39.19.58.01.16.08.34.09.44.01.07-.07.13-.07.2,0,.11.11.25-.06.37.33-.04,0,.18.03.26.01.04.19.13.26.22,0,0-.05.04-.05.05,0,.02.11.05.13.07,0,0-.06.04-.06.05-.01.06.54.39.63.45.06.03.13,0,.17.04.06.04.09-.01.11,0,.27.12.35.26.46.28.28.05.48.21.67.22.08,0,.15.01.23,0,.16.25.33.16.49.42.16-.12.35-.01.52-.02.07,0,.16.03.23.02.05,0,.07-.1.12-.11.02,0,.14.08.17.08.27,0,.56.03.75,0,.11-.02.19-.04.29-.04.07,0,.15.03.23.02.08,0,.15-.05.23.02-.11.11-.11.22-.07.34.16-.2.31-.02.47-.23.09.12.12.13.23.03.09-.09.32-.01.4-.03.13-.02.15-.09.29-.19.17-.12.52.05.64-.32.13.04.26.24.39.28.35-.2.7-.58,1.05-.56,0-.4.35-.52.46-.84.03-.1-.15-.49.07-.53.02-.3-.28-.6-.19-.9.12-.33.31.07.42-.38-.27-.44-.26-.98-.38-1.44-.07-.26-.18-.44-.29-.7-.09-.21-.1-.55-.32-.68.07-.43-.26-1.05-.4-1.31-.02-.05.07-.15.04-.2-.04-.08-.21-.25-.25-.31-.12-.18-.16-.34-.29-.58-.22-.39-.44-.75-.65-.98-.3-.37-1-1.43-1.35-1.88-.48-.51-.99-1.08-1.5-1.51-.4-.36-.77-.82-1.01-1.03-.09-.08-.33-.12-.43-.2-.14-.11-.51-.4-.65-.52-.62-.44-1.16-.73-1.61-1.01-.58-.33-1.5-.83-1.85-.97-.41-.14-.76-.07-1.09-.25-.56-.38-1.38-.35-1.92-.73-1.85-.16-3.53-.43-5.26-.38-.46.02-.93.13-1.39.23-.46.1-.91.14-1.33.12-.39.1-.91.17-1.31.28-.71.21-1.36.48-2.04.76-.31.15-.52.25-.8.38-.16.07-.28.11-.44.18-.39.15-.83.47-1.19.68-.29.18-.69.41-.91.63-.05.05-.13.14-.19.2-.24.23-.6.47-.86.61-.57.35-1.12.61-1.7,1.19-.28.3-.55.6-.82.9-.16.18-.31.34-.42.53-.04.06-.12.2-.16.27-.34.55-.68,1.08-1,1.67-.16.27-.35.55-.49.82-.04.07-.05.13-.07.19-.1.22-.12.26-.18.37-.2.41-.38.8-.59,1.19-.19.4-.39.74-.56,1.15-.06.15-.04.11-.12.29-.05.11-.11.19-.15.3-.08.22-.18.54-.25.79-.1.43-.2.74-.23,1.17-.04.48-.12.69-.19,1.16-.06.34-.06.73-.09,1.07-.03.32-.05.16-.12.31-.13.28-.02,1.25.03,1.63.03.66.03,1.32.12,1.98.07.65.17,1.3.39,1.9.4,1.3.96,2.93,1.37,3.86.05.12.24.26.3.38.33.6.68,1.26,1.06,1.86.22.31.34.59.56.89.29.43.84.7.8,1.01.55.37.79.86,1.39,1.16.4.52.94.96,1.52,1.34.55.42,1.14.77,1.62,1.21.52.16.92.38,1.34.59.42.2.81.46,1.35.51.25.32.79.32,1.12.57,1.61.33,3.24.79,4.92.85.25.01.59.03.88.04.3,0,.56-.03.63-.05.62-.15.81.09,1.28-.03.44-.16,2.02-.26,2.35-.39.43-.11.84-.23,1.25-.35.46-.17.86-.32,1.24-.46.78-.25,1.63-.65,2.37-1.01.33-.19.76-.55,1.1-.76.63-.39,1.41-.82,1.77-1.21.18-.23.18-.14.33-.27.31-.29.62-.67.93-.95.58-.61,1.25-1.17,1.8-1.78.29-.8,1.54-2.19,1.71-2.82.13-.48.54-.97.65-1.39.06-.3.08-.16.12-.27.18-.75.5-1.19.71-1.87.16-.52.31-1.04.43-1.57-.07-.24-.23-.3-.32-.42-.1-.14-.12-.3-.21-.37-.07-.05-.22.04-.29,0,.08.27-.24.25-.26.1-.19-.64-.53-.63-.84-.72-.18-.26,0-.41-.05-.63-.36-.07-.74.04-1.04-.49-.18.04-.36.12-.52-.03l-.23-.43c-.21.01-.41-.12-.61-.18-.15-.04-.32-.04-.39-.13-.07-.11-.21.05-.29.03-.09-.2-.19-.28-.3-.32-.35.04-.68-.04-1.06.13-.18-.08-.37-.12-.55-.19-.4.25-.73.01-1.14.27-.15-.01-.26-.27-.43-.16.13.24-.41.4-.62.57.07.12.01.23,0,.34-.02.11,0,.4-.07.43-.08.04-.01.04-.03.09-.04.14,0,.29,0,.4,0,.08-.02.12.03.22-.25.14-.19.43-.25.63,0,.04-.09.07-.11.11-.03.06.04.15.01.22-.05.13-.17.2-.18.34,0,.09-.22.62-.41,1.01-.08.19-.24.35-.36.55-.02.03-.08.02-.1.05-.04.05,0,.2-.04.26-.03.06-.17.03-.22.09-.05.06-.02.19-.06.25-.2.32-.88.92-.94,1.09-.11.22-.38.32-.51.42-.05.04-.07.19-.11.24-.06.07-.28.18-.37.25-.25.18-.44.32-.75.46l-.38.21c-.14.09-.37.09-.51.17-.1.05-.16.23-.26.3-.11.08-.3,0-.43.03-.06.01-.13.15-.19.18-.02,0-.09-.03-.11-.03-.06.02-.13.16-.19.18-.32.12-.77.08-.96.15-.16.06-.28.14-.43.17-.62.12-1.29.09-1.75.04-.06-.01-.18.09-.24.09-.09,0-.22-.09-.31-.09-.18,0-.31.09-.47.05-.66-.09-1.19-.34-1.76-.54-.3.09-.43-.12-.72-.06-.17-.29-.38-.25-.58-.31-.04-.01-.2-.18-.25-.2-.32-.18-.68-.33-.98-.53-.58-.46-1.08-.98-1.46-1.59-.23-.15-.27-.4-.61-.52,0-.39-.41-.59-.45-.97-.22-.2-.39-.43-.47-.68-.08-.26-.16-.5-.11-.78-.22-.56-.26-1.08-.39-1.65-.01-.11-.02-.26-.05-.37-.03-.12-.06-.15-.13-.25-.06-.09-.12-.15-.09-.27,0-.05.03-.08.04-.14,0-.05,0-.11,0-.16,0-.12,0-.25-.02-.37-.02-.14-.06-.25-.06-.38,0-.27.05-.54.08-.8.07-.33.14-.63.22-.95.06-.18.1-.37.14-.56.03-.11.04-.23.09-.32.05-.1.13-.19.18-.3.14-.36.32-.68.49-1.04.05-.12.14-.25.2-.36.04-.08.04-.11.07-.2.03-.1.08-.14.12-.23.02-.04.02-.07.04-.11.06-.15.19-.26.29-.38.26-.33.61-.51.92-.77.24-.2.51-.35.73-.59.08-.08.3-.28.42-.39.13-.11.25-.22.39-.31.21-.15.46-.3.69-.43.14-.07.22-.08.37-.12.1-.03.14-.04.21-.1.08-.07.12-.16.22-.21.07-.04.17-.06.25-.09.22-.07.41-.17.64-.18.05,0,.19,0,.24,0,.07,0,.15-.04.22-.05.08,0,.03,0,.12-.02Z"/>
      </g>
      <g>
        <circle class="st1" cx="111.24" cy="710.94" r="13.8"/>
        <path class="st0" d="M109.3,702.2c.25-.17.56-.09.71-.13.38-.12.55-.22.85-.25.25-.05.8.07,1.31.14.5.14.98.23,1.14.23.28-.02.57.17.77.27.07.03.17-.03.24-.02.11.02.21.17.38.16.18,0,.11.12.24.2.05.03.19-.02.25,0,.37.14.65.37.99.56.42.29.85.57,1.05.84.02.03,0,.08.03.11.04.05.19.03.24.08.25.22.38.49.53.63.03.03.09.02.12.05.04.05,0,.16.02.22.14.21.46.29.34.51.15.07.29.17.42.26.06.13.11.24.16.34.06.12.13.23.13.26.03.11.07.21.11.31.07.2.18.39.19.58.01.16.08.34.09.44.01.07-.07.13-.07.2,0,.11.11.25-.06.37.33-.04,0,.18.03.26.01.04.19.13.26.22,0,0-.05.04-.05.05,0,.02.11.05.13.07,0,0-.06.04-.06.05-.01.06.54.39.63.45.06.03.13,0,.17.04.06.04.09-.01.11,0,.27.12.35.26.46.28.28.05.48.21.67.22.08,0,.15.01.23,0,.16.25.33.16.49.42.16-.12.35-.01.52-.02.07,0,.16.03.23.02.05,0,.07-.1.12-.11.02,0,.14.08.17.08.27,0,.56.03.75,0,.11-.02.19-.04.29-.04.07,0,.15.03.23.02.08,0,.15-.05.23.02-.11.11-.11.22-.07.34.16-.2.31-.02.47-.23.09.12.12.13.23.03.09-.09.32-.01.4-.03.13-.02.15-.09.29-.19.17-.12.52.05.64-.32.13.04.26.24.39.28.35-.2.7-.58,1.05-.56,0-.4.35-.52.46-.84.03-.1-.15-.49.07-.53.02-.3-.28-.6-.19-.9.12-.33.31.07.42-.38-.27-.44-.26-.98-.38-1.44-.07-.26-.18-.44-.29-.7-.09-.21-.1-.55-.32-.68.07-.43-.26-1.05-.4-1.31-.02-.05.07-.15.04-.2-.04-.08-.21-.25-.25-.31-.12-.18-.16-.34-.29-.58-.22-.39-.44-.75-.65-.98-.3-.38-1-1.43-1.35-1.88-.48-.51-.99-1.08-1.5-1.51-.4-.36-.77-.82-1.01-1.03-.09-.08-.33-.12-.43-.2-.14-.11-.51-.4-.65-.52-.62-.44-1.16-.73-1.61-1.01-.58-.33-1.51-.83-1.85-.97-.41-.14-.76-.07-1.09-.25-.56-.38-1.38-.35-1.92-.73-1.85-.16-3.53-.43-5.27-.38-.46.02-.93.13-1.39.23-.46.1-.91.14-1.33.12-.39.1-.91.17-1.31.28-.71.21-1.36.48-2.04.76-.31.15-.52.25-.8.38-.16.07-.28.11-.44.18-.39.15-.83.47-1.19.68-.29.18-.69.41-.91.63-.05.05-.13.14-.19.2-.24.23-.6.47-.86.61-.57.35-1.12.61-1.7,1.19-.28.3-.55.6-.82.9-.16.18-.31.34-.42.53-.04.06-.12.2-.16.27-.34.55-.68,1.08-1,1.67-.16.27-.35.55-.49.82-.04.07-.05.13-.07.19-.1.22-.12.26-.18.37-.2.41-.38.8-.59,1.19-.19.4-.39.74-.57,1.15-.06.15-.04.11-.12.29-.05.11-.11.19-.15.3-.08.22-.18.54-.25.79-.1.43-.2.74-.23,1.17-.04.48-.12.69-.19,1.16-.06.34-.06.73-.09,1.07-.03.32-.05.16-.12.31-.13.28-.02,1.25.03,1.63.03.66.03,1.32.12,1.98.07.66.17,1.3.39,1.9.4,1.3.96,2.93,1.37,3.86.05.12.24.26.3.38.33.6.68,1.26,1.06,1.86.22.31.34.59.56.89.29.43.84.7.8,1.01.55.37.79.86,1.39,1.16.4.52.94.96,1.52,1.34.55.42,1.14.77,1.62,1.21.52.16.92.38,1.34.59.42.2.81.46,1.35.51.25.32.79.32,1.12.57,1.61.33,3.24.79,4.92.85.25.01.59.03.88.04.3,0,.56-.03.63-.05.62-.15.81.09,1.28-.03.44-.16,2.02-.26,2.35-.39.43-.11.84-.23,1.25-.35.46-.17.86-.32,1.24-.46.78-.26,1.64-.65,2.37-1.01.33-.19.76-.55,1.1-.76.63-.39,1.41-.82,1.77-1.21.18-.23.18-.14.33-.27.31-.29.62-.67.93-.95.58-.61,1.25-1.17,1.8-1.78.29-.8,1.54-2.19,1.71-2.82.13-.48.54-.97.65-1.39.06-.3.08-.16.12-.27.18-.75.5-1.19.71-1.87.16-.52.31-1.04.43-1.57-.07-.24-.23-.3-.32-.42-.1-.14-.12-.3-.21-.37-.07-.05-.22.04-.29,0,.08.27-.24.25-.26.1-.19-.64-.53-.63-.84-.72-.18-.26,0-.41-.05-.63-.36-.07-.74.04-1.04-.49-.18.04-.36.12-.52-.03l-.23-.43c-.21.01-.41-.12-.61-.18-.15-.04-.32-.04-.39-.13-.07-.11-.21.05-.29.03-.09-.2-.19-.28-.3-.32-.35.04-.68-.04-1.06.13-.18-.08-.37-.12-.55-.19-.4.25-.73.01-1.14.27-.15-.01-.26-.27-.43-.16.13.24-.41.4-.62.57.07.12.01.23,0,.34-.02.11,0,.4-.07.43-.08.04-.01.04-.03.09-.04.14,0,.29,0,.4,0,.08-.02.12.03.22-.25.14-.19.43-.25.64,0,.04-.09.07-.11.11-.03.06.04.15.01.22-.05.13-.17.2-.18.34,0,.09-.22.62-.41,1.01-.08.19-.24.35-.36.55-.02.03-.08.02-.1.05-.04.05,0,.2-.04.26-.03.06-.17.04-.22.09-.05.06-.02.19-.06.25-.2.32-.88.92-.94,1.09-.11.22-.38.32-.51.42-.05.04-.07.19-.11.24-.06.07-.28.18-.37.25-.25.18-.45.32-.75.46l-.38.21c-.14.09-.37.1-.51.17-.1.05-.16.23-.26.3-.11.08-.3,0-.43.03-.06.01-.13.15-.19.18-.02,0-.09-.03-.11-.03-.06.02-.13.16-.19.18-.32.12-.77.08-.96.15-.16.06-.28.14-.43.17-.62.12-1.29.09-1.75.04-.06-.01-.18.09-.24.09-.09,0-.22-.09-.31-.09-.18,0-.31.09-.47.05-.66-.09-1.19-.34-1.76-.54-.3.09-.43-.12-.72-.06-.17-.29-.38-.25-.58-.31-.04-.01-.2-.18-.25-.2-.32-.18-.68-.33-.98-.53-.58-.46-1.08-.98-1.46-1.59-.23-.16-.27-.4-.61-.52,0-.39-.41-.59-.45-.97-.22-.2-.39-.43-.47-.68-.08-.26-.16-.5-.11-.78-.22-.56-.26-1.08-.39-1.66-.01-.11-.02-.26-.05-.37-.03-.12-.06-.15-.13-.25-.06-.09-.12-.15-.09-.28,0-.05.03-.08.04-.14,0-.05,0-.11,0-.16,0-.12,0-.25-.02-.37-.02-.14-.06-.25-.06-.38,0-.27.05-.54.08-.8.07-.33.14-.63.22-.95.06-.18.1-.37.14-.56.03-.11.04-.23.09-.32.05-.1.13-.19.18-.3.14-.36.32-.68.49-1.04.05-.12.14-.25.2-.36.04-.08.04-.11.07-.2.03-.1.08-.14.12-.23.02-.04.02-.07.04-.11.06-.15.19-.26.29-.39.26-.33.61-.51.92-.77.24-.2.51-.35.73-.59.08-.08.3-.28.42-.39.13-.11.25-.22.39-.31.21-.15.46-.3.69-.43.14-.07.22-.08.37-.12.1-.03.14-.04.21-.1.08-.07.12-.16.22-.21.07-.04.17-.06.25-.09.22-.07.41-.17.64-.18.05,0,.19,0,.24,0,.07,0,.15-.04.22-.05.08,0,.03,0,.12-.02Z"/>
      </g>
    </g>
  </g>
</svg>