<?xml version="1.0" encoding="UTF-8"?>
<svg id="Ebene_1" xmlns="http://www.w3.org/2000/svg" version="1.1" viewBox="0 0 800 800">
  <!-- Generator: Adobe Illustrator 30.4.0, SVG Export Plug-In . SVG Version: 2.1.4 Build 226)  -->
  <defs>
    <style>
      .st0 {
        fill: none;
        stroke: #fafaff;
        stroke-linecap: round;
        stroke-linejoin: round;
        stroke-width: 19px;
      }

      .st0, .st1 {
        fill-rule: evenodd;
      }

      .st1 {
        fill: #e5b969;
      }
    </style>
  </defs>
  <g>
    <path class="st1" d="M149.4,212.81c65.1-45.57,154.12-73.21,251.64-73.21s186.55,27.64,251.64,73.21c65.05,45.53,107.47,110.07,107.47,183.29s-42.42,137.76-107.47,183.3c-65.1,45.57-154.12,73.21-251.64,73.21-48.16,0-94.19-6.74-136.25-19.01l-105.64,55.46c-114.18,72.65-87.56,46.21-52.98-29.43l45.1-78.93c-66.13-45.63-109.34-110.66-109.34-184.6s42.42-137.76,107.47-183.29Z"/>
    <path class="st1" d="M167.13,673.94c-4.03,2.23-8.16,4.4-11.87,6.33l-.49.25c-.22.12-.44.22-.65.36-.3.19-.59.37-.89.56-.43.27-.85.53-1.26.79-.83.52-1.62,1.01-2.37,1.48-1.51.95-2.85,1.79-3.99,2.51-10.86,6.93-15.7,10.25-23.85,15.24-3.39,2.06-8.86,5.34-15.31,8.97-3.22,1.82-6.7,3.72-10.25,5.55-.89.45-1.78.9-2.68,1.35-.79.38-1.59.77-2.39,1.15l-.6.27c-.14.06-.09.04-.13.05l-.07.03-.27.09c-.18.06-.35.1-.52.12-.16.01-.36.02-.46-.13-.14-.33.05-.66.12-.91.05-.13.1-.25.14-.36.36-.84.69-1.61.99-2.31.97-2.21,1.74-3.94,2.25-5.1,3.4-7.78,8.57-17.47,11.8-24.18,1.09-2.25,2.03-4.61,3.08-6.86,1.61-3.43,3.86-7.7,5.87-12.33.29-.65.53-1.2.74-1.68.21-.45.38-.84.54-1.19l.02-.04.02-.02.12-.2c.16-.27.32-.51.47-.76.61-.97,1.2-1.85,2.42-3.96,1.01-1.74,2.47-4.73,3.53-6.59,6.44-11.26,12.19-21.32,18.64-32.59,4.2-7.36,8.33-14.6,12.09-21.19,2.67-4.67,5.22-9.11,7.57-13.23.79-1.38,1.57-2.74,2.33-4.07.38-.66.76-1.32,1.13-1.97.19-.32.37-.65.56-.97.08-.16.22-.33.24-.47l-.45-.32c-2.37-1.69-4.62-3.31-6.74-4.83-1.89-1.36-2.71-2.07-4.62-3.44-.78-.55-1.66-1.19-2.65-1.89-.49-.34-1.03-.71-1.58-1.08-1.08-.73-2.17-1.47-3-2.1-8.32-6.37-15.15-12.32-20.07-16.84-.9-.81-1.86-1.54-2.73-2.37-1.46-1.39-2.61-2.8-4.07-4.22-5.93-5.77-11.44-11.27-13.44-14.21-1.64-1.75-3.22-3.55-4.84-5.32l-4.68-5.46c-9.46-12.28-18.11-25.94-24.8-39.89-6.75-13.93-11.38-28.14-14.17-40.9-1.11-5.45-2.28-11.59-2.89-17.29-.09-.71-.18-1.42-.27-2.11-.06-.7-.12-1.38-.18-2.06-.12-1.35-.24-2.65-.35-3.88-.17-2.46-.25-4.66-.35-6.43-.11-5,.03-7,.21-12.15.13-3.82.43-8.7.91-13.28.23-2.29.59-4.49.86-6.47.3-1.97.69-3.68.99-4.99-.06-1.94.62-5.01,1.4-8.41.45-1.67.94-3.46,1.42-5.21.48-1.75,1.04-3.45,1.46-5.06.39-1.58,1.28-4.58,2.31-8.16.58-1.78,1.2-3.7,1.84-5.64.72-1.94,1.44-3.9,2.13-5.78.19-.52.99-2.03,1.24-2.61.33-.77.81-2.01,1.29-3.27.51-1.24,1.04-2.49,1.4-3.31.25-.55,1.04-1.95,1.33-2.56.54-1.11,1.76-3.62,3.35-6.89.82-1.59,1.72-3.37,2.68-5.23,1-1.83,2.05-3.74,3.1-5.65,1.1-1.88,2.19-3.75,3.24-5.53,1.09-1.75,2.12-3.41,3.05-4.9,1.92-2.92,3.39-5.14,3.95-6,1.7-2.44.79-1.45,2.31-3.61,1.86-2.64-.22-.02.23-.68,1.42-2.12,2.97-4.11,4.38-6.04,1.44-1.9,2.88-3.65,4.12-5.23,2.56-3.11,4.54-5.43,5.26-6.4,3.14-4.3,10.59-12.25,11.2-13.27.23-.43.85-1.23.68-1.28,5.37-5.21,7.37-7.15,9.46-9.18.95-.94,1.9-1.88,3.39-3.2,1.49-1.32,3.43-3.1,6.5-5.57-5.5,3.92-.62-.4-.81-.68-.07-.11,1.38-1.49.82-1.23-.37.19-4.27,3.13-4.85,3.54-.15.1.63-.66,1.49-1.42.42-.38.85-.76,1.19-1.07.33-.3.55-.51.55-.52.02-.69,1.2-2.36.02-1.91-.67.25-1.48.68-1.62.54-.11-.1,1.03-1.19.83-1.23-.21-.04-2.13,1.29.83-1.23,2.02-1.48,4.21-2.98,6.43-4.64,2.25-1.63,4.57-3.32,6.98-5.06-4.1,2.73-4.36,2.73-4.63,2.73-.25.02-.56-.04-4.6,2.8,2.17-1.76,3.39-2.71,3.56-2.9.17-.19-.74.33-2.7,1.69-3.47,2.37-.73-.25-1.21-.1-.72.24-3.57,2.24-7.07,4.67-2.07,1.41-1.72.81-2.43,1.05-.7.24-2.46,1.31-8.57,6.32.31-.35.95-1.01,1.78-1.8.87-.79,1.87-1.71,2.87-2.62,2.02-1.86,4.09-3.65,4.74-4.32-.89.59-1.82,1.22-2.79,1.86-.98.7-1.99,1.41-3,2.13-1.02.73-2.04,1.46-3.05,2.18-.97.72-1.93,1.43-2.84,2.11-3.63,2.63-6.2,4.59-5.8,3.74-6.02,5.45-9.58,8.82-12.82,11.79-3.21,3-6.07,5.65-10.24,10.16-.67.69-1.78,2-3.09,3.57-1.32,1.56-2.85,3.36-4.24,5.14-2.86,3.5-5.33,6.77-5.64,6.79-3.49,4.51-6.93,9.67-10.2,14.86-1.59,2.63-3.22,5.21-4.68,7.81-.75,1.29-1.49,2.55-2.22,3.8-.7,1.24-1.39,2.47-2.08,3.68-1.5,2.54-2.06,3.58-2.3,3.85-.23.28-.08-.17,0-.51.2-.67.06-.93-3.59,6.17-3.86,8.5-7.45,17.56-10.4,26.8-2.96,9.24-5.26,18.66-6.75,27.75-.2,1.27-.4,2.5-.6,3.71-.15,1.21-.3,2.4-.44,3.57-.14,1.17-.28,2.33-.42,3.47-.1,1.15-.2,2.3-.29,3.46-.1,1.15-.19,2.31-.29,3.48-.06,1.18-.12,2.37-.18,3.58-.06,1.22-.12,2.46-.18,3.74-.02,1.28-.04,2.6-.06,3.96-.01,1.11-.05,2.28-.05,3.48.02,1.21.03,2.45.05,3.73,0,2.54.13,5.18.28,7.77.29,5.19.85,10.22,1.53,14,.74,7.33,2.57,17.51,5.22,27.05,2.59,9.57,5.99,18.45,8.18,23.79.85,1.99,1.41,3.92,2.27,5.91.73,1.57,2.04,4.3,3.35,6.93,1.38,2.59,2.69,5.12,3.35,6.33,3.54,6.59,7.74,13.6,11.93,19.92,4.15,6.35,8.41,11.9,11.65,15.88,2.59,3.07,7.19,8.81,12.27,14.35,5.03,5.59,10.43,11.08,13.89,14.33,8.51,8.12,18.25,16.25,27.15,22.95.9.67,1.81,1.35,2.72,2.03l1.36,1.02c.32.24.21.16.25.19l.07.06c.21.17.42.35.62.51l.13.12-.11.16c-.07.1-.14.2-.2.29-.12.17-.23.33-.31.46-.16.29-.34.62-.54.99-.29.55-.6,1.14-.92,1.75-.62,1.2-1.25,2.41-1.78,3.33-1.89,3.28-4.75,8.24-6.75,11.72-6.14,10.75-11.01,19.28-15.27,26.74-2.71,4.7-6.18,10.72-9.35,16.22-1.59,2.75-3.1,5.36-4.4,7.62-.33.56-.64,1.11-.93,1.62-.21.36-.41.72-.61,1.06-.13.23-.22.47-.34.72-.07.15-.14.3-.21.45-.44.95-.82,1.79-1.13,2.47-2.86,6.24-4.59,10.74-7.37,16.22-4.79,9.32-10.08,20.7-14.77,29.87-.38.89-.77,1.78-1.15,2.67l-.57,1.35-.75,1.82-.37.92-.46,1.21-.91,2.41c-.54,1.61-1.11,3.22-1.49,4.79-.83,3.15-1.23,6.17-.98,8.75.14,1.29.35,2.51.77,3.65.38,1.15.92,2.22,1.68,3.29.77,1.04,1.79,2.05,2.87,2.74,1.08.71,2.18,1.22,3.34,1.54,2.29.69,4.86.8,7.72.38l1.07-.16.54-.08.56-.15,2.23-.59c.75-.2,1.51-.51,2.27-.76.76-.27,1.52-.5,2.27-.84,1.47-.62,3.17-1.29,4.31-1.85l1.88-.87.76-.36.63-.31c6.73-3.31,12.96-6.82,19.14-10.36,6.16-3.55,12.2-7.16,18.21-10.8,6.38-3.95,12.94-8.19,19.32-12.29,1.6-1.02,3.19-2.04,4.75-3.04l1.18-.75.59-.37.08-.05.04-.02c.75-.39,1.5-.78,2.24-1.16,3.21-1.65,6.33-3.21,9.32-4.64,5.82-3.01,13.17-6.83,19.05-9.87,10.5-5.54,20.45-10.78,30.89-16.28,4.03-2.12,8.49-4.46,12.58-6.61,2.53-1.3,4.3-2.21,6.72-3.45,5.91-3.1,13.56-7.12,19.47-10.23.53-.28,1.12-.59,1.73-.9.13-.13.3,0,.45.02,1.28.35,2.55.71,3.75,1.04,1.47.37,2.85.72,4.09,1.03,1.57.38,2.65.63,4.28,1.02,5.25,1.25,12.16,2.89,16.87,4.01,10.67,2.48,19.88,4.52,33.05,6.44,3.27.44,6.54.88,9.81,1.31,3.28.37,6.56.77,9.84,1.11,3.87.36,7.46.76,10.94.97,1.55.1,3.33.21,5,.32,10.34.61,20.7.93,31.65,1.02,5.07.09,10.61-.02,15.54-.13,1.21-.04,2.21-.07,3.28-.11,2.33-.08,4.33-.04,6.75-.19,3.68-.2,7.31-.39,10.92-.58,1.81-.09,3.61-.19,5.41-.28,1.8-.12,3.59-.29,5.38-.43,7.25-.59,13.53-.91,20.6-1.83,1.65-.2,3.39-.41,5.05-.61,1.91-.2,3.48-.37,5.32-.56,3.82-.57,9.09-1.39,13.19-2.05,1.75-.29,3.39-.53,4.96-.83,1.57-.32,3.08-.62,4.59-.92,3.01-.62,6-1.23,9.41-1.94.95-.2,1.83-.38,2.66-.55.83-.2,1.61-.39,2.37-.57,1.51-.35,2.88-.68,4.26-1,2.76-.64,5.5-1.28,9.2-2.14,5.46-1.43,11.55-3.2,16.89-4.63,4.98-1.5,2.59-.71,4.99-1.34,2.22-.6,7.05-2.13,12.06-3.78,4.95-1.82,10.12-3.72,13.05-4.8,20.1-7.53,39.84-16.34,57.64-26.66,1.2-.69,2.44-1.35,3.66-2.08,1.21-.75,2.44-1.5,3.68-2.26,2.49-1.52,5.02-3.07,7.57-4.63,1.29-.76,2.54-1.59,3.79-2.43l3.76-2.5c2.5-1.67,5.01-3.31,7.45-4.97,9.69-6.76,18.44-13.64,24.73-18.96,1.6-1.4,4.04-3.74,5.67-5.25,8.39-7.53,17.04-16.15,24.66-24.86,4.02-4.69,7.26-8.38,10.98-13.26,2.57-3.31,5.05-7.01,7.19-10.17,2.09-3.21,3.88-5.85,4.95-7.17,5.35-9.15,9.75-16.53,13.95-26.31,4.68-9.61,8.77-20.43,11.79-31.52,3.06-11.08,5.19-22.36,6.52-32.84.66-8.71.89-16.44.81-24.15-.11-7.7-.57-15.4-2.03-23.9-.41-5.84-2.24-14.06-3.6-20.29-3.4-13.15-8.04-26.16-13.91-38.65-2.92-6.25-6.11-12.4-9.63-18.36-1.7-3.02-3.58-5.91-5.41-8.85-1.92-2.87-3.79-5.78-5.82-8.57-1.16-1.65-2.56-3.62-4.1-5.62-.76-1.01-1.54-2.04-2.31-3.06-.8-1-1.59-2-2.36-2.96-.77-.96-1.51-1.89-2.21-2.76-.72-.85-1.38-1.63-1.97-2.33-1.19-1.38-2.08-2.42-2.5-2.91-3.52-3.8-5.68-6.31-7.7-8.52-1.98-2.25-3.81-4.2-6.62-6.9-1.34-1.32-3.56-3.36-6.12-5.82-2.63-2.39-5.61-5.2-8.67-7.82-3.01-2.69-6.1-5.18-8.64-7.32-2.6-2.06-4.68-3.72-5.77-4.59-2.89-2.16-5.68-4.33-8.55-6.33-1.43-1.01-2.83-2.04-4.27-3.02-1.45-.96-2.89-1.92-4.34-2.88-2.91-1.91-5.79-3.89-8.8-5.79-3.04-1.84-6.14-3.72-9.34-5.65-2.8-1.77-5.82-3.4-8.87-5.09-3.06-1.68-6.14-3.47-9.29-5.11-3.17-1.6-6.35-3.2-9.47-4.77-1.57-.77-3.09-1.59-4.65-2.29-1.55-.7-3.09-1.39-4.59-2.07-2.78-1.25-6.23-2.77-9.73-4.27-3.55-1.4-7.14-2.81-10.14-4-1.39-.57-2.82-1.14-4.26-1.73-1.44-.59-2.93-1.09-4.41-1.65-2.96-1.09-5.93-2.19-8.79-3.25-2.85-1.1-5.65-1.98-8.22-2.79-2.57-.82-4.92-1.54-6.93-2.12-4.44-1.28-3.44-1.16-6.62-2.02-6.62-1.77-14.13-3.85-20.79-5.32-3.32-.8-6.65-1.6-9.99-2.41-3.35-.7-6.71-1.39-10.06-2.09-1.67-.35-3.34-.7-5-1.05l-2.49-.52-2.49-.43c-3.31-.58-6.6-1.16-9.85-1.73-1.71-.22-3.57-.46-5.59-.72-2.1-.24-4.35-.5-6.72-.77-2.38-.29-4.87-.6-7.41-.92-1.27-.15-2.55-.35-3.83-.47-1.29-.12-2.58-.24-3.86-.36-5.14-.47-10.17-1.01-14.56-1.35-4.39-.25-8.12-.45-10.62-.52-1.96-.06-4.06-.15-6.2-.27-2.14-.06-4.33-.11-6.48-.17-4.31-.11-8.47-.22-11.81-.2-4.51.14-3.99.01-6.91.07-3.49.08-6.84.15-10.08.22-.81.02-1.61.04-2.41.05-.8.04-1.58.09-2.37.13-1.57.08-3.11.17-4.63.25-3.05.16-6.01.31-8.94.47-.73.04-1.46.07-2.18.11-.72.06-1.44.12-2.16.18-1.44.12-2.87.24-4.3.37-5.71.52-11.37.86-17.19,1.64-5.82.73-11.86,1.31-18.29,2.42-2.44.39-4.88.77-7.31,1.16l-3.65.58c-1.21.19-2.42.46-3.62.69-4.82.96-9.64,1.91-14.46,2.86-4.78,1.13-9.57,2.26-14.37,3.39-2.41.53-4.78,1.24-7.17,1.88-2.39.65-4.78,1.31-7.18,1.97-1.95.6-3.47,1.07-4.69,1.5-1.21.45-2.15.82-2.95,1.14-1.6.65-2.69,1.13-4.49,1.81-2.1.79-4.5,1.64-6.61,2.39-2.12.71-3.88,1.51-4.78,1.92-1.3.63,2.66-.51,1.75,0,2.24-.91,4.08-1.4,5.41-1.82,1.34-.4,2.22-.61,2.64-.67.85-.12-.1.36-2.73,1.24-21.66,8.04-19.7,8.34-21.29,9.61-4.31,1.97-8.14,3.54-11.87,5.04-3.69,1.61-7.27,3.2-11.14,5-.6.67.72.48-.3,1.33-.5.44-1.62,1.08-3.8,2.33-2.17,1.27-5.43,3.09-10.31,5.7,2.2-.7,6.18-2.28.66.83-2.79,1.42-5.47,3.06-8.18,4.64l-8.11,4.75c1.17-.22-3.62,3.17-5.61,4.85-1.44,1.22-.68,1.17-4.6,3.71-4.25,2.76,2.64-1.13,1.68-.34-1.01.64-1.95,1.24-2.83,1.81-.87.57-1.64,1.14-2.37,1.65-1.42,1.02-2.62,1.88-3.65,2.63-2,1.46-3.19,2.39-3.87,2.98,2.17-.61-1.02,2.33,7.1-2.22-3.18,2.57-4.68,4.02-7.85,6.58,6.27-3.71,6.61-3.5,7.12-3.4.25.05.54.08,1.63-.42.54-.25,1.28-.63,2.32-1.21,1.04-.57,2.34-1.37,4.11-2.3-.06.15-1,.74-2.18,1.62-1.21.89-2.67,1.95-3.96,2.9-2.57,1.89-4.33,3.24-1.23,1.37,6.23-4.49,12.14-7.64,17.73-10.75,1.39-.8,2.83-1.46,4.25-2.16l4.26-2.08c1.43-.71,2.86-1.41,4.29-2.12l2.17-1.09,2.25-1.03c3.45-1.81,7.02-3.59,10.56-5.34,3.58-1.69,7.2-3.21,10.65-4.78,3.41-1.64,9.75-4.16,15.53-6.51,1.45-.58,2.85-1.18,4.19-1.67,1.35-.48,2.6-.93,3.72-1.33,2.24-.8,3.91-1.38,4.6-1.6,3.49-1.1,2.87-1.02,6.24-2.21,4.83-1.51,9.62-3.04,14.05-4.47,4.45-1.37,8.59-2.47,12-3.48,5.21-1.55,8.16-2.17,13.51-3.59,1.62-.34,3.3-.7,5.03-1.06.88-.19,1.77-.39,2.67-.59.91-.17,1.84-.35,2.78-.53,3.76-.74,7.71-1.51,11.71-2.29,1.99-.43,4.02-.74,6.04-1.08,2.02-.33,4.03-.67,6.02-1,1.99-.33,3.95-.65,5.87-.97,1.92-.33,3.81-.51,5.64-.75,2.95-.32,6.55-.72,9.57-1.05,1.23-.16,2.39-.31,3.52-.45,1.12-.12,2.23-.24,3.34-.36,2.21-.24,4.45-.49,7.05-.72,2.28-.19,4.49-.38,6.68-.57,2.19-.1,4.36-.2,6.52-.29,2.17-.1,4.35-.21,6.56-.31,2.21-.1,4.47-.28,6.8-.3,13.6-.33,26.82-.44,40.61.33,3.15.18,6.38.36,9.7.54,3.31.25,6.7.61,10.2.92,1.1.1,1.85.28,2.96.39,2.01.21,5.23.21,7.33.52,2.09.26,3.77.72,5.88.99,2.24.29,5.02.42,7.31.71,1.38.15,3.01.42,4.81.72,1.8.3,3.78.62,5.86.96,2.08.34,4.26.7,6.47,1.07,2.22.33,4.42.86,6.6,1.28,4.35.88,8.51,1.72,11.89,2.4,3.35.79,5.93,1.39,7.14,1.64,1.72.36,3.49.76,5.26,1.17,1.76.42,3.53.82,5.2,1.33,3.34.97,6.46,1.87,8.81,2.55,1.76.52,5.27,1.2,7.1,1.82,2.59.83,9.64,3.09,12.65,4.05,8.86,3.14,15.56,5.45,24.82,9.34,2.04.83,4.08,1.67,6.13,2.5,2.01.91,4.03,1.83,6.03,2.74,2.23,1.03,4.82,2.23,7.4,3.42,2.53,1.29,5.04,2.56,7.18,3.64,3.1,1.58,6.88,3.02,9.89,4.73,3.55,1.93,7.25,4.24,10.83,6.3,1.47.91,4.76,2.67,6.34,3.61.54.32,1.87,1.28,2.47,1.64.84.52,1.98,1.15,3.13,1.79,1.14.66,2.26,1.37,3.13,1.94,4.27,2.89,9.15,6.05,13.34,9.23,4.24,3.13,7.97,6.06,10.37,7.97,1.03.8,1.99,1.55,2.93,2.27.91.73,1.79,1.43,2.65,2.12.87.69,1.72,1.37,2.59,2.06.86.71,1.71,1.45,2.62,2.23,7.12,6.17,14.09,12.89,20.25,19.5,6.17,6.6,11.52,13.09,15.7,18.56,1.12,1.54,3.31,4.01,4.48,5.66.73,1.03,1.67,2.41,2.63,3.82.94,1.44,1.88,2.89,2.63,4.03,1.49,2.17,2.67,4.05,3.86,5.86,1.21,1.8,2.28,3.62,3.5,5.7,4.92,8.55,8.87,16.83,12.17,25.16,3.29,8.33,5.95,16.7,8.09,25.53,2.23,7.38,2.91,13,4.18,20.31.54,7.9,1.18,13.22,1.35,19.34,0,.67.05,2.57-.03,4.52-.07,1.96-.14,3.96-.17,4.83-.35,10.94-1.69,22.25-3.97,32.71-2.39,10.57-5.65,20.77-9.74,30.6-4.13,9.81-9.04,19.26-14.66,28.39-4.1,6.98-8.14,12.38-13.21,19.81-3.07,3.71-6.54,7.9-10.12,12.11-3.65,4.15-7.4,8.31-11.1,11.83-6.03,6.37-12.21,12.11-18.43,17.34-6.25,5.21-12.54,9.9-18.83,14.17-15.47,10.95-29.2,19.1-46.11,27.78-3.04,1.5-7.4,3.7-10.57,5.23-3.51,1.6-4.63,2.16-7.5,3.56-1.44.69-2.58,1.24-3.76,1.81-.61.28-1.24.57-1.94.89-.71.3-1.5.6-2.41.95-1.55.59-2.27.86-4.03,1.52-1.52.61-3.13,1.26-4.66,1.87-3.55,1.5-7.32,2.76-10.92,4.08-4.2,1.5-7.33,2.82-11.31,4.04-3.96,1.28-8.01,2.55-12.05,3.8-4.08,1.11-8.15,2.21-12.1,3.27-1.27.35-2.53.69-3.77,1.03-1.26.29-2.51.59-3.76.88-2.49.58-4.97,1.15-7.43,1.72-4.91,1.22-9.88,2.07-14.94,3.08-5.92,1.26-12.15,2.2-18.16,3.18-1.72.28-3.53.57-5.33.86-1.81.22-3.6.44-5.29.65-3.66.42-7.05.8-10.92,1.25-6.15.53-12.2,1.06-18.28,1.59-6.1.3-12.21.67-18.47.93-4.26.07-9.04.16-13.3.23-3.01.08-3.85.12-6.48.13-3.07.02-5.25,0-8.28-.08-1.45-.02-2.34-.03-3.68-.04-2.48-.02-5.08-.15-7.68-.27-1.3-.06-2.6-.13-3.89-.19-1.29-.09-2.56-.17-3.8-.25-13.21-.88-24.84-2.27-37.65-4.14-10.08-1.5-19.72-3.22-30.07-5.31-3.06-.6-6.07-1.25-9.07-1.9-3.01-.62-5.97-1.35-8.97-2.06-2.65-.61-5.26-1.34-7.87-2.01-1.31-.33-2.6-.69-3.89-1.05-1.94-.54-3.87-1.08-5.81-1.62-1-.28-2.01-.56-3.03-.84-.25-.06-.51-.18-.76-.18l-.7.37-1.41.74c-1.76.93-3.53,1.86-5.32,2.8-1.99,1.05-3.99,2.1-6.01,3.16-4.03,2.12-8.1,4.25-12.08,6.33-4.65,2.44-6.85,3.56-11.42,5.89-2.99,1.53-4.13,2.11-7.02,3.68-2.91,1.58-5.03,2.83-8.21,4.55-2.33,1.23-5.22,2.75-7.7,4.05-6.83,3.56-12.84,6.68-19.44,10.12-2.38,1.21-4.53,2.3-6.9,3.5-2.2,1.15-4.56,2.38-6.67,3.48-2.26,1.16-.78.38-3.68,1.9Z"/>
  </g>
  <path class="st0" d="M179.7,298.99v205.95"/>
  <path class="st0" d="M281.41,296.45v223.74"/>
  <path class="st0" d="M169.53,408.32h116.96"/>
  <path class="st0" d="M342.32,297.72c.15,66.77.29,133.54.44,200.31,36.34.65,72.68,1.3,109.02,1.94"/>
  <path class="st0" d="M358.31,404.51h53.39"/>
  <path class="st0" d="M350.07,295.42c39.88-2.25,79.95-.96,119.61,3.84"/>
  <path class="st0" d="M549.67,387.71c-4.24,62.01-1.7,56.88-1.7,133.2"/>
  <path class="st0" d="M509.66,272.57c13.34,38.38,26.67,76.76,40.01,115.13,22.81-38.32,44.77-77.15,65.86-116.44"/>
</svg>