<?xml version="1.0" encoding="UTF-8"?>
<svg id="Ebene_1" xmlns="http://www.w3.org/2000/svg" version="1.1" viewBox="0 0 750.87 809.32">
  <!-- Generator: Adobe Illustrator 30.4.0, SVG Export Plug-In . SVG Version: 2.1.4 Build 226)  -->
  <defs>
    <style>
      .st0 {
        fill: #e5b969;
        fill-rule: evenodd;
      }
    </style>
  </defs>
  <path class="st0" d="M744.85,566.29c-4.32.38-.97-7.06-2.09-9.95-8.52-3.85-12.76-12.78-18.13-19.76-2.98-3.88-5.61-5.93-8.05-7.9-.66-.53.49-3.28-.04-3.99-.54-.73-3.27-1.36-4.01-1.95-.65-.52.45-3.27-.04-3.99-.45-.66-3.33-1.42-4-1.96-.67-.54.52-3.29-.04-3.99-2.45-3.05-7.07-6.76-10.06-9.87-3.77-3.92-8.83-5.54-10.08-11.86-5.59-.25-8.14-4.54-12.03-7.86-3.54-3.01-6.77-6.58-10.06-9.87-3.39-3.38-6.77-6.34-10.06-9.87-2.64-2.82-4.77-6.33-6.06-7.91-.33-.4.31-1.6-.02-1.99-.55-.66-3.38.67-3.98.04-5.3-5.57-9.76-11.7-14.11-15.81-5.71-5.4-11.28-8.84-16.08-13.8-3.12-3.23-7.41-7.11-8.09-11.88-6.89-3.3-12.83-8.64-18.07-13.78-5.24-5.14-10.69-10.98-14.12-17.8-8.13-2.46-11.87-9.37-16.09-15.79-6.97-3.63-13.76-7.45-16.1-15.79.34-4.61,4.8-6.06,5.9-8.03,2.66-4.73,1.54-8.75,3.87-12,3.87-5.41,23.46-18.87,23.68-24.15.19-4.46,6.06-5.59,7.9-8.05.62-.83-.47-3.02-.04-3.98.65-1.48,3.83-1.47,3.95-4.03.12-2.84,2.39-.71,3.97-2.03.65-.55-.56-3.27-.04-3.99,3.16-4.35,6.58-7.77,9.85-12.05,4.26-5.58,8.21-11.14,11.83-14.07.4-.33,1.6.31,1.99-.02.67-.56-.63-3.32-.04-3.99,2.98-3.34,6.13-5.79,7.9-8.05.32-.41-.34-1.59-.02-1.99.54-.67,3.4.61,3.99-.04,2.4-2.63.4-8.49,5.92-6.04l-.08-7.97c10.68-8.57,18.62-20.75,27.64-28.17,3.84-3.15,7.6-7.91,9.87-10.06,1.6-1.52,4.04-.7,5.96-2.05,2.85-2.01,4.83-7.1,9.91-6.07-5.31-6.36,4.25-3.64,5.92-6.04.81-1.17.51-6.6,1.9-9.99.1-.23,1.78.16,2-.02.57-.48-.37-3.26-.04-3.99.11-.25,1.76.17,1.99-.02,1.7-1.42.17-19.38-.21-21.93-.28-1.86-1.94-2.44-2.03-3.97-.12-1.87-1.85-1.41-2.01-1.97-2.14-7.28-.37-11.23-2.13-13.93-3.9-5.98-4.8-12.6-8.13-15.87-1.34-1.32-2.52-2.8-4.03-3.95,1.34-7.41-3.49-8.52-2.14-15.93-4.94-.3-6.81-5.29-10.04-7.87-1.3-1.04-2.52-3.08-4.02-3.95-1-.57-2.92.51-3.99.04-.53-.23-1.46-3.49-2.03-3.97-5.02-4.23-10.06-9.28-14.07-11.82-2.25-1.43-4.09-2.41-6.01-3.93-1.42-1.11-2.41-2.73-4.03-3.95-1.63-1.22-3.6-1.55-4.02-3.95,3.42.07,5.09-1.58,5.94-4.04-5.83.57-6.17-4.45-12-3.87-.22-3.13-.68-3.8-4.03-3.95-2.94-.13-6.27-4.75-8.03-5.9-2.65-1.73-4.08-1.03-7.99-1.92-4.6-1.03-9.3-8.75-16-5.83-2.05-2.6-2.02-7.33-4.08-9.93-9.02-2.88-19.85-3.92-26.01-9.72-4.36,4.94-12.05.53-17.92,2.16-1.84.51-3.43,7.44-7.93,4.06-4.02,2.64-2.64,10.58-7.86,12.04-6.27,1.03-4.57-6.07-12-3.87-1.51,8.28-9.34,12.3-13.78,18.07-2.48,3.22-3.41,6.48-5.88,10.02-2.02,2.89-7.08,5.19-5.88,10.02-7.42,1.55-12.95,10.53-15.81,14.11-.54.67-3.42-.61-3.98.04-.9,1.04-1.41,5.01-1.93,6-2.83,5.35-9.62,8.97-9.83,14.05-.17,3.97-7.58,9-9.85,12.05-2.82,3.79-5.15,8.45-7.86,12.04-2.18,2.9-6.24,4.66-7.92,6.06-.65.54.55,3.27.04,3.98-.92,1.27-2.94,2.7-3.95,4.02-3.09,4.1-5.65,7.26-7.88,10.04-2.81,3.52-8.6,7.87-9.87,10.06-1.46,2.51.86,6.93-1.92,7.99-5.39,1.29-4.88,8.37-11.88,8.09-3.5,13.02-12.67,20.48-21.66,28.11-3.58,5.05-3.49,13.69-11.82,14.07-6.11-3.17-8.59-10.03-12.11-15.83-4.17-1.61-8.54-4.74-12.04-7.86-2.89-2.58-9.97-10.14-10.08-11.86-.14-2.3-1.29-.87-2.01-1.97-2.95-4.46-6.8-7.21-8.09-11.88-4.49-2.14-10.02-3.21-14.01-5.85-.32-3.26-5.62-5.58-6.04-5.92-2.97-2.38.34-7.74-4.06-7.93-2.4-.1-2.88-4.45-4.05-5.94-3.83-4.9-6.78-7.24-10.06-9.87-.67-.53.48-3.28-.04-3.99-3.86-5.27-11.7-7.61-12.09-13.84-.13-2.06-10.16-11.92-10.08-11.86-2.81-1.88-7.56-1.62-10-3.89-.31-.29-2.01-3.69-2.03-3.97-.27-4.38-6.23-4.14-6.05-7.92-7.17.6-9.64-3.59-15.98-3.83-7.16-8.85-17.82-10.82-28.04-13.68-.18-.05.12-1.82-.02-1.99-.54-.64-3.26.52-3.98.04-3.48-2.29-6.66-7.98-10.08-11.86-3.18-3.59-6.61-9.02-10.08-11.86-5.32-4.36-12.09-2.04-14.05-9.83-5.65-1.59-5.14,2.86-9.94,2.09-3.81-.81-3.66-5.66-10.01-3.89-.26,3.69-6.74,1.29-7.93,4.06-1.98,2.67-1.81,7.44-5.91,8.03-4.91-6.52-9.86-.56-19.95-1.8-5.39,1.29-4.88,8.37-11.88,8.09l-9.96.1c-1.71,5.39-5.28,5.47-9.91,6.07-6.4.83-3.42,3.68-9.93,4.08-3.89.24-6.37,7.55-11.92,4.1-1.77,3.53-4.4,6.22-7.9,8.05-4.25,2.41-11.12,2.26-13.89,6.11-.56,7.18-4.91,14.84-3.78,21.96.35,2.19,3.2,5.59,6.08,9.91.8,1.21,3.25,2.54,4.03,3.95,1.24,2.25.79,4.17,2.05,5.96.87,1.24,3.14,2.56,4.03,3.95,1.08,1.7.74,4.22,2.05,5.96,2.13,2.84,6.39,4.59,8.03,5.9.66.54-.49,3.28.04,3.99,2.36,3.17,5.67,4.9,8.05,7.9,2.51,3.15,3.63,7.09,6.08,9.91,2.47,2.84,5.98,5.74,8.05,7.9,3.28,3.42,5.57,7.34,10.04,7.88.09,4.31,3.55,6.81,6.08,9.91,5.47,6.73,9.67,11.6,14.12,17.81,2.05,2.85,5.91,5.58,6.06,7.91.14,2.32,1.21.86,2.01,1.97,2.2,3.05,4.03,6.95,6.08,9.91.85,1.23,3.11,2.6,4.02,3.95.47.69,2,3.36,2.03,3.97.14,2.31,1.24.87,2.01,1.97,4.54,6.55,10.4,13.51,12.17,21.81,6.34,3.28,10.08,10.76,12.09,13.84,1.44,2.22,2.05,2.37,4.02,3.95.58.47-.31,3.27.04,3.99.12.25,1.76-.21,1.99-.02.66.53-.49,3.28.04,3.99,1.91,2.54,5.74,5.34,8.05,7.89,1.35,1.49,2.69,2.2,4.03,3.95,3.14,4.12,5.87,7.01,8.07,9.89,4.73,6.2,9.83,9.04,14.08,13.82,1.25,1.41.97,4.6,2.05,5.96,1.33,1.67,4.59,2.29,6.02,3.93,2.73,3.15,2.84,5.28,4.06,7.94.22.49,3.52,1.44,4.01,1.95,2.95,3.14,5.09,6.78,8.06,9.89,2.79,2.91,8.8,4.43,8.07,9.89,5.4,1.88,9.66,4.91,10.08,11.86-3.35,8.73-12.57,15.78-17.75,20.1-.67.56.63,3.32.04,3.99-2.98,3.4-6.72,6.66-9.87,10.06-1.68,1.82-4.2,2.31-5.94,4.04-2.38,2.36-.42,8.71-5.92,6.04.57,5.83-4.45,6.17-3.87,12-9.14,3.53-9.61,15.58-19.76,18.13,1.14,9.67-8.39,8.88-7.8,18.01-5.45-1.4-3.97,4-7.93,4.06-3.79,10.65-12.59,17.71-19.68,26.1-2.08,2.45-5.85,6.78-5.91,8.03-.21,5.11-5.75,2.18-5.92,6.04-.16,3.71-8.43,10.3-9.85,12.06-3.66,4.51-6.01,9.39-9.83,14.05-3.39,4.12-8.43,7.96-11.84,12.07-1.58,1.9-2.29,5.96-3.91,8.01-3.01,3.83-9.69,5.87-9.87,10.06-.1,2.31-1.24.89-1.98,2.01-1.53,2.34-2.05,5.95-3.91,8.01-3.72,4.13-8.59,7.45-13.85,10.1,2.26,8.62-11.57,13.03-11.79,18.05-.18,3.94-5.76,4.67-5.9,8.03-.1,2.26-1.4.96-1.98,2.02-5.5,10.13-12.36,14.45-19.72,22.11-5.58,5.81-10.37,12.09-15.78,18.09.12,4.33,3.02,7.09,4.08,9.93,1.24,3.31.54,5.71,2.07,7.95,1.12,1.63,4.7,2.35,6.02,3.93.17-4.88,6.58-.49,6,1.94-.33,11.74,6.45,16.24,12.18,21.81,1.77,6.34-3.08,6.19-3.9,10,6.55,6.07,15.53,9.67,16.16,21.77,3.99,1.97,8.55,3.36,10.04,7.88l.1,9.97c4.37,2.88,6.79,7.89,10.08,11.86,2.38,2.87,5.9,5.32,6.06,7.91.18,2.82,4.67,2.21,6.01,3.93-.59,4.63.4,7.65,2.09,9.95,7.28,4.65,12.67,11.23,22.06,13.74,2.5,4.16,5.59,7.72,8.09,11.88,11.32,1.21,14.26,10.96,26.02,11.71,2.8,2.51.96,9.75,6.08,9.91,1.34-7.24,14.5-2.89,21.89-4.2.57-3.77,3.92-5.5,5.9-8.03,1.97-2.52,6.06-9.93,7.88-10.04,2.3-.15.89-.94,1.97-2.01,3.05-3.04,4.68-7.14,5.88-10.02.92-2.2,1.89-3.05,1.93-6,7.37-1.17,9.83-9.33,13.82-14.09.81-.97,3.09-1.07,3.97-2.03,1.42-1.56.58-4.27,1.93-6,2.37-3.04,6.2-4.37,7.9-8.05,3.47-4.56,6.15-9.54,9.83-14.05,1.68-2.07,3.89-3.87,5.92-6.04.32-.34,1.62.29,2-.02.67-.56-.62-3.31-.04-3.99.57-.68,3.35.61,3.98-.04.67-.69-.65-3.22-.04-3.98,2.93-3.66,11.72-11.49,11.82-14.07.16-3.66,4.29-4.68,5.92-6.04.6-.51-.43-3.25-.04-3.99.56-1.02,3.09-3,3.95-4.03,2.55-3.05,4.91-4.99,7.9-8.05,1.31-1.34,2.63-2.69,3.95-4.02,1.48-1.5,4.66-2.45,5.94-4.04.93-1.15-.69-4.61-.06-5.98.74-1.6,4.58-.9,5.96-2.05.58-.48-.37-3.26-.04-3.99.12-.25,1.76.18,2-.02.66-.55-.57-3.28-.04-3.99,2.64-3.5,8.33-5.96,9.89-8.07,1.32-1.8.66-4.41,1.93-6,5.03-6.26,11.15-12.23,15.79-16.1.64-.54-.52-3.26-.04-3.99.6-.91,3.27-1.08,3.97-2.03,1.34-1.83.6-4.4,1.93-6,5.46-6.51,12.19-10.48,17.78-16.12-1.7-5.62,2.76-5.19,1.9-9.99,6.39.7,4.81-3.53,5.92-6.04.24-.55,3.48-1.43,3.97-2.03,3-3.68,4.75-8.58,7.86-12.04,6.29-7,13.83-12.63,21.75-18.15.81-3.81,5.66-3.66,3.89-10,7,.29,6.49-6.79,11.88-8.09,1.52-8.39,7.26-12.62,15.81-14.11,6.43,3.97,11.23,10.21,16.1,15.79,2.47,2.84,5.64,5.03,8.05,7.89,1.27,1.52.94,4.54,2.05,5.96,4.48,5.74,11.41,7.27,16.06,11.8,1.59,1.25.68,4.43,2.05,5.96,1.17,1.31,4.87.67,6,1.93,1.24,1.39,1,4.62,2.05,5.96.75.96,3.05,3.03,4.02,3.95,6.26,5.96,13.13,8.61,18.09,15.77,2.59,3.74,5.58,8.24,6.11,13.9,3.59,2.29,5.89,4.18,8.03,5.9.67.54-.51,3.29.04,3.99.61.77,3.2,1.32,4,1.96.67.54-.53,3.3.04,3.98,1.35,1.65,4.75,2.19,6.02,3.93,1.16,1.6,1.19,4.54,2.05,5.96.31.51,1.4,1.04,2.01,1.97,1.37,2.1,2.35,4.2,4.05,5.94,1.72,1.76,2.44,3.96,4.04,5.94.32.4-.31,1.6.02,1.99.53.64,3.48-.69,3.99-.04,1.35,1.72.69,4.05,2.05,5.96,1.18,1.65,4.73,2.28,6.02,3.93.64.81-.4,3.03.04,3.99.25.54,3.51,1.37,4,1.96,1.61,1.9,2.45,4.06,4.04,5.94,3.03,3.59,6.67,6.08,10.06,9.87.63.71-.37,3.09.04,3.99.94,2.04,7.2,3.26,8.01,3.91.64.51-.62,3.51.04,3.99,1.42,1.04,4.73,1.27,6,1.94,2.26,1.19,3.68,3.2,6.02,3.93,4.8,1.49,9.03,2.42,13.95-.13,5.6.8-5.07-7.38,1.92-7.99,5.43,2.52,11.11,4.77,19.97,3.79,7.04-1,6.92-9,15.87-8.13,1.87-3.73-6.03-6.6-.08-7.97,6.85-5.51,14.97,1.13,23.92-.23,3.35-3.95,6.03-8.56,11.86-10.08,8.92-4.41,20.15-6.56,29.81-10.25.63-2.06,2.65-2.61,3.95-4.02,1.3-1.42,1.49-3.76,3.95-4.02,3.74-2.24,9.39-2.63,13.91-4.12-.01-3.96,5.42-2.59,3.91-8.01,1.19-2.77,7.67-.37,7.93-4.06,3.97-4.66,7.16-10.09,13.84-12.09-1.75-8.95,9.33-5.33,5.82-16,5.65,1.59,5.14-2.86,9.95-2.09,1.92-12.04-.66-16.34,3.74-25.95-2.85-.45-3.4-3.25-6.02-3.93Z"/>
</svg>