<?xml version="1.0" encoding="UTF-8"?>
<svg id="Ebene_1" xmlns="http://www.w3.org/2000/svg" version="1.1" viewBox="0 0 800 800">
  <!-- Generator: Adobe Illustrator 30.4.0, SVG Export Plug-In . SVG Version: 2.1.4 Build 226)  -->
  <defs>
    <style>
      .st0 {
        fill: none;
      }

      .st0, .st1 {
        stroke: #e5b969;
        stroke-miterlimit: 10;
      }

      .st1, .st2 {
        fill: #e5b969;
      }

      .st2 {
        fill-rule: evenodd;
      }
    </style>
  </defs>
  <path class="st2" d="M-353.33,1207.83c3.76-2.11,7.61-.02,9.81-.3,5.28-.7,7.69-3.44,11.63-3.6,6.55-.27,28.93,5.37,33.14,2.85,3.55-2.13,8.02,1.02,11.05.95,1.02-.03,2.04-1.82,3.05-2.04,1.54-.34,3.49,1.69,5.52.47,2.27-1.36,2.01,1.16,4,1.5.82.14,2.18-2.01,3.05-2.04,5.29-.19,10.03.25,15.33.17,6.92-.11,13.62-.41,18.1.41.5.09.74,1.17,1.24,1.26.84.14,2.18-2.08,3.05-2.04,4.41.21,8.22.97,11.05.95.51,0,1.02-1.02,1.53-1.02.85,0,1.62,2.46,2.47,2.51,3.5.19,6.79-4.04,8.28.71,2.03-1.36,4.07-2.72,6.1-4.08,13.16,2.46,27.42,1.35,38.67,3.33,4.78.84,10.75.83,13.81,1.19,2.15.25,3.01,2.22,5.24,2.75,3.3.8,8.44-.52,10.76,3.23,1.64-6.59,5.42.86,8.28.71,1.4-.08,5.4-3.01,8.86-3.84.24-.05.97,1.21,1.24,1.26.72.12,2.29-1.88,3.05-2.04.26-.05.95,1.2,1.24,1.26,2.14.36,15.05-9.68,16.78-11.21,1.26-1.12.69-2.46,1.81-3.29,1.37-1.02-.05-1.89.29-2.28,4.3-5.04,8.43-5.91,9.44-8.39,2.23-5.5,6.78-9.41,7.25-13.18.19-1.52.61-3.02.57-4.55,6.53-2.89,4.43-6.52,10.97-9.41-2.79-3.29-.1-7-.09-10.36,0-1.35.83-3.16.58-4.55-.17-.93-2.18-1.6-2.47-2.51-.15-.46,1.79-2.69,1.81-3.29.18-5.32.99-11.08.49-14.91-.28-2.15-.65-3.81-.66-5.81,0-1.46.63-2.91.58-4.55-.06-1.65-1.01-3.07.58-4.55,2.04,2.21,4.34,2.43,6.76,1.73-4.02-3.41-.35-6.16-4.37-9.58,2.27-1.72,2.51-2.36.58-4.55-1.71-1.93-.18-6.38-.37-8.08-.29-2.56-1.7-3.11-3.42-6.05-2.02-3.45,1.04-10.33-5.32-13.11.75-2.62,4.41-4.99,5.15-7.61-3.31-7.19-9.14-14.59-8.45-21.43-6.48-.27-7.79-7.39-12.65-10.29-1.53-.91-7.83,1.58-8-2.99-4.5-1.22-9.77,3.67-14.1,1.09-4.64-3.47,1.88-5.97-4.37-9.58-7.31,3.23-15.21.27-22.38.37-4,.05-7.09,1.11-11.34,1.32-3.46.17-8.34-1.87-11.33,1.33-5.75-3.93-16.06-2.9-20.57-2.92-.84,0-1.63-2.48-2.47-2.51-1.36-.05-4.73,1.63-5.81,1.8-5.86.91-12.82-1.58-16.86.85-3.17,1.89-11.58-.27-15.34-.17-4.65.12-9.68.99-14.1,1.09-3.57.08-7.42-1.61-9.52-1.97-.82-.14-2.18,2-3.05,2.04-1.54.06-3.88-.51-5.52-.47-5.05.11-9.07.08-12.57.07-4.44-.01-11.34-1.49-13.81-1.19-2.84.34-4.81,4.04-7.34,2.82-4.3-2.77-9.45,1.13-13.52-3.46-12.19,4.35-23.56,2.29-34.95.44-6.09.28-12.7,4.7-18.1-.4-2.68.04-6.05-1.16-8.76-1.15-4.85.01-9.44.21-14.26.58-1.86.14-3.91.17-5.8.07-1.17-.06-1.97-.52-3.08-.68-2.72-.39-6.25.04-8.98.02-2.21-.02-5.27-.16-7.3.65-.65.26-1.08.7-1.76.97-2.14.87-5.03.25-6.94-.69-4.39-2.14-8.15-5.43-13.48-5.36-2.64.04-5.29,0-7.93,0-1.56,0-3-.08-4.4.31-.63.18-1.33.59-2.01.79-4.15,1.18-8.3,2.34-12.69,2.65-2.03.14-4.25-.29-6.23.02-.49.08-.88.45-1.32.53-.94.17-1.74.15-2.71.14-2.95-.02-5.84.19-8.72-.41s-5.43-2.05-8.29-2.66c-.66-.14-1.37-.03-2.04-.21-.78-.21-1.39-.81-2.14-1.04-1.54-.47-3.68-.76-5.34-.74-2.83.03-4.95.14-7.73.81-3.09.73-4.55-.12-7.59-.2-2.26-.05-4.79.38-7,.08-2.08-.29-1.07-.88-2.06-2.02-1.83-2.11-8.09.67-10.59.73-8.57.22-17.15-2.83-25.32-.7-8.79,2.29-19.88-.01-26.38-1.12-.84-.14-2.17,2.07-3.05,2.04-4.45-.18-9.26-.91-13.81-1.19-2.43-.15-4.36-1.5-6.76-1.73-3.28-.32-6.97,4.14-8.29-.71-4.14,3.31-7.48.29-11.63,3.6-8.33-4.02-17.91,1.77-26.09-3.39-6.76,5.61-11.99-.85-18.67,4.14-2.26-4.17-5.52-.5-7.99-2.99-10.53,2.97-21.37.95-32.19.68-3.16-.08-8.82-.29-9.81.3-4.07,2.45-5.21-2.55-8.28-.71-2.96,1.77-13.11-.15-15.33-.17-5.72-.05-10.93.93-16.86.85-5.26-.07-11.31-1.33-16.57-1.42-2.43-.04-6,1.55-8.57,1.56-4.8.02-10.47-3.19-13.81-1.19-1.84,1.1-1.45-.34-2.76-.24-2.74.21-5.85,1.7-8.57,1.56-5.46-.28-11.01-1.7-16.28-3.7-5.26,5.79-17.14-.77-21.15,1.63-3.14,1.88-7.13-1.3-9.81.31-1.81,1.08-1.6-.41-2.77-.24-11.18,1.62-18.72-.55-29.14-1.36-7.9-.61-15.68-.48-23.62-.88-3.26,2.26-3.62,5.5-5.15,7.61-1.79,2.46-4.07,3.23-4.86,5.33-.57,1.53,1.07,4.18.66,5.81,3.87-2.36,4.41,3.94,2.18,4.79-9.26,5.72-8.57,12.3-9.35,18.75-3.81,4.33-6.67,1.17-10.1,2.58-.66,7.23,2.06,14.75-6.88,21.26.92,3.53,2.65,7.13.08,10.36-2.54,1.7-5.08,3.4-7.63,5.1.46,4.23-1.92,8.3-2.97,12.4-.76,2.96-.48,6.43-2.39,7.85-2.07,1.54,1.16,4.09.66,5.81-3.93,1.96-5.65,4.12-6.39,6.35.88,6.98-.89,13.73,2.93,20.96-1.68,3.69-2.52,7.45-4.2,11.14,6.01,7.8.29,14.59,6.93,22.45-.22,3.05-6.93,5.54-3.91,8.87,6.4-2.81,11.11,7.75,16.65,11.79,3.25-1.54,6.64-.28,9.81-.31,3.16-.02,11.37-1.16,12.57-.06,1.52,1.39,1.27.09,2.76.23,4.21.41,8.38-.63,11.34-1.32,2.26-.53,3.51-.34,5.81-1.8,5.43,4.09,13.22,1.53,19.33,1.66,1.25.02,2.72,1.42,4,1.49,2.07.11,3.65-1.79,5.81-1.8,3.8-.02,7.17,1.73,11.05.95,5.65-.1,11.13-.91,16.86-.85,2.62.02,5.37.52,8.28.71.46.03.77,1.18,1.24,1.26.84.14,2.17-2.06,3.05-2.04.87.02,1.59,2.44,2.47,2.51.94.08,2.09-2.04,3.05-2.04,4.62,0,16.04,1.64,18.1.4,2.92-1.75,6.24.36,8.29.71.76.13,2.24-1.92,3.05-2.04,1.13-.16,4.21.45,5.53.48,3.91.08,6.86.6,11.05.95,1.83.15,3.68.31,5.52.47,2.07.18,4.75,1.72,6.76,1.73,1.45,0,3.13-2.77,4.57-3.06,1.69-.34,3.5,2.45,5.23,2.75.72.12,2.28-1.88,3.05-2.04.26-.05.95,1.21,1.24,1.26.83.14,2.18-2.02,3.05-2.04,4.32-.09,9.7,2.29,12.28,2.21,2.2-.07,3.81-1.81,5.81-1.8,7.91.04,16.27.91,22.09,1.9.81.14,2.2-1.98,3.05-2.04,1.07-.08,2.83,1.53,4,1.5,2.23-.07,3.76-1.85,5.81-1.8,8.37.18,15.56,2.45,23.33,3.16,3.29-3.92,5.69-.87,8.86-3.84,3.38,4.42,5.67,1.28,8.28.71.57-.13,3.24,1.49,4,1.49,4.68.04,9.53-1.31,14.1-1.09,9.26.46,18.21,2.4,27.33,4.65,3.43-1.41,6.29,1.75,10.1-2.58,4.07,4.59,9.22.69,13.52,3.47,7.4-3.27,14.18-1.77,20.57,2.92,7.96,0,14.63,1.92,22.59,1.92,1.42,0,3.46.22,4.93.01,1.61-.23,2.14-.81,3.47-1.79s2.08-1.62,3.71-1.08c.7.23,1,.72,1.8.91.68.16,1.41.04,2.1.04,1.61,0,3.27.09,4.87-.06,1.86-.17,3.27-.97,5.01-1.26,3.47-.58,7.08.59,10.49.69,4.38.13,8.47,1.03,12.77,1.3,2.52.15,5.14-.03,7.67-.03,1.45,0,3.05-.18,4.46.05,1.54.24,2.94.99,4.57,1.18,5.13.6,10.12.7,15.33.7,1.77,0,3.76.2,5.53.01,1.25-.13,1.6-.44,2.69-.92,1.28-.56,2.18-.15,3.44-.34.61-.09.97-.42,1.53-.55,2.06-.47,4.33-.08,6.4.16,5.51.63,10.37,3.01,15.77,4.15,4.25.9,8.32,1.59,12.73,1.36,2.6-.14,5.14-.87,7.7-1.19,2.27-.28,4.52-.07,6.74-.45,3.55-.6,7.38-.28,11.05-.32,2.14-.03,3.15.33,5.25.9,1.37.38,1.89.52,3.24.01s2.36-1.73,3.83-2.1c1.07-.27,2.41-.11,3.55-.1,3.15.01,5.92.16,8.95.77,1.1.22,2.07.83,3.16,1.05,1.01.21,2.1-.04,3.07.17,1.04.22.35.26,1.69.24l-.03-.04Z"/>
  <path class="st2" d="M1754.4,319.74c-1.93-1.45-3.48-3.26-4.78-4.96-1.29-1.71-2.33-3.31-3.27-4.32-4.51-4.85-7.5-6.28-10.72-10.02-1.34-1.55-3.35-4.17-5.64-7.29-2.26-3.14-4.86-6.76-7.4-10.3-5.1-7.06-10.07-13.74-12.18-15.42-3.61-2.81-5.88-8.17-8.28-11.1-.81-.98-2.31-1.43-3.18-2.35-1.33-1.4-2.07-3.93-4.13-5.55-2.28-1.82-1.1-2.34-2.5-4.41-.58-.85-2.47-1.53-3.16-2.38-4.16-5.16-7.65-9.97-11.77-15.17-5.31-6.84-10.54-13.42-13.62-18.12-.34-.52-.1-1.09-.44-1.61-.58-.88-2.48-1.53-3.14-2.42-3.23-4.48-5.79-8.54-7.92-11.36-.38-.51-1.17-.71-1.55-1.22-.64-.85-.23-2.36-.85-3.23-2.55-3.57-6.72-5.6-5.93-8.51l-6.15-4.95c-1.09-1.75-2.22-3.51-3.38-5.26l-1.75-2.62c-.38-.55-.37-.57-.5-.79l-.32-.53c-.87-1.41-1.78-2.79-2.69-4.14-1.82-2.7-3.57-5.3-4.76-7.84-1.03-2.16-2.74-4.54-3.47-5.86-.51-.93.04-1.85-.38-2.89-.62-1.55-2.62-3.22-1.76-5.23-3.15,1.26-1.2-2.41-2.08-3.51-.43-.54-2.77-1.28-4.1-2.42-.09-.08.22-.74.16-.86-.16-.32-1.41-.37-1.69-.63-.1-.09.23-.73.16-.86-.45-.96-8.19-3.26-9.31-3.52-.81-.19-1.2.43-1.86.22-.8-.26-.76.56-1.01.54-3.28-.29-4.8-1.71-6.1-1.4-2.88.68-5.78-.04-7.46.84-.68.36-1.41.62-2.03,1.07-3.04-1.82-3.93.07-6.98-1.76-.56,2.07-2.85,2.04-4.23,2.99-.56.38-1.53.56-2.03,1.06-.33.33-.04,1.34-.33,1.72-.15.19-1.62.04-1.87.2-2.24,1.44-4.83,2.76-6.26,4.05-.8.73-1.38,1.35-2.2,1.93-.6.42-1.38.57-2.04,1.06-.66.49-.97,1.29-2.03,1.06.32-1.47-.25-2.47-1.23-3.26-.25,2.62-2.43,1.9-2.68,4.52-1.36-.44-1.69-.36-2.04,1.06-.3,1.25-2.57,1.89-3.21,2.46-.97.85-.79,1.59-1.5,3.13-.83,1.82-4.54,2.51-3.85,5.93-1.29.44-3.32-.4-4.61.04-1.99,3.42-3.34,7.95-6.35,9.62,1.77,2.76-.77,5.35-.54,8.2.07.9,2.93,2.8,1.11,4.18.81,2.22,4.34,3.01,4.55,5.55-.06,2.93-2.99.94-2.64,4.58,3.45,2.1,4.61,6.21,6.77,9.15,1.21,1.64,2.55,2.61,3.89,4.3,1.1,1.38,1.71,3.99,3.89,4.3.11,3.52,3.56,7.5,4.93,9.34.25.35-.52,1.4-.27,1.75.39.57,2.08,1.46,2.47,1.85.53.53,1,1.16,1.43,1.81l.63.99.31.49.15.24.14.2.21.3c2.2,3.17,4.3,6.06,6.34,7.81,1.6,1.37,3.77,4.43,5.96,7.6,2.19,3.17,4.35,6.48,5.83,8.41,3.67,4.79,7.91,9.74,11.4,14.29,2.85,3.65,5.21,8.12,6.72,10.4.59.89,2.52,1.64,3.21,2.52,1.24,1.57,2.86,4.15,4.17,5.83,4.03,5.16,7.23,9.26,10.03,12.84,3.54,4.53,8.48,12.03,10.57,14.46,2.42,2.77,5.48,3.62,7.04,6.55,2.4,5.22,8.09,9.2,9.6,14.76,5.8,5.47,10.89,11.17,15.55,17.05,2.34,2.93,4.57,5.92,6.79,8.89l6.61,8.93c5.19,5.96,12.32,11.14,14.95,18.08,2.27,2.63,4.66,6.34,6.94,9.01,4.09,4.78,8.02,9.26,12.29,13.82,1.64,1.77,3.4,3.77,4.97,5.65.97,1.16,1.49,2.1,2.37,3.24,2.17,2.79,5.34,6.1,7.67,8.77,1.9,2.14,4.49,5.15,6.54,6.85.66.55,1.19.82,1.88,1.38,2.17,1.78,4.43,4.78,5.74,6.95,1.49,2.48,2.75,4.91,4.21,7.36,1.48,2.43,3.17,4.88,5.52,7.43,2.31,2.53,4.62,5.07,6.93,7.61,1.36,1.49,2.6,2.91,3.96,4.11.61.54,1.38,1.08,2.04,1.66,4.07,3.57,8.19,7.1,12.18,11.17,1.85,1.88,3.66,4.14,5.52,5.91.46.44.94.68,1.36,1.07.89.83,1.59,1.6,2.44,2.52.51.54,1.02,1.08,1.52,1.62.15.18.28.38.31.63.07.51-.34,1.13-.4,1.51-.01.09.1.13.07.23-.04.11-.3.27-.36.37-.06.1-.1.21-.1.3,0,.08-.01.13.04.17.16.14.31.22.88.33.65.14.18.27.28.43.04.06.17.13.28.2.04.03.13.07.11.1-.04.03-.1.05-.19.08-.33.08-.69-.01-1.55-.07-.78-.06-.71,0-.51.11.21.11.55.3.51.35-.15.19-.76.21-1.13.21-.4.01-.57,0-.35.5.06.14.08.26.07.36,0,.05-.01.1-.03.14.12-.08-.32.28-.58.5l-.88.72c-2.35,1.91-4.8,3.77-7.21,5.54-4.82,3.53-9.49,6.66-12.92,9.01-.88.61-1.54,2.53-2.42,3.21-4.52,3.44-9.55,6.95-14.2,10.43-2.48,1.86-4.83,2.85-7.3,4.65-3.39,2.46-5.7,7.12-8.52,6.26-3.13,4.57-7.41,6.02-10.53,10.59-9.59,4.99-17.38,14.82-27.18,19.25-5.03,7.54-12.27,9.13-17.42,16.36-3.56.15-5.68,4.16-8.93,5.13-9.63,9.48-21.11,17.23-32.03,25.67-3.19,2.46-8.92,6.84-9.73,7.86-3.32,4.17-6.01,3.11-8.52,6.25-2.41,3.03-13.18,10.28-15.41,12.03-5.74,4.49-10.66,8.98-16.62,13.63-5.28,4.12-11.74,8.4-17.03,12.51-2.45,1.9-5.53,5.34-8.1,7.38-4.8,3.79-11.47,7.01-14.2,10.43-1.51,1.89-1.55,1.01-2.84,2.09-2.68,2.24-5.33,5.28-8.1,7.38-5.56,4.2-11.56,8.02-17.45,11.39-3.48,6.42-17.41,13.22-20.67,17.32-2.57,3.22-7.54,5.12-9.73,7.86-.37.46-.66.76-.91.97-.15.12-.19.14-.23.16-.05.02-.1.03-.14.03-.19.01-.39-.04-.59.17-3.89,4.1-7.52,5.57-11.87,8.48-3.29,2.2-6.31,4.66-9.55,6.96-.58,1.9.28,3.28.33,4.58.06,1.52-.6,2.53-.26,3.6.25.78,1.71,1.31,2.06,2.08.79-2.12,2.95.18,2.34,1.21-1.87,5.11.44,7.48,2.13,10.26-.16,2.88-2.26,2.52-3.17,4.14,1.98,3.04,5.37,5.15,3.88,10.48,1.45,1.1,3.25,1.98,3.24,4.04l-1.42,4.36c1.49,1.52,1.82,3.85,2.67,5.79.62,1.4,1.8,2.68,1.49,3.82-.34,1.24,1.72,1.25,2.05,2.08-.94,1.99-.95,3.37-.54,4.47,2.5,2.47,3.9,5.67,7.63,7.33.48,1.97,1.31,3.71,1.8,5.68,4.77,1.2,4.63,5.64,9.67,6.67.86,1.27-1.01,4.32,1.21,4.69,1.65-3.08,6.76-.39,10.19-.52.8-1.61,2.52-2.17,3.76-3.16,1.23-.99,4.11-3.98,4.92-3.92,1.03.07.53-.36,1.16-.76,1.78-1.14,3.1-2.84,4.04-4.03.72-.91,1.28-1.22,1.73-2.51,3.4-.07,5.67-3.49,8.11-5.33.5-.38,1.51-.28,2.03-.65.85-.6.88-1.83,1.73-2.51,1.48-1.18,3.35-1.54,4.63-3.04.69-.61,7.83-6.75,13.21-10.94,2.63-2.06,5.54-4.03,8.52-6.26.47-.35,1.14-.15,1.63-.48.88-.61,1.53-2.52,2.42-3.21.88-.68,2.34-.3,3.25-.96.97-.71,1.46-2.45,2.42-3.21,4.63-3.64,16.57-12.01,18.25-14.12,2.38-2.99,6.36-4.78,8.52-6.26.8-.55,1.65-2.52,2.42-3.21,1.08-.96,4.36-3.15,5.68-4.17,3.94-3.06,7.05-5.18,11.36-8.34,1.89-1.38,3.79-2.78,5.68-4.17,2.12-1.56,5.29-3.07,7.31-4.65,1.46-1.14,2.28-3.56,3.64-4.81,1.58-1.46,4.27-1.8,6.09-3.05.76-.52,1.7-2.54,2.42-3.21.25-.23,1.32-.27,1.63-.48.87-.6,1.55-2.51,2.42-3.21,4.3-3.44,10.42-6.76,12.98-8.82,2.18-1.76,3.26-3.72,5.26-5.29,7.94-6.23,16.57-12.48,22.71-16.68.85-.58,1.59-2.51,2.42-3.21,1.05-.87,3.31-1.63,4.47-2.57,2.21-1.79,3.2-3.69,5.26-5.29,8.43-6.53,16.34-11.31,24.34-17.17,2.08-4.13,5.43-4.83,7.69-8.5,4.75-.93,6.07-3.97,8.52-6.25.54-.5,3.71-1.97,4.46-2.57,4.7-3.67,9.14-8.03,13.79-11.55,9.41-7.12,18.98-13.42,28.81-19.73,3-3.26,6.84-4.28,9.31-8.98,5.5-1.41,9.45-7,14.61-9.3,6.39-7.12,13.66-11.88,21.5-15.08,1.99-1.57,3.94-3.03,5.87-4.43.97-.7,1.92-1.39,2.88-2.07l1.43-1.02.81-.58,1.32-.98c7.04-5.24,14.16-10.54,21.7-16.48,2.68-2.11,6.66-5.1,9.35-7.36,2.94-2.47,3.66-3.39,5.67-5.61,1.99-2.19,3.05-3.43,6.39-5.72,1.44-.98,2.26-1.32,3.86-2.46,1.36-.97,2.66-2.07,3.96-3.09,3.02-2.38,6.18-4.82,9.09-7.2,3.39-2.78,5.51-4.96,8.54-7.53,3.03-2.58,6.42-5.15,9.87-7.72l2.6-1.93,1.3-.96c.1-.08.22-.16.32-.24l.14-.12s-.06-.09-.09-.14l-.51-.56c-1.36-1.49-2.73-2.96-4.13-4.42-7.18-7.48-13.4-14.53-20.45-21.97-4.11-4.35-8.66-8.87-12.85-13.21-2.38-2.47-5.1-5.18-7.3-7.63-2.4-2.68-4.35-5.24-6.96-8.09-4.1-4.48-8.21-8.89-12.38-13.3-2.09-2.2-4.19-4.4-6.3-6.62-.95-1-1.91-2-2.87-3.01-.55-.59-1.1-1.19-1.66-1.78-1.51-1.63-3.14-3.52-4.72-5.08-1.12-1.1-1.53-1.32-2.64-2.16-1.3-.98-1.92-1.95-3.06-3.04-.55-.53-.98-.75-1.51-1.22-1.94-1.73-3.73-3.95-5.41-5.92-4.44-5.3-7.65-10.62-11.78-15.99-3.25-4.23-6.44-8.22-10.18-12.28-2.22-2.39-4.61-4.51-6.86-6.8-1.99-2.03-3.79-4.2-5.79-6.15-3.2-3.1-6.22-6.85-9.26-10.29-1.77-2.01-2.47-3.08-3.98-5.25-.99-1.42-1.36-1.95-2.66-3.06s-2.59-1.66-3.95-2.93c-.98-.92-2.03-2.23-2.96-3.32-2.56-3-4.76-5.69-6.99-8.77-.81-1.12-1.37-2.24-2.17-3.35-.74-1.03-1.73-1.99-2.44-2.98-.76-1.06-.19-.42-1.29-1.69h.02Z"/>
  <path class="st2" d="M1507.22,329.42c-3.13-2.94-4.54-7.11-5.97-9.08-1.72-2.37-3.23-3.94-4.61-5.37-1.37-1.44-2.59-2.75-3.77-4.59-1.96-3.06-5.59-10.24-9.16-17.07-3.46-6.89-6.87-13.43-8.6-15.11-1.46-1.42-2.48-3.4-3.36-5.38-.86-1.98-1.54-3.99-2.39-5.43-.57-.97-1.91-1.51-2.55-2.43-.99-1.4-1.18-3.78-2.82-5.44-1.83-1.85-.6-2.22-1.54-4.22-.39-.82-2.07-1.61-2.56-2.44-2.96-5.06-5.24-9.8-8.11-14.93-1.86-3.35-3.74-6.62-5.35-9.66-1.59-3.05-2.97-5.82-3.95-8.11-.22-.51.14-1-.08-1.5-.37-.86-2.04-1.65-2.47-2.52-2.16-4.38-3.85-8.27-5.23-11.07-.26-.5-.96-.77-1.21-1.28-.42-.84.29-2.16-.11-3.02-1.66-3.5-5.19-5.81-3.81-8.35l-4.87-5.13c-.69-1.7-1.38-3.41-2.08-5.13l-1.08-2.57c-.23-.53-.24-.58-.32-.81l-.22-.57c-.59-1.53-1.23-3.03-1.86-4.5-1.27-2.94-2.51-5.77-3.25-8.43-.64-2.26-1.85-4.88-2.31-6.3-.32-1,.39-1.79.18-2.88-.31-1.62-1.94-3.59-.72-5.4-3.32.66-.71-2.56-1.35-3.78-.32-.6-2.46-1.74-3.54-3.09-.07-.09.36-.68.32-.8-.09-.34-1.32-.61-1.55-.92-.08-.1.36-.66.32-.8-.3-.99-7.37-4.66-8.42-5.11-.76-.33-1.26.19-1.86-.13-.73-.4-.85.4-1.1.34-3.15-.89-4.36-2.55-5.69-2.5-2.95.12-5.64-1.13-7.46-.58-.73.22-1.5.33-2.2.66-2.62-2.35-3.86-.68-6.49-3.04-.95,1.91-3.19,1.44-4.73,2.1-.62.27-1.61.25-2.2.65-.39.26-.3,1.31-.66,1.62-.18.16-1.59-.28-1.87-.16-2.48.98-5.28,1.76-6.94,2.75-.93.56-1.62,1.06-2.53,1.46-.67.3-1.46.29-2.2.64s-1.2,1.07-2.2.64c.6-1.38.24-2.47-.57-3.44-.75,2.51-2.76,1.38-3.51,3.9-1.25-.7-1.59-.69-2.21.64-.54,1.17-2.89,1.35-3.63,1.78-1.12.64-1.08,1.4-2.08,2.78-1.17,1.62-4.95,1.57-4.92,5.08-1.35.18-3.19-1.05-4.54-.87-2.62,2.97-4.81,7.18-8.08,8.23,1.21,3.09-1.77,5.14-2.09,8.01-.1.9,2.35,3.36.29,4.36.38,2.37,3.7,3.84,3.42,6.4-.58,2.88-3.13.35-3.42,4.02,3.05,2.75,3.41,7.06,5.01,10.39.89,1.86,2.03,3.08,3.05,5.02.83,1.58.95,4.3,3.05,5.02-.51,3.51,2.28,8.08,3.28,10.17.19.39-.76,1.29-.58,1.69.28.64,1.79,1.84,2.11,2.31.43.63.78,1.34,1.1,2.07l.45,1.1.22.55.11.27.09.21.13.3c1.45,3.2,2.82,6.15,4.45,7.99,2.53,2.91,6.02,12.26,8.06,16.19,2.49,4.89,5.66,9.92,8.12,14.51,1.99,3.71,3.35,8.12,4.35,10.4.39.89,2.08,1.81,2.57,2.7.88,1.59,1.97,4.14,2.9,5.83,2.9,5.2,5.16,9.36,7.14,12.99,2.46,4.61,5.89,12.02,7.45,14.49,1.8,2.82,4.56,3.93,5.5,6.82.66,2.54,2.14,4.91,3.55,7.26,1.42,2.35,2.73,4.73,2.96,7.38,2.3,2.82,4.39,5.68,6.34,8.58,1.94,2.9,3.72,5.85,5.48,8.77,3.49,5.87,6.58,11.84,9.71,17.81,3.92,6.02,10.01,11.37,11.28,18.12,1.72,2.65,3.33,6.35,5.12,8.99,3.16,4.77,6.24,9.23,9.53,13.87,1.28,1.79,2.61,3.81,3.82,5.68.75,1.15,1.1,2.06,1.78,3.19,1.65,2.76,4.19,6.07,6.01,8.73,1.47,2.15,3.45,5.17,5.14,6.91.54.56,1.01.85,1.58,1.43,1.81,1.82,3.54,4.76,4.46,6.87,2.12,4.83,3.37,9.42,7.05,14.52,1.81,2.54,3.68,5.05,5.52,7.57,1.09,1.48,2.07,2.88,3.21,4.09.51.54,1.17,1.09,1.72,1.67l2.53,2.7,1.26,1.37.61.67.06-.05s.08-.1.16-.09c.08.02.15.03.22.06.14.05.27.11.38.19.2.15.15.43.43.54.07.03.28,0,.35.03.15.06.2.14.26.23.19.27.53.54.38.84-.15.31-.86.55-1.1.73-.06.04.05.09-.03.13-.1.05-.46.07-.58.1-.24.07-.36.15-.28.23.09.14.42.27.63.45.32.23-.37.16-.58.25-.16.07-.05.26-.36.28-.28,0-.56-.16-1.24-.41-.62-.23-.58-.16-.43,0,.15.16.39.43.34.48-.16.17-.65.06-.96-.02-.16-.04-.28-.07-.34-.01l-.02.02h0l-.36.26-1.46,1.01c-.97.69-1.91,1.4-2.82,2.14-7.87,6.36-19.19,12.2-25.77,15.74-.85.46-1.54,2.21-2.4,2.73-4.35,2.66-9.18,5.31-13.65,7.98-2.38,1.43-4.61,2.04-6.99,3.42-3.25,1.88-5.62,6.03-8.19,4.79-3.11,3.94-7.15,4.72-10.26,8.66-9.12,3.42-16.81,11.75-26.1,14.6-5.02,6.52-11.8,7.01-16.91,13.22-3.3-.37-5.46,3.18-8.52,3.65-9.37,7.72-20.38,13.53-30.89,20.07-3.07,1.91-8.59,5.29-9.39,6.16-3.28,3.53-5.71,2.12-8.19,4.79-2.38,2.56-12.7,7.99-14.85,9.35-5.53,3.49-10.3,7.1-16.05,10.72-5.09,3.2-11.28,6.39-16.38,9.58-2.36,1.47-5.37,4.34-7.86,5.93-4.63,2.96-10.96,5.09-13.65,7.98-1.48,1.6-1.49.75-2.73,1.6-2.59,1.77-5.19,4.31-7.86,5.93-5.35,3.24-11.09,6.05-16.71,8.44-3.52,5.67-16.75,10.21-19.98,13.68-2.53,2.72-7.23,3.83-9.38,6.15-.36.39-.65.64-.89.8-.14.1-.19.11-.23.12-.05.01-.1.02-.15.01-.19,0-.38-.08-.61.11-4.28,3.69-8.05,4.79-12.66,7.25-3.5,1.86-6.74,4.01-10.2,5.97-.77,1.83-.05,3.29-.13,4.59-.1,1.52-.85,2.45-.62,3.55.17.8,1.57,1.47,1.84,2.27,1-2.03,2.92.48,2.21,1.43-2.37,4.9-.31,7.49,1.09,10.42-.44,2.85-2.5,2.28-3.57,3.8,1.66,3.23,4.83,5.67,2.81,10.82,1.34,1.24,3.03,2.3,2.82,4.35l-1.85,4.2c1.33,1.66,1.42,4.02,2.08,6.03.47,1.45,1.52,2.84,1.1,3.95-.46,1.2,1.59,1.41,1.84,2.27-1.13,1.88-1.28,3.25-.99,4.39,2.24,2.71,3.31,6.03,6.86,8.05.28,2.01.94,3.82,1.22,5.83,4.63,1.68,4.04,6.08,8.95,7.61.73,1.35-1.44,4.2.73,4.79,1.95-2.9,6.77.29,10.19.5.96-1.52,2.73-1.9,4.06-2.76,1.32-.86,4.48-3.54,5.29-3.4,1.02.18.56-.3,1.23-.64,1.89-.96,3.36-2.52,4.43-3.6.81-.83,1.39-1.09,1.97-2.32,3.39.27,5.99-2.9,8.6-4.49.53-.32,1.53-.13,2.09-.44.9-.51,1.06-1.73,1.97-2.32,1.59-1.03,3.49-1.2,4.91-2.56,1.02-.71,7.79-5.5,13-8.78,2.54-1.6,5.32-3.08,8.19-4.79.45-.27,1.06.02,1.53-.23.85-.45,1.54-2.2,2.4-2.73.85-.53,2.19.05,3.06-.46.93-.54,1.47-2.14,2.4-2.73,4.46-2.83,15.92-9.16,17.58-10.95,2.35-2.53,6.12-3.68,8.19-4.79.77-.41,1.65-2.19,2.4-2.73,1.05-.76,4.19-2.4,5.46-3.19,3.8-2.37,6.78-3.96,10.92-6.39,1.81-1.06,3.64-2.13,5.46-3.19,2.04-1.19,5.04-2.19,6.99-3.42,1.41-.89,2.28-3.09,3.6-4.1,1.54-1.18,4.04-1.12,5.79-2.06.73-.39,1.7-2.2,2.4-2.73.24-.18,1.24-.07,1.53-.23.83-.45,1.56-2.19,2.4-2.73,4.15-2.69,9.98-5,12.45-6.61,2.1-1.38,3.19-3.1,5.13-4.33,7.65-4.85,15.95-9.61,21.84-12.77.81-.44,1.59-2.18,2.4-2.73,1.01-.69,3.15-1.09,4.26-1.83,2.13-1.4,3.13-3.09,5.13-4.33,8.12-5.07,15.68-8.52,23.37-13,2.12-3.67,5.26-3.86,7.53-7.06,4.45-.21,5.82-2.94,8.19-4.79.52-.41,3.53-1.36,4.26-1.83,4.53-2.86,8.85-6.41,13.32-9.12,9.06-5.49,18.23-10.18,27.63-14.83,2.94-2.7,6.54-3.13,9.05-7.29,5.16-.56,9.08-5.37,13.98-6.84,6.26-5.92,13.22-9.46,20.64-11.41,3.84-2.44,7.5-4.49,11.16-6.53,1.83-1.03,3.65-2.07,5.51-3.12.92-.54,1.85-1.09,2.8-1.65.51-.32,1.03-.63,1.55-.95.89-.56,1.79-1.13,2.7-1.71,2.59-1.65,6.39-3.94,9.01-5.73,2.87-1.96,3.63-2.79,5.69-4.68,2.04-1.88,3.14-2.96,6.29-4.64,1.36-.72,2.08-.9,3.61-1.76,1.29-.73,2.56-1.61,3.81-2.4,2.91-1.85,5.95-3.74,8.77-5.62,3.28-2.19,5.43-4.03,8.39-6.09,5.91-4.1,13.03-7.95,19.26-11.85,3.99-2.5,7.97-4.88,11.97-7.26,2-1.19,4-2.39,6-3.58,1-.6,2-1.2,3-1.81l1.5-.91c.26-.15.5-.31.71-.46.04-.04.15-.07.12-.13l-.13-.17-.26-.34c-3.27-4.25-6.93-8.73-10.33-13.02-1.94-2.46-4.21-5.18-5.96-7.57-1.72-2.35-3.05-4.53-4.83-7-.18-.25-.38-.52-.58-.78-6.58-8.75-13.23-17.41-20.24-26.39-2.38-3.06-4.97-6.53-7.44-9.54-1.75-2.13-2.36-2.67-4.05-4.44-1.97-2.06-2.99-3.71-4.76-5.82-.84-1.02-1.45-1.56-2.24-2.48-1.44-1.65-2.87-3.67-4.32-5.64l-.2-.27-.13-.19-.25-.37-.5-.75c-.33-.5-.65-.99-.97-1.47-3.37-5.11-5.64-10.13-8.68-15.3-2.36-4.1-4.7-7.97-7.62-11.88-1.73-2.31-3.65-4.38-5.43-6.6-1.55-1.98-2.86-4.1-4.41-6.02-2.47-3.07-4.74-6.67-7.06-10-1.35-1.95-1.85-2.97-2.91-5.05-.68-1.37-.94-1.89-1.97-2.99-1.04-1.11-2.16-1.7-3.21-2.96-.77-.91-1.52-2.2-2.22-3.25-1.92-2.91-3.56-5.51-5.16-8.48-.57-1.08-.93-2.13-1.48-3.21-.51-1-1.27-1.95-1.76-2.91-.52-1.03-.1-.4-.91-1.64v-.05Z"/>
  <path class="st1" d="M561.09,763.68h-27.8c-7.61-3.37-16.86-9.73-16.97-19.74l-.39-36.18c-5.45,1.87-11.42,3.62-17.99,3.62l-195.61-.02c-5.92,0-11.72-1.98-16.52-3.61l-.25,34.87c-.08,10.5-8.87,17.59-17.51,21.07h-27.83c-8.68-3.33-17.71-10.62-17.73-21.5l-.21-126.12c-10.76-9.56-20.3-20.58-20.3-35.74l-.12-354.67c0-27.11,24.8-29.14,50.19-34.98,5.69-1.31,11.06,3.04,12.14,7.46,1.35,5.54-1.39,11.42-7.42,12.91l-29.06,7.19c-1.8.45-4.89,4.04-4.88,5.67l.24,28.39h355.52l.29-27.15c.03-3.17-2.54-6.22-6.04-7.16-87.23-23.26-177.47-28.67-266.83-15.73-6.85.99-11.96-3.05-12.74-8.64s2.69-11.25,8.87-12.11c29.57-4.15,58.3-6.36,88.13-7.2l.05-13.96c-9.51.66-17.14-.89-23.86-6.22l-53.43-42.38c-2.71-2.15-5.4-6.7-7.24-9.72-4.76,1.06-10.21.89-13.24-2.82-2.83-3.46-3.63-9.41-.33-13.38,47.99-57.56,166.08-59.01,216.62-.86,3.51,4.03,3.41,9.72.92,13.37-2.92,4.28-8.1,5.06-13.52,3.49-2.19,3.19-5.11,8.02-8.32,10.57l-52.67,41.79c-6.99,5.55-15.4,6.64-23.97,6.34l.21,13.86c57.71,1.24,114.13,8.68,169.72,24.32,11.07,3.11,18.55,14.19,18.56,25.22l.07,77.67c0,6.29-5.15,10.57-10.85,10.56-5.17-.01-10.1-4.69-10.2-10.62l-.05-28.17h-81.07v200.62h81.12v-120.21c-.42-6.82,4.4-11.7,10.23-11.76,5.46-.05,10.81,3.66,10.81,10.42l-.15,227.96c0,15.05-9.43,26.19-20.23,35.7l-.3,127.26c-.02,10.4-9.91,17.09-18.04,20.35l-.02-.03ZM420.43,139.17l54.87-43.73c2.44-1.94,3.04-8.36,1.85-11.22-42.23-28.08-110.4-28.21-152.7.1-1.4,3.25-.21,9.51,2.67,11.79l54.47,43.2,38.84-.13h0ZM304.02,273.34h-81.11v200.61h81.11v-200.61h0ZM476.63,273.34h-151.58v200.61h151.58v-200.61h0ZM515.51,641.25c6.71,0,12.77-3.36,16.45-7.03l40.25-40.14c4.07-5.05,6.62-11.06,6.61-17.79l-.12-81.28H222.9l-.03,81.27c0,6.77,2.45,12.73,6.61,17.79l40.23,40.13c4.21,4.2,10.61,7.07,17.14,7.07l228.66-.02h0ZM264.68,688.57c-25.4-19.95-7.03-43.63-21.28-50.2l.07,104.15,21.2.07v-54.02h0ZM537.04,742.73l21.2-.45.02-103.9c-14.25,6.64,4.19,29.63-21.31,50.51l.09,53.84h0ZM513.02,683.56l14.47-14.74c1.62-1.65,3.07-6.78,3.32-8.94l-16.02,2.36h-227.88c-5.87,0-10.12-1.22-16.09-2.36.35,2.71,2.07,7.69,4.01,9.63l15.83,15.82c3.04,3.04,8.09,5,13.08,5h194.22c6.04,0,10.84-2.46,15.07-6.76h0Z"/>
  <path class="st0" d="M515.51,641.25l-228.66.02c-6.53,0-12.93-2.87-17.14-7.07l-40.23-40.13c-4.15-5.06-6.61-11.02-6.61-17.79l.03-81.26h355.8l.12,81.27c0,6.73-2.54,12.74-6.61,17.79l-40.25,40.14c-3.68,3.67-9.74,7.03-16.45,7.03h0ZM371.4,553.23c2.83-5.61-.7-11.6-5.11-13.66-3.92-1.83-10.31-1.16-12.82,3.27-17.23,30.53-1.79,67.9,29.59,79.17,32.79,11.77,67.35-9.06,73.4-42.13,6.31-34.48-20.27-66.15-55.45-65.54-6.57.11-10.19,6.43-9.52,11.56.7,5.4,4.91,9.2,10.91,9.37,22.14.63,37.94,20.65,33.09,42.19-4.42,19.63-25.52,32.01-45.44,24.76-19.19-6.99-28.63-29.24-18.66-48.98h.01ZM307.43,566.96c0-17.04-13.81-30.85-30.85-30.85s-30.85,13.81-30.85,30.85,13.81,30.85,30.85,30.85,30.85-13.81,30.85-30.85ZM555.93,566.96c0-17.04-13.81-30.85-30.85-30.85s-30.85,13.81-30.85,30.85,13.81,30.85,30.85,30.85,30.85-13.81,30.85-30.85Z"/>
  <path class="st0" d="M476.63,273.34v200.61h-151.58v-200.61h151.58Z"/>
  <rect class="st0" x="222.9" y="273.34" width="81.11" height="200.61"/>
  <path class="st0" d="M420.43,139.17l-38.84.13-54.47-43.2c-2.88-2.29-4.07-8.54-2.67-11.79,42.3-28.31,110.46-28.18,152.7-.1,1.19,2.86.59,9.28-1.85,11.22l-54.87,43.73h0Z"/>
  <path class="st0" d="M513.02,683.56c-4.22,4.3-9.03,6.77-15.07,6.77h-194.22c-4.99,0-10.04-1.96-13.08-5l-15.83-15.82c-1.94-1.94-3.66-6.92-4.01-9.63,5.97,1.14,10.22,2.36,16.09,2.36h227.88l16.02-2.36c-.24,2.16-1.69,7.29-3.32,8.94l-14.47,14.74h0Z"/>
  <path class="st0" d="M264.68,688.57v54.02l-21.21-.07-.07-104.15c14.25,6.57-4.12,30.25,21.28,50.2Z"/>
  <path class="st0" d="M537.04,742.73l-.09-53.84c25.51-20.88,7.06-43.88,21.31-50.51l-.02,103.9-21.2.45h0Z"/>
  <path class="st1" d="M371.4,553.23c-9.97,19.74-.52,41.99,18.66,48.98,19.92,7.25,41.01-5.13,45.44-24.76,4.85-21.54-10.95-41.56-33.09-42.19-6-.17-10.21-3.97-10.91-9.37s2.94-11.45,9.52-11.56c35.18-.61,61.75,31.06,55.45,65.54-6.05,33.08-40.6,53.91-73.4,42.13-31.38-11.27-46.82-48.63-29.59-79.17,2.5-4.44,8.9-5.1,12.82-3.27,4.41,2.06,7.95,8.05,5.11,13.66h-.01Z"/>
  <path class="st1" d="M555.93,566.96c0,17.04-13.81,30.85-30.85,30.85s-30.85-13.81-30.85-30.85,13.81-30.85,30.85-30.85,30.85,13.81,30.85,30.85ZM534.85,566.94c0-5.4-4.38-9.78-9.78-9.78s-9.78,4.38-9.78,9.78,4.38,9.78,9.78,9.78,9.78-4.38,9.78-9.78Z"/>
  <path class="st1" d="M307.43,566.96c0,17.04-13.81,30.85-30.85,30.85s-30.85-13.81-30.85-30.85,13.81-30.85,30.85-30.85,30.85,13.81,30.85,30.85ZM286.39,566.94c0-5.41-4.39-9.79-9.79-9.79s-9.79,4.39-9.79,9.79,4.39,9.79,9.79,9.79,9.79-4.39,9.79-9.79Z"/>
  <circle class="st0" cx="525.06" cy="566.94" r="9.78"/>
  <circle class="st0" cx="276.59" cy="566.94" r="9.79"/>
</svg>